<svg width="20" height="18" viewBox="0 0 20 18" fill="none" xmlns="http://www.w3.org/2000/svg">
<path d="M12.207 10.5176C12.6497 10.7389 13.0501 11.0156 13.4082 11.3477C13.7663 11.6797 14.069 12.0638 14.3164 12.5H12.7832C12.4316 12.1029 12.015 11.7969 11.5332 11.582C11.0514 11.3672 10.5404 11.2565 10 11.25C9.47917 11.25 8.99414 11.3477 8.54492 11.543C8.0957 11.7383 7.69857 12.0052 7.35352 12.3438C7.00846 12.6823 6.73828 13.0827 6.54297 13.5449C6.34766 14.0072 6.25 14.4922 6.25 15H5C5 14.5247 5.0651 14.0658 5.19531 13.623C5.32552 13.1803 5.51107 12.7604 5.75195 12.3633C5.99284 11.9661 6.28906 11.6146 6.64062 11.3086C6.99219 11.0026 7.3763 10.7389 7.79297 10.5176C7.30469 10.166 6.92708 9.72656 6.66016 9.19922C6.39323 8.67188 6.25651 8.10547 6.25 7.5C6.25 7.15495 6.1849 6.83268 6.05469 6.5332C5.92448 6.23372 5.74544 5.9668 5.51758 5.73242C5.28971 5.49805 5.02604 5.31901 4.72656 5.19531C4.42708 5.07161 4.10156 5.00651 3.75 5C3.40495 5 3.08268 5.0651 2.7832 5.19531C2.48372 5.32552 2.2168 5.50456 1.98242 5.73242C1.74805 5.96029 1.56901 6.22396 1.44531 6.52344C1.32161 6.82292 1.25651 7.14844 1.25 7.5H0C0 7.16146 0.0455729 6.82943 0.136719 6.50391C0.227865 6.17839 0.354818 5.87565 0.517578 5.5957C0.680339 5.31576 0.885417 5.05534 1.13281 4.81445C1.38021 4.57357 1.65039 4.375 1.94336 4.21875C1.72201 3.99089 1.55273 3.72721 1.43555 3.42773C1.31836 3.12826 1.25651 2.81901 1.25 2.5C1.25 2.15495 1.3151 1.83268 1.44531 1.5332C1.57552 1.23372 1.75456 0.966797 1.98242 0.732422C2.21029 0.498047 2.47396 0.31901 2.77344 0.195312C3.07292 0.0716146 3.39844 0.00651042 3.75 0C4.09505 0 4.41732 0.0651042 4.7168 0.195312C5.01628 0.325521 5.2832 0.504557 5.51758 0.732422C5.75195 0.960286 5.93099 1.22396 6.05469 1.52344C6.17839 1.82292 6.24349 2.14844 6.25 2.5C6.25 2.81901 6.19141 3.12826 6.07422 3.42773C5.95703 3.72721 5.78451 3.99089 5.55664 4.21875C5.83008 4.36849 6.07422 4.54753 6.28906 4.75586C6.50391 4.96419 6.69922 5.19206 6.875 5.43945C7.05078 5.17904 7.2526 4.94466 7.48047 4.73633C7.70833 4.52799 7.95573 4.35221 8.22266 4.20898C8.48958 4.06576 8.77279 3.95182 9.07227 3.86719C9.37174 3.78255 9.68099 3.74349 10 3.75C10.3125 3.75 10.6185 3.78906 10.918 3.86719C11.2174 3.94531 11.5007 4.05599 11.7676 4.19922C12.0345 4.34245 12.2852 4.52148 12.5195 4.73633C12.7539 4.95117 12.9557 5.18555 13.125 5.43945C13.2943 5.19206 13.4863 4.96419 13.7012 4.75586C13.916 4.54753 14.1634 4.36849 14.4434 4.21875C14.222 3.99089 14.0527 3.72721 13.9355 3.42773C13.8184 3.12826 13.7565 2.81901 13.75 2.5C13.75 2.15495 13.8151 1.83268 13.9453 1.5332C14.0755 1.23372 14.2546 0.966797 14.4824 0.732422C14.7103 0.498047 14.974 0.31901 15.2734 0.195312C15.5729 0.0716146 15.8984 0.00651042 16.25 0C16.5951 0 16.9173 0.0651042 17.2168 0.195312C17.5163 0.325521 17.7832 0.504557 18.0176 0.732422C18.252 0.960286 18.431 1.22396 18.5547 1.52344C18.6784 1.82292 18.7435 2.14844 18.75 2.5C18.75 2.81901 18.6914 3.12826 18.5742 3.42773C18.457 3.72721 18.2845 3.99089 18.0566 4.21875C18.3561 4.38151 18.6263 4.58008 18.8672 4.81445C19.1081 5.04883 19.3099 5.30599 19.4727 5.58594C19.6354 5.86589 19.7656 6.17188 19.8633 6.50391C19.9609 6.83594 20.0065 7.16797 20 7.5H18.75C18.75 7.15495 18.6849 6.83268 18.5547 6.5332C18.4245 6.23372 18.2454 5.9668 18.0176 5.73242C17.7897 5.49805 17.526 5.31901 17.2266 5.19531C16.9271 5.07161 16.6016 5.00651 16.25 5C15.9049 5 15.5827 5.0651 15.2832 5.19531C14.9837 5.32552 14.7168 5.50456 14.4824 5.73242C14.248 5.96029 14.069 6.22396 13.9453 6.52344C13.8216 6.82292 13.7565 7.14844 13.75 7.5C13.75 8.09896 13.6165 8.66211 13.3496 9.18945C13.0827 9.7168 12.7018 10.1595 12.207 10.5176ZM16.25 1.25C16.0742 1.25 15.9115 1.28255 15.7617 1.34766C15.612 1.41276 15.4818 1.50065 15.3711 1.61133C15.2604 1.72201 15.1693 1.85547 15.0977 2.01172C15.026 2.16797 14.9935 2.33073 15 2.5C15 2.67578 15.0326 2.83854 15.0977 2.98828C15.1628 3.13802 15.2507 3.26823 15.3613 3.37891C15.472 3.48958 15.6055 3.58073 15.7617 3.65234C15.918 3.72396 16.0807 3.75651 16.25 3.75C16.4258 3.75 16.5885 3.71745 16.7383 3.65234C16.888 3.58724 17.0182 3.49935 17.1289 3.38867C17.2396 3.27799 17.3307 3.14453 17.4023 2.98828C17.474 2.83203 17.5065 2.66927 17.5 2.5C17.5 2.32422 17.4674 2.16146 17.4023 2.01172C17.3372 1.86198 17.2493 1.73177 17.1387 1.62109C17.028 1.51042 16.8945 1.41927 16.7383 1.34766C16.582 1.27604 16.4193 1.24349 16.25 1.25ZM3.75 3.75C3.92578 3.75 4.08854 3.71745 4.23828 3.65234C4.38802 3.58724 4.51823 3.49935 4.62891 3.38867C4.73958 3.27799 4.83073 3.14453 4.90234 2.98828C4.97396 2.83203 5.00651 2.66927 5 2.5C5 2.32422 4.96745 2.16146 4.90234 2.01172C4.83724 1.86198 4.74935 1.73177 4.63867 1.62109C4.52799 1.51042 4.39453 1.41927 4.23828 1.34766C4.08203 1.27604 3.91927 1.24349 3.75 1.25C3.57422 1.25 3.41146 1.28255 3.26172 1.34766C3.11198 1.41276 2.98177 1.50065 2.87109 1.61133C2.76042 1.72201 2.66927 1.85547 2.59766 2.01172C2.52604 2.16797 2.49349 2.33073 2.5 2.5C2.5 2.67578 2.53255 2.83854 2.59766 2.98828C2.66276 3.13802 2.75065 3.26823 2.86133 3.37891C2.97201 3.48958 3.10547 3.58073 3.26172 3.65234C3.41797 3.72396 3.58073 3.75651 3.75 3.75ZM10 10C10.3451 10 10.6673 9.9349 10.9668 9.80469C11.2663 9.67448 11.5332 9.49544 11.7676 9.26758C12.002 9.03971 12.181 8.77604 12.3047 8.47656C12.4284 8.17708 12.4935 7.85156 12.5 7.5C12.5 7.15495 12.4349 6.83268 12.3047 6.5332C12.1745 6.23372 11.9954 5.9668 11.7676 5.73242C11.5397 5.49805 11.276 5.31901 10.9766 5.19531C10.6771 5.07161 10.3516 5.00651 10 5C9.65495 5 9.33268 5.0651 9.0332 5.19531C8.73372 5.32552 8.4668 5.50456 8.23242 5.73242C7.99805 5.96029 7.81901 6.22396 7.69531 6.52344C7.57161 6.82292 7.50651 7.14844 7.5 7.5C7.5 7.84505 7.5651 8.16732 7.69531 8.4668C7.82552 8.76628 8.00456 9.0332 8.23242 9.26758C8.46029 9.50195 8.72396 9.68099 9.02344 9.80469C9.32292 9.92839 9.64844 9.99349 10 10ZM17.5 13.75H20V15H17.5V17.5H16.25V15H13.75V13.75H16.25V11.25H17.5V13.75Z" fill="#2F80ED"/>
</svg>
