<svg width="20" height="20" viewBox="0 0 20 20" fill="none" xmlns="http://www.w3.org/2000/svg">
<path d="M10 0C10.918 0 11.8034 0.117188 12.6562 0.351562C13.5091 0.585938 14.3066 0.921224 15.0488 1.35742C15.791 1.79362 16.4648 2.31445 17.0703 2.91992C17.6758 3.52539 18.1966 4.20247 18.6328 4.95117C19.069 5.69987 19.4043 6.4974 19.6387 7.34375C19.873 8.1901 19.9935 9.07552 20 10C20 10.918 19.8828 11.8034 19.6484 12.6562C19.4141 13.5091 19.0788 14.3066 18.6426 15.0488C18.2064 15.791 17.6855 16.4648 17.0801 17.0703C16.4746 17.6758 15.7975 18.1966 15.0488 18.6328C14.3001 19.069 13.5026 19.4043 12.6562 19.6387C11.8099 19.873 10.9245 19.9935 10 20C9.08203 20 8.19661 19.8828 7.34375 19.6484C6.49089 19.4141 5.69336 19.0788 4.95117 18.6426C4.20898 18.2064 3.53516 17.6855 2.92969 17.0801C2.32422 16.4746 1.80339 15.7975 1.36719 15.0488C0.93099 14.3001 0.595703 13.5059 0.361328 12.666C0.126953 11.8262 0.00651042 10.9375 0 10C0 9.08203 0.117188 8.19661 0.351562 7.34375C0.585938 6.49089 0.921224 5.69336 1.35742 4.95117C1.79362 4.20898 2.31445 3.53516 2.91992 2.92969C3.52539 2.32422 4.20247 1.80339 4.95117 1.36719C5.69987 0.93099 6.49414 0.595703 7.33398 0.361328C8.17383 0.126953 9.0625 0.00651042 10 0ZM10 18.75C10.8008 18.75 11.5723 18.6458 12.3145 18.4375C13.0566 18.2292 13.7533 17.9362 14.4043 17.5586C15.0553 17.181 15.6478 16.722 16.1816 16.1816C16.7155 15.6413 17.1712 15.0521 17.5488 14.4141C17.9264 13.776 18.2227 13.0794 18.4375 12.3242C18.6523 11.569 18.7565 10.7943 18.75 10C18.75 9.19922 18.6458 8.42773 18.4375 7.68555C18.2292 6.94336 17.9362 6.24674 17.5586 5.5957C17.181 4.94466 16.722 4.35221 16.1816 3.81836C15.6413 3.28451 15.0521 2.82878 14.4141 2.45117C13.776 2.07357 13.0794 1.77734 12.3242 1.5625C11.569 1.34766 10.7943 1.24349 10 1.25C9.19922 1.25 8.42773 1.35417 7.68555 1.5625C6.94336 1.77083 6.24674 2.0638 5.5957 2.44141C4.94466 2.81901 4.35221 3.27799 3.81836 3.81836C3.28451 4.35872 2.82878 4.94792 2.45117 5.58594C2.07357 6.22396 1.77734 6.92057 1.5625 7.67578C1.34766 8.43099 1.24349 9.20573 1.25 10C1.25 10.8008 1.35417 11.5723 1.5625 12.3145C1.77083 13.0566 2.0638 13.7533 2.44141 14.4043C2.81901 15.0553 3.27799 15.6478 3.81836 16.1816C4.35872 16.7155 4.94792 17.1712 5.58594 17.5488C6.22396 17.9264 6.92057 18.2227 7.67578 18.4375C8.43099 18.6523 9.20573 18.7565 10 18.75ZM6.25 5C6.42578 5 6.58854 5.03255 6.73828 5.09766C6.88802 5.16276 7.01823 5.25065 7.12891 5.36133C7.23958 5.47201 7.33073 5.60547 7.40234 5.76172C7.47396 5.91797 7.50651 6.08073 7.5 6.25H5C5 6.07422 5.03255 5.91146 5.09766 5.76172C5.16276 5.61198 5.25065 5.48177 5.36133 5.37109C5.47201 5.26042 5.60547 5.16927 5.76172 5.09766C5.91797 5.02604 6.08073 4.99349 6.25 5ZM13.75 5C13.9258 5 14.0885 5.03255 14.2383 5.09766C14.388 5.16276 14.5182 5.25065 14.6289 5.36133C14.7396 5.47201 14.8307 5.60547 14.9023 5.76172C14.974 5.91797 15.0065 6.08073 15 6.25H12.5C12.5 6.07422 12.5326 5.91146 12.5977 5.76172C12.6628 5.61198 12.7507 5.48177 12.8613 5.37109C12.972 5.26042 13.1055 5.16927 13.2617 5.09766C13.418 5.02604 13.5807 4.99349 13.75 5ZM14.375 7.5C14.6354 7.5 14.8796 7.54883 15.1074 7.64648C15.3353 7.74414 15.5339 7.8776 15.7031 8.04688C15.8724 8.21615 16.0059 8.41471 16.1035 8.64258C16.2012 8.87044 16.25 9.11458 16.25 9.375V10C16.25 10.8659 16.0872 11.6764 15.7617 12.4316C15.4362 13.1868 14.9902 13.8509 14.4238 14.4238C13.8574 14.9967 13.1966 15.4427 12.4414 15.7617C11.6862 16.0807 10.8724 16.2435 10 16.25C9.13411 16.25 8.32357 16.0872 7.56836 15.7617C6.81315 15.4362 6.14909 14.9902 5.57617 14.4238C5.00326 13.8574 4.55729 13.1966 4.23828 12.4414C3.91927 11.6862 3.75651 10.8724 3.75 10C3.75 9.6875 3.77604 9.38151 3.82812 9.08203C3.88021 8.78255 3.97461 8.51562 4.11133 8.28125C4.24805 8.04688 4.43685 7.85807 4.67773 7.71484C4.91862 7.57161 5.23438 7.5 5.625 7.5C6.10677 7.5 6.52669 7.5651 6.88477 7.69531C7.24284 7.82552 7.58138 7.96875 7.90039 8.125C8.2194 8.28125 8.54492 8.42448 8.87695 8.55469C9.20898 8.6849 9.58333 8.75 10 8.75C10.4167 8.75 10.7878 8.6849 11.1133 8.55469C11.4388 8.42448 11.7643 8.28125 12.0898 8.125C12.4154 7.96875 12.7572 7.82552 13.1152 7.69531C13.4733 7.5651 13.8932 7.5 14.375 7.5ZM15 9.375C15 9.20573 14.9382 9.05924 14.8145 8.93555C14.6908 8.81185 14.5443 8.75 14.375 8.75C14.0951 8.75 13.8379 8.7793 13.6035 8.83789C13.3691 8.89648 13.1445 8.97461 12.9297 9.07227C12.7148 9.16992 12.5 9.27083 12.2852 9.375C12.0703 9.47917 11.849 9.58008 11.6211 9.67773C11.3932 9.77539 11.1458 9.85026 10.8789 9.90234C10.612 9.95443 10.319 9.98698 10 10C9.68099 10 9.39128 9.9707 9.13086 9.91211C8.87044 9.85352 8.62305 9.77539 8.38867 9.67773C8.1543 9.58008 7.93294 9.47917 7.72461 9.375C7.51628 9.27083 7.30143 9.16992 7.08008 9.07227C6.85872 8.97461 6.63086 8.89974 6.39648 8.84766C6.16211 8.79557 5.90495 8.76302 5.625 8.75C5.45573 8.75 5.30924 8.81185 5.18555 8.93555C5.06185 9.05924 5 9.20573 5 9.375V10C5 10.6901 5.13021 11.3379 5.39062 11.9434C5.65104 12.5488 6.00911 13.0762 6.46484 13.5254C6.92057 13.9746 7.45117 14.3327 8.05664 14.5996C8.66211 14.8665 9.3099 15 10 15C10.6901 15 11.3379 14.8698 11.9434 14.6094C12.5488 14.349 13.0762 13.9909 13.5254 13.5352C13.9746 13.0794 14.3327 12.5488 14.5996 11.9434C14.8665 11.3379 15 10.6901 15 10V9.375Z" fill="#2F80ED"/>
</svg>
