<svg width="24" height="24" viewBox="0 0 24 24" fill="none" xmlns="http://www.w3.org/2000/svg">
<path d="M8.67188 17.121C9.17969 17.3788 9.63672 17.6952 10.043 18.0702C10.4492 18.4452 10.8008 18.8671 11.0977 19.3358C11.3945 19.8046 11.6172 20.3046 11.7656 20.8358C11.9141 21.3671 11.9922 21.9218 12 22.4999H10.5C10.5 21.8827 10.3828 21.3007 10.1484 20.7538C9.91406 20.2069 9.59375 19.7303 9.1875 19.3241C8.78125 18.9178 8.30078 18.5936 7.74609 18.3514C7.19141 18.1093 6.60938 17.9921 6 17.9999C5.375 17.9999 4.79297 18.1171 4.25391 18.3514C3.71484 18.5858 3.23828 18.9061 2.82422 19.3124C2.41016 19.7186 2.08594 20.1991 1.85156 20.7538C1.61719 21.3085 1.5 21.8905 1.5 22.4999H0C0 21.9296 0.078125 21.3788 0.234375 20.8475C0.390625 20.3163 0.613281 19.8163 0.902344 19.3475C1.19141 18.8788 1.53906 18.4569 1.94531 18.0819C2.35156 17.7069 2.8125 17.3866 3.32812 17.121C2.75 16.6913 2.30078 16.16 1.98047 15.5272C1.66016 14.8944 1.5 14.2186 1.5 13.4999C1.5 12.8827 1.61719 12.3007 1.85156 11.7538C2.08594 11.2069 2.40625 10.7303 2.8125 10.3241C3.21875 9.91785 3.69531 9.59363 4.24219 9.35144C4.78906 9.10925 5.375 8.99207 6 8.99988C6.71875 8.99988 7.39453 9.16003 8.02734 9.48035C8.66016 9.80066 9.19141 10.2499 9.62109 10.828C9.91797 10.2421 10.2969 9.71863 10.7578 9.25769C11.2187 8.79675 11.7422 8.41785 12.3281 8.12097C11.75 7.69128 11.3008 7.16003 10.9805 6.52722C10.6602 5.89441 10.5 5.21863 10.5 4.49988C10.5 3.88269 10.6172 3.30066 10.8516 2.75378C11.0859 2.20691 11.4062 1.73035 11.8125 1.3241C12.2188 0.917847 12.6953 0.593628 13.2422 0.35144C13.7891 0.109253 14.375 -0.00793457 15 -0.00012207C15.6172 -0.00012207 16.1992 0.117065 16.7461 0.35144C17.293 0.585815 17.7695 0.906128 18.1758 1.31238C18.582 1.71863 18.9063 2.1991 19.1484 2.75378C19.3906 3.30847 19.5078 3.8905 19.5 4.49988C19.5 5.21863 19.3398 5.89441 19.0195 6.52722C18.6992 7.16003 18.25 7.69128 17.6719 8.12097C18.1797 8.37878 18.6367 8.69519 19.043 9.07019C19.4492 9.44519 19.8008 9.86707 20.0977 10.3358C20.3945 10.8046 20.6172 11.3046 20.7656 11.8358C20.9141 12.3671 20.9922 12.9218 21 13.4999H19.5C19.5 12.8827 19.3828 12.3007 19.1484 11.7538C18.9141 11.2069 18.5938 10.7303 18.1875 10.3241C17.7812 9.91785 17.3008 9.59363 16.7461 9.35144C16.1914 9.10925 15.6094 8.99207 15 8.99988C14.375 8.99988 13.793 9.11707 13.2539 9.35144C12.7148 9.58582 12.2383 9.90613 11.8242 10.3124C11.4102 10.7186 11.0859 11.1991 10.8516 11.7538C10.6172 12.3085 10.5 12.8905 10.5 13.4999C10.5 14.2186 10.3398 14.8944 10.0195 15.5272C9.69922 16.16 9.25 16.6913 8.67188 17.121ZM12 4.49988C12 4.91394 12.0781 5.30066 12.2344 5.66003C12.3906 6.01941 12.6055 6.33972 12.8789 6.62097C13.1523 6.90222 13.4688 7.11707 13.8281 7.2655C14.1875 7.41394 14.5781 7.49207 15 7.49988C15.4141 7.49988 15.8008 7.42175 16.1602 7.2655C16.5195 7.10925 16.8398 6.89441 17.1211 6.62097C17.4023 6.34753 17.6172 6.03113 17.7656 5.67175C17.9141 5.31238 17.9922 4.92175 18 4.49988C18 4.08582 17.9219 3.6991 17.7656 3.33972C17.6094 2.98035 17.3945 2.66003 17.1211 2.37878C16.8477 2.09753 16.5312 1.88269 16.1719 1.73425C15.8125 1.58582 15.4219 1.50769 15 1.49988C14.5859 1.49988 14.1992 1.578 13.8398 1.73425C13.4805 1.8905 13.1602 2.10535 12.8789 2.37878C12.5977 2.65222 12.3828 2.96863 12.2344 3.328C12.0859 3.68738 12.0078 4.078 12 4.49988ZM3 13.4999C3 13.9139 3.07813 14.3007 3.23438 14.66C3.39062 15.0194 3.60547 15.3397 3.87891 15.621C4.15234 15.9022 4.46875 16.1171 4.82812 16.2655C5.1875 16.4139 5.57812 16.4921 6 16.4999C6.41406 16.4999 6.80078 16.4218 7.16016 16.2655C7.51953 16.1093 7.83984 15.8944 8.12109 15.621C8.40234 15.3475 8.61719 15.0311 8.76562 14.6718C8.91406 14.3124 8.99219 13.9218 9 13.4999C9 13.0858 8.92187 12.6991 8.76562 12.3397C8.60938 11.9803 8.39453 11.66 8.12109 11.3788C7.84766 11.0975 7.53125 10.8827 7.17188 10.7343C6.8125 10.5858 6.42188 10.5077 6 10.4999C5.58594 10.4999 5.19922 10.578 4.83984 10.7343C4.48047 10.8905 4.16016 11.1053 3.87891 11.3788C3.59766 11.6522 3.38281 11.9686 3.23438 12.328C3.08594 12.6874 3.00781 13.078 3 13.4999ZM15 16.4999H24V17.9999H15V16.4999ZM15 20.9999V19.4999H24V20.9999H15ZM15 23.9999V22.4999H24V23.9999H15Z" fill="#2F80ED"/>
</svg>
