<svg width="100" height="100" viewBox="0 0 100 100" fill="none" xmlns="http://www.w3.org/2000/svg">
<path d="M81.25 34.375C81.25 35.2214 80.9408 35.9538 80.3223 36.5723C79.7038 37.1908 78.9714 37.5 78.125 37.5C77.2786 37.5 76.5462 37.1908 75.9277 36.5723C75.3092 35.9538 75 35.2214 75 34.375C75 33.5286 75.3092 32.7962 75.9277 32.1777C76.5462 31.5592 77.2786 31.25 78.125 31.25C78.9714 31.25 79.7038 31.5592 80.3223 32.1777C80.9408 32.7962 81.25 33.5286 81.25 34.375ZM0 12.5H100V58.2031C98.1445 56.1849 96.0612 54.4434 93.75 52.9785V18.75H6.25V51.8066L28.125 29.9805L56.2988 58.1543C55.5827 58.9355 54.9316 59.7493 54.3457 60.5957C53.7598 61.4421 53.1738 62.321 52.5879 63.2324L28.125 38.7695L6.25 60.6934V81.25H48.7305C48.8607 82.2917 49.0234 83.3333 49.2188 84.375C49.4141 85.4167 49.707 86.4583 50.0977 87.5H0V12.5ZM78.125 56.25C81.1523 56.25 83.9844 56.8197 86.6211 57.959C89.2578 59.0983 91.5853 60.6608 93.6035 62.6465C95.6217 64.6322 97.1842 66.9434 98.291 69.5801C99.3978 72.2168 99.9674 75.0651 100 78.125C100 81.1523 99.4303 83.9844 98.291 86.6211C97.1517 89.2578 95.5892 91.5853 93.6035 93.6035C91.6178 95.6217 89.3066 97.1842 86.6699 98.291C84.0332 99.3978 81.1849 99.9674 78.125 100C75.0977 100 72.2656 99.4303 69.6289 98.291C66.9922 97.1517 64.6647 95.5892 62.6465 93.6035C60.6283 91.6178 59.0658 89.3066 57.959 86.6699C56.8522 84.0332 56.2826 81.1849 56.25 78.125C56.25 75.0977 56.8197 72.2656 57.959 69.6289C59.0983 66.9922 60.6608 64.6647 62.6465 62.6465C64.6322 60.6283 66.9434 59.0658 69.5801 57.959C72.2168 56.8522 75.0651 56.2826 78.125 56.25ZM62.5 78.125C62.5 80.2734 62.9069 82.2917 63.7207 84.1797C64.5345 86.0677 65.6413 87.7279 67.041 89.1602C68.4408 90.5924 70.1009 91.7155 72.0215 92.5293C73.9421 93.3431 75.9766 93.75 78.125 93.75C79.6549 93.75 81.1523 93.5384 82.6172 93.1152C84.082 92.6921 85.4492 92.041 86.7188 91.1621L65.0879 69.5312C64.2415 70.8008 63.6068 72.168 63.1836 73.6328C62.7604 75.0977 62.5326 76.5951 62.5 78.125ZM91.1621 86.7188C92.0085 85.4492 92.6432 84.082 93.0664 82.6172C93.4896 81.1523 93.7174 79.6549 93.75 78.125C93.75 75.9766 93.3431 73.9583 92.5293 72.0703C91.7155 70.1823 90.5924 68.5384 89.1602 67.1387C87.7279 65.7389 86.0677 64.6159 84.1797 63.7695C82.2917 62.9232 80.2734 62.5 78.125 62.5C76.5951 62.5 75.0977 62.7116 73.6328 63.1348C72.168 63.5579 70.8008 64.209 69.5312 65.0879L91.1621 86.7188Z" fill="#EB5757"/>
</svg>
