<svg width="88" height="100" viewBox="0 0 88 100" fill="none" xmlns="http://www.w3.org/2000/svg">
<path d="M58.6914 58.7402C63.1185 60.2702 67.1061 62.4023 70.6543 65.1367C74.2025 67.8711 77.2298 71.0612 79.7363 74.707C82.2428 78.3529 84.1634 82.3079 85.498 86.5723C86.8327 90.8366 87.5 95.3125 87.5 100H81.25C81.25 94.6615 80.306 89.7135 78.418 85.1562C76.5299 80.599 73.8932 76.6276 70.5078 73.2422C67.1224 69.8568 63.1673 67.2363 58.6426 65.3809C54.1178 63.5254 49.1536 62.5651 43.75 62.5C40.2669 62.5 36.9141 62.9395 33.6914 63.8184C30.4688 64.6973 27.474 65.9342 24.707 67.5293C21.9401 69.1244 19.4173 71.0612 17.1387 73.3398C14.86 75.6185 12.9232 78.1413 11.3281 80.9082C9.73307 83.6751 8.47982 86.6862 7.56836 89.9414C6.6569 93.1966 6.21745 96.5495 6.25 100H0C0 95.3125 0.683594 90.8366 2.05078 86.5723C3.41797 82.3079 5.35482 78.3691 7.86133 74.7559C10.3678 71.1426 13.3952 67.985 16.9434 65.2832C20.4915 62.5814 24.4792 60.4167 28.9062 58.7891C26.3672 57.4219 24.0885 55.7617 22.0703 53.8086C20.0521 51.8555 18.3431 49.6908 16.9434 47.3145C15.5436 44.9382 14.4531 42.3828 13.6719 39.6484C12.8906 36.9141 12.5 34.1146 12.5 31.25C12.5 26.9206 13.3138 22.8678 14.9414 19.0918C16.569 15.3158 18.7988 11.9954 21.6309 9.13086C24.4629 6.26628 27.7669 4.03646 31.543 2.44141C35.319 0.846354 39.388 0.0325521 43.75 0C48.0794 0 52.1322 0.813802 55.9082 2.44141C59.6842 4.06901 63.0046 6.29883 65.8691 9.13086C68.7337 11.9629 70.9635 15.2669 72.5586 19.043C74.1536 22.819 74.9674 26.888 75 31.25C75 34.1146 74.6256 36.8978 73.877 39.5996C73.1283 42.3014 72.0378 44.8405 70.6055 47.2168C69.1732 49.5931 67.4642 51.7578 65.4785 53.7109C63.4928 55.6641 61.2305 57.3405 58.6914 58.7402ZM18.75 31.25C18.75 34.7005 19.401 37.9395 20.7031 40.9668C22.0052 43.9941 23.7956 46.6309 26.0742 48.877C28.3529 51.123 31.0059 52.9134 34.0332 54.248C37.0605 55.5827 40.2995 56.25 43.75 56.25C47.2005 56.25 50.4395 55.599 53.4668 54.2969C56.4941 52.9948 59.1309 51.2044 61.377 48.9258C63.623 46.6471 65.4134 43.9941 66.748 40.9668C68.0827 37.9395 68.75 34.7005 68.75 31.25C68.75 27.7995 68.099 24.5605 66.7969 21.5332C65.4948 18.5059 63.7044 15.8691 61.4258 13.623C59.1471 11.377 56.4941 9.58659 53.4668 8.25195C50.4395 6.91732 47.2005 6.25 43.75 6.25C40.2995 6.25 37.0605 6.90104 34.0332 8.20312C31.0059 9.50521 28.3691 11.2956 26.123 13.5742C23.877 15.8529 22.0866 18.5059 20.752 21.5332C19.4173 24.5605 18.75 27.7995 18.75 31.25Z" fill="#E0E0E0"/>
</svg>
