<svg width="24" height="23" viewBox="0 0 24 23" fill="none" xmlns="http://www.w3.org/2000/svg">
<path d="M0 0.5H24V12.9688C23.5547 12.4844 23.0547 12.0664 22.5 11.7148V2H1.5V15.5H4.5V18.9336L7.93359 15.5H12.0234C11.9375 15.7422 11.8711 15.9883 11.8242 16.2383C11.7773 16.4883 11.7344 16.7422 11.6953 17H8.56641L3 22.5664V17H0V0.5ZM23.3086 15.043L23.8828 16.4375L22.4297 17.0352C22.4766 17.2695 22.5 17.5078 22.5 17.75C22.5 17.9922 22.4766 18.2305 22.4297 18.4648L23.8828 19.0625L23.3086 20.457L21.8555 19.8477C21.582 20.2461 21.2461 20.582 20.8477 20.8555L21.457 22.3086L20.0625 22.8828L19.4648 21.4297C19.2305 21.4766 18.9922 21.5 18.75 21.5C18.5078 21.5 18.2695 21.4766 18.0352 21.4297L17.4375 22.8828L16.043 22.3086L16.6523 20.8555C16.2539 20.582 15.918 20.2461 15.6445 19.8477L14.1914 20.457L13.6172 19.0625L15.0703 18.4648C15.0234 18.2305 15 17.9922 15 17.75C15 17.5078 15.0234 17.2695 15.0703 17.0352L13.6172 16.4375L14.1914 15.043L15.6445 15.6523C15.918 15.2539 16.2539 14.918 16.6523 14.6445L16.043 13.1914L17.4375 12.6172L18.0352 14.0703C18.2695 14.0234 18.5078 14 18.75 14C18.9922 14 19.2305 14.0234 19.4648 14.0703L20.0625 12.6172L21.457 13.1914L20.8477 14.6445C21.2461 14.918 21.582 15.2539 21.8555 15.6523L23.3086 15.043ZM21 17.75C21 17.4375 20.9414 17.1445 20.8242 16.8711C20.707 16.5977 20.5469 16.3594 20.3438 16.1562C20.1406 15.9531 19.9023 15.793 19.6289 15.6758C19.3555 15.5586 19.0625 15.5 18.75 15.5C18.4375 15.5 18.1445 15.5586 17.8711 15.6758C17.5977 15.793 17.3594 15.9531 17.1562 16.1562C16.9531 16.3594 16.793 16.5977 16.6758 16.8711C16.5586 17.1445 16.5 17.4375 16.5 17.75C16.5 18.0625 16.5586 18.3555 16.6758 18.6289C16.793 18.9023 16.9531 19.1406 17.1562 19.3438C17.3594 19.5469 17.5977 19.707 17.8711 19.8242C18.1445 19.9414 18.4375 20 18.75 20C19.0625 20 19.3555 19.9414 19.6289 19.8242C19.9023 19.707 20.1406 19.5469 20.3438 19.3438C20.5469 19.1406 20.707 18.9023 20.8242 18.6289C20.9414 18.3555 21 18.0625 21 17.75Z" fill="#2F80ED"/>
</svg>
