<svg width="100" height="100" viewBox="0 0 100 100" fill="none" xmlns="http://www.w3.org/2000/svg">
<path fill-rule="evenodd" clip-rule="evenodd" d="M34.9637 83.1167C43.0396 80.3489 50.9329 88.0867 64.8118 90.3331C78.6906 92.5796 88.6653 74.5846 83.146 65.2802C77.6268 55.9758 78.6906 43.8374 82.3328 32.3C85.975 20.7626 81.318 13.8949 76.369 11.0833C71.4199 8.27172 66.5633 7.39055 58.8171 7.91944C51.071 8.44833 42.9997 10.7487 35.449 14.5599C27.8982 18.371 19.4095 26.8166 18.5349 32.2322C17.6603 37.6478 21.1548 38.1773 21.78 46.7432C22.4051 55.3091 13.7951 66.7624 17.2962 74.5312C20.7972 82.3 26.8879 85.8846 34.9637 83.1167Z" fill="#C0F0FF"/>
<path fill-rule="evenodd" clip-rule="evenodd" d="M32.3013 82.8988L32.2573 83.2505C32.2573 83.2505 32.8913 83.322 33.1627 83.2822C33.4341 83.2424 33.931 82.6941 33.931 82.6941C33.931 82.6941 33.4125 82.7549 33.1627 82.786" fill="#E0E0E0"/>
<path fill-rule="evenodd" clip-rule="evenodd" d="M34.3191 94.3971L35.3173 95.3493L51.4921 36.2203L50.5043 34.9375L34.3191 94.3971Z" fill="white"/>
<path fill-rule="evenodd" clip-rule="evenodd" d="M26.5334 95.0384C26.5334 95.0384 27.7156 95.3493 28.7582 91.7702C29.8008 88.1911 43.628 37.255 43.628 37.255L43.1711 36.1375L26.5334 95.0384Z" fill="white"/>
<path fill-rule="evenodd" clip-rule="evenodd" d="M53.9678 6.09688C54.0661 5.84226 54.5929 6.15127 54.8604 6.09688C54.8503 6.49949 46.336 28.5631 45.5487 30.1535C45.4084 30.048 44.7731 29.7396 44.6328 29.634C44.933 29.5515 51.0793 13.5772 53.9678 6.09688Z" fill="white"/>
<path fill-rule="evenodd" clip-rule="evenodd" d="M62.3177 5.60198C60.8848 9.64377 54.334 26.8845 53.6329 28.3008C53.5575 28.2441 53.1377 28.6492 52.8363 28.6771C52.5769 28.7011 52.4311 28.3497 52.3662 28.3008C52.6615 28.2197 58.6152 12.7572 61.5583 5.13362C61.6067 5.00816 62.4938 5.10517 62.3177 5.60198Z" fill="white"/>
<path fill-rule="evenodd" clip-rule="evenodd" d="M36.003 73.0822L37.499 73.8173C37.499 73.8173 41.4384 68.1842 41.4384 65.3683C41.4384 64.2459 38.1946 63.4937 36.3419 62.2171C35.2866 61.49 34.8488 60.1803 34.2604 59.6762C33.7999 59.2817 32.7682 59.0755 31.3245 59.172C30.9785 59.1951 30.2199 59.6762 30.2199 59.6762C30.2199 59.6762 27.0662 62.4577 28.7734 64.7279C29.2847 65.4079 31.4183 68.8966 31.8878 71.2045C32.5075 74.2505 32.1427 82.7329 32.1427 82.7329C32.1427 82.7329 32.8012 82.7264 33.2076 82.6347C33.6141 82.5431 34.4593 82.2105 34.4593 82.2105C34.4593 82.2105 34.364 79.3278 34.4593 78.0451C34.7066 74.7155 35.083 72.0539 34.7653 69.9892C34.1054 65.699 31.6224 63.7689 31.6224 63.7689L38.8665 67.2263L36.003 73.0822Z" fill="white"/>
<path fill-rule="evenodd" clip-rule="evenodd" d="M37.3662 74.5644C37.3776 74.7962 37.3013 75.0311 37.156 75.212C37.0985 75.0111 37.0828 74.7982 37.1102 74.591C36.5822 74.5222 36.067 74.3566 35.5978 74.105C35.4213 74.5461 35.281 75.0016 35.1786 75.4656C35.1326 75.6745 35.1041 75.9218 35.2523 76.076C35.3812 76.2103 35.5904 76.2161 35.7765 76.2129C36.3588 76.2028 36.9495 76.1915 37.5082 76.027C38.0668 75.8624 38.5993 75.5227 38.8667 75.0053C38.6002 74.7381 38.2064 74.6037 37.8322 74.6525C37.9296 74.8291 37.9051 75.0651 37.7736 75.2181C37.6519 75.041 37.6117 74.8101 37.6664 74.6023C37.574 74.5576 37.4668 74.5441 37.3662 74.5644Z" fill="white"/>
<path fill-rule="evenodd" clip-rule="evenodd" d="M33.0473 83.4119C32.7546 83.4768 32.4056 83.5484 32.1898 83.3403C32.1423 83.7295 32.1308 84.1231 32.1554 84.5144C32.2119 84.5543 32.2864 84.5675 32.3533 84.5496C32.39 84.6347 32.403 84.7298 32.3905 84.8216C32.6096 85.0846 33.0271 85.0005 33.349 84.8839C33.8603 84.6988 34.3719 84.485 34.7905 84.1377C34.9883 83.9736 35.1756 83.7446 35.1435 83.4896C35.1115 83.2346 34.7279 83.0661 34.5887 83.2822C34.7114 83.4038 34.7686 83.5879 34.7364 83.7577C34.4854 83.5768 34.2344 83.396 33.9835 83.2151C34.0793 83.4619 34.1752 83.7088 34.271 83.9556C34.2112 84.0509 34.0531 84.0038 33.9911 83.9097C33.9292 83.8157 33.9192 83.6959 33.8636 83.598C33.7153 83.3374 33.34 83.347 33.0473 83.4119Z" fill="white"/>
<path fill-rule="evenodd" clip-rule="evenodd" d="M35.6982 49.7756C36.3026 49.3982 37.0376 49.9798 37.5093 50.5139C38.0883 51.1696 38.6673 51.8252 39.2463 52.4809C39.5259 50.7138 40.6088 49.1938 41.6607 47.7465C41.9628 47.3309 42.2738 46.9065 42.7002 46.6198C43.1265 46.3331 43.9473 46.5399 44.1594 46.4349C44.1303 46.1248 43.8635 45.8537 43.5539 45.8197C43.5948 45.4593 43.7655 45.1151 44.0277 44.8646C44.0296 44.6491 43.6902 44.683 43.5076 44.7974C41.6526 45.9588 39.9925 47.4308 38.6173 49.1335C38.2822 49.5484 37.7678 50.0264 37.2976 49.7748C36.8113 49.5146 36.9523 48.7986 37.0903 48.2646C37.2795 47.5328 37.3274 46.7647 37.2307 46.0151C37.1276 45.2166 36.8629 44.4085 37.042 43.6236C37.2211 42.8387 38.1186 42.1435 38.8158 42.5462C39.3521 42.856 40.0968 42.567 40.4072 42.031C40.7177 41.4951 40.6545 40.8045 40.3875 40.2456C40.1205 39.6868 39.6755 39.2351 39.2236 38.8116C38.9148 38.5221 38.5798 38.2302 38.1675 38.135C37.5618 37.9951 36.8811 38.3752 36.6825 38.9642C36.4838 39.5532 36.7952 40.268 37.3619 40.5235C37.0065 40.6305 36.6067 40.5799 36.2892 40.3876C36.7686 40.6064 36.9743 41.216 36.8675 41.732C36.7606 42.248 36.4092 42.6791 36.0246 43.0393C35.6151 43.4227 35.1548 43.7519 34.6596 44.0154C32.1094 45.3724 30.8761 48.3405 30.2833 51.1678C29.6905 53.995 29.5212 56.9685 28.2427 59.5589C28.4922 59.8104 28.9068 59.6034 29.2243 59.4463C30.7228 58.7044 32.5107 59.4131 34.1791 59.3025C34.6006 59.2746 35.0582 59.1695 35.3136 58.8329C35.4643 58.6342 35.5223 58.3823 35.5764 58.1388C35.7061 57.5558 35.8358 56.9727 35.9655 56.3897C35.9968 56.249 36.0282 56.1037 36.0014 55.9621C35.968 55.7864 35.8499 55.6406 35.736 55.5027C35.0984 54.7316 34.4608 53.9457 34.0302 53.0426C33.5996 52.1394 33.3894 51.0949 33.6479 50.1283C33.9236 51.6091 34.5302 53.0273 35.4106 54.2495C35.9258 54.9647 36.583 55.6437 37.4367 55.8633C38.4086 56.1132 39.4226 55.7206 40.3237 55.2788C42.4887 54.2174 44.491 52.8248 46.2394 51.1645C46.0776 51.2158 45.9158 51.2671 45.754 51.3185C45.8839 51.0649 46.0609 50.8355 46.2732 50.6455C46.0461 50.7603 45.819 50.875 45.5919 50.9898C45.7757 50.7247 45.9596 50.4595 46.1434 50.1944C45.7634 50.3368 45.4195 50.5745 45.1518 50.8796C45.2269 50.5888 45.2103 50.275 45.105 49.9937C44.94 50.8335 44.0702 51.3094 43.2944 51.6709C42.4994 52.0412 41.7045 52.4116 40.9095 52.782C40.3034 53.0644 39.4681 53.2982 39.0625 52.7666C38.1465 51.5664 36.9974 50.5447 35.6982 49.7756Z" fill="white"/>
<path fill-rule="evenodd" clip-rule="evenodd" d="M38.7407 41.4667C38.9242 41.4667 38.9925 41.3175 38.8953 41.1334C38.8 40.9493 38.6137 40.8 38.4771 40.8C38.3405 40.8 38.2674 40.9493 38.3157 41.1334C38.3661 41.3175 38.5572 41.4667 38.7407 41.4667Z" fill="#F2994A"/>
<path fill-rule="evenodd" clip-rule="evenodd" d="M40.1574 40.4001C40.2984 40.4001 40.3518 40.2508 40.2766 40.0667C40.2014 39.8826 40.0261 39.7334 39.8852 39.7334C39.7442 39.7334 39.6908 39.8826 39.766 40.0667C39.8412 40.2508 40.0165 40.4001 40.1574 40.4001Z" fill="#F2994A"/>
<path fill-rule="evenodd" clip-rule="evenodd" d="M54.5088 40.1935L54.2993 55.9433L72.3201 57.1018L73.5511 56.4846L73.7599 24.1599C73.7662 23.186 73.2035 22.298 72.3201 21.8879V21.8879L59.0954 23.027L54.5088 40.1935Z" fill="white"/>
<path fill-rule="evenodd" clip-rule="evenodd" d="M35.6914 75.701C35.6066 75.6658 35.5146 75.6479 35.4228 75.6489C35.3142 75.6118 35.378 75.4349 35.4841 75.3909C35.5901 75.3469 35.723 75.352 35.8006 75.2674C35.8657 75.1964 35.8658 75.0893 35.8982 74.9986C35.9307 74.9079 36.0356 74.8837 36.1091 74.946C36.1239 75.1982 36.4383 75.021 36.6668 75.1591C36.7943 75.2362 36.5819 75.3392 36.5969 75.4636C36.6161 75.6213 36.9765 75.9768 36.806 75.9146C36.6199 75.8467 36.3592 75.7419 36.1638 75.7738C35.9887 75.8023 35.8773 75.9579 35.733 76.0612C35.6867 75.9479 35.6721 75.8219 35.6914 75.701Z" fill="#F2994A"/>
<path fill-rule="evenodd" clip-rule="evenodd" d="M33.1699 84.514C33.2508 84.5629 33.311 84.6448 33.3336 84.7366C33.2425 84.7605 33.0782 84.5685 32.9523 84.6047C32.8247 84.6414 32.7355 84.9061 32.6401 84.9021C32.5404 84.8979 32.7306 84.6831 32.6827 84.5549C32.6396 84.4398 32.3533 84.4136 32.3538 84.3522C32.3541 84.3055 32.5591 84.3107 32.6401 84.2365C32.6918 84.1891 32.629 84.0553 32.6401 84.0318C32.6827 83.9418 32.8437 84.0318 32.9523 84.1571C33.0692 84.1263 33.186 84.0955 33.3028 84.0647C33.3533 84.2227 33.0655 84.3 33.1187 84.4488L33.1699 84.514Z" fill="#F2994A"/>
<path fill-rule="evenodd" clip-rule="evenodd" d="M45.6909 29.1369C45.5788 29.4274 45.4281 29.7543 45.1279 29.8368L45.5487 30.1535C46.336 28.5631 47.0188 26.921 47.5914 25.2413C49.5151 25.3096 51.4419 25.2889 53.3636 25.1793L52.3599 28.1001C52.2921 28.2972 52.3515 28.6318 52.5462 28.5576C55.6054 20.7419 58.6269 12.9115 61.6107 5.06665C61.1016 5.09008 60.9063 5.63784 60.7124 6.18199C60.5166 6.73109 60.3222 7.27651 59.808 7.27574L54.5965 7.26797C54.7601 6.89994 54.8503 6.49949 54.8604 6.09688C54.5929 6.15128 54.4547 6.44131 54.3563 6.69592L45.6909 29.1369ZM57.4059 14.6822C56.9505 15.9648 56.4826 17.243 56.0021 18.5165C55.9256 18.7194 55.8426 18.931 55.6779 19.0721C55.4308 19.2837 55.0717 19.2811 54.7465 19.272C53.1408 19.2268 51.532 19.2952 49.936 19.4765C49.9902 19.8026 50.4239 19.8703 50.7544 19.8593L54.9578 19.719C55.0766 19.715 55.2074 19.7151 55.2979 19.7921C55.4505 19.9221 55.3884 20.1666 55.3138 20.3527L53.7792 24.1791C53.7263 24.3111 53.6687 24.4494 53.5564 24.5365C53.4219 24.6409 53.2388 24.6496 53.0686 24.654L47.8124 24.7893C47.8409 24.5966 47.9387 24.4149 48.0837 24.2848C49.9639 24.4129 51.8592 24.3173 53.7169 24.0006C51.8741 23.5716 49.9332 23.57 48.0897 23.9961L54.2011 8.24679C54.2521 8.11536 54.3294 7.96301 54.4697 7.94998C56.3485 7.77554 58.2366 7.70245 60.1232 7.73113C60.027 8.3645 59.1936 8.51577 58.553 8.51314L54.9114 8.4982C54.6516 8.49714 54.291 8.60906 54.3436 8.86341C54.3848 9.06255 54.6484 9.10199 54.8516 9.09679L59.5573 8.97642C59.2522 10.0329 58.8647 11.0655 58.3994 12.0619C58.336 12.1978 58.2681 12.337 58.1552 12.4357C57.9595 12.6069 57.6757 12.6199 57.4156 12.6242L53.3648 12.6913C53.1865 12.6943 52.9952 12.7014 52.852 12.8076C52.7088 12.9138 52.6581 13.1588 52.8012 13.2651C52.8805 13.3241 52.9881 13.3217 53.0868 13.3168L57.9941 13.0722C58.0586 13.5126 57.7194 13.9319 57.3113 14.1094C56.9032 14.287 56.4417 14.2789 55.9968 14.2678L52.9824 14.1926C52.5678 14.1823 51.9828 14.3676 52.0866 14.7691C53.86 14.7958 55.6343 14.7668 57.4059 14.6822ZM54.4467 5.54998C51.3492 13.4687 48.2473 21.3856 45.1409 29.3008C45.0604 29.5058 44.8139 29.7462 44.6734 29.5766C44.6012 29.4895 44.6393 29.3594 44.6806 29.2541L53.8375 5.94928C53.9424 5.68235 54.2306 5.36146 54.4467 5.54998ZM62.466 6.29232L54.284 27.5161C54.1406 27.888 53.9312 28.3155 53.5369 28.3741L62.3376 5.56531C62.6068 5.63928 62.5664 6.03181 62.466 6.29232ZM50.521 18.7748C50.4715 18.6678 50.5401 18.5359 50.6411 18.475C50.742 18.4141 50.8651 18.406 50.9829 18.3999C52.4956 18.3214 54.0112 18.3015 55.5254 18.3404C55.6619 18.3439 55.6995 18.556 55.6048 18.6543C55.5101 18.7526 55.359 18.7634 55.2225 18.7679L50.8966 18.9127C50.7548 18.9175 50.5806 18.9035 50.521 18.7748ZM40.0622 46.5174C40.4209 46.5029 40.6016 46.0876 40.6991 45.7422L43.1077 37.2126C43.1991 36.8889 43.2913 36.5514 43.2317 36.2203C42.876 36.5379 42.7298 37.0224 42.5995 37.4811C41.7447 40.4907 40.8989 43.5028 40.0622 46.5174ZM43.6763 50.0833C43.7145 50.1969 43.7827 50.3003 43.8723 50.38C43.3453 50.3792 42.8328 50.511 42.3196 50.643L42.3196 50.643C41.8581 50.7617 41.3961 50.8805 40.9227 50.903C40.7063 50.9133 40.4013 50.7743 40.4963 50.5796C40.538 50.4941 40.6415 50.462 40.734 50.4397C41.6965 50.2074 42.6861 50.0875 43.6763 50.0833ZM35.564 44.3212C35.7846 45.0027 36.2508 45.6018 36.8572 45.983C36.9162 45.6797 36.6592 45.4408 36.422 45.2203L36.4218 45.2201L36.4217 45.22L36.4215 45.2198L36.4211 45.2194L36.4208 45.2192L36.4205 45.2189C36.3811 45.1823 36.3424 45.1463 36.3057 45.1105C35.9561 44.7696 35.7402 44.295 35.7128 43.8075C35.5673 43.9285 35.5057 44.1412 35.564 44.3212ZM37.5261 39.8352C37.8027 39.8352 38.2661 40.2028 38.0405 40.3786C37.8148 40.5544 37.2948 39.8352 37.5261 39.8352ZM40.694 51.8608L42.2274 51.3613C42.3398 51.3247 42.4747 51.2579 42.4706 51.1398C41.7116 51.1926 40.9578 51.3198 40.2235 51.5189C40.0723 51.5599 40.0988 51.811 40.2376 51.8838C40.3764 51.9565 40.545 51.9093 40.694 51.8608ZM38.5115 39.0865C38.6308 38.9702 39.3003 39.4006 39.067 39.6494C38.9474 39.7769 38.3798 39.2151 38.5115 39.0865ZM37.2543 39.642C37.2762 39.5972 37.2983 39.5517 37.3338 39.5112C37.3783 39.4604 37.4483 39.3998 37.5187 39.3389C37.657 39.2193 37.7968 39.0984 37.7471 39.0478C37.4506 39.125 37.1899 39.3306 37.0458 39.601C36.9246 39.8352 37.1131 39.8523 37.1518 39.7938C37.2015 39.7507 37.2277 39.6968 37.2543 39.642ZM39.3948 39.8924L39.3949 39.8925C39.6113 39.9981 39.8536 40.1163 39.8335 40.3382C39.8098 40.6009 39.4978 40.79 39.3944 40.5474C39.4144 40.5044 39.4568 40.4892 39.5008 40.4735C39.5675 40.4496 39.6377 40.4245 39.6377 40.2989C39.6377 40.2125 39.5561 40.1499 39.4708 40.0845C39.3803 40.0152 39.2858 39.9426 39.2804 39.8352C39.3162 39.8541 39.3547 39.8729 39.394 39.892L39.3942 39.8921L39.3943 39.8922L39.3944 39.8922L39.3945 39.8923L39.3947 39.8924L39.3948 39.8924ZM38.5251 38.6504C38.2423 38.6795 38.0035 38.9616 38.0308 39.2446C38.0715 39.2769 38.1321 39.187 38.1996 39.0867C38.2478 39.0152 38.2996 38.9383 38.3503 38.8968C38.4043 38.8525 38.5008 38.808 38.5901 38.7668C38.7164 38.7085 38.8281 38.657 38.7836 38.6226C38.7393 38.6271 38.6969 38.6318 38.6545 38.6365C38.612 38.6412 38.5695 38.6459 38.5251 38.6504ZM44.3261 55.7762C44.4154 55.9296 44.1824 56.0641 44.0069 56.0909C42.3953 56.3371 40.7783 56.5483 39.1576 56.7244C39.1127 56.5285 39.2425 56.3263 39.4146 56.2227C39.5867 56.119 39.7927 56.092 39.9921 56.0672L41.0031 55.9414C42.0225 55.8145 43.0448 55.6875 44.072 55.6845C44.1666 55.6842 44.2785 55.6945 44.3261 55.7762ZM37.5093 50.5138C37.0377 49.9797 36.3027 49.3981 35.6983 49.7754C36.9975 50.5446 38.1466 51.5663 39.0625 52.7665C39.4682 53.2981 40.3034 53.0643 40.9096 52.7819L43.2945 51.6708C44.0703 51.3093 44.94 50.8334 45.105 49.9936C45.2104 50.2749 45.227 50.5887 45.1519 50.8795C45.4195 50.5744 45.7634 50.3367 46.1435 50.1943L45.592 50.9897L46.2732 50.6454C46.061 50.8354 45.884 51.0648 45.754 51.3184L46.2395 51.1644C44.491 52.8247 42.4888 54.2172 40.3238 55.2787C39.4227 55.7205 38.4087 56.1131 37.4368 55.8631C36.5831 55.6436 35.9259 54.9646 35.4107 54.2494C34.5303 53.0272 33.9237 51.609 33.648 50.1282C33.3894 51.0948 33.5997 52.1393 34.0303 53.0425C34.4609 53.9456 35.0985 54.7315 35.736 55.5026C35.85 55.6405 35.9681 55.7863 36.0014 55.962C36.0283 56.1036 35.9969 56.2489 35.9656 56.3896L35.5765 58.1387C35.5224 58.3822 35.4644 58.6341 35.3136 58.8328C35.0583 59.1694 34.6007 59.2745 34.1792 59.3024C33.5747 59.3425 32.9545 59.275 32.3381 59.2079C31.2532 59.0899 30.18 58.9731 29.2244 59.4461L29.2203 59.4482C28.9033 59.6051 28.4912 59.8092 28.2428 59.5588C29.168 57.6841 29.5124 55.6087 29.8567 53.5334C29.9882 52.7411 30.1196 51.9488 30.2834 51.1677C30.8762 48.3404 32.1095 45.3723 34.6597 44.0153C35.1549 43.7518 35.6152 43.4226 36.0246 43.0392C36.4093 42.679 36.7607 42.2479 36.8675 41.7319C36.9661 41.2561 36.7988 40.7007 36.3964 40.4455C36.6938 40.589 37.0455 40.6187 37.362 40.5234C36.7953 40.2679 36.4839 39.5531 36.6825 38.9641C36.8812 38.3751 37.5619 37.995 38.1675 38.1349C38.5799 38.2301 38.9149 38.522 39.2237 38.8115C39.6756 39.235 40.1206 39.6867 40.3876 40.2455C40.6546 40.8043 40.7178 41.495 40.4073 42.0309C40.0969 42.5669 39.3522 42.8559 38.8159 42.5461C38.1187 42.1434 37.2212 42.8386 37.0421 43.6235C36.9108 44.199 37.0181 44.787 37.1253 45.3745C37.1643 45.5883 37.2033 45.8019 37.2308 46.015C37.3275 46.7646 37.2796 47.5327 37.0904 48.2645C36.9524 48.7985 36.8114 49.5145 37.2976 49.7747C37.7679 50.0263 38.2823 49.5483 38.6174 49.1334C39.9926 47.4307 41.6527 45.9587 43.5077 44.7973C43.6903 44.6829 44.0297 44.649 44.0278 44.8645C43.7656 45.115 43.5948 45.4592 43.554 45.8195C43.8636 45.8536 44.1304 46.1247 44.1595 46.4348C44.0791 46.4746 43.9115 46.4696 43.711 46.4637H43.711H43.711H43.711C43.3822 46.454 42.9651 46.4416 42.7002 46.6197C42.2739 46.9064 41.9629 47.3308 41.6608 47.7464C40.6089 49.1937 39.5259 50.7137 39.2464 52.4808L37.5093 50.5138ZM36.2893 40.3875C36.3241 40.4085 36.3598 40.4279 36.3964 40.4455C36.3624 40.424 36.3267 40.4045 36.2893 40.3875ZM41.8508 47.9688C42.4386 47.1439 43.4418 46.2173 44.3086 46.7413C44.4698 46.4918 44.1968 46.1938 43.9894 45.9675C43.8645 45.8313 43.7635 45.7211 43.7953 45.663L43.8332 45.5939C44.1786 44.9666 44.8447 43.7568 42.8398 44.8628C41.4728 45.6169 39.3744 47.7283 38.2919 48.8175L38.2919 48.8175L38.2918 48.8176L38.2918 48.8176C37.8637 49.2484 37.5946 49.5192 37.5924 49.483C37.5497 48.7768 37.5305 47.9915 37.5112 47.2062C37.4919 46.421 37.4726 45.6357 37.43 44.9295C37.4003 44.4389 37.3756 43.9228 37.5924 43.4817C37.8092 43.0407 38.3572 42.7215 38.8023 42.9299C39.9353 43.4602 41.1624 41.9818 40.9158 40.7554C40.6692 39.529 39.5897 38.6739 38.5838 37.9302C39.096 37.3095 39.2118 36.3884 38.8691 35.6603C38.5264 34.9322 37.7428 34.4344 36.9381 34.4335C37.0611 34.9524 36.9555 35.5213 36.6544 35.9615C36.36 36.3919 35.9158 36.674 35.4702 36.9569L35.4701 36.957L35.4701 36.957L35.4701 36.957L35.4701 36.957L35.4701 36.957L35.4701 36.957L35.47 36.957L35.47 36.957L35.47 36.957L35.47 36.9571C35.2632 37.0884 35.056 37.2199 34.8635 37.3665C34.2559 37.8292 33.7585 38.6624 34.1273 39.3311C34.3398 39.7165 34.7533 39.8968 35.1706 40.0789C35.5426 40.2412 35.9176 40.4048 36.1563 40.7161C36.6534 41.3647 36.3031 42.3495 35.6947 42.8953C35.3204 43.2311 34.8727 43.4629 34.424 43.6953C34.1435 43.8405 33.8627 43.9859 33.599 44.1571C31.7121 45.3823 30.9424 47.7234 30.3528 49.8945C29.4307 53.2899 28.6284 56.7178 27.9478 60.1697L28.8939 60.1653C27.9985 61.2553 27.9576 62.8421 28.3615 64.1936C28.6575 65.1836 29.1573 66.0921 29.657 67.0004C29.8395 67.332 30.0219 67.6636 30.1944 67.9991C31.4027 70.3495 32.142 72.999 31.9147 75.6321C31.79 77.0772 31.3803 78.4806 30.9728 79.8727L26.5334 95.0385C27.429 92.3063 28.3654 89.2859 29.3017 86.2654L29.3019 86.2649C30.2383 83.2443 31.1747 80.2236 32.0703 77.4913C32.1077 77.3772 32.089 77.8811 32.0703 78.385C32.0516 78.8888 32.0329 79.3927 32.0703 79.2786C31.847 80.1203 31.5825 80.9871 31.3304 81.8129L31.3304 81.8131C31.1386 82.4414 30.9541 83.0461 30.8005 83.5979C30.5139 84.6276 30.245 85.6025 29.9748 86.5822L29.9747 86.5824L29.9747 86.5826L29.9747 86.5826C29.2956 89.045 28.6083 91.5371 27.6105 95.0018C29.0639 91.8313 29.8429 88.4011 30.6124 84.9993L31.1751 84.9977L31.7378 84.996C31.5414 84.7594 30.8005 84.6019 30.8005 84.6019L30.8814 84.1908C30.8814 84.1908 31.8717 84.3596 31.8211 84.1422C31.7201 84.0694 30.9728 83.9554 30.9728 83.9554C30.9728 83.9554 31.7838 81.0088 32.0703 80.053L31.8717 84.7068C31.864 84.8871 31.8648 85.0903 31.9928 85.2175C32.1244 85.3481 32.3351 85.3435 32.5192 85.3219C33.0694 85.2574 33.6109 85.1196 34.125 84.9132C34.5483 84.7433 34.9893 84.4718 35.207 84.0937L36.6826 84.1376L36.5704 84.6179C36.5649 84.6414 36.1601 84.6521 35.757 84.6628H35.7569C35.3572 84.6734 34.9592 84.6839 34.9538 84.7068C34.9469 84.7364 35.3403 84.7785 35.7315 84.8204L35.7316 84.8205C36.1186 84.8619 36.5035 84.9031 36.4968 84.9318C36.3095 85.7291 36.1494 86.4727 36.0163 87.0906L36.0163 87.0908C35.89 87.6771 35.7881 88.1502 35.7106 88.4485C35.6352 88.7388 35.5477 89.0489 35.3169 89.2406C35.175 89.3585 34.2813 89.4645 33.7376 89.529C33.5541 89.5508 33.4104 89.5678 33.3491 89.579C32.5713 89.7206 31.9029 89.7304 31.2744 89.7396H31.2744H31.2743H31.2742H31.2742H31.2741H31.2741H31.274H31.2739H31.2739H31.2738H31.2737C30.7625 89.7471 30.2776 89.7542 29.7817 89.8317C29.5469 89.8683 29.4229 90.0867 29.4978 90.1601C30.4843 90.1299 31.4297 90.0629 32.3751 89.9959C33.3205 89.9288 34.266 89.8618 35.2524 89.8317C35.231 89.9269 35.2205 90.0061 35.2119 90.0711C35.1908 90.2303 35.1808 90.3052 35.0503 90.3255C34.1848 90.4601 33.273 90.5297 32.3611 90.5992C31.4493 90.6688 30.5375 90.7383 29.672 90.873C29.3867 90.9173 29.0514 91.3 29.3259 91.3893L34.984 90.7507C34.5686 91.9277 34.1468 93.161 34.3192 94.3972C37.2522 84.0984 40.0915 73.773 42.8367 63.4226C41.5234 63.262 40.1757 63.3902 38.9162 63.7955C39.9575 64.0913 41.1917 64.6004 41.3222 65.675C41.3899 66.2329 41.118 66.7698 40.8543 67.2661L37.4143 73.7406L36.0852 73.0172L38.6281 68.3159C38.8326 67.9379 39.0359 67.4646 38.8032 67.1032C38.6786 66.9098 38.4579 66.805 38.2486 66.7097L31.2479 63.5229C32.2482 64.1026 32.9844 65.1199 33.2222 66.2514C33.3491 66.8553 33.6375 67.4028 33.9267 67.9518C34.1314 68.3406 34.3366 68.7301 34.4852 69.141C35.0057 70.5808 34.7981 72.1538 34.5961 73.6836L34.596 73.6839C34.5749 73.8441 34.5538 74.0038 34.5336 74.1628C34.1964 76.8201 34.1311 79.5119 34.3391 82.1825L32.2795 82.6545C32.6774 78.0034 33.0323 73.0969 31.0302 68.88C30.7814 68.3561 30.4984 67.8488 30.2155 67.3418L30.2155 67.3417C29.8244 66.6407 29.4335 65.94 29.1337 65.1963C28.6169 63.9148 28.3929 62.4277 28.9598 61.1675C29.5266 59.9073 31.0781 59.0416 32.3488 59.5845C32.9295 59.8327 33.594 59.88 34.204 59.7165C35.6494 62.8045 39.8846 64.1955 42.8794 62.566C43.2013 62.3909 43.3259 62 43.4222 61.6465L45.946 52.3787C45.2825 52.8406 45.1251 53.709 44.9775 54.5236C44.9589 54.6263 44.9404 54.7281 44.9212 54.8282C44.7488 55.722 44.229 56.7565 43.3188 56.7665C41.6652 56.7845 40.0135 56.9742 38.3989 57.3314L38.6587 56.2745C41.0451 55.4727 43.2795 54.2208 45.2093 52.604C46.0373 51.9104 46.8746 50.7922 46.3396 49.8538L45.3693 50.2302C45.487 50.0716 45.3763 49.8037 45.181 49.7744C43.7377 51.3335 41.752 52.3804 39.6502 52.6906C39.771 50.9346 40.8294 49.4021 41.8508 47.9688ZM35.2782 83.9456C35.2583 83.9967 35.2344 84.046 35.207 84.0937L35.0503 84.089C35.0503 84.089 35.098 84.0076 35.2782 83.9456ZM34.8041 75.367C34.9038 75.9506 35.4971 76.4797 36.1255 76.5613C36.9523 76.6685 37.7498 76.2629 38.4851 75.8697C38.6362 75.7888 38.792 75.7042 38.8973 75.5689C39.194 75.1876 38.923 74.5853 38.491 74.3692C38.0589 74.153 37.5468 74.2083 37.0675 74.2688C37.8421 74.1366 38.1746 73.2738 38.4653 72.5195L38.4654 72.5192L38.4655 72.519C38.4885 72.4592 38.5113 72.4 38.534 72.342C38.8434 71.5521 39.6939 70.7064 40.4102 71.1607C39.8566 72.8953 39.3758 74.6531 38.9696 76.428L35.6787 76.8175C35.2843 76.8641 34.7537 77.1328 34.9244 77.4913L38.8282 76.9514L37.4596 81.9377C37.3584 82.3061 36.9381 83.7576 36.9381 83.7576C36.9381 83.7576 35.7035 83.85 35.412 83.9096C35.3609 83.9201 35.3165 83.9324 35.2782 83.9456C35.3151 83.8507 35.338 83.75 35.344 83.6433C35.3786 83.0238 34.3702 82.5782 34.1334 83.1517C33.8283 82.8708 34.1636 82.2479 34.5661 82.3479C34.4738 80.0193 34.5537 77.684 34.8041 75.367ZM34.8041 75.367C34.8237 75.1855 34.8443 75.0042 34.866 74.8229C34.7895 75.0018 34.7733 75.187 34.8041 75.367ZM34.866 74.8229C34.9934 73.7591 35.1567 72.6997 35.3559 71.647L36.2956 71.6105L34.8716 74.8101L34.866 74.8229ZM39.4936 62.7468C38.6736 62.8573 37.7254 62.9283 37.1348 62.3487C37.0766 62.2916 37.0215 62.2253 37.0058 62.1452C36.9914 62.0717 37.0119 61.9963 37.0323 61.9242L38.2276 57.7C38.9793 57.805 39.7428 57.7049 40.4952 57.6048L44.2283 57.1083C43.8368 58.6934 43.4173 60.2715 42.97 61.8417C42.9248 62.0005 42.8698 62.1725 42.7321 62.2634C42.6446 62.3212 42.5368 62.3366 42.4329 62.3506L39.4936 62.7468ZM48.8804 39.6124C48.8238 40.6018 48.7586 41.6241 48.3077 42.5066C47.8567 43.389 47.7258 44.19 47.7258 44.19L47.373 45.375C46.3615 45.3019 45.3356 45.4345 44.3759 45.7623C45.3076 46.1691 46.4059 46.177 47.3435 45.7838C46.8704 47.034 46.596 48.3592 46.5335 49.6945C48.1175 44.9496 49.4914 40.1345 50.6498 35.2682C51.2821 35.3861 51.2763 36.2905 51.1079 36.9112L35.5361 94.2964C35.317 95.0384 34.882 97.3161 36.5501 91.3892C38.462 84.5957 41.4663 73.7302 44.4198 63.0484L44.4207 63.0452L44.4209 63.0446L44.4211 63.0439C47.1118 53.3126 49.7602 43.7343 51.5019 37.5265C51.6373 37.0441 51.7739 36.4075 51.6826 35.9148C51.5914 35.422 51.1984 34.9464 50.6973 34.9375C50.0858 35.8305 49.6527 36.8451 49.431 37.9045L43.5854 38.4422C43.8481 37.9948 43.823 37.3946 43.5237 36.9707L41.1743 45.8095C42.1902 43.6765 42.9219 41.4084 43.3439 39.0838L49.3674 38.2681C49.3862 39.1659 48.1261 39.3488 47.2281 39.3447C45.9137 39.3385 44.5987 39.6062 43.3912 40.1256C45.2329 40.1971 47.0839 40.0241 48.8804 39.6124ZM35.3723 69.9561C35.3703 70.1613 35.4356 70.3665 35.5559 70.5327C36.038 70.4217 36.536 70.3798 37.0299 70.4089C36.7597 70.7387 36.534 71.1049 36.361 71.4945L36.2819 71.1716L35.3963 71.2137L35.2206 70.4408C35.1245 70.0183 35.0279 69.5884 35.0577 69.1561C35.0823 68.8001 35.1919 68.4563 35.3007 68.1165L35.9448 66.1041L38.0293 66.9447C38.2002 67.0137 38.3773 67.0868 38.5006 67.2238C38.6238 67.3608 38.6749 67.5815 38.566 67.7302C38.0108 68.4884 37.5361 69.3056 37.1526 70.1636C37.0928 70.0367 37.0911 69.8838 37.1483 69.7557C36.5525 69.7797 35.9585 69.8467 35.3723 69.9561ZM36.3168 56.293C36.3347 56.1591 36.4969 56.0854 36.6294 56.1117C36.7619 56.138 36.8686 56.2328 36.9683 56.324L37.1462 56.16C37.2481 56.1722 37.2531 56.318 37.2287 56.4177C36.8215 58.079 36.354 59.7255 35.8273 61.3528L34.7656 59.6293C35.1777 59.6856 35.5763 59.403 35.7853 59.0434C35.9943 58.6839 36.0535 58.2595 36.1087 57.8473L36.3168 56.293ZM37.1562 75.212C37.3015 75.0312 37.3777 74.7962 37.3663 74.5644C37.467 74.5441 37.5741 74.5576 37.6666 74.6023C37.6118 74.8101 37.652 75.041 37.7738 75.2181C37.9053 75.0651 37.9297 74.8291 37.8324 74.6525C38.2066 74.6038 38.6004 74.7381 38.8668 75.0053C38.5995 75.5228 38.067 75.8624 37.5083 76.027C36.9496 76.1915 36.359 76.2028 35.7767 76.2129C35.5906 76.2161 35.3814 76.2103 35.2525 76.076C35.1043 75.9218 35.1327 75.6745 35.1788 75.4656C35.2812 75.0016 35.4215 74.5461 35.5979 74.105C36.0672 74.3566 36.5824 74.5222 37.1104 74.591C37.0829 74.7982 37.0986 75.0111 37.1562 75.212ZM32.19 83.3402C32.4058 83.5484 32.7548 83.4767 33.0475 83.4118C33.3402 83.3469 33.7155 83.3373 33.8637 83.5979C33.8897 83.6436 33.9058 83.6941 33.9218 83.7445C33.9401 83.8021 33.9583 83.8595 33.9913 83.9097C34.0532 84.0037 34.2114 84.0508 34.2712 83.9555L33.9837 83.215L34.7365 83.7576C34.7688 83.5879 34.7116 83.4037 34.5889 83.2821C34.7281 83.066 35.1117 83.2345 35.1437 83.4895C35.1758 83.7445 34.9885 83.9735 34.7907 84.1376C34.3721 84.4849 33.8605 84.6987 33.3492 84.8839C33.0273 85.0004 32.6098 85.0845 32.3907 84.8215C32.4032 84.7298 32.3902 84.6346 32.3534 84.5496C32.2866 84.5675 32.2121 84.5542 32.1555 84.5143C32.131 84.123 32.1425 83.7294 32.19 83.3402ZM36.6397 62.0424C36.3788 61.9703 36.2085 61.6652 36.284 61.4053L37.7645 56.3085C37.9136 56.2925 38.0658 56.3051 38.2102 56.3455L36.6397 62.0424ZM40.4357 69.0155L40.4359 69.0153C40.4836 68.9089 40.5313 68.8026 40.5799 68.697C40.8824 68.0399 41.224 67.4007 41.6024 66.7841C41.7207 67.1545 41.5385 67.5396 41.3699 67.8961L41.3333 67.9738C41.0473 68.5841 40.8566 69.2387 40.77 69.907C40.7044 70.4135 40.0715 70.7524 39.6136 70.5263C39.9625 70.0695 40.1995 69.5416 40.4357 69.0156L40.4357 69.0156L40.4357 69.0155ZM34.6996 65.6278C34.7475 65.7041 34.7372 65.8018 34.7232 65.8906C34.6279 66.4946 34.4337 67.0828 34.1507 67.6249L33.2562 65.1529C33.6842 65.2201 34.1046 65.3357 34.5068 65.4967C34.5802 65.5261 34.6576 65.5608 34.6996 65.6278ZM40.4366 64.0612C41.0536 63.7631 41.7762 63.6895 42.4406 63.8571C42.2109 64.4403 42.0597 65.0543 41.9925 65.6775C41.8464 65.7344 41.7531 65.5247 41.7193 65.3716C41.5805 64.7426 41.0624 64.2134 40.4366 64.0612ZM35.4948 66.0185C35.5234 66.117 35.4949 66.2219 35.4664 66.3204L34.7988 68.6298C34.5845 68.3189 34.6532 67.901 34.7362 67.5326C34.8648 66.9622 35.007 66.3949 35.1628 65.8313C35.2988 65.795 35.4556 65.8834 35.4948 66.0185ZM36.6718 74.2246C36.4253 74.2138 36.1594 74.196 35.9696 74.0383C35.7797 73.8807 35.7408 73.5288 35.9573 73.4104L36.8738 73.8882L36.6718 74.2246ZM33.1006 83.2313C32.8373 83.281 32.5669 83.2238 32.305 83.1668L32.339 82.9078C32.7875 82.911 33.2365 82.8519 33.6689 82.7328C33.6208 82.9964 33.3639 83.1815 33.1006 83.2313ZM40.1474 40.8067C40.1916 40.788 40.2422 40.8098 40.2603 40.8555C40.2784 40.9012 40.2572 40.9535 40.213 40.9722C39.9964 41.0638 39.863 41.1852 39.7509 41.3533C39.7024 41.426 39.6352 41.5787 39.5687 41.73C39.4774 41.9379 39.3873 42.1429 39.3486 42.133C39.2819 42.1159 39.4493 41.4536 39.5784 41.2602C39.7104 41.0622 39.9008 40.911 40.1474 40.8067ZM60.0618 23.4085L70.6393 22.3752C70.8883 22.3509 71.2209 22.2183 71.1606 21.9754C67.5024 22.2513 63.8478 22.5742 60.198 22.944C59.9565 22.9685 59.6335 23.2047 59.8156 23.3652C59.8801 23.4219 59.9763 23.4169 60.0618 23.4085ZM61.6853 32.3177C61.6881 32.3953 61.6933 32.4794 61.7438 32.5384C61.8131 32.6195 61.936 32.62 62.0425 32.6139L64.9781 32.4466C65.0835 32.4406 65.1916 32.434 65.288 32.3909C65.6097 32.2471 65.6365 31.809 65.6193 31.457C65.5512 30.0653 65.5617 28.6697 65.6506 27.2791C65.6626 27.0909 65.7541 26.838 65.939 26.8755L65.8942 32.3546C65.8932 32.4744 65.8872 32.6071 65.8035 32.6928C65.724 32.7742 65.5997 32.787 65.4862 32.7949C64.8418 32.84 64.1972 32.8833 63.5527 32.9266L61.5949 33.0581C61.5218 33.0631 61.4419 33.0661 61.3826 33.023C61.3023 32.9646 61.295 32.8497 61.2952 32.7504L61.3026 27.9022C61.3029 27.7254 61.3168 27.5206 61.4606 27.4178C61.6766 27.6768 61.676 28.0474 61.6672 28.3846C61.633 29.6954 61.639 31.0073 61.6853 32.3177ZM73.2548 47.4068C73.2633 47.1876 73.2644 46.9678 73.2651 46.7501L73.323 28.1706C73.3246 27.674 73.3104 27.1318 72.9912 26.7514C72.8707 33.7975 72.8526 40.8453 72.9369 47.8918C72.9075 48.0717 72.9038 48.2615 72.9049 48.4407C72.9098 49.3003 72.8952 50.5848 72.8806 51.8692C72.866 53.1537 72.8515 54.4382 72.8563 55.2978C72.8584 55.6603 72.5578 55.9685 72.2175 56.0933C71.8771 56.218 71.5033 56.1991 71.1414 56.1785L53.8174 55.1916L53.9152 49.0036C55.9747 48.7958 58.0594 48.8401 60.1082 49.1354C59.992 50.3773 59.918 51.6232 59.8864 52.8702C59.6977 52.9756 58.6333 52.971 57.4466 52.9659C56.3003 52.9609 55.04 52.9554 54.3447 53.0482C57.0988 53.5928 59.9107 53.5166 62.7274 53.4402C64.8276 53.3833 66.9304 53.3263 69.014 53.5265C69.1053 53.553 69.1688 53.4122 69.1171 53.3325C69.0653 53.2528 68.9616 53.2287 68.8683 53.2112L66.9155 52.8455L67.0032 49.8264C67.0077 49.6697 67.0154 49.5029 67.105 49.3743C67.2815 49.1209 67.6131 49.167 67.95 49.2138C68.2738 49.2588 68.6024 49.3045 68.8028 49.0857C68.5783 50.4639 68.6927 51.896 69.1331 53.2211C69.4871 43.9944 69.6183 34.7591 69.5264 25.526C69.5243 25.3194 69.5123 25.0889 69.363 24.9461C69.2088 24.7987 68.9689 24.8023 68.7559 24.8152L61.9943 25.225C60.6173 25.3085 59.1894 25.406 57.9781 26.0663L69.1528 25.1301C69.1338 25.7757 68.2816 25.978 67.6361 26.0011C64.2253 26.123 60.8258 26.5631 57.4964 27.3139C58.1942 27.5781 58.9876 27.5807 59.6872 27.3212C59.9147 27.2368 60.0454 27.578 60.0469 27.8206L60.0749 32.3546C60.0758 32.5088 60.0255 32.717 59.8714 32.7122C58.3673 32.6655 56.8575 32.8054 55.3876 33.1276C55.4299 33.3646 55.7496 33.4042 55.9897 33.3864L60.0335 33.0863C60.2423 33.0708 60.5135 32.9932 60.5145 32.7838L60.5404 27.6114C60.5411 27.4581 60.5464 27.2915 60.6437 27.173C60.7563 27.0357 60.9525 27.0093 61.1292 26.9927L68.9574 26.2579L69.2998 31.3134C69.3263 31.7047 69.0082 32.0528 68.6415 32.1921C68.2749 32.3314 67.8695 32.309 67.4781 32.2847C67.3397 32.2761 67.1852 32.2598 67.096 32.1537C67.0187 32.0618 67.0151 31.9306 67.0153 31.8105L67.0245 26.9945C67.0247 26.8743 66.8364 26.8392 66.7506 26.9235C66.6648 27.0077 66.658 27.1414 66.6566 27.2617L66.6039 31.8583C66.603 31.9361 66.6 32.01 66.5972 32.0796C66.5807 32.49 66.5702 32.7521 67.0274 32.7838C67.5623 32.8208 68.7302 32.6454 69.2163 32.4193L69.0094 41.5504L67.3189 41.5983C67.1284 41.6037 66.9187 41.6167 66.7817 41.7492C66.6354 41.8907 66.6235 42.1174 66.6212 42.321L66.5674 46.9379C66.5666 47.008 66.5636 47.0749 66.5607 47.1381C66.5452 47.4833 66.5347 47.7171 66.9155 47.762C67.366 47.8151 68.3573 47.6837 68.7801 47.5192C68.8922 47.9414 68.9062 48.3894 68.8206 48.8178L66.9273 48.6772C66.7771 48.6661 66.5696 48.7037 66.5684 48.8543L66.5405 52.3949C66.5382 52.6857 66.4196 53.0842 66.1321 53.0403C65.8902 53.0033 65.8366 52.6824 65.8425 52.4378L65.9242 49.027C65.9286 48.8428 65.6841 48.7779 65.4999 48.7721L61.7149 48.6534C61.6144 48.6502 61.5071 48.6488 61.4219 48.7021C61.2777 48.7923 61.2598 48.9913 61.2574 49.1613L61.2198 51.8159C61.2122 52.3504 61.024 53.0685 60.49 53.043L60.4687 49.1197C60.4681 49.003 60.4629 48.8744 60.3835 48.789C60.3154 48.7157 60.2099 48.6936 60.1114 48.676C58.1291 48.3222 56.0912 48.2815 54.0963 48.5557C53.8267 48.1568 53.7308 47.6448 53.8377 47.1753C54.3146 47.4018 54.8641 47.3982 55.392 47.3902L59.9892 47.3204C60.1106 47.3186 60.2418 47.3134 60.337 47.2379C60.468 47.134 60.4786 46.9425 60.4783 46.7753L60.4689 42.5656C60.4683 42.3067 60.4557 42.0176 60.2699 41.8372C60.0793 41.6521 59.7809 41.653 59.5155 41.6657L54.2573 41.9168C54.099 41.0714 54.0251 40.2101 54.037 39.3501C54.0684 39.2348 53.8829 39.1642 53.79 39.2393C53.697 39.3144 53.6835 39.4486 53.6774 39.5679C53.4129 44.6853 53.3398 49.8126 53.4584 54.9355C53.4703 55.449 54.1387 55.6274 54.6516 55.6563L71.0914 56.581C71.5626 56.6075 72.0495 56.6318 72.4918 56.4674C72.9341 56.3029 73.3228 55.897 73.3127 55.4253C73.2896 54.3486 73.286 52.847 73.2823 51.3454C73.2789 49.9084 73.2754 48.4714 73.2548 47.4068ZM65.1501 47.7613L61.5071 47.6542C61.4499 47.6525 61.389 47.6497 61.3424 47.6166C61.2666 47.5629 61.2593 47.4552 61.2593 47.3623L61.2565 42.071C61.2564 41.9368 61.2635 41.7856 61.3634 41.6959C61.4514 41.6169 61.5818 41.6136 61.7002 41.6147L65.6587 41.651C65.7217 41.6516 65.7905 41.6542 65.8382 41.6955C65.8961 41.7456 65.9006 41.8324 65.9006 41.9091L65.904 47.3573C65.9042 47.6774 65.4701 47.7707 65.1501 47.7613ZM61.724 42.0659C61.589 42.1307 61.5705 42.312 61.5706 42.4617L61.5742 47.09C61.5743 47.1457 61.578 47.2094 61.6215 47.2441C61.6496 47.2664 61.6875 47.2706 61.7233 47.2739C62.7738 47.3696 63.8315 47.3877 64.8847 47.3281C65.2077 47.3098 65.6335 47.1722 65.6052 46.8499C65.4788 45.4088 65.4671 43.9577 65.5701 42.5147C65.5933 42.1909 65.1546 42.0733 64.8299 42.07L61.9034 42.0402C61.8425 42.0396 61.779 42.0395 61.724 42.0659ZM61.7995 33.9783C61.6376 33.9543 61.4344 33.9447 61.3511 34.0857C61.3169 34.1435 61.3134 34.2137 61.3109 34.2808C61.2335 36.3385 61.2281 38.3989 61.2948 40.457C61.5837 40.3584 61.6213 39.972 61.6116 39.667C61.5569 37.9291 61.6614 36.1905 61.7659 34.4549C62.9722 34.5792 64.1957 34.5343 65.3896 34.322C65.5587 34.292 65.6249 34.5331 65.6187 34.7047C65.5595 36.3281 65.5562 37.9535 65.6088 39.5771C65.6313 39.6657 65.5062 39.7107 65.4149 39.7143L61.9326 39.8516C61.799 39.8569 61.7683 40.0674 61.8656 40.1592C61.9628 40.251 62.1115 40.2531 62.2452 40.2497L65.6768 40.1632C65.7424 40.1616 65.8159 40.1564 65.8596 40.1074C65.8983 40.0638 65.9004 39.9999 65.9004 39.9416L65.9018 34.1968C65.9018 34.1323 65.9011 34.0649 65.8711 34.0079C65.7906 33.8548 65.5706 33.8694 65.4007 33.9019C64.2159 34.1291 62.9929 34.1551 61.7995 33.9783ZM73.4415 24.3749C73.4149 25.1792 73.3826 26.0089 73.0432 26.7387L72.8846 23.5224C72.8605 23.0343 72.5951 22.3638 72.1307 22.5158L72.0674 54.2464C72.0661 54.8763 72.0633 55.5173 71.8771 56.1191C71.6763 56.0053 71.653 55.7303 71.6538 55.4994L71.7701 22.4881C71.7704 22.4046 71.7713 22.3185 71.8048 22.2421C71.8862 22.0566 72.1274 21.999 72.3278 22.0288C72.7988 22.0988 73.1616 22.5098 73.3164 22.9601C73.4712 23.4105 73.4572 23.8989 73.4415 24.3749ZM60.0191 34.9186L60.0382 39.5136C60.0386 39.599 60.0336 39.6964 59.9677 39.7508C59.9221 39.7884 59.859 39.7945 59.8 39.799L54.4199 40.2106C54.2522 40.2234 54.2246 40.4903 54.3523 40.5997C54.4801 40.709 54.6675 40.7013 54.8349 40.686C55.2601 40.6473 55.6859 40.5982 56.1117 40.549C57.4595 40.3935 58.8089 40.2378 60.1491 40.4099C60.4062 40.443 60.5077 40.0887 60.5091 39.8294L60.5393 34.2266C60.5397 34.1618 60.5359 34.0877 60.4856 34.0468C60.4422 34.0115 60.3801 34.0146 60.3243 34.0196L55.7294 34.4277C55.6092 34.4384 55.4821 34.4516 55.3853 34.5237C55.2885 34.5958 55.2416 34.7489 55.3216 34.8392L59.594 34.6102C59.7426 34.6022 59.9253 34.6128 59.9918 34.746C60.0181 34.7986 60.0189 34.8598 60.0191 34.9186ZM66.6081 39.5461L66.6343 34.1983C66.6347 34.1139 66.6376 34.0222 66.6909 33.9568C66.74 33.8965 66.8202 33.8732 66.8953 33.8532L68.4765 33.4301C68.6208 33.3915 68.7833 33.3549 68.9125 33.4301C69.0416 33.5052 69.0598 33.7434 68.915 33.7804L67.372 34.175C67.266 34.2021 67.152 34.2343 67.0851 34.3209C67.0191 34.4061 67.0157 34.5226 67.0151 34.6304L66.9882 39.4742C66.9875 39.5999 67.0417 39.7745 67.1647 39.7488C67.768 39.623 68.4022 39.6478 68.9938 39.8203C68.9467 40.0734 68.6129 40.128 68.3555 40.1243L66.9157 40.1036C66.6788 40.1002 66.607 39.783 66.6081 39.5461ZM59.9224 42.2712C59.9946 42.3313 60.0004 42.4381 60.0004 42.532L60.0016 46.5709C60.0017 46.7402 59.9686 46.9552 59.8046 46.9973C58.0224 46.8729 56.2333 46.8465 54.4481 46.9182C54.2817 46.9248 54.1376 46.7863 54.0817 46.6294C54.0258 46.4725 54.0381 46.3007 54.0501 46.1346C54.1296 45.0332 54.1623 43.9284 54.1482 42.8241C54.1465 42.6915 54.1588 42.5322 54.2753 42.4688C54.3161 42.4466 54.3636 42.4408 54.4098 42.4355C56.172 42.2336 57.9489 42.1612 59.7217 42.2193C59.7921 42.2216 59.8682 42.2262 59.9224 42.2712ZM65.5733 50.0108C65.4904 50.7812 65.4756 51.559 65.5291 52.332C65.5321 52.3758 65.5285 52.4354 65.5245 52.5003C65.5152 52.6527 65.504 52.8346 65.5733 52.9109C65.451 53.0433 62.8671 53.0238 61.8616 52.929C61.7693 52.9203 61.6653 52.9042 61.6123 52.8282C61.5747 52.7743 61.5732 52.704 61.5732 52.6383L61.5705 49.5071C61.5704 49.3936 61.5752 49.2676 61.6546 49.1865C61.7392 49.1002 61.8752 49.0982 61.996 49.102L64.8043 49.1897C65.0639 49.1978 65.3643 49.2275 65.5077 49.444C65.6151 49.606 65.5941 49.8176 65.5733 50.0108ZM66.9782 42.2794C66.9783 42.2017 67.0777 42.1711 67.1551 42.1632L69.0437 41.9724L68.9445 46.8926C68.9423 47.0051 68.9284 47.138 68.8304 47.1932C68.7849 47.2189 68.7304 47.2211 68.6782 47.2228L67.3189 47.2655C67.2141 47.2688 67.0934 47.2652 67.0274 47.1837C66.9787 47.1236 66.9765 47.0394 66.9765 46.962L66.9782 42.2794Z" fill="#333333"/>
</svg>
