<svg width="100" height="100" viewBox="0 0 100 100" fill="none" xmlns="http://www.w3.org/2000/svg">
<path fill-rule="evenodd" clip-rule="evenodd" d="M28.0112 77.7306C28.0112 77.7306 6.62875 73.7249 5.17944 68.4387C3.73013 63.1524 20.9041 60.6056 20.9041 60.6056C20.9041 60.6056 29.1395 59.213 30.4005 58.0847C31.6616 56.9564 56.7655 57.3917 68.8949 48.3945C81.0243 39.3974 85.0305 34.835 91.0266 39.9455C97.0227 45.056 95.5711 60.2086 88.9603 68.9696C82.3494 77.7306 56.0506 79.1908 56.0506 79.1908L28.0112 77.7306Z" fill="#C0F0FF"/>
<path fill-rule="evenodd" clip-rule="evenodd" d="M66.7824 72.2333C66.7824 72.2333 66.2167 72.6245 65.9485 71.8862C65.6802 71.1479 65.5116 70.6269 65.5116 70.6269C65.5116 70.6269 64.9346 70.0476 64.6332 70.0476C64.3318 70.0476 63.3444 69.3651 63.4457 68.8286C63.5471 68.2922 64.7145 68.3532 65.0463 68.3532C65.3782 68.3532 65.1266 67.5371 65.1266 67.2895C65.1266 67.0418 65.5163 64.9379 66.4428 65.2527C67.3693 65.5676 67.8718 66.121 67.5028 67.0807C68.4687 67.0344 69.348 66.5893 69.4608 68.4793C69.3836 69.1737 69.4018 69.3337 69.8256 69.8483C70.2494 70.3629 70.4219 71.1375 70.0695 71.4009C69.717 71.6644 69.1439 71.7654 68.9526 71.8862C68.7613 72.007 68.6595 72.2701 68.6595 72.7042C68.6595 73.1384 67.9942 72.382 67.9942 72.382L67.3693 71.7154L66.7824 72.2333Z" fill="white"/>
<path d="M58.9017 48.1391C59.5446 55.0077 60.0802 61.8864 60.5084 68.7717C60.5589 69.5852 60.5898 70.4681 60.1243 71.138C59.8121 71.5875 59.3177 71.8738 58.8244 72.1123C57.0192 72.985 55.0297 73.406 53.0462 73.7041C47.6385 74.5168 42.1017 74.4678 36.7094 73.5595C35.6423 73.3798 34.5597 73.159 33.6189 72.6256C32.6782 72.0922 31.8877 71.1918 31.7468 70.1216C30.5729 61.2097 29.9159 52.2301 29.78 43.2426C29.7701 42.5915 29.7473 41.8916 29.3562 41.3702C28.9325 40.8053 28.1756 40.5872 27.6971 40.0678C26.8717 39.1718 27.1822 37.6418 28.0482 36.7848C28.9143 35.9278 30.1571 35.5876 31.3509 35.3374C34.8387 34.6062 38.4286 34.3614 41.9838 34.6123C42.0887 34.8983 41.6573 35.0588 41.352 35.0591C38.012 35.0631 34.6725 35.3359 31.3764 35.8739C30.1685 36.071 28.8517 36.3723 28.12 37.3509C31.4483 38.4451 35.0166 38.5076 38.5209 38.5343C44.7849 38.5822 51.0937 38.5448 57.2439 37.3583C57.7914 37.2527 58.385 37.1092 58.7246 36.668C59.0641 36.2267 58.9042 35.4095 58.3502 35.345C53.6108 34.7936 48.8225 34.6609 44.0597 34.949C43.6919 34.9713 43.1503 34.7505 43.3303 34.4298C47.6991 34.2228 52.0824 34.3189 56.4378 34.7172C57.6074 34.8241 58.8392 34.9772 59.7751 35.6851C60.7682 36.4364 61.2631 37.788 60.9891 39.001C60.7152 40.2139 59.687 41.2232 58.4668 41.477" fill="white"/>
<path fill-rule="evenodd" clip-rule="evenodd" d="M42.3904 34.2908C42.548 29.9626 43.1898 25.5968 42.4631 21.3271C42.3833 20.8582 42.2859 20.3881 42.0979 19.9511C41.7803 19.213 41.2016 18.5906 40.4888 18.2206C40.27 18.107 40.0264 18.0057 39.8929 17.7983C39.7594 17.5908 39.8268 17.2395 40.0701 17.2C41.0672 17.3595 41.8805 18.1391 42.3303 19.0439C42.7801 19.9488 42.9216 20.9724 43.0251 21.9777C43.3881 25.506 43.3583 29.0746 42.9363 32.5962C42.7927 33.7946 42.6088 35.0434 43.0084 36.1821C42.8879 36.1533 42.7674 36.1244 42.6469 36.0955C42.3622 35.5507 42.3681 34.9053 42.3904 34.2908H42.3904Z" fill="#E0E0E0"/>
<path d="M31.064 77.6831C30.8112 77.9617 30.4175 78.1099 30.0404 78.0683C29.8506 78.0474 29.7483 78.3242 29.857 78.4788C29.9657 78.6335 30.1777 78.6764 30.3686 78.6822C30.5595 78.688 30.76 78.6713 30.9321 78.753C30.2868 79.0441 29.6416 79.3351 28.9964 79.6262C27.1392 80.9942 29.9507 80.4534 30.4147 80.3472C29.8974 80.8608 29.5402 81.4166 29.9377 81.4332C29.581 81.5906 30.4679 81.1975 30.221 81.4958C29.9741 81.7941 29.8946 82.2647 30.1503 82.5557C30.5785 82.5506 30.9609 82.1551 30.945 81.7337C31.7642 81.8907 32.605 81.9379 33.437 81.8736C33.9204 81.8363 34.2884 81.3051 34.1683 80.8426C34.0483 80.3801 33.4921 80.0872 33.0278 80.2242C33.6248 79.9571 34.1906 79.6221 34.7103 79.2281C34.5692 79.0166 34.4281 78.805 34.287 78.5934C34.072 78.2709 33.851 77.9421 33.5405 77.7068C33.2299 77.4716 32.8076 77.3432 32.439 77.4741C32.0705 77.6051 31.8183 78.0519 31.9872 78.4C31.8723 78.5418 31.6214 78.543 31.505 78.4025C31.3885 78.2619 31.4402 78.0202 31.6043 77.9378C31.751 77.8641 31.7686 77.6501 31.6826 77.5118C31.5967 77.3734 31.4427 77.2931 31.2961 77.2193C30.9036 77.0218 30.3997 76.8322 30.0549 77.1025C30.1954 77.1854 30.3602 77.2278 30.524 77.2233C30.3017 77.354 30.0795 77.4847 29.8572 77.6154C29.7788 77.6876 29.9374 77.7766 30.0444 77.7677C30.3843 77.7395 30.7241 77.7113 31.064 77.6831Z" fill="white"/>
<path fill-rule="evenodd" clip-rule="evenodd" d="M30.0443 77.7679C30.3841 77.7397 30.724 77.7115 31.0639 77.6833C30.811 77.9619 30.4174 78.1101 30.0403 78.0685C29.8505 78.0476 29.7482 78.3244 29.8569 78.479C29.9656 78.6337 30.1776 78.6766 30.3684 78.6824C30.5593 78.6882 30.7599 78.6715 30.9319 78.7532C30.2867 79.0443 29.6415 79.3353 28.9963 79.6264C29.4691 79.6828 29.952 79.6571 30.4159 79.5509C29.8986 80.0646 28.8265 79.7798 28.4538 80.4032C29.1971 80.4909 29.9615 80.3998 30.6622 80.1401C30.6582 80.3885 30.3633 80.5229 30.1133 80.5563C29.8633 80.5896 29.5745 80.5989 29.4178 80.7937C29.316 80.9201 29.1152 80.8812 28.9597 80.8304C28.7018 80.7462 28.4348 80.6567 28.2382 80.4719C28.0416 80.2872 27.9375 79.978 28.0717 79.7453C28.3662 79.2347 29.4096 79.5367 29.5856 78.9757C29.6297 78.8353 29.5944 78.6841 29.5596 78.5412C29.4786 78.2086 29.4008 77.8664 29.4469 77.5274C29.4931 77.1885 29.6893 76.8486 30.0125 76.7235C30.5556 76.5134 31.1115 76.9666 31.6808 77.0925C32.1095 77.1872 32.564 77.092 32.9923 77.1883C33.6088 77.3269 34.0611 77.8296 34.4695 78.305C34.6546 78.5206 34.8463 78.7491 34.9017 79.026C34.957 79.303 34.821 79.6389 34.5427 79.7066C34.2897 79.7682 34.1894 80.0841 34.2388 80.3361C34.2882 80.5881 34.4371 80.8108 34.506 81.0583C34.5748 81.3059 34.5308 81.6221 34.2987 81.7389C33.8092 81.985 33.2961 82.2371 32.7465 82.2374C32.3784 82.2376 32.0185 82.1237 31.6505 82.1123C31.2825 82.1009 30.8675 82.2297 30.7125 82.5586C30.5565 82.8893 30.0052 82.8147 29.8013 82.5104C29.5974 82.206 29.6357 81.809 29.6818 81.4472C29.6953 81.341 29.712 81.2276 29.7847 81.1479C29.8442 81.0827 29.9319 81.0509 30.0169 81.0248C30.3967 80.908 30.797 80.8564 31.1945 80.8731C30.8379 81.0304 30.4677 81.1977 30.2208 81.496C29.974 81.7942 29.8945 82.2648 30.1502 82.5558C30.5783 82.5508 30.9608 82.1553 30.9449 81.7339C31.7641 81.8909 32.6049 81.9381 33.4369 81.8738C33.9202 81.8365 34.2882 81.3053 34.1682 80.8428C34.0481 80.3803 33.492 80.0874 33.0276 80.2244C33.6247 79.9572 34.1905 79.6223 34.7101 79.2283C34.5691 79.0168 34.428 78.8052 34.2869 78.5936C34.0719 78.2711 33.8509 77.9423 33.5404 77.707C33.2298 77.4718 32.8074 77.3434 32.4389 77.4743C32.0703 77.6053 31.8182 78.0521 31.9871 78.4003C31.8721 78.542 31.6213 78.5432 31.5048 78.4027C31.3884 78.2621 31.4401 78.0204 31.6042 77.938C31.7509 77.8643 31.7684 77.6503 31.6825 77.512C31.5965 77.3736 31.4426 77.2933 31.2959 77.2195C30.9035 77.022 30.3996 76.8324 30.0547 77.1027C30.1953 77.1856 30.3601 77.2281 30.5239 77.2235C30.3016 77.3542 30.0793 77.4849 29.8571 77.6157C29.7786 77.6878 29.9373 77.7768 30.0443 77.7679V77.7679Z" fill="#F2994A"/>
<path fill-rule="evenodd" clip-rule="evenodd" d="M41.2959 33.4813C41.2618 33.3496 41.3115 33.1916 41.4326 33.1289C41.472 33.2109 41.5115 33.2929 41.5509 33.375C41.4685 33.4257 41.3862 33.4764 41.3038 33.5271L41.2959 33.4813Z" fill="#E0E0E0"/>
<path d="M31.4341 79.4561C31.4866 79.7151 31.456 79.9884 31.3474 80.2316C31.6503 80.2632 31.9575 80.2586 32.2591 80.218C32.0498 80.5368 31.5133 80.6259 31.2258 80.366C30.9383 80.1061 31.0515 79.5639 31.4341 79.4561L31.4341 79.4561Z" fill="white"/>
<path fill-rule="evenodd" clip-rule="evenodd" d="M41.6545 27.2916C41.538 28.7713 41.4895 30.2555 41.5093 31.739C41.5132 32.0294 41.5232 32.3326 41.6738 32.5879C41.7182 32.6631 41.6044 32.75 41.5146 32.727C41.4249 32.704 41.3709 32.6218 41.3306 32.5447C40.7848 31.4999 41.1296 30.2698 41.1052 29.1112C41.0893 28.3572 40.9143 27.5801 41.17 26.8634C41.2216 26.7186 41.4743 26.7295 41.5745 26.851C41.6747 26.9725 41.6665 27.1396 41.6545 27.2916L41.6545 27.2916Z" fill="#E0E0E0"/>
<path d="M24.0864 64.2795C24.1853 64.4512 24.1867 64.6818 24.0899 64.8548C23.9844 64.4275 23.4278 64.2193 23.0958 64.483C22.9739 64.5798 22.842 64.7334 22.7014 64.6721C22.7667 64.6462 22.7764 64.5319 22.7166 64.494C22.9949 64.0188 23.6922 63.9097 24.0864 64.2795H24.0864Z" fill="#333333"/>
<path fill-rule="evenodd" clip-rule="evenodd" d="M25.1766 63.8501C25.1897 63.7912 25.2028 63.7326 25.2142 63.6747C25.2806 63.3364 25.2411 62.9064 24.9294 62.7606C24.7135 62.6596 24.4794 62.7434 24.2455 62.8271C24.1579 62.8585 24.0704 62.8898 23.9838 62.9114C23.4974 63.0329 22.9448 62.8045 22.6851 62.3746C22.4884 62.0489 21.9437 62.2191 21.763 62.5541C21.649 62.7656 21.6187 63.0054 21.5882 63.2463C21.5704 63.387 21.5526 63.5281 21.518 63.6641C21.4241 64.0331 21.0893 64.4129 20.7251 64.3047C20.435 64.2185 20.0966 64.3333 19.9185 64.5785C19.7404 64.8237 19.7351 65.1817 19.9059 65.4321C20.1134 65.7362 20.4883 65.8293 20.8572 65.921C20.9625 65.9472 21.0674 65.9733 21.1678 66.0041C21.3406 66.0572 21.5174 66.1373 21.6164 66.2888C21.7155 66.4404 21.6982 66.6787 21.5403 66.7669C21.2818 66.9114 21.3031 67.3375 21.5372 67.5189C21.7714 67.7003 22.1179 67.6664 22.3737 67.5172C22.6295 67.3679 22.8151 67.1253 22.9939 66.8888C23.2689 66.525 23.8487 66.444 24.2126 66.7185C24.2107 66.401 24.391 66.0888 24.6665 65.9323C24.9421 65.7758 25.3019 65.7813 25.5726 65.9461C25.8096 65.8501 25.794 65.4924 25.6471 65.2826C25.5873 65.1974 25.5138 65.1219 25.4406 65.0468C25.3336 64.937 25.2271 64.8277 25.1647 64.689C25.0476 64.4284 25.1129 64.1354 25.1766 63.8501ZM24.2841 65.6939C24.3299 65.8518 24.3047 66.0289 24.2167 66.1676L24.2422 66.1935C24.0901 66.2733 23.8957 66.265 23.7509 66.1724L23.9044 65.7769C24.0199 65.7143 24.1532 65.6851 24.2841 65.6939Z" fill="white"/>
<path fill-rule="evenodd" clip-rule="evenodd" d="M66.5236 47.6179C66.3683 47.4341 66.2129 47.2501 66.0503 47.0736C65.5486 46.5288 64.9337 46.0322 64.2018 45.9216C64.1246 45.91 64.0465 45.9027 63.9685 45.8954C63.8111 45.8807 63.654 45.866 63.5049 45.8156C63.3055 45.7481 63.1324 45.6204 62.972 45.484C62.7547 45.2992 62.5454 45.0908 62.3355 44.882C61.7183 44.2676 61.0971 43.6493 60.2591 43.6168C59.3766 43.5825 58.548 44.3751 58.542 45.2592C58.537 46.0009 59.017 46.6466 59.4745 47.23L67.4325 57.3769L72.3665 63.6681C73.0035 64.4804 73.8408 65.3795 74.8627 65.2379C75.7811 65.1107 76.3979 64.0318 76.1362 63.1414C76.0356 62.7993 75.8375 62.5006 75.6389 62.2013C75.4658 61.9403 75.2923 61.6789 75.183 61.3877C75.0089 60.9238 75.0104 60.4257 75.012 59.9253C75.0132 59.5423 75.0144 59.158 74.9368 58.7868C74.765 57.9644 74.2235 57.2739 73.6727 56.64C73.3746 56.297 73.0587 55.7889 73.3436 55.435C73.6827 55.0138 73.5135 54.3918 73.2993 53.8951C72.6118 52.3005 71.6137 50.8409 70.3775 49.6224C69.8482 49.1007 69.0781 48.5928 68.4159 48.9297C68.1367 49.0717 67.803 48.8974 67.5598 48.6999C67.1712 48.3844 66.8475 48.0013 66.5236 47.6179ZM72.3525 54.2225C72.4053 54.4922 72.3549 54.7972 72.1587 54.9895C72.1105 55.0368 72.0504 55.0778 71.983 55.0805C71.8678 55.0852 71.7806 54.9821 71.7127 54.8889L68.6294 50.6583C68.5108 50.4956 68.5936 50.2425 68.7663 50.1392C68.939 50.0358 69.165 50.0603 69.3443 50.1517C69.5236 50.2432 69.6656 50.3925 69.8016 50.5409C70.6302 51.4458 71.3724 52.4299 72.0148 53.4755C72.1586 53.7096 72.2998 53.9528 72.3525 54.2225Z" fill="white"/>
<path fill-rule="evenodd" clip-rule="evenodd" d="M59.9969 69.9081C60.106 69.5455 60.08 69.1579 60.0529 68.7803L58.4798 46.8249C58.7985 47.1694 58.8582 47.6723 58.9018 48.139C59.5447 55.0077 60.0804 61.8864 60.5085 68.7717C60.559 69.5852 60.5899 70.4681 60.1245 71.138C59.8122 71.5875 59.3178 71.8738 58.8245 72.1123C57.0193 72.985 55.0298 73.406 53.0463 73.7041C47.6386 74.5168 42.1018 74.4678 36.7095 73.5595C35.6425 73.3798 34.5598 73.159 33.6191 72.6256C32.6783 72.0922 31.8879 71.1918 31.7469 70.1216C30.5731 61.2097 29.916 52.2301 29.7801 43.2426C29.7703 42.5915 29.7474 41.8916 29.3563 41.3702C29.1281 41.0659 28.8031 40.8622 28.4771 40.6579C28.1979 40.4829 27.9179 40.3074 27.6972 40.0678C26.8718 39.1718 27.1823 37.6418 28.0483 36.7848C28.9144 35.9278 30.1572 35.5876 31.351 35.3374C34.8388 34.6062 38.4288 34.3614 41.9839 34.6123C42.0888 34.8983 41.6575 35.0588 41.3521 35.0591C38.0122 35.0631 34.6726 35.3358 31.3765 35.8739C30.1686 36.071 28.8518 36.3723 28.1201 37.3509C31.4484 38.4451 35.0168 38.5075 38.521 38.5343C44.785 38.5822 51.0938 38.5448 57.244 37.3583C57.7915 37.2527 58.3852 37.1092 58.7247 36.668C59.0642 36.2267 58.9043 35.4095 58.3504 35.345C53.6109 34.7936 48.8226 34.6609 44.0598 34.949C43.692 34.9712 43.1504 34.7505 43.3304 34.4298C47.6992 34.2228 52.0825 34.3189 56.438 34.7172C57.6075 34.8241 58.8393 34.9772 59.7752 35.6851C60.7683 36.4364 61.2632 37.788 60.9893 39.0009C60.7153 40.2139 59.6871 41.2232 58.4669 41.477L58.4158 44.4619C58.0831 44.1197 58.1278 43.6026 58.1705 43.1088L58.1706 43.1085C58.1793 43.0079 58.1879 42.9083 58.1932 42.8114C58.2246 42.2383 57.8845 41.4911 57.3212 41.6082C48.407 43.4611 39.1188 43.5049 30.1875 41.7362C30.197 50.2667 31.0042 58.7741 31.8106 67.2666C31.9067 68.2795 32.0075 69.3109 32.406 70.2475C32.8045 71.184 33.5554 72.0278 34.544 72.2781C39.2428 73.4678 44.1198 73.9546 48.9617 73.7172C52.2704 73.5549 55.6473 73.0276 58.53 71.3997C59.1533 71.0477 59.7909 70.5923 59.9969 69.9081ZM27.8043 37.716C27.5105 38.7548 28.1161 39.8823 28.9921 40.516C29.868 41.1497 30.9616 41.3917 32.0257 41.5877C40.5878 43.1646 49.4417 42.7157 57.9864 41.0471C58.6375 40.92 59.3203 40.7698 59.8149 40.3286C60.3631 39.8395 60.5819 39.0601 60.5377 38.3278C60.4935 37.5955 60.2176 36.8978 59.9088 36.232C59.4668 37.3119 58.1387 37.6709 56.9859 37.8666C49.3387 39.1644 41.5353 39.3758 33.7884 38.9785C32.9076 38.9333 32.0253 38.8801 31.1549 38.7383C29.9987 38.55 28.8682 38.2051 27.8043 37.716ZM32.5627 66.6958C32.3944 66.5488 32.2007 66.3797 31.9886 66.4356C31.9068 66.9837 32.5517 67.3236 33.08 67.4763C33.7789 67.6783 34.5113 67.8634 35.226 67.729C35.4839 67.6806 35.7406 67.5868 35.936 67.4103C36.3744 67.0141 36.3887 66.3384 36.3686 65.7449C36.189 60.4226 35.8949 55.1041 35.4867 49.7946C35.4215 48.9458 35.3021 47.9961 34.6387 47.4697C34.3657 47.253 34.0297 47.1364 33.7007 47.0237L31.4092 46.2379C31.0997 46.1317 30.6957 46.0516 30.4978 46.314C30.3747 46.4771 30.3943 46.7039 30.4192 46.9073C31.1545 52.8911 31.5645 58.9156 31.6468 64.9446C31.6582 65.7763 32.384 66.4447 33.1633 66.7167C34.0101 67.0122 34.9316 66.9637 35.8261 66.9117C34.8613 67.5662 33.466 67.4819 32.5857 66.7158L32.5627 66.6958ZM35.7746 66.2014C35.1696 66.6205 34.3651 66.5656 33.6428 66.4342C33.215 66.3564 32.7585 66.2383 32.4813 65.9005C32.1954 65.5522 32.1737 65.062 32.1636 64.6099C32.0294 58.5627 31.5939 52.5224 30.8594 46.5192L33.218 47.3332C33.778 47.5265 34.3753 47.7471 34.7158 48.2353C35.0108 48.6581 35.0559 49.2026 35.0914 49.7184L35.5473 56.3515C35.7727 59.6306 35.9981 62.9221 35.7746 66.2014ZM45.8136 68.0943C45.0946 67.9015 44.3558 67.7825 43.6125 67.7397L43.5745 67.7375C43.0315 67.7065 42.4188 67.6715 42.0837 67.249C41.925 67.0491 41.8594 66.7933 41.8004 66.5452C40.6315 61.6277 40.5203 56.5303 40.4146 51.4778L40.3637 49.0444C40.3602 48.8759 40.3537 48.6974 40.2611 48.5562C40.1686 48.4151 39.9569 48.3378 39.8254 48.4439L40.0379 56.7875C40.0528 57.3712 40.0677 57.9551 40.1018 58.5381C40.2589 61.2191 40.8222 63.8581 41.3837 66.4848C41.5266 67.1529 41.8165 67.9626 42.4976 68.0412L45.9133 68.4351C45.9415 68.4384 45.9707 68.4416 45.9978 68.4332C46.1655 68.3818 45.983 68.1397 45.8136 68.0943ZM58.1864 64.0843C58.2201 65.0349 58.2285 66.0703 57.6518 66.8269C58.5049 66.2718 58.5665 65.0688 58.5364 64.0519L58.2732 55.1445C58.2043 52.8147 58.1312 50.4561 57.4873 48.2159C57.3701 47.8078 57.2234 47.3876 56.9154 47.0952C56.6073 46.8028 56.0922 46.6863 55.7546 46.9441C55.0808 47.4586 54.1856 47.4762 53.3221 47.4932H53.3221C53.1883 47.4958 53.0553 47.4984 52.924 47.5028C51.9452 47.536 50.8068 47.8206 50.4349 48.7261C50.2061 49.2831 50.3435 49.9124 50.4724 50.5025L50.4812 50.5427C51.1865 53.7762 51.2822 57.0908 51.3779 60.4074C51.4216 61.9206 51.4653 63.4341 51.5669 64.9406C51.6272 65.8356 51.7221 66.7709 52.2153 67.5204C52.313 67.6687 52.4297 67.8114 52.5869 67.8942C52.7359 67.9727 52.9085 67.9907 53.0763 68.0044C53.9827 68.078 54.9172 68.0598 55.7699 67.7437C56.6225 67.4277 57.387 66.7734 57.6516 65.9039C57.813 65.3732 57.7815 64.806 57.7506 64.2519V64.2519L57.7496 64.2343C57.5825 61.2291 57.5419 58.2169 57.6278 55.2083L57.6377 54.8683V54.8683C57.7048 52.608 57.7742 50.2708 56.8336 48.2238C56.7078 47.9501 56.5547 47.6728 56.3025 47.5079L56.2843 47.4962L56.2621 47.4821C56.1637 47.42 56.0571 47.3526 56.0489 47.2408C56.2477 47.0973 56.5416 47.1662 56.7218 47.3324C56.902 47.4987 56.994 47.7375 57.0732 47.9695C57.3829 48.8765 57.5873 49.8193 57.681 50.7731C57.7316 51.2882 57.75 51.8058 57.7684 52.323L58.1864 64.0843ZM50.9502 48.3608C51.3038 47.952 51.9047 47.8903 52.4444 47.8574L55.2993 47.6832C55.5856 47.6657 55.8975 47.6552 56.1307 47.8221C56.2904 47.9364 56.3873 48.1173 56.4696 48.2956C57.1309 49.7258 57.2021 51.3491 57.2347 52.9243C57.3256 57.3163 57.2017 61.7128 56.8635 66.0928C56.827 66.5649 56.4548 66.9579 56.0248 67.1568C55.5948 67.3557 55.1111 67.3964 54.6388 67.4343L53.32 67.54C53.157 67.553 52.9848 67.5644 52.8383 67.4919C52.6236 67.3857 52.529 67.1354 52.46 66.9062C51.7472 64.5375 51.7443 62.0543 51.7413 59.5652C51.7398 58.2626 51.7383 56.9583 51.635 55.6679C51.4866 53.8138 51.1267 51.9841 50.7676 50.159L50.7676 50.1589L50.7617 50.1287C50.643 49.5254 50.5478 48.8259 50.9502 48.3608ZM63.8925 69.4526C64.1395 69.6979 64.4566 69.8738 64.7974 69.9547C65.089 70.024 65.2765 70.3705 65.1723 70.6479C65.1805 70.6879 65.1173 70.7093 65.0839 70.6852C65.0552 70.6645 65.0439 70.6292 65.0329 70.5951L65.0276 70.5787C64.945 70.3344 64.6759 70.2121 64.4362 70.11C64.0966 69.9655 63.7498 69.7978 63.5238 69.5092C63.2978 69.2205 63.2327 68.7776 63.4719 68.4994C63.6285 68.3172 63.8751 68.2421 64.1077 68.1756C64.4177 68.087 64.7431 67.9976 65.059 68.0629L65.131 68.2046C65.2806 68.2959 65.4906 68.2765 65.6205 68.1596C65.765 68.0295 65.9852 68.0393 66.18 68.0571L67.2319 68.1527C67.2833 68.1574 67.3374 68.163 67.3793 68.1927C67.5037 68.2808 67.4042 68.4939 67.257 68.536C67.1511 68.5662 67.0411 68.5455 66.931 68.5248L66.9309 68.5247C66.8881 68.5167 66.8453 68.5086 66.8027 68.5035C66.7499 68.4972 66.6945 68.496 66.6454 68.5161C66.4983 68.5763 66.4889 68.7802 66.5348 68.9306C66.5427 68.9565 66.5515 68.9828 66.5604 69.0092C66.603 69.1359 66.6469 69.2666 66.5979 69.3873C66.4613 69.4482 66.3022 69.324 66.2611 69.1819C66.2299 69.0738 66.2429 68.9607 66.2559 68.8478V68.8478C66.26 68.8122 66.2641 68.7766 66.2668 68.7412C66.2781 68.5938 66.2542 68.4254 66.1334 68.3378C65.6448 68.5679 65.0931 68.666 64.5538 68.6186C64.5111 68.6149 64.4684 68.6103 64.4256 68.6056L64.4255 68.6056C64.2889 68.5908 64.1523 68.576 64.0161 68.5901C63.8373 68.6086 63.6534 68.6873 63.5624 68.8402C63.6324 68.8845 63.6844 68.9558 63.7047 69.0354L65.4256 69.3674C65.298 69.5062 65.0812 69.5078 64.8914 69.499L63.8925 69.4526ZM48.3937 64.9099C48.0456 60.7429 47.935 56.5563 48.0627 52.3769L48.0656 52.2823C48.0939 51.3665 48.1227 50.4369 47.8829 49.5534C47.6349 48.6394 47.0465 47.7642 46.1606 47.4188C45.6461 47.2183 45.0791 47.2105 44.5265 47.2054C43.0879 47.192 41.6366 47.1797 40.2271 47.4666C39.7601 47.5617 39.2494 47.7273 39.025 48.1458C38.8696 48.4355 38.8886 48.7832 38.9117 49.1109L40.1664 66.9344C40.1904 67.2766 40.2214 67.6385 40.4225 67.9172C40.6315 68.2066 40.9848 68.3512 41.3248 68.4633C42.7667 68.9386 44.3179 69.0827 45.8234 68.881C45.6863 68.6869 45.4212 68.6421 45.1845 68.6135L42.2434 68.2581C41.9472 68.2223 41.6418 68.1836 41.383 68.0357C40.7566 67.678 40.6297 66.8488 40.5712 66.1325C40.1017 60.3896 39.6322 54.6449 39.385 48.8883C39.3716 48.5765 39.3868 48.2068 39.6486 48.0347C39.7811 47.9476 39.9477 47.935 40.1062 47.925L44.4305 47.6521C44.9188 47.6213 45.4236 47.5927 45.8833 47.7593C46.5199 47.99 46.9758 48.5682 47.2356 49.1909C47.6321 50.141 47.6403 51.2013 47.6271 52.2301C47.6175 52.9706 47.6001 53.7119 47.5826 54.4535C47.5158 57.288 47.449 60.1255 47.8259 62.9314C47.8442 63.0674 47.8632 63.2046 47.8824 63.3425C48.1067 64.9535 48.346 66.6731 47.4753 68.0218L47.4607 68.0444C47.3956 68.1447 47.3276 68.2492 47.3245 68.3676C47.321 68.4949 47.4355 68.6329 47.5589 68.5991C47.6073 68.5858 47.6457 68.5499 47.6807 68.5141C48.5674 67.6072 48.499 66.1708 48.3937 64.9099ZM41.6912 36.8497C42.2548 36.8716 42.8533 37.0075 43.2414 37.4299C43.3168 37.5121 43.3842 37.6047 43.4514 37.697L43.4514 37.697L43.4514 37.697C43.5914 37.8894 43.7306 38.0806 43.9405 38.1741C43.6191 38.0587 43.2681 38.0324 42.9339 38.0985C42.8179 38.1215 42.7037 38.1553 42.5898 38.1892C42.4098 38.2426 42.2301 38.2959 42.0438 38.306L42.4158 37.9795C42.5489 37.8628 42.6995 37.7393 42.874 37.7452C42.9026 37.4487 42.6733 37.1666 42.3947 37.0889C42.116 37.0112 41.8113 37.1096 41.5821 37.2907C41.3528 37.4718 41.1891 37.7269 41.0533 37.9898C40.9992 38.0944 40.9254 38.2165 40.8106 38.2152C40.7155 38.1671 40.7193 38.0226 40.7655 37.9243C40.7789 37.8959 40.7946 37.8682 40.8104 37.8405L40.8104 37.8405L40.8104 37.8405C40.8493 37.7722 40.888 37.7041 40.8905 37.6264C40.8969 37.4281 40.6784 37.3152 40.4961 37.2524C40.3143 37.1898 40.094 37.1339 39.9475 37.2614C39.841 37.3541 39.8164 37.5106 39.7987 37.6533L39.7387 38.1379C39.4262 38.2476 39.0815 38.2575 38.7635 38.1658C39.1398 37.9314 39.5535 37.6422 39.6233 37.1944C40.2816 36.9403 40.9889 36.8224 41.6912 36.8497ZM25.2142 63.6743C25.2806 63.3359 25.2411 62.906 24.9294 62.7602C24.7135 62.6592 24.4794 62.743 24.2455 62.8267C24.1579 62.858 24.0703 62.8894 23.9838 62.911C23.4974 63.0325 22.9447 62.8041 22.6851 62.3742C22.4883 62.0485 21.9437 62.2187 21.763 62.5537C21.649 62.7652 21.6186 63.005 21.5882 63.2459C21.5704 63.3866 21.5526 63.5276 21.518 63.6637C21.4241 64.0327 21.0893 64.4124 20.7251 64.3042C20.435 64.218 20.0966 64.3329 19.9185 64.5781C19.7404 64.8232 19.7351 65.1813 19.9059 65.4316C20.1134 65.7357 20.4882 65.8289 20.8572 65.9206C20.9625 65.9468 21.0674 65.9729 21.1678 66.0037C21.3405 66.0567 21.5174 66.1369 21.6164 66.2884C21.7155 66.4399 21.6982 66.6783 21.5403 66.7665C21.2818 66.9109 21.3031 67.337 21.5372 67.5185C21.7714 67.6999 22.1179 67.666 22.3737 67.5167C22.6295 67.3675 22.8151 67.1248 22.9938 66.8884C23.2689 66.5246 23.8487 66.4436 24.2126 66.718C24.2107 66.4005 24.391 66.0883 24.6665 65.9318C24.9421 65.7753 25.3019 65.7808 25.5726 65.9457C25.8096 65.8497 25.7939 65.492 25.647 65.2822C25.5873 65.1969 25.5138 65.1215 25.4406 65.0463C25.3336 64.9365 25.227 64.8272 25.1647 64.6885C25.0476 64.4279 25.1129 64.135 25.1766 63.8496C25.1897 63.7907 25.2028 63.7322 25.2142 63.6743ZM24.3891 63.0903C24.579 63.0467 24.8054 63.0686 24.9273 63.2209C25.0856 63.4188 24.9813 63.6595 24.8724 63.911C24.7835 64.1162 24.6915 64.3285 24.7366 64.5306C24.7723 64.6905 24.8906 64.817 25.0041 64.9349L25.5418 65.4933C25.3141 65.7049 24.9994 65.6184 24.6765 65.5295C24.3861 65.4496 24.089 65.3679 23.8426 65.4996C23.6622 65.596 23.5586 65.7847 23.4588 65.9664C23.447 65.9879 23.4352 66.0094 23.4234 66.0305C23.1124 66.5864 22.657 67.0604 22.1144 67.3926C22.0453 67.4349 21.9688 67.4764 21.8881 67.4685C21.6912 67.4493 21.6416 67.1777 21.6911 66.9857C21.7494 66.7596 21.8683 66.5498 21.9861 66.3418C22.1562 66.0415 22.3242 65.745 22.3048 65.4082C22.0979 65.7514 21.6478 65.8822 21.2517 65.8261C20.8556 65.77 20.499 65.5634 20.1538 65.3608C19.9154 65.221 20.0007 64.8188 20.2385 64.6778C20.4762 64.5367 20.7744 64.5749 21.0478 64.6144C21.3212 64.654 21.6222 64.6849 21.8534 64.5334C21.7395 64.0257 21.7652 63.4871 21.9272 62.9926C21.9856 62.8142 22.0708 62.6303 22.2313 62.5335C22.3918 62.4367 22.6431 62.4762 22.7098 62.6517C22.8752 63.0869 23.3783 63.3632 23.8332 63.2687C23.9321 63.2482 24.0268 63.2127 24.1215 63.1773L24.1215 63.1772C24.2096 63.1443 24.2977 63.1113 24.3891 63.0903ZM24.2841 65.6935C24.3299 65.8514 24.3047 66.0285 24.2167 66.1672L24.2422 66.193C24.0901 66.2729 23.8957 66.2645 23.7509 66.172L23.9044 65.7765C24.0199 65.7138 24.1532 65.6847 24.2841 65.6935ZM66.1593 72.5398C65.6683 71.7496 65.3481 70.8571 65.2262 69.9386C65.5633 70.0246 65.7373 70.3943 65.793 70.7326C65.8086 70.8272 65.8188 70.9235 65.829 71.0199L65.829 71.0199C65.8554 71.268 65.8817 71.516 65.999 71.7342C66.1619 72.0371 66.6016 72.2342 66.8624 72.007C66.9271 71.9506 66.976 71.8733 67.0242 71.7973C67.1026 71.6733 67.179 71.5527 67.3185 71.5317C67.4916 71.5057 67.6326 71.6596 67.7372 71.7977L68.3795 72.6456C68.5477 72.5955 68.5588 72.4169 68.5705 72.2277C68.5777 72.1113 68.5851 71.9908 68.6296 71.8938C68.7323 71.6697 68.9857 71.6336 69.2497 71.5959C69.435 71.5695 69.6255 71.5423 69.7729 71.4489C70.0377 71.281 70.1087 70.9116 70.0103 70.6171C69.9118 70.3227 69.6817 70.0905 69.4433 69.8878C69.0979 69.5941 69.1586 69.1171 69.22 68.6345C69.2789 68.1718 69.3384 67.7039 69.0412 67.3877C68.6264 66.9464 67.8882 67.1813 67.3393 67.4452L67.1057 67.1779C67.5536 67.0145 67.6347 66.3605 67.3428 65.9883C67.0509 65.6162 66.5345 65.4887 66.0568 65.4865C65.9876 65.4862 65.9125 65.49 65.8592 65.5335C65.6935 65.6687 65.9274 65.9061 66.1273 65.9845L67.1036 66.3678C66.878 66.5207 66.5801 66.4301 66.291 66.3422C65.9773 66.2469 65.6739 66.1546 65.4843 66.3799C65.2714 66.633 65.4959 67.0272 65.7847 67.1922C65.8964 67.2559 66.0177 67.3039 66.1386 67.3517C66.3306 67.4276 66.5216 67.5032 66.6713 67.6408C66.4769 67.7382 66.2561 67.6671 66.0409 67.5978C65.9863 67.5802 65.9321 67.5628 65.8788 67.5482C65.6153 67.4763 65.2336 67.566 65.2369 67.8351C64.9662 67.536 65.0376 67.0768 65.1258 66.6858C65.2247 66.2477 65.3317 65.7936 65.6133 65.4406C65.8949 65.0876 66.4052 64.8684 66.8195 65.056C67.1727 65.2161 67.3381 65.5938 67.4957 65.9538L67.4958 65.9542C67.5201 66.0096 67.5441 66.0645 67.5687 66.1182C67.7527 66.521 68.1194 66.9475 68.5585 66.8565C68.9571 66.7738 69.3559 67.0705 69.5225 67.4363C69.6892 67.8021 69.6796 68.2188 69.667 68.6195C69.6544 69.0209 69.8368 69.389 70.0185 69.7559C70.0796 69.8793 70.1406 70.0025 70.1942 70.1268C70.407 70.621 70.4633 71.2851 70.0298 71.6107C69.8829 71.721 69.7041 71.7719 69.5248 71.8229C69.4422 71.8464 69.3596 71.87 69.28 71.8993C69.0273 71.9924 68.772 72.2001 68.7932 72.4648C68.796 72.4996 68.8036 72.5342 68.8112 72.5686L68.8112 72.5687C68.8241 72.627 68.8368 72.685 68.826 72.7431C68.7956 72.9071 68.5841 72.985 68.4214 72.9385C68.2587 72.892 68.1369 72.7623 68.0238 72.6381L67.3061 71.85C67.1057 72.2736 66.6337 72.5575 66.1593 72.5398ZM66.0504 47.0737C65.5487 46.5289 64.9338 46.0323 64.2019 45.9217C64.1247 45.9101 64.0466 45.9028 63.9686 45.8955C63.8113 45.8808 63.6541 45.8661 63.505 45.8157C63.3056 45.7482 63.1325 45.6205 62.9721 45.4841C62.7548 45.2993 62.5455 45.0909 62.3357 44.8821C61.7184 44.2677 61.0973 43.6494 60.2592 43.6169C59.3767 43.5826 58.5481 44.3752 58.5421 45.2592C58.5371 46.0009 59.0171 46.6467 59.4747 47.2301L67.4326 57.377L72.3665 63.6682C73.0036 64.4805 73.8409 65.3796 74.8627 65.238C75.7811 65.1107 76.398 64.0319 76.1362 63.1415C76.0357 62.7993 75.8375 62.5007 75.639 62.2014C75.4658 61.9404 75.2924 61.6789 75.1831 61.3878C75.0089 60.9239 75.0105 60.4258 75.0121 59.9254C75.0132 59.5424 75.0145 59.1581 74.9369 58.7869C74.7651 57.9645 74.2236 57.2739 73.6728 56.64C73.3747 56.297 73.0587 55.789 73.3437 55.4351C73.6828 55.0138 73.5136 54.3919 73.2994 53.8951C72.6119 52.3006 71.6138 50.841 70.3776 49.6225C69.8483 49.1007 69.0781 48.5929 68.4159 48.9298C68.1368 49.0718 67.8031 48.8974 67.5599 48.7C67.1713 48.3845 66.8476 48.0014 66.5237 47.618C66.3684 47.4341 66.213 47.2502 66.0504 47.0737ZM59.3342 44.4037C59.6616 44.0833 60.1562 43.9449 60.6021 44.0488C61.1117 44.1676 61.5062 44.5625 61.8507 44.9567C62.7597 45.9969 63.5264 47.1507 64.2915 48.3021C64.377 48.4307 64.4624 48.5592 64.548 48.6876C67.766 53.5133 71.2855 58.1375 75.0793 62.5241C75.4504 62.9532 75.8506 63.4825 75.7056 64.0313C75.5414 64.6526 74.723 64.8937 74.1198 64.6736C73.5166 64.4536 73.0877 63.9256 72.6903 63.4208L59.5666 46.7554C59.3059 46.4243 59.0374 46.0772 58.9512 45.6645C58.8575 45.216 59.0069 44.724 59.3342 44.4037ZM69.9724 54.1329C69.7082 53.7914 69.4252 53.4553 69.0662 53.2155C68.8929 53.0998 68.6975 53 68.5022 52.9003C68.0023 52.6451 67.5036 52.3905 67.3814 51.871C67.3426 51.706 67.3514 51.5362 67.3601 51.366C67.367 51.2331 67.3738 51.1 67.3581 50.9687C67.3323 50.7531 67.2466 50.5495 67.1532 50.3535C66.4446 48.8663 65.2273 47.6279 63.7533 46.8948C63.509 46.7733 63.6605 46.3494 63.9282 46.2968C64.1959 46.2441 64.4511 46.4178 64.6643 46.5883C66.7717 48.2741 68.3121 50.5016 69.8571 52.7359C70.7999 54.0994 71.7444 55.4653 72.8207 56.7123C72.9242 56.8322 73.0292 56.9514 73.1344 57.0709C73.7199 57.7358 74.31 58.406 74.6614 59.2147C74.1997 59.2972 73.7997 59.6601 73.6724 60.1121C72.9031 59.387 72.4383 58.4203 71.9761 57.4592C71.8575 57.2126 71.7392 56.9664 71.6159 56.7248C71.1502 55.8122 70.5992 54.9432 69.9724 54.1329ZM72.1586 54.9896C72.1104 55.0369 72.0503 55.0779 71.9828 55.0806C71.8677 55.0853 71.7805 54.9822 71.7125 54.889L68.6293 50.6584C68.5107 50.4957 68.5934 50.2426 68.7662 50.1393C68.9389 50.0359 69.1649 50.0603 69.3442 50.1518C69.5234 50.2433 69.6655 50.3925 69.8015 50.541C70.6301 51.4459 71.3722 52.43 72.0146 53.4756C72.1585 53.7097 72.2996 53.9529 72.3524 54.2226C72.4051 54.4923 72.3547 54.7972 72.1586 54.9896ZM72.6101 54.5751C72.6655 54.3578 72.5717 54.1329 72.4747 53.9307C71.7769 52.4763 70.7974 51.1581 69.6066 50.0707C69.414 49.8947 69.163 49.7127 68.9152 49.7941C68.8237 49.8242 68.7494 49.8863 68.6746 49.9488C68.6311 49.9851 68.5874 50.0216 68.5402 50.0519C68.4118 50.1342 68.2079 50.1511 68.1349 50.0171C68.0785 49.9135 68.1375 49.7836 68.2161 49.6956C68.4872 49.3925 68.9642 49.3509 69.3455 49.4917C69.7268 49.6325 70.0332 49.9201 70.3209 50.2074C71.3573 51.2425 72.324 52.4083 72.7768 53.802C72.979 54.4242 73.043 55.1876 72.5886 55.6579C72.5509 55.6969 72.5087 55.734 72.4574 55.752C72.2951 55.8088 72.1256 55.6356 72.1217 55.4635C72.1178 55.2915 72.2239 55.1377 72.3341 55.0057C72.3459 54.9916 72.3578 54.9775 72.3698 54.9634C72.4698 54.8451 72.5722 54.7241 72.6101 54.5751ZM65.919 48.8179C66.3386 49.4288 66.7034 50.0774 67.0075 50.7534C67.0493 50.8462 67.0877 50.9621 67.0256 51.0427C66.9805 51.1013 66.8869 51.1144 66.8275 51.0704C65.9527 50.0071 65.1644 48.8724 64.473 47.6814C64.535 47.7038 64.6259 47.6708 64.6201 47.6051C65.1766 47.832 65.5785 48.3224 65.919 48.8179ZM68.9843 53.9739C68.9073 53.8622 68.842 53.6837 68.9583 53.6141C69.471 53.8462 69.8219 54.3249 70.1415 54.7885C70.6075 55.4644 71.0579 56.1511 71.4921 56.8479C71.5961 57.0148 71.6858 57.2649 71.5261 57.3796C71.2538 57.2562 71.0707 56.9986 70.9008 56.7523L68.9843 53.9739ZM74.0801 60.3099C74.0391 60.2921 74.0105 60.2538 73.9912 60.2135C73.8749 59.9701 74.1289 59.6446 74.393 59.6986C74.4043 59.9356 74.3383 60.1757 74.2074 60.3736C74.194 60.3422 74.1595 60.3331 74.1246 60.3239C74.1092 60.3199 74.0938 60.3159 74.0801 60.3099ZM74.6778 60.8807C74.5971 60.9685 74.4403 60.9683 74.3599 60.8803C74.2747 60.6573 74.3776 60.3788 74.5872 60.2648L74.6778 60.8807Z" fill="#333333"/>
</svg>
