<svg width="100" height="100" viewBox="0 0 100 100" fill="none" xmlns="http://www.w3.org/2000/svg">
<path fill-rule="evenodd" clip-rule="evenodd" d="M84.012 80.2994C82.0096 62.8168 93.3196 27.4723 75.9318 18.0181C48.9595 3.35252 9.63452 23.8362 12.3316 56.9121C14.2387 80.2994 86.2765 100.07 84.012 80.2994Z" fill="#C0F0FF"/>
<path d="M57.7963 26.1903C57.7293 25.9941 57.6522 25.8144 57.6269 25.6278C57.5749 25.2436 57.5329 24.8564 57.5185 24.4692C57.4884 23.6659 57.4787 22.7284 57.4615 21.9246C57.4589 21.802 57.4347 21.6767 57.6321 21.6698C57.8299 21.6628 58.7733 21.0608 58.7733 21.5179C58.7733 22.4665 58.9056 23.9184 58.9885 24.8505C59.0153 25.1517 59.1403 25.3971 59.1468 25.7468C59.1578 26.3363 58.1169 26.1834 57.7963 26.1903Z" fill="white"/>
<path fill-rule="evenodd" clip-rule="evenodd" d="M44.6427 17.6239C44.4357 17.6418 44.2289 17.6728 44.0217 17.6755C42.7369 17.6918 41.4519 17.7004 40.1671 17.7165C40.0901 17.7175 39.7465 17.7185 39.6695 17.7195C39.3325 17.724 38.9954 17.7291 38.6584 17.735C38.5008 17.7378 38.6099 17.7426 38.4523 17.7487C37.892 17.7706 37.3319 17.81 36.7717 17.8387C36.4574 17.8548 36.1428 17.8674 35.8292 17.8933C35.0098 17.9609 30.9911 18.1703 30.1717 18.2383C29.9784 18.2543 29.8673 18.3024 29.8834 18.5405C29.9194 19.0768 29.9332 28.9485 29.9375 29.4862C29.9388 29.644 29.9826 29.6788 30.1291 29.6664C30.623 29.6245 34.3177 29.4587 34.8121 29.4236C35.3244 29.3872 35.8364 29.3471 36.349 29.3174C37.0486 29.2769 37.7488 29.2463 38.4485 29.2073C38.549 29.2017 38.6477 29.169 38.7481 29.1561C39.1813 29.1008 39.6142 29.0418 40.0484 28.9964C40.4705 28.9523 40.8937 28.9159 41.3172 28.8888C42.2327 28.8304 43.1482 28.7684 44.0647 28.73C44.8874 28.6955 45.7114 28.6912 46.5348 28.6728C47.3046 28.6555 48.0744 28.6359 48.8443 28.6196C49.757 28.6003 50.6698 28.5812 51.5826 28.5662C52.808 28.5461 54.0335 28.5328 55.2589 28.5108C55.868 28.4999 56.4769 28.4773 57.0859 28.4581C57.6056 28.4417 58.1252 28.4161 58.645 28.4062C59.7989 28.384 60.9529 28.3678 62.1069 28.3515C63.4752 28.3323 64.8438 28.324 66.2119 28.2947C67.1712 28.2741 69.5967 28.2277 70.5554 28.1854C70.6022 28.1834 70.6842 28.1101 70.685 28.0687C70.6944 27.6133 70.6907 17.8243 70.6911 17.3686C70.6915 17.1756 70.5797 17.0666 70.4057 17.0379C70.2013 17.0042 69.9926 16.9889 69.7852 16.9823C69.0781 16.9599 66.9039 16.9274 66.1967 16.9301C63.6312 16.94 61.0657 16.9599 58.5003 16.9817C58.2146 16.9842 57.929 16.9865 57.6433 16.9891C56.623 16.9983 55.6027 17.0105 54.5829 17.0403C53.952 17.0587 53.3232 17.1458 52.6928 17.1939C51.9292 17.2522 51.165 17.3027 50.401 17.3556C50.1227 17.3749 49.8441 17.3912 49.5656 17.4096C48.757 17.4629 47.949 17.5308 47.1396 17.5664C46.3259 17.6022 45.5108 17.6061 44.6427 17.6239Z" fill="white"/>
<path fill-rule="evenodd" clip-rule="evenodd" d="M28.5327 13.5229C28.1778 13.4885 27.8262 13.4194 27.4732 13.3648C27.4492 13.3611 27.4266 13.3484 27.4033 13.3398C27.4255 13.3305 27.447 13.3187 27.4701 13.3127C27.4868 13.3084 27.5056 13.3122 27.5235 13.3118C28.2845 13.294 29.0457 13.2816 29.8065 13.2568C30.7212 13.2271 31.6355 13.1879 32.5499 13.1504C32.9001 13.1361 33.2498 13.1116 33.6 13.0983C34.1554 13.0772 34.7111 13.063 35.2665 13.0434C35.7149 13.0276 36.1631 13.007 36.6115 12.9904C37.5974 12.9539 38.5834 12.9198 39.5693 12.8824C39.9462 12.8681 40.3228 12.843 40.6998 12.8303C41.3356 12.8089 41.9717 12.7954 42.6076 12.7751C43.0738 12.7603 43.5399 12.7387 44.0061 12.7225C44.5616 12.7031 45.1172 12.6879 45.6726 12.668C46.1032 12.6526 46.5334 12.6289 46.964 12.6158C47.6534 12.5946 48.3431 12.5806 49.0326 12.5608C49.5703 12.5453 50.1079 12.5247 50.6456 12.5079C51.2457 12.4891 51.8459 12.4719 52.4461 12.4541C53.0463 12.4362 53.6465 12.4179 54.2467 12.4006C54.8827 12.3822 55.5186 12.365 56.1546 12.3467C56.7668 12.3292 57.3789 12.3102 57.9912 12.2934C58.6807 12.2746 59.3703 12.2576 60.0598 12.2396C60.7404 12.2218 61.421 12.2035 62.1017 12.1861C62.818 12.1678 63.5344 12.1504 64.2507 12.1323C64.9492 12.1147 65.648 12.1029 66.3461 12.0767C66.8791 12.0568 67.4112 12.0163 67.9439 11.9904C68.0228 11.9866 68.1033 12.0245 68.1828 12.0234C69.2834 12.0081 70.384 11.9911 71.4845 11.971C72.3082 11.9559 73.1317 11.9351 73.9553 11.9181C74.8593 11.8994 75.7632 11.876 76.6673 11.8663C77.1364 11.8621 77.4448 12.0737 77.5553 12.5163C77.6104 12.7368 77.5815 12.9794 77.5832 13.212C77.5874 13.8099 77.5943 14.408 77.5866 15.0058C77.5819 15.3782 77.5524 15.7503 77.5347 16.1225C77.5314 16.1933 77.5306 16.2643 77.5306 16.3353C77.5303 17.1157 77.5365 17.8962 77.529 18.6766C77.516 20.0452 77.4958 21.4139 77.4764 22.7825C77.4603 23.9188 77.4409 25.0551 77.4232 26.1914C77.4052 27.3456 77.3875 28.4998 77.3695 29.654C77.3518 30.7903 77.3363 31.9267 77.315 33.0629C77.3023 33.7347 77.2756 34.4062 77.2639 35.078C77.2557 35.5456 77.2673 36.0135 77.2613 36.4811C77.2465 37.6353 77.2292 38.7895 77.2077 39.9437C77.1954 40.6065 77.1682 41.2691 77.1567 41.9319C77.1484 42.4084 77.1618 42.8853 77.1535 43.3618C77.1421 44.0157 77.1142 44.6694 77.1032 45.3233C77.0947 45.8266 77.1084 46.3303 77.0997 46.8336C77.0894 47.4339 77.0602 48.0339 77.0496 48.6342C77.041 49.1196 77.0529 49.6054 77.0469 50.0909C77.0321 51.2719 77.0131 52.4529 76.9939 53.6339C76.9775 54.6451 76.9603 55.6564 76.94 56.6675C76.9253 57.4018 76.8997 58.1359 76.8887 58.8703C76.8803 59.4361 76.894 60.0023 76.8851 60.5682C76.8759 61.1507 76.8446 61.7328 76.8353 62.3152C76.8264 62.8721 76.8404 63.4294 76.8314 63.9863C76.8229 64.5152 76.7902 65.0437 76.7818 65.5725C76.7728 66.1384 76.7854 66.7046 76.7786 67.2705C76.7646 68.4426 76.7449 69.6146 76.7259 70.7867C76.7093 71.8158 76.7097 72.8457 76.6671 73.8737C76.6261 74.8624 76.8539 75.7793 77.3455 76.6234C77.8463 77.4832 78.383 78.3225 78.9153 79.1636C79.4414 79.9951 79.9032 80.8607 80.1478 81.815C80.3224 82.4964 80.348 83.2037 80.152 83.8935C80.0849 84.1293 79.6765 85.7562 80.024 86.1789C80.4701 86.7216 81.034 86.9651 81.7286 86.9809C82.4056 86.9964 83.0484 86.8316 83.6973 86.6814C84.4862 86.4988 85.2783 86.3669 86.0726 86.6551C86.4678 86.7985 86.8242 87.0011 87.0579 87.367C87.0935 87.4227 87.1799 87.5163 86.9912 87.5173C86.5339 87.5198 86.0767 87.5481 85.6195 87.5659C84.705 87.6017 83.7906 87.6384 82.876 87.6728C82.3474 87.6927 81.8186 87.7097 81.2899 87.7266C80.6987 87.7454 80.1074 87.7637 79.5161 87.7801C78.8266 87.7992 78.137 87.8178 77.4474 87.8336C76.5882 87.8532 75.7288 87.8713 74.8695 87.8872C73.8136 87.9068 72.7577 87.9256 71.7018 87.9407C70.2974 87.9608 68.893 87.9749 67.4887 87.9956C66.531 88.0097 65.5734 88.031 64.6158 88.048C64.452 88.0509 64.288 88.0472 64.1241 88.0486C62.1479 88.0662 60.1716 88.0843 58.1954 88.1019C58.0226 88.1034 57.8497 88.1008 57.6769 88.1023C55.656 88.1198 53.6351 88.1379 51.6142 88.1555C51.4324 88.1571 51.2506 88.1543 51.0688 88.1559C49.0658 88.1734 47.0627 88.1915 45.0597 88.2091C44.8869 88.2106 44.714 88.208 44.5412 88.2095C42.5203 88.227 40.4994 88.2451 38.4785 88.2627C38.3146 88.2641 38.1506 88.2617 37.9868 88.2631C35.9658 88.2807 33.9449 88.2988 31.924 88.3163C31.7512 88.3178 31.5783 88.3152 31.4055 88.3167C29.3846 88.3343 27.3637 88.3523 25.3428 88.3699C25.1878 88.3713 25.0328 88.369 24.8779 88.3703C22.8212 88.3879 20.7645 88.4057 18.7079 88.4248C18.6751 88.4251 18.6424 88.4416 18.6096 88.464C18.6096 88.4774 18.5828 88.4774 18.5694 88.4774C18.4972 88.4595 18.4385 88.4268 18.3795 88.4261C17.9774 88.4216 17.5753 88.4246 17.1732 88.4224C17.1348 88.4222 17.0965 88.4037 17.0581 88.3937C17.0906 88.3858 17.1233 88.3787 17.1555 88.37C18.0154 88.1378 18.8693 87.8789 19.7375 87.6835C20.2296 87.5727 20.7443 87.5553 21.2504 87.5156C21.6796 87.4819 22.1109 87.4708 22.5415 87.4617C22.7047 87.4582 22.6911 87.4217 22.6482 87.2798C22.4677 86.6826 22.26 86.0859 22.1644 85.4732C22.0849 84.9642 22.1282 84.432 22.1548 83.9121C22.1739 83.5393 22.2283 83.1633 22.316 82.8006C22.4171 82.383 22.5503 81.97 22.7081 81.5702C23.1243 80.5152 23.8646 79.6912 24.6298 78.8775C25.0872 78.3912 25.5021 77.8569 25.8767 77.304C26.1032 76.9696 26.2251 76.5618 26.2234 76.1368C26.2207 75.4666 26.2292 74.7964 26.2212 74.1263C26.2092 73.1329 26.1883 72.1395 26.1686 71.1462C26.1529 70.3494 26.1283 69.5527 26.1165 68.7558C26.0949 67.2889 26.0879 65.8217 26.0585 64.355C26.0429 63.5747 25.9754 62.7954 25.9641 62.0152C25.9544 61.3523 26.013 60.6883 26.0031 60.0254C25.9892 59.0831 25.9383 58.1414 25.9088 57.1992C25.9055 57.0918 25.9532 56.9831 25.9524 56.8752C25.9375 54.8185 25.9106 52.7618 25.9031 50.7051C25.8941 48.218 25.9079 45.7308 25.8989 43.2437C25.8915 41.2138 25.8507 39.1839 25.8513 37.154C25.852 34.9275 25.8866 32.7011 25.8997 30.4746C25.9071 29.2117 25.8942 27.9486 25.9032 26.6857C25.9101 25.7101 25.938 24.7347 25.9539 23.7592C25.9587 23.4613 25.9515 23.1633 25.9551 22.8654C25.9718 21.4878 25.9932 20.1102 26.007 18.7326C26.0139 18.0415 26.0013 17.3503 26.0103 16.6593C26.0187 16.0143 26.0441 15.3695 26.0616 14.7246C26.0637 14.6469 26.0628 14.5691 26.0633 14.4913C26.0807 14.5775 26.1038 14.6629 26.1145 14.7499C26.1878 15.3456 26.2605 15.9413 26.3288 16.5375C26.3535 16.7528 26.3681 16.9692 26.383 17.1854C26.4203 17.7245 26.4546 18.2638 26.4909 18.803C26.5441 19.5939 29.7754 20.3198 29.7825 20.2334C29.8112 20.3162 29.8417 20.3984 29.8681 20.4819C30.1074 21.2389 30.2574 22.0121 30.3581 22.8009C30.5011 23.9204 30.5128 25.0419 30.5127 26.1664C30.5113 40.7849 30.5125 55.4033 30.5049 70.0218C30.5048 70.258 30.5774 70.3518 30.7909 70.4135C31.4917 70.6161 32.2123 70.6895 32.927 70.6138C34.2787 70.4708 36.7023 69.9955 37.7665 69.1116C38.6166 68.4055 39.2218 67.5416 39.5815 66.5137C39.7222 66.1118 39.7543 65.6675 39.8019 65.2387C39.8454 64.8469 39.8843 64.4465 39.8517 64.056C39.7964 63.393 39.6901 62.7339 39.5925 62.075C39.513 61.5388 39.3994 61.0075 39.3284 60.4703C39.2249 59.6871 39.1241 58.9024 39.0635 58.1151C39.0127 57.4549 38.9643 56.7858 39.015 56.1283C39.1185 54.7851 39.3282 53.4543 39.6989 52.1535C40.0952 50.763 40.6474 49.436 41.3343 48.1669C41.8454 47.2228 42.4309 46.3227 43.1348 45.5093C43.6803 44.8789 44.2474 44.2662 44.8225 43.6625C45.0675 43.4053 45.3625 43.1966 45.6261 42.9562C46.628 42.0426 47.3616 40.9163 48.1187 39.8079C48.7096 38.9428 48.072 38.0538 48.7209 37.2339C49.5755 36.1541 50.6241 35.2982 51.9865 34.9217C52.4875 34.7832 53.003 34.6945 53.5148 34.598C54.6013 34.3931 55.7025 34.4055 56.7983 34.4442C57.9369 34.4844 59.0191 34.7714 59.9913 35.3998C60.7925 35.9176 61.374 36.6438 61.8695 37.4355C62.4486 38.3608 62.996 39.3068 63.5342 40.2568C64.2263 41.4783 64.8981 42.7113 65.5737 43.942C65.937 44.6039 66.295 45.2688 66.6468 45.9368C67.3768 47.3229 70.1616 52.7819 70.8291 54.1227C70.8541 54.1728 70.8847 54.2201 70.9127 54.2687C70.9383 54.2078 70.983 54.1481 70.9867 54.0859C71.0271 53.3951 71.0616 52.7039 71.0967 52.0128C71.1331 51.2949 71.169 50.577 71.2039 49.859C71.2404 49.1054 71.2767 48.3518 71.311 47.5981C71.3481 46.782 71.3841 45.9658 71.4181 45.1495C71.4555 44.253 71.4903 43.3563 71.5256 42.4597C71.5442 41.9846 71.5622 41.5095 71.5791 41.0343C71.5979 40.5056 71.6149 39.9769 71.633 39.4482C71.6507 38.9284 71.67 38.4086 71.6862 37.8888C71.7055 37.2707 71.7225 36.6526 71.7401 36.0345C71.7582 35.3986 71.7772 34.7627 71.7935 34.1267C71.8127 33.3746 71.8305 32.6225 71.8471 31.8703C71.8661 31.011 71.8853 30.1517 71.9005 29.2923C71.9205 28.1649 71.9343 27.0375 71.9556 25.9101C71.9684 25.2294 72 24.5489 72.006 23.8682C72.0148 22.8644 72.0018 21.8605 72.0106 20.8567C72.0161 20.2117 72.0451 19.5669 72.0601 18.922C72.0616 18.8572 72.0386 18.7919 72.0269 18.7268C71.972 18.7666 71.9088 18.7988 71.8633 18.8475C71.5146 19.2203 71.0741 19.3534 70.5779 19.3725C69.815 19.4019 69.095 19.1769 68.3632 19.0211C67.6623 18.8719 66.9579 18.7049 66.2394 18.7907C65.8125 18.8417 65.3891 18.9694 64.9795 19.1079C64.3187 19.3311 63.6898 19.2634 63.064 18.9955C62.4568 18.7356 61.8553 18.4598 61.2365 18.2307C60.6796 18.0244 60.0887 18.0264 59.5487 18.262C59.2851 18.3769 59.0205 18.6235 58.8882 18.8789C58.5788 19.4762 58.1118 19.754 57.4703 19.8595C56.624 19.9987 55.8779 19.7142 55.1255 19.4053C54.5145 19.1545 53.9098 18.8721 53.2767 18.6954C52.4316 18.4596 51.6551 18.7154 50.9546 19.2195C50.5143 19.5363 50.0993 19.9009 49.6252 20.1553C48.9895 20.4964 48.0628 20.5455 47.5611 19.9825C47.4733 19.884 47.384 19.7659 47.352 19.6422C47.2255 19.1526 46.9084 19.0471 46.4681 18.9963C45.8341 18.923 45.3684 19.2641 44.9085 19.6322C44.4828 19.9729 44.0859 20.352 43.5073 20.4585C43.0479 20.5431 42.6162 20.483 42.2089 20.3079C41.5183 20.0111 40.8408 19.682 40.1687 19.3447C39.5675 19.043 38.9252 18.8928 38.28 19.016C37.8644 19.0953 37.4731 19.3538 37.0974 19.5766C36.6416 19.8469 36.2344 20.2026 35.7692 20.4527C34.969 20.883 34.2519 20.8926 33.2269 20.7247C32.202 20.5567 29.7293 18.9548 29.6055 18.7907C29.5883 18.7678 29.2063 13.5882 28.5327 13.5229Z" fill="white"/>
<path fill-rule="evenodd" clip-rule="evenodd" d="M44.06 67.9639C43.8394 66.3496 43.7787 64.8682 43.878 63.5198C43.9773 62.1714 44.2833 60.1874 44.7961 57.5679C43.8155 60.1519 43.2328 62.1359 43.0478 63.5198C42.8628 64.9037 42.9701 66.5502 43.3697 68.4594L44.06 67.9639Z" fill="#C0F0FF"/>
<path fill-rule="evenodd" clip-rule="evenodd" d="M58.481 48.523C59.4528 48.4302 60.0673 48.6238 60.2522 49.1741C60.5649 50.1042 58.2877 51.3478 57.4843 51.273C57.2026 51.0146 59.9995 50.3167 59.7467 49.344C59.6824 49.0965 59.2845 48.982 58.5317 49.0539C58.3851 49.0679 58.2549 48.9604 58.2409 48.8138C58.2269 48.6672 58.3344 48.537 58.481 48.523Z" fill="#333333"/>
<path fill-rule="evenodd" clip-rule="evenodd" d="M63.2745 73.388C63.2031 73.2183 63.3044 72.1655 63.8629 71.157C64.7878 69.4868 68.8112 68.9332 70.3175 67.4132C72.2283 65.4852 71.4202 63.2219 71.3165 63.0107C71.2917 62.9601 71.2821 62.902 71.2655 62.8474C71.3097 62.8762 71.3616 62.8977 71.397 62.9349C72.0202 63.5885 72.4325 64.3633 72.623 65.239C72.8272 66.1774 72.8932 67.1269 72.4316 68.0187C72.3304 68.2142 72.1242 68.3716 71.9357 68.5025C71.3669 68.8973 68.5789 69.9901 67.7991 70.1465C67.0468 70.2974 66.3945 70.6453 65.7022 70.9185C65.2769 71.0863 65.0455 71.4765 64.7122 71.7475C64.3605 72.0335 64.2593 72.3837 64.2907 72.8063C64.3 72.9306 64.2872 73.0565 64.2929 73.1813C64.3301 73.9841 63.4938 73.9096 63.2745 73.388Z" fill="#C0F0FF"/>
<path fill-rule="evenodd" clip-rule="evenodd" d="M47.2236 51.0667C47.6066 51.0667 47.7493 50.7682 47.5462 50.4001C47.3474 50.0319 46.9583 49.7334 46.6732 49.7334C46.388 49.7334 46.2354 50.0319 46.3363 50.4001C46.4415 50.7682 46.8406 51.0667 47.2236 51.0667Z" fill="#F2994A"/>
<path fill-rule="evenodd" clip-rule="evenodd" d="M54.6904 52.8001C55.0734 52.8001 55.2161 52.5016 55.013 52.1335C54.8142 51.7653 54.4252 51.4668 54.14 51.4668C53.8548 51.4668 53.7022 51.7653 53.8031 52.1335C53.9083 52.5016 54.3074 52.8001 54.6904 52.8001Z" fill="#F2994A"/>
<path fill-rule="evenodd" clip-rule="evenodd" d="M77.2006 11.733C77.6696 11.7288 77.978 11.9405 78.0886 12.3831C78.1437 12.6036 78.1148 12.8461 78.1164 13.0787C78.1206 13.6767 78.1275 14.2747 78.1199 14.8726C78.1152 15.245 78.0856 15.617 78.068 15.9893C78.0646 16.0601 78.0638 16.1311 78.0638 16.202C78.0635 16.9825 78.0697 17.763 78.0623 18.5433C78.0492 19.912 78.0291 21.2806 78.0097 22.6492C77.9936 23.7856 77.9742 24.9219 77.9564 26.0582C77.9384 27.2124 77.9208 28.3666 77.9028 29.5208C77.885 30.6571 77.8696 31.7935 77.8482 32.9297C77.8356 33.6015 77.8089 34.273 77.7971 34.9448C77.789 35.4124 77.8006 35.8802 77.7946 36.3479C77.7797 37.5021 77.7624 38.6563 77.741 39.8104C77.7286 40.4733 77.7014 41.1358 77.69 41.7987C77.6817 42.2752 77.695 42.7521 77.6867 43.2286C77.6753 43.8825 77.6474 44.5361 77.6364 45.19C77.628 45.6933 77.6416 46.197 77.633 46.7003C77.6226 47.3006 77.5935 47.9007 77.5829 48.501C77.5743 48.9864 77.5862 49.4722 77.5801 49.9577C77.5653 51.1387 77.5464 52.3197 77.5272 53.5006C77.5108 54.5119 77.4936 55.5231 77.4733 56.5343C77.4585 57.2686 77.4329 58.0027 77.422 58.737C77.4135 59.3029 77.4273 59.8691 77.4184 60.435C77.4092 61.0174 77.3779 61.5995 77.3686 62.182C77.3597 62.7389 77.3736 63.2962 77.3647 63.8531C77.3561 64.382 77.3235 64.9104 77.3151 65.4393C77.3061 66.0052 77.3187 66.5713 77.3119 67.1372C77.2979 68.3093 77.2782 69.4814 77.2592 70.6534C77.2425 71.6825 77.2429 72.7124 77.2003 73.7405C77.1593 74.7292 77.3871 75.6461 77.8788 76.4902C78.3796 77.35 78.9163 78.1892 79.4485 79.0304C79.9747 79.8619 80.4364 80.7275 80.681 81.6818C80.8557 82.3632 80.8812 83.0704 80.6852 83.7602C80.6182 83.996 80.2098 85.623 80.5573 86.0457C81.0033 86.5883 81.5673 86.8318 82.2619 86.8477C82.9389 86.8631 83.5817 86.6984 84.2305 86.5482C85.0195 86.3655 85.8115 86.2337 86.6059 86.5219C87.0011 86.6653 87.3575 86.8679 87.5911 87.2337C87.6267 87.2895 87.7132 87.3831 87.5245 87.3841C87.0671 87.3866 86.61 87.4148 86.1527 87.4327C85.2383 87.4684 84.3238 87.5051 83.4093 87.5396C82.8807 87.5594 82.3519 87.5765 81.8232 87.5933C81.2319 87.6121 80.6407 87.6304 80.0494 87.6468C79.3598 87.666 78.6703 87.6846 77.9807 87.7003C77.1214 87.72 76.2621 87.7381 75.4027 87.754C74.3469 87.7735 73.291 87.7923 72.235 87.8074C70.8307 87.8275 69.4263 87.8417 68.0219 87.8623C67.0643 87.8764 66.1067 87.8978 65.1491 87.9148C64.9852 87.9177 64.8213 87.914 64.6574 87.9154C62.6811 87.933 60.7049 87.9511 58.7287 87.9686C58.5558 87.9702 58.383 87.9675 58.2102 87.969C56.1892 87.9866 54.1683 88.0047 52.1474 88.0222L51.6021 88.0227C49.599 88.0402 47.596 88.0583 45.593 88.0759C45.4201 88.0774 45.2473 88.0748 45.0745 88.0762C43.0535 88.0938 41.0326 88.1119 39.0117 88.1295C38.8478 88.1309 38.6839 88.1284 38.52 88.1299C36.4991 88.1474 34.4782 88.1655 32.4573 88.1831C32.2844 88.1846 32.1116 88.182 31.9388 88.1835C29.9178 88.201 27.8969 88.2191 25.876 88.2367C25.7211 88.2381 25.5661 88.2357 25.4111 88.2371C23.3545 88.2547 21.2978 88.2725 19.2412 88.2916C19.2083 88.2919 19.1756 88.3084 19.1429 88.3307C19.1429 88.3441 19.1161 88.3441 19.1027 88.3441C19.0304 88.3262 18.9717 88.2936 18.9127 88.2929C18.5107 88.2883 18.1085 88.2913 17.7064 88.2892C17.668 88.289 17.6297 88.2705 17.5914 88.2605C17.6238 88.2526 17.6565 88.2455 17.6888 88.2368C18.5487 88.0046 19.4026 87.7457 20.2707 87.5503C20.7629 87.4395 21.2776 87.4221 21.7836 87.3823C22.2128 87.3487 22.6441 87.3376 23.0748 87.3284C23.2379 87.3249 23.2244 87.2885 23.1815 87.1466C23.0009 86.5494 22.7933 85.9527 22.6976 85.3399C22.6182 84.831 22.6614 84.2988 22.6881 83.7788C22.7072 83.4061 22.7615 83.03 22.8493 82.6673C22.9503 82.2498 23.0836 81.8367 23.2413 81.4369C23.6576 80.382 24.3979 79.558 25.1631 78.7443C25.6204 78.258 26.0354 77.7237 26.41 77.1707C26.6365 76.8364 26.7583 76.4285 26.7566 76.0036C26.754 75.3334 26.7625 74.6632 26.7544 73.9931C26.7425 72.9996 26.7215 72.0063 26.7019 71.013C26.6861 70.2161 26.6616 69.4194 26.6498 68.6226C26.6281 67.1557 26.6212 65.6885 26.5918 64.2218C26.5761 63.4415 26.5087 62.6622 26.4973 61.882C26.4877 61.219 26.5462 60.5551 26.5364 59.8922C26.5224 58.9499 26.4715 58.0081 26.4421 57.066C26.4387 56.9585 26.4865 56.8499 26.4857 56.7419C26.4708 54.6852 26.4438 52.6286 26.4364 50.5718C26.4274 48.0847 26.4411 45.5975 26.4321 43.1104C26.4248 41.0805 26.384 39.0507 26.3846 37.0208C26.3852 34.7943 26.4198 32.5678 26.4329 30.3413C26.4403 29.0784 26.4275 27.8154 26.4364 26.5525C26.4434 25.5769 26.4713 24.6015 26.4871 23.6259C26.492 23.3281 26.4848 23.03 26.4884 22.7321C26.5051 21.3545 26.5265 19.977 26.5403 18.5993C26.5472 17.9083 26.5345 17.217 26.5435 16.5261C26.5519 15.8811 26.5774 15.2363 26.5949 14.5914C26.597 14.5137 26.5961 14.4359 26.5966 14.3581C26.614 14.4443 26.6371 14.5297 26.6478 14.6167C26.721 15.2123 26.7937 15.8081 26.8621 16.4043C26.8867 16.6195 26.9014 16.836 26.9163 17.0522C26.9535 17.5913 26.9878 18.1306 27.0241 18.6697C27.0773 19.4607 27.1348 20.2513 27.1838 21.0426C27.2248 21.7065 27.2615 22.3708 27.2908 23.0354C27.3315 23.9586 27.3655 24.8821 27.3986 25.8057C27.4201 26.4057 27.4467 27.006 27.451 27.6063C27.473 30.7531 27.4894 33.8999 27.506 37.0467C27.5098 37.7646 27.5128 38.4826 27.5051 39.2004C27.4924 40.3994 27.4711 41.5982 27.4528 42.7971C27.4354 43.9335 27.42 45.0699 27.3981 46.2061C27.3873 46.7618 27.3614 47.3172 27.3467 47.8728C27.3405 48.108 27.347 48.3435 27.3455 48.5789C27.3279 51.2075 27.3018 53.836 27.2956 56.4646C27.2927 57.7081 27.3249 58.9518 27.347 60.1953C27.3574 60.7867 27.3801 61.3779 27.3997 61.9691C27.4155 62.4443 27.4321 62.9195 27.4536 63.3945C27.4868 64.1303 27.5214 64.8662 27.5611 65.6018C27.5921 66.177 27.6282 66.7519 27.6682 67.3266C27.7183 68.0463 27.7704 68.7659 27.8303 69.4848C27.853 69.757 27.8878 70.0296 27.9421 70.297C27.9605 70.3876 28.0387 70.4901 28.119 70.5401C28.6257 70.8555 29.1513 70.686 29.5714 70.3721C30.0585 70.0084 30.2691 69.474 30.2902 68.8797C30.3237 67.9374 30.3453 66.9942 30.3457 66.0514C30.3496 56.8269 30.3545 47.6024 30.3457 38.3779C30.34 32.3717 30.3122 26.3655 30.2953 20.3593C30.2951 20.2729 30.3087 20.1865 30.3158 20.1001C30.3444 20.1829 30.3749 20.2652 30.4013 20.3487C30.6407 21.1056 30.7906 21.8788 30.8914 22.6676C31.0344 23.7872 31.046 24.9087 31.0459 26.0332L31.0444 47.9608C31.0436 55.2701 31.042 62.5793 31.0382 69.8885C31.0381 70.1247 31.1107 70.2186 31.3242 70.2803C32.0249 70.4829 32.7456 70.5563 33.4603 70.4806C34.812 70.3375 36.0355 69.8623 37.0997 68.9784C37.9499 68.2722 38.5551 67.4084 38.9148 66.3804C39.0554 65.9785 39.0875 65.5343 39.1351 65.1055C39.1786 64.7137 39.2175 64.3133 39.185 63.9228C39.1297 63.2598 39.0234 62.6006 38.9257 61.9417C38.8462 61.4056 38.7327 60.8742 38.6617 60.3371C38.5582 59.5539 38.4574 58.7692 38.3967 57.9819C38.3459 57.3217 38.2976 56.6525 38.3482 55.9951C38.4518 54.6518 38.6615 53.3211 39.0322 52.0203C39.4284 50.6298 39.9807 49.3027 40.6676 48.0337C41.1786 47.0896 41.7641 46.1894 42.468 45.3761C43.0136 44.7456 43.5806 44.133 44.1558 43.5292C44.4007 43.2721 44.6958 43.0633 44.9593 42.823C45.9612 41.9094 46.6949 40.7831 47.452 39.6747C48.0429 38.8096 48.6053 37.9205 49.2542 37.1006C50.1088 36.0209 51.1574 35.1649 52.5198 34.7884C53.0208 34.65 53.5363 34.5613 54.048 34.4648C55.1345 34.2598 56.2357 34.2723 57.3316 34.311C58.4702 34.3512 59.5523 34.6382 60.5246 35.2666C61.3258 35.7844 61.9073 36.5106 62.4028 37.3022C62.9819 38.2276 63.5292 39.1736 64.0675 40.1236C64.7595 41.345 65.4313 42.578 66.1069 43.8088C66.4703 44.4706 66.8282 45.1355 67.1801 45.8036C67.6196 46.6382 67.8718 46.964 68.2266 47.8728C68.461 48.4732 68.8758 49.598 69.1593 50.153C69.7249 51.26 69.8231 51.99 70.2361 53.0175C70.3207 53.228 70.7658 53.4855 70.8678 53.7198C71.0579 54.1562 71.4444 54.7884 71.4724 54.837C71.4981 54.7761 71.5163 54.0148 71.5199 53.9527C71.5603 53.2618 71.5949 52.5707 71.6299 51.8795C71.6663 51.1617 71.7022 50.4438 71.7371 49.7258C71.7737 48.9722 71.8099 48.2186 71.8442 47.4649C71.8813 46.6487 71.9174 45.8325 71.9514 45.0163C71.9887 44.1197 72.0236 43.2231 72.0588 42.3264C72.0775 41.8514 72.0955 41.3762 72.1124 40.9011C72.1312 40.3724 72.1482 39.8436 72.1662 39.3149C72.1839 38.7951 72.2033 38.2754 72.2195 37.7555C72.2388 37.1375 72.2558 36.5194 72.2734 35.9013C72.2915 35.2654 72.3104 34.6294 72.3267 33.9934C72.346 33.2414 72.3638 32.4892 72.3804 31.7371C72.3994 30.8778 72.4185 30.0185 72.4337 29.1591C72.4537 28.0317 72.4675 26.9042 72.4888 25.7769C72.5017 25.0962 72.5333 24.4157 72.5392 23.735C72.548 22.7312 72.5351 21.7272 72.5438 20.7235C72.5494 20.0785 72.5784 19.4337 72.5933 18.7887C72.5949 18.724 72.5718 18.6586 72.5602 18.5935C72.5052 18.6334 72.442 18.6655 72.3965 18.7142C72.0479 19.0871 71.6073 19.2201 71.1112 19.2393C70.3483 19.2687 69.6283 19.0437 68.8965 18.8879C68.1956 18.7386 67.4911 18.5716 66.7727 18.6574C66.3457 18.7084 65.9224 18.8362 65.5127 18.9746C64.852 19.1978 64.2231 19.1301 63.5972 18.8623C62.9901 18.6024 62.3885 18.3266 61.7698 18.0974C61.2129 17.8912 60.622 17.8932 60.082 18.1287C59.8183 18.2437 59.5537 18.4903 59.4214 18.7457C59.1121 19.3429 58.645 19.6207 58.0036 19.7263C57.1572 19.8655 56.4111 19.581 55.6587 19.2721C55.0477 19.0213 54.443 18.7388 53.81 18.5622C52.9649 18.3263 52.1883 18.5822 51.4879 19.0862C51.0476 19.4031 50.6325 19.7677 50.1585 20.022C49.5227 20.3632 48.596 20.4122 48.0943 19.8493C48.0065 19.7508 47.9173 19.6327 47.8853 19.509C47.7588 19.0193 47.4417 18.9139 47.0014 18.863C46.3674 18.7898 45.9016 19.1308 45.4417 19.4989C45.0161 19.8397 44.6191 20.2187 44.0405 20.3253C43.5812 20.4099 43.1494 20.3497 42.7422 20.1747C42.0516 19.8778 41.374 19.5488 40.7019 19.2115C40.1008 18.9098 39.4584 18.7596 38.8133 18.8827C38.3977 18.9621 38.0064 19.2206 37.6306 19.4434C37.1749 19.7137 36.7676 20.0693 36.3025 20.3194C35.5022 20.7497 34.6429 20.7678 33.7602 20.5914C32.8444 20.4085 32.0903 19.9617 31.4558 19.295C31.3148 19.1469 31.1997 18.9738 31.076 18.8097C31.0587 18.7869 31.0604 18.7497 31.0533 18.7192C31.0786 18.7322 31.1078 18.7406 31.1286 18.7588C31.7969 19.3424 32.561 19.7036 33.4469 19.8314C34.727 20.016 35.9128 19.8018 36.9794 19.0576C37.2776 18.8495 37.5219 18.5656 37.8132 18.346C38.2724 18 38.8152 18.0163 39.3461 18.0806C40.3422 18.2011 41.2069 18.7194 42.1389 19.0348C42.9452 19.3076 43.773 19.5164 44.6259 19.1847C44.926 19.068 45.1771 18.9042 45.3629 18.6295C45.6887 18.1477 46.3946 17.9743 46.931 18.0322C47.7958 18.1254 48.5449 18.5554 49.3657 18.765C49.9424 18.9122 50.5204 19.0117 51.1096 18.8102C51.4278 18.7014 51.6499 18.4838 51.821 18.2131C52.0978 17.775 52.5182 17.6189 53.0015 17.5756C53.6859 17.5142 54.3017 17.7303 54.9053 18.0273C55.4847 18.3125 56.0719 18.6045 56.7181 18.6923C57.2413 18.7634 57.7592 18.6594 58.2443 18.4404C59.0047 18.0972 59.7552 17.731 60.5223 17.4035C61.2591 17.0889 61.976 17.1508 62.6654 17.5836C63.0444 17.8216 63.437 18.0472 63.8467 18.2246C64.3373 18.437 64.8604 18.3694 65.3593 18.236C66.0321 18.0562 66.6854 17.7945 67.3644 17.6497C67.8361 17.5491 68.3256 17.5875 68.7098 17.997C69.0684 18.3791 69.542 18.4737 70.0322 18.3342C70.7969 18.1165 71.5499 17.8578 72.3092 17.6207C72.6835 17.5038 73.0582 17.3907 73.4572 17.5201C73.9948 17.6944 74.0549 17.7826 73.9893 18.3413C73.9522 18.6569 73.9078 18.9721 73.8843 19.2889C73.8559 19.6738 73.85 20.0604 73.8274 20.4459C73.7763 21.3174 73.7219 22.1887 73.667 23.06C73.6331 23.5993 73.5921 24.1382 73.5611 24.6776C73.5214 25.3685 73.4901 26.0598 73.4525 26.7508C73.4188 27.3706 73.3777 27.9899 73.3466 28.6098C73.307 29.399 73.2747 30.1885 73.2383 30.9779C73.2217 31.3369 73.2006 31.6957 73.1853 32.0548C73.1482 32.9245 73.1135 33.7944 73.0776 34.6642C73.0601 35.0857 73.0401 35.5071 73.0244 35.9287C72.9875 36.9146 72.9524 37.9006 72.9168 38.8866C72.8987 39.3885 72.8802 39.8904 72.8634 40.3923C72.8445 40.9568 72.8272 41.5213 72.8096 42.0858C72.7915 42.6681 72.7733 43.2504 72.7561 43.8328C72.7376 44.4598 72.7198 45.0868 72.7024 45.7138C72.6841 46.3766 72.6662 47.0393 72.6488 47.7021C72.6305 48.4006 72.6124 49.0991 72.5953 49.7976C72.5767 50.5586 72.5593 51.3197 72.5415 52.0808C72.5235 52.8507 72.5054 53.6207 72.488 54.3907C72.4697 55.1964 72.4519 56.0022 72.4343 56.8079L72.3994 58.473C72.3933 58.7505 72.3868 59.028 72.3796 59.3055C72.3679 59.7539 72.3451 60.2021 72.3264 60.6504C72.3254 60.675 72.3156 60.6993 72.3099 60.7237C72.2977 60.6995 72.2803 60.6765 72.2742 60.6508C72.0767 59.8121 71.858 58.9775 71.6915 58.1326C71.5792 57.5627 71.5323 56.979 71.4724 56.3998C71.4371 56.0575 71.4339 55.7118 71.4149 55.3678C71.413 55.3347 71.4009 55.3023 71.3936 55.2696C71.3831 55.2978 71.3648 55.3256 71.3631 55.3543C71.3001 56.4318 71.1105 57.4832 70.7315 58.4975C70.6215 58.7918 70.5286 59.0925 70.4261 59.3897C70.4128 59.4284 70.389 59.4634 70.37 59.5001C70.3649 59.4518 70.3443 59.3987 70.3573 59.3558C70.4191 59.1498 70.4773 58.9411 70.56 58.7431C70.9399 57.8343 70.919 56.876 70.8678 55.9273C70.8295 55.2173 70.6518 54.521 70.3598 53.8635C70.3422 53.8237 70.2476 53.6384 70.2467 53.5893C70.2465 53.5811 70.2116 53.5736 70.1927 53.5659C70.2072 53.6318 70.2217 53.6978 70.2361 53.7637C70.2719 54.4459 70.3326 55.3945 70.3368 56.0769C70.3418 56.8734 70.2085 57.3915 69.9925 58.1582C69.8781 58.5641 69.7306 58.9607 69.5972 59.3612C69.5881 59.3887 69.5724 59.4141 69.5598 59.4405C69.5529 59.4076 69.5305 59.368 69.5414 59.3428C69.8947 58.5249 69.8558 57.6483 69.9079 56.7895C69.9566 55.9856 69.9996 55.1758 69.9562 54.3734C69.8955 53.2532 69.6852 52.153 69.2167 51.1188C69.2063 51.096 69.178 51.0814 69.1677 51.0586C69.1334 50.9823 69.1035 50.904 69.0719 50.8265C69.0513 50.9233 69.0035 51.0234 69.0149 51.1162C69.0532 51.4271 69.1343 51.7337 69.1593 52.0452C69.2103 52.6815 69.2509 53.3194 69.267 53.9574C69.285 54.6748 69.306 55.3952 69.2612 56.1103C69.2174 56.8088 69.0936 57.5025 69.0026 58.1979C68.9516 58.5871 68.8963 58.9757 68.8411 59.3643C68.8375 59.3896 68.8178 59.4127 68.8056 59.4369C68.7999 59.4124 68.7875 59.3874 68.7896 59.3636C68.8056 59.1832 68.8247 59.0031 68.8421 58.8228C68.8604 58.6336 68.8885 58.4447 68.894 58.2552C68.9163 57.4854 68.9452 56.7153 68.9455 55.9454C68.9458 55.2111 68.9218 54.4766 68.8932 53.7428C68.8701 53.1495 68.8334 52.5564 68.7863 51.9645C68.724 51.1802 68.6463 50.3972 68.5735 49.6138C68.56 49.4689 68.54 49.3245 68.5191 49.1805C68.515 49.1521 68.4925 49.1263 68.4785 49.0994C68.4568 49.1275 68.4183 49.1544 68.4159 49.1841C68.3936 49.4623 68.3737 49.7408 68.3606 50.0195C68.3394 50.4677 68.3293 50.9164 68.3049 51.3643C68.2551 52.2805 68.2014 53.1965 68.1442 54.1123C68.1144 54.5893 68.0685 55.0653 68.0391 55.5424C67.9817 56.476 67.9332 57.4102 67.8762 58.3438C67.846 58.8387 67.8015 59.3327 67.7708 59.8275C67.7141 60.7433 67.667 61.6597 67.6067 62.5753C67.5859 62.8921 67.6653 63.9253 67.6538 64.0674C67.5855 64.9076 67.3478 65.7118 67.061 66.4999C67.0052 66.6532 66.8908 66.8112 66.7594 66.906C66.3891 67.1731 66.1441 67.1307 65.9489 66.6653C65.901 66.5512 65.8758 66.4275 65.8396 66.3084C65.8349 66.2927 65.8269 66.278 65.8204 66.2628C65.809 66.289 65.794 66.3142 65.7868 66.3415C65.7144 66.6154 65.6718 66.9016 65.5638 67.1606C65.4557 67.4197 65.3074 67.6717 65.1316 67.8905C64.9186 68.1556 64.5312 68.1693 64.2842 67.9342C64.1435 67.8003 64.1449 67.9711 64.1339 67.9967C64.0232 68.2545 63.9481 68.5296 63.8196 68.7773C63.6195 69.1633 63.2738 69.3366 62.8436 69.3069C62.6509 69.2936 62.6144 69.3531 62.6177 69.536C62.6263 70.0135 62.4367 70.4025 62.0096 70.6399C61.905 70.698 61.759 70.7103 61.6359 70.6995C61.4609 70.6842 61.4264 70.7482 61.4404 70.9049C61.4547 71.0644 61.4458 71.2263 61.4432 71.3871C61.4369 71.7679 61.1749 72.0348 60.7991 72.0458C60.5133 72.0541 60.4597 72.1336 60.5728 72.3813C60.6864 72.63 60.5078 72.8694 60.1724 72.902C59.8311 72.9351 59.5466 72.8583 59.2762 72.5993C58.1647 71.5347 57.313 70.2906 56.6778 68.8997C56.2659 67.9977 55.9444 67.058 55.8177 66.0673C55.7281 65.3666 55.6498 64.663 55.6054 63.9582C55.5551 63.1575 55.6812 62.3691 55.8442 61.585C56.1531 60.0996 56.7308 58.7039 57.2456 57.2864C57.3645 56.9591 57.449 56.6176 57.527 56.2775C57.6622 55.6883 57.7911 55.0971 57.8991 54.5025C57.9368 54.2949 57.9125 54.0742 57.8979 53.8607C57.8955 53.8251 57.7926 53.7615 57.7456 53.7691C57.3376 53.8355 56.9298 53.9061 56.5257 53.9929C55.834 54.1415 55.1721 54.372 54.5321 54.6814C54.2951 54.796 53.9981 54.7835 53.73 54.837C53.3016 54.9225 52.8752 55.0178 52.4465 55.1015C52.3574 55.1189 52.2621 55.1019 52.1697 55.1045C52.0113 55.1089 51.7506 55.0629 51.7145 55.1324C51.6178 55.3186 51.5887 55.5541 51.5836 55.7712C51.5556 56.943 51.5283 58.1152 51.5312 59.2873C51.5327 59.898 51.5946 60.5087 51.633 61.1192C51.6658 61.6407 51.6901 62.1633 51.7435 62.6828C51.7975 63.209 51.8869 63.7314 51.9525 64.2565C51.9963 64.6071 52.019 64.9603 52.0628 65.3108C52.1284 65.8359 52.2068 66.3594 52.275 66.8842C52.3324 67.3262 52.3827 67.769 52.4367 68.2114C52.4719 68.5005 52.507 68.7895 52.5456 69.0782C52.5491 69.104 52.5731 69.1419 52.5952 69.1484C52.9972 69.2661 53.0866 69.6192 53.1836 69.9518C53.3352 70.4715 53.5014 70.9917 53.5889 71.5237C53.656 71.9314 53.6549 72.3629 53.6039 72.7739C53.5519 73.192 53.41 73.6004 53.2924 74.0087C53.1151 74.6247 52.7634 75.1442 52.3619 75.6338C52.3357 75.6657 52.3232 75.7089 52.3043 75.7468C52.3433 75.7462 52.3824 75.7453 52.4214 75.7451C52.4929 75.7449 52.5644 75.7451 52.6358 75.7451H55.8794C56.7045 75.7451 57.5297 75.7513 58.3547 75.7436C59.7055 75.731 61.0562 75.7092 62.407 75.6917C62.5441 75.6899 62.6812 75.6932 62.8183 75.6912C63.9904 75.6738 65.1624 75.6556 66.3345 75.6381C66.4537 75.6363 66.573 75.6409 66.6921 75.6374C67.6804 75.6079 68.6685 75.576 69.6568 75.549C69.754 75.5464 69.8521 75.5837 69.9494 75.5824C71.1305 75.5673 72.3115 75.5505 73.4924 75.5299C74.2982 75.5158 75.1038 75.4933 75.9096 75.478C76.1333 75.4737 76.2529 75.4251 76.2499 75.1445C76.2414 74.3748 76.2779 73.6046 76.2936 72.8346C76.2986 72.5904 76.3051 72.3454 76.2921 72.1018C76.2664 71.6209 75.9072 71.4306 75.4933 71.4095C74.671 71.3676 73.8466 71.356 73.0229 71.3512C71.5903 71.3427 70.1575 71.3461 68.7248 71.3512C68.4641 71.3521 68.2035 71.3852 67.9428 71.4016C67.9088 71.4038 67.8742 71.3954 67.8399 71.392C67.8606 71.3604 67.8797 71.3276 67.9022 71.2974C68.1247 70.9978 68.4589 70.9081 68.7964 70.873C69.2329 70.8276 69.6764 70.8506 70.1133 70.8073C70.5953 70.7594 71.0731 70.669 71.5531 70.5992C71.6056 70.5916 71.6602 70.5994 71.7137 70.598C73.1196 70.5625 74.5256 70.5282 75.9313 70.4861C75.9949 70.4842 76.0924 70.425 76.113 70.3697C76.2798 69.9225 76.3735 69.4763 76.3293 68.979C76.2822 68.4491 76.372 67.907 76.4013 67.3703C76.4042 67.3168 76.4016 67.263 76.4016 67.2094C76.4016 66.7448 76.3974 66.2801 76.4024 65.8155C76.4182 64.3396 76.4353 62.8638 76.456 61.388C76.4701 60.3767 76.4912 59.3655 76.5088 58.3543C76.527 57.3073 76.5444 56.2603 76.5625 55.2134C76.5802 54.1901 76.5983 53.1669 76.6161 52.1437L76.6697 49.0564C76.6876 48.0243 76.7055 46.9921 76.7233 45.9599C76.7412 44.9188 76.7589 43.8777 76.777 42.8367C76.7946 41.8254 76.8129 40.8142 76.8305 39.803C76.8486 38.7619 76.8663 37.7208 76.8842 36.6797C76.902 35.6417 76.9197 34.6036 76.9378 33.5656C76.9555 32.5544 76.9737 31.5432 76.9913 30.5319C77.0095 29.485 77.0269 28.438 77.045 27.391L77.0986 24.3306C77.1166 23.2925 77.1341 22.2545 77.1523 21.2165C77.1698 20.2142 77.1885 19.2119 77.2057 18.2096C77.2242 17.1359 77.2397 16.062 77.2601 14.9883C77.2746 14.2242 77.2916 13.46 77.316 12.6961C77.3211 12.5356 77.2951 12.4719 77.1095 12.4767C76.0449 12.5047 74.9799 12.5151 73.9151 12.5361C73.2403 12.5494 72.5656 12.5716 71.8909 12.5887C71.1567 12.6073 70.4224 12.624 69.6882 12.6427C69.0165 12.6597 68.3448 12.6788 67.6731 12.696C66.9479 12.7145 66.2225 12.7314 65.4973 12.7498C64.8166 12.7671 64.136 12.786 63.4554 12.8032C62.7212 12.8217 61.9869 12.8375 61.2527 12.8574C60.6882 12.8728 60.1239 12.8959 59.5593 12.9098C58.718 12.9306 57.8764 12.9449 57.035 12.9646C56.3633 12.9803 55.6917 13.0006 55.0199 13.0176C54.2768 13.0363 53.5336 13.0528 52.7905 13.0716C52.1277 13.0884 51.465 13.1079 50.8022 13.1248C50.068 13.1436 49.3337 13.1591 48.5995 13.1792C48.0439 13.1943 47.4886 13.2178 46.9329 13.2314C46.0826 13.2523 45.2322 13.2667 44.3818 13.2863C43.6922 13.3021 43.0027 13.3219 42.3131 13.3394C41.5879 13.3577 40.8625 13.3747 40.1373 13.3932C39.4656 13.4104 38.7939 13.4296 38.1222 13.4465C37.3791 13.4652 36.636 13.4887 35.8927 13.499C34.2918 13.5211 32.6907 13.5537 31.0899 13.5455C30.4149 13.5421 29.7396 13.455 29.0659 13.3897C28.711 13.3553 28.3594 13.2861 28.0065 13.2316C27.9825 13.2279 27.9599 13.2151 27.9366 13.2066C27.9588 13.1973 27.9803 13.1854 28.0033 13.1795C28.0201 13.1751 28.0388 13.179 28.0567 13.1786C28.8177 13.1608 29.579 13.1484 30.3398 13.1236C31.2544 13.0938 32.1688 13.0547 33.0832 13.0172C33.4333 13.0029 33.7831 12.9783 34.1333 12.965C34.6887 12.9439 35.2443 12.9297 35.7998 12.9101C36.2482 12.8943 36.6964 12.8737 37.1447 12.8572C38.1306 12.8207 39.1167 12.7866 40.1025 12.7491C40.4795 12.7348 40.8561 12.7097 41.233 12.6971C41.8689 12.6757 42.5049 12.6621 43.1408 12.6419C43.6071 12.627 44.0731 12.6054 44.5394 12.5892C45.0948 12.5699 45.6504 12.5547 46.2059 12.5348C46.6364 12.5194 47.0666 12.4957 47.4972 12.4825C48.1867 12.4614 48.8763 12.4474 49.5658 12.4276C50.1036 12.4121 50.6411 12.3915 51.1788 12.3746C51.779 12.3558 52.3792 12.3387 52.9794 12.3208C53.5796 12.3029 54.1798 12.2847 54.78 12.2673C55.4159 12.2489 56.0519 12.2317 56.6878 12.2135C57.3 12.196 57.9122 12.177 58.5244 12.1602C59.2139 12.1413 59.9035 12.1243 60.5931 12.1063C61.2737 12.0886 61.9543 12.0702 62.6349 12.0528C63.3513 12.0345 64.0676 12.0172 64.784 11.9991C65.4825 11.9814 66.1812 11.9696 66.8794 11.9435C67.4123 11.9235 67.9445 11.883 68.4772 11.8572C68.5561 11.8533 68.6366 11.8912 68.716 11.8901C69.8167 11.8749 70.9173 11.8579 72.0178 11.8377C72.8414 11.8227 73.665 11.8019 74.4886 11.7849C75.3925 11.7662 76.2965 11.7428 77.2006 11.733ZM59.8517 81.9149C59.2942 81.9292 58.7376 81.9811 58.1808 82.018C57.6595 82.0526 57.138 82.0858 56.6172 82.1259C55.969 82.1758 55.3214 82.2319 54.6736 82.2859C54.0347 82.3392 53.3962 82.3971 52.7569 82.4456C51.9933 82.5037 51.2298 82.5769 50.4649 82.6022C49.3027 82.6405 48.1393 82.644 46.9763 82.6606C46.7173 82.6643 46.4567 82.6792 46.1994 82.6577C45.4599 82.5959 44.7218 82.5173 43.983 82.447C43.5871 82.4093 43.1903 82.38 42.7947 82.3384C42.1539 82.271 41.5153 82.1693 40.8729 82.1328C40.2465 82.0971 39.6164 82.1182 38.9881 82.1272C38.4951 82.1342 38.0018 82.1518 37.5096 82.1807C36.7273 82.2266 35.9457 82.2847 35.164 82.3398C34.4267 82.3918 33.6896 82.4463 32.9525 82.5004C32.4759 82.5354 31.9994 82.5719 31.5228 82.6075C30.8036 82.6612 30.0842 82.7147 29.365 82.7684C28.8884 82.804 28.4119 82.8407 27.9353 82.8754C27.1893 82.9297 26.4433 82.9854 25.697 83.0356C25.1046 83.0754 24.5115 83.1053 23.9191 83.1447C23.5841 83.167 23.4796 83.2814 23.4879 83.6241C23.4925 83.8136 23.5224 84.0024 23.539 84.1916C23.6109 85.0107 23.6765 85.8303 23.7571 86.6485C23.7803 86.8834 23.805 87.1467 24.0521 87.2659C24.199 87.3368 24.377 87.3741 24.5408 87.3734C25.0426 87.3712 25.5443 87.332 26.0463 87.3279C27.032 87.3197 28.0178 87.3315 29.0035 87.3242C30.774 87.311 32.5444 87.2896 34.3148 87.2721C34.4786 87.2705 34.6426 87.2745 34.8064 87.2714C35.7192 87.2545 36.6318 87.2298 37.5447 87.2196C39.5116 87.1975 41.4786 87.1797 43.4455 87.1658C44.4134 87.159 45.3814 87.1707 46.3492 87.1633C48.0839 87.1501 49.8186 87.1287 51.5532 87.1113C51.726 87.1095 51.8989 87.1138 52.0716 87.1106C52.9844 87.0937 53.8971 87.069 54.81 87.0587C56.7769 87.0366 58.7438 87.0189 60.7108 87.005C61.6697 86.9982 62.6288 87.0098 63.5877 87.0025C65.3313 86.9892 67.0749 86.9679 68.8185 86.9504C68.9913 86.9487 69.1642 86.9525 69.3369 86.9498C70.4284 86.9327 71.5198 86.9099 72.6113 86.8981C73.3616 86.89 74.1122 86.9024 74.8625 86.8953C76.3203 86.8817 77.778 86.8615 79.2357 86.8424C79.5555 86.8383 79.798 86.6098 79.8315 86.271C79.9072 85.5059 79.9758 84.7401 80.0473 83.921C80.0652 83.6426 80.0938 83.3644 80.0988 83.0858C80.1055 82.6621 79.8924 82.4996 79.4727 82.551C78.6622 82.6503 77.8511 82.7875 77.0377 82.8091C75.8314 82.8411 74.6226 82.7946 73.4153 82.7646C72.8489 82.7506 72.2831 82.7025 71.7177 82.6596C71.0962 82.6126 70.4753 82.5563 69.8546 82.4996C69.3047 82.4494 68.7555 82.3922 68.2059 82.3397L67.0712 82.2304C66.693 82.1943 66.3146 82.159 65.9361 82.1264C65.2352 82.0661 64.534 82.0062 63.8318 81.9676C63.2058 81.9333 62.5783 81.9207 61.9512 81.9126C61.2515 81.9036 60.5511 81.8969 59.8517 81.9149ZM41.5531 76.7905C41.0192 76.8173 40.4853 76.8466 39.9511 76.8702C39.4673 76.8915 38.9831 76.9065 38.4991 76.9246C38.024 76.9423 37.5489 76.9609 37.0738 76.978C36.0701 77.0142 35.0662 77.0492 34.0625 77.0856C33.6052 77.1022 33.1481 77.1241 32.6908 77.1383C32.0282 77.1589 31.3653 77.1718 30.7027 77.194C30.415 77.2037 30.126 77.2142 29.8408 77.2503C29.5658 77.2851 29.297 77.3777 29.0218 77.4009C28.6774 77.4301 28.3229 77.4379 28.0914 77.0915C28.0747 77.0664 27.9438 77.0786 27.9419 77.0884C27.8182 77.7159 27.4078 78.1627 26.984 78.5948C26.6373 78.9481 26.2642 79.2753 25.9105 79.6218C25.4648 80.0585 25.0131 80.4902 24.5905 80.9485C24.2764 81.2891 24.0038 81.6679 23.7152 82.0315C23.6865 82.0676 23.6744 82.1169 23.6546 82.16C23.7056 82.1662 23.7569 82.1791 23.8077 82.1776C24.3454 82.1614 24.8831 82.1445 25.4206 82.1245C25.8333 82.1092 26.2456 82.0865 26.6583 82.0721C27.2405 82.0516 27.8233 82.044 28.4051 82.0151C28.8466 81.9931 29.2867 81.9423 29.7279 81.9114C30.5364 81.8548 31.3455 81.8053 32.154 81.7489C32.6041 81.7176 33.0548 81.6881 33.5033 81.64C34.0734 81.5788 34.641 81.4944 35.2108 81.4298C35.606 81.3849 36.0035 81.361 36.3991 81.3198C37.049 81.2521 37.6968 81.1593 38.3481 81.1127C38.8045 81.08 39.2652 81.0994 39.7238 81.1083C40.1723 81.1171 40.6223 81.1225 41.0682 81.1651C41.5857 81.2146 42.0991 81.3064 42.6151 81.3734C43.0658 81.432 43.5188 81.474 43.9688 81.5372C44.5494 81.6187 45.1277 81.7164 45.7078 81.8016C45.8566 81.8235 46.0084 81.8246 46.1588 81.8352C46.0358 81.7088 45.9252 81.5667 45.7878 81.4588C45.1004 80.9187 44.5398 80.2546 44.0303 79.5592C43.5675 78.9274 43.1946 78.2295 42.7872 77.5577C42.5094 77.0997 42.1825 76.7242 41.5531 76.7905ZM75.9766 76.4378C75.5484 76.4787 75.1163 76.4812 74.6857 76.4948C74.0231 76.5158 73.3604 76.5329 72.6976 76.5489C71.892 76.5683 71.0864 76.5899 70.2807 76.6018C68.8139 76.6234 67.347 76.6389 65.8802 76.6562C65.6806 76.6585 65.4809 76.6535 65.2813 76.657C64.3327 76.6737 63.3841 76.6922 62.3818 76.7101H56.8954C55.2246 76.7101 53.5538 76.7031 51.8831 76.7172C51.6163 76.7195 51.349 76.819 51.2184 77.0986C50.9877 77.5926 50.782 78.0993 50.5313 78.5827C49.9393 79.7239 49.1019 80.677 48.1587 81.5355C47.9602 81.7162 48.0955 81.7748 48.2061 81.7935C48.4089 81.8279 48.6226 81.8162 48.83 81.8009C49.4694 81.7539 50.1082 81.697 50.747 81.6422C51.3593 81.5898 51.9713 81.5338 52.5836 81.4821C53.2403 81.4266 53.8973 81.3758 54.554 81.3204C55.1663 81.2687 55.7778 81.2052 56.3907 81.162C57.2614 81.1005 58.1327 81.0446 59.0045 81.0026C59.4265 80.9823 59.8508 80.986 60.2732 81.0022C60.8932 81.026 61.5127 81.067 62.132 81.1073C62.8963 81.157 63.6601 81.2137 64.4242 81.2672C64.9365 81.3031 65.4489 81.3383 65.9612 81.3745C66.7163 81.4278 67.4715 81.4814 68.2266 81.5353C68.7211 81.5707 69.2155 81.6075 69.71 81.6423C70.2312 81.6789 70.7526 81.7133 71.2738 81.7499C71.7684 81.7847 72.2625 81.8253 72.7573 81.8559C73.4034 81.8958 74.0501 81.9595 74.6963 81.9564C75.5305 81.9525 76.3661 81.9148 77.1978 81.8504C77.9495 81.7921 78.6972 81.6809 79.446 81.5878C79.8346 81.5395 79.9797 81.2521 79.7781 80.9237C79.0302 79.7051 78.2706 78.4936 77.5299 77.2706C77.1708 76.6775 76.6878 76.3698 75.9766 76.4378ZM46.299 47.0632C46.2611 47.1718 46.2351 47.2865 46.1832 47.388C46.0056 47.7349 45.8165 48.0759 45.6362 48.4214C45.2231 49.2133 44.8133 49.9943 44.061 50.5496C43.5708 50.9115 42.9965 51.1823 42.6466 51.7234C42.5435 51.8829 42.362 51.9912 42.2549 52.149C42.0633 52.4315 41.9103 52.7398 41.7245 53.0266C41.0046 54.1384 40.3467 55.2793 39.9625 56.559C39.665 57.5501 39.4535 58.5548 39.4644 59.5948C39.47 60.1325 39.4826 60.6711 39.5206 61.2073C39.5521 61.6508 39.6226 62.0917 39.6812 62.5331C39.7665 63.176 39.872 63.8167 39.9373 64.4615C39.9642 64.7265 39.88 65.0018 39.8976 65.269C39.928 65.7308 39.9725 66.1948 40.0575 66.6491C40.2198 67.5157 40.4045 68.3784 40.599 69.2385C40.7979 70.1186 41.0252 70.9922 41.2302 71.871C41.544 73.216 42.0024 74.51 42.6071 75.75C43.2169 77.0006 43.944 78.1837 44.7702 79.3019C45.1646 79.8358 45.5754 80.3674 46.0447 80.8337C46.5669 81.3525 47.2481 81.4542 47.7964 80.8357C48.1337 80.4553 48.4536 80.0585 48.7637 79.6555C49.44 78.7766 50.1053 77.8891 50.7738 77.0042C50.7976 76.9727 50.8081 76.9312 50.8248 76.8944C50.7834 76.8866 50.7422 76.8776 50.7005 76.8711C50.3814 76.8218 50.0541 76.8024 49.7444 76.7185C48.7259 76.4424 47.9072 75.8057 47.0834 75.187C46.3043 74.6018 45.5383 73.9993 44.7629 73.4092C44.6392 73.3151 44.5235 73.3127 44.4302 73.4803C44.1752 73.9386 43.9087 74.3907 43.6424 74.8426C43.598 74.9178 43.5315 74.9799 43.4752 75.0481C43.4064 74.9641 43.3237 74.8879 43.2712 74.7948C43.074 74.4443 43.2735 74.1201 43.3706 73.8008C43.5757 73.1267 43.7277 72.4495 43.6991 71.739C43.6743 71.1213 43.6417 70.5027 43.6511 69.8851C43.6574 69.4656 43.8113 69.053 44.1733 68.8339C44.449 68.6671 44.4087 68.4725 44.3821 68.2573C44.2866 67.4864 44.1288 66.7199 44.085 65.9466C44.0287 64.9498 44.0539 63.9479 44.2338 62.9047C44.2517 62.7873 44.2631 62.6685 44.2885 62.5528C44.4069 62.0126 44.5018 61.4653 44.6567 60.9357C44.8702 60.2054 45.1172 59.484 45.3751 58.7679C45.5229 58.3571 46.2122 56.9636 46.1628 57.3815C46.1421 57.6116 45.8536 58.7289 45.6851 59.2646C45.4236 60.0958 45.1636 60.9288 44.9452 61.7719C44.6812 62.7909 44.4834 63.8249 44.5031 64.886C44.5138 65.4594 44.5297 66.033 44.5579 66.6059C44.5819 67.092 44.6263 67.5771 44.6631 68.0625C44.6755 68.2271 44.7949 68.3491 44.8857 68.2921C45.0563 68.1851 45.2251 68.075 45.3932 67.9641C46.2413 67.4047 46.9906 66.7297 47.684 65.9913C47.8167 65.85 47.9817 65.6993 48.0291 65.5251C48.1679 65.0152 48.2674 64.4934 48.358 63.9721C48.4312 63.551 48.4691 63.1237 48.5229 62.6992C48.6121 61.9947 48.7364 61.2922 48.7772 60.5848C48.7999 60.1915 48.6739 59.7912 48.6329 59.3922C48.5925 58.9998 48.5957 58.6023 48.5426 58.212C48.4638 57.6334 48.3773 57.0535 48.2463 56.4851C48.154 56.0847 48.0451 55.664 47.8333 55.3203C47.4034 54.6228 46.8703 53.9893 46.4341 53.2953C46.0951 52.7559 45.801 52.1666 45.7468 51.522C45.6928 50.8802 45.7127 50.2291 45.7501 49.5849C45.7598 49.4175 45.9238 49.1829 46.0751 49.1207C46.235 49.0551 46.3689 49.2554 46.4339 49.4372C46.5313 49.7092 46.6419 49.9764 46.7473 50.2454C46.7583 50.2735 46.7724 50.3004 46.785 50.3279C46.7924 50.2952 46.8078 50.2619 46.8052 50.2301C46.802 50.1895 46.7823 50.1505 46.7729 50.1102C46.6353 49.5222 46.4733 48.9409 46.4788 48.326C46.4816 48.0196 46.4175 47.712 46.3765 47.4058C46.3611 47.2902 46.3255 47.1773 46.299 47.0632ZM39.9338 70.9166C39.6476 70.9456 39.3596 70.9581 39.0721 70.9729C38.6777 70.9932 38.2832 71.0109 37.8886 71.0268C36.9746 71.0636 36.0605 71.0986 35.0928 71.1343C34.3394 71.1701 33.5864 71.2147 32.8327 71.2392C31.9741 71.2672 31.1149 71.288 30.2559 71.2896C29.9397 71.2901 29.6229 71.2301 29.3072 71.1916C28.883 71.1399 28.461 71.0576 28.0355 71.0336C27.5451 71.0059 27.4054 71.1662 27.3989 71.6572C27.3865 72.6036 27.3714 73.5507 27.6687 74.4664C27.7887 74.8358 27.8724 75.2301 28.0641 75.5598C28.3512 76.0536 28.8651 76.2704 29.4128 76.2708C30.4251 76.2714 31.4375 76.2101 32.4498 76.1738C32.9158 76.157 33.3817 76.1378 33.8477 76.1204C34.8153 76.0844 35.783 76.0495 36.7506 76.0129C37.1809 75.9966 37.611 75.9718 38.0414 75.9607C38.8913 75.9388 39.7415 75.9248 40.5914 75.9055L40.6535 75.904C41.0875 75.893 41.5175 75.8827 41.7731 76.3554C41.7957 76.3972 41.9254 76.3811 42.0053 76.392C42.0108 76.3236 42.0416 76.2443 42.0177 76.1885C41.81 75.7029 41.5941 75.2206 41.3774 74.7388C40.8489 73.5635 40.4644 72.3401 40.1593 71.0903C40.1304 70.9721 40.079 70.9019 39.9338 70.9166ZM47.3688 67.7651C46.7346 68.0917 46.1004 68.4219 45.4916 68.7923C45.2205 68.9574 44.9767 69.1972 44.7835 69.4511C44.6343 69.6472 44.5816 69.9174 44.489 70.1558C44.2465 70.7803 44.4417 71.3509 44.7819 71.8562C45.3128 72.6447 45.9109 73.3866 46.647 74.0002C47.1001 74.3779 50.4 76.657 51.6196 75.6224C51.7889 75.4788 51.8604 75.2592 51.9591 75.0665C52.3625 74.2786 53.0139 73.6121 53.1497 72.6945C53.2039 72.3277 53.2521 71.9495 53.2212 71.5833C53.1854 71.1595 53.0575 70.7437 52.9734 70.3237C52.9182 70.0478 52.9025 69.7551 52.6272 69.5832C52.5922 69.5613 52.5539 69.5449 52.5171 69.526C52.5081 69.5669 52.4857 69.6101 52.4923 69.6484C52.5749 70.1273 52.6239 70.6035 52.7898 71.077C52.9896 71.647 52.8864 72.2609 52.6527 72.8342C52.5488 73.089 52.1894 73.2105 51.9441 73.1809C51.26 73.0984 50.6914 72.763 50.196 72.2972C49.4963 71.6395 49.0603 70.8183 48.7105 69.9012C48.6301 69.6666 48.5528 69.4307 48.4685 69.1975C48.3282 68.8092 48.2013 68.4147 48.0346 68.0379C47.9032 67.741 47.63 67.6306 47.3688 67.7651ZM59.3672 42.2478C59.3891 42.3151 59.3984 42.3904 59.435 42.4485C59.6543 42.7963 59.9168 42.8555 60.0958 43.2224C60.5086 44.0682 60.8162 44.6853 61.1784 45.5539C61.3186 45.8898 61.3328 46.3281 61.4494 46.8832C61.4538 46.9039 61.5151 46.962 61.5594 46.9879C61.789 47.1225 62.0381 47.23 62.2498 47.388C62.8557 47.8401 63.0497 48.3388 62.8657 48.9824C62.5412 50.1174 62.1557 49.5501 62.3868 48.8726C62.4808 48.5972 62.4107 48.3159 62.1936 48.1154C62.1211 48.0485 61.7965 47.8851 61.3959 47.6989C61.3577 47.6811 61.3855 47.8045 61.2238 48.131C61.1755 48.2286 60.988 48.5106 60.9346 48.3674C60.8433 48.1229 61.0124 47.5238 60.9346 47.4891L60.8514 47.4521C60.2134 47.1692 59.5746 46.9054 59.4963 46.8957C59.2577 46.8661 59.0365 46.9829 59.0342 47.4089C59.0288 48.4519 58.6153 49.2946 57.8223 49.9588C57.1173 50.5495 56.3313 50.8582 55.3888 50.7132C54.6985 50.607 54.1095 50.3181 53.5984 49.857C53.1479 49.4505 52.8063 48.9699 52.6527 48.3734C52.6158 48.2302 52.576 48.2396 52.4774 48.3309C51.9855 48.7863 51.6604 49.3407 51.4761 49.9811C51.4542 50.0573 51.4495 50.1385 51.4368 50.2173C51.521 50.21 51.6084 50.2147 51.6886 50.193C51.9206 50.13 52.1497 50.0561 52.3802 49.9871C52.4102 49.9781 52.4411 49.9725 52.4716 49.9654C52.46 49.9912 52.4457 50.0161 52.437 50.0428C52.3296 50.3732 52.0917 50.5807 51.7781 50.6909C51.4278 50.8141 50.8964 50.4736 50.996 50.122C51.0673 49.8703 51.1926 49.6316 51.312 49.3964C51.5186 48.9898 51.7393 48.5904 51.9809 48.1879C52.0038 48.1215 52.0266 48.055 52.0495 47.9885C51.9998 48.0371 51.9502 48.0857 51.8737 48.1343C51.8357 48.1901 51.808 48.258 51.7583 48.2999C51.0696 48.8804 50.3011 49.1968 49.3731 49.1087C48.8435 49.0584 48.3827 48.8728 47.9466 48.5996C47.5781 48.3689 47.1818 48.5082 47.1397 48.9371C47.1104 49.2362 47.1412 49.5561 47.217 49.848C47.4626 50.7938 47.7257 51.7303 48.1292 52.6323C48.4262 53.2961 48.8402 53.7556 49.5154 53.9741C50.0213 54.1378 50.5325 54.2999 51.0536 54.3978C51.6792 54.5154 52.3139 54.5109 52.9439 54.3601C53.4022 54.2505 53.8715 54.1876 54.3309 54.082C54.777 53.9795 55.2426 53.9065 55.654 53.7198C56.6541 53.2659 58.4343 51.7767 59.2382 51.036C59.2762 51.0009 59.314 50.9657 59.3519 50.9305C59.3595 50.981 59.3764 51.0321 59.3731 51.0819C59.3422 51.5475 58.1698 52.6593 57.7508 52.8616C57.6705 52.9003 57.6485 53.0596 57.5996 53.1633C57.689 53.2026 57.7774 53.2705 57.8681 53.2736C57.971 53.2772 58.075 53.2179 58.1807 53.1972C58.2099 53.1915 58.273 53.2218 58.2763 53.2425C58.3016 53.4037 58.3291 53.5664 58.3316 53.729C58.3386 54.1876 58.3429 54.6466 58.3291 55.1049C58.3244 55.2608 58.2793 55.4212 58.2241 55.5689C57.854 56.5589 57.4539 57.5384 57.1075 58.5366C56.7924 59.4445 56.4973 60.3627 56.2609 61.2935C56.0904 61.9653 55.9665 62.6625 55.937 63.3533C55.8959 64.3131 55.8796 65.2765 56.0721 66.2364C56.285 67.2982 56.6893 68.2715 57.2655 69.1739C57.8903 70.1525 58.5407 71.1151 59.2006 72.0704C59.3637 72.3065 59.5342 72.56 59.8221 72.6818C59.8957 72.7129 60.0882 72.676 60.1931 72.6129C60.309 72.5433 60.3469 72.4225 60.2696 72.2615C60.0051 71.7108 59.7624 71.1496 59.5138 70.5914C59.151 69.7769 58.7868 68.9629 58.4295 68.1459C57.8129 66.7358 57.5749 65.2414 57.543 63.7206C57.5244 62.833 57.6293 61.9422 57.6936 61.0539C57.7309 60.5388 57.7786 60.023 57.8559 59.5128C57.9827 58.6761 58.1505 57.8457 58.2769 57.009C58.4138 56.1026 58.6436 55.2269 59.0978 54.4272C59.4388 53.827 59.8839 53.306 60.5294 53.0175C61.3094 52.669 62.0442 52.2814 62.5886 51.5842C63.0957 50.9347 63.4035 50.211 63.4727 49.4046C63.5635 48.3472 63.3153 47.3636 62.6746 46.4959C62.136 45.7667 61.6249 45.0222 61.2238 44.2028C60.8179 43.3737 60.355 42.8434 59.5342 42.3373C59.4806 42.3042 59.423 42.2775 59.3672 42.2478ZM46.0359 49.5879C46.0071 49.6702 45.9572 49.7514 45.9527 49.8351C45.9108 50.6061 46.0238 51.3639 46.2815 52.0837C46.5023 52.7006 46.7678 53.3144 47.2129 53.8129C47.5646 54.2069 47.7975 54.7019 48.2422 55.0169C48.2817 55.0449 48.2914 55.1197 48.3077 55.1749C48.4508 55.6593 48.607 56.1405 48.7299 56.63L48.7627 56.7613C48.8652 57.1776 48.9528 57.5989 48.8992 58.0354C48.8916 58.0971 48.8921 58.1611 48.8991 58.2229C48.987 58.9991 49.0743 59.7755 49.167 60.5512C49.2425 61.1829 49.0158 61.7778 48.9496 62.3922C48.9075 62.7823 48.8498 63.1709 48.7895 63.5587C48.7244 63.9768 48.654 64.3943 48.5748 64.81C48.493 65.2391 48.4354 65.6787 48.2934 66.088C48.2155 66.3126 48.2416 66.4754 48.3183 66.6704C48.4817 67.0853 48.6261 67.5078 48.7925 67.9215C49.1807 68.8865 49.5512 69.8599 49.9789 70.8073C50.3041 71.5276 50.8721 72.0195 51.6459 72.247C52.021 72.3573 52.3583 72.226 52.422 71.9185C52.4525 71.7707 52.4352 71.6038 52.4008 71.4544C52.3665 71.3054 52.2444 71.1715 52.2297 71.0241C52.1898 70.6226 52.1862 70.2176 52.1687 69.8139C52.1657 69.7432 52.1702 69.6718 52.1629 69.6016C52.1124 69.1137 52.0564 68.6263 52.0087 68.1381C51.9654 67.6958 51.9411 67.2514 51.889 66.8102C51.8331 66.3368 51.7475 65.8669 51.6888 65.3937C51.6556 65.126 51.6635 64.8532 51.6295 64.5856C51.5683 64.1046 51.4706 63.6278 51.4224 63.1457C51.3515 62.437 51.3046 61.7256 51.2589 61.0146C51.215 60.333 51.1673 59.6508 51.1543 58.9682C51.1365 58.0303 51.1346 57.0915 51.1585 56.1539C51.1665 55.8387 51.2629 55.5232 51.3418 55.2137C51.3752 55.0828 51.3644 55.0629 51.2279 55.0451C50.791 54.988 50.3514 54.9319 49.9235 54.8305C49.2107 54.6614 48.6298 54.279 48.2571 53.6333C47.8625 52.9496 47.4863 52.2553 47.0753 51.5388C46.9868 51.4145 46.8916 51.2944 46.8112 51.1651C46.6623 50.9255 46.501 50.6902 46.3852 50.4348C46.297 50.2404 46.282 50.0139 46.2122 49.8094C46.1835 49.7253 46.0964 49.6611 46.0359 49.5879ZM58.5268 41.2708C58.5018 41.2735 58.4774 41.2807 58.4527 41.2858C58.4703 41.3111 58.4826 41.3442 58.5064 41.3604C58.8057 41.5642 59.1092 41.7618 59.4066 41.9682C60.0626 42.4234 60.6262 42.7077 61.0662 43.3748C61.6111 44.201 62.1455 45.0344 62.6753 45.8705C63.1811 46.6689 63.6573 47.47 63.7629 48.4523C63.8326 49.1014 63.7978 49.7262 63.6054 50.3338C63.1724 51.7007 62.2557 52.6621 60.9452 53.1999C60.0223 53.5787 59.4834 54.2649 59.1478 55.1396C58.9491 55.6574 58.827 56.2075 58.7036 56.7506C58.5452 57.4478 58.406 58.1502 58.2849 58.8549C58.1909 59.4021 58.1272 59.9552 58.0684 60.5076C57.9871 61.272 57.8733 62.0377 57.8653 62.8038C57.857 63.5939 57.9295 64.3886 58.0218 65.1748C58.0923 65.7746 58.2129 66.3742 58.3738 66.9567C58.8182 68.566 59.6452 70.0065 60.4265 71.4653C60.5551 71.7055 60.8195 71.7622 60.9739 71.5588C61.0657 71.438 61.1192 71.2197 61.078 71.0778C60.8681 70.3547 60.6021 69.6479 60.3926 68.9248C60.0661 67.7983 59.7693 66.6632 59.4599 65.4782C59.442 65.4588 59.4115 65.4414 59.4082 65.4198C59.3342 64.9495 59.2562 64.4797 59.1936 64.0079C59.1147 63.4132 58.9969 62.8173 58.9896 62.2208C58.9785 61.325 59.0071 60.4239 59.0982 59.5332C59.1679 58.8507 59.3249 58.1712 59.5057 57.5075C59.8269 56.3285 60.3424 55.2311 61.072 54.2458C61.3597 53.8573 61.6787 53.4905 62.0017 53.1301C62.3953 52.6909 62.8658 52.3093 63.2005 51.8309C63.8389 50.9184 64.1139 49.8567 64.1666 48.7548C64.1944 48.1741 64.1689 47.5754 64.0553 47.0072C63.9027 46.2439 63.6778 45.4896 63.419 44.7543C63.0091 43.5899 62.3836 42.561 61.3662 41.8073C60.5177 41.1787 59.5813 41.1563 58.5268 41.2708ZM58.8329 39.7821C58.3924 39.7694 57.9483 40.1432 57.5068 40.2033C57.4891 40.2057 57.4593 40.2928 57.4729 40.3239C57.5998 40.6138 57.8591 40.7683 58.1376 40.8328C58.6564 40.9528 59.1869 40.7562 59.7132 40.8424C60.9576 41.0465 61.8887 41.7766 62.6634 42.6985C63.3102 43.4683 63.7419 44.382 63.9926 45.3587C64.1806 46.0911 64.3675 46.8363 64.427 47.5859C64.4915 48.3992 64.4806 49.2221 64.2961 50.0398C64.0738 51.0251 63.6598 51.892 62.9767 52.6308C62.6223 53.014 62.2488 53.3798 61.8995 53.7675C61.3991 54.3228 60.994 54.9462 60.639 55.603C60.2442 56.3335 59.9297 57.0951 59.696 57.8931C59.434 58.7877 59.2721 59.7021 59.2585 60.6279C59.2476 61.3731 59.3347 62.1219 59.4121 62.8656C59.4727 63.448 59.5605 64.0302 59.6797 64.6034C59.8929 65.628 60.1204 66.6504 60.3773 67.6647C60.5784 68.4587 60.8234 69.2451 61.2258 69.9645C61.3218 70.136 61.5161 70.34 61.6868 70.3622C61.9611 70.3979 62.3753 69.7191 62.2995 69.4438C62.1934 69.0589 62.0869 68.6742 61.9796 68.2897C61.6276 67.0279 61.4665 65.731 61.4074 64.4323C61.3582 63.352 61.4377 62.2633 61.506 61.1813C61.5478 60.5184 61.6461 59.8552 61.7732 59.2026C61.9167 58.4655 62.125 57.7412 62.2978 57.0096C62.5076 56.1212 62.9918 55.3491 63.3424 54.5205C63.7285 53.6083 64.1463 52.7088 64.5093 51.7876C64.8107 51.0228 64.9855 50.2218 65.0996 49.4025C65.1954 48.7152 65.2445 48.0264 65.1288 47.3526C64.9993 46.5992 64.7825 45.8581 64.5644 45.1233C64.2705 44.1334 63.9286 43.1567 63.9634 42.0492C63.9842 41.5862 63.7023 41.2991 63.3643 41.0599C62.8087 40.6666 62.1582 40.4794 61.5261 40.2584C60.6554 39.9542 59.7494 39.8087 58.8329 39.7821ZM39.3044 66.9814C39.021 67.487 38.7474 67.9981 38.4436 68.5341C38.4058 68.6076 38.3679 68.681 38.3304 68.7546C38.1522 69.1045 37.8555 69.4223 38.1041 69.8716C38.1574 69.9678 38.171 70.0174 38.2864 70.0108C38.6975 69.987 39.1122 69.9955 39.5193 69.943C39.6701 69.9235 39.8816 69.7961 39.9256 69.6693C39.9849 69.4985 39.9196 69.2791 39.8886 69.0835C39.8451 68.81 39.7796 68.54 39.7321 68.267C39.7069 68.1227 39.6911 67.9755 39.6865 67.8291C39.6772 67.5392 39.7059 67.2552 39.4968 66.996C39.3982 66.8737 39.3569 66.8877 39.3044 66.9814ZM64.3398 42.578C64.373 42.9386 64.3641 43.3113 64.4567 43.6565C64.6736 44.4648 64.9529 45.2561 65.1825 46.0613C65.3715 46.7241 65.5294 47.3971 65.5162 48.094C65.5097 48.4353 65.4817 48.7762 65.4647 49.1173C65.4264 49.8904 65.2205 50.6291 64.9957 51.3625C64.5385 52.854 63.8005 54.227 63.1854 55.6522C62.9174 56.273 62.6993 56.9216 62.5259 57.5754C62.3386 58.2818 62.211 59.0059 62.0928 59.7281C61.993 60.3372 61.8907 60.954 61.8836 61.5685C61.8685 62.8582 61.8084 64.1513 61.9782 65.4378C62.0412 65.9147 62.087 66.3939 62.1406 66.9257C62.2299 67.5142 62.3021 68.1062 62.4203 68.6888C62.451 68.8399 62.6067 69.0536 62.7373 69.0802C63.1664 69.1678 63.5147 68.9634 63.6917 68.5569C63.9614 67.9377 64.1605 67.3221 63.9783 66.6101C63.8022 65.9216 63.7317 65.2037 63.6464 64.4949C63.5543 63.7287 63.4723 62.9594 63.4343 62.1891C63.3921 61.333 63.3999 60.4712 63.5937 59.6303C63.7373 59.007 63.9009 58.3847 64.1103 57.7809C64.4865 56.6963 64.9452 55.6392 65.2935 54.5464C65.7549 53.0986 65.9874 51.5978 66.1003 50.084C66.1463 49.4678 66.1003 48.8452 66.1097 48.2258C66.1235 47.3275 66.0521 46.4369 65.892 45.5539C65.7928 45.0071 65.7104 44.4543 65.5635 43.9199C65.3965 43.3122 65.0432 42.8228 64.4771 42.4987C64.3254 42.4119 64.3295 42.4657 64.3398 42.578ZM65.9132 43.7452C65.9245 43.8143 65.9358 43.8834 65.9471 43.9793C66.0722 44.6869 66.2307 45.3906 66.3135 46.103C66.4059 46.8982 66.4592 47.7008 66.4738 48.5011C66.4852 49.1286 66.4312 49.7596 66.3708 50.3856C66.3043 51.0744 66.2358 51.7671 66.0986 52.4439C65.9096 53.3762 65.6939 54.3069 65.4178 55.2164C65.1688 56.0363 64.8312 56.8301 64.5181 57.6296C63.9571 59.062 63.6872 60.5422 63.7475 62.0814C63.7577 62.3401 63.7283 62.6015 63.7531 62.8581C63.8117 63.464 63.8838 64.0689 63.9663 64.6721C64.0201 65.0654 64.1154 65.4532 64.1669 65.8467C64.2218 66.2664 64.3163 66.6995 64.261 67.1087C64.2234 67.3867 64.3501 67.5525 64.4312 67.7576C64.4531 67.813 64.5714 67.853 64.6488 67.8594C64.8607 67.8769 65.1947 67.57 65.3049 67.2926C65.583 66.5928 65.6534 65.8539 65.6676 65.1158C65.6762 64.6747 65.562 64.2323 65.5205 63.7888C65.461 63.1522 65.3608 62.5122 65.3815 61.8769C65.4065 61.1067 65.5078 60.3346 65.6346 59.5731C65.7512 58.8728 65.8858 58.1649 66.1172 57.4965C66.6724 55.8926 67.0039 54.2529 67.0701 52.56C67.1041 51.6926 67.1145 50.8241 67.1233 49.9559C67.1262 49.6687 67.088 49.3813 67.0736 49.0937C67.0531 48.6814 67.0625 48.2658 67.0138 47.857C66.9262 47.1219 66.8594 46.3772 66.681 45.6622C66.5296 45.0556 66.233 44.4853 66.0007 43.8721C65.9715 43.8298 65.9424 43.7875 65.9132 43.7452ZM67.252 46.5345C67.2281 46.5692 67.1922 46.6012 67.1831 46.6394C67.1712 46.6902 67.176 46.7463 67.1808 46.7994C67.2334 47.3758 67.3025 47.951 67.3369 48.5284C67.3732 49.1362 67.3746 49.746 67.3966 50.3548C67.4006 50.464 67.4304 50.5722 67.4483 50.7346C67.4304 51.2006 67.4261 51.6676 67.3916 52.1324C67.3309 52.9521 67.2994 53.7783 67.1668 54.5872C67.0333 55.4009 66.8372 56.2114 66.5869 56.9973C66.169 58.3097 65.8242 59.6356 65.7438 61.0108C65.6995 61.7678 65.7548 62.5322 65.79 63.2921C65.8268 64.0865 65.8882 64.88 65.9503 65.673C65.9694 65.9172 65.9949 66.1696 66.0762 66.3974C66.1358 66.5644 66.2912 66.6972 66.4039 66.8453C66.5532 66.6956 66.7546 66.5708 66.8405 66.3909C66.9998 66.0575 67.1223 65.6987 67.2036 65.3377C67.2988 64.9152 67.3725 64.4799 67.3823 64.0485C67.39 63.7059 67.2553 63.3622 67.2409 63.0165C67.2156 62.4072 67.213 61.7951 67.2393 61.1858C67.2689 60.5014 67.3276 59.8174 67.3984 59.1358C67.4708 58.4386 67.5782 57.7452 67.6614 57.049L67.743 56.3693C67.8106 55.8028 67.8757 55.236 67.9264 54.6679C67.9838 54.0237 68.0269 53.3762 68.0319 52.7298C68.0387 51.871 68.0109 51.0116 67.9813 50.153C67.962 49.5956 67.9257 49.0381 67.8738 48.4828C67.8126 47.8283 67.621 47.2084 67.3086 46.6279C67.2914 46.5959 67.271 46.5656 67.252 46.5345ZM80.0336 62.0844C80.5159 62.196 81.0003 62.3002 81.4866 62.3924C81.7634 62.4448 82.0459 62.4669 82.3527 62.5026C83.0361 62.5562 83.6919 62.639 84.3494 62.6572C85.5875 62.6915 86.7939 62.4896 87.9607 62.0671C87.9759 62.0616 87.986 62.0321 87.9989 62.0317C88.1124 62.0285 88.2259 62.0294 88.3394 62.029C88.2636 62.0975 88.1968 62.1811 88.1107 62.2322C87.4679 62.6133 86.7828 62.8622 86.0402 62.9956C85.2141 63.1439 84.3854 63.1218 83.565 63.0755C82.6615 63.0246 81.7608 62.895 80.8713 62.6772C80.1169 62.4925 79.391 62.2467 78.6744 61.9594C78.6294 61.9414 78.5898 61.9098 78.5477 61.8846C78.5888 61.8761 78.6302 61.8688 78.6711 61.8591C79.1571 61.7438 79.5837 61.9804 80.0336 62.0844ZM80.4527 55.2683C80.7471 55.3758 81.0393 55.4896 81.3286 55.6102C81.5037 55.6833 81.672 55.7726 81.8568 55.868C82.6874 56.2407 83.5273 56.5093 84.4115 56.6705C85.2553 56.8244 86.0993 56.8455 86.9443 56.8084C87.4747 56.7851 88 56.6511 88.5282 56.5701C88.5927 56.5602 88.6604 56.5711 88.7266 56.5723C88.6864 56.6343 88.6609 56.7213 88.6039 56.7546C88.0431 57.0826 87.4488 57.3046 86.7918 57.3588C85.2179 57.4886 83.7432 57.0952 82.3247 56.4805C81.6576 56.1914 81.0423 55.7824 80.406 55.4233C80.352 55.3929 80.3169 55.3289 80.273 55.2805C80.3333 55.2753 80.4012 55.2494 80.4527 55.2683ZM38.8938 55.2704C38.8499 55.3679 38.8117 55.4684 38.761 55.5622C38.6575 55.7535 38.4888 55.9272 38.5532 56.1684C38.6512 56.5357 38.7643 56.8989 38.8755 57.2625C38.881 57.2807 38.9534 57.2977 38.9547 57.2951C38.9843 57.2366 39.0083 57.1753 39.0333 57.0609C39.0835 56.975 39.1178 56.8717 39.1878 56.8073C39.2835 56.7192 39.2961 56.651 39.2532 56.5252C39.1439 56.2046 39.0613 55.8748 38.9687 55.5485C38.9425 55.4562 38.9187 55.3631 38.8938 55.2704ZM39.4919 53.8737C39.4641 53.9048 39.427 53.9315 39.4102 53.9677C39.3095 54.1836 39.1845 54.3938 39.1221 54.6208C38.987 55.1117 39.22 55.5679 39.3014 56.0384C39.3371 56.0219 39.3911 56.0151 39.4058 55.9874C39.5606 55.6965 39.7221 55.4078 39.8525 55.1059C39.8987 54.999 39.8962 54.8475 39.8599 54.7342C39.8079 54.5719 39.7045 54.426 39.6231 54.2194C39.6052 54.1468 39.5924 54.0724 39.5676 54.0023C39.5514 53.9562 39.5177 53.9164 39.4919 53.8737ZM40.1149 51.3511C40.0939 51.4067 40.0537 51.4628 40.0551 51.5179C40.0649 51.9157 39.9547 52.2809 39.8118 52.6492C39.7219 52.8806 39.6711 53.1239 39.7105 53.4036C39.7526 53.702 39.9463 53.8665 40.0817 54.0842C40.1429 54.1826 40.231 54.2642 40.3069 54.3534C40.3738 54.2641 40.4408 54.1747 40.5345 54.0586C40.6416 53.8621 40.7537 53.6681 40.8548 53.4687C41.0795 53.0257 41.0771 53.0248 40.7217 52.6368C40.6928 52.6053 40.6668 52.5709 40.642 52.5361C40.4199 52.2254 40.2967 51.876 40.2263 51.5033C40.2158 51.4475 40.1534 51.4016 40.1149 51.3511ZM40.8769 49.5879C40.8518 49.631 40.8242 49.6728 40.8018 49.7173C40.6939 49.931 40.6087 50.1598 40.4756 50.3563C40.2698 50.6603 40.4136 50.9439 40.4823 51.2333C40.6061 51.7551 40.7732 52.259 41.1339 52.6746C41.2172 52.7706 41.2163 52.7715 41.3119 52.5842C41.4882 52.3364 41.6585 52.0839 41.8436 51.8428C41.9303 51.7299 42.0079 51.6591 41.864 51.5169C41.7026 51.3574 41.5477 51.1716 41.4534 50.9679C41.2637 50.5575 41.1177 50.1268 40.9514 49.7055C40.9346 49.6631 40.9021 49.6269 40.8769 49.5879ZM48.5845 51.3072C48.7729 51.3943 48.956 51.5089 49.1126 51.6455C49.5471 52.0247 50.0423 52.1968 50.6167 52.1585C50.697 52.1532 52.4048 52.067 52.2771 52.2865C52.19 52.4363 50.9003 52.6844 50.7526 52.6864C50.1585 52.6943 49.4455 52.4104 49.1471 52.2865C49.0266 52.2365 48.1385 51.7017 48.3052 51.3881C48.3698 51.2667 48.5181 51.2765 48.5845 51.3072ZM41.718 48.2644C41.6273 48.4039 41.4976 48.5328 41.4559 48.6857C41.4047 48.8734 41.2227 49.0205 41.2844 49.2421C41.4117 49.6988 41.5097 50.1657 41.6697 50.6105C41.7704 50.8907 41.9609 51.1387 42.1156 51.3986C42.119 51.4043 42.1891 51.3884 42.2047 51.3662C42.4147 51.0655 42.6968 50.8566 43.0543 50.681C43.1445 50.6184 43.2296 50.5459 43.3263 50.4959C43.4397 50.4373 43.4259 50.4239 43.3245 50.3552C42.6809 49.9195 42.2347 49.3129 41.8763 48.6354C41.8136 48.5169 41.7703 48.3883 41.718 48.2644ZM12.0804 43.0535C12.0993 43.082 12.1164 43.1121 12.1375 43.139C12.6615 43.8065 13.1861 44.4736 13.71 45.1413C13.7625 45.2082 13.8114 45.278 13.8754 45.3599C14.4005 45.9028 14.8885 46.4582 15.43 46.9554C16.0865 47.5581 16.7855 48.1149 17.4711 48.6856C17.9647 49.0964 18.4577 49.5192 19.0701 49.7412C19.4601 49.8825 19.8687 50.0187 20.2777 50.0522C21.1888 50.127 22.1063 50.1216 23.0191 50.1802C23.2961 50.198 23.5676 50.3145 23.8385 50.3961C23.8786 50.4082 23.9933 50.4723 23.8175 50.4983C23.3074 50.5736 22.8031 50.6911 22.2919 50.7543C21.9809 50.7927 21.6612 50.7652 21.3455 50.7606C20.533 50.7487 19.7656 50.5406 19.0168 50.2363C18.0629 49.8486 17.2087 49.3044 16.4437 48.6212C15.9182 48.1518 15.3699 47.6988 14.9031 47.175C14.0694 46.2398 13.2751 45.2682 12.4958 44.2868C12.2448 43.9708 12.0841 43.5794 12.0668 43.1547C12.0654 43.1212 12.0756 43.0872 12.0804 43.0535ZM42.5027 46.8947C42.2656 47.1937 41.9616 47.4749 42.0418 47.9045C42.0994 48.2127 42.2084 48.5121 42.3049 48.8121C42.5141 49.4622 43.0504 49.8281 43.5517 50.2211C43.5785 50.2421 43.6707 50.2207 43.7017 50.189C44.1214 49.7595 44.5356 49.3247 44.9513 48.8912C45.031 48.8082 45.1432 48.7363 44.9045 48.7169C44.7437 48.7039 44.5893 48.6206 44.4307 48.5733C44.2317 48.5139 44.0314 48.4591 43.7781 48.4024C43.5908 48.233 43.4197 48.0399 43.2128 47.8996C42.8608 47.6609 42.6429 47.3507 42.5691 46.9341C42.5661 46.9167 42.5053 46.8914 42.5027 46.8947ZM55.4704 45.08L55.2871 45.1412C54.8188 45.2979 54.3542 45.4646 53.9785 45.8136C53.5472 46.2142 53.3262 46.7291 53.1908 47.2826C53.1635 47.3945 53.1444 47.5056 53.1342 47.6155C53.1438 47.5744 53.1563 47.5345 53.1696 47.4981C53.2056 47.3993 53.2964 47.3181 53.3705 47.2359L53.4005 47.2032C53.5464 47.0469 53.703 46.9276 53.9382 47.0808C54.1973 47.2495 54.0829 47.4596 54.0105 47.665C53.986 47.7344 53.9492 47.7993 53.9045 47.8797C53.7839 48.0793 53.6188 48.1878 53.413 48.125C53.3012 48.091 53.1768 47.978 53.1347 47.8707C53.1314 47.8622 53.1285 47.8534 53.1262 47.8444C53.1348 48.2214 53.2566 48.5783 53.5153 48.8943C53.7415 49.1706 54.0175 49.4118 54.2957 49.6387C54.9692 50.188 55.7252 50.2845 56.491 49.8858C57.4666 49.3778 57.9522 48.4574 58.3876 47.4642C58.415 47.2413 58.4768 47.0161 58.4622 46.796C58.4336 46.364 58.1553 46.0584 57.8422 45.7976C57.1556 45.2257 56.4271 44.7589 55.4704 45.08ZM43.5089 44.9187C43.4467 44.991 43.3803 45.0602 43.3242 45.137C43.296 45.1756 43.2832 45.2269 43.2693 45.2741C43.1433 45.7035 42.9918 46.1279 42.9032 46.565C42.8477 46.8392 42.9194 47.1239 43.1079 47.4106C43.3214 47.5625 43.5345 47.715 43.7485 47.8661C44.1801 48.171 44.6896 48.2688 45.1865 48.3958C45.2271 48.4061 45.3244 48.3328 45.3397 48.2817C45.4785 47.818 45.6054 47.3507 45.7318 46.8834C45.7343 46.8741 45.6907 46.8408 45.6661 46.8375C45.2285 46.7795 44.7955 46.7545 44.425 46.4365C44.0199 46.0887 43.7712 45.6609 43.591 45.1767C43.5596 45.0922 43.5361 45.0048 43.5089 44.9187ZM48.565 43.0385C48.0465 43.1251 47.7054 43.5044 47.4073 43.9147C47.0427 44.4168 46.8368 44.9846 46.8167 45.5963C46.8001 46.1036 46.9446 46.5918 47.1801 47.0499L47.2174 47.1227C47.3604 47.4011 47.5056 47.6666 47.8143 47.8156C48.5792 48.1848 49.3809 48.3079 50.2146 48.181C50.464 48.143 50.7559 48.0844 50.9335 47.9277C51.6141 47.3274 51.9908 46.5542 52.0881 45.6145C52.0792 45.4112 52.0822 45.2065 52.0591 45.0048C51.9898 44.4027 51.6735 43.9447 51.2065 43.5767C50.7959 43.2532 50.3156 43.0678 49.8137 43.0012C49.4052 42.947 48.9733 42.9704 48.565 43.0385ZM49.864 39.2083C49.5861 40.046 49.3097 40.8843 49.0378 41.724C49.0983 41.7118 49.1625 41.6878 49.2128 41.7049C49.515 41.8074 49.8057 41.9301 50.0419 42.1615C50.1749 42.2916 50.3375 42.3915 50.5001 42.5184C50.5346 42.5477 50.5686 42.5753 50.6018 42.6021C50.6219 42.6073 50.6418 42.6128 50.6617 42.6185C51.2702 42.7908 51.7952 43.1126 52.1688 43.6446C52.6684 44.3559 52.7898 45.1861 52.919 46.0142C52.9256 46.0564 52.9306 46.0988 52.9364 46.1411C52.9795 46.1222 53.0296 46.1117 53.0643 46.0826C53.1325 46.0255 53.1928 45.9587 53.2552 45.8948C53.7426 45.3949 54.2894 44.9664 54.9191 44.6695C55.5885 44.354 56.2774 44.2759 57.0019 44.5641C57.5459 44.7805 57.9827 45.1281 58.4076 45.504C58.5928 45.6679 59.4639 46.0832 61.0208 46.7498C60.7663 45.6746 60.504 44.902 60.2339 44.4322C59.8938 43.8404 59.5103 43.3883 59.0321 42.9461C58.1969 42.1736 57.3232 41.4638 56.3535 40.8642C55.3331 40.2333 54.2307 39.8146 53.0824 39.5068C52.2755 39.2904 51.4577 39.1147 50.6457 38.9169C50.291 38.8305 49.9498 38.9496 49.864 39.2083ZM44.5645 43.9024C44.1381 44.1915 43.7978 44.6846 43.9915 45.2917C44.2061 45.9648 44.9652 46.5464 45.6855 46.5722C45.7537 46.5747 45.8585 46.4888 45.8895 46.4188C45.9763 46.2231 46.0378 46.0155 46.098 45.8093C46.1094 45.77 46.0701 45.6745 46.0527 45.6741C45.5957 45.6641 45.3037 45.3716 44.9844 45.0516C44.7782 44.7142 44.6372 44.3581 44.6583 43.9523C44.6592 43.9362 44.5792 43.8925 44.5645 43.9024ZM22.1957 44.6246C22.4326 44.7425 22.6686 44.8641 22.8953 45.0003C23.367 45.2838 23.8228 45.5951 24.3046 45.8595C24.5614 46.0004 24.8599 46.0648 25.1372 46.17C25.1983 46.1932 25.2492 46.2434 25.3049 46.2812C25.2475 46.3091 25.1802 46.3259 25.1345 46.3669C24.8013 46.6653 24.4878 46.3893 24.1767 46.325C23.5339 46.1921 23.0848 45.7513 22.6411 45.2794C22.4461 45.1023 22.2616 44.9416 22.085 44.7726C22.0427 44.732 22.0271 44.6636 21.9991 44.6079C22.0652 44.6124 22.141 44.5974 22.1957 44.6246ZM47.6896 45.116C47.9154 45.2116 47.8956 45.3931 47.8834 45.5688C47.8632 45.8602 47.4666 46.2408 47.2128 46.1939C47.1222 46.1772 46.9861 46.0397 46.9882 45.9604C46.9937 45.7548 47.0644 45.551 47.1225 45.333C47.1611 45.2944 47.1867 45.2695 47.2115 45.2439C47.3452 45.1059 47.4823 45.0282 47.6896 45.116ZM45.3329 43.0947C45.2524 43.2128 45.1419 43.3205 45.0967 43.4508C44.8751 44.0894 45.28 45.0855 46.1239 45.328C46.1642 45.3396 46.2541 45.3031 46.2661 45.2695C46.3991 44.8966 46.522 44.5201 46.6447 44.1436C46.6525 44.1197 46.6362 44.0633 46.6306 44.0632C46.0026 44.0546 45.6974 43.6682 45.515 43.1272C45.5037 43.0938 45.4133 43.087 45.3329 43.0947ZM56.3616 44.2535C56.415 44.2819 56.4592 44.3275 56.5076 44.3652C56.4551 44.3527 56.403 44.337 56.3498 44.3283C55.8005 44.2381 55.2506 44.1512 54.7019 44.0573C54.6253 44.0441 54.5544 43.9976 54.4809 43.9666C54.5613 43.944 54.6417 43.9215 54.749 43.8989C55.3333 43.8877 55.8658 43.9904 56.3616 44.2535ZM46.67 41.4359C46.6085 41.5264 46.5461 41.6162 46.4867 41.708C46.4785 41.7206 46.492 41.7464 46.4846 41.7603C46.3143 42.0823 46.1504 42.4081 45.9677 42.723C45.8655 42.8991 45.8597 43.2443 46.0122 43.3374C46.2299 43.4704 46.4667 43.5725 46.6973 43.6837C46.8504 43.7576 46.9429 43.6639 47.0202 43.5509C47.1672 43.3359 47.3019 43.112 47.4583 42.9042C47.5806 42.7418 47.4598 42.7755 47.3434 42.7462C46.7874 42.6072 46.7235 42.1422 46.6494 41.6886C46.6362 41.6077 46.6621 41.5203 46.67 41.4359ZM47.5797 40.1509C47.5009 40.2148 47.3927 40.2628 47.3482 40.3451C47.1017 40.8017 47.0097 41.3011 47.0269 41.8132C47.0404 42.214 47.2867 42.4874 47.6746 42.5902C47.7283 42.6045 47.8045 42.5828 47.8545 42.5521C47.9837 42.4726 48.1041 42.3787 48.2548 42.2637C48.3084 42.1701 48.3767 42.0816 48.4121 41.9815C48.4618 41.8409 48.4941 41.6927 48.5191 41.5453C48.5278 41.4937 48.5113 41.4099 48.475 41.3829C48.1157 41.1164 47.8485 40.7788 47.6656 40.3727C47.6331 40.3006 47.6081 40.225 47.5797 40.1509ZM49.0308 41.7466L48.9206 42.087C48.9084 42.1249 48.9608 42.2226 48.9977 42.2315C49.3249 42.31 49.6553 42.3767 49.9838 42.4502C49.8032 42.317 49.6227 42.1833 49.4413 42.0508C49.3469 41.9819 49.2419 41.9275 49.1467 41.8594C49.1034 41.8284 49.0681 41.786 49.0308 41.7466ZM49.2043 37.8328C49.0173 37.9909 48.8388 38.1591 48.6301 38.3499C48.2781 38.6205 48.1338 39.0082 48.046 39.4195C47.9291 39.9669 47.987 40.4747 48.4266 40.8833C48.5756 41.0217 48.6735 40.9629 48.7351 40.8115C48.9248 40.3456 49.1052 39.8759 49.2882 39.4073C49.4802 38.9153 49.5883 38.4252 49.3908 37.8973C49.3302 37.7353 49.2859 37.7639 49.2043 37.8328ZM55.9001 38.3325C55.6666 38.385 55.401 38.7431 55.3065 39.0207C55.2649 39.1427 55.2038 39.2371 55.4407 39.3019C55.9598 39.4441 56.4554 39.6708 56.9133 40.0374C57.0163 40.0416 57.1228 40.0645 57.2218 40.0466C57.5938 39.9793 57.9619 39.5803 58.3344 39.5689C58.836 39.5536 59.3442 39.6003 59.8424 39.6711C60.3565 39.7441 60.8751 39.837 61.368 39.9953C62.0188 40.2043 62.6464 40.4858 63.2842 40.7352C63.3267 40.7518 63.3721 40.761 63.4161 40.7737C63.4046 40.7369 63.3872 40.7008 63.3826 40.6632C63.3526 40.415 63.1865 40.2598 62.9915 40.1496C62.4355 39.8355 61.8806 39.5163 61.3057 39.2395C60.3439 38.7764 59.3504 38.4157 58.2803 38.2579C57.4737 38.1389 56.6851 38.1561 55.9001 38.3325ZM55.3322 36.9298C54.5407 36.9629 53.8761 37.2625 53.3791 37.892C53.1386 38.1967 53.1926 38.6417 53.5588 38.7488C54.0136 38.8817 54.4725 39.0008 54.9832 39.1259C55.0906 38.9651 55.1652 38.4933 55.3116 38.3852C55.7201 38.0834 56.2056 37.9605 56.7082 37.953C57.1468 37.9464 57.5899 37.9542 58.0243 38.0091C58.5415 38.0743 59.0618 38.1603 59.5627 38.3014C60.6659 38.6122 61.6918 39.1139 62.6945 39.663C62.7553 39.6963 62.8201 39.7225 62.8831 39.7519C62.8822 39.6563 62.8929 39.5585 62.8753 39.466C62.8671 39.4225 62.8099 39.3811 62.7659 39.3527C62.3719 39.098 61.9934 38.8118 61.5768 38.6012C60.707 38.1617 59.8194 37.7616 58.8757 37.4913C57.7153 37.1589 56.5508 36.8788 55.3322 36.9298ZM53.6885 35.1C52.8088 35.1966 52.0416 35.4909 51.4501 36.1726C51.1073 36.5677 50.9025 37.0182 50.8818 37.5994C50.8818 37.6799 50.8656 38.0315 50.8859 38.1064C50.9114 38.2003 50.9521 38.3504 51.0122 38.3643C51.2773 38.4257 51.5513 38.4526 51.8235 38.4763C51.8632 38.4797 51.9422 38.4031 51.9486 38.356C51.9781 38.1414 51.956 37.6489 52.0108 37.4426C52.223 36.6441 52.796 36.1855 53.5378 35.9128C54.1611 35.6838 54.8094 35.6794 55.4679 35.6865C56.4451 35.6971 57.3997 35.8383 58.3392 36.0795C58.7199 36.1773 59.0784 36.3627 59.4439 36.5158C59.4911 36.5356 59.5193 36.6009 59.5563 36.6452C59.5016 36.6369 59.4441 36.6368 59.3926 36.6191C58.15 36.19 56.8645 35.9889 55.558 35.9137C54.9172 35.8768 54.2746 35.9429 53.6667 36.1353C52.9946 36.348 52.43 36.7289 52.2009 37.4587C52.0772 37.8526 52.2551 38.4675 52.6394 38.6095C52.8637 38.6924 52.9442 38.5883 53.0315 38.4056C53.1426 38.1733 53.2599 37.6642 53.4295 37.4753C53.9638 36.8801 54.6863 36.6829 55.4476 36.6726C55.9517 36.6658 56.4634 36.7361 56.9609 36.8295C57.7093 36.97 58.4607 37.1194 59.1881 37.3402C60.2762 37.6705 61.316 38.1273 62.276 38.7497C62.3448 38.7943 62.4345 38.8066 62.5144 38.8339C62.4901 38.755 62.4752 38.6716 62.44 38.5979C62.0033 37.6816 61.4704 36.8318 60.6964 36.1579C60.2426 35.7628 59.7255 35.4688 59.1395 35.3257C58.7146 35.2219 58.286 35.196 57.8383 35.252C57.4167 35.3048 56.9792 35.2344 56.549 35.2123C56.3416 35.2017 56.1332 35.1888 55.9281 35.158C55.1835 35.0461 54.4412 35.0173 53.6885 35.1ZM50.6384 36.7684C50.6082 36.7814 50.574 36.7892 50.5484 36.8084C50.3918 36.9262 50.2515 37.0766 50.0786 37.1595C49.7986 37.2936 49.8489 37.5064 49.8867 37.7294C49.8922 37.7616 49.9135 37.7918 49.9156 37.8237C49.9264 37.9894 49.9333 38.1553 49.9415 38.3211C49.9789 38.5534 50.2646 38.5534 50.4529 38.5094C50.4887 38.3728 50.5392 38.2381 50.5572 38.0992C50.5991 37.7755 50.6261 37.1831 50.6568 36.858C50.6595 36.829 50.645 36.7983 50.6384 36.7684ZM40.3192 21.8025C40.3688 21.8625 40.3312 22.0003 40.3203 22.1025C40.3134 22.1674 40.2652 22.2315 40.2695 22.2937C40.3183 23.0133 40.3922 23.7318 40.4217 24.4521C40.4481 25.0943 40.4262 25.7384 40.4286 26.3817C40.4289 26.4663 40.4384 26.6218 40.4586 26.6243C40.6166 26.6438 40.7783 26.6364 40.9385 26.628C40.9488 26.6275 40.9656 26.5497 40.9614 26.5098C40.9491 26.3915 40.9224 26.2747 40.9107 26.1564C40.8375 25.4179 40.7433 24.6804 40.7025 23.9399C40.6677 23.3075 40.6833 22.6712 40.7081 22.0378C40.7119 21.9407 40.8788 21.7832 40.9819 21.7733C41.1186 21.7601 41.1974 21.896 41.1823 22.0669C41.1636 22.2797 41.1619 22.4967 41.1808 22.7095C41.2446 23.431 41.3197 26.423 41.3447 26.6007C41.3472 26.6183 41.4337 26.634 41.4812 26.6341C42.7945 26.6359 44.108 26.6462 45.4212 26.6306C46.0053 26.6237 46.5886 26.5615 47.1726 26.5291C47.5759 26.5068 47.9818 26.5126 48.3829 26.4708C49.5019 26.3541 50.6224 26.3106 51.7474 26.305C52.3151 26.3021 52.8817 26.1988 53.4499 26.1549C54.2401 26.0938 55.0307 26.0275 55.8224 25.9968C56.788 25.9593 57.755 25.9531 58.7215 25.942C58.869 25.9403 58.9367 25.9317 58.929 25.7497C58.8984 25.0339 58.8901 24.3173 58.8695 23.6011C58.8553 23.1081 58.8366 22.6152 58.8152 22.1224C58.809 21.9803 58.8506 21.9135 59.0073 21.9136C59.1698 21.9136 59.1912 21.9927 59.1944 22.1285C59.2056 22.6037 59.1741 23.0883 59.258 23.5514C59.3834 24.244 59.3315 24.9349 59.353 25.6267C59.3612 25.8911 59.4854 25.9891 59.736 25.9394C59.8526 25.9163 59.9711 25.8873 60.0889 25.8872C62.5368 25.8842 64.9848 25.8805 67.4328 25.8874C68.2474 25.8896 70.3953 25.918 71.2097 25.9403C71.426 25.9463 71.6421 25.97 71.8575 25.9933C72.0852 26.018 72.2635 26.253 72.2655 26.5333C72.2689 27.0158 72.2664 27.4982 72.2664 27.9807C72.2664 28.0253 72.2641 28.0702 72.2669 28.1147C72.275 28.2467 72.3377 28.4601 72.2841 28.4946C72.1521 28.5799 71.9681 28.6079 71.8032 28.6151C70.7998 28.659 68.4629 28.7013 67.4589 28.7237C66.171 28.7526 64.8828 28.764 63.5947 28.7796C61.9583 28.7993 60.3217 28.8128 58.6853 28.8351C58.0225 28.8441 57.3599 28.868 56.6973 28.8877C56.1686 28.9034 55.64 28.9254 55.1113 28.9403C54.3951 28.9605 53.6788 28.9784 52.9625 28.994C52.0586 29.0138 51.1547 29.0294 50.2508 29.0483C49.4541 29.065 48.6575 29.0838 47.8608 29.1017C47.0641 29.1196 46.2672 29.1298 45.4708 29.1576C44.7527 29.1826 44.0349 29.2223 43.3175 29.2641C42.8493 29.2914 42.381 29.3234 41.9147 29.3725C41.3445 29.4325 40.7771 29.5187 40.2073 29.5822C39.7944 29.6282 39.38 29.6682 38.9652 29.6889C38.0781 29.733 37.1896 29.7517 36.303 29.8029C35.7788 29.8332 32.5911 29.9143 32.0673 29.9547C31.8984 29.9677 31.7218 29.938 31.5555 29.899C31.4879 29.8831 31.3978 29.7967 31.3875 29.7315C31.3367 29.4092 31.3047 29.0836 31.2748 28.7583C31.2501 28.4894 31.2192 28.2189 31.2258 27.9499C31.2309 27.7465 31.2867 27.5517 31.241 27.3372C31.2276 27.2742 31.4593 27.0965 31.5948 27.0756C32.022 27.0095 35.1246 27.0028 35.5551 26.9547C36.0986 26.8939 36.64 26.8145 37.1826 26.7448C37.2352 26.738 37.2894 26.7448 37.3428 26.7425C38.1678 26.7071 38.9926 26.6663 39.818 26.6403C39.9599 26.6358 39.9464 26.5712 39.9458 26.4787C39.9433 26.1213 39.9378 25.7638 39.9467 25.4067C39.9555 25.0565 39.9805 24.7068 39.9984 24.3301C39.9289 23.805 39.8463 23.308 39.7951 22.8078C39.7653 22.5166 39.7692 22.2188 39.7948 21.9273C39.8018 21.8466 39.9308 21.7368 40.0218 21.7146C40.1128 21.6924 40.2624 21.7337 40.3192 21.8025ZM67.5303 26.2633C64.9648 26.2733 62.3993 26.2931 59.8338 26.315C58.5279 26.3261 57.2217 26.3355 55.9165 26.3735C55.2855 26.3919 54.6567 26.479 54.0264 26.5272C53.2628 26.5855 52.4986 26.6359 51.7346 26.6889C51.4562 26.7082 51.1776 26.7244 50.8992 26.7428C50.0905 26.7962 49.2826 26.864 48.4731 26.8996C47.6594 26.9354 46.8443 26.9393 45.9762 26.9572C45.7692 26.975 45.5624 27.0061 45.3553 27.0087C43.6564 27.0303 41.9573 27.0384 40.2586 27.0683C39.5404 27.0809 38.823 27.1352 38.1053 27.1719C37.791 27.188 37.4763 27.2007 37.1628 27.2265C36.3434 27.2942 32.858 27.3702 32.0386 27.4382C31.8452 27.4543 31.7342 27.5023 31.7502 27.7404C31.7863 28.2767 31.8 28.8151 31.8044 29.3527C31.8057 29.5105 31.8495 29.5454 31.9959 29.533C32.4898 29.491 35.6512 29.4586 36.1457 29.4235C36.6579 29.3871 37.1699 29.347 37.6826 29.3173C38.3822 29.2768 39.0823 29.2462 39.7821 29.2072C39.8825 29.2016 39.9812 29.1689 40.0816 29.156C40.5148 29.1007 40.9477 29.0417 41.382 28.9963C41.804 28.9522 42.2272 28.9158 42.6507 28.8887C43.5662 28.8303 44.4818 28.7683 45.3982 28.7299C46.221 28.6954 47.0449 28.6911 47.8683 28.6727C48.6382 28.6554 49.408 28.6358 50.1778 28.6195C51.0906 28.6002 52.0033 28.5811 52.9161 28.5661C54.1415 28.546 55.367 28.5327 56.5924 28.5107C57.2015 28.4998 57.8105 28.4772 58.4195 28.458C58.9392 28.4417 59.4587 28.416 59.9785 28.4061C61.1324 28.3839 62.2864 28.3677 63.4404 28.3514C64.8088 28.3322 66.1774 28.3239 67.5455 28.2946C68.5048 28.274 70.7969 28.2277 71.7556 28.1853C71.8024 28.1833 71.8844 28.11 71.8853 28.0686C71.8946 27.6132 71.8909 27.1575 71.8913 26.7019C71.8917 26.5088 71.7799 26.3998 71.6059 26.3711C71.4015 26.3375 71.1928 26.3221 70.9854 26.3156C70.2783 26.2931 68.2375 26.2606 67.5303 26.2633ZM60.1067 21.518C60.1714 22.4516 60.239 23.3852 60.3219 24.3173C60.3487 24.6185 60.417 24.9169 60.4802 25.2136C60.5349 25.4701 60.3837 25.6501 60.0631 25.6571C59.996 25.4608 59.919 25.2812 59.8937 25.0945C59.8417 24.7104 59.7997 24.3231 59.7852 23.936C59.7552 23.1326 59.7455 22.3285 59.7283 21.5247C59.7257 21.4021 59.7015 21.2768 59.8989 21.2699C60.0967 21.2629 60.0964 21.3693 60.1067 21.518Z" fill="#333333"/>
<path fill-rule="evenodd" clip-rule="evenodd" d="M50.5671 74.6616C49.5073 77.3169 45.1976 74.0815 44.6574 72.1774C44.4549 71.4634 45.8425 70.0005 46.5368 70.5792C47.7728 71.6092 47.684 73.2425 49.5841 73.6516C49.8672 73.7126 50.4753 73.7036 50.7503 73.7826C50.8918 73.8232 50.8307 74.1162 50.5671 74.6616Z" fill="#C0F0FF"/>
<path fill-rule="evenodd" clip-rule="evenodd" d="M67.8841 61.752C68.008 62.3502 68.116 62.9217 68.1032 63.5124C68.0956 63.8618 68.1304 64.2124 68.1529 64.562C68.217 65.5565 67.7585 66.2546 66.9538 66.7946C66.4018 67.165 65.9031 67.6142 65.3577 67.9953C64.8994 68.3157 64.4185 68.6076 63.929 68.8786C62.9397 69.4262 61.9261 69.939 61.4764 71.0825C61.2679 71.6126 60.991 72.1301 60.8804 72.6805C60.7526 73.3162 60.8694 73.9485 61.4543 74.3829C61.4745 74.3978 61.4842 74.4275 61.5047 74.4413C61.5956 74.5024 61.6934 74.6109 61.7793 74.6028C61.8456 74.5966 61.9074 74.4473 61.9548 74.3533C62.0606 74.1436 61.9638 73.9584 61.9162 73.7472C61.8442 73.4278 61.9006 73.0788 61.9102 72.7426C61.9112 72.7061 61.9632 72.6711 61.9916 72.6355C62.0078 72.6781 62.0345 72.7197 62.0385 72.7635C62.0601 72.9969 62.0542 73.2354 62.1012 73.4632C62.1353 73.6288 62.2198 73.7917 62.313 73.9356C62.4096 74.0847 62.7349 74.0136 62.7881 73.8332C62.8866 73.4994 62.8694 73.1641 62.7975 72.8227C62.7612 72.6498 62.7905 72.462 62.8011 72.2816C62.8027 72.2547 62.8653 72.2315 62.8996 72.2066C62.917 72.2391 62.9451 72.2736 62.949 72.3039C63.1083 73.5372 63.3414 73.5372 63.437 73.5736C63.5327 73.61 63.6552 73.5609 63.6997 73.5372C63.756 73.5073 63.798 73.409 63.8054 73.3361C63.8335 73.0586 63.7998 72.7666 63.8745 72.5044C63.9708 72.1662 64.1173 71.8316 64.3032 71.5334C64.4265 71.3356 64.6521 71.1989 64.8397 71.0443C65.3275 70.642 65.834 70.2679 66.4488 70.0778C66.8848 69.943 67.3242 69.8195 67.7606 69.6862C68.5137 69.456 69.2805 69.2611 70.0146 68.9808C71.1593 68.5437 72.0123 67.7853 72.2723 66.5316C72.4149 65.8443 72.3052 65.1514 72.0456 64.5042C71.84 63.9914 71.5608 63.5082 71.3165 63.0107C71.2916 62.9601 71.2821 62.902 71.2654 62.8474C71.3096 62.8762 71.3615 62.8977 71.3969 62.9349C72.0201 63.5885 72.4324 64.3633 72.623 65.239C72.8272 66.1774 72.8931 67.1269 72.4316 68.0187C72.3304 68.2142 72.1241 68.3716 71.9356 68.5025C71.3668 68.8973 70.7314 69.1636 70.0809 69.3913C69.3238 69.6563 68.5788 69.9901 67.799 70.1465C67.0467 70.2974 66.3944 70.6453 65.7021 70.9185C65.2768 71.0862 65.0454 71.4765 64.712 71.7475C64.3604 72.0335 64.2591 72.3838 64.2906 72.8063C64.2999 72.9306 64.2871 73.0565 64.2928 73.1813C64.33 73.9841 63.9312 74.0566 63.3268 73.8183C63.3008 73.808 63.2262 73.8423 63.2241 73.8614C63.1742 74.3141 62.9157 74.5357 62.5027 74.388C62.3249 74.3245 62.3339 74.444 62.3164 74.4858C62.1347 74.9208 61.6898 75.0616 61.3847 74.7251C61.0681 74.3759 60.7742 73.9893 60.5577 73.5736C60.4504 73.3674 60.4999 73.0517 60.5478 72.7986C60.6297 72.3662 60.7404 71.9351 60.8859 71.5199C61.0785 70.9702 61.3943 70.4896 61.7613 70.0304C62.1359 69.5617 62.6029 69.2259 63.1083 68.9425C63.8023 68.5534 64.486 68.1501 65.1322 67.6873C65.397 67.4978 65.6219 67.2531 65.8823 67.0566C66.2261 66.7973 66.5875 66.5614 66.9405 66.3143C67.422 65.9772 67.7515 65.574 67.7355 64.9279C67.7248 64.4961 67.8652 64.0621 67.8743 63.6278C67.8834 63.1969 67.8073 62.7647 67.7792 62.3324C67.7657 62.1247 67.7754 61.9155 67.7783 61.707C67.7789 61.6699 67.7981 61.6331 67.8087 61.5962C67.8338 61.6392 67.859 61.6822 67.8841 61.752Z" fill="#333333"/>
<path fill-rule="evenodd" clip-rule="evenodd" d="M15.0754 32.6938C15.1007 32.6387 15.1479 32.5853 15.1481 32.5855C15.6993 33.0689 16.0476 33.6709 16.2674 34.3717C16.362 34.6734 16.5706 34.949 16.7661 35.2072C17.135 35.6942 17.533 36.1591 17.913 36.6378C17.928 36.6568 17.8954 36.7454 17.863 36.7649C17.6451 36.8958 17.2556 36.8261 17.0211 36.5894C16.821 36.3873 16.645 36.16 16.4696 35.9351C16.2064 35.5975 15.8377 35.4643 15.4416 35.3739C14.8116 35.2302 14.3424 34.8432 13.9514 34.3546C13.2917 33.5305 13.0157 32.555 12.88 31.5309C12.8472 31.2831 12.7955 31.0198 12.8447 30.7828C12.9464 30.2931 13.384 30.0254 13.9317 30.1861C14.9146 30.4745 15.8925 30.7957 16.8404 31.182C17.4566 31.4331 17.7024 32.0143 17.8173 32.6604C17.9144 33.206 17.7936 33.698 17.578 34.1826C17.5034 34.3504 17.4903 34.3442 17.3803 34.1869C17.1655 33.8799 17.1111 33.518 17.1775 33.179C17.3234 32.4341 16.9872 31.8464 16.3944 31.6236C15.7063 31.3649 15.0202 31.0968 14.3191 30.8779C13.6252 30.6612 13.6348 30.708 13.763 31.3808C13.9368 32.293 14.2703 33.182 14.6078 34.0529C14.7877 34.5173 15.1597 34.8662 15.6865 35.0072C15.8739 35.0574 15.8481 34.9524 15.8214 34.8767C15.6952 34.5188 15.5608 34.1632 15.4142 33.8131C15.2659 33.459 15.0567 33.1258 15.0754 32.6938Z" fill="#F2994A"/>
<path fill-rule="evenodd" clip-rule="evenodd" d="M69.4792 60.9075C68.7925 60.6955 68.1477 60.7908 67.5043 61.0449C67.3532 61.1045 67.1418 61.0703 66.9794 61.0158C66.9045 60.9907 67.1395 60.5887 67.328 60.517C67.5518 60.4319 67.7818 60.3384 68.0164 60.311C68.7314 60.2276 69.3941 60.4182 70.0236 60.7522C70.3003 60.899 70.5924 61.017 70.8675 61.1665C70.9854 61.2305 71.083 61.3363 71.1786 61.434C71.2052 61.4611 71.2109 61.5585 71.1931 61.5695C71.1489 61.5965 71.0766 61.6147 71.0313 61.5967C70.748 61.4845 70.468 61.3639 70.1891 61.241C69.9553 61.138 69.7246 61.0279 69.4792 60.9075Z" fill="#333333"/>
<path fill-rule="evenodd" clip-rule="evenodd" d="M48.3018 22.8157C47.8368 23.1377 47.3965 23.4648 46.9305 23.7501C46.422 24.0615 45.8931 24.3407 45.3641 24.6166C45.2884 24.6561 45.1039 24.6326 45.072 24.5783C45.0165 24.4835 44.9961 24.3534 45.1744 24.269C45.4887 24.1202 45.7881 23.9355 46.0808 23.7458C46.5324 23.4532 46.9715 23.1414 47.419 22.8423C47.6623 22.6796 47.9013 22.5037 48.164 22.3801C48.2711 22.3296 48.5187 22.3553 48.5589 22.4269C48.6792 22.6409 48.492 22.7352 48.3018 22.8157Z" fill="#BDBDBD"/>
<path fill-rule="evenodd" clip-rule="evenodd" d="M51.626 56.431C51.7824 56.2924 51.9235 56.1649 52.0694 56.0432C52.1121 56.0077 52.1684 55.9886 52.2184 55.9619C52.2398 56.0082 52.2738 56.0527 52.2807 56.101C52.3267 56.4209 52.3325 56.7603 52.6294 56.9728C52.7555 57.063 52.9031 57.1571 53.0507 57.1771C53.5996 57.2514 54.2486 57.195 54.6236 56.6068C54.7755 56.3685 54.7287 56.126 54.7529 55.8808C54.7593 55.8161 54.8032 55.7121 54.8478 55.7015C55.0284 55.6586 54.9648 55.8124 54.9596 55.8866C54.9393 56.182 55.0147 56.4736 54.8145 56.766C54.5725 57.1194 54.2536 57.3448 53.8677 57.3928C53.4896 57.4397 53.0907 57.4672 52.7059 57.3088C52.3613 57.1669 52.196 56.9174 52.1213 56.5772C52.1113 56.532 52.0927 56.4886 52.0781 56.4444C52.043 56.4674 52.008 56.4906 51.9726 56.5132C51.5992 56.7515 51.2443 57.0385 50.7686 57.0279C50.7005 57.0264 50.6343 56.9405 50.5671 56.8937C50.6281 56.869 50.6896 56.8456 50.7499 56.8195C51.0376 56.6949 51.3251 56.5695 51.626 56.431Z" fill="#333333"/>
<path fill-rule="evenodd" clip-rule="evenodd" d="M62.9918 22.9763C63.3046 22.6994 63.5974 22.4277 63.9076 22.1776C63.9907 22.1106 64.1259 22.0927 64.2392 22.086C64.29 22.083 64.3893 22.1627 64.3898 22.2058C64.3909 22.288 64.3599 22.3975 64.3012 22.4483C64.1624 22.5686 63.9882 22.648 63.8486 22.7675C63.3924 23.158 62.9506 23.5656 62.4883 23.9485C62.4249 24.001 62.2472 23.9906 62.1741 23.9377C62.0757 23.8666 62.1136 23.736 62.21 23.652C62.4649 23.4298 62.7221 23.2103 62.9918 22.9763Z" fill="#BDBDBD"/>
<path fill-rule="evenodd" clip-rule="evenodd" d="M54.3199 70.6519C54.0582 70.6876 53.8243 70.7396 53.588 70.7549C53.3096 70.7729 53.0277 70.7751 52.7505 70.7499C52.661 70.7418 52.5813 70.6254 52.4971 70.5585C52.5794 70.5182 52.6581 70.4558 52.7448 70.4411C53.205 70.363 53.6652 70.2745 54.1292 70.2335C54.5213 70.1989 54.9187 70.2201 55.3135 70.2287C55.3585 70.2296 55.435 70.3079 55.4365 70.3523C55.438 70.3972 55.3707 70.4765 55.3227 70.4859C54.999 70.5494 54.6724 70.5983 54.3199 70.6519Z" fill="#333333"/>
<path fill-rule="evenodd" clip-rule="evenodd" d="M35.0864 22.7886C35.1949 22.7038 35.2808 22.6056 35.3878 22.5688C35.482 22.5364 35.6767 22.5432 35.6924 22.5842C35.7341 22.6928 35.7538 22.8143 35.6029 22.9292C35.1437 23.2791 34.7117 23.6647 34.2678 24.0348C34.2232 24.0719 34.1714 24.1211 34.1201 24.1249C34.0302 24.1314 33.8898 24.1376 33.8584 24.0881C33.8153 24.0203 33.8137 23.8546 33.8642 23.8101C34.2577 23.4633 34.6679 23.1356 35.0864 22.7886Z" fill="#BDBDBD"/>
<path fill-rule="evenodd" clip-rule="evenodd" d="M64.1848 24.0084C64.5465 23.6914 64.9144 23.4084 65.2666 23.1071C65.3947 22.9975 65.5259 22.9142 65.6476 23.0452C65.7554 23.1613 65.6897 23.3023 65.5667 23.4052C65.2149 23.6997 64.8721 24.0057 64.5102 24.287C64.4402 24.3414 64.2992 24.3043 64.191 24.3095C64.189 24.218 64.1869 24.1266 64.1848 24.0084Z" fill="#BDBDBD"/>
<path fill-rule="evenodd" clip-rule="evenodd" d="M52.0282 57.5569C52.122 57.6777 52.2701 57.7866 52.2677 57.892C52.2636 58.0688 52.2115 58.2532 52.0073 58.3655C51.7062 58.531 51.4506 58.4658 51.2037 58.2835C50.9884 58.1246 50.9995 57.8392 51.2165 57.5376C51.3067 57.4121 51.657 57.3619 51.814 57.4488C51.8786 57.4846 51.9477 57.5122 52.0282 57.5569ZM51.9612 57.7043C51.8876 57.6665 51.8174 57.6189 51.7399 57.5929C51.56 57.5326 51.4173 57.5758 51.3199 57.7533C51.2248 57.927 51.309 58.0518 51.4376 58.1358C51.5229 58.1916 51.6516 58.2224 51.7503 58.2048C51.858 58.1856 51.9915 58.1199 52.0422 58.0328C52.0814 57.9656 52.0101 57.834 51.9612 57.7043Z" fill="#333333"/>
<path fill-rule="evenodd" clip-rule="evenodd" d="M48.8382 24.1559C49.0659 24.0175 49.2742 23.8793 49.4987 23.7765C49.5577 23.7495 49.7407 23.8338 49.7401 23.8642C49.7375 23.9844 49.7221 24.1529 49.6428 24.2132C49.4402 24.3674 49.2085 24.4926 48.9718 24.588C48.8843 24.6233 48.6851 24.5759 48.6507 24.5083C48.5788 24.367 48.6508 24.2241 48.8382 24.1559Z" fill="#BDBDBD"/>
</svg>
