<svg width="100" height="100" viewBox="0 0 100 100" fill="none" xmlns="http://www.w3.org/2000/svg">
<path fill-rule="evenodd" clip-rule="evenodd" d="M52.4523 74.7072C64.7868 72.0077 81.2214 66.6505 78.5207 48.2689C75.8201 29.8874 64.2433 22.7999 49.9206 22.7999C35.5986 22.7999 19.3264 33.6054 22.5207 55.9899C25.7151 78.3744 40.1177 77.4068 52.4523 74.7072ZM11.9093 52.5495C11.3999 47.4348 11.9411 42.374 13.3948 37.6299L9.24714 35.4081C8.548 35.0338 8.28509 34.1638 8.65883 33.4649L14.3215 22.893C14.6964 22.1941 15.5665 21.9311 16.2656 22.3054L20.4132 24.5272C23.5576 20.6892 27.4706 17.4346 32.0096 15.0244L30.6491 10.5225C30.4192 9.76357 30.8484 8.96245 31.6076 8.73303L43.0873 5.26176C43.8466 5.03233 44.6471 5.46148 44.877 6.22039L46.2375 10.7223C51.3531 10.2131 55.08 12.0876 59.8242 13.5405L62.0461 9.39269C62.4203 8.69379 63.2903 8.43076 63.9891 8.80509L74.561 14.4681C75.2599 14.8424 75.5229 15.7124 75.1486 16.4112L72.9268 20.559C76.7649 23.7033 81.3528 26.2829 83.763 30.8228L88.265 29.4616C89.0238 29.2322 89.825 29.6613 90.0545 30.4201L93.5256 41.8999C93.755 42.6588 93.3259 43.46 92.5671 43.6895L88.065 45.0508C88.5742 50.1654 88.0331 55.2263 86.5802 59.9703L90.728 62.1922C91.4269 62.5665 91.6899 63.4365 91.3156 64.1354L85.6526 74.7073C85.2783 75.406 84.4083 75.6692 83.7096 75.2947L79.5617 73.073C76.4175 76.9111 72.5044 80.1657 67.9646 82.5759L69.3258 87.0778C69.5552 87.8366 69.1261 88.6378 68.3673 88.8673L56.8872 92.3379C56.1292 92.5678 55.3274 92.1387 55.0975 91.3794L53.737 86.878C48.6226 87.3872 43.5613 86.8459 38.8171 85.3931L36.5959 89.5409C36.221 90.2397 35.3509 90.5023 34.6517 90.1284L24.0798 84.4654C23.3819 84.0912 23.1178 83.2211 23.4927 82.5224L25.7151 78.3745C21.8763 75.2303 18.6224 71.3172 16.2114 66.7773L11.71 68.1386C10.9508 68.368 10.1491 67.939 9.92033 67.1801L6.44942 55.7002C6.21953 54.9414 6.64867 54.1402 7.40793 53.9108L11.9093 52.5495Z" fill="#C0F0FF"/>
<path fill-rule="evenodd" clip-rule="evenodd" d="M34.121 26.7401L34.5207 26.7266L34.532 27.0817C34.551 27.7208 34.5423 28.4045 34.5327 29.1499C34.5261 29.6694 34.519 30.2188 34.5207 30.8041L34.5871 31.9598C34.5853 33.0364 34.5778 34.535 34.5644 36.4556L34.5209 41.9227C34.8148 42.0202 35.0356 42.2739 35.0798 42.5825C35.3223 42.6194 35.5084 42.8252 35.5084 43.0729C35.5084 43.2482 35.4151 43.4024 35.2746 43.4908L35.4456 43.9041C35.5215 44.0878 35.6469 44.2448 35.8081 44.3582C36.5146 44.8552 36.9305 45.6601 36.9207 46.5114C36.9204 46.534 36.9198 46.5566 36.919 46.5791C36.9159 46.6607 36.846 46.7236 36.7625 46.7214C36.6792 46.7184 36.6142 46.6498 36.6173 46.5681C36.618 46.5482 36.6185 46.5282 36.6188 46.5081C36.6275 45.7531 36.1253 45.0392 35.4986 44.5984C35.291 44.4524 35.1298 44.2507 35.0324 44.0152L34.9813 43.5692H34.7666C34.7666 43.5692 34.692 43.9706 34.692 44.2844C34.692 44.5982 34.7666 45.2197 34.7666 45.2197H35.014C35.2974 45.2197 35.528 45.4455 35.528 45.7231C35.528 46.0007 35.2974 46.2265 35.014 46.2265H34.9786C34.6952 46.2265 34.598 46.0815 34.598 45.7231C34.598 45.5355 34.5773 45.4013 34.2711 45.4013C33.9649 45.4013 34.0437 45.7231 34.0437 45.7231C34.0437 46.0007 33.8132 46.2265 33.5298 46.2265H33.4944C33.211 46.2265 32.9804 46.0007 32.9804 45.7231C32.9804 45.4455 33.4584 45.2107 33.7418 45.2107C33.7418 45.2107 33.8172 44.646 33.8172 44.3582C33.8172 44.1156 33.7418 43.6197 33.7418 43.6197H34.0437C34.0437 43.6197 33.9807 44.0826 33.9807 44.3651C33.9807 44.6476 34.0437 45.2107 34.0437 45.2107C34.0437 45.2107 34.2102 45.2408 34.2896 45.2425C34.3689 45.2442 34.4646 45.2197 34.4646 45.2197C34.4646 45.2197 34.5309 44.6422 34.5309 44.3651C34.5309 44.0879 34.4646 43.5692 34.4646 43.5692H34.0437H33.7418H33.5271L33.3427 44.0151C33.25 44.2391 32.9726 44.4357 32.7612 44.5855L32.7344 44.6045C32.1218 45.0396 31.8895 45.7411 31.8895 46.4812C31.8895 47.1063 32.1398 47.6923 32.5944 48.1311C33.0489 48.5698 33.6506 48.9398 34.2896 48.9306C34.7961 48.9234 35.3141 48.6442 35.719 48.3417C36.111 48.0488 36.6188 47.2475 36.7033 47.0626C36.7878 46.8776 36.8276 47.1695 36.803 47.2475C36.6403 47.7633 36.3075 48.229 35.8659 48.559C35.4092 48.9002 34.8656 49.0849 34.294 49.093C33.5735 49.1032 32.895 48.8365 32.3825 48.3417C31.8698 47.8469 31.5875 47.1861 31.5875 46.4812C31.5875 45.6467 31.9999 44.8556 32.6906 44.3651C32.8588 44.2456 32.9875 44.0862 33.0628 43.9041L33.2338 43.4908C33.0933 43.4024 33 43.2482 33 43.0729C33 42.8253 33.1861 42.6194 33.4285 42.5825C33.4784 42.2345 33.7528 41.9564 34.1032 41.8933L34.1226 41.8933L34.3542 36.8093C34.368 34.8741 34.187 31.0061 34.187 31.0061C34.1838 29.5187 34.1655 28.2146 34.1322 27.094L34.121 26.7401ZM33.5298 45.9307C33.6467 45.9307 33.7418 45.8376 33.7418 45.7231V45.4013C33.7418 45.4013 33.2824 45.4933 33.2824 45.7231C33.2824 45.934 33.3624 45.9327 33.4659 45.931H33.466H33.466L33.466 45.931H33.4662C33.4754 45.9309 33.4848 45.9307 33.4944 45.9307H33.5298ZM35.3415 45.7231C35.322 46.0123 34.7222 46.1383 34.7666 45.7231V45.4013C34.7666 45.4013 35.3611 45.434 35.3415 45.7231ZM34.772 42.5766C34.7165 42.3469 34.5054 42.1754 34.2542 42.1754C34.003 42.1754 33.7919 42.3469 33.7364 42.5766H34.772ZM33.5067 42.8723H33.5712H34.9371H35.0016C35.1145 42.8723 35.2064 42.9623 35.2064 43.0729C35.2064 43.1835 35.1145 43.2735 35.0016 43.2735H33.5067C33.3938 43.2735 33.3019 43.1835 33.3019 43.0729C33.3019 42.9623 33.3938 42.8723 33.5067 42.8723ZM30.9195 44.16H30.6556C30.5812 44.16 30.5209 44.1003 30.5209 44.0266C30.5209 43.953 30.5812 43.8933 30.6556 43.8933H30.9195C30.9939 43.8933 31.0542 43.953 31.0542 44.0266C31.0542 44.1003 30.9939 44.16 30.9195 44.16ZM31.1291 45.1039L30.8752 45.2107C30.8036 45.2409 30.7689 45.3262 30.7976 45.4013C30.8263 45.4764 30.9076 45.5128 30.9792 45.4827L31.2332 45.3759C31.3047 45.3457 31.3395 45.2604 31.3108 45.1853C31.2889 45.1281 31.2365 45.0933 31.1811 45.0933C31.1638 45.0933 31.1462 45.0967 31.1291 45.1039ZM31.3557 42.9295L31.1178 42.7387C31.0508 42.6849 31.034 42.5782 31.0804 42.5004C31.1091 42.4524 31.1552 42.4266 31.202 42.4266C31.231 42.4266 31.2603 42.4365 31.286 42.4571L31.5239 42.6479C31.5909 42.7018 31.6077 42.8084 31.5613 42.8862C31.5149 42.9639 31.4228 42.9833 31.3557 42.9295ZM37.7222 44.16H37.9861C38.0605 44.16 38.1208 44.1003 38.1208 44.0266C38.1208 43.953 38.0605 43.8933 37.9861 43.8933H37.7222C37.6478 43.8933 37.5875 43.953 37.5875 44.0266C37.5875 44.1003 37.6478 44.16 37.7222 44.16ZM37.5125 45.1039L37.7665 45.2107C37.8381 45.2409 37.8728 45.3262 37.8441 45.4013C37.8154 45.4764 37.7341 45.5128 37.6625 45.4827L37.4085 45.3759C37.3369 45.3457 37.3022 45.2604 37.3309 45.1853C37.3528 45.1281 37.4052 45.0933 37.4606 45.0933C37.4779 45.0933 37.4955 45.0967 37.5125 45.1039ZM37.2859 42.9295L37.5239 42.7387C37.5909 42.6849 37.6077 42.5782 37.5613 42.5004C37.5326 42.4524 37.4865 42.4266 37.4397 42.4266C37.4107 42.4266 37.3814 42.4365 37.3558 42.4571L37.1178 42.6479C37.0508 42.7017 37.034 42.8084 37.0804 42.8862C37.1269 42.9639 37.2188 42.9833 37.2859 42.9295Z" fill="#F2994A"/>
<path d="M53.818 63.9708C52.3473 64.3579 51.5927 65.2791 50.9553 66.1371C50.3167 66.995 51.7207 66.5869 52.4953 66.2771C53.27 65.9675 55.1353 64.8223 55.1353 64.8223L61.3193 62.9519V60.0916L59.47 59.9836C59.47 59.9836 55.29 63.5836 53.818 63.9708Z" fill="white"/>
<path d="M60.2258 43.0227C58.9032 48.0286 58.2205 52.8183 58.1125 57.4131C58.1125 57.4131 56.8738 57.5679 57.0285 58.6518C57.1832 59.7356 60.4352 62.6774 60.4352 62.6774L61.5618 58.9428L61.9832 45.1812L60.2258 43.0227Z" fill="white"/>
<path fill-rule="evenodd" clip-rule="evenodd" d="M59.7745 45.5846L60.534 45.0808C60.5825 45.0486 60.6465 45.0737 60.6639 45.1316L60.9288 46.0112C60.9508 46.0845 60.8849 46.1531 60.8166 46.1281L59.7923 45.7522C59.7224 45.7266 59.7118 45.6262 59.7745 45.5846ZM59.8664 45.73L60.7998 46L60.5219 45.2L59.8664 45.73Z" fill="#F2994A"/>
<path fill-rule="evenodd" clip-rule="evenodd" d="M60.108 51.9179L60.8675 51.4141C60.916 51.3819 60.98 51.4069 60.9974 51.4649L61.2623 52.3445C61.2843 52.4177 61.2184 52.4864 61.1501 52.4613L60.1258 52.0855C60.0559 52.0598 60.0453 51.9594 60.108 51.9179ZM60.1999 52.0633L61.1333 52.3333L60.8555 51.5332L60.1999 52.0633Z" fill="#F2994A"/>
<path fill-rule="evenodd" clip-rule="evenodd" d="M60.5072 55.4762L60.4506 54.5666C60.447 54.5085 60.5007 54.4656 60.5596 54.4794L61.4538 54.6899C61.5282 54.7074 61.5547 54.7988 61.4989 54.8454L60.6612 55.5446C60.6041 55.5922 60.5118 55.5513 60.5072 55.4762ZM60.6791 55.4692L61.3796 54.7959L60.5478 54.6365L60.6791 55.4692Z" fill="#F2994A"/>
<path fill-rule="evenodd" clip-rule="evenodd" d="M59.0677 54.805L59.9774 54.7485C60.0355 54.7449 60.0784 54.7985 60.0645 54.8574L59.8541 55.7516C59.8366 55.8261 59.7452 55.8526 59.6985 55.7967L58.9994 54.9591C58.9517 54.902 58.9927 54.8097 59.0677 54.805ZM59.0747 54.9769L59.748 55.6774L59.9074 54.8457L59.0747 54.9769Z" fill="#F2994A"/>
<path fill-rule="evenodd" clip-rule="evenodd" d="M59.77 59.442L60.586 59.8478C60.6381 59.8737 60.6485 59.9417 60.607 59.9857L59.9777 60.6549C59.9253 60.7106 59.8329 60.6879 59.8204 60.6162L59.6337 59.5412C59.621 59.4679 59.7026 59.4085 59.77 59.442ZM59.69 59.5943L59.9229 60.5376L60.4768 59.897L59.69 59.5943Z" fill="#F2994A"/>
<path fill-rule="evenodd" clip-rule="evenodd" d="M59.3701 56.9088L60.1861 57.3146C60.2382 57.3405 60.2486 57.4085 60.2071 57.4525L59.5778 58.1217C59.5253 58.1775 59.4329 58.1547 59.4205 58.083L59.2338 57.008C59.2211 56.9347 59.3027 56.8753 59.3701 56.9088ZM59.2901 57.0611L59.523 58.0044L60.0769 57.3638L59.2901 57.0611Z" fill="#F2994A"/>
<path d="M64.6602 46.0328L65.5575 48.7417C67.6085 54.9456 68.6185 58.0945 68.6488 58.3897C68.6676 58.5731 68.5565 58.7102 68.385 58.7569C68.2819 58.7849 68.1559 58.7833 67.9993 58.7601C67.7557 58.724 67.4301 58.6326 67.0369 58.4968C66.733 58.3919 66.4046 58.2658 66.0719 58.1297L65.9319 58.0719C65.8864 58.0529 65.8422 58.0343 65.7994 58.0162L65.5771 57.9204L65.5137 57.8924L65.4767 57.8336C65.4112 57.7293 65.3178 57.5448 65.2257 57.2918C65.1448 57.0695 65.0803 56.8314 65.0379 56.5799L65.023 56.4849C65.0098 56.3926 64.883 56.1788 64.6215 55.8138L64.4393 55.5644C64.2898 55.3629 64.0023 54.978 63.9733 54.939L63.8042 54.71C63.6426 54.4898 63.5015 54.293 63.3637 54.0946C62.6724 53.0991 62.1838 52.2279 61.8956 51.3895C61.6511 50.6783 61.5654 50.0193 61.6622 49.4135C61.8104 48.4888 61.7536 47.6052 61.5372 46.7759C61.3574 46.0869 61.9262 45.4513 62.746 45.2176C63.5932 44.9761 64.4003 45.2496 64.6602 46.0328Z" fill="white"/>
<path d="M63.1585 42.027C62.6588 42.5574 62.2395 42.9618 61.9006 43.2404C61.3297 43.7096 60.5114 44.2125 59.4456 44.749C62.7056 45.5039 64.6963 45.6532 65.4175 45.1968C65.4175 45.1968 65.1171 43.7831 64.6855 43.1775C64.3641 42.7265 63.1585 42.027 63.1585 42.027Z" fill="white"/>
<path d="M57.9726 35.2121C58.65 37.7846 60.5006 40.4704 62.4713 39.9517C64.4419 39.4329 65.5326 35.9168 64.8553 33.3442C64.1779 30.7717 62.0313 29.1068 60.0606 29.6254C58.09 30.1441 57.2953 32.6397 57.9726 35.2121Z" fill="white"/>
<path d="M57.5219 36.0325C58.2884 38.9766 60.3828 42.0501 62.613 41.4566C64.8432 40.8628 66.0775 36.8389 65.3109 33.8949C64.5444 30.9509 62.1151 29.0455 59.8849 29.6391C57.6547 30.2327 56.7554 33.0886 57.5219 36.0325Z" fill="white"/>
<path fill-rule="evenodd" clip-rule="evenodd" d="M61.0811 29.9778C59.5613 30.0641 58.4522 30.5634 57.8305 31.4431L57.7604 31.5449C57.4528 31.9886 57.1943 32.2679 57.0812 33.1078L57.0704 33.1971C57.0058 33.7497 56.9868 34.3326 57.02 34.526C57.038 34.6077 57.073 34.6363 57.1172 34.6276C57.2177 34.608 57.4778 34.1458 57.8976 33.2409L58.2499 33.6533C58.4415 33.8747 58.8481 34.0835 59.089 34.2404C59.33 34.3973 61.0811 29.9778 61.0811 29.9778Z" fill="#E0E0E0"/>
<path fill-rule="evenodd" clip-rule="evenodd" d="M59.5467 38.3347C58.7004 38.6876 58.0576 39.146 57.8871 38.9554C57.7167 38.7647 58.298 38.1842 58.7496 37.3957C59.2224 36.6116 59.6716 35.6239 59.7555 35.2221L59.9705 34.2064C60.5993 34.9999 61.188 37.6623 59.5467 38.3347Z" fill="white"/>
<path d="M49.7082 86.8162L49.754 89.6404H51.3604L51.8416 86.3999L49.7082 86.8162Z" fill="white"/>
<path d="M67.3013 71.7984C67.3013 71.7984 56.8783 71.5682 53.6017 71.0956C49.9644 70.571 47.9753 69.3311 47.1842 69.4776C46.8136 69.5463 44.6257 69.934 40.0605 70.4196C38.1298 70.6249 33.1179 70.6564 33.1179 70.6564L31.1727 66.5162C31.1727 66.5162 44.8612 63.768 49.189 64.9575C50.5503 65.3316 53.4982 65.8716 57.0032 65.6744C60.034 65.5039 68.277 63.9029 68.277 63.9029C68.277 63.9029 71.6051 65.0976 71.0027 68.0355C70.4002 70.9735 67.3013 71.7984 67.3013 71.7984Z" fill="white"/>
<path fill-rule="evenodd" clip-rule="evenodd" d="M32.2877 68.2876L31.647 66.4323C31.647 66.4323 45.3125 63.8832 49.6403 65.0727C51.0016 65.4469 52.2317 66.0638 55.7367 65.8666C57.0784 65.7912 59.3725 65.4771 62.6189 64.9246C64.2612 64.645 64.525 64.7485 63.2343 65.5925C60.2412 67.5498 53.5834 67.0885 47.5427 66.2065C36.3158 64.5673 32.2877 68.2876 32.2877 68.2876Z" fill="#E0E0E0"/>
<path d="M51.5215 87.4575C52.2015 88.2088 53.1029 89.4462 52.6389 90.6848L44.5869 93.1621C44.5869 93.1621 44.2775 92.2328 44.7415 91.4595C45.2069 90.6848 49.6 87.6287 49.6 87.6287L51.5215 87.4575Z" fill="white"/>
<path fill-rule="evenodd" clip-rule="evenodd" d="M47.8049 89.1356C47.7516 89.1211 47.6967 89.1527 47.6823 89.206C47.6678 89.2593 47.6993 89.3142 47.7526 89.3286C48.0149 89.3997 48.1877 89.5654 48.2484 89.7752C48.327 90.0465 48.3356 90.3239 48.2464 90.768C48.2356 90.8222 48.2707 90.8749 48.3248 90.8857C48.3789 90.8966 48.4317 90.8615 48.4425 90.8074C48.5379 90.3325 48.5283 90.0225 48.4405 89.7196C48.3601 89.4418 48.1337 89.2247 47.8049 89.1356Z" fill="#E0E0E0"/>
<path fill-rule="evenodd" clip-rule="evenodd" d="M52.2389 90.8181L44.3174 93.1489C44.3174 93.1489 43.3113 92.9374 44.3516 92.7896C45.4204 92.6377 51.6781 89.7722 52.3664 90.2942C52.4642 90.3684 52.2995 90.6562 52.2389 90.8181Z" fill="#E0E0E0"/>
<path d="M71.977 71.2074C71.977 71.2074 68.4026 72.3355 65.5242 72.7585C62.6458 73.1814 56.9043 73.4221 56.9043 73.4221C56.9043 73.4221 55.1118 74.3965 54.9962 74.8478C54.9512 75.0235 54.6795 77.3461 53.9285 80.313C53.5753 81.7087 51.6875 88.0201 51.6875 88.0201L49.1889 86.9141C49.1889 86.9141 49.2892 75.3137 50.8842 71.4662C52.4792 67.6187 68.8742 63.8818 68.8742 63.8818C68.8742 63.8818 72.3538 63.2524 73.301 66.098C74.2483 68.9435 71.977 71.2074 71.977 71.2074Z" fill="white"/>
<path fill-rule="evenodd" clip-rule="evenodd" d="M51.2876 87.6203L48.7889 86.5142C48.8558 78.7807 49.4209 73.6314 50.4843 71.0664C50.4843 71.0664 49.3976 84.7213 51.2876 87.6203Z" fill="#E0E0E0"/>
<path d="M29.4992 68.4399C28.8773 69.24 27.8153 70.3425 26.5149 70.1006L22.677 62.6012C22.677 62.6012 23.6645 62.1643 24.5067 62.487C25.3504 62.8107 29.0602 66.6821 29.0602 66.6821L29.4992 68.4399Z" fill="white"/>
<path fill-rule="evenodd" clip-rule="evenodd" d="M46.1692 90.4673C46.1293 90.429 46.0661 90.4304 46.0278 90.4703C45.9896 90.5101 45.991 90.5734 46.0309 90.6117C46.2632 90.8343 46.3063 91.2074 46.173 91.4325C46.1449 91.4801 46.1606 91.5414 46.2081 91.5695C46.2556 91.5977 46.317 91.5819 46.3451 91.5344C46.5249 91.2307 46.4699 90.7554 46.1692 90.4673Z" fill="#E0E0E0"/>
<path fill-rule="evenodd" clip-rule="evenodd" d="M46.9862 89.8079C46.9459 89.7701 46.8826 89.772 46.8448 89.8123C46.807 89.8525 46.809 89.9158 46.8492 89.9536L46.9033 90.0056C47.3238 90.4194 47.4443 90.7812 47.0741 91.1694C47.036 91.2094 47.0375 91.2727 47.0774 91.3108C47.1174 91.3489 47.1807 91.3474 47.2188 91.3075C47.4925 91.0205 47.5486 90.7108 47.4274 90.4007C47.3438 90.1868 47.1983 90.0072 46.9862 89.8079Z" fill="#E0E0E0"/>
<path fill-rule="evenodd" clip-rule="evenodd" d="M50.835 89.6768C50.6055 90.1155 49.3868 89.9354 49.5989 88.7218C49.6993 88.1477 51.4708 88.4615 50.835 89.6768Z" fill="#E0E0E0"/>
<path fill-rule="evenodd" clip-rule="evenodd" d="M27.2759 70.24C25.6654 68.3997 24.7398 64.2606 23.4135 62.8364C22.9454 62.3337 22.3382 62.2209 22.9918 63.411C24.1876 65.5886 26.486 70.24 26.486 70.24C26.6076 70.3009 26.758 70.24 26.894 70.24H27.2759Z" fill="#E0E0E0"/>
<path d="M53.8181 63.9709C52.3474 64.358 51.5928 65.2792 50.9554 66.1372C50.3168 66.9951 51.7208 66.5869 52.4954 66.2772C53.2701 65.9676 54.752 64.7924 54.752 64.7924L53.8181 63.9709Z" fill="white"/>
<path d="M67.2139 60.4871C67.2139 60.4871 58.9353 64.0435 57.7686 64.0481C56.6033 64.0529 53.7433 65.4416 53.5886 66.5255C53.4006 67.844 58.3886 65.9061 58.3886 65.9061C58.3886 65.9061 69.5366 65.9061 71.3939 64.0481C73.2525 62.1901 72.0139 58.3193 72.0139 58.3193L67.2139 60.4871Z" fill="white"/>
<path d="M69.2273 43.9201C69.2273 43.9201 67.214 45.1586 66.9047 49.1844C66.5953 53.21 67.834 58.0098 67.834 58.0098C67.834 58.0098 67.0593 58.6292 66.9047 59.2485C66.75 59.8678 67.2207 60.6853 67.2207 60.6853C67.2207 60.6853 71.859 62.9645 72.1688 63.1193C72.4784 63.2741 73.717 62.8096 73.717 61.5709C73.717 60.3324 73.2525 59.2485 73.2525 59.2485C73.0302 51.0772 74.3364 43.1458 69.2273 43.9201Z" fill="white"/>
<path fill-rule="evenodd" clip-rule="evenodd" d="M61.0261 35.354C60.5499 34.7163 59.5433 34.5086 59.2747 35.5154C59.2747 35.5154 59.0683 36.1228 59.4843 36.4982C60.7586 37.648 61.5024 35.9917 61.0261 35.354Z" fill="white"/>
<path fill-rule="evenodd" clip-rule="evenodd" d="M58.3666 36.0457C57.9142 35.4398 56.9579 35.2426 56.7027 36.199C56.7027 36.199 56.5067 36.7761 56.9018 37.1327C58.1124 38.225 58.819 36.6515 58.3666 36.0457Z" fill="white"/>
<path d="M62.0713 43.8005C62.0713 43.8005 62.0713 51.2432 61.962 55.4022C61.8527 59.5613 62.806 63.6592 64.6273 66.8638C66.4487 70.0686 66.2008 74.6531 67.5433 74.9938C78.1626 77.6892 75.3035 44.7043 71.3744 42.5965C67.4452 40.4887 66.1473 40.0422 66.1473 40.0422" fill="white"/>
<path fill-rule="evenodd" clip-rule="evenodd" d="M67.5177 45.8887L68.4328 47.2551C68.5087 47.3684 68.4514 47.5228 68.32 47.5591L67.0988 47.8968C66.9569 47.936 66.8226 47.8136 66.8487 47.6687L67.1547 45.9646C67.1865 45.7875 67.4176 45.7392 67.5177 45.8887ZM67.3188 46.0989L67.0455 47.704L68.1074 47.255L67.3188 46.0989Z" fill="#F2994A"/>
<path fill-rule="evenodd" clip-rule="evenodd" d="M70.462 44.554L71.5405 46.2852C71.6093 46.3957 71.5558 46.5416 71.4318 46.5814L69.5487 47.1851C69.3919 47.2353 69.2449 47.0851 69.2985 46.9294L70.1031 44.5946C70.158 44.4354 70.3729 44.4111 70.462 44.554ZM70.2062 44.7651L69.6552 46.9295L71.2879 46.2852L70.2062 44.7651Z" fill="#F2994A"/>
<path fill-rule="evenodd" clip-rule="evenodd" d="M71.1265 57.6514L70.3929 60.4083C70.3478 60.5778 70.122 60.6113 70.0296 60.4623L68.9389 58.7037C68.8784 58.6062 68.9122 58.4779 69.0129 58.4228L70.8372 57.4246C70.9914 57.3402 71.1717 57.4815 71.1265 57.6514ZM70.9332 57.7334L69.2422 58.5983L70.1996 60.357L70.9332 57.7334Z" fill="#F2994A"/>
<path fill-rule="evenodd" clip-rule="evenodd" d="M72.5956 67.7747L72.1956 69.6645C72.1589 69.8379 71.9315 69.8814 71.8334 69.7338L70.7528 68.1079C70.673 67.988 70.7424 67.8256 70.8842 67.8003L72.3649 67.5364C72.5046 67.5115 72.625 67.6359 72.5956 67.7747ZM72.2466 67.7449L70.9635 68.1997L72.0707 69.464L72.2466 67.7449Z" fill="#F2994A"/>
<path fill-rule="evenodd" clip-rule="evenodd" d="M69.1288 67.3748L68.7288 69.2646C68.6921 69.438 68.4647 69.4815 68.3666 69.3339L67.286 67.708C67.2062 67.5881 67.2756 67.4257 67.4174 67.4004L68.8981 67.1365C69.0378 67.1116 69.1582 67.236 69.1288 67.3748ZM68.9438 67.5391L67.4498 67.4979L68.6792 69.0775L68.9438 67.5391Z" fill="#F2994A"/>
<path fill-rule="evenodd" clip-rule="evenodd" d="M70.9955 63.5081L70.5955 65.3979C70.5588 65.5713 70.3314 65.6148 70.2333 65.4672L69.1527 63.8413C69.0729 63.7214 69.1423 63.559 69.2841 63.5337L70.7648 63.2698C70.9045 63.2449 71.0249 63.3693 70.9955 63.5081ZM70.7999 63.4668L69.4526 63.864L70.5332 65.2232L70.7999 63.4668Z" fill="#F2994A"/>
<path fill-rule="evenodd" clip-rule="evenodd" d="M26.7212 69.6234C26.8217 69.8197 26.9866 69.9016 27.2065 69.9138C27.9893 69.9574 28.61 69.612 29.1638 69.1087C29.3737 68.918 29.5598 68.701 29.7702 68.5108C29.9182 68.3769 30.0768 68.2898 30.3078 68.3726C30.4846 68.4361 30.6921 68.4121 30.8855 68.4318C31.3216 68.4763 31.7565 68.5344 32.1935 68.5662C32.472 68.5864 32.4789 68.8241 32.5442 68.988C32.6921 69.3588 32.8026 69.7449 32.9202 70.1273C32.9659 70.2758 33.0385 70.3345 33.2053 70.3325C34.0382 70.3223 34.8712 70.3231 35.7041 70.3299C36.0835 70.333 36.4631 70.3784 36.8418 70.3698C37.5543 70.3537 38.2677 70.3308 38.9781 70.2763C39.6653 70.2235 40.3488 70.1245 41.0346 70.0513C41.5162 69.9999 42.0008 69.9727 42.4804 69.9076C43.0382 69.8318 43.5912 69.7215 44.1478 69.636C44.4263 69.5933 44.7093 69.5806 44.9881 69.5396C45.4662 69.4692 45.9442 69.3961 46.4192 69.3076C46.8599 69.2254 47.2745 69.3106 47.6894 69.4476C48.497 69.7142 49.3068 69.9747 50.1169 70.2338C50.261 70.2799 50.3037 70.3178 50.2386 70.4928C49.9999 71.1349 49.7764 71.784 49.5821 72.4408C49.445 72.9042 49.3502 73.3818 49.2622 73.8578C49.1544 74.4411 49.0642 75.028 48.9839 75.6158C48.9225 76.0649 48.8836 76.5172 48.8433 76.9688C48.792 77.5428 48.7436 78.1172 48.7049 78.6921C48.6664 79.2647 48.6341 79.838 48.6124 80.4114C48.5754 81.3852 48.5478 82.3593 48.5186 83.3333C48.5008 83.9231 48.4897 84.5131 48.4703 85.1028C48.4647 85.2741 48.4097 85.4497 48.4358 85.614C48.4555 85.738 48.5436 85.9114 48.6446 85.9503C48.9049 86.0507 48.9802 86.2443 48.9779 86.511C48.975 86.8516 48.9322 87.1925 48.9411 87.5324C48.9468 87.7489 48.8638 87.9001 48.7064 88.015C47.9909 88.537 47.2681 89.0493 46.5529 89.5718C46.2135 89.8197 45.8786 90.075 45.5533 90.3411C45.2048 90.626 44.8633 90.9203 44.5311 91.2241C44.2001 91.5268 44.024 91.8969 43.9682 92.3585C43.9249 92.7165 43.9707 93.049 44.0304 93.3896C44.0615 93.5668 44.1628 93.6394 44.3472 93.5792C45.1219 93.3264 45.8951 93.0689 46.6735 92.828C47.9593 92.4301 49.2486 92.0436 50.5365 91.6526C50.9956 91.5133 51.4547 91.3741 51.9143 91.2365C52.1958 91.1523 52.2553 90.8998 52.3075 90.6712C52.4561 90.0212 52.2642 89.4297 51.9214 88.8847C51.7116 88.5511 51.4671 88.2393 51.2378 87.9181C51.0504 87.6558 51.0988 87.3871 51.1915 87.1032C51.4935 86.1792 51.7903 85.2533 52.0757 84.324C52.3575 83.4067 52.6367 82.4881 52.8919 81.5632C53.1617 80.5856 53.4065 79.601 53.6532 78.6172C53.7867 78.0849 53.9126 77.5501 54.0207 77.0122C54.1015 76.6099 54.1472 76.2007 54.2107 75.7949C54.2866 75.3101 54.3322 74.8171 54.457 74.3451C54.5107 74.142 54.7079 73.9562 54.8797 73.809C55.254 73.4884 55.6839 73.2496 56.1511 73.0864C56.2665 73.0461 56.3916 73.0182 56.5133 73.0136C57.0928 72.9918 57.673 72.9861 58.2524 72.9627C58.8184 72.94 59.3842 72.9085 59.9494 72.8704C60.5323 72.8312 61.1148 72.7842 61.6966 72.7319C62.3194 72.676 62.9445 72.6315 63.5628 72.5422C64.2183 72.4476 64.8678 72.31 65.5182 72.1827C65.7298 72.1413 65.8843 72.2698 65.9171 72.568C65.9889 73.2202 66.2104 73.8262 66.4736 74.4196C66.6634 74.8475 67.0216 75.0615 67.4633 75.1345C67.7787 75.1866 68.1017 75.2363 68.419 75.2243C69.3218 75.1901 70.127 74.8923 70.8432 74.3197C71.7516 73.5934 72.2831 72.623 72.7356 71.5884C72.9384 71.1248 73.1995 70.6824 73.3586 70.2052C73.5315 69.6869 73.619 69.1399 73.7393 68.6044C73.833 68.1876 73.9286 67.771 74.0074 67.3513C74.0697 67.0195 74.1089 66.6832 74.1563 66.3486C74.2192 65.9041 74.2812 65.4594 74.341 65.0144C74.3608 64.8672 74.3803 64.7193 74.3865 64.5711C74.4059 64.1074 74.4154 63.6433 74.4351 63.1796C74.4627 62.5292 74.5142 61.8794 74.5228 61.2289C74.5375 60.1163 74.5359 59.0033 74.5226 57.8907C74.5167 57.4021 74.4754 56.9131 74.4315 56.426C74.3816 55.8723 74.3059 55.321 74.2508 54.7677C74.2114 54.3727 74.1991 53.9749 74.1538 53.5807C74.0874 53.0024 74.0145 52.4243 73.922 51.8497C73.812 51.1663 73.6862 50.4851 73.5533 49.8057C73.3016 48.5201 73.0088 47.2422 72.5295 46.0206C72.2242 45.2424 71.9055 44.4485 71.2822 43.861C71.0124 43.6067 70.6375 43.4601 70.3022 43.2796C69.3821 42.7842 68.4571 42.2978 67.5366 41.803C67.4936 41.7799 67.4567 41.7127 67.4496 41.6615C67.4252 41.4841 67.4361 41.2994 67.3925 41.1279C67.3641 41.0162 67.2857 40.8937 67.1931 40.8261C66.8826 40.5996 66.5573 40.3931 66.2334 40.1855C66.1755 40.1483 66.0934 40.1158 66.0298 40.126C65.6884 40.1812 65.5171 39.9711 65.4001 39.7126C65.2416 39.3626 65.097 39.0045 64.974 38.6405C64.7704 38.0378 64.5651 37.4335 64.411 36.8172C64.3579 36.6046 64.4396 36.351 64.4876 36.122C64.5853 35.6559 64.6664 35.1813 64.8237 34.7346C64.9242 34.449 65.1277 34.1899 65.3222 33.9489C65.8249 33.3258 66.089 32.6279 66.0044 31.8282C65.9677 31.481 65.8188 31.1575 65.5591 30.9052C65.2534 30.6083 64.9401 30.3194 64.6335 30.0235C64.41 29.8078 64.426 29.6428 64.717 29.432C65.1244 29.1368 65.5149 28.8179 65.9046 28.4993C66.2374 28.2272 66.3805 27.8384 66.4687 27.4399C66.5886 26.8977 66.603 26.3507 66.3819 25.8215C66.0282 24.9752 65.5185 24.2767 64.5855 24.0133C63.7633 23.7812 62.943 23.7969 62.205 24.263C61.5345 24.6866 61.1086 25.3174 60.9213 26.096C60.7014 27.0098 60.9517 27.832 61.4135 28.6141C61.4522 28.6796 61.4561 28.7657 61.4762 28.8421C61.4075 28.8551 61.3393 28.8766 61.2701 28.8798C60.382 28.9202 59.4992 29.0188 58.7038 29.4422C57.6597 29.9978 57.003 30.8785 56.7134 32.0247C56.67 32.1963 56.6704 32.3807 56.6647 32.5596C56.6453 33.1699 56.6437 33.7809 56.6077 34.3901C56.6002 34.5172 56.5028 34.6733 56.3988 34.7548C55.8996 35.1457 55.7298 36.1031 56.1941 36.6698C56.2405 36.7265 56.28 36.7889 56.3256 36.8463C56.5039 37.0708 56.7626 37.1798 57.0201 37.134C57.2396 37.0949 57.2581 37.1687 57.3306 37.3307C57.4851 37.6761 57.6704 38.0104 57.8701 38.3326C58.1377 38.7644 58.411 39.1957 58.7204 39.5975C58.9073 39.8402 59.1598 40.0355 59.3965 40.2359C59.6836 40.479 59.9872 40.7026 60.2795 40.9396C60.4253 41.0579 60.5852 41.1189 60.7715 41.0921C60.9647 41.0642 61.0734 41.1729 61.13 41.3293C61.2392 41.6315 61.338 41.9381 61.4242 42.2476C61.4424 42.3128 61.4039 42.4079 61.3644 42.4728C61.0197 43.0402 60.6774 43.6093 60.3172 44.1668C60.0249 44.6193 59.6926 45.0464 59.4098 45.5044C59.2348 45.7876 59.1189 46.1073 58.9772 46.411C58.7301 46.9408 58.4777 47.4683 58.2415 48.003C58.1929 48.113 58.1796 48.2539 58.1966 48.374C58.2213 48.5488 58.3937 48.6046 58.5806 48.4918C58.7977 48.3606 59.0022 48.2074 59.2055 48.0549C59.3314 47.9604 59.4446 47.8491 59.5642 47.7463C59.5781 47.7344 59.5966 47.7279 59.613 47.719C59.6156 47.7398 59.6229 47.7614 59.62 47.7815C59.5866 48.0166 59.5597 48.2532 59.5147 48.4862C59.4683 48.7268 59.3976 48.9627 59.3487 49.203C59.2516 49.6802 59.1578 50.1583 59.0709 50.6375C58.9732 51.1764 58.8792 51.7161 58.7943 52.2572C58.7506 52.5354 58.7358 52.8179 58.6982 53.0972C58.6414 53.5194 58.5699 53.9397 58.5168 54.3624C58.4877 54.5933 58.4814 54.8272 58.4686 55.0599C58.4511 55.3772 58.4395 55.6948 58.4213 56.012C58.3765 56.7947 58.3311 57.5773 58.2816 58.3597C58.2694 58.5537 58.1554 58.7028 57.9807 58.7583C57.4839 58.9161 57.1366 59.4962 57.2202 59.9804C57.2397 60.0929 57.2647 60.2094 57.3142 60.3109C57.433 60.5544 57.278 60.6927 57.1239 60.8193C56.8736 61.025 56.6128 61.2182 56.3513 61.4098C55.7308 61.8647 55.1059 62.3136 54.4853 62.7684C53.9231 63.1804 53.3028 63.4669 52.6371 63.67C52.1028 63.833 51.6482 64.142 51.2209 64.4982C51.0111 64.6731 50.8295 64.9321 50.4971 64.8682C50.0266 64.7778 49.5576 64.6797 49.0884 64.583C48.9469 64.5538 48.808 64.5111 48.6659 64.4867C48.1709 64.4015 47.8786 64.0512 47.5872 63.6888C47.3704 63.4192 47.1287 63.1698 46.9031 62.907C46.4593 62.3902 46.0202 61.8692 45.5767 61.3521C45.3562 61.0951 45.1293 60.8437 44.9066 60.5885C44.279 59.8695 43.6552 59.1472 43.0237 58.4316C42.6927 58.0565 42.3479 57.6936 42.0111 57.3236C41.9205 57.224 41.8235 57.1268 41.7518 57.0143C41.6427 56.8432 41.5315 56.7906 41.3185 56.8596C40.8527 57.0104 40.861 56.9816 41.1867 57.3389C41.7699 57.9787 42.3338 58.6361 42.908 59.2841C43.1888 59.6009 43.4789 59.9095 43.7574 60.2282C44.2461 60.7876 44.7274 61.3534 45.215 61.9137C45.5611 62.3113 45.9115 62.7053 46.2618 63.0993C46.5329 63.4041 46.8078 63.7055 47.078 64.0111C47.1016 64.0378 47.1202 64.1118 47.1118 64.117C47.0458 64.1584 46.9714 64.2196 46.9018 64.2169C46.3358 64.1948 45.7706 64.1515 45.2046 64.1322C44.7809 64.1177 44.3559 64.1176 43.9322 64.1322C43.3892 64.151 42.8454 64.1744 42.3049 64.2262C41.7026 64.284 41.1036 64.3768 40.503 64.4529C39.8872 64.5309 39.2694 64.5952 38.6558 64.6878C38.0426 64.7803 37.4344 64.905 36.8225 65.0067C36.3158 65.091 35.8054 65.1536 35.2994 65.2417C34.654 65.354 34.0118 65.4847 33.3674 65.603C32.915 65.6861 32.4607 65.7586 32.0083 65.8418C31.572 65.922 31.1381 66.0149 30.7014 66.0924C30.4262 66.1413 30.1486 66.1906 29.8705 66.2021C29.7538 66.2068 29.6054 66.1435 29.5189 66.0612C28.8573 65.4319 28.2161 64.7811 27.5516 64.155C26.808 63.4542 26.0303 62.7927 25.1918 62.2046C24.8082 61.9355 24.3785 61.9824 23.9606 62.0187C23.7169 62.0398 23.4814 62.1572 23.2427 62.233C23.0469 62.2953 23.0295 62.4162 23.1165 62.5871C23.5121 63.3635 23.9007 64.1435 24.2965 64.9199C24.6386 65.5909 24.9869 66.2587 25.344 66.9394C25.8107 67.8419 26.2652 68.733 26.7212 69.6234ZM63.3325 63.8976C63.1245 63.2962 62.942 62.6848 62.778 62.0698C62.6714 61.6703 62.611 61.2578 62.5425 60.849C62.4722 60.4289 62.4134 60.0068 62.3565 59.5847C62.2905 59.0944 62.1877 58.6039 62.1797 58.1121C62.1637 57.1248 62.2046 56.1366 62.2154 55.1487C62.2221 54.5449 62.2256 53.9409 62.2138 53.3373C62.2045 52.8625 62.4808 52.5086 62.6821 52.1192C62.8162 51.86 62.9576 51.5984 63.0432 51.3216C63.2003 50.8139 63.328 50.2965 63.4497 49.7788C63.5329 49.4248 63.5942 49.0649 63.6489 48.7052C63.7123 48.2889 63.8491 47.898 64.0268 47.5202C64.0417 47.4886 64.1666 47.4654 64.18 47.4834C64.2516 47.5793 64.3049 47.6889 64.3628 47.7949C64.4657 47.9834 64.6221 48.1628 64.6579 48.3636C64.7293 48.7647 64.9142 49.1089 65.1031 49.4531C65.2207 49.6674 65.4188 49.6729 65.5564 49.4763C65.7043 49.265 65.864 49.0517 65.9584 48.8152C66.1803 48.2594 66.379 47.6933 66.5637 47.1238C66.8065 46.3753 67.0355 45.6221 67.2535 44.8661C67.3673 44.4713 67.4807 44.0704 67.5285 43.6645C67.5754 43.2666 67.5383 42.8589 67.5395 42.4555C67.5396 42.4194 67.5506 42.3833 67.5566 42.3472C67.573 42.3601 67.5879 42.3755 67.6059 42.3854C68.0287 42.618 68.4489 42.8556 68.8758 43.0805C69.2991 43.3036 69.7246 43.5239 70.1578 43.727C70.6324 43.9495 71.1088 44.1791 71.3838 44.6453C71.6812 45.1497 72.0289 45.6305 72.2081 46.1991C72.3928 46.7852 72.6018 47.3646 72.7626 47.9572C72.927 48.5633 73.039 49.1834 73.1872 49.7942C73.2819 50.1843 73.4379 50.5628 73.5 50.9569C73.5948 51.5582 73.6534 52.1673 73.6873 52.7753C73.7165 53.2972 73.7142 53.8203 73.7847 54.3402C73.8394 54.7438 73.8765 55.1497 73.9258 55.5541C74.0008 56.1699 74.1355 56.7843 74.1452 57.4008C74.1665 58.7658 74.1103 60.1318 74.1166 61.4972C74.12 62.2129 74.0132 62.9124 73.929 63.6177C73.8354 64.4008 73.78 65.1884 73.6907 65.972C73.63 66.5046 73.5693 67.0403 73.4557 67.5631C73.2707 68.4142 73.0721 69.2646 72.8251 70.0993C72.517 71.1409 72.0647 72.122 71.4277 73.0118C71.0297 73.568 70.5438 74.0234 69.944 74.3508C69.1308 74.7947 68.2587 74.7563 67.385 74.6208C67.2417 74.5985 67.0563 74.4883 66.9949 74.3663C66.823 74.0242 66.6727 73.6634 66.5748 73.2938C66.4357 72.7687 66.3742 72.2232 66.2377 71.6972C66.0126 70.83 65.7294 69.9774 65.5173 69.1073C65.3427 68.3906 65.0098 67.7439 64.7205 67.0775C64.5077 66.5871 64.2559 66.1137 63.9984 65.6095C63.7747 65.0395 63.5324 64.4759 63.3325 63.8976ZM55.6568 72.7506C55.236 73.0078 54.8235 73.2805 54.4232 73.5684C54.1732 73.7483 53.9936 74.0095 53.9388 74.3116C53.8118 75.0111 53.7278 75.7183 53.605 76.4186C53.5189 76.9101 53.3953 77.395 53.2929 77.8838C53.2096 78.2817 53.1326 78.6809 53.0536 79.0797C52.9759 79.4716 52.9003 79.8639 52.8217 80.2556C52.7618 80.5541 52.6998 80.8522 52.6367 81.1501C52.5346 81.6317 52.4533 82.1193 52.3214 82.5927C52.1914 83.059 51.9959 83.5067 51.8532 83.97C51.6158 84.741 51.3213 85.4873 50.98 86.218C50.8991 86.3912 50.763 86.3564 50.6823 86.3248C50.1718 86.1249 49.6681 85.9067 49.1677 85.6821C49.0098 85.6112 48.9259 85.4738 48.9332 85.2862C48.9529 84.7763 48.9667 84.2662 48.9806 83.7562C48.9973 83.146 49.0116 82.5357 49.0272 81.9255C49.0425 81.3281 49.0459 80.73 49.0769 80.1334C49.1073 79.5505 49.1645 78.969 49.2127 78.3871C49.2728 77.6623 49.3287 76.937 49.3998 76.2132C49.449 75.7134 49.494 75.2106 49.5885 74.7184C49.7521 73.866 49.9532 73.0208 50.1378 72.1724C50.3529 71.1838 50.7684 70.3223 51.5901 69.6752C52.2158 69.1824 52.8723 68.7424 53.582 68.3908C54.3672 68.0019 55.1611 67.6232 55.9762 67.3036C56.9078 66.9381 57.8128 66.4764 58.8386 66.3923C59.3315 66.3519 59.8203 66.2655 60.3124 66.2132C60.7071 66.1712 61.1051 66.1593 61.4996 66.1161C62.1241 66.0477 62.7462 65.9568 63.3712 65.8955C63.4589 65.8869 63.5908 65.9693 63.6446 66.0486C63.7681 66.2308 63.8611 66.4347 63.9576 66.6341C64.2588 67.2568 64.6116 67.8619 64.8408 68.5104C65.1436 69.3673 65.3491 70.2586 65.5947 71.1357C65.7338 71.6326 65.7368 71.6548 65.3035 71.7456C64.8023 71.8507 64.2931 71.9204 63.7852 71.9903C63.4531 72.036 63.1165 72.0486 62.7831 72.0869C62.1514 72.1595 61.5213 72.2463 60.8891 72.3145C60.4868 72.358 60.0824 72.3841 59.6784 72.4081C59.0746 72.444 58.4705 72.4775 57.8661 72.4995C57.5041 72.5127 57.1413 72.5019 56.7326 72.5019C56.3531 72.4949 55.9823 72.5516 55.6568 72.7506ZM37.5194 69.8647C37.1301 69.8829 36.7406 69.902 36.3509 69.9103C35.4476 69.9295 34.5441 69.9448 33.6406 69.9557C33.4602 69.9579 33.2978 69.8833 33.2491 69.6976C32.9874 68.6982 32.4726 67.7716 32.4065 66.7143C32.3897 66.4461 32.506 66.2568 32.7797 66.2089C33.0653 66.1589 33.3472 66.0888 33.632 66.0345C33.9902 65.9663 34.3499 65.9064 34.7085 65.8405C35.0305 65.7813 35.3521 65.7198 35.6736 65.6576C35.9089 65.6122 36.1433 65.562 36.3787 65.5175C36.8295 65.4323 37.2807 65.3489 37.7319 65.2662C38.0404 65.2097 38.3487 65.1518 38.6583 65.1021C38.8984 65.0635 39.1408 65.0393 39.3815 65.0042C39.8901 64.93 40.3982 64.853 40.9064 64.7769C41.1968 64.7334 41.4865 64.6856 41.7774 64.6464C42.1653 64.594 42.5544 64.5056 42.9426 64.5078C43.9169 64.5133 44.8912 64.5561 45.8651 64.5941C46.3309 64.6123 46.7974 64.6382 47.2603 64.6904C47.5194 64.7197 47.7686 64.8017 47.9564 65.0199C48.2625 65.3756 48.5912 65.7117 48.9005 66.0646C49.0958 66.2875 49.2786 66.5219 49.4571 66.7587C49.6932 67.0718 49.9812 67.262 50.3929 67.2302C51.0672 67.178 51.7426 67.1397 52.417 67.0879C52.6672 67.0687 52.9163 67.0314 53.1651 66.9966C53.5871 66.9375 54.0079 66.869 54.4304 66.8137C54.8344 66.7608 55.2397 66.7169 55.6451 66.6753C55.7595 66.6635 55.8764 66.67 55.9917 66.6764C56.0147 66.6777 56.0356 66.717 56.0574 66.7387C56.0339 66.7496 56.0098 66.7595 55.9869 66.7715C55.784 66.8774 55.5864 66.9954 55.3776 67.0876C54.765 67.3581 54.1334 67.5894 53.5363 67.8897C52.6693 68.3257 51.8602 68.8582 51.1245 69.4984C50.8964 69.6968 50.6775 69.8442 50.3034 69.7945C49.7104 69.7156 49.1563 69.5693 48.6242 69.3104C47.9081 68.962 47.1794 68.6761 46.356 68.8469C45.8795 68.9457 45.4005 69.0322 44.9247 69.1342C44.6233 69.1988 44.3293 69.3054 44.0256 69.3504C43.6489 69.4063 43.2654 69.4162 42.8852 69.4493C42.1935 69.5096 41.5022 69.5735 40.8105 69.6335C40.3409 69.6743 39.871 69.7111 39.3781 69.7727C38.7585 69.8036 38.1391 69.8358 37.5194 69.8647ZM61.6171 56.5009C61.6103 56.6857 61.6177 56.8709 61.6146 57.0558C61.6002 57.9205 61.5866 58.7852 61.5672 59.6498C61.5616 59.9006 61.5726 60.1594 61.5152 60.4C61.3988 60.8871 61.2462 61.3659 61.0975 61.8447C61.0338 62.0498 60.9453 62.2451 60.7135 62.3262C60.5118 62.3968 60.3165 62.4857 60.1144 62.555C59.8146 62.658 59.7227 62.619 59.5271 62.3447C59.4625 62.254 59.3879 62.1702 59.3152 62.0854C58.8467 61.5392 58.3642 61.0043 57.913 60.4441C57.58 60.0307 57.6378 59.3654 58.1954 59.1519C58.2553 59.129 58.3148 59.1013 58.377 59.0885C58.7065 59.0202 58.6913 59.0211 58.7022 58.7098C58.7414 57.5973 58.6108 56.4819 58.7856 55.3708C58.8554 54.9272 58.8267 54.4685 58.8908 54.0235C58.9906 53.3312 59.1288 52.6443 59.2556 51.9561C59.3755 51.3051 59.4957 50.654 59.627 50.0052C59.725 49.5211 59.8428 49.041 59.9484 48.5584C60.0289 48.1903 60.0921 47.8179 60.1893 47.4544C60.2156 47.3562 60.3376 47.2835 60.4156 47.199C60.5069 47.2872 60.6669 47.3676 60.6779 47.4648C60.7338 47.958 60.8099 48.4607 60.7666 48.9501C60.7168 49.5121 60.6324 50.0694 60.7397 50.6275C60.862 51.2634 61.0654 51.8741 61.41 52.4305C61.6011 52.739 61.7437 53.059 61.7112 53.4406C61.6791 53.8182 61.6686 54.1982 61.6633 54.5774C61.6556 55.1169 61.6613 55.6565 61.6613 56.2424C61.6459 56.3285 61.6203 56.4143 61.6171 56.5009ZM64.0436 37.3935C64.0825 37.4538 64.1365 37.5092 64.158 37.5751C64.3778 38.2477 64.5785 38.9268 64.8134 39.5939C64.9549 39.9959 65.177 40.3545 65.5443 40.6071C65.8111 40.7906 66.0599 41 66.321 41.1921C66.4498 41.2869 66.4226 41.3689 66.3423 41.484C66.102 41.8282 65.8481 42.1668 65.6476 42.5339C65.3708 43.0404 65.1338 43.569 64.8875 44.0918C64.6475 44.6011 64.3969 45.107 64.189 45.6295C64.0124 46.0734 63.9174 46.5502 63.7358 46.9916C63.5716 47.3906 63.3954 47.7839 63.3359 48.2113C63.3156 48.3566 63.2685 48.3578 63.1584 48.3574C62.4966 48.3551 61.8576 48.2676 61.2996 47.8736C61.2519 47.84 61.2115 47.7707 61.2025 47.7126C61.1806 47.5721 61.1844 47.4277 61.1679 47.286C61.1562 47.1861 61.0911 47.078 61.1144 46.9909C61.2013 46.667 61.317 46.3509 61.4182 46.0307C61.6113 45.419 61.8647 44.8137 61.882 44.1684C61.8996 43.5118 61.8405 42.8522 61.7955 42.1952C61.7772 41.9272 61.7246 41.6583 61.6569 41.3978C61.5774 41.0922 61.5963 41.0086 61.872 40.8596C62.3258 40.6144 62.7171 40.2846 62.9967 39.8592C63.4531 39.165 63.8038 38.4179 63.929 37.5544C63.9672 37.5007 64.0054 37.4471 64.0436 37.3935ZM57.4605 37.1886C57.448 37.1637 57.3357 37.0858 57.5027 37.0577C57.6714 37.0293 57.8618 36.9474 57.9777 36.8266C58.2049 36.5896 58.3929 36.3136 58.5839 36.0444C58.6379 35.9682 58.6571 35.922 58.733 36.0133C58.7813 36.0713 58.8439 36.1173 58.892 36.1754C59.3095 36.6796 59.9099 36.8937 60.4721 36.7536C61.146 36.5857 61.5569 35.8671 61.5661 35.2437C61.5697 34.9952 61.6483 34.787 61.8468 34.644C62.1771 34.4061 62.5169 34.1811 62.8564 33.9563C63.0465 33.8304 63.2276 33.8716 63.2767 34.07C63.3981 34.5614 63.5493 35.0539 63.5917 35.5541C63.6442 36.173 63.6192 36.7979 63.4715 37.4155C63.2225 38.4559 62.8993 39.4446 62.0502 40.1778C61.5028 40.6505 60.8266 40.7569 60.1748 40.4708C59.5289 40.1872 59.132 39.6628 58.7459 39.1169C58.4213 38.6581 58.0978 38.1986 57.7508 37.7163C57.6526 37.5411 57.5509 37.3677 57.4605 37.1886ZM29.4857 68.0901C29.0369 68.6613 28.5149 69.138 27.8005 69.3686C27.3593 69.5111 27.1978 69.486 26.9536 69.0205C26.4554 68.071 25.9631 67.1184 25.4722 66.1651C25.2761 65.7844 25.0949 65.396 24.8984 65.0154C24.5148 64.272 24.1261 63.5312 23.7372 62.7905C23.6663 62.6553 23.7337 62.533 23.8383 62.519C24.2011 62.4706 24.5842 62.3669 24.9211 62.5911C25.3654 62.8866 25.8127 63.184 26.2215 63.5251C26.8415 64.0427 27.4387 64.5887 28.0267 65.1426C28.2935 65.3939 28.5188 65.69 28.7559 65.9717C28.9432 66.1942 29.1837 66.3815 29.2549 66.6855C29.3208 66.9667 29.3858 67.248 29.4513 67.5755C29.5282 67.7432 29.6141 67.9266 29.4857 68.0901ZM44.7702 92.9168C44.6644 92.9251 44.4606 92.8771 44.4597 92.8486C44.446 92.4504 44.3707 92.0285 44.728 91.7176C45.1924 91.3135 45.6424 90.8908 46.1268 90.5122C46.9083 89.9012 47.7126 89.3193 48.5078 88.7258C48.7918 88.5138 49.0744 88.2887 49.4361 88.2334C49.7597 88.1839 50.0897 88.1774 50.4145 88.134C50.6885 88.0974 50.875 88.2161 51.0414 88.4133C51.4448 88.8916 51.7383 89.4234 51.8493 90.0444C51.9362 90.5312 51.7796 90.7993 51.3867 90.915C50.6386 91.1352 49.8958 91.3736 49.1491 91.5988C48.614 91.7602 48.074 91.9056 47.54 92.0705C46.7613 92.3109 45.986 92.5623 45.1629 92.809C45.0322 92.8471 44.9031 92.9063 44.7702 92.9168ZM60.4813 62.9255C60.9979 62.721 61.5115 62.5087 62.0294 62.3074C62.1824 62.2479 62.3126 62.2303 62.3631 62.466C62.4178 62.7218 62.5346 62.964 62.619 63.214C62.8063 63.7686 62.9944 64.323 63.1718 64.8808C63.2045 64.9839 63.2544 65.1286 63.0507 65.1483C62.7854 65.1739 62.5217 65.2182 62.256 65.2375C61.7373 65.2752 61.218 65.3123 60.6983 65.3294C59.9262 65.3549 59.1535 65.364 58.3811 65.3776C58.1344 65.3819 57.8876 65.3775 57.6409 65.3788C57.5808 65.3792 57.5172 65.3748 57.4614 65.3923C56.7927 65.6013 56.1262 65.8178 55.4568 66.0248C54.7835 66.233 54.109 66.4375 53.3897 66.3973C53.14 66.3834 53.0941 66.3365 53.186 66.1067C53.2361 65.9814 53.3057 65.8536 53.398 65.7569C53.8486 65.2847 54.3986 64.9551 54.9872 64.6841C55.456 64.4681 55.9144 64.2272 56.4418 64.173C56.6887 64.1476 56.9373 64.1121 57.1771 64.05C57.558 63.9514 57.9358 63.8372 58.3083 63.7103C58.7738 63.5518 59.2327 63.3738 59.7407 63.2042C59.9877 63.1115 60.2361 63.0226 60.4813 62.9255ZM66.2914 42.5051C66.5079 42.1696 66.7358 41.8413 66.9595 41.5104C66.9907 41.4644 67.0247 41.4202 67.0574 41.3752C67.079 41.451 67.1094 41.5255 67.1206 41.6028C67.1576 41.8582 67.1784 42.1163 67.2223 42.3704C67.3091 42.8734 67.3564 43.3676 67.0303 43.8147C67.0097 43.843 66.9935 43.877 66.9842 43.9108C66.8643 44.3466 66.7465 44.783 66.627 45.2188C66.5967 45.3292 66.5651 45.4394 66.5288 45.5479C66.3729 46.0148 66.1839 46.4733 66.0664 46.9494C65.9457 47.4385 65.8533 47.9302 65.6025 48.3769C65.5305 48.5053 65.5072 48.6603 65.454 48.8002C65.4382 48.842 65.3859 48.9093 65.3693 48.9041C65.3163 48.8875 65.2465 48.8525 65.2287 48.8068C65.0217 48.2753 64.922 47.6947 64.5293 47.2483C64.1957 46.8692 64.265 46.4818 64.4696 46.077C64.5495 45.9188 64.599 45.7456 64.6704 45.5827C64.8247 45.2306 64.9724 44.8748 65.1451 44.5317C65.296 44.232 65.4787 43.9483 65.6448 43.6561C65.7616 43.4506 65.874 43.2427 66.0115 43.0128C66.1041 42.8431 66.1868 42.6671 66.2914 42.5051ZM53.7911 63.7348C54.4669 63.2981 55.1522 62.874 55.8071 62.4075C56.3555 62.0169 56.8636 61.5704 57.3966 61.1575C57.5404 61.0461 57.7055 61.0092 57.8524 61.1771C58.0905 61.4492 58.3332 61.7173 58.571 61.9897C58.7481 62.1926 58.9182 62.4016 59.0955 62.6042C59.2342 62.7625 59.2196 62.8475 59.0167 62.9082C58.3646 63.1031 57.7077 63.2825 57.0576 63.4838C56.1701 63.7585 55.2836 64.0377 54.4041 64.3368C54.1228 64.4324 53.8748 64.6257 53.5937 64.7228C53.3083 64.8213 53.0032 64.8728 52.7025 64.9147C52.355 64.9631 52.0033 64.9824 51.6527 65.0042C51.5969 65.0077 51.5376 64.9577 51.48 64.9325C51.5142 64.885 51.5401 64.8274 51.5838 64.7915C52.1395 64.3368 52.803 64.102 53.4931 63.8518C53.593 63.8136 53.7032 63.7915 53.7911 63.7348ZM62.5911 51.5507C62.5052 51.8766 62.301 52.0352 61.9867 52.0647C61.7153 52.0902 61.6355 51.9413 61.5693 51.7429C61.4745 51.4589 61.3806 51.1744 61.2917 50.8885C61.0941 50.2534 61.1224 49.6134 61.2407 48.9678C61.2792 48.7572 61.2702 48.5378 61.2798 48.3224C61.2812 48.2911 61.2653 48.259 61.2574 48.2273C61.2891 48.2365 61.322 48.243 61.3524 48.2555C61.543 48.3344 61.7265 48.4435 61.9246 48.488C62.2957 48.5714 62.674 48.6266 63.0517 48.6748C63.1975 48.6934 63.2839 48.7087 63.2376 48.8871C63.1938 49.0556 63.1764 49.2308 63.1416 49.4019C63.0666 49.7705 62.988 50.1383 62.9109 50.5527C62.8029 50.885 62.6801 51.2134 62.5911 51.5507ZM58.6363 48.071C58.6003 48.1015 58.5603 48.1272 58.5222 48.1551C58.5224 48.1035 58.5081 48.0463 58.5252 48.001C58.6255 47.7346 58.7189 47.4642 58.8412 47.2078C59.1022 46.6605 59.3421 46.0977 59.6607 45.5847C59.9739 45.0804 60.3957 44.6446 60.7284 44.1509C60.9667 43.7972 61.1354 43.3967 61.3389 43.0192C61.3702 42.9611 61.4219 42.9141 61.4642 42.8619C61.4836 42.9232 61.5211 42.9849 61.5196 43.0457C61.5098 43.44 61.5047 43.8352 61.4717 44.2279C61.4491 44.4958 61.404 44.7657 61.3319 45.0244C61.252 45.3116 61.1071 45.5812 61.0324 45.8693C60.945 46.2064 60.7849 46.4197 60.4583 46.5999C59.9168 46.8985 59.358 47.209 58.9771 47.7773C58.8636 47.8753 58.7507 47.974 58.6363 48.071ZM61.0468 35.0001C61.2245 35.2589 60.895 36.1654 60.7158 36.2328C59.4616 36.7049 59.1041 35.8971 59.0876 35.6753C59.0549 35.2352 59.0006 34.7889 59.4168 34.432C60.5144 34.2136 60.7596 34.582 61.0468 35.0001ZM56.2445 35.3666C56.4131 34.9467 56.6682 34.6728 57.1124 34.7686C57.339 34.8175 57.5387 34.9972 57.7472 35.1233C58.195 35.3942 58.2536 35.5424 58.0971 36.0227C57.9404 36.5033 57.5749 36.7787 57.1099 36.8721C56.7251 36.9495 56.45 36.7108 56.2467 36.3516C56.1954 36.0236 56.1111 35.6989 56.2445 35.3666ZM57.9053 34.8237C57.7245 34.6951 57.5285 34.5047 57.3335 34.4977C56.996 34.4855 57.0508 34.2794 57.0872 34.1171C57.1889 33.6636 57.3218 33.2168 57.4515 32.77C57.5404 32.4641 57.6155 32.4466 57.8309 32.662C58.2 33.031 58.5738 33.3929 59.0375 33.6476C59.1825 33.7273 59.2024 33.9109 59.0987 34.0555C59.0601 34.1093 59.0078 34.1555 58.9788 34.2137C58.8363 34.5003 58.707 34.7938 58.5548 35.0751C58.5211 35.1373 58.5467 35.3572 58.3292 35.1952C58.1887 35.0702 58.0577 34.932 57.9053 34.8237ZM30.6716 68.007C30.3568 67.9485 30.0194 67.8677 29.9708 67.4489C29.9626 67.3786 29.9306 67.3114 29.9146 67.2416C29.8153 66.8086 29.9277 66.6699 30.3613 66.6234C30.7694 66.5795 31.1745 66.5065 31.5801 66.4411C31.7971 66.406 31.8371 66.4467 31.8611 66.6675C31.8943 66.9734 31.9419 67.2784 31.9991 67.5809C32.0492 67.8459 31.9751 68.0556 31.7421 68.1074C31.3848 68.0766 31.0225 68.0723 30.6716 68.007ZM49.5699 87.7137C49.5258 87.7118 49.451 87.6245 49.4493 87.5745C49.4385 87.2437 49.4464 86.9123 49.4427 86.5811C49.4406 86.395 49.5832 86.3889 49.6855 86.4215C49.9083 86.4925 50.1203 86.5983 50.3353 86.6929C50.4907 86.7613 50.6653 86.8166 50.6465 87.0406C50.6333 87.1988 50.6333 87.3607 50.5968 87.5137C50.5363 87.7678 50.317 87.647 50.1379 87.6975C49.9484 87.7052 49.7586 87.7222 49.5699 87.7137ZM61.8961 60.8052C61.9094 60.7675 61.9642 60.7445 61.9999 60.7148C62.0259 60.7519 62.0711 60.7873 62.0747 60.8265C62.0964 61.0644 62.115 61.3029 62.1223 61.5416C62.1294 61.7747 61.9643 61.9259 61.7271 61.9044C61.687 61.9008 61.6157 61.8299 61.6209 61.8016C61.6558 61.6121 61.7076 61.4257 61.777 61.2151C61.8156 61.0781 61.8488 60.9391 61.8961 60.8052ZM48.8574 65.1751C48.8317 65.1243 48.7777 64.9826 48.9347 65.012C49.1742 65.057 49.4095 65.1249 49.645 65.1891C49.688 65.2008 49.7232 65.2411 49.762 65.2683C49.717 65.2895 49.6726 65.3275 49.6269 65.3291C49.4349 65.336 49.2425 65.332 49.0272 65.3089C48.9683 65.2654 48.8868 65.2334 48.8574 65.1751ZM66.7288 40.908C66.7657 40.9295 66.8026 40.9509 66.8395 40.9724C66.8105 41.0047 66.7867 41.0496 66.7505 41.0647C66.7288 41.0738 66.6814 41.0427 66.6564 41.0185C66.514 40.8805 66.3741 40.7398 66.2351 40.5984C66.2073 40.57 66.187 40.5342 66.1633 40.5019C66.2101 40.511 66.2689 40.5054 66.3016 40.5319C66.4405 40.6444 66.5717 40.7664 66.7288 40.908Z" fill="#333333"/>
<path fill-rule="evenodd" clip-rule="evenodd" d="M61.7698 38.2135C61.9866 38.0963 62.2011 38.0001 62.2462 37.7389C62.3337 37.2314 62.1508 36.6334 61.4894 36.6682C60.893 36.6995 60.5146 37.1948 60.7256 37.7543C60.8812 38.1667 61.2587 38.3713 61.7698 38.2135Z" fill="#F2994A"/>
<path fill-rule="evenodd" clip-rule="evenodd" d="M58.8287 36.3201C58.8169 36.2422 58.805 36.1878 58.7931 36.1333C58.7743 36.1808 58.7502 36.2269 58.7377 36.276C58.6446 36.6401 58.3498 37.5465 58.7009 37.9636C58.7302 37.9983 58.8783 38.0038 58.9706 37.9979C59.152 37.9865 59.3633 37.719 59.3297 37.5465C59.3247 37.5206 58.887 37.9454 58.7931 37.7155C58.6365 37.3322 58.8287 36.4519 58.8287 36.3201Z" fill="#333333"/>
<path fill-rule="evenodd" clip-rule="evenodd" d="M61.2975 38.9764C61.3157 38.9671 61.3409 38.9696 61.3628 38.9705C61.4167 38.9727 61.4905 38.8762 61.459 38.8353C61.4117 38.7738 61.3581 38.7118 61.2941 38.6713C61.2559 38.6472 61.1928 38.7253 61.1976 38.7599C61.2011 38.7857 61.1766 38.8261 61.1528 38.8436C60.7905 39.1098 60.3882 39.2823 59.948 39.3653C59.9189 39.3707 59.8936 39.3967 59.8666 39.4132C59.8935 39.4319 59.9204 39.4683 59.9475 39.4667C60.4277 39.4386 60.9829 39.1359 61.2975 38.9764Z" fill="#333333"/>
<path fill-rule="evenodd" clip-rule="evenodd" d="M72.9972 59.821L73.4533 61.769C73.4886 61.9196 73.3468 62.0516 73.1991 62.0056L71.6157 61.5126C71.4825 61.4711 71.4316 61.3094 71.517 61.1991L72.6443 59.7441C72.7474 59.6111 72.9588 59.6571 72.9972 59.821ZM72.8024 60.1332L71.8085 61.3216L73.2586 61.8146L72.8024 60.1332Z" fill="#F2994A"/>
<path fill-rule="evenodd" clip-rule="evenodd" d="M71.582 48.5819C71.7487 48.567 71.8589 48.7512 71.7669 48.891L70.6069 50.6545C70.5287 50.7734 70.3549 50.7749 70.2747 50.6573L69.207 49.0938C69.1209 48.9677 69.2022 48.7955 69.3543 48.7818L71.582 48.5819ZM71.425 48.7818L69.4306 49.1694L70.6069 50.4006L71.425 48.7818Z" fill="#F2994A"/>
<path fill-rule="evenodd" clip-rule="evenodd" d="M64.2304 62.0667H65.8665C66.0021 62.0667 66.0984 62.1988 66.0569 62.3279L65.5073 64.0361C65.4554 64.1974 65.2391 64.2252 65.1481 64.0822L64.0616 62.374C63.9769 62.2408 64.0726 62.0667 64.2304 62.0667ZM64.3637 62.4L65.1836 63.9749L65.7332 62.2667L64.3637 62.4Z" fill="#F2994A"/>
<path fill-rule="evenodd" clip-rule="evenodd" d="M69.5915 71.3233L69.6662 72.8043C69.6741 72.9595 69.5096 73.0639 69.3725 72.9909L67.4702 71.9775C67.309 71.8916 67.3377 71.6525 67.5146 71.6072L69.3421 71.1396C69.4646 71.1083 69.5851 71.197 69.5915 71.3233ZM69.4469 71.4647L67.6987 71.7074L69.3725 72.6969L69.4469 71.4647Z" fill="#F2994A"/>
<path fill-rule="evenodd" clip-rule="evenodd" d="M72.1138 53.1342L73.5804 54.1509C73.7046 54.2369 73.6922 54.4242 73.5578 54.4932L71.8415 55.3743C71.698 55.448 71.5308 55.3302 71.5519 55.1703L71.8015 53.2725C71.8211 53.1241 71.9907 53.049 72.1138 53.1342ZM72.0549 53.4875L71.7501 55.1964L73.4665 54.3152L72.0549 53.4875Z" fill="#F2994A"/>
<path fill-rule="evenodd" clip-rule="evenodd" d="M65.3843 57.4886L66.2995 58.855C66.3783 58.9726 66.3133 59.1327 66.1747 59.162L65.1046 59.3883C64.9724 59.4162 64.8511 59.3077 64.8642 59.1732L65.0191 57.5805C65.0373 57.3936 65.2798 57.3325 65.3843 57.4886ZM65.1351 57.7624V59.2256L66.0552 58.855L65.1351 57.7624Z" fill="#F2994A"/>
<path fill-rule="evenodd" clip-rule="evenodd" d="M65.2109 51.0516C64.9447 50.8778 64.711 50.919 64.9012 51.3014C64.9012 51.3014 66.2893 54.8209 66.704 54.8626C67.0973 54.9021 67.2872 54.3935 67.8364 52.9392L67.8597 52.8772C67.8618 52.8718 67.8636 52.8663 67.8652 52.8608L67.8681 52.8491L67.8717 52.8427L67.8793 52.825L67.945 52.6474C68.0225 52.4356 68.2178 52.0861 68.321 51.9647C68.4311 51.8354 68.1856 51.7553 68.0042 51.7553C67.6658 51.7553 67.2517 51.8498 66.6004 51.6618C65.8377 51.4417 65.5759 51.2898 65.2109 51.0516ZM65.8013 52.8597L65.8196 52.8715C66.0132 52.9908 66.2272 53.0825 66.4611 53.1464C66.7409 53.2229 67.1468 53.2323 67.4094 53.1751L67.4533 53.1648L67.4371 53.2052C67.2889 53.5745 67.1571 54.0016 67.0423 54.2188L67.0022 54.2927C66.9302 54.4221 66.867 54.516 66.8159 54.5725L66.7999 54.5891L66.7801 54.5651C66.6945 54.4557 66.3897 54.044 66.1781 53.6327L66.1559 53.5894C66.0653 53.4117 65.9664 53.2098 65.8594 52.9836L65.8013 52.8597ZM65.2299 51.4582L65.2621 51.4765C65.5633 51.6442 66.0614 51.9225 66.4895 52.0461C67.002 52.194 67.4365 52.2468 67.7939 52.1995L67.8158 52.1962L67.8033 52.2316C67.7691 52.3272 67.6244 52.7796 67.5731 52.8491C67.3657 53.0408 67.1114 53.059 66.7999 52.9836L66.7553 52.9721C65.6402 52.7566 65.2299 51.4582 65.2299 51.4582Z" fill="#F2994A"/>
<path fill-rule="evenodd" clip-rule="evenodd" d="M26.0694 63.7619C26.025 63.7292 25.9624 63.7386 25.9296 63.7831C25.6988 64.0962 25.308 64.1116 24.7883 63.8231C24.74 63.7963 24.6792 63.8137 24.6523 63.862C24.6255 63.9102 24.6429 63.9711 24.6912 63.9979C25.2891 64.3299 25.7895 64.3101 26.0906 63.9018C26.1234 63.8573 26.1139 63.7947 26.0694 63.7619Z" fill="#E0E0E0"/>
<path fill-rule="evenodd" clip-rule="evenodd" d="M26.8252 64.5631C26.7843 64.526 26.7211 64.529 26.6839 64.5698C26.3337 64.955 25.8685 64.977 25.49 64.7749C25.4413 64.7489 25.3807 64.7673 25.3547 64.816C25.3287 64.8647 25.3471 64.9253 25.3958 64.9513C25.8478 65.1927 26.4122 65.166 26.8319 64.7044C26.8691 64.6635 26.866 64.6003 26.8252 64.5631Z" fill="#E0E0E0"/>
<path fill-rule="evenodd" clip-rule="evenodd" d="M27.6443 65.3565C27.6041 65.3187 27.5408 65.3206 27.503 65.3608C27.1655 65.7193 26.4793 65.8946 26.01 65.6458C25.9612 65.6199 25.9007 65.6385 25.8748 65.6873C25.849 65.7361 25.8676 65.7967 25.9164 65.8225C26.4722 66.1171 27.2536 65.9175 27.6486 65.4979C27.6865 65.4577 27.6845 65.3944 27.6443 65.3565Z" fill="#E0E0E0"/>
<path fill-rule="evenodd" clip-rule="evenodd" d="M27.0085 68.4928C26.3065 68.1532 27.0322 66.8946 27.7116 67.404C28.1473 67.7307 27.6695 68.8127 27.0085 68.4928Z" fill="#E0E0E0"/>
</svg>
