<svg width="100" height="100" viewBox="0 0 100 100" fill="none" xmlns="http://www.w3.org/2000/svg">
<path fill-rule="evenodd" clip-rule="evenodd" d="M56.8119 82.9044C66.4692 82.9044 74.9439 75.7208 70.1845 65.9637C65.4251 56.2066 83.1094 56.5218 88.3041 49.7783C94.6393 41.5543 92.8046 6.64495 52.1352 27.9274C45.6205 31.3366 28.8891 24.4201 23.3393 27.852C16.8066 31.8916 7.61537 40.1634 16.8066 48.6366C21.334 52.8104 5.10217 63.6436 12.2114 73.3473C19.1482 82.8157 24.0107 73.7896 34.5719 75.7208C45.1331 77.6521 49.6397 82.9044 56.8119 82.9044Z" fill="#C0F0FF"/>
<path d="M45.603 65.93C45.603 65.93 47.8266 64.884 48.6568 64.1563C49.4869 63.4286 50.5189 61.6207 50.5189 61.6207C50.5189 61.6207 61.8554 69.8078 69.2471 68.6399C70.9502 68.3708 74.2687 67.2388 74.4803 65.2442C75.0582 59.7977 67.063 58.4058 68.8094 55.6439C69.8755 53.9579 73.1871 56.4671 73.1871 56.4671L86.9229 63.2234C86.9229 63.2234 82.1775 74.9207 70.6618 75.3894C56.4959 75.9661 45.603 65.93 45.603 65.93Z" fill="white"/>
<path fill-rule="evenodd" clip-rule="evenodd" d="M34.7128 20.1206C34.5839 20.07 33.8915 19.2222 33.0126 19.0679C32.6132 18.9978 32.9757 19.5064 32.5361 19.511C31.2269 19.5246 29.0993 19.2786 28.7052 19.511C28.4122 19.6831 29.0574 20.2844 28.7052 20.312C25.3823 20.5725 20.313 23.8902 19.2132 25.4999C18.8632 26.0121 21.694 25.143 21.243 25.3963C20.7367 25.6805 20.1753 27.5416 19.8396 28.9791C19.6072 29.9689 19.4609 31.2428 19.4092 32.6286C19.3662 33.825 19.3834 34.023 19.5556 34.6771C19.7535 35.4087 19.9085 35.6239 20.1753 35.5206C20.27 35.4862 20.313 35.3571 20.313 35.1161C20.313 34.9267 20.4163 34.3586 20.5454 33.8508L20.7692 32.9384L20.8639 33.3172C20.9844 33.7561 21.6902 35.1161 22.3271 36.1059C22.3615 36.1585 22.5093 36.0917 22.6426 35.7695C22.764 35.4759 22.7147 35.007 22.921 34.5044C23.391 33.3594 24.3138 31.8709 25.3823 30.6793C26.9615 28.9183 27.4854 26.8803 28.9657 25.2443C31.7282 22.1912 35.1954 20.31 34.7128 20.1206Z" fill="white"/>
<path fill-rule="evenodd" clip-rule="evenodd" d="M21.2821 25.8117C20.839 26.1681 20.1812 29.0585 20.1699 29.1068C19.9375 30.0967 19.7135 33.5341 19.9425 34.1848C20.1715 34.8356 20.8127 32.4897 20.8127 32.4897C20.8127 32.4897 21.7818 35.0063 22.6382 35.6963C22.6747 35.7257 21.6203 32.5827 21.2821 30.7479C20.8358 28.3258 21.5344 25.6089 21.2821 25.8117Z" fill="#E0E0E0"/>
<path fill-rule="evenodd" clip-rule="evenodd" d="M37.7995 76.4333C38.6258 76.2526 40.02 75.6231 40.5538 75.4079C41.0877 75.1926 42.7143 72.8957 43.2996 70.3049C43.7213 68.3941 43.9365 65.6741 43.6955 65.218C43.6599 65.1532 43.5297 63.9164 43.8763 64.3202C44.6467 65.218 45.5612 66.6273 48.4467 64.1019C49.2326 63.4141 50.2743 62.5264 50 61.7416C49.2326 59.5459 45.906 55.1245 45.3989 54.7896C44.7926 54.3892 41.7278 54.7295 37.1669 53.3833C31.9944 51.8566 29.8406 47.3611 27.8165 47.9462C26.1796 48.4195 22.2576 51.3278 21.2733 53.1696C16.6264 61.8644 22.2576 67.9569 23.54 69.7069L24.7852 70.2446L24.8282 71.355L24.8884 72.0522C25.0003 73.3863 25.0434 73.5068 25.6459 73.9544C27.1522 75.0992 30.1217 76.1665 32.8072 76.5452C34.0553 76.7174 36.7666 76.6571 37.7995 76.4333Z" fill="white"/>
<path fill-rule="evenodd" clip-rule="evenodd" d="M25.275 70.9486L25.3352 71.6458C25.4471 72.9799 25.4902 73.1004 26.0927 73.548C26.9813 74.2234 28.3791 74.8717 29.9275 75.3677C31.0038 75.7124 32.1528 75.9835 33.254 76.1388C34.5021 76.311 37.2134 76.2507 38.2463 76.0269C38.7568 75.9163 34.5573 72.6171 32.0834 73.548C30.1835 74.2629 25.7055 68.8097 27.5262 67.385C29.5686 65.7868 25.8261 59.4833 25.7055 58.1148C25.585 56.7463 25.1105 56.4193 25.0966 56.4673C25.0828 56.5153 25.0828 56.6791 25.12 57.0736C25.2806 58.7741 25.275 70.9486 25.275 70.9486Z" fill="#E0E0E0"/>
<path fill-rule="evenodd" clip-rule="evenodd" d="M24.8266 57.7242C25.0073 57.689 25.1823 57.807 25.2175 57.9877C25.8671 61.3252 28.6149 63.5846 33.5285 64.7662C38.4712 65.9547 41.8379 65.8906 43.6119 64.6219C43.7616 64.5148 43.65 65.4319 43.5403 65.5023C42.3833 66.2443 38.4495 67.3513 33.7552 66.3507C27.7529 65.0713 24.9347 60.0243 24.5631 58.1151C24.5279 57.9344 24.6459 57.7594 24.8266 57.7242Z" fill="#F2994A"/>
<path fill-rule="evenodd" clip-rule="evenodd" d="M22.3236 51.7026C22.4834 51.6111 28.445 58.4436 36.6262 59.9902C44.8075 61.5367 46.7884 60.5531 47.1068 58.4436C47.1342 58.2616 47.3041 58.1363 47.4861 58.1638C47.6682 58.1912 47.7934 58.3611 47.766 58.5431C47.3624 61.2166 43.5768 61.8525 36.5141 60.6473C29.5401 59.4573 24.7588 56.6298 22.1998 52.1574C22.1084 51.9976 22.1638 51.794 22.3236 51.7026Z" fill="#F2994A"/>
<path fill-rule="evenodd" clip-rule="evenodd" d="M56.6619 51.3238C56.4381 51.2463 56.1971 51.0741 56.0422 50.8762L55.7839 50.5577L56.6963 49.6539C58.0993 48.2768 59.1752 46.8652 60.1048 45.1867C60.4147 44.6273 61.1979 42.7595 61.1979 42.5787C61.1979 42.5185 61.2926 42.2775 61.4045 42.0278C61.5767 41.6663 61.7058 41.5286 62.0759 41.322C62.5149 41.0638 63.0141 40.9777 63.2293 41.1241C63.6424 41.3995 63.6424 42.2688 63.2293 43.7665C62.7731 45.4105 62.162 46.5897 60.8967 48.2854C60.6987 48.5436 60.3286 49.0514 60.0618 49.4043C59.3474 50.3511 58.8826 50.8073 58.2542 51.1602C57.6345 51.5045 57.273 51.5476 56.6619 51.3238ZM62.8419 50.5491L63.4616 50.8246C63.5901 50.8839 65.0077 51.565 66.7105 52.3832C69.456 53.7024 72.9429 55.3778 72.9641 55.3778C72.9986 55.3778 73.1601 55.0044 73.1965 54.5687C73.2826 53.6305 73.6011 52.3567 73.9712 51.4701C74.1433 51.0742 74.2811 50.5793 74.2811 50.5363C74.2811 50.5166 74.1411 50.4602 73.912 50.3678C73.6393 50.2578 73.2403 50.0968 72.8006 49.8864C70.6315 48.8449 66.3881 46.7188 65.8631 46.4004C65.3466 46.0991 65.2433 46.0733 65.2433 46.2713C65.2433 46.5295 64.7183 47.7259 64.3137 48.3715C64.0986 48.7244 63.6768 49.3613 63.3755 49.7831L62.8419 50.5491ZM72.8178 53.8286C73.0647 53.9717 72.6371 54.1815 72.5338 54.216C71.9256 54.2676 71.2096 54.1532 70.623 53.8114C70.3162 53.5939 67.901 52.2521 66.2989 51.362C65.5664 50.9551 65.0039 50.6426 64.8905 50.575C64.529 50.3599 64.1847 50.1275 64.1245 50.0586C63.9437 49.8262 64.1158 49.7229 64.6237 49.7659C64.929 49.7918 72.2847 53.5196 72.8178 53.8286ZM37.8289 76.3626C38.4929 76.2173 39.5235 75.7824 40.1798 75.5054C40.3403 75.4377 40.4784 75.3794 40.5833 75.3371C41.1171 75.1219 42.7437 72.825 43.329 70.2341C43.7508 68.3233 43.966 65.6034 43.725 65.1472C43.5796 64.883 44.443 65.7693 45.0859 66.4294L45.0859 66.4295L45.086 66.4295C45.2808 66.6296 45.4554 66.8088 45.5755 66.9289C49.3283 70.6559 54.9145 73.6513 60.7159 75.0543C63.6079 75.7601 65.6651 76.0097 68.428 76.0097C73.0674 76.0097 76.7255 75.0973 80.048 73.0918C80.2058 72.9965 80.3537 72.909 80.4947 72.8255C81.6528 72.1398 82.3428 71.7313 84.2311 69.6058C86.3493 67.2216 88.2336 61.687 88.8619 59.7762C89.1373 58.9155 89.8087 55.492 89.8087 54.6376C89.8087 53.6262 89.4558 53.1485 88.9738 52.6579C88.1217 51.823 86.9683 51.5218 86.0129 51.8833L85.5653 52.0554L85.4276 51.5992C85.2296 50.9106 84.8164 50.3598 84.1795 49.9466C83.2327 49.3183 83.095 49.2752 82.2428 49.2752C81.5801 49.2752 81.3993 49.3097 80.9776 49.5076L80.4869 49.7314L80.3837 49.4216C80.1857 48.7846 79.5217 47.8967 79.0065 47.6398C78.5496 47.412 77.7587 47.3912 77.2075 47.4935C76.0025 47.7173 75.1418 48.2768 74.7889 49.0601C74.6856 49.3011 74.5565 49.4904 74.5048 49.4904C74.4618 49.4904 72.7661 49.0169 70.7434 48.1217C70.4022 47.9702 70.0817 47.8281 69.7807 47.6947C66.1484 46.0848 65.3611 45.7358 65.4327 45.2986C65.4929 44.9285 65.4757 44.7219 65.3724 44.4035C65.1917 43.8698 64.9851 43.7235 64.3998 43.7235C63.935 43.7235 63.935 43.7235 63.9867 43.4911C64.2621 42.1742 64.2535 41.4167 63.9608 40.9347C63.7629 40.6162 63.5305 40.4871 62.9968 40.4097C62.6869 40.3666 62.5406 40.3924 62.1963 40.5818C61.9639 40.7023 61.766 40.7884 61.7487 40.7712C61.7315 40.754 61.7918 40.2806 61.8865 39.7211C62.5923 35.5809 62.047 32.0138 60.2481 28.2266C60.2308 28.1903 60.2109 28.1475 60.188 28.0984C59.6411 26.9243 57.4421 22.2031 51.1531 19.8209C50.8685 19.7131 50.5992 19.6088 50.3404 19.5087L50.3402 19.5086C48.1979 18.6794 46.7738 18.1281 43.3376 18.1338C39.4862 18.1402 38.1818 18.6847 35.6427 19.8467C35.2898 20.0102 34.9799 20.1049 34.9541 20.0705C34.9282 20.0275 34.7647 19.9242 34.6012 19.8381C34.4376 19.752 34.0847 19.5368 33.8265 19.3647C33.0863 18.8655 32.6301 18.6589 32.3977 18.7105C32.1309 18.7794 32.1309 19.0032 32.3977 19.1065C32.5096 19.1495 32.6387 19.2958 32.6903 19.4422C32.8022 19.752 32.9313 19.7864 33.0088 19.5282C33.0432 19.4335 33.0949 19.3647 33.1207 19.3819C33.1305 19.3868 33.1633 19.4021 33.2133 19.4255C33.3391 19.4844 33.574 19.5944 33.8265 19.7176C34.1794 19.8897 34.5667 20.0705 34.67 20.1135C34.8594 20.1824 34.7991 20.234 33.9814 20.716C30.7881 22.5924 28.1887 25.5103 26.734 28.8328C26.5103 29.332 26.3123 29.6419 26.1057 29.814C25.5807 30.253 24.5478 31.5011 24.3068 31.9917C24.1777 32.2585 23.9022 32.6717 23.687 32.9127C23.4805 33.1537 23.2567 33.4635 23.1792 33.5926C23.1104 33.7304 23.0415 33.825 23.0157 33.8078C22.9985 33.782 23.0243 33.3602 23.0845 32.8696C23.2136 31.7248 23.2136 31.4236 23.1104 31.3978C22.9554 31.3547 22.7316 31.9572 22.6369 32.7061C22.5681 33.1623 22.5509 33.8509 22.5939 34.5567L22.6456 35.6756L22.0344 34.6858C21.8239 34.3542 21.6166 34.0227 21.4696 33.7875C21.3762 33.6381 21.3071 33.5276 21.277 33.4807C21.0532 33.1537 20.9241 32.663 21.0188 32.4995C21.0704 32.4048 21.0618 32.3618 20.9757 32.3618C20.795 32.3618 20.4421 32.9385 20.2097 33.6012C20.0978 33.9111 19.9859 34.1693 19.9515 34.1693C19.8223 34.1693 19.8826 31.0879 20.0203 30.0981C20.3044 28.1442 21.0532 25.7341 21.3889 25.7341C21.4577 25.7341 21.518 25.6997 21.518 25.6481C21.518 25.4931 21.2942 25.5534 21.1134 25.7513C20.7089 26.1903 20.1752 27.5417 19.8396 28.9791C19.6072 29.9689 19.4608 31.2428 19.4092 32.6286C19.3662 33.825 19.3834 34.023 19.5555 34.6772C19.7535 35.4088 19.9084 35.624 20.1752 35.5207C20.2699 35.4863 20.313 35.3571 20.313 35.1161C20.313 34.9268 20.4163 34.3587 20.5454 33.8509L20.7692 32.9385L20.8638 33.3172C20.9843 33.7562 21.6901 35.1161 22.3271 36.106C22.7661 36.7774 22.7747 36.8204 22.921 37.8705C22.9985 38.4644 23.2395 39.909 23.7989 42.1311C24.2933 44.0946 27.0723 46.0423 27.7662 46.5286C27.8576 46.5927 27.9128 46.6314 27.9219 46.6414C28.0079 46.7361 28.1284 46.7877 28.1973 46.7619C28.2748 46.7361 28.3178 46.7705 28.3178 46.8652C28.3178 46.9513 28.378 47.0631 28.4469 47.1148C28.533 47.175 28.5932 47.4074 28.6104 47.812C28.6535 48.6211 29.256 50.1704 29.7208 50.6782C30.0221 51.0053 30.6504 51.143 31.3476 51.0225C31.8038 50.9537 31.9329 50.902 31.8898 50.7987C31.864 50.7299 32.0276 50.816 32.2514 50.9881C34.868 52.985 37.5191 54.1814 40.4972 54.6979C41.6506 54.8958 43.5614 55.0077 44.6029 54.9303C45.2707 54.8866 45.4543 54.8746 45.4883 54.9402C45.5013 54.9651 45.4927 55.0011 45.4809 55.0508C45.4206 55.2918 45.4981 55.4381 46.7633 57.5813C47.7704 59.277 47.8565 59.3889 48.9754 60.5337C51.3511 62.9868 53.9419 64.889 56.877 66.3608C59.6399 67.738 64.0512 68.8828 68.0838 69.2443C72.1163 69.6058 75.0127 65.9046 75.0041 64.9578C74.9868 63.6581 74.8061 62.806 74.3671 61.9797C73.9367 61.1792 73.6527 60.9038 72.3616 60.043C70.9242 59.0876 70.0376 58.3044 69.4523 57.4694C69.0822 56.9444 68.9445 56.3505 68.9445 56.032C68.9445 55.8254 69.2113 55.3606 69.6073 55.266C69.9688 55.1713 70.0376 55.1799 70.4422 55.3779C70.6832 55.4897 71.3115 55.7824 71.8279 56.032C72.353 56.273 72.8608 56.514 72.9641 56.5657C73.2686 56.6503 73.3974 57.2463 73.4671 57.5693C73.4827 57.6415 73.4954 57.7001 73.5064 57.7363C73.6269 58.1839 74.1972 58.7618 74.5651 58.9585C75.2112 59.304 76.8032 59.3502 77.2421 58.8768C77.354 58.7563 77.725 58.6081 77.8014 58.653C77.8779 58.6979 78.1544 59.0704 78.1544 59.3717C78.163 59.8881 78.4298 60.3615 78.9979 60.8349C80.0738 61.7301 80.9087 61.9453 81.7522 61.5493C82.1912 61.3427 82.551 61.2621 82.551 61.2621C82.551 61.2621 82.9098 61.7199 82.9314 61.8764C83.1005 63.0993 84.9111 63.612 85.3931 63.6637C85.5036 63.6747 85.7186 63.6274 85.937 63.5794C86.2289 63.5153 86.5269 63.4497 86.5896 63.5204C86.7125 63.6591 84.5324 67.2646 84.2311 67.7208C81.3649 72.0245 75.7873 74.6583 68.9617 74.9338C64.5289 75.1145 59.0805 73.8751 54.355 71.6199C51.3338 70.1653 48.657 68.3836 45.7907 65.8874C45.2915 65.4571 44.7148 64.9664 44.5082 64.7943C44.3016 64.6308 43.811 64.0713 43.4323 63.5548C42.7954 62.6941 42.4339 62.3842 42.4339 62.6769C42.4339 62.806 42.847 63.5979 43.3204 64.3811C43.5098 64.691 43.6303 64.9062 43.5872 64.8718C43.5442 64.8373 43.4065 65.4571 43.2774 66.2489C42.8556 68.7881 42.1584 71.2929 41.4526 72.8508C41.0653 73.6943 40.3226 74.3242 40.0988 74.4964C39.2725 75.1247 38.0355 75.4072 36.3226 75.5793C34.1536 75.7945 30.9603 75.3125 28.5244 74.4001C27.8788 74.1591 26.2176 73.4619 26.1057 73.3844C26.099 73.3777 26.0609 73.1301 26.0076 72.7845L25.9594 72.4721C25.6495 70.346 25.2192 62.1604 25.2192 58.3732C25.2192 56.8067 25.2019 56.4624 25.0986 56.4624C24.8835 56.4624 24.7974 56.669 24.7027 57.4092C24.4875 59.0962 24.5306 67.9016 24.763 69.7521L24.8146 70.1739L24.522 70.0104C24.0744 69.7521 22.3701 68.0221 21.7762 67.2216C21.2734 66.5372 20.9746 65.6608 20.751 65.0051C20.699 64.8525 20.6511 64.712 20.6056 64.5885C19.3575 61.1284 19.7965 57.2456 21.518 53.7511C22.9812 50.7729 24.7802 49.1203 27.414 48.3198C27.8444 48.1907 28.2231 48.053 28.2662 48.0186C28.4297 47.8636 27.3796 47.9411 26.8029 48.1219C24.9265 48.6985 22.964 50.2737 21.6299 52.2878C19.7535 55.111 18.91 59.277 19.5039 62.8318C19.6416 63.6753 20.2011 65.5001 20.356 65.6292C20.3697 65.6429 20.4405 65.7914 20.5476 66.0161C20.8436 66.6371 21.417 67.8399 21.8279 68.3836C22.3271 69.0635 23.8334 70.544 24.4617 71.0002L24.8576 71.2842L24.9179 71.9814C25.0298 73.3156 25.0728 73.4361 25.6753 73.8837C27.1816 75.0284 30.1512 76.0958 32.8367 76.4745C34.0847 76.6466 36.796 76.5864 37.8289 76.3626ZM66.9217 68.2803C61.9208 67.8414 55.8784 65.457 51.5059 61.773C49.6639 60.2151 47.2711 57.1854 46.3243 55.507C46.1263 55.1627 45.98 54.9992 45.8078 54.9561C45.6271 54.9045 45.782 54.8529 46.5222 54.7323C49.6467 54.1987 52.6851 52.899 55.1382 51.0484L55.4997 50.7816L55.603 51.0312C55.8354 51.5907 56.7305 52.1587 57.3933 52.1587C57.6601 52.1587 58.5553 51.7542 59.0976 51.3841L59.4677 51.1345L59.7689 51.4357C60.0444 51.7112 60.096 51.7284 60.6125 51.7284C61.2064 51.7284 61.9208 51.4616 62.3167 51.0828L62.5319 50.8849L63.143 51.2894C63.4701 51.5218 64.3825 52.0296 65.1658 52.4342C66.3364 53.0367 67.5758 53.7339 68.755 54.4569L68.9444 54.5774L68.7636 54.8184C68.5743 55.0766 68.2215 55.5673 68.2215 56.3161C68.2215 57.1596 69.0986 58.6752 70.7777 59.716C72.0969 60.5337 74.367 62.1421 74.2809 64.4931C74.2705 64.7771 73.9539 65.4829 73.5321 66.1199C73.2567 66.5244 72.4906 67.1269 71.7934 67.4798C70.6056 68.0738 68.514 68.418 66.9217 68.2803ZM21.0273 29.6419C21.2597 29.6936 21.4147 29.771 21.3802 29.8055C21.2684 29.9173 20.6744 29.8657 20.5367 29.728C20.3215 29.5214 20.3732 29.3751 20.6744 29.3148C20.8294 29.289 21.0618 29.1599 21.1909 29.0308C21.32 28.9017 21.4319 28.8414 21.4319 28.8845C21.4319 28.9964 21.0015 29.3923 20.7863 29.4784C20.6486 29.5386 20.6917 29.5645 21.0273 29.6419ZM24.4531 29.7797C24.7027 29.6419 24.6511 29.5473 24.3584 29.5903C24.0658 29.6333 24.0485 29.5989 24.2379 29.3063C24.3154 29.1944 24.3584 29.0308 24.3412 28.9447C24.3154 28.8328 24.2551 28.8845 24.1174 29.1599C24.0141 29.3579 23.8678 29.5214 23.7989 29.5214C23.5837 29.5214 23.5665 29.6936 23.7731 29.771C24.0399 29.8829 24.2465 29.8829 24.4531 29.7797ZM21.475 25.0801C21.2684 25.1145 20.6228 25.3727 20.0547 25.6568C19.478 25.9322 18.9874 26.1646 18.953 26.156C18.075 26.0613 19.2973 24.5981 21.518 23.1004C23.644 21.663 25.0814 20.9055 26.4156 20.5182C27.2505 20.2772 28.1887 20.2428 28.4555 20.4407C28.6018 20.5526 28.5502 20.5612 27.9132 20.5698C26.5361 20.5698 24.9437 21.2756 22.3529 23.0057C21.0102 23.9009 19.4522 25.1834 19.4522 25.3899C19.4522 25.433 19.7018 25.3469 20.0117 25.2092C20.6745 24.9079 21.3544 24.753 21.6557 24.8219C21.9742 24.9079 21.9053 25.0198 21.475 25.0801ZM24.806 25.8204C25.6151 25.6568 25.6496 25.6482 25.6496 25.5621C25.6496 25.5191 25.3397 25.4761 24.9524 25.4589L24.2552 25.433L24.9007 24.7014C25.2536 24.2969 25.6668 23.8923 25.8131 23.7976C26.1316 23.5911 26.1488 23.4447 25.8906 23.3587L25.6926 23.2984L25.9078 23.2209C26.0283 23.1779 26.2521 23.1607 26.407 23.1865C26.6394 23.2209 26.691 23.2037 26.6652 23.0832C26.6394 22.9627 26.5447 22.9369 26.123 22.9455C24.8921 22.9627 24.3671 23.2898 25.3311 23.4447C25.5979 23.4878 25.8217 23.5566 25.8217 23.5997C25.8217 23.6341 25.7787 23.6685 25.727 23.6685C25.5635 23.6685 24.1777 25.0715 24.0055 25.4158C23.7387 25.9237 23.885 26.0011 24.806 25.8204ZM30.4867 22.4805C30.2371 22.4978 30.1769 22.5408 30.1941 22.6613L30.1967 22.6788C30.2064 22.7425 30.212 22.7791 30.1977 22.7902C30.1784 22.8052 30.123 22.7738 29.9929 22.6999L29.9703 22.6871C29.8068 22.601 29.7895 22.558 29.8842 22.4891C29.9445 22.4375 30.108 22.36 30.2371 22.3342L30.4781 22.274L30.2974 22.0846C30.2027 21.9727 30.1511 21.8694 30.1769 21.835C30.2457 21.7661 31.0893 21.8608 31.2098 21.9555C31.2614 21.9985 31.3389 21.9899 31.3905 21.9383C31.511 21.8178 31.6746 21.9125 31.6746 22.1018C31.6746 22.2051 31.6487 22.2137 31.5713 22.1362C31.5024 22.0674 31.4422 22.0674 31.3647 22.1276C31.2958 22.1879 31.2442 22.1879 31.2012 22.119C31.1753 22.076 31.0118 22.033 30.8396 22.033C30.6808 22.033 30.6057 22.033 30.5904 22.0632C30.5767 22.0904 30.611 22.1419 30.6761 22.2395C30.8134 22.4541 30.8053 22.4547 30.4897 22.4803L30.4867 22.4805ZM29.1785 20.191C29.1785 20.0791 29.0753 19.8811 28.9461 19.752L28.7051 19.511L29.9962 19.5626C30.7106 19.5971 31.5197 19.6745 31.8038 19.752C32.0878 19.8209 32.4149 19.8725 32.5354 19.8725C32.7161 19.8725 32.6817 19.8381 32.346 19.6573C31.7607 19.3561 31.0119 19.2097 29.5745 19.1065C27.853 18.9859 26.9837 19.1495 27.1472 19.5799C27.173 19.6659 27.3108 19.709 27.5173 19.709C27.9391 19.709 28.6277 19.9586 28.8601 20.191C29.1097 20.4406 29.1785 20.4406 29.1785 20.191ZM24.9782 42.9833C25.6754 43.8785 26.5964 44.8941 27.0267 45.2384C27.285 45.445 27.5088 45.6172 27.526 45.6172C27.5346 45.6172 27.3452 45.2212 27.1042 44.7392C26.1316 42.8026 25.5635 40.8745 25.2967 38.6538C25.2364 38.1632 25.1417 37.75 25.0384 37.5779C24.8319 37.2336 24.8319 36.786 25.0471 36.3642C25.159 36.1404 25.2192 35.8564 25.2192 35.5465V35.0731L24.806 35.5035C24.4015 35.9253 24.0142 36.0974 24.0142 35.8392C24.0142 35.6498 24.6511 34.7374 24.9868 34.4534C25.2536 34.2296 25.2881 34.1521 25.3741 33.4808C25.4344 33.0762 25.5721 32.3618 25.684 31.8884C25.8045 31.415 25.8734 31.0105 25.8561 30.9932C25.7959 30.933 23.7732 33.2561 23.4977 33.9972C23.4373 34.1599 23.2739 34.4448 23.1448 34.6169L22.921 34.9043C22.921 34.9043 22.9906 35.3066 23.0674 35.8123C23.145 36.3232 23.1814 36.6744 23.2138 36.9872C23.2572 37.4056 23.2934 37.7554 23.4117 38.3267C23.5494 39.0325 23.6871 39.6436 23.7215 39.6867C23.7473 39.7383 23.8592 40.1343 23.9711 40.5732C24.2121 41.5459 24.6167 42.5099 24.9782 42.9833ZM59.9067 51.1257L59.7259 50.945C59.7259 50.945 62.726 47.1334 63.2636 45.7289C63.6738 44.6571 63.9153 44.3532 64.241 44.3532C64.4232 44.3532 64.5719 44.3948 64.6408 44.4981C64.7613 44.6788 64.8774 44.9026 64.7225 45.6687C64.4642 46.9081 64.0683 47.7258 62.8805 49.4904C62.605 49.8949 62.2521 50.3425 62.0972 50.4974C61.7357 50.8331 60.9224 51.1774 60.449 51.2549C60.1477 51.2979 60.0616 51.2807 59.9067 51.1257Z" fill="#333333"/>
<path d="M83.7406 59.5458C84.8114 56.6282 84.6493 56.0065 84.4636 55.9457C84.4636 55.9457 84.0547 56.1781 83.8739 56.6687C83.5382 57.5897 82.3892 59.9998 81.9589 60.4301C81.451 60.938 81.451 60.938 80.9346 60.938C80.4181 60.938 78.9287 60.1602 78.7259 59.3936C78.4014 58.167 79.7984 53.9058 79.8328 53.6648L79.6004 53.5012C79.4455 53.6476 77.4302 59.7588 74.7803 58.1664C74.4769 57.9841 73.8335 57.1249 73.7819 56.6687C73.4951 55.3432 74.8111 50.7082 75.0349 49.7561C75.2352 48.9039 76.278 48.113 77.5605 48.113C79.5316 48.113 79.2668 49.836 80.1497 50.4431C80.541 50.7122 81.1839 50.2244 81.3822 50.1874C82.4925 49.9808 82.918 50.2214 83.732 50.8674C84.3603 51.3661 84.8252 52.353 85.3369 52.7008C85.6211 52.8939 85.9227 52.6298 86.0215 52.5802C86.4265 52.3769 87.2954 52.5286 87.5364 52.7008C87.8897 52.8548 88.7555 53.6871 88.8923 54.1711C89.5122 56.365 87.5547 61.2287 86.8157 62.141C85.5925 63.6513 82.6697 62.4634 83.7406 59.5458Z" fill="white"/>
<path fill-rule="evenodd" clip-rule="evenodd" d="M34.2569 51.5516C36.6153 53.0406 39.0471 54.0133 41.8187 54.2801C44.005 54.4867 46.9527 54.2026 49.0701 53.514C50.8519 52.9373 53.2619 51.3398 54.8715 49.9884C57.996 47.3718 59.967 43.2846 60.8278 38.9465C60.9483 38.3354 61.1321 36.7992 61.1235 35.2757C61.1235 33.5026 60.3431 28.6572 57.9788 25.8633C53.1022 20.101 45.0863 17.5053 38.3495 19.7232C35.9193 20.5232 33.3319 21.9728 31.378 23.8664C28.9163 26.2679 27.1001 29.5387 26.3771 32.8783C25.6197 36.4073 26.605 40.6249 28.3178 44.0851C29.6864 46.8394 31.9415 50.0797 34.2569 51.5516ZM57.2385 41.15C55.6204 46.0132 51.4028 49.6455 46.1006 50.7472C45.2915 50.9107 44.7321 50.971 43.5959 50.9882C42.7954 51.014 41.9949 51.0054 41.8314 50.9882C38.1216 50.5406 35.2984 49.172 32.699 46.5726C31.5628 45.4279 31.0808 44.8081 30.375 43.5859C29.2646 41.6492 28.6707 39.6695 28.49 37.2853C27.8703 29.1169 33.7146 22.3085 41.9433 21.6027C45.171 21.3273 48.7517 22.3171 51.4716 24.2452C52.4787 24.9596 54.3034 26.7671 54.8715 27.6106C55.1039 27.9463 57.359 31.2429 57.755 33.1366C58.2628 35.5983 58.0648 38.6797 57.2385 41.15Z" fill="white"/>
<path fill-rule="evenodd" clip-rule="evenodd" d="M61.1264 35.2754C61.1264 41.0528 58.3936 47.369 54.8667 50.0664C53.184 51.3534 50.985 52.9117 49.07 53.5138C46.2637 54.3961 41.8186 54.2798 41.8186 54.2798C41.8186 54.2798 46.3535 53.6736 48.0341 52.9973C52.8532 51.0579 55.4838 48.0808 57.1082 45.2243C60.3148 39.5858 61.1264 35.1351 61.1264 35.2754Z" fill="#E0E0E0"/>
<path fill-rule="evenodd" clip-rule="evenodd" d="M41.9175 49.9553C39.6193 49.6627 37.3383 48.845 35.4964 47.6314C34.4032 46.9169 32.7506 45.2385 31.9501 44.0421C30.8054 42.3206 30.0479 40.4786 29.6778 38.499C29.411 37.0615 29.4196 34.8494 29.6864 33.5669C29.9618 32.2586 30.3147 31.2602 30.9431 29.9949C31.6747 28.5317 32.4494 27.4557 33.6114 26.2937C35.5911 24.3141 37.8892 23.0574 40.6264 22.4549C41.5129 22.2655 44.7235 22.1106 44.8354 22.2569C44.8612 22.2999 45.0333 22.4118 45.2141 22.5065C45.3948 22.6098 45.8768 22.9713 46.2728 23.3242C46.8667 23.8406 47.1335 24.1677 47.65 24.9768C48.0029 25.5277 48.2869 26.0269 48.2869 26.07C48.2869 26.1646 48.5623 26.3368 48.7173 26.3368C48.9325 26.3368 49.0788 25.6912 49.1218 24.5551C49.1476 23.9267 49.1993 23.4103 49.2337 23.4103C49.3542 23.4103 50.6797 24.1419 51.2995 24.5551C52.5131 25.3641 53.7267 26.5003 54.6219 27.6881C55.0265 28.2218 55.0867 28.3595 55.0867 28.6866C55.0867 28.9878 55.1728 29.2202 55.4396 29.685C56.111 30.8556 56.636 32.3275 56.9545 33.9543C57.1611 35.0474 57.1611 37.1132 56.9459 38.258C56.3606 41.4082 54.6219 44.5413 52.3582 46.5296C50.4387 48.208 48.3988 49.2409 45.9887 49.7488C45.1624 49.9295 42.6835 50.05 41.9175 49.9553ZM35.7633 44.068C35.8407 43.9819 35.8924 43.8528 35.8666 43.7926C35.8588 43.7745 35.751 43.7238 35.5933 43.6497L35.5933 43.6497C35.2255 43.4768 34.5862 43.1762 34.3091 42.863C33.2074 41.6063 32.8028 40.6681 32.5532 38.7315C32.3122 36.8464 32.5147 35.5721 32.9491 33.524C33.1611 32.5249 33.7244 31.6996 34.0749 31.1862C34.3132 30.8371 34.4531 30.6321 34.3172 30.6147C33.9816 30.5631 33.9299 30.5889 33.577 30.9246C32.8196 31.6476 32.4753 32.2243 32.1138 33.3346C31.5543 35.0733 31.4462 39.7721 32.5532 41.8904C33.6603 44.0086 35.5653 44.2918 35.7633 44.068ZM48.0029 36.8377C47.8567 38.1749 47.2368 40.1085 46.5138 40.952C46.1781 41.348 44.9459 42.028 43.9058 41.8902C42.9011 41.7572 42.1154 41.2877 41.4441 40.2807C40.8674 39.4113 40.5695 38.3561 40.3681 37.0271C40.0204 34.7322 41.5387 32.0607 42.1929 31.3979C42.8557 30.7179 43.3291 30.4769 43.9316 30.4683C44.5169 30.4683 44.8956 30.5974 45.4895 31.0192C46.5741 31.7766 48.2869 34.2395 48.0029 36.8377ZM36.4001 29.7195C36.5723 29.5215 36.5981 29.4268 36.5465 29.0567C36.512 28.7124 36.4432 28.5747 36.2624 28.4284C35.9439 28.1701 35.548 28.1701 35.2554 28.4456C35.0488 28.6435 35.023 28.7124 35.0488 29.1858C35.0746 29.6937 35.0918 29.7281 35.3759 29.883C35.7546 30.0896 36.1247 30.0294 36.4001 29.7195ZM41.7711 24.4088C40.2218 25.5191 39.5504 25.9753 38.8532 26.4057C38.3024 26.75 38.1302 26.7586 38.1302 26.4487C38.1302 26.2852 38.2507 26.1044 38.5606 25.8204L38.9909 25.4245L38.156 25.3126C37.2178 25.1921 36.3054 24.9338 36.1075 24.7359C35.7804 24.4002 36.0644 24.3227 36.994 24.4949C37.4072 24.5637 38.2077 24.6498 38.7758 24.667L39.8086 24.71L40.5575 24.1678C42.2015 22.98 43.9057 22.3086 44.7234 22.5152C45.2313 22.6357 45.171 22.7734 44.5943 22.8422C43.9316 22.9197 43.527 23.1435 41.7711 24.4088Z" fill="white"/>
<path d="M43.9832 40.7108C43.9832 40.6678 44.0348 40.6248 44.1037 40.6248C44.1725 40.6248 44.2586 40.6678 44.2844 40.7108C44.3102 40.7625 44.2586 40.7969 44.1639 40.7969C44.0606 40.7969 43.9832 40.7625 43.9832 40.7108Z" fill="white"/>
<path d="M44.4995 40.6334C44.4995 40.5387 44.7147 40.4526 44.9557 40.4526C45.1451 40.4612 45.1451 40.4612 44.9815 40.5817C44.7922 40.7281 44.4995 40.7539 44.4995 40.6334Z" fill="white"/>
<path d="M43.1654 40.4096C43.1395 40.3407 43.1051 40.2202 43.0793 40.1513C43.0535 40.0653 43.0965 40.0222 43.2084 40.0222C43.3031 40.0222 43.3805 40.0739 43.3805 40.1427C43.3805 40.2116 43.4064 40.3235 43.4322 40.4009C43.4666 40.4956 43.4408 40.5387 43.3461 40.5387C43.2686 40.5387 43.1826 40.4784 43.1654 40.4096Z" fill="white"/>
<path d="M43.6216 40.1944C43.5786 39.9362 43.6733 39.8501 43.9831 39.8501C44.0778 39.8501 44.1553 39.9362 44.1897 40.0825C44.2586 40.3321 44.1467 40.4526 43.8454 40.4526C43.7077 40.4526 43.6474 40.3924 43.6216 40.1944Z" fill="white"/>
<path d="M42.7436 40.2375C42.5801 40.1084 42.5801 40.1084 42.7608 40.1084C42.8727 40.1084 42.9502 40.16 42.9502 40.2375C42.9502 40.3924 42.9502 40.3924 42.7436 40.2375Z" fill="white"/>
<path d="M44.4738 40.2288C44.3619 40.1169 44.4136 39.7812 44.5513 39.7296C44.8009 39.6349 44.9128 39.6779 44.9645 39.9017C44.9989 40.0308 45.0161 40.1427 44.9989 40.1513C44.93 40.2288 44.5255 40.2805 44.4738 40.2288Z" fill="white"/>
<path d="M45.2399 40.0484C45.2141 40.0225 45.1882 39.9106 45.1882 39.8074C45.1882 39.661 45.2571 39.6008 45.4637 39.5577C45.6444 39.5233 45.7563 39.5405 45.808 39.6094C45.8941 39.7471 45.8941 39.9193 45.8166 39.9623C45.6616 40.0484 45.3001 40.1 45.2399 40.0484Z" fill="white"/>
<path d="M42.3479 39.7813C42.3479 39.678 42.4254 39.5919 42.5373 39.5661C42.7611 39.5058 42.7525 39.4972 42.7955 39.721C42.8127 39.8502 42.7697 39.9018 42.5889 39.919C42.3995 39.9448 42.3479 39.9104 42.3479 39.7813Z" fill="white"/>
<path d="M43.002 39.7898C42.8815 39.6607 42.959 39.4197 43.1225 39.4197C43.2344 39.4197 43.2947 39.4799 43.2947 39.5832C43.2947 39.7467 43.0967 39.8845 43.002 39.7898Z" fill="white"/>
<path d="M43.5183 39.5319C43.4495 39.3683 43.5958 39.2478 43.8798 39.2478C44.0089 39.2478 44.0692 39.2994 44.0692 39.4113C44.0692 39.506 43.9917 39.5921 43.8798 39.6265C43.5958 39.6954 43.5786 39.6954 43.5183 39.5319Z" fill="white"/>
<path d="M46.0059 39.5057C46.0317 39.4627 46.0748 39.4197 46.1006 39.4197C46.1264 39.4197 46.1178 39.4627 46.092 39.5057C46.0661 39.5574 46.0231 39.5918 45.9973 39.5918C45.9715 39.5918 45.9801 39.5574 46.0059 39.5057Z" fill="white"/>
<path d="M44.2931 39.3596C44.2242 39.1875 44.3103 39.1014 44.5857 39.0584C44.7407 39.0411 44.8095 39.0756 44.8267 39.1961C44.887 39.4801 44.3964 39.635 44.2931 39.3596Z" fill="white"/>
<path d="M42.2273 39.2132C42.1499 38.9291 42.1671 38.9033 42.3909 38.9033C42.5114 38.9033 42.6061 38.9378 42.6061 38.9808C42.6061 39.0238 42.6319 39.1185 42.6577 39.1874C42.6835 39.2735 42.6319 39.3251 42.4855 39.3509C42.322 39.3854 42.2618 39.3509 42.2273 39.2132Z" fill="white"/>
<path d="M45.1021 39.1184C45.1021 38.9635 45.1623 38.8946 45.3258 38.8516C45.5668 38.7914 45.7046 38.9119 45.7046 39.1873C45.7046 39.2992 45.6357 39.3336 45.4033 39.3336C45.1365 39.3336 45.1021 39.3078 45.1021 39.1184Z" fill="white"/>
<path d="M41.9692 39.1184C41.9433 39.0495 41.9606 38.9893 42.0036 38.9893C42.0552 38.9893 42.0897 39.0495 42.0897 39.1184C42.0897 39.1872 42.0725 39.2475 42.0552 39.2475C42.038 39.2475 42.0036 39.1872 41.9692 39.1184Z" fill="white"/>
<path d="M42.8385 39.1874C42.718 39.0755 42.7868 38.8345 42.9418 38.7915C43.0364 38.7656 43.1311 38.7743 43.1569 38.8001C43.2602 38.8948 43.2 39.1444 43.0709 39.196C42.9073 39.2563 42.9073 39.2563 42.8385 39.1874Z" fill="white"/>
<path d="M45.9113 39.127C45.8166 38.8774 45.9199 38.688 46.1609 38.6622C46.3417 38.6364 46.3933 38.6708 46.3933 38.8085C46.3933 39.0926 46.2986 39.2475 46.1265 39.2475C46.0318 39.2475 45.9371 39.1959 45.9113 39.127Z" fill="white"/>
<path d="M43.4409 39.0153C43.3376 38.9206 43.372 38.7485 43.5184 38.6968C43.6819 38.6366 44.0262 38.8087 43.9315 38.9034C43.811 39.0067 43.5011 39.0842 43.4409 39.0153Z" fill="white"/>
<path d="M44.1896 38.8C44.1122 38.6795 44.3876 38.4729 44.6114 38.4729C44.7146 38.4729 44.7577 38.5245 44.7405 38.6192C44.706 38.7914 44.2671 38.9291 44.1896 38.8Z" fill="white"/>
<path d="M41.8314 38.7399C41.8314 38.6968 41.8055 38.6022 41.7797 38.5247C41.7539 38.4472 41.7625 38.387 41.8142 38.387C41.926 38.387 42.0121 38.7141 41.9088 38.7829C41.8658 38.8087 41.8314 38.7915 41.8314 38.7399Z" fill="white"/>
<path d="M42.0637 38.5419C42.0121 38.3526 42.1154 38.2148 42.3134 38.2148C42.4252 38.2148 42.5371 38.5505 42.4683 38.6624C42.3736 38.8087 42.1068 38.7227 42.0637 38.5419Z" fill="white"/>
<path d="M42.6663 38.5849C42.5372 38.4558 42.6146 38.146 42.7868 38.1029C42.9159 38.0685 42.9847 38.1115 43.0536 38.2665C43.1052 38.3783 43.1311 38.4902 43.1138 38.5075C43.0278 38.5849 42.7179 38.6452 42.6663 38.5849Z" fill="white"/>
<path d="M44.9904 38.5848C44.8785 38.4729 44.9301 38.4041 45.1884 38.3094C45.4035 38.2405 45.4638 38.2491 45.5068 38.3524C45.5843 38.559 45.1539 38.757 44.9904 38.5848Z" fill="white"/>
<path d="M45.7476 38.3869C45.6616 38.2492 45.7821 38.1287 46.0059 38.1287C46.2727 38.1287 46.3502 38.3525 46.1091 38.4213C45.8509 38.4902 45.8079 38.4816 45.7476 38.3869Z" fill="white"/>
<path d="M46.4792 38.1804C46.4792 38.0513 46.6342 37.9136 46.7031 37.9825C46.7633 38.0427 46.6428 38.3009 46.5567 38.3009C46.5137 38.3009 46.4792 38.2493 46.4792 38.1804Z" fill="white"/>
<path d="M41.7193 38.0685C41.6849 38.0427 41.6591 37.9308 41.6677 37.8362C41.6677 37.6726 41.6763 37.6726 41.7538 37.862C41.8398 38.0685 41.8226 38.1718 41.7193 38.0685Z" fill="white"/>
<path d="M41.883 37.9394C41.8056 37.6381 41.8142 37.6123 42.038 37.6123C42.2876 37.6123 42.4425 37.9308 42.2532 38.0513C42.0552 38.1718 41.9433 38.1374 41.883 37.9394Z" fill="white"/>
<path d="M44.844 38.1115C44.844 38.0857 44.887 37.948 44.9387 37.7931C45.0592 37.4488 45.326 37.4316 45.3863 37.7672C45.4121 37.8963 45.4207 38.0082 45.4121 38.0169C45.369 38.0685 44.844 38.146 44.844 38.1115Z" fill="white"/>
<path d="M42.4941 37.8962C42.4597 37.8704 42.4338 37.7671 42.4338 37.6724C42.4338 37.5347 42.4597 37.5261 42.563 37.6122C42.6318 37.6724 42.6921 37.7757 42.6921 37.836C42.6921 37.9651 42.5888 37.9995 42.4941 37.8962Z" fill="white"/>
<path d="M45.5928 37.7244C45.5412 37.4575 45.6531 37.337 45.9199 37.3715C46.049 37.3887 46.0921 37.4662 46.0921 37.6555C46.0921 37.8707 46.0576 37.9223 45.8683 37.9396C45.6789 37.9654 45.6359 37.9223 45.5928 37.7244Z" fill="white"/>
<path d="M46.4363 37.7586C46.3244 37.4143 46.3588 37.3111 46.5912 37.2852C46.7978 37.2594 46.8236 37.2852 46.8236 37.509C46.8236 37.6984 46.772 37.7759 46.6429 37.8103C46.5482 37.8361 46.4535 37.8103 46.4363 37.7586Z" fill="white"/>
<path d="M41.5903 37.2681C41.5903 37.1045 41.6075 37.0357 41.6334 37.1217C41.6506 37.1992 41.6506 37.3369 41.6334 37.423C41.6075 37.5005 41.5903 37.4316 41.5903 37.2681Z" fill="white"/>
<path d="M41.8054 37.3799C41.6935 37.2766 41.7451 36.9409 41.8828 36.8892C42.0808 36.8118 42.1755 36.9064 42.1755 37.1905C42.1755 37.3712 42.1325 37.4401 42.0206 37.4401C41.9345 37.4401 41.8312 37.4143 41.8054 37.3799Z" fill="white"/>
<path d="M42.3219 37.1475C42.2874 37.0183 42.2702 36.8806 42.3047 36.8548C42.3907 36.7687 42.4424 36.9064 42.4165 37.1561L42.3907 37.3971L42.3219 37.1475Z" fill="white"/>
<path d="M45.1021 37.0873C45.1021 36.9927 45.1451 36.941 45.1881 36.9668C45.2398 36.9927 45.2742 37.0787 45.2742 37.1476C45.2742 37.2164 45.2398 37.2681 45.1881 37.2681C45.1451 37.2681 45.1021 37.1906 45.1021 37.0873Z" fill="white"/>
<path d="M45.4894 37.1992C45.3689 37.0701 45.4636 36.8377 45.6616 36.7861C45.9112 36.7258 45.9198 36.7258 45.9973 36.9755C46.0489 37.1304 46.0145 37.1648 45.7907 37.1992C45.653 37.2251 45.5152 37.2165 45.4894 37.1992Z" fill="white"/>
<path d="M46.2814 37.0355C46.1867 36.9494 46.2125 36.6654 46.3072 36.6654C46.3588 36.6654 46.3933 36.631 46.3933 36.5793C46.3933 36.5363 46.3416 36.4932 46.2728 36.4932C46.1264 36.4932 46.0059 36.0715 46.1264 35.951C46.2814 35.7961 46.4535 35.9596 46.5568 36.3814C46.6171 36.6051 46.6773 36.8634 46.7031 36.9494C46.7376 37.0613 46.7031 37.0958 46.5396 37.0958C46.4277 37.0958 46.3072 37.0699 46.2814 37.0355Z" fill="white"/>
<path d="M46.746 36.5793C46.6858 36.3211 46.5308 35.8046 46.4189 35.4259C46.2468 34.875 46.2296 34.7373 46.3243 34.6771C46.3845 34.634 46.462 34.5996 46.4878 34.5996C46.5825 34.5996 46.9268 36.3641 46.8924 36.7084L46.8665 37.0527L46.746 36.5793Z" fill="white"/>
<path d="M41.5044 36.5362C41.5044 36.3985 41.5216 36.3469 41.5474 36.433C41.5647 36.5104 41.5647 36.6309 41.5474 36.6912C41.5216 36.7428 41.5044 36.6826 41.5044 36.5362Z" fill="white"/>
<path d="M41.6765 36.5191C41.7109 36.2179 41.9606 36.149 42.0294 36.4244C42.0897 36.6482 42.1069 36.6224 41.8487 36.7085C41.6679 36.7601 41.6507 36.7429 41.6765 36.5191Z" fill="white"/>
<path d="M45.3086 36.4417C45.2398 36.1921 45.3861 36.0458 45.6616 36.0802C45.8681 36.106 45.9456 36.4761 45.7735 36.588C45.5583 36.7258 45.3603 36.6655 45.3086 36.4417Z" fill="white"/>
<path d="M42.1755 36.3727C42.1755 36.2264 42.2186 36.1489 42.3132 36.1489C42.3993 36.1489 42.4337 36.2092 42.4165 36.3383C42.3735 36.6137 42.1755 36.6396 42.1755 36.3727Z" fill="white"/>
<path d="M41.4096 36.0112C41.4096 35.9165 41.4355 35.8907 41.4613 35.9596C41.4871 36.0198 41.4785 36.0973 41.4527 36.1231C41.4269 36.1575 41.401 36.1059 41.4096 36.0112Z" fill="white"/>
<path d="M41.573 35.9855C41.573 35.8563 41.6246 35.8047 41.7537 35.8047C41.8742 35.8047 41.9173 35.8477 41.9001 35.951C41.857 36.1748 41.573 36.2006 41.573 35.9855Z" fill="white"/>
<path d="M42.0465 35.9081C41.9863 35.7532 41.9863 35.7532 42.2445 35.6844C42.3994 35.6327 42.4339 35.6585 42.4339 35.7876C42.4339 35.9942 42.124 36.0975 42.0465 35.9081Z" fill="white"/>
<path d="M45.1622 35.7875C45.102 35.5723 45.2139 35.4604 45.5151 35.4604C45.6614 35.4604 45.7045 35.5121 45.7045 35.6756C45.7045 35.8047 45.6528 35.8908 45.584 35.8908C45.5151 35.8908 45.4032 35.9166 45.3344 35.9425C45.2569 35.9683 45.1966 35.9166 45.1622 35.7875Z" fill="white"/>
<path d="M45.9112 35.5896C45.8424 35.4174 45.9456 35.2883 46.1436 35.2883C46.2641 35.2883 46.3072 35.3486 46.3072 35.5035C46.3072 35.6585 46.2641 35.7187 46.135 35.7187C46.0403 35.7187 45.937 35.6585 45.9112 35.5896Z" fill="white"/>
<path d="M41.4871 35.469C41.4871 35.2883 41.685 35.0817 41.7711 35.1764C41.8055 35.2022 41.8313 35.3227 41.8313 35.4346C41.8313 35.5723 41.7797 35.6326 41.6592 35.6326C41.5473 35.6326 41.4871 35.5723 41.4871 35.469Z" fill="white"/>
<path d="M41.9605 35.3658C41.8916 35.1506 41.9691 35.0559 42.2617 35.0129C42.5286 34.9784 42.6147 35.2625 42.3823 35.4346C42.1585 35.5982 42.0207 35.5724 41.9605 35.3658Z" fill="white"/>
<path d="M45.0763 35.3141C45.016 35.2625 44.9902 34.944 45.0419 34.944C45.0505 34.944 45.1796 34.9096 45.3345 34.8666C45.5927 34.7891 45.6099 34.7977 45.6013 35.0301C45.5927 35.2022 45.5411 35.2883 45.412 35.3227C45.1796 35.383 45.1451 35.383 45.0763 35.3141Z" fill="white"/>
<path d="M44.7578 35.1161C44.7578 35.0559 44.7836 35.03 44.8181 35.0559C44.8439 35.0903 44.8439 35.142 44.8181 35.1764C44.7836 35.2022 44.7578 35.1764 44.7578 35.1161Z" fill="white"/>
<path d="M45.7219 34.9785C45.7478 34.8322 46.0146 34.617 46.0748 34.6858C46.1007 34.7117 46.1437 34.8149 46.1695 34.9268C46.2298 35.099 46.2039 35.1162 45.9629 35.1162C45.7564 35.1162 45.6961 35.0818 45.7219 34.9785Z" fill="white"/>
<path d="M41.573 34.9698C41.573 34.9268 41.616 34.8407 41.6591 34.7719C41.7279 34.6686 41.7451 34.6772 41.7451 34.8407C41.7451 34.944 41.7107 35.0301 41.6591 35.0301C41.616 35.0301 41.573 35.0043 41.573 34.9698Z" fill="white"/>
<path d="M41.8313 34.7803C41.8313 34.5393 42.0121 34.4619 42.1498 34.6426C42.2358 34.7717 42.2358 34.8148 42.1498 34.875C41.969 34.9869 41.8313 34.9525 41.8313 34.7803Z" fill="white"/>
<path d="M44.4479 34.6686C44.2929 34.4964 44.2929 34.4878 44.4393 34.5395C44.5253 34.5739 44.6372 34.5997 44.6803 34.5997C44.7233 34.5997 44.7577 34.66 44.7577 34.7288C44.7577 34.9096 44.6372 34.8924 44.4479 34.6686Z" fill="white"/>
<path d="M42.5974 34.66C42.2273 34.376 42.1756 33.739 42.5199 33.739C42.7523 33.739 42.9675 34.1005 42.9331 34.4362C42.9073 34.7461 42.804 34.8149 42.5974 34.66Z" fill="white"/>
<path d="M44.9558 34.7115C44.9902 34.6857 45.0419 34.6857 45.0763 34.7115C45.1021 34.7459 45.0763 34.7718 45.016 34.7718C44.9558 34.7718 44.9299 34.7459 44.9558 34.7115Z" fill="white"/>
<path d="M46.2555 34.3758C46.2814 34.2983 46.3072 34.2208 46.3072 34.2036C46.3072 34.1864 46.3502 34.1692 46.3933 34.1692C46.4449 34.1692 46.4793 34.2467 46.4793 34.3413C46.4793 34.4446 46.4191 34.5135 46.3416 34.5135C46.2469 34.5135 46.2211 34.4705 46.2555 34.3758Z" fill="white"/>
<path d="M41.7454 34.35C41.7454 34.152 41.9261 33.825 42.0294 33.825C42.2102 33.825 42.0811 34.3758 41.8917 34.4102C41.8142 34.4274 41.7454 34.4016 41.7454 34.35Z" fill="white"/>
<path d="M43.6821 34.2554L43.4238 34.1951L43.6562 34.1349C43.8972 34.066 44.0694 34.1177 44.0694 34.264C44.0694 34.3501 44.0608 34.3501 43.6821 34.2554Z" fill="white"/>
<path d="M43.3806 33.8421C43.3806 33.4892 43.5786 33.4376 43.7593 33.7474C43.8799 33.954 43.8885 33.9971 43.7766 33.9971C43.7077 33.9971 43.5958 34.0229 43.5183 34.0487C43.415 34.0918 43.3806 34.0401 43.3806 33.8421Z" fill="white"/>
<path d="M44.8784 33.9626C44.4911 33.7905 44.2415 33.3343 44.2415 32.792C44.2415 32.4047 44.2759 32.31 44.5083 32.0948C44.6546 31.9571 44.8009 31.8452 44.844 31.8452C45.0333 31.8452 45.7305 32.508 45.9629 32.9211L46.2298 33.3945L45.9457 33.6958C45.6186 34.0401 45.2571 34.1347 44.8784 33.9626Z" fill="white"/>
<path d="M43.0795 33.7389C43.0537 33.6959 43.0709 33.6528 43.1139 33.6528C43.1656 33.6528 43.2086 33.6959 43.2086 33.7389C43.2086 33.7906 43.1914 33.825 43.1742 33.825C43.1484 33.825 43.1053 33.7906 43.0795 33.7389Z" fill="white"/>
<path d="M41.9518 33.6014C41.9776 33.5239 42.0034 33.4464 42.0034 33.4292C42.0034 33.412 42.0809 33.3948 42.1756 33.3948C42.3908 33.3948 42.3994 33.5325 42.1842 33.653C41.9518 33.7735 41.8915 33.7649 41.9518 33.6014Z" fill="white"/>
<path d="M42.6317 33.4978C42.4337 33.472 42.3734 33.3601 42.5026 33.2826C42.537 33.2568 42.6919 33.2137 42.8468 33.1793C43.0792 33.1277 43.1223 33.1449 43.1223 33.2912C43.1223 33.472 42.9415 33.5494 42.6317 33.4978Z" fill="white"/>
<path d="M43.2947 33.2054C43.2947 33.1021 43.3033 33.0419 43.3205 33.0591C43.3291 33.0763 43.398 33.1624 43.4582 33.2484C43.5615 33.3689 43.5529 33.3948 43.4324 33.3948C43.3463 33.3948 43.2947 33.3259 43.2947 33.2054Z" fill="white"/>
<path d="M42.0896 33.1451C42.0896 33.0934 42.1326 33.0332 42.1757 33.0074C42.2273 32.9815 42.2617 33.016 42.2617 33.0848C42.2617 33.1623 42.2273 33.2225 42.1757 33.2225C42.1326 33.2225 42.0896 33.1881 42.0896 33.1451Z" fill="white"/>
<path d="M42.4082 33.0159C42.3394 32.8438 42.9505 32.6544 43.0538 32.8179C43.1313 32.9557 43.0538 33.0159 42.7267 33.0848C42.5287 33.1278 42.4427 33.1106 42.4082 33.0159Z" fill="white"/>
<path d="M43.217 32.7404C43.217 32.6458 43.2428 32.6199 43.2687 32.6888C43.2945 32.7491 43.2859 32.8265 43.2601 32.8523C43.2342 32.8868 43.2084 32.8351 43.217 32.7404Z" fill="white"/>
<path d="M42.4855 32.603C42.5888 32.4136 42.8901 32.1038 42.9675 32.1038C43.0536 32.1038 43.0622 32.5083 42.9761 32.5599C42.9331 32.5772 42.7954 32.6202 42.6663 32.6546C42.4769 32.6977 42.4339 32.6891 42.4855 32.603Z" fill="white"/>
<path d="M43.174 32.4049C43.0794 32.1467 43.1224 32.0348 43.329 32.0004C43.5442 31.9573 43.5442 31.9573 43.4065 32.2242C43.2343 32.5685 43.2429 32.5685 43.174 32.4049Z" fill="white"/>
<path d="M43.1223 31.8883C43.1223 31.8711 43.2945 31.7506 43.5096 31.6301C43.7679 31.4752 43.9486 31.4235 44.0777 31.4579C44.2327 31.5096 44.1896 31.544 43.8109 31.7248C43.3891 31.9141 43.1223 31.983 43.1223 31.8883Z" fill="white"/>
<path d="M47.8996 24.2621C47.6672 23.9264 47.1766 23.3841 46.8237 23.057C46.4708 22.73 46.2384 22.4631 46.3073 22.4631C46.4966 22.4631 47.9427 22.8591 48.3042 23.014C48.6054 23.1431 48.614 23.1603 48.5366 23.4272C48.4935 23.5821 48.4591 23.9694 48.4591 24.2879C48.4591 24.615 48.4333 24.8732 48.3988 24.8732C48.3558 24.8732 48.1406 24.5978 47.8996 24.2621Z" fill="white"/>
<path d="M30.3834 50.3339C30.0305 50.1531 29.9531 50.0498 29.5055 49.1633C28.8599 47.9066 28.8427 47.6139 29.4538 48.3283C29.6948 48.6124 30.2543 49.1977 30.6933 49.6281C31.4421 50.3511 31.4766 50.4027 31.2269 50.3683C31.0462 50.3425 30.9773 50.3597 31.0204 50.4286C31.1237 50.5835 30.7966 50.5404 30.3834 50.3339Z" fill="white"/>
<path fill-rule="evenodd" clip-rule="evenodd" d="M44.8084 66.0156C44.737 65.8459 44.8166 65.6505 44.9863 65.579L45.1717 65.5003C46.9747 64.7289 48.0096 64.2655 48.7128 63.5296C49.416 62.7938 49.5001 61.7129 49.6322 61.0553C49.6685 60.8748 50.0772 61.1918 50.2577 61.228C50.4382 61.2643 50.5551 61.44 50.5188 61.6205C50.36 62.4112 49.9322 63.1651 49.2436 63.8807C48.5573 64.5939 47.2286 65.3583 45.245 66.1935C45.0753 66.2649 44.8799 66.1853 44.8084 66.0156Z" fill="#333333"/>
<path fill-rule="evenodd" clip-rule="evenodd" d="M52.9618 31.6724C53.12 31.5783 53.3245 31.6302 53.4187 31.7884C54.3616 33.3723 54.8667 35.1829 54.8667 37.0666C54.8667 42.7736 50.2403 47.3999 44.5333 47.3999C43.0169 47.3999 41.546 47.0729 40.1991 46.4497C40.0321 46.3724 39.4009 45.7569 40.0366 46.0072C40.6723 46.2576 43.1317 46.8195 44.551 46.8195C49.8898 46.8195 53.6667 42.4054 53.6667 37.0666C53.6667 35.3037 52.9618 33.739 52.8459 32.1294C52.8324 31.9428 52.8036 31.7666 52.9618 31.6724Z" fill="#333333"/>
<path fill-rule="evenodd" clip-rule="evenodd" d="M19.9493 56.9007C20.0671 56.7593 20.2773 56.4735 20.4187 56.5913C20.999 57.0746 21.6183 57.6346 22.2807 57.7427C22.9699 57.8552 23.7877 57.8552 24.7328 57.7408C24.9155 57.7187 25.0816 57.8489 25.1037 58.0317C25.1259 58.2144 24.9956 58.3805 24.8129 58.4026C23.8092 58.5241 22.9297 58.5241 22.1733 58.4007C21.39 58.2729 20.6615 57.9278 19.9921 57.3702C19.8506 57.2524 19.8315 57.0422 19.9493 56.9007Z" fill="#333333"/>
<path d="M27.0266 45.2385C26.5962 44.8942 25.6753 43.8786 24.9781 42.9834C24.6165 42.51 24.212 41.546 23.971 40.5733C23.8591 40.1344 23.7472 39.7384 23.7214 39.6868C23.687 39.6437 23.5492 39.0326 23.4115 38.3268C23.2049 37.3284 23.2486 37.0067 23.0672 35.8124C22.9904 35.3067 22.9209 34.9044 22.9209 34.9044L23.1447 34.617C23.2738 34.4449 23.4371 34.16 23.4976 33.9973C23.773 33.2562 25.7958 30.9331 25.856 30.9933C25.8732 31.0106 25.8044 31.4151 25.6839 31.8885C25.572 32.3619 25.4342 33.0763 25.374 33.4809C25.2879 34.1522 25.2535 34.2297 24.9867 34.4535C24.651 34.7375 24.014 35.6499 24.014 35.8393C24.014 36.0975 24.4014 35.9254 24.8059 35.5036L25.2191 35.0732V35.5466C25.2191 35.8565 25.1588 36.1405 25.0469 36.3643C24.8317 36.7861 24.8317 37.2337 25.0383 37.578C25.1416 37.7501 25.2363 38.1633 25.2965 38.6539C25.5634 40.8746 26.1314 42.8026 27.1041 44.7393C27.3451 45.2213 27.5344 45.6173 27.5258 45.6173C27.5086 45.6173 27.2848 45.4451 27.0266 45.2385Z" fill="white"/>
<path fill-rule="evenodd" clip-rule="evenodd" d="M62.8418 50.5491L63.4615 50.8245C63.59 50.8838 65.0076 51.565 66.7104 52.3832C69.4559 53.7023 72.9428 55.3778 72.964 55.3778C72.9985 55.3778 73.16 55.0043 73.1964 54.5687C73.2825 53.6305 73.601 52.3566 73.9711 51.4701C74.1433 51.0741 74.281 50.5793 74.281 50.5363C74.281 50.5166 74.141 50.4602 73.9119 50.3678C73.6392 50.2578 73.2402 50.0968 72.8005 49.8863C70.6315 48.8448 66.388 46.7188 65.863 46.4003C65.3465 46.0991 65.2432 46.0733 65.2432 46.2712C65.2432 46.5295 64.7182 47.7259 64.3137 48.3714C64.0985 48.7243 63.6767 49.3613 63.3755 49.783L62.8418 50.5491ZM72.8178 53.8286C73.0646 53.9716 72.637 54.1815 72.5337 54.2159C71.9256 54.2676 71.2096 54.1532 70.6229 53.8114C70.3161 53.5939 67.9009 52.252 66.2988 51.3619C65.5663 50.955 65.0038 50.6425 64.8904 50.575C64.5289 50.3598 64.1846 50.1274 64.1244 50.0586C63.9436 49.8262 64.1158 49.7229 64.6236 49.7659C64.9289 49.7918 72.2846 53.5196 72.8178 53.8286Z" fill="white"/>
<path d="M56.6619 51.3238C56.4381 51.2463 56.1971 51.0742 56.0422 50.8762L55.7839 50.5577L56.6963 49.6539C58.0993 48.2768 59.1322 46.7717 60.0618 45.0933C60.3716 44.5338 61.2926 42.2775 61.4045 42.0279C61.5767 41.6663 61.7058 41.5286 62.0759 41.3221C62.5149 41.0638 63.0141 40.9778 63.2293 41.1241C63.6424 41.3995 63.6424 42.2689 63.2293 43.7665C62.7731 45.4105 62.162 46.5897 60.8967 48.2854C60.6987 48.5436 60.3286 49.0514 60.0618 49.4043C59.3474 50.3511 58.8826 50.8073 58.2542 51.1602C57.6345 51.5045 57.273 51.5476 56.6619 51.3238Z" fill="white"/>
<path d="M59.9068 51.1258L59.7261 50.945C59.7261 50.945 62.7261 47.1334 63.2637 45.729C63.6739 44.6572 63.9154 44.3533 64.2411 44.3533C64.4233 44.3533 64.572 44.3949 64.6409 44.4981C64.7614 44.6789 64.8775 44.9027 64.7225 45.6687C64.4643 46.9082 64.0684 47.7259 62.8806 49.4904C62.6051 49.8949 62.2522 50.3425 62.0973 50.4975C61.7358 50.8331 60.9225 51.1774 60.4491 51.2549C60.1478 51.2979 60.0618 51.2807 59.9068 51.1258Z" fill="white"/>
<path fill-rule="evenodd" clip-rule="evenodd" d="M64.946 47.1401C65.1196 46.743 65.2433 46.3966 65.2433 46.2712C65.2433 46.0733 65.3466 46.0991 65.863 46.4003C66.3881 46.7188 70.6315 48.8448 72.8005 49.8863C73.6096 50.2737 74.281 50.4932 74.281 50.5363C74.281 50.5793 64.762 47.5611 64.946 47.1401Z" fill="#E0E0E0"/>
<path fill-rule="evenodd" clip-rule="evenodd" d="M35.4964 47.6313C34.4032 46.9169 32.7506 45.2385 31.9501 44.042C30.8054 42.3206 30.0479 40.4786 29.6778 38.4989C29.411 37.0615 29.4196 34.8494 29.6864 33.5669C29.9618 32.2586 30.3147 31.2601 30.9431 29.9948C31.6747 28.5316 32.4494 27.4557 33.6114 26.2937C34.7508 25.1542 29.6864 29.8665 30.9431 38.2977C31.9501 45.3631 36.2781 48.1464 35.4964 47.6313Z" fill="#E0E0E0"/>
</svg>
