<svg width="100" height="100" viewBox="0 0 100 100" fill="none" xmlns="http://www.w3.org/2000/svg">
<path fill-rule="evenodd" clip-rule="evenodd" d="M53.9996 69.3474C57.3552 67.0878 63.5663 66.6942 62.427 61.7634C61.3138 56.7784 57.1295 56.5957 49.4074 52.0957C41.9 47.1506 43.7937 43.6963 32.7178 43.2317C22.1531 43.2362 25.3691 58.4592 17.5857 56.1084C9.80227 53.7577 18.5548 73.2006 19.9392 74.6397C22.374 77.1709 28.7858 80.191 31.9132 79.763C34.2883 79.4462 41.9292 77.688 45.6702 75.8633C49.3245 74.1602 49.7195 72.3805 53.9996 69.3474Z" fill="#C0F0FF"/>
<path d="M83.8884 20.3862L83.9107 20.3868C84.0971 20.3979 84.2393 20.5579 84.2282 20.7444L84.191 21.3894L84.1673 21.821C83.9196 26.4027 83.3317 30.2971 83.4697 33.5032L83.491 33.9674C83.6569 37.4222 84.538 42.3064 85.4292 49.6867C85.5073 49.7415 85.5619 49.8288 85.5718 49.9312C85.5899 50.1171 85.4538 50.2824 85.2679 50.3004C80.912 50.7225 76.8591 51.0035 73.1091 51.1433L72.5967 51.1616L72.0109 51.1806C68.2198 51.2983 62.8829 51.3553 55.9991 51.352C55.8123 51.3519 55.6611 51.2004 55.6611 51.0137C55.6611 50.9245 53.2566 21.3595 53.2566 21.3595C53.2566 21.3595 83.796 20.3868 83.8884 20.3862Z" fill="white"/>
<path d="M77.9944 76.0938L78.2069 76.1156C81.2293 76.4318 83.2135 76.888 84.1287 77.4615L84.1858 77.4983C84.8886 77.9655 84.7999 78.4519 83.7897 79.2283C82.6852 80.0773 79.9703 80.8772 75.9083 81.3655C70.823 81.9767 63.986 82.0754 55.4 81.5438L54.4999 81.4879C49.5429 81.1872 45.7398 81.106 38.7011 81.0679L36.7581 81.0567C32.5676 81.0275 30.7865 80.9696 29.067 80.7853L28.9035 80.7672C26.7479 80.5207 25.5566 80.0703 25.1575 79.3641L25.1429 79.3375C25.1353 79.3233 25.1353 79.3235 25.1932 79.2648C25.3091 79.1473 25.5469 79.0104 25.9006 78.8679L25.9923 78.8318C26.7589 78.5368 27.9707 78.2345 29.6202 77.9289L29.9326 77.8719C33.2258 77.2804 38.1369 76.6791 44.6625 76.0688L45.712 75.9718L46.608 75.9392C61.2921 75.4129 71.757 75.4649 77.9944 76.0938Z" fill="white"/>
<path fill-rule="evenodd" clip-rule="evenodd" d="M71.1871 20.4569C71.3135 20.3194 71.5275 20.3105 71.6649 20.4369C71.8024 20.5634 71.8113 20.7773 71.6849 20.9147C71.6849 20.9147 56.3023 38.4011 56.1623 37.9144C56.0853 37.6467 62.5544 29.8742 63.5719 28.8265L63.8541 28.5412C64.3315 28.0457 66.694 25.342 71.1871 20.4569Z" fill="#E0E0E0"/>
<path fill-rule="evenodd" clip-rule="evenodd" d="M63.4455 24.2926C63.5986 24.1857 63.8094 24.2232 63.9163 24.3763C64.0232 24.5294 63.9858 24.7402 63.8326 24.8472C63.3226 25.2033 55.3671 33.2286 55.1982 33.1647C55.0292 33.1008 55.8446 32.1473 55.8446 32.1473C56.3658 31.6019 61.022 26.6537 61.022 26.6537C61.4132 26.2362 61.7746 25.8599 62.1204 25.5114C62.4628 25.1663 62.9043 24.6704 63.4455 24.2926Z" fill="#E0E0E0"/>
<path fill-rule="evenodd" clip-rule="evenodd" d="M71.2311 76.0938L71.4437 76.1156C74.466 76.4318 76.4502 76.888 77.3655 77.4615L77.4226 77.4983C78.1254 77.9655 78.0367 78.4519 77.0265 79.2283C75.9219 80.0773 63.986 80.858 55.4 80.3264L54.4999 80.2705C49.543 79.9698 45.7398 79.077 38.7011 79.0389L36.7581 79.0277C32.5676 78.9985 30.7865 80.9696 29.067 80.7853L28.9035 80.7672C26.7479 80.5207 25.5566 80.0703 25.1575 79.3641L25.1429 79.3375C25.1353 79.3233 25.1353 79.3235 25.1932 79.2648C25.3091 79.1473 25.5469 79.0104 25.9006 78.8679L25.9923 78.8318C26.7589 78.5368 27.9707 78.2345 29.6202 77.9289L29.9326 77.8719C33.2258 77.2804 38.1369 76.6791 44.6625 76.0688L45.7121 75.9718L46.608 75.9392C61.2921 75.4129 64.9938 75.4649 71.2311 76.0938Z" fill="#E0E0E0"/>
<path d="M31.1626 50.8108C31.2678 51.0868 34.8611 51.5197 36.8305 52.6838C37.5857 53.1302 38.1574 55.062 38.1203 55.0985C37.2276 55.9791 36.7424 56.4278 36.2618 56.6982C34.5724 57.6489 33.2703 57.4018 32.0096 57.2029C30.4941 56.9638 29.5937 55.3001 30.1845 53.9188C30.2771 53.7023 30.5104 53.3861 30.8966 52.9413L30.948 52.8827C30.9464 52.8669 30.9466 52.8506 30.9486 52.8341C30.9662 52.685 30.9684 52.5321 30.9551 52.3751L30.9252 52.0938C30.8899 51.7792 30.8217 51.2455 30.7202 50.9796C30.6736 50.8575 30.7349 50.7207 30.857 50.6741C30.9792 50.6275 31.116 50.6887 31.1626 50.8108Z" fill="white"/>
<path d="M39.4597 54.3361C39.4594 54.2792 39.4737 54.2215 39.5039 54.1685C39.5564 54.0764 39.6456 54.0183 39.7427 54.0022C39.7653 53.9817 39.7808 53.9745 39.7895 53.9829L39.8042 53.9977C39.8589 53.9987 39.9142 54.013 39.9651 54.042L40.9598 54.607C43.0216 55.7857 45.2378 57.5388 45.4517 58.87C45.694 60.3785 44.1146 68.2279 43.9321 68.1884C43.7496 68.1488 40.3283 75.9234 40.3263 75.9444C40.3196 76.0153 37.2782 76.128 34.0787 76.4705C32.9606 76.5901 35.8644 72.689 36.9569 69.9311C38.8305 65.2014 39.4597 54.3361 39.4597 54.3361Z" fill="white"/>
<path d="M63.9931 58.1932C62.7859 57.93 61.3835 58.0621 59.7808 58.5967C58.4692 59.0342 57.7509 59.6466 57.5719 60.4294L57.5618 60.4762L57.6133 60.4973C58.6842 60.9292 59.6836 61.0386 60.6187 60.8315L60.687 60.8158C61.3345 60.6611 61.8606 60.2982 62.4849 59.6529L62.5712 59.5626C62.7182 59.406 63.0646 59.0264 63.1072 58.9807C63.3291 58.7431 63.4987 58.5793 63.6702 58.4454L63.7074 58.4169C63.7942 58.3516 63.8997 58.2884 64.0244 58.2268L64.0618 58.2086L63.9931 58.1932Z" fill="white"/>
<path d="M52.1115 56.3334C51.2526 56.0667 50.2336 56.0357 49.0532 56.2452L48.9978 56.2553L49.0099 56.2796C49.5322 57.3272 50.0058 57.9719 50.4014 58.2057L50.426 58.2198C50.8238 58.4395 51.7717 58.4552 53.2252 58.2384L53.4403 58.2051L53.435 58.187C53.4295 58.1663 53.426 58.1449 53.4246 58.1228L53.4238 58.1006C53.4238 57.1767 53.0039 56.6105 52.1115 56.3334Z" fill="white"/>
<path d="M42.3093 51.4327C42.2852 51.6251 42.3667 52.3324 42.0947 52.6589C41.9869 52.7884 41.7294 52.881 41.5614 52.7994C41.4871 52.7634 41.7187 52.4407 41.8594 52.0759C41.9137 51.9349 41.8182 51.7646 41.8594 51.6299C41.8954 51.5122 42.0696 51.4273 42.0947 51.3388C42.1347 51.198 42.3252 51.3055 42.3093 51.4327Z" fill="white"/>
<path d="M42.7797 50.6065C42.7556 50.799 43.3268 51.6953 43.0416 51.9825C42.5567 52.4709 42.0906 51.6145 42.2313 51.2497C42.2857 51.1088 42.2886 50.9384 42.3298 50.8038C42.3657 50.686 42.7956 50.4794 42.7797 50.6065Z" fill="white"/>
<path d="M48.0508 64.7606C47.9455 65.1556 47.8562 67.4733 48.3592 68.7819C48.5433 69.2607 48.8135 69.6116 49.179 69.7479C49.4864 69.8575 49.8059 69.9256 50.1321 69.9709C50.8354 70.0678 56.2088 70.5249 58.6211 70.2096C61.0334 69.8943 60.8969 69.865 61.9995 69.6696C62.5331 69.5749 63.1431 69.4743 63.6885 69.2603C64.0902 69.1033 64.457 68.8851 64.7442 68.5748C65.0013 68.2975 65.1603 67.826 65.2076 67.2985C65.2679 66.6284 65.1652 65.7422 65.0645 65.2961C65.0645 65.2712 65.0591 65.2618 65.0645 65.254C65.0895 65.2175 64.7646 65.0364 63.6885 64.992C61.8436 64.9159 58.9665 65.0601 56.179 65.0312C52.3753 64.9917 48.7398 64.6432 48.1371 64.7067C48.0818 64.7125 48.0528 64.7529 48.0508 64.7606Z" fill="white"/>
<path d="M30.7716 52.3889C30.9584 52.3877 31.1109 52.538 31.1123 52.7248C31.1124 52.7443 31.1109 52.7635 31.1078 52.7821L31.1369 52.7634C31.2991 52.6632 31.5 52.6124 31.457 52.8579C31.3972 53.2001 30.5404 53.5981 30.5404 54.2566C30.5404 55.2341 30.9173 56.1698 32.2732 56.5608C36.0706 57.6561 37.946 55.7147 38.648 54.8773C38.6477 54.8205 38.662 54.7628 38.6922 54.7098C38.7447 54.6176 38.8339 54.5595 38.931 54.5435C38.9536 54.523 38.9691 54.5158 38.9778 54.5242L38.9925 54.5389C39.0472 54.5399 39.1025 54.5543 39.1534 54.5833L40.1481 55.1482C42.2099 56.327 44.4261 58.0801 44.64 59.4113C44.8823 60.9197 43.3029 68.7692 43.1204 68.7296C42.9379 68.6901 39.5166 76.4646 39.5146 76.4857C39.5055 76.5812 33.9701 76.7532 29.9774 77.4629C27.3591 77.9282 25.6553 78.8009 25.6002 78.8503C25.461 78.9748 25.2993 79.1906 25.1748 79.0514C24.3384 78.1172 24.1155 75.4918 24.4385 71.6279L24.2694 71.6106C20.8088 71.261 19.1018 70.2878 19.218 68.0962C19.503 62.7197 21.0166 58.5066 22.7774 55.8978C24.3408 53.5814 26.8381 52.4171 30.7716 52.3889Z" fill="white"/>
<path fill-rule="evenodd" clip-rule="evenodd" d="M38.6482 54.8771C38.6479 54.8203 38.6622 54.7625 38.6924 54.7095C38.7448 54.6174 38.8341 54.5593 38.9311 54.5432C38.9538 54.5228 38.9692 54.5156 38.978 54.5239L38.9927 54.5387C39.0474 54.5397 39.1027 54.5541 39.1536 54.583L40.1482 55.148C42.2101 56.3267 44.4263 58.0799 44.6401 59.411C44.8824 60.9195 43.3031 68.7689 43.1206 68.7294C42.938 68.6898 39.5168 76.4644 39.5148 76.4854C39.5081 76.5563 36.4667 76.669 33.2672 77.0115C32.149 77.1311 35.0529 73.23 36.1454 70.4721C38.0189 65.7424 38.6482 54.8771 38.6482 54.8771Z" fill="#E0E0E0"/>
<path d="M38.8258 54.7668C38.8324 54.9533 38.6743 55.1097 38.4876 55.1049C37.5547 55.0813 37.4064 53.477 37.4958 53.4705C37.6197 53.4616 37.8314 54.2236 38.2479 54.5012C38.5655 54.7128 38.8076 54.2525 38.8258 54.7668Z" fill="white"/>
<path d="M30.3702 50.481C30.4992 50.3265 30.7403 50.4635 30.8246 50.6301C30.9089 50.7968 30.8421 51.0002 30.6755 51.0845C29.8251 51.5147 28.6927 51.3551 27.9951 50.758C26.7833 49.7208 26.7336 47.0287 26.7336 46.2253C26.7336 46.1181 28.1164 46.2446 28.69 46.9949C29.7072 48.3256 30.2039 50.6802 30.3702 50.481Z" fill="white"/>
<path d="M30.2797 43.1704L30.2927 43.0991C30.3035 43.0359 30.3034 42.9673 30.2709 42.6276L30.1628 41.5646C30.1424 41.3618 30.126 41.1869 30.1118 41.0166L30.1006 40.8778C30.0031 39.6258 30.0501 38.9142 30.3882 38.5833C31.3425 37.6496 31.8698 37.6697 32.8637 37.9918L33.072 38.0596C33.5137 38.1994 33.735 38.0912 34.037 38.0203L34.1244 38.0005C34.8248 37.8471 35.5547 37.8187 36.3939 37.8916C36.8847 37.9343 37.1884 37.9746 37.9674 38.1085L38.8872 38.2697C39.4628 38.371 39.8507 38.434 40.2612 38.49L40.3517 38.5016C41.0096 38.5813 41.545 38.5336 42.1914 38.3877C42.2047 38.3847 42.5526 38.3027 42.6891 38.2734L42.7715 38.2569C42.8994 38.2331 43.0078 38.2205 43.1087 38.2205L43.1246 38.2117C44.1109 37.7 45.0495 36.1015 44.9721 34.8195C44.8761 33.2287 43.365 32.2191 40.1201 32.199L39.9621 32.1984C39.4262 32.1926 39.0346 32.1039 37.9096 31.7592L37.3544 31.5877C36.3908 31.2925 35.8102 31.1583 35.1884 31.1165C35.0814 31.1093 34.9764 31.1057 34.8734 31.1057C30.5626 31.1057 26.3161 34.7787 25.7317 38.2117C25.6256 38.835 26.1062 41.5849 26.2801 42.9518C26.2801 42.9518 27.9547 42.9703 28.7699 43.0879C28.8477 43.0991 29.5086 44.5397 29.9091 44.5397C30.2709 44.5397 30.2797 43.1704 30.2797 43.1704Z" fill="white"/>
<path d="M32.759 38.5343C33.3598 38.7318 33.6898 38.788 34.1443 38.6898L34.3111 38.6521C35.3886 38.4166 36.2136 38.4877 38.5186 38.8918L39.0715 38.9886C39.4985 39.062 39.8256 39.1135 40.17 39.1605C40.9286 39.2639 41.5413 39.2206 42.2511 39.0676L42.9755 38.9055C43.1004 38.8795 43.085 38.8893 43.1301 38.8965L43.1509 38.8991C43.2459 38.9079 43.5677 38.9563 43.6434 39.1748C44.1091 40.5205 44.2443 43.7322 43.7498 46.3763C43.0782 49.9664 41.1513 52.4274 38.3975 53.1749C34.201 54.3141 31.0461 52.1496 28.8621 46.5595L28.7949 46.3875L28.6138 46.3511L28.4847 46.3243C26.4058 45.8788 25.7037 45.0799 26.4064 43.7792C26.7584 43.1277 27.2406 42.9259 27.6424 43.0622C28.1313 43.228 28.7473 43.8672 29.4512 44.9834L29.4591 44.9953C29.7678 45.4419 30.1963 45.2708 30.4139 44.7966C30.5497 44.5007 30.6788 44.0059 30.8089 43.2981L30.835 43.1535C30.8571 43.0179 30.8467 42.9097 30.7334 41.816L30.6933 41.4242C30.679 41.2796 30.6668 41.1492 30.6559 41.0233L30.6506 40.9607C30.6062 40.4279 30.5898 40.0034 30.6066 39.6698C30.6235 39.3307 30.678 39.1141 30.726 39.0671L30.8064 38.9898C31.5045 38.3288 31.9003 38.2627 32.6145 38.4873L32.759 38.5343Z" fill="white"/>
<path fill-rule="evenodd" clip-rule="evenodd" d="M43.7496 46.376C43.078 49.9661 41.1511 52.4271 38.3973 53.1746C37.5959 53.3921 39.9169 52.532 41.1396 50.9856C42.8162 48.8651 43.7593 45.7249 43.9147 44.7739C44.3848 41.8969 44.2441 43.7319 43.7496 46.376Z" fill="#E0E0E0"/>
<path fill-rule="evenodd" clip-rule="evenodd" d="M30.4138 44.7966C30.5496 44.5007 30.6787 44.0059 30.8088 43.2981L30.8349 43.1535C30.857 43.0179 30.8466 42.9097 30.7333 41.816L30.6932 41.4242C30.6788 41.2796 30.6667 41.1492 30.6558 41.0233L30.6505 40.9607C30.6061 40.4279 30.5897 40.0034 30.6065 39.6698C30.6234 39.3307 30.6779 39.1141 30.7259 39.0671L30.8063 38.9898C31.5044 38.3288 31.9002 38.2627 32.6144 38.4873L32.7589 38.5343C33.3597 38.7318 33.6897 38.788 34.1442 38.6898L34.311 38.6521C35.3885 38.4166 36.2134 38.4877 38.5185 38.8918L39.0713 38.9886C39.4984 39.062 39.8255 39.1135 40.1698 39.1605C40.9284 39.2639 41.5412 39.2206 42.251 39.0676L42.9754 38.9055C43.1003 38.8795 43.0849 38.8893 43.1299 38.8965L43.1508 38.8991C43.2457 38.9079 43.5676 38.9563 43.6432 39.1748C43.6432 39.1748 43.3499 39.4125 43.1299 39.4287C41.2138 39.5697 39.8206 39.9041 38.3396 40.0459C36.0043 40.2695 33.9158 40.3462 32.7589 40.9607C32.1998 41.2576 31.6063 44.3192 30.8611 45.357C30.439 45.9448 30.4138 44.7966 30.4138 44.7966Z" fill="#E0E0E0"/>
<path fill-rule="evenodd" clip-rule="evenodd" d="M48.0884 68.7819C48.2724 69.2607 48.5426 69.6116 48.9082 69.7479C49.2155 69.8575 49.535 69.9256 49.8613 69.9709C50.5645 70.0678 55.938 70.5249 58.3503 70.2096C60.7626 69.8943 60.6261 69.865 61.7287 69.6696C62.2622 69.5749 62.8723 69.4743 63.4177 69.2603C63.8194 69.1033 64.1861 68.8851 64.4734 68.5748C64.7305 68.2975 64.8894 67.826 64.9368 67.2985C64.997 66.6284 64.8944 65.7422 64.7937 65.2961C64.7715 65.1764 64.3697 65.2631 64.3919 65.3829C64.4522 65.7975 64.4709 66.6204 64.3924 67.2293C64.3441 67.6067 64.27 67.9574 64.0849 68.1565C63.853 68.4061 63.5539 68.5764 63.2296 68.7036C62.7163 68.9059 62.1413 69.0006 61.6394 69.0916C60.5516 69.2901 59.5354 69.5478 55.0296 69.6696C54.2989 69.6894 50.6391 69.5004 49.9305 69.3987C49.6388 69.3572 49.3528 69.2971 49.0782 69.1981C48.7576 69.0895 48.589 68.6919 48.4393 68.2459C48.2584 67.7068 47.8386 65.7814 48.0884 65.3675C48.1814 65.2133 48.8535 65.2469 49.274 65.2914C50.6212 65.4341 53.0929 65.4916 55.4913 65.5182C58.1318 65.5474 64.4279 65.5488 64.4279 65.4276C64.4279 65.3186 64.6782 65.2915 64.7937 65.2961C64.8311 65.2976 64.5843 64.992 63.4177 64.992C61.5588 64.992 58.6956 65.0601 55.9081 65.0312C52.1045 64.9917 48.4689 64.6432 47.8663 64.7067C47.8535 64.708 47.8414 64.709 47.8299 64.7097C47.3891 64.7357 47.5854 67.4733 48.0884 68.7819Z" fill="#333333"/>
<path fill-rule="evenodd" clip-rule="evenodd" d="M48.9811 66.1455C48.9999 66.0081 49.159 65.7085 49.2242 65.8658C49.3402 66.1455 49.222 68.0124 50.3159 68.2065C50.4995 68.239 50.9824 68.3087 50.9824 68.4628C50.9824 68.6169 50.9077 68.8493 50.5071 68.7406C49.8003 68.5488 49.3959 68.1529 49.1481 67.5248C48.9719 67.0779 48.9251 66.5544 48.9811 66.1455Z" fill="#333333"/>
<path fill-rule="evenodd" clip-rule="evenodd" d="M24.5941 61.5487L24.5944 61.5518C24.5946 61.5775 24.6263 61.6126 24.6319 61.6883C24.6559 62.0105 24.5192 62.7687 24.495 63.0082C24.4317 63.5691 24.321 64.2704 24.3011 64.9405C24.2883 65.3734 24.3111 65.7931 24.4342 66.1488C24.6902 66.9148 25.2809 67.386 25.9946 67.6871C26.633 67.957 27.3719 68.0756 28.0806 68.1606C28.5976 68.2223 29.0965 68.2737 29.5389 68.2987C29.6144 68.2987 29.6758 68.3603 29.6758 68.436C29.6758 68.5117 29.6144 68.5725 29.5389 68.5725C29.0868 68.5983 28.5734 68.6295 28.0423 68.5998C27.2825 68.5577 26.4947 68.4056 25.8123 68.1232C24.9694 67.7737 24.2889 67.2004 23.9884 66.297C23.8575 65.889 23.8266 65.4101 23.8614 64.9178C23.9095 64.236 24.0753 63.5301 24.1734 62.9622C24.2175 62.7243 24.297 61.9528 24.42 61.6532C24.4801 61.5058 24.5839 61.4878 24.5874 61.4964C24.6016 61.5104 24.6039 61.5323 24.5941 61.5487Z" fill="#333333"/>
<path fill-rule="evenodd" clip-rule="evenodd" d="M31.4111 67.0679L31.0011 67.1333C30.8721 67.1603 30.7252 67.2126 30.6023 67.2928C30.5113 67.3523 30.4366 67.4294 30.3859 67.5195C30.3623 67.5627 30.3487 67.606 30.3392 67.6493C30.3214 67.7311 30.3263 67.8136 30.312 67.9013C30.3004 67.9705 30.2964 68.0389 30.2987 68.1072C30.3019 68.201 30.3177 68.2938 30.3274 68.3879C30.3489 68.5367 30.3557 68.6794 30.4138 68.8108C30.44 68.87 30.4753 68.9227 30.5203 68.9767C30.5416 69.0152 30.5902 69.0291 30.6286 69.0077C30.6671 68.9863 30.681 68.9378 30.6596 68.8993C30.6596 68.8993 30.3931 67.6637 30.7177 67.4588C31.0423 67.254 31.2223 67.2806 31.3172 67.2572C31.3561 67.2475 31.4406 67.1435 31.4455 67.1197C31.4503 67.096 31.4349 67.0727 31.4111 67.0679Z" fill="#333333"/>
<path fill-rule="evenodd" clip-rule="evenodd" d="M31.3973 67.115L31.4422 67.2078C31.4566 67.2683 31.4589 67.3382 31.4605 67.4054C31.4619 67.4647 31.4683 67.5228 31.4311 67.5715C31.411 67.5916 31.411 67.6242 31.4311 67.6443C31.4512 67.6645 31.4839 67.6645 31.504 67.6443C31.5699 67.5987 31.6102 67.5342 31.6223 67.4588C31.638 67.3609 31.5958 67.2545 31.5591 67.1689C31.547 67.1415 31.5005 67.0743 31.4527 67.0464C31.4147 67.0242 31.3778 67.0186 31.3488 67.0416C31.3286 67.055 31.323 67.0823 31.3363 67.1026C31.3498 67.1228 31.3771 67.1285 31.3973 67.115Z" fill="#333333"/>
<path fill-rule="evenodd" clip-rule="evenodd" d="M31.3427 67.5857C31.3074 67.6059 31.2746 67.6265 31.2618 67.6324C31.1374 67.689 31.0662 67.8128 31.0471 67.961C31.0239 68.1408 31.0898 68.3495 31.1281 68.4777C31.1391 68.5219 31.184 68.5489 31.2283 68.5378C31.2725 68.5267 31.2994 68.4819 31.2883 68.4376C31.2591 68.306 31.2274 68.0832 31.2593 67.9123C31.2714 67.8478 31.2815 67.787 31.3313 67.7482C31.3313 67.7482 31.3666 67.572 31.3427 67.5857Z" fill="#333333"/>
<path fill-rule="evenodd" clip-rule="evenodd" d="M30.4785 67.8066C30.553 67.8903 30.5456 68.0185 30.4619 68.093C30.3347 68.2063 30.2231 68.2927 30.1254 68.3528L30.0778 68.3808C29.9946 68.428 29.8837 68.4824 29.7442 68.5449C29.7268 68.5527 29.5655 68.6037 29.5067 68.558C29.4756 68.5339 29.4412 68.5053 29.4233 68.4645C29.415 68.4455 29.4434 68.408 29.4958 68.3601C29.5831 68.2803 29.8153 68.2374 29.9759 68.1369C30.2385 67.9724 30.4408 67.7643 30.4785 67.8066Z" fill="#333333"/>
<path fill-rule="evenodd" clip-rule="evenodd" d="M31.1988 69.7204C31.2782 69.6412 31.4067 69.6414 31.4858 69.7208C31.8326 70.0686 31.9359 70.4019 31.711 70.6764C31.5673 70.8518 31.3627 71.005 31.0728 71.1211C30.9375 71.1753 30.9539 71.2009 30.6009 71.2783C30.4915 71.3023 30.3833 71.2331 30.3593 71.1236C30.3352 71.0142 30.4045 70.906 30.5139 70.882L30.656 70.8501C30.9105 70.7915 31.2959 70.5427 31.3971 70.4192C31.4548 70.3488 31.4168 70.2263 31.1984 70.0073C31.1193 69.9279 31.1195 69.7995 31.1988 69.7204Z" fill="#333333"/>
<path fill-rule="evenodd" clip-rule="evenodd" d="M36.4149 66.4489C36.4622 67.3809 36.4814 67.9405 36.4726 68.1277C36.4481 68.6363 36.3551 69.2885 36.1301 69.8564C35.9672 70.2675 35.7303 70.6294 35.4272 70.8791C35.2212 71.0397 34.7857 71.353 33.4944 71.2636C30.9014 71.0842 31.3132 66.6878 31.3292 66.6238C31.3453 66.5598 31.4126 66.3118 31.4767 66.3274C31.5931 66.3461 31.1421 70.9127 33.425 70.9438C33.6023 70.9462 33.7767 70.922 33.9554 70.8986C34.203 70.8798 34.4635 70.8237 34.7046 70.7301C34.8556 70.6716 34.9992 70.5974 35.122 70.4968C35.3739 70.3018 35.5607 70.0046 35.7092 69.6777C35.9433 69.1621 36.1136 68.5713 36.1692 68.1025C36.1987 67.8575 36.264 66.3702 36.264 66.3702C36.2982 66.2524 36.4136 66.423 36.4149 66.4489Z" fill="#333333"/>
<path fill-rule="evenodd" clip-rule="evenodd" d="M33.8889 65.9148L34.0051 65.9154C35.3332 65.9285 36.3913 66.1655 36.3913 66.4559C36.3913 66.7547 35.8915 67.3216 34.5095 67.3216L34.3933 67.321C32.5365 67.3986 31.3865 66.7463 31.3865 66.4559C31.3865 66.157 32.5068 65.9148 33.8889 65.9148Z" fill="#333333"/>
<path fill-rule="evenodd" clip-rule="evenodd" d="M33.8889 66.05L33.7764 66.0507C32.5449 66.0638 31.5217 66.2899 31.5217 66.4558C31.5217 66.6268 32.6078 66.9969 33.8889 66.9969L34.0014 66.9963C35.2329 66.9831 36.256 66.6218 36.256 66.4558C36.256 66.2849 35.1699 66.05 33.8889 66.05Z" fill="white"/>
<path fill-rule="evenodd" clip-rule="evenodd" d="M35.834 48.4547C35.896 48.5412 35.9726 48.6209 36.0629 48.6905C36.1583 48.7649 36.2691 48.8113 36.3796 48.8439C36.5953 48.9016 36.8082 48.9594 37.0282 48.9953C37.7059 49.1058 39.404 49.2914 39.5708 49.3225C39.6834 49.3554 39.8014 49.2904 39.834 49.1777C39.8666 49.0649 39.8015 48.9468 39.689 48.9138C39.5192 48.8459 39.3513 48.7817 39.176 48.7367C38.9165 48.6697 38.6499 48.6384 38.3842 48.6076C37.9313 48.5538 37.477 48.509 37.0219 48.4809C36.8285 48.4696 36.6379 48.4725 36.4445 48.4594C36.3847 48.4571 36.3246 48.4483 36.265 48.4291C36.1632 48.3969 36.0648 48.3587 35.9821 48.3025L35.7614 48.1373C35.7374 48.1369 35.7177 48.157 35.7178 48.1814C35.7178 48.2058 35.8172 48.4287 35.834 48.4547Z" fill="#333333"/>
<path fill-rule="evenodd" clip-rule="evenodd" d="M37.9557 50.0729C38.0707 50.1969 38.2597 50.3007 38.4681 50.3319C38.6795 50.3623 38.8968 50.3108 39.0437 50.2289C39.089 50.2063 39.1073 50.1509 39.0847 50.1057C39.0621 50.0604 39.007 50.0425 38.9618 50.0651C38.8612 50.1088 38.7268 50.1158 38.5887 50.1096C38.5306 50.1064 38.4721 50.0986 38.4139 50.094C38.262 50.0799 38.1174 50.0682 38.0117 50.005C37.993 49.9902 37.9652 49.9925 37.9497 50.0113C37.9343 50.03 37.937 50.0573 37.9557 50.0729Z" fill="#333333"/>
<path fill-rule="evenodd" clip-rule="evenodd" d="M83.9107 20.3868C84.0971 20.3979 84.2393 20.5579 84.2283 20.7444L84.1911 21.3894C83.9233 26.1586 83.8607 30.1969 84.0031 33.5032L84.0096 33.6508C84.1667 37.1259 84.5505 42.0251 85.4293 49.6871C85.5073 49.7418 85.5619 49.8291 85.5718 49.9314C85.5898 50.1173 85.4537 50.2826 85.2678 50.3006C80.912 50.7227 76.8591 51.0036 73.109 51.1434L72.5967 51.1617C68.7773 51.2922 63.2452 51.3557 55.9991 51.3522C55.8123 51.3521 55.661 51.2006 55.6611 51.0138C55.6612 50.8271 55.8126 50.6757 55.9994 50.6758L57.5243 50.6756C64.1615 50.6699 69.2552 50.6039 72.8043 50.4778L73.3514 50.4574C76.8817 50.32 80.6809 50.0579 84.7489 49.671C84.6053 48.2268 83.4845 36.9052 83.3388 33.7871L83.334 33.6813C83.1754 30.1747 83.2486 25.8495 83.5531 20.7044C83.5637 20.5254 83.7117 20.3872 83.8884 20.3862L83.9107 20.3868ZM52.8766 21.0694C53.0617 21.0446 53.2318 21.1745 53.2566 21.3597L53.3791 22.2811C54.117 27.8706 54.6057 32.3137 54.845 35.6117L54.8677 35.9306C55.1101 39.4339 55.2612 44.5175 55.3211 51.1837C55.3227 51.3704 55.1727 51.5232 54.986 51.5249C54.7992 51.5266 54.6464 51.3765 54.6448 51.1898L54.6351 50.2036C54.5718 44.2277 54.4315 39.5911 54.2144 36.2955L54.1929 35.9774C53.9516 32.4906 53.416 27.6473 52.5863 21.4494C52.5615 21.2643 52.6915 21.0941 52.8766 21.0694Z" fill="#333333"/>
<path fill-rule="evenodd" clip-rule="evenodd" d="M30.3246 52.392C30.5114 52.3907 30.6638 52.541 30.6652 52.7278C30.6665 52.9145 30.5162 53.067 30.3294 53.0683C26.6004 53.0949 24.0436 54.1704 22.6204 56.2791C20.9336 58.7784 19.343 62.8567 19.4463 68.135C19.5232 72.0624 27.7822 71.439 29.7625 71.334C30.0269 71.3199 30.207 71.4607 30.205 71.4817C30.1899 71.64 30.0644 71.7704 29.9002 71.786C27.4871 72.0149 25.4587 71.7789 23.8223 71.6136C20.3618 71.264 18.6547 70.2908 18.7709 68.0992C19.056 62.7228 20.5696 58.5096 22.3303 55.9008C23.8937 53.5844 26.3911 52.4201 30.3246 52.392Z" fill="#333333"/>
<path fill-rule="evenodd" clip-rule="evenodd" d="M30.3882 38.5834C30.0501 38.9142 30.0032 39.6258 30.1006 40.8779L30.1118 41.0166C30.126 41.187 30.1424 41.3619 30.1629 41.5646L30.271 42.6277C30.3034 42.9673 30.3036 43.0359 30.2927 43.0992L30.2798 43.1704C30.1873 43.6745 29.9613 44.1931 29.876 44.4495L29.858 44.5017L29.8478 44.4861C29.1364 43.4125 28.484 42.6331 27.8595 42.4214C27.097 42.1628 26.4393 42.5453 25.9466 43.4574L25.918 43.5112C25.021 45.2282 26.0105 46.2907 28.3882 46.8299L28.4344 46.8402L28.5066 47.0188C30.8047 52.6459 34.0927 55.0439 38.5746 53.8273C41.6258 52.9991 43.4297 50.3189 44.1439 46.5003C44.6589 43.7472 44.5187 40.4178 44.0119 38.9533C43.856 38.5029 43.5996 38.2612 43.2133 38.2254C43.0818 38.2132 42.9446 38.2247 42.7715 38.257L42.6891 38.2734C42.5526 38.3027 42.2047 38.3848 42.1914 38.3878C41.5451 38.5336 41.0097 38.5814 40.3517 38.5017L40.2612 38.4901C39.8508 38.4341 39.4629 38.371 38.8873 38.2697L37.9675 38.1086C37.1885 37.9747 36.8847 37.9344 36.3939 37.8917C35.5547 37.8188 34.8248 37.8471 34.1245 38.0006L34.0371 38.0204C33.735 38.0913 33.5138 38.1994 33.0721 38.0597L32.8637 37.9919C31.8698 37.6698 31.3425 37.6496 30.3882 38.5834ZM32.759 38.5339C33.3598 38.7314 33.6898 38.7876 34.1443 38.6894L34.3111 38.6516C35.3886 38.4162 36.2135 38.4873 38.5186 38.8914L39.0714 38.9882C39.4985 39.0616 39.8256 39.1131 40.1699 39.1601C40.9285 39.2635 41.5413 39.2201 42.2511 39.0671L42.9755 38.9051C43.1004 38.8791 43.085 38.8889 43.13 38.8961L43.1509 38.8987C43.2458 38.9075 43.5677 38.9559 43.6433 39.1744C44.1091 40.5201 44.2443 43.7318 43.7497 46.3759C43.0782 49.966 41.1513 52.427 38.3975 53.1745C34.201 54.3136 31.0461 52.1492 28.862 46.5591L28.7948 46.3871L28.6138 46.3507L28.4846 46.3238C26.4058 45.8784 25.7037 45.0795 26.4064 43.7787C26.7584 43.1273 27.2405 42.9255 27.6424 43.0618C28.1313 43.2276 28.7473 43.8668 29.4512 44.983L29.4591 44.9949C29.7678 45.4415 30.1962 45.2704 30.4139 44.7962C30.5497 44.5003 30.6788 44.0055 30.8088 43.2977L30.835 43.153C30.8571 43.0175 30.8467 42.9093 30.7334 41.8156L30.6933 41.4238C30.6789 41.2792 30.6667 41.1488 30.6559 41.0229L30.6506 40.9603C30.6061 40.4275 30.5898 40.003 30.6065 39.6693C30.6235 39.3303 30.678 39.1137 30.726 39.0667L30.8064 38.9893C31.5045 38.3284 31.9003 38.2623 32.6145 38.4869L32.759 38.5339Z" fill="#333333"/>
<path fill-rule="evenodd" clip-rule="evenodd" d="M34.8734 30.4297C34.9918 30.4297 35.1118 30.4338 35.2337 30.442C35.9202 30.4881 36.5393 30.631 37.5478 30.9399L38.152 31.1263C39.2033 31.4474 39.5528 31.5227 40.0212 31.5227C43.6529 31.5227 45.5251 32.7546 45.6472 34.779C45.7409 36.3319 44.6562 38.1793 43.436 38.8123C43.2703 38.8983 43.0661 38.8337 42.9801 38.6679C42.8941 38.5021 42.9588 38.298 43.1246 38.212C44.1109 37.7003 45.0495 36.1018 44.9721 34.8198C44.8761 33.229 43.365 32.2194 40.1201 32.1993L39.9621 32.1987C39.4262 32.1929 39.0346 32.1042 37.9096 31.7595L37.3544 31.588C36.3908 31.2928 35.8102 31.1586 35.1884 31.1168C35.0813 31.1097 34.9764 31.106 34.8734 31.106C30.5626 31.106 26.3161 34.779 25.7317 38.212C25.5896 39.0467 26.4998 43.6953 26.3161 43.7288C26.1324 43.7623 25.9563 43.6406 25.9227 43.4568L25.8832 43.2364C25.4912 41.0143 25.0684 39.0078 25.3101 37.9561C26.2885 33.6982 30.2422 30.4297 34.8734 30.4297Z" fill="#333333"/>
<path fill-rule="evenodd" clip-rule="evenodd" d="M39.6655 40.262C39.8685 40.262 39.9654 40.7158 39.93 40.8322C39.7762 41.3375 40.1612 44.2177 40.4464 44.9618L40.4599 44.9962C40.8739 46.0264 40.2715 46.6927 38.9071 46.8784C38.722 46.9036 38.5516 46.774 38.5264 46.5889C38.5186 46.5312 38.5692 46.3782 38.6965 46.3893C39.6336 46.4711 40.3136 45.6674 40.1131 45.1393L40.0874 45.0737C39.7601 44.2233 39.3919 42.3666 39.3919 40.6049C39.3919 40.4178 39.4875 40.262 39.6655 40.262Z" fill="#333333"/>
<path fill-rule="evenodd" clip-rule="evenodd" d="M26.7338 46.2255C26.8313 46.4621 26.752 48.8286 27.9953 50.1117C28.9832 51.1312 30.1067 50.797 30.3704 50.4812C30.4994 50.3267 30.7405 50.4637 30.8248 50.6304C30.9091 50.797 30.8423 51.0004 30.6757 51.0847C29.8252 51.5149 28.6929 51.3553 27.9953 50.7582C26.7834 49.721 26.519 47.4562 26.519 46.6528C26.519 46.3553 26.647 46.0148 26.7338 46.2255Z" fill="#333333"/>
<path fill-rule="evenodd" clip-rule="evenodd" d="M40.8034 43.2699C40.9213 43.0924 41.094 43.0715 41.2689 43.1442C41.4394 43.2149 41.6071 43.3975 41.6618 43.5203C41.7426 43.7028 41.7437 44.0011 41.6785 44.2849C41.6119 44.5756 41.4778 44.846 41.3328 44.9681C41.1948 45.0831 41.079 45.1296 40.9553 44.947C40.4835 44.2505 40.758 43.3382 40.8034 43.2699Z" fill="#333333"/>
<path fill-rule="evenodd" clip-rule="evenodd" d="M35.5237 43.944C35.4725 43.7559 35.4759 42.7834 35.8434 42.7834C36.39 42.7834 36.4598 43.7956 36.3896 43.9999C35.9944 45.1518 35.5749 44.1321 35.5237 43.944Z" fill="#333333"/>
<path fill-rule="evenodd" clip-rule="evenodd" d="M40.2058 33.4749C40.0986 33.3269 40.5217 33.2814 40.6758 33.3869C41.9657 34.27 42.6283 35.1145 42.6168 35.9568C42.6056 36.784 41.9343 37.7079 40.6331 38.7737C40.4886 38.892 40.2755 38.8708 40.1572 38.7263C40.0388 38.5818 41.8481 37.4198 41.9406 35.9475C42.033 34.4753 40.4069 33.7524 40.2058 33.4749Z" fill="#333333"/>
<path fill-rule="evenodd" clip-rule="evenodd" d="M42.2096 33.1172C42.1545 32.8773 42.504 32.8923 42.6681 32.9814C43.709 33.5467 44.2449 34.4229 44.2449 35.5679C44.2449 36.6894 43.4865 37.6664 42.3424 38.7979C42.2096 38.9292 41.9955 38.928 41.8642 38.7952C41.7328 38.6624 43.7109 37.2768 43.7109 35.2791C43.7109 33.2813 42.2843 33.4429 42.2096 33.1172Z" fill="#333333"/>
<path fill-rule="evenodd" clip-rule="evenodd" d="M40.4898 40.666C40.7955 40.5567 41.2177 40.624 41.7689 40.8502C41.8627 40.8887 41.9539 40.9389 42.0533 41.0046L42.1225 41.0527C42.2505 41.1439 42.4686 41.3064 42.5111 41.3361C42.6495 41.4333 42.7754 41.5096 42.9116 41.5754C43.0414 41.6382 43.253 41.696 43.542 41.7453C43.6524 41.7641 43.7267 41.869 43.7079 41.9794C43.689 42.0899 42.4331 41.9125 42.278 41.8036L41.9586 41.5699C41.9028 41.5295 41.8549 41.4952 41.8297 41.4785C41.7507 41.4263 41.6818 41.3883 41.6149 41.3609C41.1648 41.1762 40.8384 41.1202 40.6471 41.1766L40.6264 41.1834C40.2269 41.085 40.3843 40.7037 40.4898 40.666Z" fill="#333333"/>
<path fill-rule="evenodd" clip-rule="evenodd" d="M30.4512 50.6741C30.5734 50.6275 30.7102 50.6887 30.7568 50.8108C30.9025 51.1927 30.9881 52.0324 31.0131 52.2547C31.0374 52.471 31.0374 52.6828 31.0129 52.8897C30.9976 53.0196 30.8799 53.1123 30.75 53.097C30.6202 53.0816 30.5274 52.9639 30.5428 52.8341C30.563 52.6637 30.563 52.4883 30.5426 52.3076C30.523 52.133 30.4471 51.3273 30.3144 50.9796C30.2678 50.8575 30.3291 50.7207 30.4512 50.6741Z" fill="#333333"/>
<path fill-rule="evenodd" clip-rule="evenodd" d="M30.5327 52.8929C30.6556 52.7524 31.0697 52.5188 31.0099 52.861C30.95 53.2032 30.0932 53.6012 30.0932 54.2597C30.0932 55.2373 30.4701 56.1729 31.826 56.564C36.6828 57.9648 38.3957 54.3982 38.5306 54.5273C38.6656 54.6564 38.6704 54.8704 38.5413 55.0054C37.7784 55.803 37.1634 56.3347 36.6828 56.6051C34.9933 57.5558 33.1594 57.7441 31.6037 57.2027C30.1808 56.7075 29.1878 55.2999 29.7787 53.9186C29.8745 53.6944 30.1214 53.3633 30.5327 52.8929Z" fill="#333333"/>
<path fill-rule="evenodd" clip-rule="evenodd" d="M64.5277 17.7999C64.6808 17.693 64.8916 17.7305 64.9985 17.8836C65.1054 18.0368 64.9325 18.2571 64.7794 18.364C64.2693 18.7201 63.0404 19.8834 62.7888 20.1498L62.547 20.4073C62.0722 20.9187 56.4162 26.8002 56.2804 26.672C56.1558 26.5545 61.6745 20.486 62.0886 20.0424L62.1042 20.0257C62.4954 19.6083 62.8568 19.2319 63.2026 18.8834C63.545 18.5384 63.9865 18.1777 64.5277 17.7999Z" fill="#E0E0E0"/>
<path fill-rule="evenodd" clip-rule="evenodd" d="M64.5277 22.8048C64.6809 22.6979 64.8917 22.7354 64.9986 22.8885C65.1055 23.0416 65.068 23.2525 64.9149 23.3594C64.4048 23.7155 56.4494 31.7408 56.2805 31.6769C56.1115 31.613 56.9269 30.6594 56.9269 30.6594C57.448 30.1141 62.1043 25.1659 62.1043 25.1659C62.4955 24.7484 62.8569 24.3721 63.2027 24.0236C63.5451 23.6785 63.9866 23.1826 64.5277 22.8048Z" fill="#333333"/>
<path fill-rule="evenodd" clip-rule="evenodd" d="M71.9986 18.9686C72.1251 18.8312 72.339 18.8222 72.4765 18.9486C72.6139 19.0751 72.6229 19.289 72.4964 19.4265C72.4964 19.4265 57.1138 36.9128 56.9738 36.4262C56.8968 36.1584 63.3659 28.386 64.3835 27.3382L64.6657 27.0529C65.143 26.5575 67.5056 23.8537 71.9986 18.9686Z" fill="#333333"/>
<path fill-rule="evenodd" clip-rule="evenodd" d="M36.4966 40.2727C36.7755 40.2379 37.2577 40.2855 37.7867 40.4518C37.9649 40.5078 38.0639 40.6976 38.0079 40.8758C37.9519 41.0539 37.7621 41.153 37.5839 41.097C37.1352 40.956 36.789 40.8837 36.5543 40.8777L36.4966 40.8775C36.4143 40.8794 36.3542 40.8938 36.1211 40.9829L35.7706 41.1199C35.4349 41.2523 35.1876 41.3302 34.9138 41.3752C34.6051 41.4259 34.1393 41.4052 33.4996 41.3182C33.3145 41.2931 32.9982 41.0735 33.2101 40.9376C33.422 40.8017 34.3182 40.9499 34.7383 40.8758C35.1585 40.8017 35.956 40.3401 36.4966 40.2727Z" fill="#333333"/>
<path fill-rule="evenodd" clip-rule="evenodd" d="M22.0445 63.4398C23.5673 63.4131 24.2162 63.8366 24.0761 63.9736C24.0761 63.9736 22.4585 63.8503 22.0445 63.8366C21.6068 63.8221 19.6035 63.7918 19.5484 63.6134C19.5274 63.5455 19.5289 63.4761 19.5485 63.4131C19.569 63.3473 19.9627 63.3877 20.6436 63.4182C21.0253 63.4354 21.4973 63.4494 22.0445 63.4398Z" fill="#333333"/>
<path fill-rule="evenodd" clip-rule="evenodd" d="M24.4519 71.6209C24.4519 71.6209 24.3149 78.0769 25.2314 78.6032C25.358 78.6759 25.3441 78.9561 25.205 79.0807C25.0658 79.2053 24.852 79.1935 24.7275 79.0543C23.8854 78.1137 23.6652 75.4583 23.998 71.5504C24.0133 71.3717 24.4678 71.4348 24.4519 71.6209Z" fill="#333333"/>
<path fill-rule="evenodd" clip-rule="evenodd" d="M45.6788 75.2963L45.6606 75.2975L44.5813 75.3972C37.8366 76.0283 33.6213 76.6503 30.3087 77.264L29.9975 77.3226C28.3992 77.6285 27.0869 77.9333 26.3242 78.2406C25.3704 78.6251 24.5121 79.0836 24.8166 79.6554C25.3471 80.6519 26.4635 81.0424 28.9093 81.3132L29.1701 81.3409C31.0608 81.5338 33.0928 81.5805 38.2441 81.6066L40.0043 81.6169C46.2837 81.6588 49.915 81.8844 54.6175 82.1727L55.0968 82.2025C63.7562 82.7492 70.6683 82.6616 75.8332 82.0556L75.9892 82.037C80.162 81.5355 82.9774 80.7059 84.202 79.7646C84.923 79.2105 85.0332 78.6553 85.0531 78.1416C85.071 77.6799 84.0112 76.9823 83.4058 76.7531C81.7194 76.1146 81.1692 75.8831 77.9271 75.5562C71.5235 74.9105 60.8673 74.7342 45.6788 75.2963ZM77.9945 76.0938L78.207 76.1156C81.2294 76.4318 83.2136 76.888 84.1288 77.4615L84.1859 77.4983C84.8887 77.9655 84.8 78.4519 83.7898 79.2283C82.6853 80.0773 79.9704 80.8772 75.9084 81.3655C70.8231 81.9767 63.9861 82.0754 55.4001 81.5438L54.5 81.4879C49.543 81.1872 45.7399 81.106 38.7012 81.0679L36.7582 81.0567C32.5677 81.0275 30.7866 80.9696 29.0671 80.7853L28.9036 80.7672C26.748 80.5207 25.5567 80.0703 25.1576 79.3641L25.143 79.3375C25.1354 79.3233 25.1354 79.3235 25.1933 79.2648C25.3092 79.1473 25.547 79.0104 25.9007 78.8679L25.9924 78.8318C26.759 78.5368 27.9708 78.2345 29.6203 77.9289L29.9327 77.8719C33.2259 77.2804 38.137 76.6791 44.6626 76.0688L45.7121 75.9718L46.6081 75.9392C61.2922 75.4129 71.7571 75.4649 77.9945 76.0938Z" fill="#333333"/>
<path d="M62.6092 69.5034C62.4856 74.0092 62.1328 77.0105 61.5326 78.0607C61.0247 78.9492 59.3198 79.2508 57.1587 79.1047L56.3806 79.0482C55.3239 78.9691 54.7346 78.9113 54.1664 78.8235L54.089 78.8114C53.1748 78.6653 52.5716 78.4635 52.2335 78.1356C50.9857 76.9259 50.3243 74.2456 50.1979 70.0705C50.1922 69.8838 50.6872 70.0557 50.8739 70.0501C50.9127 70.0489 53.1452 70.3182 56.2182 70.1749C58.0406 70.0899 62.6092 69.5034 62.6092 69.5034Z" fill="white"/>
<path fill-rule="evenodd" clip-rule="evenodd" d="M50.5798 70.0195C50.7034 74.5254 51.7656 77.144 52.3658 78.1942C52.8736 79.0827 54.5786 79.3843 56.7396 79.2382L57.5177 79.1817C58.5744 79.1026 54.6975 77.9479 53.3589 76.4854C51.8575 74.8452 50.5798 70.0195 50.5798 70.0195Z" fill="#E0E0E0"/>
<path fill-rule="evenodd" clip-rule="evenodd" d="M51.4935 71.4148C51.5188 71.2298 51.7469 70.9132 51.8744 71.1256C52.0019 71.338 52.0589 71.8533 52.324 72.5112L52.8863 73.6016C52.9361 73.725 52.9813 73.8394 53.0238 73.9496L53.049 74.0154C53.3027 74.6813 53.4583 75.0714 53.5137 75.5147C53.5368 75.7 53.4053 75.869 53.22 75.8921C53.0347 75.9153 52.8657 75.7838 52.8426 75.5985C52.7955 75.2214 52.7882 74.7403 52.5522 74.121L52.5028 73.9926C52.4688 73.9055 52.4329 73.815 52.3941 73.7186L52.0036 72.7695C51.9359 72.6034 51.8838 72.4715 51.8378 72.3491L51.801 72.2495C51.6605 71.8629 51.4664 71.6129 51.4935 71.4148Z" fill="#333333"/>
<path fill-rule="evenodd" clip-rule="evenodd" d="M42.5903 50.1912C42.3821 50.3494 42.6364 50.5726 42.7178 50.8158C42.7364 50.8713 42.7601 50.9284 42.7913 50.9953L42.8294 51.0746L42.9156 51.2464L42.9514 51.3193C42.9898 51.3991 43.017 51.4618 43.0387 51.5215C43.1058 51.7061 43.0995 51.7892 43.0364 51.8455C42.6813 52.1625 42.3039 52.3746 41.5808 52.6949L41.1816 52.8696C39.9778 53.4015 39.1747 53.7543 38.722 54.4743C38.1246 55.4243 38.2839 56.7859 38.7005 58.7689L38.7201 58.8608C38.8 59.2303 38.6466 59.9052 38.5363 60.9279L38.5282 61.0015C38.4831 61.4102 38.4249 61.8679 38.3452 62.4487L38.0275 64.7028C37.9075 65.5649 37.8182 66.2507 37.7409 66.9222L37.7116 67.1816C37.479 69.2811 37.412 70.9323 37.5466 72.2733C37.6635 73.4366 38.3448 75.1009 39.1488 75.8961C40.33 77.0644 41.5041 76.511 42.5663 74.0951C43.0411 73.0154 43.3346 72.0018 43.4748 70.9715C43.6624 69.594 43.5854 68.1896 43.2585 66.2951L43.2246 66.1025C43.001 64.8746 42.024 60.3496 41.9074 59.7756L41.8697 59.5929L41.6215 58.4362C41.6056 58.3607 41.5907 58.2893 41.5763 58.2192L41.5302 57.99C41.3248 56.9459 41.2535 56.2529 41.3309 55.8044C41.3382 55.7621 41.3739 55.7 41.447 55.6211C41.5608 55.4981 41.7416 55.3594 42.0077 55.1879L42.1262 55.1133C42.3753 54.9598 42.9683 54.6069 42.9725 54.6043L43.0999 54.5263C44.352 53.7514 44.9409 53.1439 44.9409 52.2841C44.9409 51.4299 44.5805 50.7771 43.9953 50.3874C43.5089 50.0635 42.8963 49.9587 42.5903 50.1912ZM43.2725 50.9891L43.1562 50.7553L43.1431 50.7527C43.2945 50.7786 43.4648 50.8466 43.6206 50.9503C44.02 51.2163 44.2646 51.6594 44.2646 52.2841C44.2646 52.8184 43.7927 53.3018 42.739 53.9542L42.5548 54.0659C42.3746 54.1733 41.8813 54.468 41.7105 54.5753L41.6963 54.5843C41.3567 54.7997 41.1207 54.978 40.9508 55.1615C40.7963 55.3285 40.697 55.5009 40.6645 55.6893C40.5642 56.2703 40.6518 57.0616 40.8973 58.2736L40.9596 58.5752L41.1871 59.6333L41.3148 60.2454C41.5757 61.4807 42.3808 65.2285 42.5652 66.2569L42.5713 66.2909C42.9049 68.1841 42.9854 69.5534 42.8048 70.8803C42.6732 71.8465 42.3973 72.7994 41.9473 73.8229C41.4614 74.9279 40.973 75.5469 40.5238 75.7368C40.1878 75.8788 39.8511 75.7731 39.4892 75.4152C38.8081 74.7415 38.1866 73.2235 38.0844 72.2057C37.9554 70.9213 38.0209 69.3109 38.2488 67.2537L38.2775 66.9996C38.3575 66.3051 38.4506 65.5937 38.5779 64.6827L38.8553 62.7196L38.9148 62.2844C38.9742 61.8438 39.0205 61.4747 39.0583 61.1383L39.0821 60.9196C39.1898 59.8958 39.2076 59.2041 39.1176 58.7514L39.1107 58.7179C38.7051 56.8418 38.6621 55.625 39.1593 54.8343C39.5114 54.2743 40.0862 53.9772 41.1275 53.5135L41.5914 53.31C42.3723 52.9639 42.7955 52.7256 43.2163 52.35C43.5274 52.0724 43.5552 51.7067 43.4039 51.2905C43.3696 51.196 43.3293 51.1049 43.2725 50.9891Z" fill="#333333"/>
<path d="M43.2725 50.9891L43.1562 50.7552L43.1432 50.7527C43.2945 50.7786 43.4648 50.8466 43.6206 50.9503C44.02 51.2163 44.2647 51.6594 44.2647 52.284C44.2647 52.8184 43.7928 53.3018 42.7391 53.9541L42.5548 54.0659C42.3746 54.1733 41.8813 54.468 41.7106 54.5753L41.6964 54.5842C41.3568 54.7997 41.1208 54.978 40.9508 55.1615C40.7963 55.3284 40.697 55.5009 40.6645 55.6893C40.5642 56.2703 40.6519 57.0616 40.8973 58.2736L40.9597 58.5752L41.1872 59.6332L41.3148 60.2454C41.5758 61.4807 42.3808 65.2285 42.5653 66.2568L42.5713 66.2908C42.905 68.1841 42.9855 69.5534 42.8048 70.8802C42.6733 71.8464 42.3973 72.7993 41.9473 73.8228C41.4614 74.9279 40.9731 75.5469 40.5238 75.7367C40.1879 75.8787 39.8511 75.7731 39.4892 75.4151C38.8081 74.7415 38.1866 73.2235 38.0844 72.2056C37.9554 70.9213 38.021 69.3109 38.2489 67.2537L38.2776 66.9995C38.3576 66.3051 38.4506 65.5937 38.578 64.6827L38.8553 62.7196L38.9149 62.2844C38.9742 61.8437 39.0206 61.4746 39.0583 61.1383L39.0822 60.9195C39.1899 59.8958 39.2076 59.2041 39.1177 58.7513L39.1107 58.7178C38.7051 56.8417 38.6621 55.6249 39.1593 54.8342C39.5115 54.2743 40.0863 53.9771 41.1275 53.5135L41.5915 53.31C42.3724 52.9639 42.7955 52.7256 43.2164 52.35C43.5274 52.0723 43.5552 51.7067 43.404 51.2904C43.3696 51.196 43.3293 51.1049 43.2725 50.9891Z" fill="white"/>
<path fill-rule="evenodd" clip-rule="evenodd" d="M41.0856 55.5241C41.1781 55.3619 41.3845 55.3052 41.5468 55.3976C43.499 56.5095 44.6176 57.848 44.8691 59.4141C45.1114 60.9225 43.5321 68.772 43.3496 68.7324C43.167 68.6929 43.0511 68.5128 43.0907 68.3303L43.1761 67.9328C44.0791 63.6924 44.4189 60.8752 44.2014 59.5213C43.9864 58.1832 43.0012 57.0043 41.2121 55.9853C41.0498 55.8929 40.9932 55.6864 41.0856 55.5241Z" fill="#333333"/>
<path fill-rule="evenodd" clip-rule="evenodd" d="M41.8889 51.0004C42.0461 50.8994 42.2553 50.945 42.3562 51.1021C42.5301 51.3728 42.6343 51.5932 42.6669 51.7814C42.6989 51.9668 42.6773 52.2155 42.6094 52.5465C42.5718 52.7294 42.3931 52.8473 42.2101 52.8098C42.1245 52.7922 42.0531 52.7437 42.0053 52.6783C41.9509 52.6039 42.271 52.4105 42.271 51.8966C42.271 51.3827 41.7318 51.1013 41.8889 51.0004Z" fill="#333333"/>
<path fill-rule="evenodd" clip-rule="evenodd" d="M41.7655 51.5219C41.8474 51.4536 41.9194 51.7113 41.9035 51.8385C41.8794 52.0309 41.8794 52.7222 41.6075 53.0488C41.4997 53.1782 41.3236 53.2868 41.1556 53.2052C41.0813 53.1692 41.3129 52.8465 41.4536 52.4817C41.5555 52.2174 41.635 51.9344 41.6889 51.7446C41.729 51.6038 41.6807 51.5927 41.7655 51.5219Z" fill="#333333"/>
<path fill-rule="evenodd" clip-rule="evenodd" d="M62.2795 69.1415C62.4662 69.1461 62.6137 69.3013 62.6091 69.488L62.6018 69.7661C62.4782 74.2719 62.1328 77.0107 61.5326 78.0608C61.0247 78.9494 59.3198 79.251 57.1587 79.1049L56.3806 79.0484C55.3239 78.9692 54.7346 78.9115 54.1664 78.8237L54.089 78.8116C53.1748 78.6655 52.5716 78.4637 52.2335 78.1358C50.9857 76.9261 50.3243 74.2458 50.1979 70.0707C50.1923 69.884 50.339 69.7281 50.5257 69.7224C50.7124 69.7168 50.8683 69.8635 50.8739 70.0502L50.8818 70.289C51.0206 74.161 51.6441 76.6224 52.7043 77.6502L52.7297 77.6738C53.1203 78.0197 54.0886 78.1911 56.3347 78.3661L57.1326 78.4251L57.2715 78.4344C59.1368 78.551 60.6264 78.2833 60.9454 77.7252C61.4784 76.7927 61.8193 74.0136 61.9329 69.4711C61.9376 69.2844 62.0928 69.1368 62.2795 69.1415Z" fill="#333333"/>
<path fill-rule="evenodd" clip-rule="evenodd" d="M50.0066 56.5935C50.0713 56.4183 51.1508 56.6863 51.4374 56.8543C51.5427 56.9159 53.9497 58.0447 54.6429 58.479C55.5224 59.03 56.1408 61.4042 55.9322 64.0691C55.9014 64.4615 55.6649 64.8939 55.2362 65.3868C55.1136 65.5277 54.9 65.5425 54.7591 65.42C54.6182 65.2974 54.6033 65.0838 54.7259 64.9429C55.0682 64.5494 55.2409 64.2337 55.2579 64.0163L55.2685 63.8712C55.4304 61.5049 55.0127 59.29 54.4435 58.9333L54.3329 58.8651C53.7946 58.5391 53.4659 58.432 52.8076 58.3096C52.8076 58.3096 51.7809 57.482 51.3758 57.2507C50.4777 56.7378 49.9769 56.674 50.0066 56.5935Z" fill="#333333"/>
<path fill-rule="evenodd" clip-rule="evenodd" d="M59.0993 53.7989C59.2318 53.9305 56.4298 56.3343 56.2804 56.4692C55.822 56.8826 55.5379 57.8211 55.6543 59.0373L55.6609 59.1041C55.6847 59.3316 55.7649 60.2498 55.7682 60.3787L55.7771 60.5677C55.7812 60.6339 55.7873 60.7038 55.7997 60.824L55.8656 61.4302C55.976 62.4342 56.0052 63.1373 55.9323 64.069C55.9016 64.4614 55.665 64.8938 55.2363 65.3867C55.1137 65.5276 54.9001 65.5425 54.7592 65.4199C54.6183 65.2973 55.495 64.1072 55.512 63.8898C55.5783 63.0427 55.122 60.8455 55.122 60.8455C55.1026 60.653 55.1001 60.5906 55.0933 60.4304C55.0845 60.2249 55.1042 60.0637 55.1636 59.7712L55.2103 59.5458C55.2582 59.3065 55.2715 59.1855 55.2607 59.0592L55.2588 59.0392C55.1785 58.2703 55.2237 57.6475 55.3777 57.146C55.5162 56.695 55.7427 56.3421 56.0451 56.0694C56.1777 55.9498 56.3127 55.8554 56.4738 55.7609L56.6644 55.6523C56.688 55.6384 56.7033 55.6286 56.7128 55.6216L56.7406 55.6005C57.0049 55.3954 58.9668 53.6673 59.0993 53.7989Z" fill="#333333"/>
<path fill-rule="evenodd" clip-rule="evenodd" d="M62.2355 58.8877C62.2813 59.0687 57.7711 60.5787 57.1713 61.0927C56.3501 61.7965 55.9113 62.8188 56.0369 63.7318L56.0445 63.7824C56.1264 64.2898 55.9156 64.8215 55.1988 65.4239C55.0558 65.544 54.8425 65.5255 54.7223 65.3825C54.6022 65.2395 54.6207 65.0262 54.7637 64.9061C55.3138 64.4438 55.5443 64.0897 55.5121 63.8901C55.3232 62.7192 55.8593 61.4423 56.8665 60.5791C57.5964 59.9536 62.1898 58.7066 62.2355 58.8877Z" fill="#333333"/>
<path fill-rule="evenodd" clip-rule="evenodd" d="M48.4314 55.6807C49.9228 55.3478 51.217 55.3478 52.3119 55.6878C53.4865 56.0525 54.1 56.8798 54.1 58.1009C54.1 58.1662 54.0815 58.2273 54.0494 58.279L54.0343 58.301L54.0456 58.3181C54.0641 58.348 54.0781 58.3813 54.0866 58.4171L54.0911 58.4389C54.1225 58.623 53.9987 58.7977 53.8146 58.8291L53.6408 58.8582C51.8645 59.149 50.702 59.1452 50.0989 58.8121C49.4861 58.4736 48.8673 57.5914 48.1985 56.1534C48.1074 55.9576 48.2207 55.7278 48.4314 55.6807ZM52.1114 56.3339C51.2525 56.0672 50.2335 56.0362 49.0532 56.2457L48.9977 56.2557L49.0099 56.2801C49.5322 57.3276 50.0057 57.9723 50.4013 58.2061L50.4259 58.2202C50.8238 58.44 51.7716 58.4556 53.2252 58.2388L53.4403 58.2056L53.4349 58.1875C53.4295 58.1668 53.4259 58.1453 53.4245 58.1233L53.4238 58.101C53.4238 57.1771 53.0039 56.611 52.1114 56.3339Z" fill="#333333"/>
<path fill-rule="evenodd" clip-rule="evenodd" d="M60.1054 52.1561C60.2774 52.1591 60.4198 52.2907 60.4362 52.462C60.5553 53.7062 60.3996 54.6514 59.9468 55.2948C59.4584 55.9888 58.5144 56.2078 57.1586 56.0058C56.9813 55.9794 56.8568 55.8197 56.8714 55.6436L56.8728 55.6321L56.8557 55.6275C56.7801 55.6036 56.7128 55.5532 56.6689 55.4812L56.6575 55.461C56.1898 54.5614 56.408 53.7252 57.2669 53.0574C58.0446 52.4526 58.969 52.1517 60.0277 52.1553L60.1054 52.1561ZM59.7898 52.8892L59.7869 52.837L59.7856 52.8371C58.9773 52.8758 58.2792 53.1271 57.6821 53.5915C57.0724 54.0656 56.946 54.5498 57.2577 55.1492C57.2864 55.2044 57.2984 55.2639 57.2954 55.3219L57.2938 55.342L57.3207 55.346C58.3935 55.4964 59.0656 55.3416 59.3763 54.9298L59.3938 54.9057C59.6986 54.4726 59.8358 53.8011 59.7898 52.8892Z" fill="#333333"/>
<path d="M31.5845 67.8165C31.9862 67.83 32.1371 68.2798 31.9031 68.7319C31.7411 69.0449 31.3452 69.3738 30.9362 69.5674C30.7027 69.6778 30.4321 69.6923 30.1309 69.6164C30.0223 69.589 29.9564 69.4788 29.9837 69.3701C30.0111 69.2614 30.1214 69.1955 30.2301 69.2229C30.4453 69.2771 30.2779 68.9787 30.2655 68.8674C30.2532 68.756 30.3335 68.6557 30.4449 68.6434C30.649 68.6208 30.7557 68.5152 30.8592 68.4443C30.8883 68.4245 30.9262 68.3848 30.9794 68.3183L31.0397 68.2403L31.0605 68.2126C31.2893 67.9087 31.3789 67.8164 31.5636 67.8162L31.5845 67.8165Z" fill="white"/>
<path fill-rule="evenodd" clip-rule="evenodd" d="M31.5845 67.8165C31.9862 67.83 32.1371 68.2798 31.9031 68.7319C31.7411 69.0449 31.3452 69.3738 30.9362 69.5674C30.7027 69.6778 30.4321 69.6923 30.1309 69.6164C30.0223 69.589 29.9564 69.4788 29.9837 69.3701C30.0111 69.2614 30.1214 69.1955 30.2301 69.2229C30.4453 69.2771 30.6206 69.2678 30.7627 69.2005C31.0982 69.0418 31.4274 68.7683 31.5427 68.5454C31.6092 68.4169 31.6235 68.3164 31.6033 68.2563C31.599 68.2433 31.5943 68.2348 31.589 68.2296L31.5837 68.2255L31.5766 68.2309C31.5708 68.2355 31.5641 68.2413 31.5569 68.2481L31.5455 68.2591C31.5116 68.293 31.4807 68.3303 31.4206 68.4093L31.3395 68.5164C31.2401 68.6463 31.1709 68.7228 31.0884 68.7792C30.9237 68.8919 30.7549 69.0174 30.4895 69.0467C30.3781 69.059 30.2779 68.9787 30.2655 68.8674C30.2532 68.756 30.3335 68.6557 30.4449 68.6434C30.649 68.6208 30.7557 68.5152 30.8592 68.4443C30.8883 68.4245 30.9262 68.3848 30.9794 68.3183L31.0397 68.2403L31.0605 68.2126C31.2893 67.9087 31.3789 67.8164 31.5636 67.8162L31.5845 67.8165Z" fill="#333333"/>
<path fill-rule="evenodd" clip-rule="evenodd" d="M31.7298 68.7212C31.9764 68.7295 32.0669 68.9457 32.047 69.199C32.0322 69.3878 31.9559 69.59 31.8403 69.7189C31.6939 69.8821 31.4895 70.0223 31.2126 70.167L31.1563 70.1959C31.0563 70.2466 30.9872 70.2793 30.8044 70.3639C30.5802 70.4677 30.2814 70.5049 29.9056 70.4819C29.7938 70.4751 29.7086 70.3789 29.7155 70.267C29.7223 70.1552 29.8185 70.0701 29.9304 70.0769C30.2449 70.0961 30.4802 70.0668 30.634 69.9957L30.8246 69.9067C30.8802 69.8803 30.9225 69.8595 30.9727 69.834C31.2372 69.6999 31.4234 69.576 31.5382 69.448C31.5854 69.3954 31.6267 69.2919 31.6397 69.1938L31.6425 69.1673L31.6427 69.1618L31.6269 69.1712C31.5878 69.2098 31.0954 69.506 31.0422 69.5166C30.3494 69.6544 30.4757 69.5993 30.2104 69.6287C30.099 69.641 29.9987 69.5607 29.9864 69.4493C29.9741 69.3379 30.0544 69.2377 30.1657 69.2254C30.2391 69.2172 30.377 69.3481 30.5298 69.336C30.6604 69.3257 30.9838 69.1595 30.9838 69.1595L31.1232 69.0431C31.1577 69.0145 31.1876 68.9902 31.2163 68.9674L31.2848 68.9144C31.4613 68.7816 31.5918 68.7165 31.7298 68.7212Z" fill="#333333"/>
<path fill-rule="evenodd" clip-rule="evenodd" d="M31.0204 70.6968C31.2955 70.5966 31.5213 70.8428 31.6271 71.0781C31.7419 71.3334 31.601 71.5585 31.3344 71.7233C31.1537 71.835 30.9083 71.9201 30.7252 71.9408C30.467 71.9699 30.1601 71.8837 29.7978 71.6908C29.6989 71.6381 29.6614 71.5152 29.714 71.4163C29.7667 71.3174 29.8895 71.2799 29.9885 71.3326C30.285 71.4904 30.5177 71.5558 30.6797 71.5375C30.8032 71.5236 30.9913 71.4584 31.1211 71.3781C31.1856 71.3382 31.4615 71.0781 31.1593 71.0781C31.0452 71.0781 30.9151 71.0149 30.8992 70.9569C30.8833 70.8989 30.9151 70.7352 31.0204 70.6968Z" fill="#333333"/>
<path fill-rule="evenodd" clip-rule="evenodd" d="M24.7033 54.9602L24.9474 55.4733L25.4951 55.6246L25.0825 56.0153L25.1079 56.5829L24.6088 56.3113L24.0768 56.5108L24.1809 55.9522L23.8268 55.5079L24.3902 55.4343L24.7033 54.9602Z" fill="#333333"/>
<path fill-rule="evenodd" clip-rule="evenodd" d="M28.656 54.0127L28.8324 54.4047L29.2308 54.519L28.9294 54.8191L28.9464 55.2534L28.5837 55.0468L28.1958 55.2009L28.2731 54.7732L28.0164 54.4341L28.4268 54.3763L28.656 54.0127Z" fill="#333333"/>
<path fill-rule="evenodd" clip-rule="evenodd" d="M31.3614 62.1291L31.5378 62.5211L31.9361 62.6355L31.6347 62.9355L31.6517 63.3698L31.289 63.1633L30.9012 63.3173L30.9784 62.8896L30.7217 62.5505L31.1321 62.4928L31.3614 62.1291Z" fill="#333333"/>
<path fill-rule="evenodd" clip-rule="evenodd" d="M43.1294 59.4236L43.3058 59.8156L43.7042 59.9299L43.4028 60.23L43.4198 60.6642L43.0571 60.4577L42.6692 60.6118L42.7465 60.1841L42.4898 59.845L42.9002 59.7872L43.1294 59.4236Z" fill="#333333"/>
<path fill-rule="evenodd" clip-rule="evenodd" d="M25.6802 72.4092L25.8566 72.8011L26.255 72.9155L25.9536 73.2155L25.9706 73.6498L25.6079 73.4433L25.22 73.5973L25.2973 73.1696L25.0406 72.8306L25.451 72.7728L25.6802 72.4092Z" fill="#333333"/>
<path fill-rule="evenodd" clip-rule="evenodd" d="M25.5544 75.9264L25.77 76.4055L26.2569 76.5452L25.8885 76.912L25.9093 77.4428L25.466 77.1903L24.9919 77.3786L25.0864 76.8559L24.7726 76.4415L25.2742 76.3708L25.5544 75.9264Z" fill="#333333"/>
<path fill-rule="evenodd" clip-rule="evenodd" d="M29.6123 73.8974L29.8279 74.3764L30.3148 74.5162L29.9464 74.8829L29.9672 75.4137L29.5239 75.1613L29.0498 75.3495L29.1442 74.8268L28.8305 74.4124L29.3321 74.3418L29.6123 73.8974Z" fill="#333333"/>
<path fill-rule="evenodd" clip-rule="evenodd" d="M35.0229 72.2741L35.2385 72.7531L35.7254 72.8929L35.357 73.2596L35.3778 73.7904L34.9345 73.538L34.4604 73.7263L34.5549 73.2035L34.2411 72.7891L34.7427 72.7185L35.0229 72.2741Z" fill="#333333"/>
<path fill-rule="evenodd" clip-rule="evenodd" d="M27.0029 60.9118L27.247 61.4249L27.7946 61.5762L27.3821 61.9669L27.4075 62.5345L26.9084 62.2629L26.3764 62.4624L26.4805 61.9039L26.1263 61.4596L26.6897 61.386L27.0029 60.9118Z" fill="#333333"/>
<path fill-rule="evenodd" clip-rule="evenodd" d="M27.6791 57.1247L27.9232 57.6378L28.4709 57.7891L28.0584 58.1798L28.0837 58.7474L27.5847 58.4758L27.0526 58.6753L27.1567 58.1168L26.8026 57.6725L27.366 57.5989L27.6791 57.1247Z" fill="#333333"/>
<path fill-rule="evenodd" clip-rule="evenodd" d="M33.766 59.4241L34.0101 59.9371L34.5578 60.0884L34.1453 60.4791L34.1706 61.0467L33.6716 60.7751L33.1396 60.9746L33.2437 60.4161L32.8895 59.9718L33.4529 59.8982L33.766 59.4241Z" fill="#333333"/>
<path fill-rule="evenodd" clip-rule="evenodd" d="M37.2831 57.6658L37.5272 58.1788L38.0749 58.3301L37.6624 58.7208L37.6877 59.2885L37.1887 59.0168L36.6566 59.2164L36.7608 58.6578L36.4066 58.2135L36.97 58.1399L37.2831 57.6658Z" fill="#333333"/>
<path fill-rule="evenodd" clip-rule="evenodd" d="M36.2009 63.0764L36.445 63.5895L36.9926 63.7408L36.5801 64.1315L36.6055 64.6991L36.1064 64.4275L35.5744 64.627L35.6785 64.0684L35.3243 63.6241L35.8877 63.5505L36.2009 63.0764Z" fill="#333333"/>
<path fill-rule="evenodd" clip-rule="evenodd" d="M27.2731 64.8347L27.5172 65.3478L28.0649 65.4991L27.6524 65.8898L27.6777 66.4574L27.1786 66.1858L26.6466 66.3853L26.7507 65.8267L26.3966 65.3824L26.96 65.3088L27.2731 64.8347Z" fill="#333333"/>
<path fill-rule="evenodd" clip-rule="evenodd" d="M23.7912 58.8825L24.0098 59.3196L24.4973 59.4498L24.1314 59.781L24.1555 60.2639L23.7109 60.0315L23.2382 60.1998L23.3293 59.7249L23.013 59.346L23.514 59.2849L23.7912 58.8825Z" fill="#333333"/>
<path fill-rule="evenodd" clip-rule="evenodd" d="M21.3564 61.7233L21.5749 62.1604L22.0625 62.2906L21.6966 62.6218L21.7207 63.1047L21.2761 62.8723L20.8034 63.0406L20.8945 62.5657L20.5782 62.1868L21.0792 62.1257L21.3564 61.7233Z" fill="#333333"/>
<path fill-rule="evenodd" clip-rule="evenodd" d="M39.0966 54.6312C39.1032 54.8178 38.9451 54.9741 38.7584 54.9694C37.8254 54.9457 37.6771 53.3415 37.7666 53.335C37.8905 53.3261 38.1021 54.0881 38.5187 54.3657C38.8363 54.5773 39.0784 54.117 39.0966 54.6312Z" fill="#333333"/>
<path fill-rule="evenodd" clip-rule="evenodd" d="M59.567 57.9552C61.7666 57.2215 63.6593 57.1942 65.2343 57.8882C65.5244 58.016 65.495 58.437 65.1898 58.5231L65.0737 58.5567C64.6208 58.6907 64.3048 58.8227 64.1346 58.9426L64.1004 58.9679L64.0866 58.9786C63.9582 59.0788 63.8211 59.2097 63.641 59.4006L63.0967 59.9911C63.0713 60.0183 63.0493 60.0418 63.0321 60.0599C62.3005 60.8285 61.665 61.2777 60.8443 61.4737C59.7206 61.7421 58.5281 61.6117 57.2748 61.0895C57.1743 61.0476 57.1046 60.9628 57.0783 60.8651L57.0777 60.8625L57.0599 60.8547C56.9388 60.7961 56.8608 60.6684 56.8699 60.5288L56.872 60.5066C57.0232 59.3453 57.9436 58.4967 59.567 57.9552ZM63.9932 58.1932C62.786 57.93 61.3837 58.0621 59.781 58.5967C58.4694 59.0342 57.7511 59.6466 57.572 60.4294L57.5619 60.4762L57.6134 60.4973C58.6844 60.9292 59.6838 61.0386 60.6189 60.8315L60.6872 60.8158C61.3347 60.6611 61.8607 60.2982 62.4851 59.6529L62.5713 59.5626C62.7183 59.406 63.0648 59.0264 63.1074 58.9807C63.3293 58.7431 63.4989 58.5793 63.6703 58.4454L63.7075 58.4169C63.7944 58.3516 63.8999 58.2884 64.0246 58.2268L64.062 58.2086L63.9932 58.1932Z" fill="#333333"/>
<path fill-rule="evenodd" clip-rule="evenodd" d="M64.5277 17.3942C64.6808 17.2873 64.8916 17.3247 64.9985 17.4779C65.1054 17.631 64.9325 17.8513 64.7794 17.9582C64.2693 18.3143 63.0404 19.4776 62.7888 19.744L62.547 20.0016C62.0722 20.5129 56.4162 26.3944 56.2804 26.2663C56.1558 26.1487 61.6745 20.0802 62.0886 19.6367L62.1042 19.62C62.4954 19.2025 62.8568 18.8262 63.2026 18.4777C63.545 18.1326 63.9865 17.772 64.5277 17.3942Z" fill="#333333"/>
</svg>
