<svg width="24" height="24" viewBox="0 0 24 24" fill="none" xmlns="http://www.w3.org/2000/svg">
<path d="M20.8945 11.5781V11.7891C20.8945 11.8594 20.8984 11.9297 20.9062 12V12.2109C20.9062 12.2812 20.9023 12.3516 20.8945 12.4219L23.9297 14.3086L22.0664 18.7969L18.5859 18C18.3984 18.2031 18.2031 18.3984 18 18.5859L18.7969 22.0664L14.3086 23.9297L12.4219 20.8945H12.2109C12.1406 20.8945 12.0703 20.8984 12 20.9062H11.7891C11.7188 20.9062 11.6484 20.9023 11.5781 20.8945L9.69141 23.9297L5.20312 22.0664L6 18.5859C5.79687 18.3984 5.60156 18.2031 5.41406 18L1.93359 18.7969L0.0703125 14.3086L3.10547 12.4219V12.2109C3.10547 12.1406 3.10156 12.0703 3.09375 12V11.7891C3.09375 11.7188 3.09766 11.6484 3.10547 11.5781L0.0703125 9.69141L1.93359 5.20312L5.41406 6C5.60156 5.79687 5.79687 5.60156 6 5.41406L5.20312 1.93359L9.69141 0.0703125L11.5781 3.10547H11.7891C11.8594 3.10547 11.9297 3.10156 12 3.09375H12.2109C12.2812 3.09375 12.3516 3.09766 12.4219 3.10547L14.3086 0.0703125L18.7969 1.93359L18 5.41406C18.2031 5.60156 18.3984 5.79687 18.5859 6L22.0664 5.20312L23.9297 9.69141L20.8945 11.5781ZM19.5234 13.1016C19.5391 12.9141 19.5547 12.7305 19.5703 12.5508C19.5859 12.3711 19.5938 12.1836 19.5938 11.9883C19.5938 11.8086 19.5859 11.625 19.5703 11.4375C19.5547 11.25 19.5391 11.0664 19.5234 10.8867L22.2891 9.16406L21.2812 6.72656L18.1055 7.46484C17.8633 7.16797 17.6172 6.89453 17.3672 6.64453C17.1172 6.39453 16.8398 6.14453 16.5352 5.89453L17.2734 2.71875L14.8359 1.71094L13.1016 4.47656C12.9219 4.46094 12.7383 4.44531 12.5508 4.42969C12.3633 4.41406 12.1797 4.40625 12 4.40625C11.8125 4.40625 11.6289 4.41406 11.4492 4.42969C11.2695 4.44531 11.082 4.46094 10.8867 4.47656L9.16406 1.71094L6.72656 2.71875L7.46484 5.89453C7.16797 6.13672 6.89453 6.38281 6.64453 6.63281C6.39453 6.88281 6.14453 7.16016 5.89453 7.46484L2.71875 6.72656L1.71094 9.16406L4.47656 10.8984C4.46094 11.0859 4.44531 11.2695 4.42969 11.4492C4.41406 11.6289 4.40625 11.8164 4.40625 12.0117C4.40625 12.1914 4.41406 12.375 4.42969 12.5625C4.44531 12.75 4.46094 12.9336 4.47656 13.1133L1.71094 14.8359L2.71875 17.2734L5.89453 16.5352C6.13672 16.832 6.38281 17.1055 6.63281 17.3555C6.88281 17.6055 7.16016 17.8555 7.46484 18.1055L6.72656 21.2812L9.16406 22.2891L10.8984 19.5234C11.0781 19.5391 11.2617 19.5547 11.4492 19.5703C11.6367 19.5859 11.8203 19.5938 12 19.5938C12.1875 19.5938 12.3711 19.5859 12.5508 19.5703C12.7305 19.5547 12.918 19.5391 13.1133 19.5234L14.8359 22.2891L17.2734 21.2812L16.5352 18.1055C16.832 17.8633 17.1055 17.6172 17.3555 17.3672C17.6055 17.1172 17.8555 16.8398 18.1055 16.5352L21.2812 17.2734L22.2891 14.8359L19.5234 13.1016ZM12 7.59375C12.6094 7.59375 13.1797 7.70703 13.7109 7.93359C14.2422 8.16016 14.7109 8.47656 15.1172 8.88281C15.5234 9.28906 15.8359 9.75391 16.0547 10.2773C16.2734 10.8008 16.3906 11.375 16.4062 12C16.4062 12.6094 16.293 13.1797 16.0664 13.7109C15.8398 14.2422 15.5234 14.7109 15.1172 15.1172C14.7109 15.5234 14.2461 15.8359 13.7227 16.0547C13.1992 16.2734 12.625 16.3906 12 16.4062C11.3906 16.4062 10.8203 16.293 10.2891 16.0664C9.75781 15.8398 9.28906 15.5234 8.88281 15.1172C8.47656 14.7109 8.16406 14.2461 7.94531 13.7227C7.72656 13.1992 7.60938 12.625 7.59375 12C7.59375 11.3906 7.70703 10.8203 7.93359 10.2891C8.16016 9.75781 8.47656 9.28906 8.88281 8.88281C9.28906 8.47656 9.75391 8.16406 10.2773 7.94531C10.8008 7.72656 11.375 7.60938 12 7.59375ZM12 15.0938C12.4297 15.0938 12.832 15.0156 13.207 14.8594C13.582 14.7031 13.9102 14.4805 14.1914 14.1914C14.4727 13.9023 14.6914 13.5742 14.8477 13.207C15.0039 12.8398 15.0859 12.4375 15.0938 12C15.0938 11.5703 15.0156 11.168 14.8594 10.793C14.7031 10.418 14.4805 10.0898 14.1914 9.80859C13.9023 9.52734 13.5742 9.30859 13.207 9.15234C12.8398 8.99609 12.4375 8.91406 12 8.90625C11.5703 8.90625 11.168 8.98438 10.793 9.14062C10.418 9.29687 10.0898 9.51953 9.80859 9.80859C9.52734 10.0977 9.30859 10.4258 9.15234 10.793C8.99609 11.1602 8.91406 11.5625 8.90625 12C8.90625 12.4297 8.98438 12.832 9.14062 13.207C9.29687 13.582 9.51953 13.9102 9.80859 14.1914C10.0977 14.4727 10.4258 14.6914 10.793 14.8477C11.1602 15.0039 11.5625 15.0859 12 15.0938Z" fill="#2F80ED"/>
</svg>
