<svg width="22" height="24" viewBox="0 0 22 24" fill="none" xmlns="http://www.w3.org/2000/svg">
<path d="M16.1333 17.6074H15.9844C15.8087 16.7515 15.4993 15.9643 15.0563 15.246C14.6132 14.5276 14.0747 13.9086 13.4406 13.3889C12.8066 12.8693 12.0924 12.4643 11.2979 12.1739C10.5035 11.8835 9.67083 11.7383 8.8 11.7383C8.12778 11.7383 7.47847 11.8261 6.85208 12.0019C6.22569 12.1777 5.64132 12.4222 5.09896 12.7355C4.5566 13.0489 4.06389 13.431 3.62083 13.8819C3.17778 14.3327 2.79583 14.8295 2.475 15.3721C2.15417 15.9147 1.9059 16.4993 1.73021 17.1259C1.55451 17.7526 1.46667 18.4022 1.46667 19.0747H0C0 18.1576 0.133681 17.275 0.401042 16.4267C0.668403 15.5784 1.05417 14.7951 1.55833 14.0767C2.0625 13.3584 2.65833 12.7203 3.34583 12.1624C4.03333 11.6045 4.8125 11.1651 5.68333 10.8441C4.82014 10.2786 4.14792 9.5679 3.66667 8.71199C3.18542 7.85607 2.94097 6.90845 2.93333 5.86913C2.93333 5.05907 3.08611 4.29868 3.39167 3.58796C3.69722 2.87725 4.11354 2.25442 4.64062 1.71947C5.16771 1.18452 5.79028 0.764209 6.50833 0.458526C7.22639 0.152842 7.99028 0 8.8 0C9.60972 0 10.3698 0.152842 11.0802 0.458526C11.7906 0.764209 12.4132 1.1807 12.9479 1.70801C13.4826 2.23531 13.9028 2.85814 14.2083 3.5765C14.5139 4.29486 14.6667 5.05907 14.6667 5.86913C14.6667 6.37351 14.6056 6.86642 14.4833 7.34787C14.3611 7.82932 14.1778 8.28403 13.9333 8.71199C13.6889 9.13994 13.4024 9.53351 13.074 9.89269C12.7455 10.2519 12.3597 10.569 11.9167 10.8441C12.7722 11.1727 13.559 11.6236 14.2771 12.1968C14.9951 12.7699 15.6139 13.4424 16.1333 14.2143V17.6074ZM4.4 5.86913C4.4 6.48049 4.51458 7.04983 4.74375 7.57714C4.97292 8.10444 5.28611 8.57061 5.68333 8.97564C6.08056 9.38067 6.54653 9.69782 7.08125 9.92708C7.61597 10.1563 8.18889 10.271 8.8 10.271C9.40347 10.271 9.97257 10.1563 10.5073 9.92708C11.042 9.69782 11.508 9.38449 11.9052 8.9871C12.3024 8.58971 12.6194 8.12355 12.8562 7.5886C13.0931 7.05365 13.2076 6.48049 13.2 5.86913C13.2 5.2654 13.0854 4.69607 12.8562 4.16112C12.6271 3.62617 12.3139 3.16001 11.9167 2.76262C11.5194 2.36523 11.0497 2.04808 10.5073 1.81118C9.96493 1.57427 9.39583 1.45964 8.8 1.46728C8.18889 1.46728 7.61979 1.58191 7.09271 1.81118C6.56563 2.04044 6.09965 2.35376 5.69479 2.75115C5.28993 3.14854 4.97292 3.61853 4.74375 4.16112C4.51458 4.70371 4.4 5.27304 4.4 5.86913ZM19.0667 19.0747H22V20.5419H19.0667V23.4765H17.6V20.5419H14.6667V19.0747H17.6V16.1401H19.0667V19.0747Z" fill="#2F80ED"/>
</svg>
