<svg width="20" height="20" viewBox="0 0 20 20" fill="none" xmlns="http://www.w3.org/2000/svg">
<path d="M2.5 3.75H3.75V5H2.5V3.75ZM2.5 6.25H3.75V7.5H2.5V6.25ZM11.25 3.75H12.5V5H11.25V3.75ZM18.3887 12.5H15.3613L16.875 10.9961L18.3887 12.5ZM13.75 9.375C13.75 9.20573 13.8118 9.05925 13.9355 8.93555C14.0592 8.81185 14.2057 8.75 14.375 8.75C14.5443 8.75 14.6908 8.81185 14.8145 8.93555C14.9382 9.05925 15 9.20573 15 9.375C15 9.54427 14.9382 9.69075 14.8145 9.81445C14.6908 9.93815 14.5443 10 14.375 10C14.2057 10 14.0592 9.93815 13.9355 9.81445C13.8118 9.69075 13.75 9.54427 13.75 9.375ZM20 6.25V15H18.75V7.5H6.25V12.8613L9.375 9.74609L13.75 14.1113L15 12.8613V14.6387L14.6387 15H12.8613L9.375 11.5039L6.25 14.6387V16.25H12.5V17.5H5V11.25H0V0H15V6.25H20ZM13.75 6.25V1.25H12.5V2.5H11.25V1.25H3.75V2.5H2.5V1.25H1.25V10H2.5V8.75H3.75V10H5V6.25H13.75ZM17.5 16.25H20V17.5H17.5V20H16.25V17.5H13.75V16.25H16.25V13.75H17.5V16.25Z" fill="#2F80ED"/>
</svg>
