<svg width="23" height="24" viewBox="0 0 23 24" fill="none" xmlns="http://www.w3.org/2000/svg">
<path d="M12.6875 11.0859C12.9844 11.2031 13.2734 11.332 13.5547 11.4727C13.8359 11.6133 14.1094 11.7734 14.375 11.9531C14.2031 12.1406 14.0469 12.3359 13.9062 12.5391C13.7656 12.7422 13.6367 12.9609 13.5195 13.1953C12.918 12.8047 12.2773 12.5078 11.5977 12.3047C10.918 12.1016 10.2187 12 9.5 12C8.8125 12 8.14844 12.0898 7.50781 12.2695C6.86719 12.4492 6.26953 12.6992 5.71484 13.0195C5.16016 13.3398 4.65625 13.7305 4.20312 14.1914C3.75 14.6523 3.35938 15.1602 3.03125 15.7148C2.70312 16.2695 2.44922 16.8672 2.26953 17.5078C2.08984 18.1484 2 18.8125 2 19.5H0.5C0.5 18.5625 0.636719 17.6602 0.910156 16.793C1.18359 15.9258 1.57812 15.125 2.09375 14.3906C2.60938 13.6562 3.21875 13.0039 3.92188 12.4336C4.625 11.8633 5.42188 11.4141 6.3125 11.0859C5.42969 10.5078 4.74219 9.78125 4.25 8.90625C3.75781 8.03125 3.50781 7.0625 3.5 6C3.5 5.17188 3.65625 4.39453 3.96875 3.66797C4.28125 2.94141 4.70703 2.30469 5.24609 1.75781C5.78516 1.21094 6.42187 0.78125 7.15625 0.46875C7.89063 0.15625 8.67188 0 9.5 0C10.3281 0 11.1055 0.15625 11.832 0.46875C12.5586 0.78125 13.1953 1.20703 13.7422 1.74609C14.2891 2.28516 14.7188 2.92187 15.0312 3.65625C15.3437 4.39063 15.5 5.17188 15.5 6C15.5 6.51562 15.4375 7.01953 15.3125 7.51172C15.1875 8.00391 15 8.46875 14.75 8.90625C14.5 9.34375 14.207 9.74609 13.8711 10.1133C13.5352 10.4805 13.1406 10.8047 12.6875 11.0859ZM5 6C5 6.625 5.11719 7.20703 5.35156 7.74609C5.58594 8.28516 5.90625 8.76172 6.3125 9.17578C6.71875 9.58984 7.19531 9.91406 7.74219 10.1484C8.28906 10.3828 8.875 10.5 9.5 10.5C10.1172 10.5 10.6992 10.3828 11.2461 10.1484C11.793 9.91406 12.2695 9.59375 12.6758 9.1875C13.082 8.78125 13.4063 8.30469 13.6484 7.75781C13.8906 7.21094 14.0078 6.625 14 6C14 5.38281 13.8828 4.80078 13.6484 4.25391C13.4141 3.70703 13.0938 3.23047 12.6875 2.82422C12.2812 2.41797 11.8008 2.09375 11.2461 1.85156C10.6914 1.60938 10.1094 1.49219 9.5 1.5C8.875 1.5 8.29297 1.61719 7.75391 1.85156C7.21484 2.08594 6.73828 2.40625 6.32422 2.8125C5.91016 3.21875 5.58594 3.69922 5.35156 4.25391C5.11719 4.80859 5 5.39062 5 6ZM22.25 15.75C22.25 16.1563 22.1875 16.5508 22.0625 16.9336C21.9375 17.3164 21.75 17.6719 21.5 18V24L18.5 22.5L15.5 24V18C15.2578 17.6719 15.0742 17.3164 14.9492 16.9336C14.8242 16.5508 14.7578 16.1563 14.75 15.75C14.75 15.2344 14.8477 14.75 15.043 14.2969C15.2383 13.8437 15.5039 13.4492 15.8398 13.1133C16.1758 12.7773 16.5742 12.5078 17.0352 12.3047C17.4961 12.1016 17.9844 12 18.5 12C19.0156 12 19.5 12.0977 19.9531 12.293C20.4063 12.4883 20.8008 12.7578 21.1367 13.1016C21.4727 13.4453 21.7422 13.8437 21.9453 14.2969C22.1484 14.75 22.25 15.2344 22.25 15.75ZM18.5 13.5C18.1875 13.5 17.8945 13.5586 17.6211 13.6758C17.3477 13.793 17.1094 13.9531 16.9062 14.1562C16.7031 14.3594 16.543 14.5977 16.4258 14.8711C16.3086 15.1445 16.25 15.4375 16.25 15.75C16.25 16.0625 16.3086 16.3555 16.4258 16.6289C16.543 16.9023 16.7031 17.1406 16.9062 17.3438C17.1094 17.5469 17.3477 17.707 17.6211 17.8242C17.8945 17.9414 18.1875 18 18.5 18C18.8125 18 19.1055 17.9414 19.3789 17.8242C19.6523 17.707 19.8906 17.5469 20.0938 17.3438C20.2969 17.1406 20.457 16.9023 20.5742 16.6289C20.6914 16.3555 20.75 16.0625 20.75 15.75C20.75 15.4375 20.6914 15.1445 20.5742 14.8711C20.457 14.5977 20.2969 14.3594 20.0938 14.1562C19.8906 13.9531 19.6523 13.793 19.3789 13.6758C19.1055 13.5586 18.8125 13.5 18.5 13.5ZM20 21.5742V19.1836C19.5312 19.3945 19.0312 19.5 18.5 19.5C17.9688 19.5 17.4688 19.3945 17 19.1836V21.5742C17.25 21.4492 17.5 21.3281 17.75 21.2109C18 21.0938 18.25 20.9648 18.5 20.8242C18.75 20.957 19 21.082 19.25 21.1992C19.5 21.3164 19.75 21.4414 20 21.5742Z" fill="#219653"/>
</svg>
