<svg width="20" height="20" viewBox="0 0 20 20" fill="none" xmlns="http://www.w3.org/2000/svg">
<path d="M10 0C10.5729 0 11.1263 0.0748698 11.6602 0.224609C12.194 0.374349 12.6921 0.582682 13.1543 0.849609C13.6165 1.11654 14.0365 1.44206 14.4141 1.82617C14.7917 2.21029 15.1172 2.63346 15.3906 3.0957C15.6641 3.55794 15.8757 4.05599 16.0254 4.58984C16.1751 5.1237 16.25 5.67708 16.25 6.25C16.25 6.69922 16.1979 7.12565 16.0938 7.5293C15.9896 7.93294 15.8333 8.33984 15.625 8.75L10 20L4.375 8.75C4.17318 8.34635 4.02018 7.94271 3.91602 7.53906C3.81185 7.13542 3.75651 6.70573 3.75 6.25C3.75 5.67708 3.82487 5.1237 3.97461 4.58984C4.12435 4.05599 4.33268 3.55794 4.59961 3.0957C4.86654 2.63346 5.19206 2.21354 5.57617 1.83594C5.96029 1.45833 6.38346 1.13281 6.8457 0.859375C7.30794 0.585938 7.80599 0.374349 8.33984 0.224609C8.8737 0.0748698 9.42708 0 10 0ZM14.6484 8.26172V8.25195L14.6582 8.24219C14.821 7.9362 14.9447 7.61393 15.0293 7.27539C15.1139 6.93685 15.1562 6.59505 15.1562 6.25C15.1562 5.54036 15.0228 4.87305 14.7559 4.24805C14.4889 3.62305 14.1178 3.07617 13.6426 2.60742C13.1673 2.13867 12.6204 1.77083 12.002 1.50391C11.3835 1.23698 10.7161 1.10026 10 1.09375C9.29036 1.09375 8.62305 1.22721 7.99805 1.49414C7.37305 1.76107 6.82617 2.13216 6.35742 2.60742C5.88867 3.08268 5.52083 3.62956 5.25391 4.24805C4.98698 4.86654 4.85026 5.53385 4.84375 6.25C4.84375 6.59505 4.88607 6.93685 4.9707 7.27539C5.05534 7.61393 5.17904 7.9362 5.3418 8.24219V8.25195L5.35156 8.26172L10 17.5586L14.6484 8.26172ZM10 2.57812C10.5078 2.57812 10.9831 2.67253 11.4258 2.86133C11.8685 3.05013 12.2591 3.3138 12.5977 3.65234C12.9362 3.99089 13.1966 4.37826 13.3789 4.81445C13.5612 5.25065 13.6589 5.72917 13.6719 6.25C13.6719 6.75781 13.5775 7.23307 13.3887 7.67578C13.1999 8.11849 12.9362 8.50911 12.5977 8.84766C12.2591 9.1862 11.8717 9.44661 11.4355 9.62891C10.9993 9.8112 10.5208 9.90885 10 9.92188C9.49219 9.92188 9.01693 9.82747 8.57422 9.63867C8.13151 9.44987 7.74089 9.1862 7.40234 8.84766C7.0638 8.50911 6.80339 8.12175 6.62109 7.68555C6.4388 7.24935 6.34115 6.77083 6.32812 6.25C6.32812 5.74219 6.42253 5.26693 6.61133 4.82422C6.80013 4.38151 7.0638 3.99089 7.40234 3.65234C7.74089 3.3138 8.12826 3.05339 8.56445 2.87109C9.00065 2.6888 9.47917 2.59115 10 2.57812ZM10 8.82812C10.3581 8.82812 10.6934 8.76302 11.0059 8.63281C11.3184 8.5026 11.5918 8.31706 11.8262 8.07617C12.0605 7.83529 12.2428 7.56185 12.373 7.25586C12.5033 6.94987 12.5716 6.61458 12.5781 6.25C12.5781 5.89193 12.513 5.55664 12.3828 5.24414C12.2526 4.93164 12.0671 4.6582 11.8262 4.42383C11.5853 4.18945 11.3118 4.00716 11.0059 3.87695C10.6999 3.74674 10.3646 3.67839 10 3.67188C9.64193 3.67188 9.30664 3.73698 8.99414 3.86719C8.68164 3.9974 8.4082 4.18294 8.17383 4.42383C7.93945 4.66471 7.75716 4.93815 7.62695 5.24414C7.49674 5.55013 7.42839 5.88542 7.42188 6.25C7.42188 6.60807 7.48698 6.94336 7.61719 7.25586C7.7474 7.56836 7.93294 7.8418 8.17383 8.07617C8.41471 8.31055 8.68815 8.49284 8.99414 8.62305C9.30013 8.75325 9.63542 8.82161 10 8.82812Z" fill="#2F80ED"/>
</svg>
