<svg width="20" height="20" viewBox="0 0 20 20" fill="none" xmlns="http://www.w3.org/2000/svg">
<path d="M7.5 10C6.92708 10 6.3737 10.0749 5.83984 10.2246C5.30599 10.3743 4.80794 10.5827 4.3457 10.8496C3.88346 11.1165 3.46354 11.4421 3.08594 11.8262C2.70833 12.2103 2.38281 12.6335 2.10938 13.0957C1.83594 13.5579 1.62435 14.056 1.47461 14.5898C1.32487 15.1237 1.25 15.6771 1.25 16.25H0C0 15.4883 0.113932 14.7428 0.341797 14.0137C0.569661 13.2845 0.898438 12.6107 1.32812 11.9922C1.75781 11.3737 2.26888 10.8236 2.86133 10.3418C3.45378 9.86003 4.11458 9.49219 4.84375 9.23828C4.47917 9.00391 4.15365 8.73372 3.86719 8.42773C3.58073 8.12175 3.33333 7.78646 3.125 7.42188C2.91667 7.05729 2.76367 6.67318 2.66602 6.26953C2.56836 5.86589 2.51302 5.44271 2.5 5C2.5 4.3099 2.63021 3.66211 2.89062 3.05664C3.15104 2.45117 3.50586 1.92057 3.95508 1.46484C4.4043 1.00911 4.9349 0.651042 5.54688 0.390625C6.15885 0.130208 6.8099 0 7.5 0C8.1901 0 8.83789 0.130208 9.44336 0.390625C10.0488 0.651042 10.5794 1.00586 11.0352 1.45508C11.4909 1.9043 11.849 2.4349 12.1094 3.04688C12.3698 3.65885 12.5 4.3099 12.5 5C12.5 5.4362 12.4479 5.85612 12.3438 6.25977C12.2396 6.66341 12.0833 7.05078 11.875 7.42188C11.6667 7.79297 11.4225 8.12825 11.1426 8.42773C10.8626 8.72721 10.5339 8.9974 10.1562 9.23828C10.6055 9.40755 11.0352 9.61589 11.4453 9.86328C11.8555 10.1107 12.2363 10.4004 12.5879 10.7324L11.7383 11.6602C11.1589 11.1263 10.5046 10.7161 9.77539 10.4297C9.04622 10.1432 8.28776 10 7.5 10ZM3.75 5C3.75 5.52083 3.84766 6.00586 4.04297 6.45508C4.23828 6.9043 4.50521 7.30143 4.84375 7.64648C5.18229 7.99154 5.57943 8.26172 6.03516 8.45703C6.49089 8.65234 6.97917 8.75 7.5 8.75C8.01432 8.75 8.49935 8.65234 8.95508 8.45703C9.41081 8.26172 9.80794 7.99479 10.1465 7.65625C10.485 7.31771 10.7552 6.92057 10.957 6.46484C11.1589 6.00911 11.2565 5.52083 11.25 5C11.25 4.48568 11.1523 4.00065 10.957 3.54492C10.7617 3.08919 10.4948 2.69206 10.1562 2.35352C9.81771 2.01497 9.41732 1.74479 8.95508 1.54297C8.49284 1.34115 8.00781 1.24349 7.5 1.25C6.97917 1.25 6.49414 1.34766 6.04492 1.54297C5.5957 1.73828 5.19857 2.00521 4.85352 2.34375C4.50846 2.68229 4.23828 3.08268 4.04297 3.54492C3.84766 4.00716 3.75 4.49219 3.75 5ZM18.6914 15.0293C18.7305 15.2246 18.75 15.4232 18.75 15.625C18.75 15.8268 18.7305 16.0254 18.6914 16.2207L19.9023 16.7188L19.4238 17.8809L18.2129 17.373C17.985 17.7051 17.7051 17.985 17.373 18.2129L17.8809 19.4238L16.7188 19.9023L16.2207 18.6914C16.0254 18.7305 15.8268 18.75 15.625 18.75C15.4232 18.75 15.2246 18.7305 15.0293 18.6914L14.5312 19.9023L13.3691 19.4238L13.877 18.2129C13.5449 17.985 13.265 17.7051 13.0371 17.373L11.8262 17.8809L11.3477 16.7188L12.5586 16.2207C12.5195 16.0254 12.5 15.8268 12.5 15.625C12.5 15.4232 12.5195 15.2246 12.5586 15.0293L11.3477 14.5312L11.8262 13.3691L13.0371 13.877C13.265 13.5449 13.5449 13.265 13.877 13.0371L13.3691 11.8262L14.5312 11.3477L15.0293 12.5586C15.2246 12.5195 15.4232 12.5 15.625 12.5C15.8268 12.5 16.0254 12.5195 16.2207 12.5586L16.7188 11.3477L17.8809 11.8262L17.373 13.0371C17.7051 13.265 17.985 13.5449 18.2129 13.877L19.4238 13.3691L19.9023 14.5312L18.6914 15.0293ZM15.625 17.5C15.8854 17.5 16.1296 17.4512 16.3574 17.3535C16.5853 17.2559 16.7839 17.1224 16.9531 16.9531C17.1224 16.7839 17.2559 16.5853 17.3535 16.3574C17.4512 16.1296 17.5 15.8854 17.5 15.625C17.5 15.3646 17.4512 15.1204 17.3535 14.8926C17.2559 14.6647 17.1224 14.4661 16.9531 14.2969C16.7839 14.1276 16.5853 13.9941 16.3574 13.8965C16.1296 13.7988 15.8854 13.75 15.625 13.75C15.3646 13.75 15.1204 13.7988 14.8926 13.8965C14.6647 13.9941 14.4661 14.1276 14.2969 14.2969C14.1276 14.4661 13.9941 14.6647 13.8965 14.8926C13.7988 15.1204 13.75 15.3646 13.75 15.625C13.75 15.8854 13.7988 16.1296 13.8965 16.3574C13.9941 16.5853 14.1276 16.7839 14.2969 16.9531C14.4661 17.1224 14.6647 17.2559 14.8926 17.3535C15.1204 17.4512 15.3646 17.5 15.625 17.5Z" fill="#2F80ED"/>
</svg>
