<svg width="24" height="24" viewBox="0 0 24 24" fill="none" xmlns="http://www.w3.org/2000/svg">
<path d="M9 12C8.3125 12 7.64844 12.0898 7.00781 12.2695C6.36719 12.4492 5.76953 12.6992 5.21484 13.0195C4.66016 13.3398 4.15625 13.7305 3.70312 14.1914C3.25 14.6523 2.85938 15.1602 2.53125 15.7148C2.20312 16.2695 1.94922 16.8672 1.76953 17.5078C1.58984 18.1484 1.5 18.8125 1.5 19.5H0C0 18.5859 0.136719 17.6914 0.410156 16.8164C0.683594 15.9414 1.07812 15.1328 1.59375 14.3906C2.10938 13.6484 2.72266 12.9883 3.43359 12.4102C4.14453 11.832 4.9375 11.3906 5.8125 11.0859C5.375 10.8047 4.98438 10.4805 4.64062 10.1133C4.29687 9.74609 4 9.34375 3.75 8.90625C3.5 8.46875 3.31641 8.00781 3.19922 7.52344C3.08203 7.03906 3.01563 6.53125 3 6C3 5.17188 3.15625 4.39453 3.46875 3.66797C3.78125 2.94141 4.20703 2.30469 4.74609 1.75781C5.28516 1.21094 5.92187 0.78125 6.65625 0.46875C7.39063 0.15625 8.17188 0 9 0C9.82812 0 10.6055 0.15625 11.332 0.46875C12.0586 0.78125 12.6953 1.20703 13.2422 1.74609C13.7891 2.28516 14.2188 2.92187 14.5312 3.65625C14.8437 4.39063 15 5.17188 15 6C15 6.52344 14.9375 7.02734 14.8125 7.51172C14.6875 7.99609 14.5 8.46094 14.25 8.90625C14 9.35156 13.707 9.75391 13.3711 10.1133C13.0352 10.4727 12.6406 10.7969 12.1875 11.0859C12.7266 11.2891 13.2422 11.5391 13.7344 11.8359C14.2266 12.1328 14.6836 12.4805 15.1055 12.8789L14.0859 13.9922C13.3906 13.3516 12.6055 12.8594 11.7305 12.5156C10.8555 12.1719 9.94531 12 9 12ZM4.5 6C4.5 6.625 4.61719 7.20703 4.85156 7.74609C5.08594 8.28516 5.40625 8.76172 5.8125 9.17578C6.21875 9.58984 6.69531 9.91406 7.24219 10.1484C7.78906 10.3828 8.375 10.5 9 10.5C9.61719 10.5 10.1992 10.3828 10.7461 10.1484C11.293 9.91406 11.7695 9.59375 12.1758 9.1875C12.582 8.78125 12.9063 8.30469 13.1484 7.75781C13.3906 7.21094 13.5078 6.625 13.5 6C13.5 5.38281 13.3828 4.80078 13.1484 4.25391C12.9141 3.70703 12.5938 3.23047 12.1875 2.82422C11.7812 2.41797 11.3008 2.09375 10.7461 1.85156C10.1914 1.60938 9.60938 1.49219 9 1.5C8.375 1.5 7.79297 1.61719 7.25391 1.85156C6.71484 2.08594 6.23828 2.40625 5.82422 2.8125C5.41016 3.21875 5.08594 3.69922 4.85156 4.25391C4.61719 4.80859 4.5 5.39062 4.5 6ZM22.4297 18.0352C22.4766 18.2695 22.5 18.5078 22.5 18.75C22.5 18.9922 22.4766 19.2305 22.4297 19.4648L23.8828 20.0625L23.3086 21.457L21.8555 20.8477C21.582 21.2461 21.2461 21.582 20.8477 21.8555L21.457 23.3086L20.0625 23.8828L19.4648 22.4297C19.2305 22.4766 18.9922 22.5 18.75 22.5C18.5078 22.5 18.2695 22.4766 18.0352 22.4297L17.4375 23.8828L16.043 23.3086L16.6523 21.8555C16.2539 21.582 15.918 21.2461 15.6445 20.8477L14.1914 21.457L13.6172 20.0625L15.0703 19.4648C15.0234 19.2305 15 18.9922 15 18.75C15 18.5078 15.0234 18.2695 15.0703 18.0352L13.6172 17.4375L14.1914 16.043L15.6445 16.6523C15.918 16.2539 16.2539 15.918 16.6523 15.6445L16.043 14.1914L17.4375 13.6172L18.0352 15.0703C18.2695 15.0234 18.5078 15 18.75 15C18.9922 15 19.2305 15.0234 19.4648 15.0703L20.0625 13.6172L21.457 14.1914L20.8477 15.6445C21.2461 15.918 21.582 16.2539 21.8555 16.6523L23.3086 16.043L23.8828 17.4375L22.4297 18.0352ZM18.75 21C19.0625 21 19.3555 20.9414 19.6289 20.8242C19.9023 20.707 20.1406 20.5469 20.3438 20.3438C20.5469 20.1406 20.707 19.9023 20.8242 19.6289C20.9414 19.3555 21 19.0625 21 18.75C21 18.4375 20.9414 18.1445 20.8242 17.8711C20.707 17.5977 20.5469 17.3594 20.3438 17.1562C20.1406 16.9531 19.9023 16.793 19.6289 16.6758C19.3555 16.5586 19.0625 16.5 18.75 16.5C18.4375 16.5 18.1445 16.5586 17.8711 16.6758C17.5977 16.793 17.3594 16.9531 17.1562 17.1562C16.9531 17.3594 16.793 17.5977 16.6758 17.8711C16.5586 18.1445 16.5 18.4375 16.5 18.75C16.5 19.0625 16.5586 19.3555 16.6758 19.6289C16.793 19.9023 16.9531 20.1406 17.1562 20.3438C17.3594 20.5469 17.5977 20.707 17.8711 20.8242C18.1445 20.9414 18.4375 21 18.75 21Z" fill="#2F80ED"/>
</svg>
