<svg width="18" height="22" viewBox="0 0 18 22" fill="none" xmlns="http://www.w3.org/2000/svg">
<path d="M17.8743 4.12573H16.4993V19.9376C16.4993 20.224 16.4456 20.4926 16.3382 20.7432C16.2308 20.9939 16.084 21.2123 15.8978 21.3985C15.7116 21.5847 15.4932 21.7315 15.2425 21.8389C14.9919 21.9463 14.7233 22 14.4369 22H3.43736C3.15091 22 2.88237 21.9463 2.63173 21.8389C2.38109 21.7315 2.16267 21.5847 1.97648 21.3985C1.79029 21.2123 1.64349 20.9939 1.53607 20.7432C1.42865 20.4926 1.37494 20.224 1.37494 19.9376V4.12573H0V2.75078H5.49977V1.37584C5.49977 1.18249 5.53558 1.00346 5.60719 0.838752C5.6788 0.674045 5.77548 0.530822 5.89721 0.409082C6.01895 0.287342 6.16576 0.187085 6.33763 0.108313C6.50949 0.0295398 6.68852 -0.00626602 6.87471 0.000895146H10.9995C11.1929 0.000895146 11.3719 0.036701 11.5366 0.108313C11.7013 0.179924 11.8446 0.2766 11.9663 0.39834C12.088 0.52008 12.1883 0.666884 12.2671 0.838752C12.3458 1.01062 12.3816 1.18965 12.3745 1.37584V2.75078H17.8743V4.12573ZM6.87471 2.75078H10.9995V1.37584H6.87471V2.75078ZM15.1244 4.12573H2.74989V19.9376C2.74989 20.1238 2.81792 20.2849 2.95398 20.421C3.09004 20.557 3.25117 20.6251 3.43736 20.6251H14.4369C14.6231 20.6251 14.7842 20.557 14.9203 20.421C15.0563 20.2849 15.1244 20.1238 15.1244 19.9376V4.12573ZM6.87471 17.8752H5.49977V6.87562H6.87471V17.8752ZM9.6246 17.8752H8.24965V6.87562H9.6246V17.8752ZM12.3745 17.8752H10.9995V6.87562H12.3745V17.8752Z" fill="#EB5757"/>
</svg>
