<svg width="100" height="100" viewBox="0 0 100 100" fill="none" xmlns="http://www.w3.org/2000/svg">
<path fill-rule="evenodd" clip-rule="evenodd" d="M15.3284 50.2371C9.91571 52.2817 2.99844 62.3907 8.74777 73.1294C15.0424 84.8869 32.5725 88.7 47.8512 81.1084C57.6753 76.2267 65.2914 72.1595 77.4223 70.7588C83.9313 70.0074 99.5049 49.9287 89.7499 31.0989C79.995 12.2692 47.4244 7.25835 38.6106 22.4204C26.8379 42.6718 24.6082 46.7317 15.3284 50.2371Z" fill="#C0F0FF"/>
<path fill-rule="evenodd" clip-rule="evenodd" d="M56.5095 59.4036L57.4137 57.8976L57.4796 56.2911C57.4796 56.2911 58.1808 56.0295 58.5032 56.2006C58.5032 56.2006 59.4923 55.9783 59.7204 55.1904C59.7204 55.1904 58.4848 55.4151 57.8309 55.3682C57.8309 55.3682 58.0941 52.6852 58.3795 51.5241C58.3795 51.5241 57.9305 50.1201 57.0215 51.5686C56.1126 53.017 56.5654 54.2386 56.6527 55.9977C56.7394 57.7564 56.6877 58.8191 56.5095 59.4036Z" fill="white"/>
<path fill-rule="evenodd" clip-rule="evenodd" d="M47.484 67.2769C47.484 67.2769 46.7268 66.9266 47.3233 65.8994C47.4527 65.6761 47.0701 65.7121 46.8392 65.5287C46.4494 65.2192 45.9929 64.738 45.5235 64.638C45.5235 64.638 43.6511 64.9475 44.4102 64.2161C45.1697 63.4847 46.6865 64.035 47.31 64.7418C47.31 64.7418 48.3266 62.9059 47.4319 60.2186C46.604 57.7313 46.1564 57.2113 46.0047 56.1812C46.0047 56.1812 45.0778 56.587 44.3945 56.3571C43.7118 56.1276 43.3818 55.9968 42.9446 55.9001C42.5075 55.8039 42.8536 55.1374 43.6781 55.291C44.5022 55.4446 45.6278 55.5152 45.6975 55.0208C45.6975 55.0208 44.3367 53.592 45.797 52.1128C47.5855 50.3011 51.9566 49.6568 51.9589 51.3917C51.9613 53.1265 51.2676 54.7648 50.7428 57.8991C50.2179 61.0334 50.2383 65.5799 50.2829 66.6853C50.327 67.7908 50.3066 68.2051 49.2924 67.9889C48.2782 67.7728 48.1156 67.923 47.484 67.2769Z" fill="white"/>
<path fill-rule="evenodd" clip-rule="evenodd" d="M23.4154 71.1579C23.4154 71.1579 19.2136 72.4738 19.2718 72.9478C19.3301 73.4219 19.6184 74.8416 24.3012 74.8739C28.9839 74.9066 38.6753 74.2775 35.5324 73.2986C32.5483 72.369 33.5498 70.7597 36.9324 70.4611C38.7625 70.2999 36.3231 68.7654 40.3419 68.0032C40.3419 68.0032 37.4724 68.1084 35.4787 69.2347C33.4849 70.3606 33.8831 70.7071 28.164 70.6289C28.164 70.6289 24.7656 70.8479 23.4154 71.1579Z" fill="white"/>
<path fill-rule="evenodd" clip-rule="evenodd" d="M58.6421 69.2219C58.6421 69.2219 62.7837 69.8808 61.5562 70.773C60.3291 71.6651 67.28 71.329 67.2928 72.6137C67.3061 73.8988 62.504 74.3723 66.079 76.0276C69.6545 77.683 76.8633 78.4732 79.7451 75.8101C79.7451 75.8101 81.8735 74.9805 77.5859 73.6309C71.9398 71.8533 69.5644 72.1477 65.3972 70.6317C65.3972 70.6317 61.934 69.2167 58.6421 69.2219Z" fill="white"/>
<path fill-rule="evenodd" clip-rule="evenodd" d="M40.1388 68.0298C40.1388 68.0298 42.2302 67.1102 40.4204 61.2497C39.1801 57.3242 34.7935 56.7028 35.4336 49.3667C35.4336 49.3667 33.95 49.6144 34.6116 48.0042C35.2732 46.394 40.9022 47.6367 41.9856 47.8987C43.0695 48.1607 45.1073 48.9132 43.7622 50.2373C43.7622 50.2373 42.5621 51.6821 42.9789 55.0612C42.9789 55.0612 41.9704 55.2821 42.3995 55.8173C42.6427 56.1207 43.1387 56.26 43.4127 56.8663C44.0505 58.2775 44.3349 60.1907 44.4241 62.504C44.4241 62.504 44.0073 67.551 44.4568 68.337C44.4568 68.337 43.4213 68.5323 42.8016 68.8466C42.8016 68.8466 41.2198 68.1682 40.1388 68.0298Z" fill="white"/>
<path fill-rule="evenodd" clip-rule="evenodd" d="M56.3951 69.2153C56.3951 69.2153 55.572 65.6188 57.1509 60.7918C58.7298 55.9647 62.3954 54.8047 61.5514 49.6144C61.5514 49.6144 58.7075 49.8178 59.926 48.3091C59.926 48.3091 65.5773 46.328 68.7128 47.1952C68.7128 47.1952 71.4675 47.7024 70.2528 49.5566C70.2528 49.5566 69.8052 50.3046 69.5198 51.9755C69.2343 53.6462 66.6716 55.1958 63.9998 58.5311C61.3281 61.8669 59.5543 65.5686 60.2935 69.3666C60.2935 69.3666 56.479 69.1912 56.3951 69.2153Z" fill="white"/>
<path fill-rule="evenodd" clip-rule="evenodd" d="M39.9661 47.4859C39.9661 47.4859 39.2208 44.8974 36.1885 44.8133L37.4921 44.2223C37.4921 44.2223 36.1334 40.465 43.0812 38.5053C50.0293 36.5455 47.6719 34.2091 46.9545 33.9912L46.6406 33.4711C46.6406 33.4711 49.6557 33.6851 52.2094 32.7197C52.2094 32.7197 52.3464 31.5281 48.9862 31.3572L48.8563 31.0394C48.8563 31.0394 52.4839 30.1068 54.003 31.1962C54.003 31.1962 53.1719 31.7139 53.3554 32.2648C53.3554 32.2648 53.4374 32.7271 54.4122 33.1748C54.4122 33.1748 53.711 33.6004 53.93 34.4C53.93 34.4 54.1908 35.666 59.8895 38.1489C65.5877 40.6317 67.6014 40.6409 67.2614 42.9971C67.2614 42.9971 68.3225 43.0968 68.7848 43.4411C68.7848 43.4411 65.49 44.1284 65.3374 46.5011C65.3374 46.5011 64.3018 46.9591 62.8728 46.8326C62.8728 46.8326 65.5318 43.8005 61.1275 42.5049C61.1275 42.5049 56.6212 41.6591 56.0134 46.2661C56.0134 46.2661 56.24 44.7478 55.4975 44.2049C55.4975 44.2049 55.636 45.4232 54.5497 45.3946L48.9947 45.437C48.9947 45.437 47.8563 45.4461 48.3366 44.1953C48.3366 44.1953 46.4097 44.8465 45.927 46.9358L45.7653 47.3942C45.7653 47.3942 45.7957 43.2368 41.6048 42.8141C37.8946 42.4398 39.0017 45.8991 40.252 46.8223L40.9111 47.6188L39.9661 47.4859ZM44.7498 41.1812L43.7199 41.1118C43.7199 41.1118 43.0893 39.8718 44.2946 39.3622C45.4994 38.8525 44.0485 40.5062 45.1485 40.6476C46.249 40.7891 46.5795 40.3934 46.3505 40.0188C46.1214 39.6441 48.3641 41.4947 47.8298 41.9335C47.8298 41.9335 45.4709 41.4178 44.7498 41.1812ZM54.0273 39.7417C54.0273 39.7417 53.4873 41.2136 54.7324 41.1651C54.7324 41.1651 54.7494 40.4946 55.3146 40.5737L56.4331 41.0747C56.4331 41.0747 58.4529 41.1294 57.7891 39.4818C57.7891 39.4818 57.0319 38.5321 56.7821 38.6075C55.5389 38.9833 56.1301 39.8715 55.3815 40.1442C55.1344 40.2342 54.9211 40.4901 54.0273 39.7417Z" fill="white"/>
<ellipse cx="33.3367" cy="36.3712" rx="5.03884" ry="5.0377" fill="white"/>
<ellipse cx="25.8772" cy="62.8842" rx="1.09816" ry="1.15719" fill="white"/>
<ellipse cx="35.3438" cy="63.4545" rx="0.709038" ry="0.747959" fill="white"/>
<ellipse rx="1.09816" ry="1.1572" transform="matrix(-1 0 0 1 70.8042 65.7981)" fill="white"/>
<ellipse rx="0.709051" ry="0.747959" transform="matrix(-1 0 0 1 63.851 65.2682)" fill="white"/>
<ellipse rx="0.509685" ry="0.335136" transform="matrix(0.977025 0.213124 -0.213137 0.977022 45.469 41.0923)" fill="#F2994A"/>
<ellipse rx="0.509678" ry="0.335135" transform="matrix(0.999477 -0.0323353 0.0323367 0.999477 55.3872 40.8473)" fill="#F2994A"/>
<path fill-rule="evenodd" clip-rule="evenodd" d="M40.1279 39.6158C41.3664 38.9883 42.6781 38.5952 43.9618 38.1267C44.8732 37.7941 45.7649 37.3957 46.5376 36.7965C46.97 36.4611 47.3899 36.1003 47.6352 35.5766C47.9088 34.9927 47.6408 34.5419 47.13 34.3441C46.8891 34.2507 46.6911 34.1199 46.5153 33.9362C46.3534 33.7673 46.4108 33.4011 46.6764 33.3584C46.7812 33.3416 46.901 33.4035 47.0113 33.4382C47.2615 33.5168 47.6695 33.326 47.7463 33.0848C47.844 32.7776 47.7473 32.3985 47.5055 32.2493C47.478 32.2323 47.4742 32.1783 47.4469 32.159C47.4161 32.1371 47.3712 32.1349 47.3325 32.1242C47.3436 32.1568 47.3666 32.1904 47.3639 32.2218C47.3432 32.4556 47.3206 32.6894 47.2893 32.9219C47.2853 32.9517 47.2222 33.0017 47.1964 32.9961C46.9517 32.9434 46.4907 32.3997 46.4704 32.1509C46.4487 31.885 46.6349 31.6203 46.9219 31.5421C47.2499 31.4528 47.587 31.3956 47.9124 31.2986C48.2338 31.2028 48.489 31.0391 48.5228 30.6438C48.5313 30.5449 48.693 30.4019 48.8046 30.3793C49.2394 30.2911 49.539 30.0289 49.8023 29.7013C49.9517 29.5154 50.1404 29.4557 50.3616 29.5508C50.4174 29.5748 50.4757 29.6346 50.4936 29.6905C50.5049 29.7255 50.4442 29.785 50.4125 29.8312C50.4062 29.8405 50.3829 29.8363 50.3714 29.8441C50.292 29.899 50.2137 29.9554 50.135 30.0113C50.2522 30.0275 50.373 30.0705 50.4859 30.0551C50.8264 30.0087 51.162 29.9114 51.503 29.8904C51.6968 29.8785 51.9198 29.932 52.0305 30.1512C52.0537 30.1973 52.0855 30.2391 52.1133 30.2828C52.0533 30.2907 51.993 30.3072 51.9334 30.305C51.5842 30.292 51.235 30.2573 50.8862 30.2627C50.2205 30.273 49.61 30.5021 49.0166 30.7823C48.9867 30.7964 48.9673 30.8327 48.943 30.8586C48.9802 30.8643 49.0187 30.8793 49.0543 30.8742C49.3669 30.8292 49.6793 30.7826 49.9912 30.7328C50.2723 30.6879 50.551 30.6172 50.8337 30.5959C51.2841 30.5618 51.7385 30.5282 52.1884 30.5507C52.8895 30.5859 53.5778 30.7145 54.2198 31.0203C54.2999 31.0584 54.3869 31.1151 54.4307 31.1873C54.4766 31.2631 54.5157 31.389 54.4824 31.4548C54.4416 31.5354 54.3216 31.6268 54.2375 31.6253C53.9684 31.6204 53.8086 31.7655 53.7017 31.9736C53.5979 32.1759 53.7319 32.4239 53.8806 32.6379C54.0574 32.8923 54.3191 32.9179 54.5604 33.0076C54.8199 33.1041 54.9224 33.2418 54.8594 33.4781C54.8483 33.5198 54.7803 33.5735 54.7367 33.5753C54.2541 33.5947 54.1123 34.0287 54.2453 34.4137C54.3975 34.8541 54.7887 35.0673 55.121 35.3188C55.9896 35.976 56.9146 36.5488 57.8997 37.0192C57.9194 37.0286 57.9453 37.0274 57.9611 37.0425C58.059 37.1358 58.8272 37.5425 59.2992 37.7317C59.9188 37.9802 60.455 38.1523 61.063 38.3851C61.8815 38.6984 62.6985 39.0164 63.5047 39.3588C64.4057 39.7413 65.301 40.1384 66.1849 40.558C66.7639 40.833 67.2737 41.2222 67.5634 41.8125C67.7232 42.1383 67.8313 42.4983 67.7431 42.8822C67.736 42.9147 67.8347 43.001 67.8949 43.0148C68.2785 43.1028 68.6697 43.1635 69.0491 43.2662C69.1463 43.2925 69.3564 43.2849 69.3208 43.4846C69.3028 43.5872 69.2355 43.6946 69.1596 43.7685C69.1098 43.8168 69.006 43.8223 68.9258 43.8236C68.3553 43.8327 67.8166 43.9757 67.3268 44.2568C66.4528 44.7581 65.8283 45.4691 65.5808 46.4711C65.5684 46.5207 65.5504 46.5691 65.5329 46.6174C65.5267 46.6351 65.5144 46.6506 65.5049 46.6671C65.4987 46.646 65.4973 46.6214 65.4854 46.6043C65.2725 46.2986 65.3157 45.9817 65.4333 45.6563C65.6827 44.9656 66.2138 44.5208 66.8104 44.1682C67.2476 43.9099 67.7408 43.7471 68.2083 43.5403C68.2363 43.5279 68.2591 43.5031 68.2842 43.4841C68.2524 43.4715 68.2221 43.4538 68.1894 43.4471C67.5369 43.3139 66.919 43.4699 66.3144 43.6912C66.1436 43.7537 66.0028 43.8611 65.9027 43.6057C65.8231 43.4032 65.8686 43.2587 66.0976 43.1654C66.2262 43.113 66.3689 43.0867 66.5078 43.0702C66.6401 43.0545 66.7762 43.0668 66.9104 43.0668C67.3145 43.0668 67.4605 42.8509 67.3671 42.4534C67.2106 41.7851 66.743 41.363 66.2043 41.0346C64.9501 40.27 63.5853 39.7384 62.2148 39.2207C61.0947 38.7975 59.9827 38.3522 58.8753 37.8964C57.6777 37.4035 56.5631 36.759 55.5065 36.0091C55.2177 35.8042 54.9072 35.6602 54.5078 35.7461C54.1826 35.8161 54.0198 36.008 53.9751 36.2769C53.9316 36.5393 54.0431 36.7945 54.2583 36.9828C54.5353 37.2252 54.8291 37.4521 55.0812 37.7185C55.563 38.2277 55.4069 38.9529 55.0161 39.4296C54.8159 39.6739 54.5507 39.8014 54.258 39.8914C54.2169 39.904 54.1567 39.9551 54.1572 39.9874C54.1646 40.4133 54.2947 40.795 54.5922 41.1093C54.6168 41.1354 54.654 41.1496 54.6853 41.1694C54.6974 41.1294 54.7175 41.09 54.7204 41.0494C54.7526 40.5898 55.1682 40.3006 55.6012 40.463C55.8396 40.5524 56.0716 40.6748 56.2832 40.8169C56.8039 41.1663 57.7073 40.8214 57.7704 40.1857C57.8138 39.7481 57.5688 39.2092 57.0998 39.0648C57.0302 39.0433 56.9523 39.0273 56.8971 38.9844C56.7708 38.8862 56.5859 38.7909 56.5528 38.6617C56.4998 38.4548 56.7387 38.3507 56.8818 38.3364C57.217 38.3028 57.5642 38.3043 57.8973 38.354C58.4981 38.4437 59.0025 38.7835 59.4138 39.1908C59.807 39.5802 60.1138 40.0719 60.2186 40.6434C60.2578 40.8567 60.2563 41.0776 60.2692 41.2953C60.2837 41.5382 60.1162 41.6068 59.9287 41.5909C59.5911 41.5624 59.2557 41.5052 58.9205 41.4528C58.6547 41.4112 58.3921 41.3343 58.1253 41.3169C57.6036 41.2831 57.0771 41.2384 56.5574 41.2726C55.3344 41.353 54.1372 41.5747 53.0129 42.0955C52.8207 42.1845 52.624 42.2642 52.4334 42.3563C52.0953 42.5197 51.761 42.3885 51.6404 42.0311C51.4927 41.5939 51.6616 41.226 51.9072 40.8773C52.3207 40.2904 52.9773 40.0799 53.5846 39.7945C54.01 39.5947 54.4312 39.3941 54.7742 39.0574C55.093 38.7445 55.085 38.4045 54.8005 38.1011C54.3736 37.6458 53.9249 37.2106 53.4782 36.7745C53.2958 36.5964 53.0648 36.6471 52.8586 36.7137C51.8913 37.0264 50.9135 37.3153 50.0249 37.828C49.389 38.1949 48.8338 38.6624 48.4411 39.2832C48.2211 39.631 48.0863 40.041 48.3718 40.4339C48.4838 40.5878 48.6336 40.7246 48.791 40.8329C49.0954 41.0422 49.4301 41.2084 49.7284 41.4252C49.9889 41.6147 50.0731 41.9119 49.8715 42.169C49.7559 42.3165 49.5151 42.4119 49.3176 42.4402C48.7743 42.5181 48.2558 42.3245 47.7351 42.208C46.8993 42.0209 46.0767 41.7716 45.2369 41.6078C44.7487 41.5127 44.2364 41.492 43.7378 41.5117C43.1062 41.5366 42.4865 41.6737 41.9197 41.9779C41.7738 42.0562 41.66 42.0217 41.555 41.9192C41.4191 41.7868 41.3994 41.615 41.4713 41.4556C41.661 41.035 41.931 40.6707 42.3199 40.4117C42.8267 40.0741 43.3338 39.7359 43.8542 39.4201C44.023 39.3178 44.209 39.2268 44.4445 39.2954C44.6113 39.3441 44.6366 39.4686 44.6397 39.5659C44.642 39.6398 44.5319 39.7522 44.4471 39.7871C44.2149 39.8826 43.87 40.2721 43.9046 40.5574C43.9308 40.7744 44.0863 41.0205 44.284 41.0745C44.6071 41.1627 44.7509 41.1066 44.9055 40.8319C45.0339 40.6036 45.5312 40.4865 45.818 40.5819C46.2166 40.7145 46.228 41.0715 46.3273 41.3823C46.3348 41.4057 46.3353 41.449 46.3458 41.4512C46.7312 41.5335 47.117 41.6142 47.5038 41.69C47.6358 41.7159 47.694 41.6078 47.6334 41.4554C47.495 41.1072 47.2076 40.8856 46.9404 40.6484C46.6644 40.4034 46.358 40.1877 46.1083 39.9188C45.7205 39.5012 45.7206 38.9416 45.9623 38.3801C46.1769 37.8816 46.5694 37.5299 46.9881 37.2255C47.5456 36.8201 48.1286 36.4451 48.726 36.1009C49.3485 35.7421 50.0427 35.5679 50.7456 35.4246C51.25 35.3218 51.7426 35.1773 52.1731 34.8639C52.5986 34.554 52.8716 33.6846 52.665 33.2062C52.5552 32.9518 52.4189 32.9068 52.1701 33.0228C51.715 33.235 51.2339 33.3507 50.7337 33.3912C50.687 33.3949 50.6419 33.4179 50.596 33.432C50.6329 33.4628 50.6651 33.5052 50.7075 33.5225C51.112 33.6869 51.4375 33.9495 51.6796 34.3109C51.7776 34.4572 51.842 34.6207 51.7325 34.7929C51.7041 34.8376 51.6555 34.8694 51.6162 34.9071C51.5923 34.87 51.5642 34.8349 51.545 34.7955C51.2425 34.1716 50.6892 33.8755 50.0596 33.7286C49.1115 33.5075 48.1671 33.6187 47.2355 33.8658C47.2143 33.8714 47.1995 33.901 47.1817 33.9195C47.2048 33.9326 47.2265 33.9535 47.2511 33.9579C47.7743 34.0508 48.0627 34.5836 48.1356 34.9476C48.2584 35.5615 47.9828 36.0251 47.6058 36.4456C47.1885 36.9112 46.6523 37.2191 46.1123 37.5267C44.8845 38.2262 43.5498 38.6659 42.2455 39.1837C41.2178 39.5917 40.1803 39.9896 39.2707 40.646C38.5894 41.1377 38.0413 41.7448 37.8544 42.5717C37.7161 43.184 37.6939 43.8275 38.0911 44.395C38.1038 44.413 38.0425 44.5222 38.002 44.532C37.6986 44.6051 37.3915 44.6627 37.0864 44.7286C37.0507 44.7363 37.0195 44.7646 36.9862 44.7834C37.0175 44.7963 37.0479 44.817 37.0802 44.8208C37.9645 44.9255 38.7155 45.3112 39.3985 45.8712C39.6452 46.0734 39.8347 46.3118 40.0219 46.5585C40.0826 46.6386 40.1375 46.7372 40.1527 46.834C40.1733 46.9649 40.1487 47.093 39.9734 47.126C39.8515 47.149 39.7828 47.1741 39.7072 47.0115C39.4499 46.4584 39.0144 46.0514 38.5084 45.7255C37.8533 45.3035 37.128 45.125 36.3509 45.155C36.2916 45.1573 36.2314 45.169 36.1739 45.185C35.9211 45.2554 35.7513 45.1784 35.6713 44.9534C35.6072 44.7733 35.7456 44.5094 35.9602 44.4462C36.1312 44.3959 36.3111 44.3662 36.489 44.3512C36.6773 44.3353 36.8681 44.3489 37.0578 44.3473C37.3442 44.3448 37.3428 44.3104 37.3244 44.0084C37.2899 43.4438 37.3256 42.8879 37.5339 42.3434C37.7766 41.709 38.1723 41.1726 38.613 40.6867C38.928 40.3393 39.3761 40.112 39.768 39.8357C39.8782 39.7581 39.9997 39.6966 40.1279 39.6158ZM54.0815 35.5718C54.2687 35.3924 54.3121 35.2298 54.1292 34.9912C53.7249 34.4636 53.7287 33.8802 54.0695 33.3298C54.1849 33.1432 54.0838 33.143 53.9871 33.1084C53.1976 32.826 53.0279 31.9519 53.5939 31.3643C53.6294 31.3274 53.6713 31.2968 53.7103 31.2632C53.6534 31.2289 53.6 31.1742 53.5389 31.1637C53.2201 31.1089 52.9003 31.0559 52.5788 31.0204C52.198 30.9783 51.8151 30.9308 51.4331 30.93C51.0749 30.9292 50.7148 30.9739 50.3587 31.0214C50.0034 31.0688 49.6518 31.1434 49.2993 31.2097C49.2733 31.2147 49.2529 31.2492 49.2298 31.2699C49.2589 31.2808 49.2875 31.2998 49.317 31.3013C49.658 31.3191 49.9993 31.3333 50.3404 31.3502C50.8368 31.3749 51.3116 31.5144 51.7434 31.7379C52.4178 32.0871 52.889 32.6407 53.0789 33.3883C53.2793 34.177 53.1815 34.6454 52.5135 35.1026C52.0257 35.4365 51.4656 35.5864 50.914 35.7635C50.3009 35.9605 49.6694 36.1222 49.0889 36.3919C48.4634 36.6826 47.882 37.0711 47.2926 37.4352C46.925 37.6623 46.5662 37.9142 46.3625 38.3158C46.2112 38.6143 46.1269 38.9221 46.2294 39.2674C46.3705 39.7428 46.7131 40.0419 47.0908 40.3128C47.2454 40.4237 47.4145 40.5208 47.5894 40.5953C47.7367 40.658 47.8557 40.58 47.8306 40.4672C47.7343 40.0355 47.8046 39.6236 48.0019 39.2374C48.4576 38.3451 49.225 37.783 50.0822 37.3294C50.8424 36.9272 51.6597 36.6705 52.4804 36.4225C53.0563 36.2485 53.6212 36.041 54.0815 35.5718ZM58.6339 40.9795C58.9051 41.0295 59.1787 41.0697 59.4467 41.1332C59.5923 41.1678 59.6631 41.1004 59.6973 40.9898C59.7433 40.8416 59.7788 40.6869 59.7924 40.5327C59.8156 40.2717 59.7721 40.0144 59.596 39.8119C59.2541 39.4189 58.8531 39.0937 58.3669 38.8969C58.1437 38.8066 57.9017 38.7603 57.6652 38.7078C57.6245 38.6988 57.5685 38.7587 57.5195 38.7868C57.5456 38.822 57.564 38.8718 57.599 38.89C57.836 39.0131 57.9395 39.249 58.033 39.4657C58.1983 39.8484 58.219 40.2523 58.0614 40.6548C58.0163 40.77 58.0284 40.8725 58.1994 40.8885C58.3301 40.9008 58.4576 40.9479 58.6339 40.9795ZM50.4063 31.9905C50.4119 31.9533 50.4229 31.9159 50.4218 31.8789C50.4198 31.8132 50.4102 31.7477 50.4039 31.6822C50.3414 31.7205 50.2604 31.7459 50.2217 31.8009C50.1824 31.857 50.173 31.942 50.1713 32.0148C50.1656 32.2624 50.1784 32.5108 50.1657 32.7579C50.1578 32.9122 50.0574 33.0459 49.9019 32.9962C49.8244 32.9715 49.7689 32.8035 49.7473 32.6919C49.6914 32.4036 49.6636 32.1098 49.615 31.8199C49.6067 31.7699 49.5513 31.7278 49.5176 31.6822C49.4819 31.7393 49.4126 31.7988 49.4162 31.8534C49.4318 32.0872 49.4866 32.3193 49.4908 32.5527C49.4928 32.6729 49.4545 32.8474 49.3712 32.904C49.2183 33.0077 49.1091 32.8772 49.0733 32.6453C49.0316 32.3759 48.9559 32.111 48.8824 31.8477C48.869 31.7997 48.7956 31.7685 48.7499 31.7296C48.7329 31.7805 48.6977 31.8331 48.7021 31.8821C48.7276 32.17 48.7646 32.4568 48.7926 32.7444C48.8013 32.8332 48.8171 32.9336 48.7844 33.0091C48.7675 33.0479 48.6516 33.0478 48.5794 33.056C48.5579 33.0584 48.5248 33.035 48.5106 33.0141C48.3271 32.7435 48.4971 32.3473 48.1922 32.1178C48.1589 32.0927 48.1374 32.0518 48.1104 32.0183C48.1012 32.0513 48.0825 32.0847 48.0841 32.1171C48.0973 32.3794 48.0992 32.6435 48.1336 32.9033C48.1855 33.2963 48.1976 33.3206 48.5707 33.2895C49.2981 33.2291 50.0231 33.1391 50.7486 33.057C51.2295 33.0026 51.6934 32.8854 52.118 32.6445C52.1482 32.6274 52.1762 32.5362 52.1614 32.5204C51.8847 32.2244 51.5278 32.0529 51.1537 31.9267C51.0157 31.8802 50.8586 31.9322 50.8817 32.1437C50.8897 32.217 50.9211 32.2882 50.926 32.3615C50.9372 32.5248 50.893 32.6976 50.7197 32.71C50.6372 32.7159 50.5072 32.5695 50.4628 32.4649C50.4087 32.3376 50.422 32.1816 50.4063 31.9905ZM53.133 41.5488C53.341 41.4988 53.5477 41.4418 53.7575 41.4013C53.9053 41.3727 53.9554 41.3191 53.8926 41.1665C53.7829 40.8997 53.7167 40.6278 53.8169 40.3351C53.8662 40.1906 53.7761 40.1217 53.6449 40.1875C53.1591 40.4312 52.6613 40.6616 52.2847 41.0719C52.0755 41.2998 52.0609 41.5365 52.1673 41.7345C52.1966 41.789 52.3175 41.8439 52.3731 41.8261C52.6153 41.7482 52.8489 41.6437 53.133 41.5488ZM42.9376 40.3629C42.6387 40.6145 42.3314 40.8571 42.0473 41.1243C41.982 41.1857 41.9962 41.3316 41.9739 41.4387C42.039 41.4153 42.1038 41.3909 42.1695 41.3693C42.1907 41.3623 42.2142 41.3628 42.2365 41.359C42.6134 41.2959 42.9888 41.2215 43.3676 41.1735C43.5948 41.1446 43.6407 41.0935 43.5596 40.8872C43.5221 40.7918 43.4895 40.6879 43.486 40.5868C43.4693 40.0963 43.447 40.0816 43.0188 40.3298C43.0056 40.3375 42.9962 40.3517 42.9376 40.3629ZM49.1023 41.4066C48.9157 41.3623 48.7141 41.349 48.546 41.267C48.25 41.1226 48.2127 41.119 48.1394 41.4247C48.1181 41.5138 48.116 41.615 48.1356 41.7039C48.1498 41.7686 48.2087 41.868 48.2569 41.8737C48.6362 41.9184 49.0175 41.9474 49.3989 41.9703C49.4319 41.9723 49.4975 41.8981 49.5008 41.8556C49.5215 41.5912 49.2998 41.53 49.1023 41.4066ZM45.7829 41.3116C45.8792 41.3597 46.0193 41.4353 46.034 41.2709C46.0541 41.0453 45.6316 40.8473 45.4525 40.9861C45.4153 41.0149 45.4106 41.103 45.4153 41.1619C45.418 41.1979 45.461 41.2475 45.497 41.2606C45.5726 41.2882 45.6555 41.2958 45.7829 41.3116ZM55.7649 41.0034C55.7523 40.8037 55.6137 40.7335 55.4474 40.8518C55.3976 40.8873 55.3738 40.9592 55.3381 41.0145C55.4008 41.0345 55.4633 41.0694 55.5264 41.0706C55.5977 41.0719 55.6696 41.0429 55.7649 41.0034Z" fill="#333333"/>
<path fill-rule="evenodd" clip-rule="evenodd" d="M51.9356 54.5109C51.7729 55.0374 51.6058 55.5479 51.4752 56.0676C51.309 56.7288 51.1465 57.3929 51.0298 58.0641C50.9041 58.7862 50.8252 59.517 50.7413 60.2459C50.6929 60.6657 50.6676 61.0886 50.6454 61.5108C50.6209 61.9781 50.6095 62.4465 50.5965 62.9142C50.5786 63.5636 50.5519 64.2135 50.552 64.8629C50.5522 65.5284 50.5549 66.1959 50.6059 66.8586C50.6342 67.2271 50.6673 67.5848 50.5469 67.9382C50.483 68.1256 50.3435 68.2508 50.1434 68.2527C49.3051 68.2598 48.4737 68.173 47.675 67.9169C47.0054 67.702 46.622 67.1859 46.7176 66.5431C46.7704 66.1883 46.7205 65.8581 46.5522 65.5801C46.2906 65.1475 45.9138 64.8373 45.3574 64.8373C45.0959 64.8368 44.8408 64.8444 44.6069 64.9744C44.4546 65.0588 44.3028 65.0579 44.1979 64.9231C44.0088 64.6803 44.0169 64.5142 44.1482 64.3364C44.3532 64.0584 44.659 63.9516 44.9632 63.9009C45.5215 63.8084 46.0885 63.7775 46.6377 63.9858C47.15 64.1803 47.5202 64.5218 47.6434 65.0617C47.6779 65.213 47.5974 65.4222 47.5059 65.564C47.3269 65.841 47.1932 66.1257 47.11 66.4463C47.0234 66.7793 47.2085 67.3372 47.6046 67.4719C47.7979 67.5374 47.8405 67.5127 47.8465 67.3073C47.8595 66.8552 47.8712 66.4032 47.8947 65.9516C47.9187 65.49 47.9686 65.0294 47.9853 64.5678C48.0247 63.482 48.0939 62.3953 48.0703 61.3105C48.0479 60.2786 47.7952 59.2759 47.4124 58.315C46.9935 57.2633 46.5378 56.226 46.1335 55.169C45.9997 54.8193 45.9264 54.4297 45.9112 54.0549C45.8749 53.166 46.2843 52.4748 47.0427 52.0424C47.6566 51.6924 48.3209 51.4306 48.9639 51.1317C49.1095 51.064 49.2595 51.0057 49.406 50.94C49.4274 50.9304 49.4408 50.903 49.4579 50.8838C49.4328 50.8872 49.4077 50.8927 49.3825 50.8936C48.6886 50.9172 48.027 51.0975 47.4015 51.377C46.9668 51.5712 46.5566 51.8294 46.1578 52.0928C45.771 52.3483 45.4682 52.7024 45.2391 53.1042C44.9779 53.5626 44.8001 54.0506 45.0959 54.5612C45.1882 54.7205 45.3455 54.8465 45.4876 54.9711C45.665 55.1265 45.8944 55.2359 46.0356 55.4166C46.3012 55.7564 46.236 56.0602 45.898 56.3509C45.8872 56.3601 45.8943 56.3978 45.9015 56.4194C46.0904 56.9893 46.268 57.5634 46.4734 58.1273C46.7634 58.9237 47.0963 59.7049 47.367 60.5074C47.5109 60.934 47.5732 61.3897 47.6534 61.8356C47.7727 62.4991 47.7209 63.1519 47.4623 63.779C47.4358 63.8435 47.3603 63.9142 47.2966 63.927C47.258 63.9346 47.1603 63.8402 47.1554 63.7856C47.1435 63.6542 47.1686 63.5185 47.182 63.3848C47.2125 63.0817 47.2672 62.779 47.2723 62.4754C47.2876 61.5713 47.0924 60.7004 46.7736 59.8613C46.5481 59.2678 46.2766 58.6918 46.0238 58.1087C45.8901 57.8004 45.7422 57.4978 45.622 57.1844C45.5746 57.0607 45.5759 56.9151 45.5725 56.779C45.57 56.6807 45.5719 56.6218 45.4398 56.6307C44.8388 56.6715 44.2996 56.4521 43.7582 56.2291C43.5826 56.1568 43.3818 56.1343 43.19 56.1152C42.8597 56.0822 42.6451 55.7194 42.8088 55.4368C42.9199 55.245 43.0994 55.2337 43.3106 55.1875C43.7661 55.0877 44.0979 55.4857 44.5247 55.4004C44.6853 55.3683 44.845 55.3259 45.0073 55.3089C45.144 55.2946 45.1237 55.2459 45.0461 55.1876C44.4957 54.7742 44.437 54.2095 44.5939 53.6073C44.84 52.6622 45.486 52.0205 46.2814 51.5118C47.0781 51.0023 47.9527 50.7008 48.8775 50.5061C49.6156 50.3507 50.3557 50.3576 51.0961 50.382C51.4867 50.3948 51.9126 50.4491 52.1122 50.8765C52.2044 51.0739 52.2655 51.2934 52.2987 51.5093C52.4165 52.2732 52.3317 53.0236 52.1167 53.7635C52.0466 54.0047 52.0031 54.2536 51.9356 54.5109ZM48.3673 60.1677C48.4147 60.5196 48.4989 60.8711 48.5021 61.2234C48.5096 62.0386 48.4856 62.8544 48.4593 63.6698C48.4425 64.1945 48.3999 64.7187 48.3668 65.2428C48.3542 65.4421 48.3344 65.6408 48.3201 65.8401C48.2877 66.2931 48.2392 66.7461 48.2309 67.1996C48.2248 67.5297 48.3597 67.7128 48.6613 67.7584C49.0909 67.8229 49.5281 67.849 49.963 67.8613C50.1189 67.8661 50.2348 67.7868 50.2249 67.5596C50.1884 66.7209 50.1724 65.8813 50.1728 65.0422C50.1731 64.1475 50.1984 63.2533 50.2182 62.3587C50.2243 62.0805 50.2426 61.8022 50.2652 61.5248C50.3252 60.7919 50.3793 60.0583 50.4574 59.3273C50.5184 58.7574 50.5728 58.1821 50.6997 57.625C50.909 56.706 51.1319 55.7858 51.4272 54.8919C51.7783 53.8286 51.9181 52.7491 51.8704 51.641C51.8564 51.3174 51.821 50.9495 51.4174 50.8536C51.1406 50.7879 50.847 50.766 50.5622 50.7731C50.4369 50.7762 50.2501 50.7928 50.2131 51.0051C50.1763 51.2165 49.9818 51.2681 49.8132 51.318C49.3055 51.4681 48.7773 51.5637 48.2887 51.7595C47.8014 51.9547 47.3134 52.1933 46.8954 52.5062C46.279 52.9678 46.2409 53.691 46.3418 54.3711C46.4879 55.3559 46.925 56.256 47.3233 57.1619C47.5466 57.67 47.7883 58.1721 47.9743 58.6939C48.1393 59.1572 48.2388 59.6439 48.3673 60.1677ZM45.7354 56.1118C45.7465 56.1006 45.7584 56.0901 45.7687 56.0782C45.9263 55.8966 45.9498 55.7156 45.814 55.5777C45.6619 55.4231 45.5224 55.4775 45.3733 55.6105C45.2969 55.6786 45.1747 55.6986 45.0703 55.7313C44.7204 55.841 44.3955 55.6982 44.0638 55.6255C43.7756 55.5625 43.4937 55.4189 43.1906 55.5454C43.1395 55.5667 43.1039 55.625 43.0611 55.6662C43.1073 55.7041 43.1477 55.7607 43.2005 55.7768C43.7341 55.9397 44.2663 56.1088 44.8059 56.2491C45.1131 56.329 45.4335 56.3603 45.7354 56.1118ZM45.8539 64.1524C45.586 64.1922 45.3172 64.2259 45.0511 64.2748C44.9823 64.2876 44.9221 64.3469 44.858 64.3848C44.9163 64.41 44.9731 64.4531 45.0331 64.4579C45.4674 64.4949 45.8903 64.5651 46.2512 64.8355C46.4567 64.9892 46.6466 65.1694 46.868 65.2942C46.9696 65.3511 47.1302 65.3037 47.2641 65.3032C47.2593 65.1955 47.2927 65.0627 47.2421 64.9849C47.1338 64.8184 46.9741 64.6865 46.8497 64.529C46.5985 64.2112 46.2614 64.1168 45.8539 64.1524Z" fill="#F2994A"/>
<path fill-rule="evenodd" clip-rule="evenodd" d="M60.6138 49.5775C60.8322 49.4539 61.0356 49.335 61.2462 49.2322C61.4738 49.1214 61.7081 49.1815 61.7925 49.3571C61.8807 49.5404 61.7631 49.7215 61.5649 49.708C61.2206 49.6846 61.0726 49.8141 61.0783 50.1586C61.0864 50.6739 61.1181 51.189 61.1215 51.7042C61.1262 52.5463 60.9138 53.3445 60.6024 54.1206C60.2279 55.0545 59.6306 55.8482 59.0482 56.6563C58.5133 57.3985 57.9838 58.1512 57.5303 58.9442C56.9333 59.9883 56.5444 61.1236 56.3367 62.3128C56.2422 62.8545 56.1541 63.399 56.1028 63.946C56.0457 64.5551 55.9886 65.1698 56.0136 65.7789C56.0446 66.5308 56.158 67.2794 56.2408 68.0289C56.2606 68.2072 56.3078 68.3827 56.3251 68.5611C56.3296 68.6066 56.2772 68.6892 56.2351 68.702C56.1623 68.7233 56.0439 68.7357 56.0041 68.6949C55.9198 68.6076 55.8509 68.4899 55.8184 68.3732C55.778 68.2286 55.7746 68.072 55.7661 67.9197C55.7319 67.3088 55.697 66.6973 55.6716 66.0858C55.649 65.5394 55.6005 64.9901 55.6318 64.446C55.6777 63.6476 55.721 62.8455 55.9474 62.0667C56.0835 61.5983 56.1283 61.0993 56.3002 60.6467C56.4758 60.1839 56.7433 59.7534 56.9952 59.3232C57.1974 58.9779 57.4569 58.6658 57.6519 58.3171C57.798 58.0558 57.8592 57.7475 58.0005 57.4828C58.1334 57.2338 58.3132 57.0077 58.4879 56.7836C58.7265 56.4776 58.9953 56.1943 59.2224 55.8804C59.4523 55.5628 59.6712 55.2323 59.851 54.8847C60.0484 54.503 60.2361 54.107 60.3548 53.6961C60.507 53.169 60.6197 52.625 60.6871 52.0805C60.7492 51.5789 60.7369 51.0672 60.7416 50.5598C60.7449 50.1941 60.5269 49.9928 60.1628 49.9926C59.812 49.9924 59.4791 49.6442 59.4609 49.2896C59.4335 48.7551 59.7055 48.4049 60.1309 48.1434C60.6172 47.8445 61.1713 47.7426 61.7166 47.6229C62.1458 47.5286 62.5787 47.4501 63.0107 47.3706C63.3574 47.3069 63.7045 47.2503 64.0525 47.1944C64.4604 47.1288 64.8687 47.0627 65.2779 47.0057C65.5638 46.9658 65.8512 46.9317 66.1391 46.9112C66.6787 46.8727 67.2198 46.8114 67.759 46.8227C68.5234 46.8386 69.2774 46.9587 69.9607 47.3377C70.6199 47.7033 71.04 48.2271 70.9836 49.0254C70.9627 49.3288 70.8726 49.6355 70.6123 49.809C70.322 50.0022 70.2632 50.2912 70.1822 50.5809C69.9892 51.2683 69.8388 51.9704 69.5975 52.64C69.4599 53.0215 69.2257 53.3941 68.9521 53.6953C68.1502 54.5772 67.3018 55.4166 66.4814 56.2818C65.9418 56.8515 65.4059 57.4265 64.89 58.0179C63.9615 59.0819 63.0885 60.1935 62.3648 61.4066C61.7498 62.438 61.2087 63.5148 60.8853 64.6808C60.7212 65.2723 60.5809 65.8719 60.4649 66.4744C60.3369 67.1389 60.2762 67.813 60.3407 68.4918C60.3418 68.5032 60.3507 68.5141 60.3561 68.5255C60.3265 68.5303 60.297 68.5393 60.2674 68.5397C60.1892 68.5402 60.0968 68.562 60.0372 68.5279C59.985 68.498 59.9439 68.4041 59.9424 68.3372C59.9334 67.9662 59.9135 67.5924 59.9447 67.2234C59.9788 66.8202 60.0392 66.4155 60.1334 66.0223C60.2928 65.3567 60.4435 64.6831 60.6797 64.0437C60.937 63.3464 61.2462 62.66 61.6085 62.0115C62.0528 61.2167 62.5375 60.4381 63.0752 59.7041C63.6433 58.9286 64.2844 58.2053 64.9123 57.4753C65.3182 57.003 65.7521 56.5535 66.1841 56.1044C66.866 55.3959 67.5588 54.6976 68.2441 53.9926C69.0241 53.1909 69.4718 52.2168 69.7046 51.136C69.7663 50.8504 69.8109 50.5603 69.8464 50.2702C69.8787 50.0035 69.7392 49.7948 69.5761 49.6009C69.2328 49.1924 68.7595 49.0143 68.2607 48.9585C67.51 48.8746 66.7508 48.803 65.9977 48.8209C65.2314 48.8391 64.4594 48.9073 63.7135 49.1307C63.3047 49.2531 62.8912 49.3609 62.4768 49.4633C62.4051 49.481 62.297 49.4634 62.243 49.4177C62.1557 49.344 62.0376 49.2453 62.2619 49.1574C62.9438 48.89 63.6424 48.6965 64.3641 48.5618C65.1883 48.4079 66.0172 48.392 66.8428 48.4376C67.8253 48.4919 68.7837 48.7158 69.707 49.0682C69.864 49.1281 70.0162 49.2054 70.1774 49.2476C70.2945 49.2783 70.4951 49.3141 70.5326 49.2602C70.6132 49.1435 70.6734 48.9532 70.636 48.8239C70.4065 48.0355 69.8355 47.5995 69.0692 47.3828C68.3949 47.1924 67.7039 47.165 67.014 47.2005C66.4065 47.2318 65.801 47.3157 65.1959 47.3851C64.7074 47.441 64.218 47.4942 63.7339 47.5772C63.088 47.6879 62.4417 47.8038 61.8062 47.96C61.3093 48.0821 60.8185 48.2438 60.3448 48.4363C60.0379 48.5609 59.8397 48.7949 59.8326 49.1849C59.8242 49.6505 60.198 49.7339 60.5206 49.6231C60.5482 49.6135 60.5749 49.6007 60.6138 49.5775Z" fill="#333333"/>
<path fill-rule="evenodd" clip-rule="evenodd" d="M40.2939 60.2981C40.527 60.8745 40.788 61.4273 40.9586 62.0067C41.1345 62.6039 41.2485 63.223 41.3407 63.8397C41.4135 64.3264 41.4401 64.8244 41.4373 65.3173C41.433 66.0455 41.3244 66.766 41.1595 67.4761C41.1293 67.6061 41.0348 67.6735 40.9309 67.6037C40.8644 67.5587 40.8184 67.4273 40.8249 67.339C40.8809 66.5829 40.9926 65.8287 41.0051 65.0725C41.0171 64.3468 40.8987 63.6276 40.7435 62.9113C40.5471 62.0053 40.234 61.1474 39.8252 60.3254C39.4791 59.6295 39.0411 58.9874 38.5351 58.3916C37.9921 57.7521 37.436 57.1192 36.9477 56.4389C36.3713 55.6359 35.9683 54.7327 35.7119 53.7763C35.5677 53.2382 35.4538 52.6877 35.3826 52.1355C35.3115 51.5844 35.3219 51.0234 35.2751 50.4685C35.2451 50.1132 35.1353 49.7896 34.8008 49.5821C34.1023 49.1487 34.2829 48.3456 34.6315 47.8727C34.9292 47.4689 35.3894 47.3016 35.8579 47.2521C36.5516 47.1786 37.2539 47.1425 37.9511 47.157C38.574 47.1699 39.1992 47.2468 39.8159 47.3429C40.5439 47.4563 41.2743 47.5825 41.9843 47.7747C42.5954 47.94 43.1901 48.1812 43.7718 48.435C44.2251 48.6328 44.5517 48.9957 44.5102 49.5204C44.4902 49.7735 44.3178 50.0229 44.1848 50.2572C43.9366 50.6942 43.8051 51.1631 43.7165 51.6536C43.5937 52.3339 43.5756 53.0182 43.5746 53.7062C43.574 54.1443 43.5923 54.5767 43.7198 54.9991C43.7256 55.0184 43.7072 55.045 43.7 55.0683C43.5107 55.0083 43.3186 55.0041 43.3268 54.6897C43.3371 54.2998 43.2183 53.9082 43.2039 53.5155C43.169 52.5685 43.3535 51.6464 43.5782 50.732C43.6256 50.539 43.5636 50.3749 43.4029 50.2813C43.0546 50.0782 42.7035 49.8739 42.3347 49.7133C41.7324 49.4511 41.1226 49.2013 40.5011 48.9899C40.1448 48.8686 39.7609 48.8224 39.3864 48.7612C38.2159 48.5697 37.1601 48.9615 36.1214 49.4247C35.8346 49.5525 35.682 49.7851 35.6592 50.0983C35.6401 50.3603 35.5972 50.6251 35.6172 50.8846C35.6607 51.4528 35.7106 52.0232 35.8087 52.5839C35.8975 53.0915 36.0188 53.5994 36.1875 54.0858C36.5165 55.0339 36.9992 55.9036 37.6316 56.6896C38.3548 57.5885 39.073 58.4919 39.7738 59.4082C39.9776 59.6746 40.1145 59.9922 40.2939 60.2981ZM35.1369 47.9765C35.0373 48.0761 34.9291 48.1686 34.84 48.2769C34.6741 48.4784 34.6616 48.9359 34.8049 49.1547C34.9145 49.322 35.2475 49.3904 35.5376 49.2796C35.967 49.1155 36.3883 48.9309 36.815 48.7599C37.3279 48.5544 37.8502 48.3846 38.411 48.3801C38.698 48.3778 38.9859 48.3658 39.2718 48.3838C39.5347 48.4002 39.8008 48.4286 40.056 48.4908C40.8555 48.6861 41.6158 48.9888 42.3427 49.3755C42.7596 49.5972 43.1952 49.7664 43.6623 49.8517C43.9058 49.8962 44.1799 49.7512 44.1868 49.5221C44.1942 49.2749 44.0986 49.0218 43.8723 48.909C43.4092 48.6783 42.9342 48.4639 42.447 48.2909C41.6793 48.0183 40.892 47.8051 40.0784 47.7173C39.2748 47.6305 38.4706 47.5438 37.6647 47.485C37.3346 47.4609 36.9991 47.5093 36.666 47.526C36.1317 47.5529 35.6135 47.6381 35.1369 47.9765Z" fill="#333333"/>
<path fill-rule="evenodd" clip-rule="evenodd" d="M52.813 45.3319C53.4063 45.3121 53.9881 45.3107 54.5693 45.2928C54.7752 45.2865 54.9881 45.2848 55.1537 45.1095C55.272 44.9842 55.2818 44.7583 55.1452 44.6527C54.9217 44.4798 54.84 44.2095 54.9595 44.0384C55.0422 43.9202 55.4865 43.8767 55.6488 43.9704C55.8832 44.1057 56.0109 44.3235 56.0951 44.5681C56.1881 44.8384 56.2669 45.1136 56.3536 45.3861C56.3646 45.4205 56.3864 45.4515 56.4031 45.4841C56.4275 45.4559 56.4582 45.4312 56.4753 45.3992C56.951 44.5062 57.6878 43.927 58.6436 43.6298C59.6841 43.3062 60.6669 43.4519 61.6131 43.9965C62.1134 44.2847 62.5103 44.6536 62.7649 45.1642C63.0651 45.7649 63.0125 46.3895 62.8247 47.0094C62.8048 47.0755 62.7042 47.1172 62.6412 47.1703C62.5938 47.0635 62.4894 46.9456 62.5074 46.8516C62.6483 46.1287 62.4268 45.4991 62.011 44.9343C61.3504 44.0365 60.4026 43.7708 59.3526 43.883C58.3112 43.9943 57.5142 44.556 56.8992 45.3991C56.5989 45.8108 56.394 46.2601 56.2376 46.739C56.1666 46.9562 55.9635 47.0494 55.7765 47.0096C55.6108 46.9743 55.6432 46.881 55.6712 46.7817C55.763 46.4564 55.9082 46.1372 55.9396 45.8069C55.9656 45.5331 55.8601 45.2467 55.8112 44.9662C55.8086 44.9512 55.7908 44.9389 55.78 44.9254C55.7592 44.9562 55.7326 44.9847 55.7184 45.0184C55.611 45.2724 55.4374 45.4668 55.1808 45.567C55.0375 45.6229 54.8801 45.6663 54.7277 45.671C54.2856 45.6846 53.8427 45.672 53.4002 45.6765C52.0474 45.6904 50.6947 45.7162 49.342 45.7167C49.0259 45.7168 48.7002 45.6834 48.4195 45.4879C48.1502 45.3004 48.0265 45.0435 48.0834 44.7343C48.0893 44.7024 48.1046 44.6723 48.1155 44.6413C48.083 44.652 48.0479 44.658 48.0182 44.674C47.3017 45.0623 46.7836 45.6277 46.5223 46.4046C46.4307 46.6772 46.4036 46.9709 46.3238 47.2482C46.2706 47.4333 46.2275 47.6498 46.0005 47.7131C45.7529 47.7823 45.6119 47.628 45.5676 47.2915C45.4736 46.5767 45.1788 45.9487 44.7345 45.3837C44.2671 44.7893 43.698 44.3253 43.0004 44.0351C42.2459 43.7211 41.4735 43.6197 40.7184 44.0208C40.313 44.2361 39.9795 44.7615 40.1016 45.3315C40.2202 45.8854 40.5369 46.2876 40.8732 46.6998C40.9526 46.7971 41.0487 46.9309 41.0396 47.0397C41.0215 47.254 40.7418 47.3308 40.5863 47.1535C40.4067 46.9488 40.2444 46.7142 40.1351 46.4659C39.9853 46.1256 39.8803 45.7638 39.7778 45.405C39.6243 44.8674 39.8433 44.0416 40.4733 43.7168C41.1883 43.3482 41.8988 43.3274 42.6558 43.5362C43.5371 43.7792 44.268 44.2531 44.8757 44.9177C45.3304 45.4149 45.667 45.9902 45.8552 46.6446C45.8671 46.6859 45.8971 46.722 45.9187 46.7604C45.9299 46.7219 45.9382 46.6823 45.9526 46.645C46.3707 45.5618 47.0478 44.7022 48.0985 44.1686C48.1954 44.1195 48.3037 44.0836 48.4107 44.0658C48.6412 44.0276 48.7921 44.223 48.7136 44.4504C48.6827 44.54 48.6383 44.6248 48.6048 44.7136C48.4841 45.0341 48.548 45.2217 48.9331 45.2959C48.9484 45.2989 48.9647 45.2961 48.9805 45.2963C50.254 45.3121 51.5276 45.3279 52.813 45.3319Z" fill="#333333"/>
<path fill-rule="evenodd" clip-rule="evenodd" d="M51.3075 68.8246C51.3641 68.8407 51.3967 68.8692 51.4301 68.8701C51.9688 68.8886 52.5075 68.909 53.0463 68.9133C53.1206 68.9138 53.2255 68.846 53.2649 68.7795C53.4589 68.4527 53.762 68.402 54.0533 68.6505C54.2486 68.817 54.4491 68.9821 54.666 69.1178C54.9318 69.2843 54.9916 69.2326 55.0109 68.9233C55.0232 68.7278 54.8514 68.5172 55.0451 68.3393C55.1194 68.271 55.2162 68.2274 55.3027 68.1724C55.3146 68.1913 55.3312 68.2084 55.3375 68.2293C55.5297 68.8564 56.08 69.0224 56.5639 69.0608C57.1274 69.1054 57.626 68.8597 58.1449 68.7013C58.4273 68.6149 58.7163 68.5315 59.008 68.5006C59.3207 68.4679 59.4194 68.632 59.2661 68.8962C59.1891 69.0286 59.1559 69.0646 59.3478 69.0656C60.0749 69.0684 60.6937 68.8075 61.2201 68.3194C61.3087 68.2369 61.314 68.2914 61.34 68.3536C61.4529 68.6216 61.4306 68.8773 61.2784 69.1258C61.2613 69.1533 61.2817 69.2411 61.3002 69.2463C61.4425 69.2876 61.5876 69.3346 61.7336 69.3421C62.0063 69.3559 62.287 69.3198 62.526 69.4916C62.592 69.5385 62.6351 69.6177 62.6887 69.6823C62.6195 69.697 62.5507 69.7216 62.481 69.7245C61.9897 69.743 61.4984 69.7691 61.0071 69.7681C60.798 69.7676 60.5768 69.7259 60.5376 69.4479C60.5331 69.4157 60.5213 69.3806 60.5289 69.3507C60.5445 69.2895 60.571 69.2311 60.5931 69.1718C60.528 69.1951 60.4633 69.2202 60.3976 69.242C59.995 69.3768 59.5953 69.5219 59.1875 69.6391C59.0391 69.6813 58.8667 69.6823 58.7132 69.6562C58.4692 69.614 58.4904 69.3943 58.5247 69.2316C58.5557 69.085 58.5414 69.058 58.3964 69.0594C57.8407 69.0637 57.3681 69.27 56.9399 69.6125C56.8032 69.7216 56.6413 69.8027 56.4834 69.8815C56.3004 69.973 56.1277 69.9185 56.0209 69.7596C55.9258 69.6182 55.9726 69.4844 56.1023 69.3521C56.2081 69.2439 56.0647 69.1638 55.9832 69.1657C55.8797 69.1676 55.7393 69.2027 55.6813 69.2762C55.4458 69.5746 55.1537 69.5504 54.834 69.4854C54.4095 69.3991 53.9831 69.3194 53.5549 69.2539C52.9805 69.1657 52.4042 69.0898 51.8277 69.0163C51.6144 68.9892 51.3987 68.9731 51.1837 68.9688C50.2578 68.9489 49.3314 68.9133 48.4059 68.9271C47.7217 68.937 47.0315 68.9707 46.3573 69.0784C45.9518 69.1429 45.6103 69.0471 45.2642 68.9076C45.181 68.8744 45.1126 68.7136 45.104 68.6064C45.0904 68.4366 44.9973 68.4816 44.9172 68.5077C44.2825 68.7108 43.6536 68.9332 43.0143 69.1201C42.6753 69.2193 42.6124 69.1903 42.4369 68.8872C42.4182 68.855 42.3464 68.8175 42.3232 68.8294C42.0562 68.9655 41.8374 68.8279 41.6312 68.698C41.3326 68.5092 41.021 68.3944 40.664 68.3963C39.4341 68.4029 38.2396 68.614 37.0801 69.0186C36.8883 69.085 36.713 69.2013 36.5333 69.2999C36.4147 69.3654 36.3225 69.3573 36.2392 69.2416C36.1572 69.1277 36.1057 69.0068 36.1952 68.8853C36.3398 68.688 36.5508 68.5832 36.7859 68.5419C37.362 68.4409 37.9387 68.3427 38.5174 68.2592C38.7687 68.2226 39.0254 68.2241 39.2797 68.2079C39.3333 68.2046 39.387 68.1999 39.4406 68.1961C39.4149 68.1467 39.3906 68.0965 39.3629 68.0481C39.337 68.003 39.3159 67.9504 39.2781 67.9181C39.1087 67.7748 39.1171 67.531 39.1993 67.4305C39.2737 67.3399 39.542 67.3323 39.6856 67.3882C40.2361 67.6036 40.7713 67.8579 41.3111 68.0998C41.4347 68.1553 41.4344 68.1591 41.4439 68.0158C41.4614 67.754 41.7382 67.5908 41.9804 67.7355C42.2193 67.8783 42.4341 68.0656 42.6441 68.2511C42.893 68.4707 43.1944 68.5357 43.4921 68.484C44.1542 68.3697 44.8048 68.1842 45.4857 68.2084C45.9087 68.2231 46.3317 68.2378 46.7544 68.2573C46.8114 68.2601 46.8725 68.2796 46.9219 68.308C46.9676 68.3346 47.0001 68.3835 47.0383 68.4228C46.9861 68.4304 46.934 68.4385 46.8816 68.4451C46.4904 68.4926 46.0991 68.54 45.7078 68.5879C45.6786 68.5917 45.65 68.6007 45.6211 68.6069C45.654 68.6164 45.6867 68.633 45.7199 68.6339C46.3297 68.651 46.9397 68.6629 47.5494 68.6833C48.3742 68.7112 49.1987 68.7459 50.0232 68.7772C50.4434 68.7933 50.8636 68.809 51.3075 68.8246Z" fill="#333333"/>
<path fill-rule="evenodd" clip-rule="evenodd" d="M19.8792 37.5996C19.5092 37.4983 19.1538 37.396 18.7924 37.3225C18.2673 37.2158 17.7562 37.272 17.2605 37.4889C16.6354 37.7624 16.1884 38.2117 15.8842 38.8164C15.8423 38.8995 15.7735 38.9935 15.6936 39.0281C15.5262 39.1006 15.3241 38.8971 15.3805 38.7134C15.4208 38.5822 15.4835 38.4514 15.5635 38.3399C15.9028 37.867 16.3657 37.5339 16.8887 37.3076C17.2364 37.1572 17.6197 37.0825 17.9925 36.9978C18.6116 36.8572 19.1907 37.0447 19.7852 37.2005C20.142 37.2939 20.5524 37.2883 20.9182 37.2188C21.6191 37.0857 22.2944 37.0442 22.9692 37.3248C23.8996 37.7117 24.8429 38.0683 25.7653 38.4729C26.0608 38.6026 26.3493 38.8047 26.5689 39.0408C27.2943 39.8206 28.2171 40.1795 29.2274 40.3587C29.9682 40.4901 30.7223 40.5518 31.4579 40.705C32.0522 40.8287 32.6375 41.016 33.2089 41.2242C33.7636 41.4263 34.2917 41.7002 34.8386 41.9253C35.3008 42.1156 35.4661 42.4771 35.4661 42.9401C35.466 43.1707 35.4538 43.404 35.4179 43.6314C35.3453 44.0903 34.9265 44.3198 34.4414 44.1993C33.5377 43.9748 32.6333 43.7526 31.7259 43.5437C31.1764 43.4172 30.7616 43.614 30.4502 44.2399C29.896 45.3538 28.98 46.0939 27.9853 46.7656C27.6471 46.9939 27.3165 47.2431 26.9521 47.4205C26.6262 47.5791 26.265 47.7104 25.9078 47.7502C25.239 47.8248 24.5736 47.7558 23.9633 47.4241C23.8766 47.377 23.7791 47.3379 23.7116 47.2701C23.5943 47.1523 23.5541 46.9778 23.6869 46.8743C23.8347 46.7592 24.0277 46.7817 24.1941 46.896C24.3844 47.0266 24.5631 47.1869 24.7716 47.2762C25.5454 47.6076 26.3913 47.5282 27.0541 46.9527C27.4626 46.598 27.8969 46.2845 28.3893 46.0542C28.8882 45.8209 29.324 45.5091 29.574 44.9988C29.7024 44.7368 29.8145 44.4659 29.9187 44.1933C30.1147 43.6802 30.6529 43.1767 31.2675 43.197C31.857 43.2165 32.4193 43.3525 32.9895 43.4596C33.6102 43.5762 34.2248 43.7281 34.8483 43.8244C34.9249 43.8362 35.0969 43.6128 35.1271 43.4767C35.2723 42.8235 34.9313 42.3638 34.4717 42.0958C33.7084 41.6505 32.8606 41.4303 32.0136 41.2214C31.4004 41.0702 30.7779 40.9539 30.156 40.8413C29.8494 40.7858 29.5348 40.7462 29.2241 40.7477C28.4622 40.7513 27.8045 40.4994 27.2251 40.0154C26.5294 39.4341 25.8293 38.8577 24.9885 38.4895C24.0343 38.0716 23.0571 37.7132 22.0418 37.4808C21.7737 37.4194 21.4678 37.4728 21.1881 37.523C20.7569 37.6005 20.3331 37.718 19.8792 37.5996Z" fill="#333333"/>
<path fill-rule="evenodd" clip-rule="evenodd" d="M26.4589 60.144C26.1428 60.144 25.8505 60.1434 25.5581 60.1441C25.3073 60.1448 25.0683 60.1386 24.8259 60.0212C24.6426 59.9325 24.4311 60.0137 24.2522 60.1419C23.9214 60.379 23.8426 60.748 23.7641 61.1013C23.6934 61.4194 23.6529 61.755 23.6685 62.0795C23.7151 63.0503 23.9877 63.9535 24.6126 64.7196C24.8291 64.9848 25.0777 65.2243 25.3151 65.472C25.3481 65.5066 25.4011 65.5218 25.4449 65.546C25.4402 65.4976 25.4429 65.4473 25.4298 65.4013C25.2862 64.8966 25.5964 64.4326 26.0605 64.4606C26.3282 64.4767 26.5649 64.6784 26.6706 64.9255C26.7342 65.074 26.6732 65.1632 26.5705 65.2077C26.5317 65.2248 26.4295 65.1143 26.3657 65.0522C26.3182 65.0057 26.297 64.9217 26.2437 64.8947C26.1853 64.8657 26.091 64.8586 26.0358 64.8871C25.9852 64.9132 25.8823 64.9563 25.9942 65.0778C26.1169 65.2106 26.0076 65.5085 25.8277 65.6375C25.7871 65.6665 25.745 65.6935 25.7036 65.7215C25.7575 65.7438 25.813 65.7632 25.865 65.7893C26.0936 65.9055 26.3343 66.0047 26.5431 66.1494C26.6295 66.2091 26.6962 66.3728 26.6874 66.4819C26.6506 66.934 26.555 67.3822 26.5309 67.8348C26.4995 68.4263 26.1778 68.9681 26.2662 69.5786C26.3435 70.1113 26.4043 70.6473 26.4557 71.1833C26.4883 71.523 26.4934 71.8655 26.5025 72.207C26.5036 72.2488 26.4535 72.2924 26.4271 72.3351C26.3954 72.301 26.3457 72.2711 26.3349 72.2312C26.2908 72.0666 26.2407 71.9001 26.2252 71.7317C26.1835 71.2796 26.1657 70.8247 26.1252 70.3727C26.0688 69.7422 25.999 69.1127 25.938 68.4828C25.9172 68.2684 25.9056 68.0535 25.8898 67.8386C25.8582 67.4093 25.8312 66.979 25.7926 66.5502C25.7782 66.3903 25.7324 66.2969 25.52 66.2419C25.2834 66.1802 25.0359 65.9914 24.8889 65.7888C24.5422 65.3107 24.2293 64.8041 23.9458 64.2851C23.654 63.751 23.5047 63.167 23.4154 62.5594C23.3131 61.8624 23.4091 61.1981 23.6703 60.5652C23.8635 60.0971 24.2795 59.6322 24.9107 59.6163C25.4614 59.6023 25.9913 59.7034 26.5258 59.8043C26.8661 59.8686 27.2123 59.9008 27.5546 59.9554C27.9164 60.0132 28.2774 60.077 28.6374 60.1454C28.8425 60.1843 28.9252 60.3369 28.9219 60.5272C28.9165 60.837 28.8981 61.1468 28.8764 61.456C28.8131 62.3527 28.6773 63.2377 28.2552 64.0432C27.9844 64.5598 27.6308 65.0237 27.12 65.3382C27.0686 65.37 27.002 65.3766 26.9425 65.3951C26.9697 65.3301 26.9827 65.2523 27.027 65.2021C27.1416 65.0721 27.2655 64.9487 27.3937 64.8316C27.9509 64.3221 28.2324 63.6637 28.4013 62.9488C28.5534 62.3052 28.6079 61.6499 28.5933 60.9887C28.5911 60.8906 28.5928 60.7922 28.5981 60.6942C28.6123 60.4298 28.3837 60.4182 28.2318 60.3893C27.7804 60.3034 27.3219 60.2542 26.866 60.1916C26.7384 60.1741 26.6104 60.1598 26.4589 60.144Z" fill="#333333"/>
<path fill-rule="evenodd" clip-rule="evenodd" d="M72.8367 62.8477C73.0628 62.8923 73.2644 62.944 73.4688 62.9801C73.6755 63.0166 73.749 63.1513 73.7353 63.3363C73.694 63.8937 73.639 64.4506 73.5959 65.008C73.5437 65.6901 73.3412 66.3262 73.0259 66.9296C72.7484 67.4604 72.3568 67.8869 71.8565 68.2142C71.829 68.2322 71.792 68.2355 71.7593 68.2455C71.7668 68.2128 71.7649 68.172 71.7839 68.1492C71.8968 68.014 72.0039 67.8712 72.1334 67.7536C72.6185 67.312 72.9505 66.7721 73.1136 66.1441C73.2298 65.6967 73.299 65.2338 73.3521 64.7736C73.3972 64.3804 73.3839 63.981 73.4076 63.5849C73.4204 63.369 73.3033 63.259 73.1202 63.231C72.5379 63.1418 71.9551 63.0531 71.3699 62.9952C70.9365 62.9525 70.4983 62.9611 70.0625 62.9412C69.9506 62.9359 69.833 62.9274 69.7292 62.8895C69.3342 62.7467 69.024 62.8553 68.8325 63.2248C68.6266 63.6224 68.555 64.0498 68.5138 64.4942C68.4507 65.1821 68.5612 65.8376 68.8092 66.47C69.0947 67.1962 69.5219 67.8276 70.1569 68.3015C70.1854 68.3224 70.2214 68.3328 70.2541 68.3484C70.2461 68.31 70.2404 68.2716 70.2299 68.2341C70.1474 67.9263 70.1982 67.6673 70.4448 67.4362C70.6359 67.2579 70.873 67.2603 71.0508 67.3252C71.23 67.3907 71.3718 67.5928 71.4928 67.7617C71.5231 67.8039 71.4093 67.9486 71.3619 68.0463C71.3159 68.0088 71.2405 67.978 71.2291 67.932C71.1859 67.7503 71.0778 67.6535 70.9019 67.6957C70.8407 67.7104 70.7525 67.8565 70.7715 67.9059C70.8113 68.0093 70.965 68.0904 70.8521 68.2161C70.7539 68.3257 70.6193 68.403 70.4988 68.4917C70.4775 68.5074 70.4467 68.5102 70.4201 68.5187C70.4471 68.5301 70.4746 68.5401 70.5012 68.5524C70.7663 68.6743 71.0437 68.7763 71.2907 68.9276C71.3965 68.9926 71.497 69.162 71.497 69.2834C71.497 69.5851 71.4501 69.8887 71.3998 70.1876C71.3192 70.6652 71.1674 71.1372 71.1433 71.6163C71.1153 72.1718 71.1916 72.733 71.2248 73.2913C71.2372 73.5062 71.2594 73.7206 71.2708 73.936C71.2893 74.2846 71.2974 74.6343 71.322 74.9829C71.3306 75.1015 71.2846 75.1589 71.1807 75.1475C71.1433 75.1432 71.0901 75.0617 71.0859 75.0114C71.0475 74.5745 71.0266 74.1362 70.9849 73.6998C70.9299 73.1168 70.8592 72.5352 70.798 71.9527C70.7772 71.7544 70.7644 71.5552 70.7501 71.3559C70.7179 70.911 70.6913 70.4651 70.6534 70.0201C70.6311 69.7559 70.5951 69.4926 70.5571 69.2303C70.5505 69.1867 70.5069 69.1198 70.4723 69.1141C69.9834 69.0349 69.7372 68.6421 69.4612 68.3086C69.015 67.7707 68.7001 67.1483 68.4915 66.4847C68.3388 65.9989 68.2515 65.4966 68.2236 64.9781C68.198 64.5037 68.235 64.0517 68.3801 63.6062C68.6741 62.703 69.393 62.271 70.3637 62.464C70.8867 62.5678 71.4192 62.6252 71.947 62.7059C72.2363 62.7505 72.5241 62.8003 72.8367 62.8477Z" fill="#333333"/>
<path fill-rule="evenodd" clip-rule="evenodd" d="M40.2582 74.6594C39.879 74.6594 39.5234 74.6551 39.1679 74.6603C38.1868 74.6736 37.2057 74.6907 36.2246 74.7068C35.3067 74.7225 34.3889 74.7391 33.471 74.7543C32.4741 74.7709 31.4772 74.7846 30.4804 74.8022C29.7204 74.8159 28.9607 74.8363 28.2007 74.8487C27.0696 74.8667 25.9383 74.8785 24.8072 74.8975C24.2289 74.9075 23.6493 74.963 23.0731 74.9364C22.1009 74.8913 21.125 74.8131 20.2486 74.324C19.8497 74.1011 19.4608 73.861 19.2279 73.4327C19.0177 73.0465 19.041 72.6898 19.5373 72.5252C20.7046 72.1381 21.8721 71.752 23.0403 71.3677C23.2777 71.2899 23.521 71.2539 23.7494 71.39C23.8124 71.4275 23.8492 71.5091 23.8981 71.5703C23.8387 71.604 23.7833 71.6514 23.7196 71.669C22.9246 71.8872 22.1286 72.1021 21.3325 72.316C20.6568 72.4972 19.9822 72.6832 19.3033 72.8516C19.168 72.8848 19.1912 72.8981 19.2571 72.9849C19.9132 73.8506 20.8149 74.3155 21.8441 74.5617C22.5035 74.7196 23.1729 74.8098 23.8548 74.8055C24.2985 74.8022 24.7425 74.8477 25.1862 74.8458C25.8355 74.843 26.4847 74.8183 27.134 74.8017C27.7279 74.7865 28.3218 74.7694 28.9158 74.7547C29.5729 74.7381 30.2301 74.7234 30.8872 74.7068C31.4733 74.6916 32.0592 74.6746 32.6453 74.6599C33.2945 74.6433 33.9438 74.629 34.593 74.6115C35.1159 74.5977 35.6386 74.5783 36.1615 74.565C36.8818 74.547 37.6022 74.5337 38.3225 74.5171C38.9402 74.5024 39.5578 74.4853 40.1754 74.4696C40.8088 74.4535 41.4423 74.4379 42.0757 74.4222C42.725 74.4061 43.3742 74.3909 44.0235 74.3748C44.6727 74.3591 45.3219 74.3321 45.9712 74.3311C46.5256 74.3302 47.0804 74.352 47.6344 74.3771C48.0721 74.3971 48.509 74.4379 48.9462 74.4706C48.9749 74.4725 49.0027 74.4858 49.031 74.4934C49.0026 74.5014 48.9744 74.51 48.9458 74.5171C48.9384 74.519 48.9301 74.5171 48.9222 74.5171C48.1703 74.5332 47.4184 74.5541 46.6663 74.5636C45.0848 74.583 43.5032 74.5934 41.9217 74.6134C41.375 74.6205 40.8285 74.6437 40.2582 74.6594Z" fill="#333333"/>
<path fill-rule="evenodd" clip-rule="evenodd" d="M56.4761 54.0246C56.4713 53.1408 56.6326 52.3194 57.0454 51.557C57.2003 51.271 57.3757 51.0026 57.6599 50.8231C57.9993 50.6089 58.4751 50.6358 58.6779 51.013C58.7795 51.2022 58.7244 51.4979 58.6849 51.7363C58.5999 52.2491 58.4745 52.7552 58.3742 53.2657C58.2734 53.7786 58.1757 54.2923 58.0929 54.8083C58.0696 54.9531 58.0487 55.1873 58.1237 55.2384C58.2407 55.3182 58.4457 55.3077 58.6037 55.2799C58.8781 55.2316 59.1449 55.14 59.4157 55.0698C59.4419 55.063 59.474 55.0789 59.5034 55.0843C59.4901 55.1083 59.4762 55.132 59.4637 55.1564C59.4369 55.2085 59.4079 55.2597 59.3851 55.3136C59.3415 55.4169 59.3205 55.4769 59.1544 55.466C58.9661 55.4536 58.773 55.608 58.5738 55.6413C58.3673 55.6759 58.1452 55.6841 57.9404 55.6465C57.6403 55.5913 57.4779 55.6476 57.4719 55.873C57.4647 56.145 57.6285 56.2508 57.8738 56.1083C58.1825 55.9291 58.4777 55.9175 58.776 56.1138C58.809 56.1355 58.8504 56.1922 58.8428 56.2207C58.7858 56.4359 58.6008 56.4898 58.3637 56.4694C58.1301 56.4493 57.8891 56.5111 57.6525 56.5446C57.646 56.5455 57.6434 56.6732 57.6531 56.6752C57.897 56.7266 57.8919 56.892 57.8519 57.081C57.7599 57.5153 57.7078 57.9641 57.3852 58.3111C57.3674 58.3302 57.362 58.3609 57.3508 58.3862C57.3438 58.3575 57.3295 58.3284 57.3308 58.3001C57.3448 57.9825 57.3538 57.6643 57.3796 57.3476C57.3985 57.1146 57.441 56.8836 57.4716 56.6515C57.4848 56.5515 57.4319 56.5258 57.3474 56.4661C57.1119 56.2997 57.0584 55.665 57.2826 55.4867C57.6854 55.1664 57.6845 54.6994 57.7987 54.2766C57.9395 53.7547 58.0463 53.2234 58.1594 52.6944C58.2234 52.395 58.3007 52.0937 58.3178 51.7901C58.3382 51.4254 58.0746 51.1834 57.7691 51.2849C57.6023 51.3403 57.4286 51.4869 57.3384 51.6398C57.0807 52.0768 56.9615 52.5674 56.9036 53.0706C56.8679 53.3811 56.8113 53.6928 56.8148 54.0034C56.8199 54.4491 56.8709 54.8943 56.903 55.3396C56.918 55.5466 56.9371 55.7533 56.9496 55.9604C56.9679 56.262 56.9822 56.5638 56.9976 56.8656C57.0138 57.1831 57.0489 57.5012 57.0402 57.8181C57.0294 58.2087 57.0201 58.6068 56.9367 58.9854C56.8821 59.2335 56.6975 59.4529 56.5705 59.6847C56.5645 59.6958 56.5525 59.7036 56.5432 59.7129C56.5367 59.6919 56.523 59.6704 56.5246 59.6501C56.5385 59.4825 56.5607 59.3155 56.57 59.1478C56.604 58.5287 56.6729 57.9082 56.6557 57.2902C56.6352 56.5563 56.5301 55.8252 56.4801 55.0916C56.4566 54.7454 56.4761 54.3961 56.4761 54.0246Z" fill="#F2994A"/>
<path fill-rule="evenodd" clip-rule="evenodd" d="M55.8123 75.8928C55.4183 75.8141 55.0475 75.7372 54.6778 75.6552C53.9326 75.4901 53.1881 75.3222 52.4431 75.1552C51.9152 75.0375 51.387 74.9199 50.8591 74.8013C50.8362 74.7961 50.8156 74.7804 50.7939 74.77C50.8155 74.7648 50.8383 74.7525 50.8585 74.7558C51.1617 74.8046 51.4664 74.8473 51.7673 74.9085C52.3418 75.0252 52.9136 75.1557 53.4875 75.2757C54.0336 75.3895 54.5795 75.5057 55.1283 75.6058C55.6229 75.6964 56.1223 75.7605 56.6176 75.8473C57.117 75.9346 57.6129 76.0423 58.1125 76.1276C58.5428 76.2016 58.9768 76.2538 59.4084 76.3207C59.8977 76.3966 60.3853 76.4839 60.8752 76.555C61.265 76.612 61.6581 76.6461 62.0484 76.7011C62.45 76.7571 62.8488 76.8325 63.2505 76.8871C63.5601 76.9293 63.8726 76.9473 64.1828 76.9853C64.6631 77.0441 65.1416 77.1148 65.622 77.1722C65.9554 77.212 66.2906 77.2419 66.6254 77.2675C67.2931 77.3183 67.9608 77.3643 68.6289 77.4103C69.1136 77.444 69.5982 77.4905 70.0833 77.5024C71.175 77.5289 72.2671 77.5507 73.3587 77.5479C73.9462 77.5465 74.5395 77.5318 75.1194 77.4483C75.945 77.3297 76.7763 77.1978 77.5754 76.9682C78.3621 76.7419 79.1014 76.3677 79.724 75.8084C79.8406 75.704 79.9336 75.5693 80.0597 75.4806C80.3604 75.2686 80.248 74.7017 79.9554 74.512C79.5775 74.2672 79.1469 74.2022 78.7296 74.0931C77.5512 73.7862 76.3704 73.4902 75.1891 73.1956C74.336 72.9831 73.4806 72.78 72.626 72.5723C72.4397 72.5267 72.2533 72.4817 72.0693 72.4271C72.0195 72.4124 71.9465 72.3678 71.9437 72.3313C71.9394 72.2829 71.9806 72.2132 72.0233 72.1809C72.2329 72.022 72.4672 72.0244 72.7076 72.0979C73.9002 72.4617 75.0924 72.8284 76.286 73.188C77.4037 73.5248 78.5261 73.8455 79.641 74.1913C79.8819 74.2662 80.1413 74.3768 80.3167 74.548C80.6345 74.8578 80.588 75.3288 80.239 75.6694C79.7861 76.112 79.2427 76.4251 78.676 76.7002C77.977 77.0403 77.242 77.2732 76.4799 77.4051C75.862 77.5123 75.237 77.602 74.6111 77.6404C73.6385 77.7006 72.6626 77.7315 71.6876 77.7362C70.982 77.7395 70.2754 77.6883 69.5698 77.6451C69.0116 77.6115 68.4544 77.5626 67.8982 77.5033C67.258 77.435 66.6207 77.3434 65.981 77.2699C65.5034 77.2154 65.0235 77.1826 64.547 77.1243C63.8423 77.0375 63.14 76.9322 62.4358 76.8435C61.9905 76.787 61.5419 76.7552 61.0966 76.6969C60.5671 76.6276 60.0402 76.5375 59.5113 76.463C59.0245 76.3947 58.5349 76.3458 58.0495 76.2695C57.533 76.1888 57.0202 76.0845 56.5051 75.9939C56.2829 75.955 56.0591 75.9265 55.8123 75.8928Z" fill="#333333"/>
<path fill-rule="evenodd" clip-rule="evenodd" d="M40.0212 36.7103C40.5347 36.7103 41.0248 36.6985 41.5142 36.7131C42.2682 36.7354 43.0129 36.8309 43.7258 37.0935C43.8412 37.136 43.9435 37.2211 44.0432 37.2978C44.1329 37.3667 44.1451 37.4616 44.0809 37.5581C44.01 37.6648 43.9292 37.6791 43.8094 37.6143C43.2657 37.3202 42.6828 37.1592 42.0639 37.1378C41.5255 37.1193 40.9868 37.1065 40.4484 37.0896C39.9888 37.075 39.5262 37.0853 39.0705 37.0345C38.6432 36.9869 38.2246 36.8659 37.7996 36.7916C37.4874 36.737 37.1848 36.6066 36.8506 36.7026C36.7281 36.7379 36.7491 36.7463 36.8199 36.8044C37.1209 37.0515 37.4589 37.2416 37.8369 37.3217C38.5232 37.467 39.2181 37.5706 39.9058 37.7095C40.4628 37.8219 41.0115 37.9771 41.4704 38.3304C41.5762 38.4117 41.6647 38.5825 41.6665 38.7135C41.6684 38.8489 41.542 38.9685 41.3637 38.9485C41.3427 38.9461 41.3123 38.9452 41.303 38.9319C40.9116 38.3729 40.3172 38.1705 39.6938 38.044C39.2439 37.9527 38.7807 37.9277 38.3286 37.8449C37.7521 37.7393 37.1891 37.5976 36.7252 37.1928C36.4698 36.9699 36.3008 36.7177 36.2088 36.3918C36.1534 36.1954 36.2132 36.0633 36.3483 35.9547C36.4702 35.8567 36.5829 35.9042 36.7208 35.9834C37.2336 36.2782 37.7776 36.5051 38.3737 36.5663C38.9142 36.6218 39.4562 36.6629 40.0212 36.7103Z" fill="#F2994A"/>
<path fill-rule="evenodd" clip-rule="evenodd" d="M34.7694 65.2552C34.3002 64.7604 34.029 64.1883 33.8985 63.5356C33.811 63.0978 33.7887 62.6675 33.9066 62.2389C34.0349 61.7718 34.3271 61.327 34.9541 61.3844C35.5222 61.4364 36.085 61.5468 36.6496 61.6348C36.7589 61.6519 36.8663 61.6825 36.9738 61.7097C37.3147 61.796 37.3585 61.8434 37.3648 62.1775C37.3857 63.2828 37.0528 64.2505 36.2485 65.0341C36.1936 65.0872 36.1473 65.1494 36.0971 65.2077C36.1283 65.1053 36.1285 64.971 36.1958 64.906C36.6115 64.5057 36.8775 64.0213 37.0449 63.4768C37.1931 62.9948 37.2249 62.5034 37.1243 62.0105C37.0815 61.8011 36.859 61.8306 36.7182 61.8125C36.0833 61.7304 35.4447 61.676 34.8071 61.6151C34.433 61.5795 34.1838 61.7583 34.0948 62.1369C33.8307 63.26 34.0929 64.24 34.9108 65.0611C34.9609 65.1114 35.0368 65.1356 35.1008 65.1721C35.1128 65.1086 35.1352 65.045 35.1352 64.981C35.1355 64.5133 34.9973 64.0878 34.734 63.7021C34.5767 63.4716 34.6246 63.1428 34.868 63.0067C35.0896 62.8829 35.3288 62.7728 35.5738 62.7126C35.9647 62.6163 36.4125 63.1722 36.2603 63.5845C36.1702 63.8278 35.9823 64.0351 35.8364 64.2571C35.8215 64.2799 35.7927 64.2936 35.7704 64.3117C35.7647 64.2822 35.745 64.2462 35.7557 64.2253C35.8062 64.1271 35.8497 64.019 35.9234 63.9402C36.1685 63.6784 36.1543 63.2306 35.8815 62.9996C35.6739 62.8241 35.213 62.8691 35.0421 63.0816C34.8296 63.3454 34.8678 63.7638 35.1247 63.9478C35.1585 63.972 35.2081 63.9739 35.2504 63.9862C35.2442 63.9507 35.2235 63.9089 35.2345 63.8795C35.2626 63.8046 35.288 63.7097 35.3465 63.6713C35.3955 63.6385 35.53 63.6475 35.5546 63.685C35.5965 63.7491 35.6088 63.8586 35.5846 63.9336C35.5467 64.0498 35.4676 64.1532 35.4066 64.2623C35.343 64.3757 35.3506 64.4317 35.5015 64.4772C35.8544 64.5839 35.9048 64.6736 35.8536 64.963C35.8499 64.9838 35.8654 65.0075 35.872 65.0298C35.8506 65.0241 35.8214 65.0256 35.8096 65.0118C35.7915 64.9905 35.7924 64.952 35.7731 64.9335C35.6898 64.8524 35.6021 64.7761 35.5159 64.6978C35.4969 64.7879 35.4781 64.8785 35.4583 64.9686C35.4569 64.9753 35.4458 64.9791 35.4424 64.9857C35.3892 65.0887 35.3365 65.1921 35.2837 65.2955C35.3865 65.3334 35.493 65.3638 35.5912 65.4108C35.8212 65.5218 35.9154 65.869 35.8443 66.2006C35.7675 66.5592 35.6878 66.9221 35.6661 67.2864C35.6359 67.793 35.6539 68.3029 35.6607 68.811C35.6635 69.0259 35.6912 69.2408 35.7045 69.4556C35.7061 69.4808 35.6883 69.5073 35.6794 69.5334C35.6683 69.5064 35.6558 69.4803 35.6462 69.4528C35.6024 69.3285 35.5362 69.2066 35.5211 69.079C35.4893 68.811 35.4833 68.5396 35.4691 68.2697C35.4366 67.6507 35.4227 67.0298 35.367 66.4131C35.3379 66.0915 35.3586 65.7328 35.0289 65.5099C34.9346 65.4463 34.8631 65.3491 34.7694 65.2552Z" fill="#F2994A"/>
<path fill-rule="evenodd" clip-rule="evenodd" d="M64.2418 64.6148C64.6344 64.8274 64.7259 65.2268 64.5073 65.6461C64.4528 65.7505 64.339 65.8254 64.2484 65.9094C64.2328 65.9241 64.1958 65.9155 64.1687 65.9179C64.173 65.8909 64.1683 65.8562 64.1834 65.8382C64.2347 65.7785 64.292 65.7244 64.3485 65.6689C64.5211 65.4986 64.531 65.038 64.3442 64.8658C64.1265 64.6656 63.7704 64.6006 63.5101 64.8549C63.3237 65.0375 63.2516 65.38 63.5101 65.6006C63.5413 65.6271 63.5527 65.6765 63.5821 65.7073C63.6002 65.7263 63.6343 65.7301 63.6613 65.741C63.6656 65.7139 63.6665 65.686 63.6741 65.6599C63.6983 65.5778 63.7102 65.4843 63.7595 65.4208C63.7761 65.399 63.924 65.4317 63.952 65.4772C63.989 65.5375 63.9909 65.6418 63.9662 65.713C63.9331 65.8083 63.8482 65.8847 63.8074 65.9786C63.7576 66.093 63.7718 66.185 63.9264 66.2206C64.016 66.241 64.118 66.2903 64.1716 66.3595C64.2242 66.4269 64.2223 66.5365 64.2446 66.628C64.1787 66.5877 64.0948 66.5612 64.0497 66.5042C63.9435 66.3705 63.925 66.4464 63.8937 66.5498C63.8686 66.6333 63.8268 66.7115 63.7955 66.7931C63.7543 66.9017 63.5821 67.0384 63.8975 67.0322C64.1574 67.0275 64.3191 67.4392 64.2475 67.7684C64.1706 68.119 64.1095 68.4747 64.0682 68.8315C64.0317 69.1464 64.007 69.4671 64.0232 69.783C64.0397 70.1208 64.1137 70.4557 64.154 70.7925C64.1611 70.8541 64.1256 70.9206 64.1095 70.9846C64.0786 70.9414 64.0307 70.9021 64.0194 70.8537C63.98 70.6872 63.9392 70.5183 63.9245 70.348C63.898 70.0473 63.8937 69.7446 63.8733 69.4434C63.8282 68.7911 63.7875 68.1379 63.723 67.4876C63.7125 67.387 63.5926 67.2893 63.5082 67.2049C63.2208 66.9183 62.914 66.6437 62.7584 66.258C62.6109 65.8923 62.453 65.5242 62.3667 65.1419C62.279 64.7538 62.3003 64.3516 62.4492 63.9654C62.6963 63.3241 63.0885 63.1998 63.7239 63.2933C64.1379 63.3545 64.5481 63.4389 64.9602 63.5119C65.1447 63.5447 65.3296 63.5722 65.5131 63.6101C65.5402 63.6158 65.5672 63.6628 65.58 63.696C65.7531 64.159 65.6601 64.6177 65.5587 65.0773C65.4045 65.7728 65.009 66.3259 64.5381 66.8368C64.5287 66.8467 64.5249 66.8624 64.5187 66.8757C64.5092 66.8586 64.5016 66.8406 64.4903 66.8254C64.4049 66.7125 64.4386 66.6176 64.5443 66.5488C65.1091 66.1831 65.3059 65.6172 65.3898 64.9929C65.4316 64.6831 65.4652 64.372 65.4833 64.0598C65.4984 63.789 65.4022 63.7245 65.1314 63.6974C64.6349 63.649 64.1408 63.5746 63.6452 63.5124C63.4939 63.4934 63.3422 63.4688 63.1909 63.4673C62.9173 63.4645 62.6972 63.6789 62.5991 63.9825C62.4141 64.5565 62.4706 65.13 62.665 65.6983C62.8224 66.1589 63.1283 66.5052 63.4693 66.8311C63.4863 66.8472 63.5029 66.8628 63.5195 66.8785C63.5271 66.8581 63.538 66.8377 63.5413 66.8164C63.5741 66.6242 63.613 66.4326 63.6315 66.2391C63.6357 66.193 63.5774 66.1328 63.5347 66.093C63.3232 65.8956 63.2018 65.6428 63.1686 65.3681C63.0937 64.7529 63.695 64.4208 64.2418 64.6148Z" fill="#F2994A"/>
<path fill-rule="evenodd" clip-rule="evenodd" d="M44.467 57.0723C44.6369 57.7688 44.806 58.4512 44.9485 59.139C45.0219 59.493 45.0505 59.8565 45.0947 60.2162C45.1603 60.7504 45.222 61.285 45.2846 61.8195C45.2882 61.8506 45.2838 61.8826 45.2852 61.9141C45.3007 62.2629 45.3254 62.6114 45.3286 62.9605C45.3301 63.1256 45.2905 63.2907 45.2701 63.4558C45.2523 63.5986 45.136 63.6598 45.0302 63.6446C44.9279 63.6304 44.8468 63.5563 44.8516 63.3998C44.8686 62.8476 44.8827 62.2932 44.8518 61.7421C44.8164 61.1114 44.7522 60.4805 44.6625 59.8552C44.5802 59.281 44.4749 58.707 44.3286 58.1462C44.1924 57.6241 43.9886 57.1197 43.8155 56.6072C43.8031 56.5705 43.7975 56.5316 43.7888 56.4937C43.826 56.4976 43.8641 56.4974 43.9002 56.5061C44.1975 56.5777 44.4424 56.7032 44.467 57.0723Z" fill="#333333"/>
<path fill-rule="evenodd" clip-rule="evenodd" d="M71.5444 66.7733C71.4325 66.8279 71.3329 66.8706 71.2333 66.9133C71.2717 66.8051 71.2969 66.6898 71.3514 66.5907C71.4652 66.3839 71.6023 66.1894 71.7156 65.9821C71.8621 65.7141 71.7881 65.4399 71.6952 65.1776C71.6065 64.9266 71.2039 64.7549 70.9123 64.8484C70.5438 64.966 70.1948 65.0988 69.9027 65.3963C69.7206 65.5813 69.8254 65.7084 69.8766 65.827C69.9814 66.0689 70.137 66.289 70.2778 66.5143C70.3072 66.5618 70.3608 66.5945 70.4035 66.6339C70.4238 66.5713 70.449 66.5096 70.4632 66.4455C70.4689 66.4195 70.4533 66.3877 70.4428 66.3602C70.3897 66.2179 70.3845 66.0741 70.5296 65.9944C70.614 65.9479 70.7672 65.9086 70.8227 65.9517C70.9199 66.0276 71.0033 66.1628 71.0261 66.2852C71.0617 66.4769 70.992 66.6467 70.8056 66.7624C70.7392 66.8032 70.7193 66.9142 70.6666 66.9844C70.5946 67.0807 70.5116 67.243 70.4343 67.242C70.32 67.2411 70.1517 67.149 70.1023 67.0485C69.8742 66.5831 69.6561 66.1097 69.4887 65.6206C69.446 65.4954 69.5589 65.2535 69.6756 65.1491C70.0744 64.7933 70.5709 64.6064 71.0901 64.5154C71.4553 64.4513 71.9361 64.9043 72.0314 65.337C72.1566 65.9086 71.9105 66.3521 71.5444 66.7733Z" fill="#E0E0E0"/>
<path fill-rule="evenodd" clip-rule="evenodd" d="M26.5535 61.757C27.1399 62.0265 27.4531 62.6605 27.1306 63.3266C27.0056 63.5846 26.7998 63.8057 26.6168 64.0319C26.5854 64.0708 26.4827 64.0519 26.413 64.0595C26.4341 63.9897 26.4363 63.9039 26.4794 63.8531C26.6979 63.5946 26.8852 63.328 26.9667 62.9864C27.0706 62.5505 26.7365 62.0144 26.2938 62.0033C26.1026 61.9985 25.9028 62.0778 25.7183 62.1485C25.5623 62.2084 25.4187 62.3048 25.2765 62.3958C24.895 62.6401 24.9458 62.7473 25.1046 63.0761C25.2208 63.3166 25.3737 63.54 25.5202 63.7644C25.5389 63.7933 25.6181 63.7824 25.6693 63.79C25.673 63.762 25.6804 63.7336 25.6797 63.706C25.6754 63.5509 25.6431 63.3906 25.6704 63.2416C25.7017 63.0699 25.8435 63.06 25.9899 63.114C26.2928 63.2265 26.2988 63.549 26.1 63.8389C25.9937 63.994 25.8104 64.096 25.8279 64.327C25.829 64.3422 25.6174 64.4072 25.5186 64.3858C25.4272 64.3659 25.3212 64.2767 25.2787 64.1899C25.0765 63.7772 24.8912 63.3564 24.7051 62.9357C24.5988 62.6956 24.6537 62.4888 24.8653 62.3319C25.3182 61.9957 25.7914 61.7057 26.3836 61.7115C26.4324 61.712 26.481 61.7411 26.5535 61.757Z" fill="#F2994A"/>
<path fill-rule="evenodd" clip-rule="evenodd" d="M32.8132 70.5325C33.4495 70.3988 34.0224 70.1587 34.5807 69.8798C34.5936 69.8736 34.6094 69.8679 34.6233 69.8694C34.6993 69.8751 34.7751 69.8836 34.851 69.8907C34.8026 69.94 34.7604 69.9984 34.7048 70.0373C34.1392 70.4339 33.5066 70.6744 32.8277 70.7636C32.243 70.8409 31.6519 70.8712 31.0628 70.9101C30.4604 70.95 29.8556 70.96 29.2545 71.0126C28.8909 71.0449 28.5334 71.1402 28.1711 71.1933C28.024 71.2152 27.8536 71.1995 27.798 71.034C27.7425 70.8689 27.8053 70.6915 27.9734 70.6355C28.1702 70.57 28.386 70.5529 28.5953 70.5373C28.7132 70.5283 28.8342 70.5733 28.9545 70.5786C29.739 70.6132 30.5237 70.6673 31.3083 70.6663C31.8021 70.6654 32.2958 70.58 32.8132 70.5325Z" fill="#333333"/>
<path fill-rule="evenodd" clip-rule="evenodd" d="M68.9956 71.671C69.2294 71.755 69.4394 71.8385 69.6495 71.9229C69.6856 71.9372 69.7192 71.9571 69.7543 71.9742C69.7102 72.0154 69.6614 72.0966 69.6239 72.0913C69.4105 72.0629 69.1929 72.0339 68.9889 71.9685C68.3625 71.7664 67.7465 71.5316 67.1163 71.3413C66.7478 71.2299 66.359 71.1886 65.9829 71.0989C65.742 71.0411 65.4371 71.0994 65.3095 70.7996C65.2745 70.7171 65.2598 70.5634 65.3058 70.5231C65.3769 70.4614 65.521 70.4277 65.6126 70.4547C66.0256 70.5781 66.4344 70.7194 66.8389 70.8684C67.5521 71.1307 68.261 71.403 68.9956 71.671Z" fill="#E0E0E0"/>
<path fill-rule="evenodd" clip-rule="evenodd" d="M44.6683 66.0736C44.6683 65.8525 44.6656 65.6547 44.6689 65.4574C44.6732 65.2026 44.9375 65.0186 45.1506 65.1443C45.2269 65.1894 45.3021 65.3592 45.2754 65.4375C45.0096 66.2126 45.118 67.0119 45.0932 67.8026C45.0916 67.8515 45.0769 67.9236 45.0436 67.9435C44.9765 67.9834 44.893 68.0014 44.8142 68.0109C44.8034 68.0123 44.7685 67.9131 44.765 67.8586C44.7452 67.5498 44.7321 67.24 44.7155 66.9307C44.7006 66.6528 44.6841 66.3753 44.6683 66.0736Z" fill="#333333"/>
<path fill-rule="evenodd" clip-rule="evenodd" d="M49.1853 74.5433C49.2829 74.5379 49.3685 74.5559 49.4542 74.573C49.3606 74.5703 49.267 74.5685 49.1853 74.5433Z" fill="#333333"/>
<path fill-rule="evenodd" clip-rule="evenodd" d="M49.6476 53.8824C49.446 54.1533 49.2212 54.2982 48.8696 54.221C48.3291 54.1024 48.1609 53.3958 48.4657 53.0027C48.8374 52.5232 49.4596 52.5671 49.8606 52.8772C50.1806 53.1247 50.4484 53.4096 50.5894 53.7827C50.7232 54.1369 50.643 54.4942 50.4785 54.8298C50.3687 55.0537 50.2474 55.246 50.3865 55.5365C50.4648 55.6998 50.3572 55.9628 50.3002 56.1718C50.2879 56.217 50.1194 56.2614 50.0483 56.2357C49.9899 56.2146 49.9285 56.0829 49.939 56.0105C49.9894 55.6656 49.9003 55.5791 49.5586 55.635C48.9474 55.7351 48.433 55.5772 48.0717 55.0385C48.0387 54.9892 47.9648 54.9674 47.91 54.9328C47.8885 54.995 47.8409 55.0623 47.8518 55.1182C47.8679 55.2011 47.9255 55.2759 47.9654 55.3542C48.1172 55.6521 48.1571 55.9516 47.9329 56.0973C47.794 56.1876 47.4581 56.1225 47.3743 55.9606C47.1116 55.4539 46.9984 54.9305 47.2783 54.3903C47.3798 54.1944 47.8601 54.0277 48.0886 54.1536C48.2446 54.2395 48.3892 54.3475 48.5331 54.4534C48.7399 54.6057 48.9298 54.7841 49.1481 54.9165C49.4004 55.0694 49.7436 54.9538 49.886 54.7061C49.9234 54.6411 49.9665 54.5702 50.0256 54.5285C50.3428 54.305 50.4097 54.1244 50.2326 53.786C50.0502 53.4374 49.8309 53.1164 49.4114 53.0023C49.1047 52.919 48.7789 53.0312 48.652 53.2893C48.5482 53.5001 48.6191 53.7654 48.8078 53.8725C49.0195 53.9927 49.2189 53.9178 49.3659 53.679C49.4125 53.6034 49.5366 53.4847 49.5514 53.4947C49.679 53.5814 49.7712 53.6973 49.6476 53.8824ZM48.3435 54.9735C48.387 55.017 48.4293 55.0618 48.4742 55.1038C48.6657 55.2829 48.8617 55.4503 49.1555 55.3599C49.1739 55.3542 49.1989 55.3696 49.2208 55.3752C49.2079 55.352 49.2008 55.3203 49.1813 55.3069C49.0605 55.224 48.9293 55.1545 48.8158 55.0629C48.5899 54.8806 48.3811 54.6764 48.1502 54.501C47.9454 54.3454 47.6689 54.3749 47.5429 54.5443C47.5135 54.5839 47.5079 54.6411 47.4914 54.6903C47.5414 54.6898 47.5914 54.6881 47.6414 54.6891C47.7841 54.692 47.9373 54.6653 48.0662 54.7093C48.1664 54.7435 48.2364 54.8663 48.3435 54.9735Z" fill="#F2994A"/>
<path fill-rule="evenodd" clip-rule="evenodd" d="M49.1379 57.9501C49.4326 57.7943 49.5831 57.8621 49.5949 58.2037C49.6263 59.1133 49.6411 60.0237 49.6406 60.9338C49.6405 61.1434 49.5445 61.3514 49.508 61.5628C49.4791 61.7306 49.4735 61.9023 49.4582 62.0724C49.4561 62.0959 49.4572 62.1198 49.4581 62.1435C49.4737 62.6268 49.4918 63.1102 49.5029 63.5935C49.5046 63.6656 49.495 63.7567 49.4526 63.8065C49.3997 63.8682 49.3073 63.8962 49.2319 63.9389C49.2125 63.8748 49.1786 63.8113 49.1761 63.7463C49.1687 63.5494 49.1777 63.3511 49.1726 63.1538C49.1593 62.6467 49.1605 62.1383 49.1221 61.6329C49.042 60.5804 48.8822 59.5411 48.5097 58.5454C48.456 58.4017 48.3864 58.2604 48.3591 58.1115C48.3435 58.0265 48.3764 57.9117 48.4294 57.8425C48.464 57.7974 48.6005 57.7738 48.6444 57.8056C48.7148 57.8565 48.7676 57.9558 48.7903 58.0442C48.8786 58.3884 48.9541 58.7359 49.0306 59.083C49.1121 59.4528 49.1892 59.8234 49.2682 60.1937C49.2744 60.2228 49.2805 60.2519 49.2866 60.281C49.2963 60.257 49.3132 60.2334 49.3146 60.2089C49.3502 59.574 49.3239 58.9458 49.1438 58.3288C49.111 58.2167 49.146 58.0847 49.1379 57.9501Z" fill="#F2994A"/>
<path fill-rule="evenodd" clip-rule="evenodd" d="M47.6558 57.0606C47.6581 56.708 47.8217 56.5392 48.1401 56.5389C48.7088 56.5385 49.2778 56.5304 49.8463 56.544C50.0159 56.548 50.2039 56.5794 50.3471 56.6617C50.4809 56.7385 50.5112 57.1774 50.3985 57.2705C50.2449 57.3973 50.0635 57.4498 49.8391 57.429C49.3928 57.3875 48.9414 57.3976 48.4921 57.3975C48.4346 57.3975 48.3696 57.4554 48.3209 57.5003C48.1237 57.6828 47.8101 57.6109 47.7057 57.3482C47.6733 57.2665 47.6716 57.1726 47.6558 57.0606ZM49.7661 57.0606C49.8429 56.9717 49.8352 56.9318 49.7113 56.9211C49.2606 56.8822 48.809 56.8527 48.3573 56.8264C48.3034 56.8232 48.2285 56.8458 48.197 56.8841C48.1622 56.9264 48.1591 57.0005 48.1584 57.061C48.1582 57.0763 48.2206 57.1077 48.2524 57.1053C48.3801 57.096 48.5072 57.0627 48.6344 57.0636C48.8656 57.0651 49.0966 57.0886 49.328 57.0952C49.4659 57.0992 49.6042 57.0884 49.7661 57.0606Z" fill="#F2994A"/>
<path fill-rule="evenodd" clip-rule="evenodd" d="M48.4619 65.7888C48.4777 65.7086 48.5034 65.6527 48.5076 65.5953C48.5238 65.3761 48.6764 65.2376 48.8644 65.3282C48.9411 65.3647 48.9883 65.5568 48.9747 65.6693C48.9462 65.905 49.0101 66.0122 49.2501 66.0274C49.3401 66.0326 49.4329 66.0402 49.5176 66.0677C49.5644 66.0829 49.615 66.136 49.6301 66.183C49.6408 66.2162 49.6066 66.2878 49.5724 66.3073C49.3466 66.4349 48.7503 66.3258 48.5833 66.1161C48.5183 66.0345 48.5009 65.915 48.4619 65.7888Z" fill="#F2994A"/>
<path fill-rule="evenodd" clip-rule="evenodd" d="M66.9299 35.66C66.6373 35.7777 66.3063 35.8684 65.9493 35.937C64.7405 36.1692 63.2368 36.1765 62.084 36.158C61.7127 36.1521 61.3793 36.1443 61.1052 36.1431C60.8363 36.142 60.6305 36.1418 60.512 36.1715C59.9524 36.3067 59.5773 36.4696 59.3264 36.6318C58.8868 36.9158 58.8655 37.1651 58.8655 37.1651C58.8698 37.2564 58.7991 37.3342 58.7076 37.3386C58.6165 37.343 58.5388 37.2724 58.5345 37.181C58.5345 37.181 58.4828 36.7692 59.104 36.3101C59.371 36.1126 59.776 35.904 60.3877 35.7172C60.5295 35.6754 60.7775 35.6503 61.1023 35.6448C61.3802 35.6402 61.7188 35.6483 62.0949 35.6594C63.2216 35.6926 64.6935 35.7625 65.8772 35.5495C66.7393 35.3943 67.4478 35.1076 67.6939 34.5457C67.737 34.4478 67.8489 34.4006 67.949 34.4382C68.0491 34.4757 68.1026 34.5849 68.0704 34.687C68.0704 34.687 67.821 35.5585 66.9721 36.2535C66.7426 36.4413 66.4699 36.6175 66.1451 36.7554C65.8729 36.8709 65.5637 36.9571 65.2166 37.0091C64.0007 37.1697 63.094 37.219 62.5155 37.4868C62.1859 37.6396 61.9758 37.8689 61.8948 38.2573C61.8777 38.3511 61.7876 38.4132 61.6937 38.3958C61.5998 38.3785 61.5377 38.2882 61.5552 38.1944C61.6396 37.6698 61.9071 37.3495 62.3396 37.1265C62.9319 36.8209 63.876 36.7218 65.1402 36.5048C65.4423 36.4582 65.7093 36.3778 65.9478 36.2809C66.2295 36.1667 66.4709 36.0286 66.6748 35.8749C66.7673 35.8052 66.8521 35.733 66.9299 35.66Z" fill="#F2994A"/>
<path fill-rule="evenodd" clip-rule="evenodd" d="M29.8122 39.7841C29.8122 39.7841 28.9015 38.8995 28.6296 37.4558C28.5696 37.1374 28.5424 36.7922 28.5571 36.4206C28.5755 35.9516 28.6595 35.4401 28.864 34.8922C29.1912 33.9998 29.7516 33.2552 30.4589 32.7101C30.9452 32.3353 31.5001 32.0549 32.0904 31.8801C33.491 31.4651 35.0938 31.6484 36.4953 32.6021C36.4915 32.5993 37.1864 33.1 37.7109 34.1094C37.9706 34.6079 38.1785 35.2323 38.2535 35.9723C38.2677 36.0824 38.3688 36.1606 38.4799 36.1468C38.591 36.1329 38.6698 36.0323 38.6555 35.9222C38.5364 35.1382 38.2715 34.4902 37.9801 33.9667C37.3896 32.9055 36.6638 32.367 36.6638 32.367C36.6623 32.3662 36.6609 32.3653 36.6595 32.3644C35.1805 31.3535 33.488 31.1636 32.0053 31.5945C31.3781 31.7767 30.7893 32.0713 30.267 32.4604C29.4997 33.032 28.8771 33.8099 28.5033 34.7569C28.2743 35.3475 28.1632 35.8998 28.1511 36.4079C28.1414 36.8132 28.1928 37.1894 28.2789 37.5319C28.378 37.9269 28.5254 38.2767 28.6878 38.5785C29.1444 39.4267 29.7179 39.8895 29.7179 39.8895C29.7471 39.9153 29.7921 39.9127 29.8181 39.8836C29.8441 39.8545 29.8415 39.8099 29.8122 39.7841Z" fill="#333333"/>
</svg>
