<svg width="100" height="100" viewBox="0 0 100 100" fill="none" xmlns="http://www.w3.org/2000/svg">
<path fill-rule="evenodd" clip-rule="evenodd" d="M92.1475 59.9566C90.7592 63.236 88.351 63.8065 85.8013 66.4231C83.2515 69.0397 75.5938 67.5424 72.9592 69.0652C65.8163 73.194 65.5916 77.8644 53.5334 78.4694C49.1975 78.687 45.3944 78.1937 41.5176 77.6914C37.4536 77.1648 32.6362 78.7744 27.1375 75.4013C13.7239 67.1729 5.37939 53.6442 5.06671 46.5321C4.82081 40.9391 8.82865 37.0844 11.5276 34.5224C17.2646 29.0765 24.6504 30.5736 31.5692 28.6474C41.3317 25.9296 47.59 20.1851 54.5835 20.5335C64.4564 20.2751 70.6156 28.2664 78.3867 28.6474C83.9121 28.9184 102.423 35.683 92.1475 59.9566Z" fill="#C0F0FF"/>
<path fill-rule="evenodd" clip-rule="evenodd" d="M32.5205 74.0589C32.7137 74.5119 32.7292 75.1987 32.2546 75.3303C31.6284 75.0221 31.1821 74.3753 31.1163 73.6804C28.5482 73.7924 25.9801 73.9044 23.412 74.0164C22.4575 74.058 21.2794 74.2616 20.9953 75.1738C20.8843 74.455 19.9351 74.2898 19.2079 74.2995C17.0347 74.3287 14.8615 74.3579 12.6883 74.3871C12.6552 73.395 12.622 72.403 12.5889 71.4109C12.5825 71.2187 12.578 71.0172 12.6642 70.8453C12.8957 70.3838 13.5604 70.4328 14.063 70.5514C13.9014 68.9362 13.7399 67.3211 13.5784 65.7059C12.829 65.8774 13.0701 63.9561 12.3159 64.1045C11.8593 64.1943 11.4289 63.775 11.3314 63.32C11.234 62.865 11.3761 62.3967 11.5167 61.9531C11.9406 61.8236 12.5481 61.9518 12.9777 61.8236C13.4072 61.6955 13.669 61.4479 13.654 60.9999C13.3424 51.6961 12.6696 42.4044 11.6377 33.1528C10.9789 33.4361 10.1944 32.9247 9.92937 32.2583C9.66433 31.5919 9.77786 30.8413 9.91653 30.1377C9.96519 29.8908 10.025 29.6284 10.2063 29.4539C10.4375 29.2314 10.7928 29.2174 11.1136 29.2167C21.1816 29.1938 31.2496 29.1709 41.3176 29.148C41.5371 29.1475 41.7788 29.1552 41.941 29.303C42.0893 29.4381 42.1284 29.6525 42.1592 29.8507C42.2788 30.6216 42.3963 31.4253 42.161 32.169C41.9257 32.9128 41.2223 33.5708 40.4475 33.4799C40.8713 42.662 41.2951 51.8442 41.7189 61.0263C42.4096 60.8753 43.2174 61.131 43.5619 61.7484C43.9064 62.3658 43.5922 63.2988 42.9023 63.4534C43.3425 63.8194 43.13 64.5983 42.6456 64.9034C42.1613 65.2085 41.5451 65.1773 40.9751 65.1253C40.405 65.0732 39.7966 65.0177 39.2911 65.2863C39.4104 66.3927 39.3955 67.5136 39.2469 68.6164C39.7372 68.3241 40.4008 68.3546 40.8621 68.6909C41.1824 68.9243 41.4734 68.3563 41.4704 67.9599C41.4633 67.0369 41.4563 66.1139 41.4493 65.1909C41.9492 66.3375 42.0883 67.6383 41.8421 68.8646C42.4585 68.9127 43.0748 68.9608 43.6912 69.0088C43.8765 69.0233 44.0771 69.0442 44.213 69.171C44.3483 69.2973 44.3834 69.4951 44.4069 69.6786C44.5587 70.8634 44.536 72.0703 44.3399 73.2485C40.3464 72.9717 36.5571 73.0601 32.5875 73.5765C32.4879 73.5765 32.3273 73.6059 32.5205 74.0589Z" fill="white"/>
<ellipse rx="0.0666619" ry="0.266667" transform="matrix(0.933569 0.358399 -0.358337 0.933592 27.7999 53.4667)" fill="#F2994A"/>
<path fill-rule="evenodd" clip-rule="evenodd" d="M59.0046 54.8294C59.0046 54.8294 58.4444 42.1035 58.7693 35.7466C58.8048 35.0526 58.8436 34.3413 58.6381 33.6774C58.4326 33.0136 57.926 32.3962 57.2431 32.2675C57.1084 31.0767 57.1264 29.8687 57.2965 28.6824C67.1393 28.7336 76.9821 28.7847 86.8249 28.8359C86.8605 29.5849 86.896 30.3338 86.9316 31.0827C86.9652 31.7918 86.6845 32.7958 85.9888 32.6546C85.7061 32.5972 85.5705 32.9872 85.5556 33.2752C85.4335 35.6411 85.3114 38.0071 85.1893 40.373C84.8264 47.4044 84.4634 54.4463 84.707 61.4829C85.336 61.5143 85.9651 61.5457 86.5941 61.5771C86.761 61.9722 86.9314 62.3923 86.8692 62.8166C86.807 63.2409 86.4132 63.6473 85.9938 63.5576C86.3593 64.4096 85.3844 65.4778 84.5026 65.1915C84.5734 66.2103 84.6441 67.229 84.7148 68.2478C84.7281 68.4399 84.7481 68.6481 84.8785 68.7899C85.2854 69.2322 86.1571 68.5494 86.5868 68.9696C86.645 69.9716 86.7031 70.9736 86.7613 71.9756C86.7772 72.2489 86.7789 72.5602 86.5803 72.7485C86.447 72.8749 86.2549 72.9123 86.0738 72.9429C82.5431 73.5399 78.9237 73.6104 75.3724 73.1515C75.5632 74.0645 75.7105 75.1434 75.0649 75.8166C74.5887 76.3132 74.6392 77.0258 74.8538 76.6894C74.8122 77.1258 74.4062 77.4965 73.9678 77.4984C73.5915 77.5381 73.6664 76.9095 73.9231 76.6316C74.4868 76.0214 75.2158 75.4755 75.3952 74.6644C75.5747 73.8533 73.6111 74.2669 73.6666 74.7634C73.3113 74.3626 73.3577 73.6726 73.7633 73.3229C72.7057 73.5641 71.6083 73.6303 70.5293 73.5178C71.8921 73.3113 73.2549 73.1047 74.6177 72.8982C74.2298 71.8243 69.8072 74.6671 69.7092 76.8044C69.4971 75.5745 69.6534 74.2835 70.1529 73.1397C70.0327 72.9489 69.877 72.7806 69.6961 72.646C70.9387 72.1594 68.4434 74.8267 68.0381 73.8133C66.6724 73.9689 65.3068 74.1244 63.9411 74.2799C63.9904 74.53 64.1194 74.7638 64.3047 74.9389C63.4949 75.0562 62.6816 74.2845 62.7563 73.4696C62.358 74.1881 62.9726 75.0448 63.6052 75.5689C64.2379 76.093 65.0049 76.6817 64.9781 77.5028C64.3493 77.7232 63.5765 77.2749 63.4556 76.6196C63.6842 77.0453 63.4239 76.1134 63.1479 76.2006C62.6358 76.3626 62.2613 77.7947 62.5077 77.3185C62.4807 77.9588 61.8611 78.5122 61.2218 78.467C60.7688 77.5773 61.5172 76.3337 62.5155 76.3174C62.9269 76.3107 63.1709 75.795 63.0625 75.398C62.9542 75.001 62.6222 74.7117 62.3067 74.4475C62.0944 74.7248 61.8202 74.9544 61.5099 75.1147C61.4999 74.6466 61.5919 74.1766 61.7778 73.7468C61.3581 74.2235 61.1215 74.8573 61.1261 75.4924C60.912 74.9689 60.9311 74.355 61.1774 73.8459C59.9359 74.0573 58.6752 74.1565 57.4159 74.1418C57.2085 72.7034 57.0011 71.265 56.7936 69.8266C57.5724 69.616 58.3792 69.5093 59.1859 69.5101C58.7817 67.0907 59.1859 67.0234 58.6837 65.934C58.6155 65.786 58.3731 66.0689 58.2082 65.7355C58.0432 65.4021 57.9696 64.5339 57.9696 64.5339C57.9696 64.5339 57.2961 64.4355 57.2431 64.2542C57.0347 63.543 56.8006 62.9075 57.3072 62.5248C57.8473 62.1169 58.693 62.4664 59.2589 62.0951C59.1399 61.6253 59.3022 59.9836 58.9148 58.963C58.61 58.1599 57.9751 58.5191 57.2989 57.9381C56.8603 57.5612 56.3819 57.1773 56.1903 56.6315C55.9988 56.0858 56.26 55.3384 56.8329 55.2587C57.393 55.1808 57.8165 55.7349 58.1029 56.2226C57.9741 55.7922 58.3184 55.2875 58.7661 55.2505C59.3201 56.9974 59.0046 54.8294 59.0046 54.8294Z" fill="white"/>
<ellipse cx="68.6668" cy="51.4666" rx="0.133335" ry="0.266682" fill="#F2994A"/>
<path fill-rule="evenodd" clip-rule="evenodd" d="M20.6097 36.8409C20.6677 36.8863 20.6779 36.9701 20.6325 37.0281L18.8819 39.2629C18.8364 39.3208 18.7526 39.331 18.6947 39.2856C18.6367 39.2402 18.6265 39.1564 18.6719 39.0984L20.4225 36.8636C20.4679 36.8056 20.5518 36.7955 20.6097 36.8409Z" fill="#E0E0E0"/>
<path fill-rule="evenodd" clip-rule="evenodd" d="M22.8899 37.4808C22.9459 37.5286 22.9526 37.6128 22.9048 37.6688L20.562 40.4178C20.5142 40.4739 20.43 40.4806 20.374 40.4328C20.318 40.3851 20.3112 40.3009 20.359 40.2449L22.7019 37.4958C22.7497 37.4398 22.8338 37.4331 22.8899 37.4808Z" fill="#E0E0E0"/>
<path fill-rule="evenodd" clip-rule="evenodd" d="M26.6067 37.6624C26.665 37.7075 26.6756 37.7913 26.6305 37.8495L24.7034 40.3386C24.6583 40.3968 24.5745 40.4075 24.5163 40.3624C24.4581 40.3173 24.4474 40.2335 24.4925 40.1753L26.4197 37.6862C26.4648 37.628 26.5485 37.6174 26.6067 37.6624Z" fill="#E0E0E0"/>
<path fill-rule="evenodd" clip-rule="evenodd" d="M31.8088 37.4613C31.8685 37.5044 31.8819 37.5877 31.8388 37.6474L30.2695 39.8214C30.2264 39.8811 30.1431 39.8945 30.0834 39.8514C30.0237 39.8083 30.0102 39.725 30.0533 39.6653L31.6226 37.4913C31.6657 37.4316 31.7491 37.4182 31.8088 37.4613Z" fill="#E0E0E0"/>
<path fill-rule="evenodd" clip-rule="evenodd" d="M67.4599 37.0724C67.5122 37.1242 67.5125 37.2086 67.4607 37.2609L65.6228 39.1141C65.5709 39.1664 65.4865 39.1667 65.4342 39.1149C65.3819 39.063 65.3816 38.9786 65.4334 38.9263L67.2713 37.0731C67.3232 37.0209 67.4076 37.0205 67.4599 37.0724Z" fill="#E0E0E0"/>
<path fill-rule="evenodd" clip-rule="evenodd" d="M70.0023 37.5885C70.0533 37.6415 70.0517 37.7259 69.9987 37.777L67.5839 40.101C67.5309 40.1521 67.4465 40.1504 67.3954 40.0974C67.3444 40.0443 67.346 39.9599 67.399 39.9089L69.8137 37.5849C69.8668 37.5338 69.9512 37.5354 70.0023 37.5885Z" fill="#E0E0E0"/>
<path fill-rule="evenodd" clip-rule="evenodd" d="M75.8031 38.7541C75.854 38.8073 75.8521 38.8917 75.7989 38.9426L74.2069 40.4652C74.1537 40.5161 74.0693 40.5142 74.0184 40.461C73.9675 40.4078 73.9694 40.3234 74.0226 40.2725L75.6146 38.7499C75.6678 38.699 75.7522 38.7008 75.8031 38.7541Z" fill="#E0E0E0"/>
<path fill-rule="evenodd" clip-rule="evenodd" d="M78.8314 38.8612C78.8815 38.9151 78.8785 38.9995 78.8245 39.0496L77.1738 40.584C77.1199 40.6342 77.0355 40.6311 76.9854 40.5772C76.9352 40.5232 76.9383 40.4389 76.9923 40.3887L78.643 38.8543C78.6969 38.8041 78.7813 38.8072 78.8314 38.8612Z" fill="#E0E0E0"/>
<path fill-rule="evenodd" clip-rule="evenodd" d="M49.7682 48.6279C49.7149 48.1605 49.692 47.6896 49.6996 47.2191C49.4038 47.1033 49.0747 47.1223 48.7577 47.143C47.5471 47.2222 46.3366 47.3014 45.126 47.3805C44.926 47.3936 44.7216 47.4063 44.528 47.3544C44.3301 47.3015 44.1038 47.1873 43.94 47.3102C43.798 47.4166 43.8097 47.6294 43.8356 47.8049C43.8844 48.1353 43.9331 48.4656 43.9818 48.7959C43.9901 48.8521 44.0012 48.9135 44.0447 48.9499C44.0848 48.9835 44.1415 48.9866 44.1938 48.988C45.8922 49.033 47.5923 49.0174 49.2896 48.9412C49.5047 48.9315 49.7925 48.8418 49.7682 48.6279V48.6279Z" fill="white"/>
<path fill-rule="evenodd" clip-rule="evenodd" d="M55.5777 40.7144C55.6152 40.5673 55.4776 40.4231 55.3291 40.3914C55.1805 40.3597 55.0281 40.406 54.8808 40.443C54.2937 40.5905 52.663 40.5899 52.4415 40.5914C51.7936 40.5958 51.1457 40.6003 50.4978 40.6047C50.3443 40.6058 50.2143 40.7322 50.1598 40.8757C50.1052 41.0192 50.1102 41.1775 50.1159 41.3309C50.1218 41.4894 50.1277 41.6478 50.1336 41.8063C50.1371 41.9008 50.1495 42.0112 50.2306 42.0598C50.2657 42.0809 50.3078 42.0858 50.3485 42.0901C50.9766 42.1564 51.6098 42.174 52.2406 42.1429C53.3566 42.0878 54.473 41.8805 55.5844 41.9952C55.4732 41.5782 55.4709 41.1326 55.5777 40.7144Z" fill="white"/>
<path fill-rule="evenodd" clip-rule="evenodd" d="M75.6544 73.7322C75.6676 73.6406 75.7425 73.5684 75.8254 73.5272C76.0513 73.4146 76.3366 73.493 76.5273 73.6583C76.7179 73.8237 76.831 74.0601 76.9212 74.2958C76.9534 74.3797 76.9801 74.4841 76.9208 74.5517C76.8985 74.577 76.8672 74.5924 76.8362 74.6055C76.5752 74.7158 76.2627 74.7035 76.0172 74.5622C75.7717 74.4209 75.6022 74.1506 75.594 73.8674C75.7003 73.8816 75.7524 73.9994 75.8077 74.0913C75.9975 74.4069 76.4532 74.526 76.7732 74.3436C76.4703 74.0369 76.0761 73.8215 75.6544 73.7322Z" fill="#333333"/>
<path fill-rule="evenodd" clip-rule="evenodd" d="M74.093 71.0338C74.185 70.9197 74.277 70.8056 74.369 70.6914C74.3082 71.2041 73.8868 71.653 73.3791 71.7461C73.2224 71.6257 72.9567 71.7058 72.8928 71.8928C72.7984 71.912 72.7034 71.838 72.6724 71.7468C72.6414 71.6557 72.6612 71.5546 72.6963 71.4649C72.7493 71.3297 72.8348 71.21 72.9194 71.092C73.2048 70.6939 73.5348 70.2657 74.0146 70.1675C74.1387 70.1421 74.2786 70.1444 74.3785 70.2222C74.4784 70.3 74.5062 70.4727 74.4063 70.5505C74.2906 70.3952 74.0577 70.3697 73.8769 70.4395C73.6962 70.5093 73.5555 70.6525 73.4208 70.7917C73.2902 70.9265 73.1597 71.0614 73.0292 71.1962C72.9574 71.2703 72.8919 71.4072 72.9817 71.4579C73.084 71.2381 73.3938 71.2202 73.5729 71.0568C73.7281 70.9152 73.8321 70.6442 74.0392 70.6796C73.9312 70.9284 73.7349 71.138 73.4936 71.262C73.39 71.3153 73.2696 71.3615 73.218 71.466C73.378 71.5391 73.5716 71.4978 73.7205 71.4041C73.8693 71.3103 73.9826 71.1708 74.093 71.0338Z" fill="#333333"/>
<path fill-rule="evenodd" clip-rule="evenodd" d="M69.7543 70.506C70.0073 70.5506 70.2815 70.4089 70.3914 70.1768C70.5014 69.9447 70.4372 69.6427 70.2424 69.4754C70.2987 69.4065 70.4073 69.3979 70.486 69.4393C70.5646 69.4808 70.6161 69.5612 70.6456 69.645C70.7404 69.9135 70.6347 70.2199 70.4502 70.4367C70.2657 70.6534 70.0129 70.7986 69.7655 70.9394C69.651 71.0046 69.5312 71.0714 69.3996 71.0795C69.268 71.0877 69.1216 71.018 69.087 70.8908C69.0757 70.8492 69.0781 70.8014 69.1042 70.7672C69.2324 70.5993 69.5342 70.9977 69.6721 70.8377C69.639 70.7096 69.6058 70.5815 69.5727 70.4535C69.6323 70.4742 69.6922 70.495 69.7543 70.506Z" fill="#333333"/>
<path fill-rule="evenodd" clip-rule="evenodd" d="M67.4357 70.1122C67.1536 70.0779 66.9527 69.7729 66.9836 69.4904C67.0144 69.2078 67.2359 68.97 67.4994 68.8634C67.5801 68.8308 67.6808 68.8116 67.7474 68.8676C67.8139 68.9237 67.7682 69.069 67.685 69.0433C67.4815 68.9804 67.2871 69.1849 67.2308 69.3903C67.1949 69.521 67.1927 69.6691 67.2651 69.7837C67.3376 69.8983 67.5005 69.9601 67.6163 69.8896C67.6998 69.8388 67.7848 69.9564 67.8046 70.0521C67.8244 70.1478 67.8683 70.2742 67.9654 70.2628C68.125 70.1835 68.1847 69.9919 68.2756 69.8385C68.3665 69.6852 68.5723 69.5519 68.7123 69.6623C68.7303 69.6765 68.7465 69.6959 68.7475 69.7188C68.7485 69.7437 68.7317 69.7654 68.7156 69.7845C68.5598 69.9688 68.3875 70.1392 68.2016 70.2931C68.0771 70.3961 67.9048 70.4957 67.7641 70.4162C67.631 70.341 67.5875 70.1307 67.4357 70.1122Z" fill="#333333"/>
<path fill-rule="evenodd" clip-rule="evenodd" d="M68.794 73.0032C68.656 72.8806 68.5154 72.7548 68.4253 72.5936C68.3352 72.4325 68.3033 72.2267 68.3906 72.064C68.4145 72.0195 68.4513 71.9765 68.5012 71.9684C68.5511 71.9604 68.6085 72.0068 68.5939 72.0552C68.5303 72.267 68.6228 72.5156 68.8094 72.6343C68.8815 72.6802 68.9783 72.7661 68.9177 72.8265C68.8456 72.8983 68.977 72.9957 69.0775 73.0121C69.2705 73.0436 69.4635 73.0752 69.6565 73.1067C69.6189 73.2658 69.4226 73.3431 69.2627 73.3089C69.1028 73.2748 68.9729 73.1622 68.8507 73.0536C68.8318 73.0368 68.8129 73.02 68.794 73.0032Z" fill="#333333"/>
<path fill-rule="evenodd" clip-rule="evenodd" d="M61.6848 77.8408C61.704 77.7225 61.7231 77.6042 61.7423 77.4858C61.7533 77.4179 61.7648 77.3486 61.7974 77.288C61.8365 77.2157 61.9022 77.1622 61.9663 77.1107C62.1421 76.9694 62.3178 76.8281 62.4936 76.6868C62.632 76.7922 62.6598 77.0156 62.5515 77.1518C62.5426 77.0264 62.4613 76.9088 62.3471 76.8562C62.2194 77.2356 61.988 77.5795 61.6848 77.8408Z" fill="#333333"/>
<path fill-rule="evenodd" clip-rule="evenodd" d="M75.2484 76.1055C75.3133 76.4536 75.4466 76.7889 75.6385 77.0866C75.7897 77.321 75.6514 77.6276 75.513 77.8698C75.4507 77.8941 75.3917 77.813 75.4021 77.7468C75.4124 77.6807 75.4608 77.6281 75.4921 77.5689C75.6148 77.3366 75.4624 77.0611 75.3272 76.8359C75.1919 76.6106 75.0757 76.3034 75.2484 76.1055L75.2484 76.1055Z" fill="#333333"/>
<path fill-rule="evenodd" clip-rule="evenodd" d="M50.0836 48.9347C50.0809 49.0154 50.0771 49.1002 50.0349 49.1691C49.9579 49.2947 49.789 49.3193 49.6421 49.3303C47.661 49.4788 45.6703 49.5002 43.6864 49.3943C43.6617 49.393 43.6363 49.3914 43.614 49.3806C43.5594 49.354 43.5446 49.2843 43.5364 49.2241C43.4812 48.821 43.426 48.418 43.3708 48.0149C43.3313 47.7266 43.2979 47.4094 43.4577 47.1662C43.675 46.8356 44.1357 46.7963 44.5312 46.7907C46.3288 46.7656 48.1264 46.7404 49.9239 46.7152C49.9997 46.7141 50.0893 46.7202 50.1295 46.7844C50.1527 46.8215 50.152 46.8682 50.1506 46.9119C50.1282 47.5862 50.1059 48.2604 50.0836 48.9347ZM49.7685 48.6284C49.7153 48.161 49.6924 47.69 49.7 47.2196C49.4041 47.1038 49.075 47.1228 48.758 47.1435C47.5475 47.2227 46.3369 47.3019 45.1264 47.381C44.9263 47.3941 44.722 47.4068 44.5283 47.3549C44.3305 47.3019 44.1042 47.1878 43.9403 47.3106C43.7983 47.4171 43.81 47.6298 43.836 47.8054C43.8847 48.1358 43.9334 48.4661 43.9822 48.7964C43.9905 48.8526 44.0016 48.914 44.0451 48.9504C44.0852 48.984 44.1419 48.9871 44.1942 48.9885C45.8926 49.0335 47.5926 49.0179 49.2899 48.9417C49.505 48.932 49.7929 48.8423 49.7685 48.6284V48.6284Z" fill="#F2994A"/>
<path fill-rule="evenodd" clip-rule="evenodd" d="M73.7949 74.3721C73.8854 74.0531 74.0458 73.7541 74.2614 73.5022C74.2576 73.8442 74.0777 74.1797 73.7949 74.3721L73.7949 74.3721Z" fill="#333333"/>
<path fill-rule="evenodd" clip-rule="evenodd" d="M74.6067 76.301C74.5476 76.4833 74.4565 76.6551 74.3388 76.8064C74.2887 76.8708 74.2246 76.9361 74.1431 76.9401C74.2491 76.6935 74.3707 76.4291 74.6067 76.301L74.6067 76.301Z" fill="#333333"/>
<path fill-rule="evenodd" clip-rule="evenodd" d="M76.0596 77.2778C76.1906 77.3695 76.3216 77.4612 76.4525 77.5529C76.4817 77.5733 76.5143 77.61 76.4935 77.639C76.2945 77.6199 76.1144 77.4701 76.0596 77.2778Z" fill="#333333"/>
<path fill-rule="evenodd" clip-rule="evenodd" d="M76.2995 77.2265C76.1641 77.2679 76.0492 77.0461 76.1612 76.9595C76.2373 77.0331 76.2933 77.1273 76.3218 77.2292L76.2995 77.2265Z" fill="#333333"/>
<path fill-rule="evenodd" clip-rule="evenodd" d="M74.5774 73.4094C74.6762 73.5345 74.6795 73.7146 74.6261 73.8648C74.5728 74.0149 74.4711 74.1422 74.3712 74.2664C74.2779 74.3823 74.1597 74.5097 74.0113 74.4984C73.9859 74.3975 74.0796 74.3106 74.156 74.2399C74.3886 74.0245 74.5409 73.7243 74.5774 73.4094Z" fill="#333333"/>
<path fill-rule="evenodd" clip-rule="evenodd" d="M75.6794 76.6824C75.845 76.5316 76.0933 76.4782 76.3062 76.5476C76.5191 76.6171 76.6882 76.8067 76.7329 77.0261C76.7657 77.1869 76.7821 77.4122 76.9455 77.4282C76.9749 77.5333 76.7875 77.573 76.7198 77.4874C76.652 77.4019 76.6644 77.2808 76.6473 77.173C76.6017 76.8846 76.2899 76.6677 76.0037 76.7252C75.887 76.7487 75.7278 76.7912 75.6794 76.6824L75.6794 76.6824Z" fill="#333333"/>
<path fill-rule="evenodd" clip-rule="evenodd" d="M63.3463 78.5328C63.2672 78.2787 63.4488 77.9866 63.3371 77.745C63.3004 77.6656 63.236 77.6031 63.1797 77.5361C62.9936 77.3149 62.8882 77.0272 62.8875 76.7381C62.8872 76.6501 62.9271 76.5341 63.0147 76.5427C63.13 76.5539 63.1005 76.7259 63.0928 76.8414C63.0783 77.0607 63.2694 77.2299 63.3896 77.4139C63.5686 77.6879 63.5959 78.0546 63.4594 78.3521C63.4091 78.4616 63.5088 78.5755 63.5781 78.6741C63.7582 78.9307 63.7433 79.3072 63.5434 79.5488C63.4684 79.4984 63.465 79.3877 63.4925 79.3016C63.52 79.2155 63.5702 79.1349 63.5754 79.0447C63.5863 78.8554 63.4028 78.7138 63.3463 78.5328H63.3463Z" fill="#333333"/>
<path fill-rule="evenodd" clip-rule="evenodd" d="M67.2373 51.7777C67.341 51.6633 67.5181 51.788 67.6627 51.8422C67.9427 51.9472 68.2519 51.745 68.5479 51.7877C68.383 52.1278 67.9172 52.1677 67.5423 52.1191C67.4484 52.1069 67.3496 52.0899 67.2772 52.0289C67.2048 51.9679 67.1737 51.8479 67.2373 51.7777L67.2373 51.7777Z" fill="#333333"/>
<path fill-rule="evenodd" clip-rule="evenodd" d="M67.966 50.6939C67.911 50.624 67.9194 50.525 67.9305 50.4367C67.9384 50.3739 67.9463 50.3111 67.9542 50.2484C67.9728 50.1006 68.0337 49.9125 68.1826 49.9114C68.3382 49.9102 68.3976 50.1132 68.4008 50.2687C68.4035 50.4036 68.3964 50.5487 68.3145 50.6559C68.2327 50.7631 68.0494 50.8 67.966 50.6939V50.6939Z" fill="#333333"/>
<path fill-rule="evenodd" clip-rule="evenodd" d="M67.0308 49.991C67.1039 50.0078 67.1207 50.1028 67.1222 50.1778C67.1273 50.4266 67.0759 50.7498 66.8314 50.7957C66.7117 50.5699 66.7341 50.2761 66.8866 50.071C66.9214 50.0242 66.974 49.9779 67.0308 49.991L67.0308 49.991Z" fill="#333333"/>
<path fill-rule="evenodd" clip-rule="evenodd" d="M67.5143 50.3171C67.5326 50.3492 67.5204 50.3892 67.5098 50.4246C67.4059 50.7724 67.521 51.1758 67.7929 51.4165C67.5896 51.5449 67.3056 51.3676 67.2353 51.1377C67.165 50.9078 67.2402 50.6614 67.3149 50.4328C67.3454 50.3396 67.4655 50.232 67.5143 50.3171L67.5143 50.3171Z" fill="#333333"/>
<path fill-rule="evenodd" clip-rule="evenodd" d="M55.9515 42.3569C55.5946 42.3796 55.2378 42.4023 54.8809 42.4251C53.337 42.5233 51.793 42.6216 50.2491 42.7199C50.0311 42.7338 49.7382 42.6896 49.7129 42.4727C49.6348 41.8007 49.6491 41.1181 49.7552 40.45C49.7995 40.1715 50.1603 40.0971 50.4421 40.0878C52.1476 40.0316 53.8531 39.9754 55.5586 39.9192C55.7685 39.9122 55.9547 40.0735 56.0427 40.2642C56.1308 40.4549 56.1412 40.671 56.15 40.8808C56.1671 41.2824 56.1841 41.6839 56.2011 42.0854C56.204 42.1552 56.2046 42.2323 56.1595 42.2856C56.1107 42.3432 56.0268 42.3521 55.9515 42.3569ZM55.5776 40.7147C55.6151 40.5675 55.4775 40.4234 55.329 40.3917C55.1804 40.36 55.0279 40.4062 54.8807 40.4433C54.2936 40.5908 52.6629 40.5901 52.4414 40.5916C51.7935 40.5961 51.1456 40.6005 50.4977 40.605C50.3442 40.6061 50.2142 40.7324 50.1597 40.8759C50.1051 41.0195 50.1101 41.1777 50.1158 41.3311C50.1217 41.4896 50.1276 41.6481 50.1335 41.8066C50.137 41.9011 50.1494 42.0115 50.2305 42.0601C50.2656 42.0811 50.3077 42.0861 50.3484 42.0904C50.9765 42.1566 51.6097 42.1743 52.2405 42.1432C53.3565 42.0881 54.4729 41.8808 55.5843 41.9955C55.4731 41.5784 55.4708 41.1329 55.5776 40.7147Z" fill="#F2994A"/>
<path fill-rule="evenodd" clip-rule="evenodd" d="M30.1112 69.663C30.0385 69.6867 29.9293 69.6903 29.9163 69.615C30.0267 69.4834 30.2549 69.4774 30.3721 69.603C30.3097 69.6711 30.2055 69.6972 30.1183 69.6667L30.1112 69.663Z" fill="#333333"/>
<path fill-rule="evenodd" clip-rule="evenodd" d="M68.6648 49.5426C68.7638 49.6486 68.8548 49.7674 68.8964 49.9063C68.924 49.9985 68.7926 50.0704 68.7036 50.0337C68.6146 49.997 68.5646 49.9049 68.5116 49.8245C68.4587 49.7442 68.3806 49.6627 68.2846 49.6695C68.1873 49.6765 68.124 49.5436 68.1719 49.4586C68.2198 49.3736 68.336 49.3469 68.4295 49.3745C68.5231 49.402 68.5981 49.4714 68.6648 49.5426L68.6648 49.5426Z" fill="#333333"/>
<path fill-rule="evenodd" clip-rule="evenodd" d="M34.1652 67.1439C34.0485 66.5834 33.9189 66.02 33.6747 65.5023C33.4304 64.9845 33.0605 64.5098 32.5588 64.234C32.2946 64.0886 32.0026 64.0025 31.7244 63.8862C31.3838 63.7438 31.0624 63.5552 30.772 63.3273C31.0313 63.1812 31.3526 63.3185 31.6169 63.4554C32.2331 63.7747 32.8635 64.1047 33.3283 64.62C33.947 65.3058 34.2017 66.2392 34.3855 67.1444C34.3188 67.1826 34.2318 67.1824 34.1652 67.1439Z" fill="#333333"/>
<path fill-rule="evenodd" clip-rule="evenodd" d="M31.2761 71.9826C31.2773 71.9379 31.2873 71.885 31.3283 71.8671C31.4586 71.8103 31.5024 72.1775 31.6199 72.0975C31.7565 72.0044 31.9492 72.2079 31.878 72.357C31.8068 72.5062 31.5821 72.5274 31.4509 72.4269C31.3197 72.3264 31.2718 72.1478 31.2761 71.9826Z" fill="#333333"/>
<path fill-rule="evenodd" clip-rule="evenodd" d="M30.8405 70.361C30.6936 70.1152 30.7464 69.7988 30.851 69.5322C30.9141 69.3714 31.0106 69.2028 31.1755 69.1512C31.3404 69.0997 31.5569 69.2589 31.4918 69.4189C31.3378 69.4681 31.1776 69.5268 31.0729 69.6499C30.9682 69.7731 30.9455 69.9807 31.0672 70.0871C31.1277 70.1399 31.1156 70.2367 31.0888 70.3124C31.0619 70.3881 31.025 70.4696 31.052 70.5452C31.079 70.6209 31.2116 70.6456 31.2306 70.5676C31.2514 70.4817 31.3847 70.4851 31.4477 70.5471C31.5107 70.6091 31.5358 70.7007 31.594 70.7673C31.6521 70.8338 31.7783 70.8584 31.8178 70.7793C31.8553 70.704 31.978 70.7089 32.0291 70.7757C32.0802 70.8426 32.0698 70.9405 32.0292 71.0143C31.941 71.1747 31.7153 71.2409 31.5545 71.1536C31.4599 71.1022 31.3946 71.0112 31.3145 70.9393C31.2345 70.8675 31.1199 70.8126 31.0211 70.8551C30.9266 70.8957 30.8443 70.7663 30.849 70.6636C30.8537 70.5609 30.8932 70.4493 30.8405 70.361Z" fill="#333333"/>
<path fill-rule="evenodd" clip-rule="evenodd" d="M27.3838 53.5353C27.5746 53.3702 27.6426 53.0779 27.5441 52.8456C27.5074 52.7588 27.4716 52.6231 27.5631 52.6006C27.8417 52.8442 27.8653 53.3242 27.6121 53.594C27.568 53.641 27.5091 53.6843 27.4453 53.6757C27.3815 53.6671 27.3351 53.5774 27.3838 53.5353L27.3838 53.5353Z" fill="#333333"/>
<path fill-rule="evenodd" clip-rule="evenodd" d="M26.9421 52.064C27.0843 52.0679 27.1914 52.2113 27.2036 52.3531C27.2159 52.4949 27.1574 52.6324 27.0952 52.7604C27.0567 52.8395 26.9924 52.9306 26.9056 52.9158C26.8403 52.9046 26.8022 52.8376 26.774 52.7775C26.7113 52.644 26.6506 52.5013 26.6646 52.3545C26.6786 52.2077 26.7947 52.0601 26.9421 52.064V52.064Z" fill="#333333"/>
<path fill-rule="evenodd" clip-rule="evenodd" d="M27.9404 52.7313C27.8183 52.7646 27.7507 52.5917 27.7545 52.4653C27.7579 52.3534 27.7738 52.2364 27.8393 52.1455C27.9047 52.0547 28.0677 51.9456 28.1299 52.096C28.1922 52.2464 28.1551 52.4741 28.0392 52.6463C28.0144 52.6831 27.9832 52.7196 27.9404 52.7313Z" fill="#333333"/>
<path fill-rule="evenodd" clip-rule="evenodd" d="M26.5383 53.6138C26.5802 53.606 26.622 53.5982 26.6638 53.5903C26.6764 53.7298 26.8118 53.8242 26.9421 53.8754C27.0725 53.9266 27.2178 53.9593 27.3157 54.0594C27.3511 54.0956 27.3755 54.1619 27.3343 54.1914C27.3162 54.2044 27.2921 54.204 27.2699 54.2025C26.9279 54.18 26.5559 53.9561 26.5383 53.6138Z" fill="#333333"/>
<path fill-rule="evenodd" clip-rule="evenodd" d="M26.4931 51.8654C26.4 51.8444 26.3974 51.695 26.4741 51.6382C26.5508 51.5813 26.658 51.5942 26.7497 51.6208C26.9519 51.6795 27.1379 51.7929 27.2827 51.9458C27.0311 52.058 26.7169 51.7049 26.4931 51.8654V51.8654Z" fill="#333333"/>
<path fill-rule="evenodd" clip-rule="evenodd" d="M20.6595 70.2377C20.9019 70.3512 21.2266 70.122 21.201 69.8556C21.357 69.9907 21.5293 70.1811 21.4591 70.3753C21.433 70.4477 21.3758 70.5046 21.315 70.5518C21.1019 70.7172 20.8316 70.7903 20.5651 70.832C20.2859 70.8758 19.9726 70.8807 19.7528 70.7031C19.5357 70.5277 19.4761 70.1859 19.621 69.9473C19.6567 69.8886 19.7072 69.8335 19.774 69.8171C19.9203 69.7811 20.0431 69.9519 20.0414 70.1025C20.0396 70.2531 19.9644 70.3928 19.9392 70.5413C19.9347 70.5678 19.9319 70.5953 19.9384 70.6213C19.9658 70.7298 20.132 70.7337 20.2146 70.6582C20.2972 70.5827 20.3277 70.4674 20.3847 70.3711C20.4418 70.2749 20.5582 70.1902 20.6595 70.2377ZM20.6642 70.7033C20.7114 70.6592 20.7586 70.6151 20.8058 70.5709C20.788 70.5143 20.712 70.4855 20.6612 70.5162C20.6104 70.5468 20.6005 70.6275 20.6422 70.6696L20.6642 70.7033Z" fill="#333333"/>
<path fill-rule="evenodd" clip-rule="evenodd" d="M19.5455 71.83C19.6021 71.9899 19.8237 72.0309 19.9785 71.9615C20.0088 71.9479 20.0396 71.9294 20.0534 71.8992C20.0935 71.8115 19.9654 71.7231 19.9837 71.6285C19.9992 71.5485 20.1054 71.5259 20.1852 71.5425C20.265 71.5592 20.347 71.597 20.4244 71.5715C20.5141 71.542 20.5567 71.4409 20.5792 71.3492C20.6016 71.2574 20.6193 71.1559 20.6908 71.0942C20.7623 71.0325 20.9068 71.0591 20.9098 71.1535C20.9156 71.3362 20.7761 71.4904 20.6301 71.6004C20.4842 71.7105 20.317 71.8045 20.2212 71.9602C20.1302 72.1081 20.0775 72.3272 19.9047 72.3443C19.8493 72.3498 19.7946 72.3301 19.7444 72.3061C19.3837 72.1333 19.1691 71.6998 19.2503 71.3083C19.2863 71.1346 19.4601 70.9438 19.6119 71.0356C19.7347 71.1098 19.7101 71.2958 19.6475 71.4249C19.5849 71.554 19.4975 71.6948 19.5455 71.83V71.83Z" fill="#333333"/>
<path fill-rule="evenodd" clip-rule="evenodd" d="M29.2101 60.0621C29.3746 62.3511 30.8873 64.2884 32.3352 66.0689C32.7466 66.5748 33.185 67.101 33.7912 67.341C34.9324 67.7928 36.3492 67.1086 37.4037 67.7369C31.8868 67.7496 26.3707 68.0517 20.8854 68.6415C20.4134 68.6923 19.9258 68.7438 19.472 68.6045C19.0181 68.4651 18.6033 68.0814 18.5844 67.607C18.3434 61.5442 18.1024 55.4814 17.8614 49.4186C17.8167 48.2954 17.7716 47.1677 17.5666 46.0625C17.2983 44.6161 17.2919 43.1356 17.2864 41.6645C17.2791 39.7518 17.2719 37.839 17.2646 35.9263C23.4824 35.6571 29.7098 35.6114 35.9309 35.7893C36.186 36.1689 36.2377 36.6453 36.2803 37.1008C37.0023 44.8113 37.2265 52.5588 37.4502 60.2998C37.5173 62.6194 37.5843 64.9389 37.6514 67.2584C37.5363 67.2201 37.4212 67.1817 37.3062 67.1434C37.035 59.8183 36.7638 52.4932 36.4926 45.1681C36.4874 45.0283 36.4732 44.8697 36.3629 44.7835C36.2784 44.7175 36.1623 44.715 36.0551 44.7154C30.2883 44.7364 24.5214 44.7574 18.7546 44.7784C18.3075 44.7801 17.6794 45.0126 17.8245 45.4356C18.5249 47.4777 18.278 49.7022 18.2863 51.8611C18.291 53.0608 18.3772 54.2586 18.4633 55.4553C18.5684 56.9147 18.6735 58.3741 18.7786 59.8335C19.0282 59.1858 19.2778 58.5381 19.5274 57.8905C19.5853 57.7402 19.6375 57.5531 19.5307 57.4327C18.7374 56.5377 18.9861 54.9389 20.0138 54.3272C20.2111 54.2097 20.4319 54.1228 20.5935 53.9597C21.0483 53.5008 20.8333 52.6912 21.1687 52.139C21.6666 51.3191 23.2047 51.2884 23.2582 50.3307C23.3065 49.4657 24.0918 48.7679 24.9422 48.6022C25.7926 48.4365 26.6738 48.7062 27.4397 49.1113C28.1873 49.5067 28.9284 50.1483 28.9606 50.9934C28.9733 51.326 28.8722 51.6511 28.7723 51.9685C28.4103 53.1184 27.985 54.3558 26.985 55.029C28.2752 56.3842 29.076 58.1957 29.2101 60.0621ZM28.2596 63.1222C29.002 64.5837 30.4111 65.6248 31.1356 67.0953C31.1681 67.1612 31.202 67.2312 31.2634 67.2717C31.3332 67.3178 31.423 67.3156 31.5067 67.3132C32.1404 67.2951 32.7764 67.3601 33.3934 67.5059C31.9328 66.2391 30.8313 64.614 29.832 62.9589C29.4715 62.3619 29.1125 61.728 29.0771 61.0315C28.974 59.0005 28.2285 57.0069 26.9738 55.4065C26.5125 54.8182 25.5201 54.9319 24.9903 55.4593C24.4604 55.9867 24.2909 56.7717 24.2136 57.5153C24.1885 57.7573 24.1715 58.0083 24.2517 58.2381C24.3319 58.4678 24.5337 58.6719 24.7769 58.6805C25.02 58.6891 25.2567 58.4334 25.1724 58.2051C25.2587 58.3902 25.3451 58.5752 25.4315 58.7602C25.0772 59.1412 24.3897 59.0172 24.0637 58.6117C23.7377 58.2061 23.7101 57.6306 23.8215 57.1224C24.0842 55.9227 25.0858 54.9178 26.2846 54.651C26.2986 54.4172 25.9527 54.3477 25.7397 54.4452C25.5267 54.5427 25.3236 54.7226 25.0929 54.6821C24.8819 54.645 24.7616 54.9065 24.6868 55.1071C24.2648 56.2377 23.0578 56.8219 22.0819 57.5317C21.7491 57.7737 21.4207 58.0474 21.0212 58.146C20.6217 58.2446 20.1234 58.0984 19.9811 57.7123C18.7591 60.8698 18.4697 64.3818 19.1583 67.6967C19.2072 67.9323 19.424 68.1041 19.6552 68.1709C19.8864 68.2376 20.1325 68.2188 20.3724 68.1994C23.9294 67.9117 27.4864 67.624 31.0434 67.3363C30.1961 65.7038 28.6023 64.529 27.8763 62.839C27.707 62.4448 27.5874 62.0272 27.3724 61.6559C27.0469 61.0937 26.5159 60.6611 26.25 60.0683C25.929 60.5099 25.608 60.9514 25.287 61.3929C25.2148 61.4923 25.2482 61.6302 25.2845 61.7476C25.365 62.0077 25.4491 62.2748 25.6204 62.4864C25.7917 62.6981 26.0732 62.8439 26.3369 62.7763C26.8748 62.6383 27.4875 62.8706 27.7986 63.3305C27.1408 63.2065 26.483 63.0824 25.8252 62.9584C25.7299 62.9404 25.6299 62.9202 25.556 62.8575C25.4933 62.8042 25.4573 62.7268 25.4233 62.6519C25.3009 62.3831 25.1785 62.1143 25.0561 61.8454C24.9493 61.611 24.8446 61.328 24.9808 61.1093C25.096 60.9242 25.3356 60.8686 25.5152 60.7449C26.011 60.4037 25.9461 59.6486 25.7201 59.0907C25.4942 58.5329 25.1556 57.9585 25.2862 57.371C25.5536 58.2402 25.8272 59.1226 26.3264 59.8828C26.6949 60.444 27.1786 60.9258 27.5165 61.506C27.8151 62.0187 27.9909 62.5932 28.2596 63.1222ZM17.6967 36.4823C17.7119 37.8408 17.7271 39.1992 17.7423 40.5576C17.7457 40.857 17.8558 41.2619 18.1542 41.2381C24.0511 40.7695 29.9747 40.6363 35.8867 40.8394C36.0504 40.845 36.1857 40.6945 36.2221 40.5348C36.2585 40.375 36.2208 40.2089 36.1856 40.0489C35.9175 38.8295 35.79 37.5793 35.8065 36.3308C35.8091 36.1328 35.5452 36.066 35.3472 36.0624C29.5513 35.9564 23.7528 35.9884 17.9584 36.1582C17.9015 36.1599 17.8413 36.1625 17.7933 36.1934C17.7039 36.2509 17.6955 36.376 17.6967 36.4823M36.4732 44.1535C36.4955 43.1345 36.4336 42.1136 36.2885 41.1047C35.8139 41.2832 35.2934 41.3379 34.792 41.2621C34.2948 41.1868 33.7899 41.1825 33.2871 41.1784C30.9824 41.1594 28.6773 41.1404 26.3729 41.181C23.5843 41.2303 20.7979 41.3669 18.0134 41.5256C17.9373 41.5299 17.8552 41.5366 17.7976 41.5864C17.7228 41.6511 17.7165 41.763 17.7164 41.8619C17.7156 42.6514 17.7494 43.4409 17.8179 44.2273C17.822 44.2749 17.8275 44.3256 17.8578 44.3626C17.9054 44.4208 17.9925 44.4216 18.0677 44.4176C23.5743 44.1207 29.0939 44.3123 34.6085 44.3174C35.2344 44.318 35.8686 44.3151 36.4732 44.1535ZM23.6223 49.8424C23.4729 50.203 23.4668 50.622 23.2526 50.9483C22.8177 51.6112 21.7374 51.602 21.3306 52.2824C21.0012 52.8335 21.2528 53.6353 20.8203 54.1098C20.603 54.3483 20.2679 54.4337 19.9965 54.6083C19.4277 54.9742 19.1904 55.7438 19.3651 56.3972C19.5398 57.0505 20.0728 57.573 20.697 57.8333C20.808 57.8795 20.927 57.9191 21.0463 57.9044C21.1811 57.8878 21.2972 57.8048 21.4067 57.7245C22.1621 57.1707 22.9175 56.6169 23.6729 56.0631C23.9511 55.8592 24.2398 55.6428 24.3901 55.3324C24.6445 54.8065 24.4608 54.0953 24.8622 53.6709C25.0171 53.5071 25.2396 53.4148 25.3787 53.2373C25.5177 53.0599 25.5007 52.7276 25.2801 52.6809C25.0397 52.63 25.1031 52.2475 25.294 52.0927C25.4849 51.938 25.7562 51.8411 25.828 51.6061C25.8958 51.3846 25.7939 51.0529 26.0131 50.9778C26.1392 50.9346 26.2642 51.0328 26.3758 51.1055C26.8683 51.4266 27.6118 51.2586 27.9184 50.757C28.0375 50.5621 28.3442 50.7696 28.4 50.9911C28.4557 51.2127 28.4641 51.4983 28.6744 51.5876C28.8827 51.2608 28.82 50.8164 28.6158 50.487C28.4117 50.1576 28.0901 49.9206 27.7687 49.704C27.1094 49.2595 26.3858 48.8547 25.5929 48.795C24.7999 48.7353 23.9266 49.1077 23.6223 49.8424ZM25.9859 52.6965C25.8025 53.3687 24.8581 53.6601 24.7806 54.3526C24.9572 54.5463 25.2812 54.4548 25.4995 54.3096C25.6107 54.2356 25.7182 54.1476 25.779 54.0287C25.8397 53.9097 25.8435 53.7536 25.758 53.6509C25.6838 53.5617 25.8511 53.4408 25.9504 53.5008C26.0498 53.5609 26.0746 53.6904 26.1048 53.8025C26.1691 54.0414 26.3009 54.2618 26.4809 54.4316C26.6309 54.5731 26.8499 54.6826 27.0392 54.601C27.1172 54.5673 27.1791 54.5054 27.2367 54.443C27.8351 53.7964 28.2073 52.9443 28.2749 52.0659C28.2826 51.9662 28.2783 51.8483 28.1965 51.7906C28.1162 51.7339 28.0073 51.7668 27.9099 51.7801C27.8126 51.7934 27.6833 51.7568 27.6788 51.6586C27.79 51.5509 27.9803 51.5379 28.1052 51.6294C28.1578 51.668 28.2095 51.5769 28.2076 51.5117C28.2023 51.3251 28.1423 51.1405 28.0369 50.9864C27.805 51.245 27.5042 51.4546 27.1628 51.5182C26.8214 51.5819 26.4389 51.4793 26.2188 51.2108C26.0859 51.4944 26.0269 51.8123 26.0492 52.1247C26.0572 52.2369 25.8941 52.2715 25.7876 52.2354C25.6811 52.1992 25.5595 52.1362 25.4658 52.1985C25.3748 52.2588 25.3851 52.4056 25.4578 52.487C25.5306 52.5684 25.6418 52.6012 25.747 52.6303C25.8266 52.6524 25.9063 52.6745 25.9859 52.6965ZM19.2756 59.1823C19.2918 59.1132 19.2994 59.0229 19.2371 58.9889C19.0806 59.4495 18.9335 59.9133 18.796 60.3799C18.7432 60.559 18.694 60.7613 18.7846 60.9246C18.85 60.9274 18.8835 60.8487 18.8985 60.7849C19.0242 60.2507 19.1499 59.7165 19.2756 59.1823Z" fill="#333333"/>
<path fill-rule="evenodd" clip-rule="evenodd" d="M34.0017 72.6583C37.3966 72.3846 40.8071 72.3045 44.211 72.4186C44.1118 71.2741 44.0125 70.1297 43.9133 68.9852C40.4405 69.1417 36.9678 69.2982 33.495 69.4548C33.3882 70.4714 32.9939 71.4562 32.3695 72.2657C32.0687 72.6556 32.3273 73.2065 32.5205 73.6595C32.7137 74.1125 32.7292 74.7992 32.2546 74.9309C31.6284 74.6227 31.1821 73.9758 31.1163 73.281C28.5482 73.393 25.9801 73.505 23.412 73.617C22.4575 73.6586 21.2794 73.8621 20.9953 74.7743C20.8843 74.0555 19.9351 73.8903 19.2079 73.9001C17.0347 73.9293 14.8615 73.9585 12.6883 73.9876C12.6552 72.9956 12.622 72.0036 12.5889 71.0115C12.5825 70.8193 12.578 70.6178 12.6642 70.4459C12.8957 69.9843 13.5604 70.0334 14.063 70.152C13.9014 68.5368 13.7399 66.9216 13.5784 65.3065C12.829 65.4779 13.0701 63.5567 12.3159 63.705C11.8593 63.7948 11.4289 63.3756 11.3314 62.9206C11.234 62.4655 11.3761 61.9972 11.5167 61.5537C11.9406 61.4242 12.5481 61.5523 12.9777 61.4242C13.4072 61.2961 13.669 61.0485 13.654 60.6005C13.3424 51.2967 12.6696 42.005 11.6377 32.7533C10.9789 33.0367 10.1944 32.5253 9.92937 31.8589C9.66433 31.1925 9.77786 30.4419 9.91653 29.7383C9.96519 29.4913 10.025 29.229 10.2063 29.0544C10.4375 28.8319 10.7928 28.818 11.1136 28.8173C21.1816 28.7944 31.2496 28.7715 41.3176 28.7486C41.5371 28.7481 41.7788 28.7557 41.941 28.9035C42.0893 29.0387 42.1284 29.2531 42.1592 29.4513C42.2788 30.2222 42.3963 31.0259 42.161 31.7696C41.9257 32.5133 41.2223 33.1714 40.4475 33.0804C40.8713 42.2626 41.2951 51.4447 41.7189 60.6269C42.4096 60.4759 43.2174 60.7316 43.5619 61.349C43.9064 61.9664 43.5922 62.8994 42.9023 63.0539C43.3425 63.4199 43.13 64.1989 42.6456 64.504C42.1613 64.8091 41.5451 64.7779 40.9751 64.7258C40.405 64.6737 39.7966 64.6182 39.2911 64.8868C39.4104 65.9933 39.3955 67.1141 39.2469 68.217C39.7372 67.9246 40.4008 67.9552 40.8621 68.2915C41.1824 68.5249 41.4734 67.9568 41.4704 67.5605C41.4633 66.6375 41.4563 65.7145 41.4493 64.7915C41.9492 65.938 42.0883 67.2389 41.8421 68.4652C42.4585 68.5133 43.0748 68.5613 43.6912 68.6094C43.8765 68.6239 44.0771 68.6448 44.213 68.7716C44.3483 68.8978 44.3834 69.0957 44.4069 69.2792C44.5587 70.4639 44.536 71.6709 44.3399 72.8491C40.3464 72.5723 36.3255 72.6932 32.3558 73.2097C32.7675 72.784 33.4115 72.7059 34.0017 72.6583ZM22.1538 69.6525C22.4402 68.8558 23.4868 68.7127 24.3334 68.7032C24.7231 68.6988 25.1127 68.6944 25.5024 68.6901C26.3452 68.6806 27.1913 68.6713 28.0271 68.7794C28.1311 68.9034 28.2351 69.0274 28.3391 69.1514C28.6723 69.0455 29.0678 69.1859 29.2595 69.4783C29.8296 68.8863 30.533 68.3711 31.3461 68.2514C32.1592 68.1316 33.0842 68.5075 33.395 69.2683C33.5073 68.8825 33.6476 68.473 33.9718 68.2356C34.296 67.9982 34.8567 68.056 34.9894 68.4352C35.5126 67.855 36.5703 67.9034 37.0384 68.529C37.0437 68.2244 37.4568 68.1172 37.7552 68.1789C38.0535 68.2406 38.3826 68.373 38.6435 68.2155C38.9243 68.046 38.9414 67.6524 38.9254 67.3247C38.4024 56.569 37.8794 45.8132 37.3564 35.0574C37.3527 34.9818 37.3459 34.8988 37.2923 34.8454C37.2364 34.7897 37.1489 34.7852 37.07 34.7842C30.2284 34.6972 23.3869 34.6102 16.5454 34.5231C16.3984 34.5213 16.2337 34.5264 16.1313 34.6318C16.0347 34.7312 16.0283 34.8848 16.0279 35.0234C15.9977 43.6523 16.3415 52.2825 17.0579 60.8817C17.0861 61.2195 17.2726 61.6753 17.5975 61.5786C17.614 62.5493 17.6305 63.52 17.647 64.4907C17.6507 64.7106 17.6365 64.9677 17.4559 65.0933C17.3555 65.1632 17.2267 65.1731 17.1046 65.1808C16.1057 65.2438 15.1068 65.3067 14.1079 65.3697C14.2639 66.9134 14.4199 68.457 14.5759 70.0007C15.4699 70.0307 16.3665 69.9836 17.2525 69.8603C16.828 68.5197 16.6787 67.0926 16.8166 65.6932C17.1162 65.7177 17.2105 66.1054 17.2258 66.4056C17.2625 67.1261 17.2991 67.8465 17.3358 68.5669C17.3552 68.948 17.3841 69.3557 17.6188 69.6565C17.8534 69.9574 18.3745 70.0595 18.6037 69.7545C19.4201 68.6678 21.2764 68.6145 22.1538 69.6525ZM41.1266 56.2963C40.7646 48.5657 40.4025 40.835 40.0404 33.1043C30.6658 33.0095 21.2912 32.9147 11.9165 32.8199C13.2635 42.2553 13.6501 51.798 14.0349 61.3212C14.9172 61.4256 15.8118 61.4254 16.694 61.3206C16.44 57.5592 16.186 53.7978 15.9321 50.0364C15.8418 48.6997 15.7516 47.3626 15.7073 46.0235C15.6705 44.9095 15.6656 43.7947 15.6606 42.6801C15.6492 40.1007 15.6378 37.5212 15.6264 34.9418C15.6252 34.6584 15.7141 34.2778 15.9975 34.2791C23.1094 34.3139 30.2213 34.3487 37.3332 34.3835C37.4897 34.3842 37.6742 34.4 37.7554 34.5338C37.7948 34.5986 37.7996 34.6779 37.8035 34.7537C38.0921 40.4408 38.3807 46.1281 38.6064 51.8181C38.644 52.7669 38.6799 53.7159 38.7158 54.6648C38.7905 56.6385 38.8652 58.6122 38.9398 60.5859C38.9469 60.7743 39.2044 60.8196 39.3925 60.8071C40.0389 60.7643 40.6854 60.7214 41.3319 60.6785C41.2635 59.2178 41.195 57.757 41.1266 56.2963ZM10.1643 31.6324C10.2985 32.0989 10.6887 32.5283 11.1737 32.547C18.2223 32.8195 25.2843 32.4078 32.3324 32.6902C35.1887 32.8046 38.0666 33.0319 40.8932 32.6053C41.0866 32.5761 41.2899 32.5393 41.4393 32.413C41.5791 32.2947 41.6501 32.1156 41.7057 31.9411C41.9349 31.2225 41.9902 30.4491 41.8659 29.7051C41.8347 29.5191 41.7801 29.316 41.622 29.2132C41.504 29.1366 41.3545 29.1337 41.2138 29.1334C36.9678 29.1233 32.7219 29.1131 28.4759 29.103C27.7894 29.1014 27.1029 29.0998 26.4165 29.0981C24.1676 29.0928 21.9187 29.0874 19.6699 29.082C16.7464 29.0751 13.8227 29.0681 10.8996 29.1134C10.4241 29.1207 10.2272 29.7167 10.1621 30.1877C10.0956 30.6685 10.0302 31.166 10.1643 31.6324ZM28.7626 69.8056C26.5886 69.8844 24.4146 69.9633 22.2406 70.0421C22.42 70.0821 22.4382 70.3393 22.3606 70.5058C22.283 70.6724 22.1496 70.8299 22.1671 71.0128C22.2219 71.5873 22.0438 72.1807 21.6817 72.6301C21.4252 72.9485 21.0571 73.3455 21.2694 73.695C21.8799 73.3942 22.5807 73.3515 23.2601 73.3141C25.7565 73.1767 28.2529 73.0393 30.7493 72.9019C30.9118 72.2968 30.0175 71.7322 30.2657 71.1569C30.3224 71.0256 30.2319 70.8808 30.1458 70.7665C29.7936 70.2992 29.3473 69.7844 28.7626 69.8056ZM13.048 71.0521C13.1006 71.9014 13.2072 72.7472 13.3669 73.583C15.5066 73.5765 17.6463 73.5699 19.786 73.5634C19.8928 73.5631 20.0449 73.4774 19.9755 73.3961C19.6359 72.9979 19.2963 72.5997 18.9566 72.2015C18.7676 71.9799 18.5715 71.7437 18.5202 71.457C18.4427 71.0235 18.6887 70.4897 18.3723 70.1835C16.7103 70.4656 15.0191 70.5754 13.3346 70.5108C13.1032 70.5019 13.0336 70.821 13.048 71.0521ZM30.7483 71.9498C30.9447 72.2839 30.8238 72.7901 31.1364 73.0191C31.6647 73.406 31.5794 74.4068 32.2068 74.5946C32.3186 74.482 32.4334 74.365 32.4909 74.217C32.5484 74.0691 32.5334 73.8808 32.4127 73.7777C32.0817 73.4949 32.0052 73.0008 32.0957 72.5749C32.1862 72.1491 32.414 71.7676 32.6091 71.3783C32.8349 70.9277 33.0204 70.4568 33.1627 69.9732C33.2263 69.7571 33.2686 69.4897 33.1042 69.3358C32.9672 69.2076 32.724 69.2036 32.6396 69.0361C32.5956 68.9488 32.6104 68.8397 32.5617 68.7549C32.5085 68.6626 32.3963 68.6252 32.2937 68.5963C31.9591 68.502 31.6126 68.4179 31.267 68.4553C30.9213 68.4927 30.5724 68.6739 30.4222 68.9875C30.295 69.2531 29.8481 69.1239 29.6412 69.3334C29.4316 69.5457 29.6277 69.9092 29.8677 70.0863C30.1077 70.2635 30.4172 70.4165 30.4782 70.7085C30.5329 70.9707 30.3553 71.248 30.4374 71.503C30.4933 71.6767 30.6558 71.7926 30.7483 71.9498ZM11.9405 63.3094C12.0435 63.4719 12.2686 63.4924 12.4609 63.4928C13.969 63.4961 15.4713 63.3245 16.9696 63.1531C17.2405 63.1222 17.3071 62.7555 17.2615 62.4867C17.216 62.2178 17.1491 61.8914 17.356 61.7138C15.6303 61.59 13.8945 61.6082 12.1718 61.7682C12.0873 61.7761 11.995 61.7879 11.9364 61.8492C11.8726 61.9159 11.8697 62.0182 11.8706 62.1105C11.8733 62.4055 11.8761 62.7006 11.8789 62.9957C11.8799 63.1037 11.8827 63.2181 11.9405 63.3094ZM21.6469 69.6178C21.3267 69.3989 20.951 69.1694 20.5763 69.27C20.4799 69.2959 20.3703 69.3413 20.2877 69.2851C19.8744 69.0035 19.2159 69.2375 19.0728 69.7168C19.0272 69.8697 18.8616 69.9489 18.761 70.0727C18.6603 70.1966 18.6978 70.4541 18.8557 70.4309C18.9869 70.4116 19.054 70.6023 18.9982 70.7225C18.9423 70.8428 18.8241 70.9229 18.7573 71.0375C18.5794 71.3427 18.8257 71.7132 19.0586 71.9788C19.4224 72.3936 19.7861 72.8083 20.1498 73.223C20.4565 73.5726 20.7698 73.9333 20.9274 74.3708C21.1537 74.22 21.1071 73.8787 21.024 73.6197C20.9409 73.3607 20.863 73.0354 21.0627 72.8509C21.1455 72.7744 21.2673 72.7354 21.3183 72.6349C21.3692 72.5344 21.2255 72.3821 21.1623 72.4753C21.0493 72.642 20.8609 72.7906 20.6638 72.7495C20.4667 72.7083 20.3807 72.3815 20.5683 72.3085C20.634 72.4418 20.836 72.3688 20.9549 72.2798C21.1245 72.1527 21.2941 72.0257 21.4637 71.8986C21.6838 71.7338 21.9209 71.5417 21.9639 71.2702C22.0097 70.9807 21.8307 70.6328 22.0304 70.4184C21.8635 70.274 21.9568 69.9864 21.8428 69.7974C21.7967 69.7209 21.7207 69.6682 21.6469 69.6178ZM39.0085 62.9243C39.1975 62.8325 39.4124 62.8133 39.6217 62.7951C40.6963 62.7017 41.7699 62.5964 42.8422 62.4792C42.9757 62.4646 43.1138 62.4483 43.2293 62.3798C43.4617 62.2419 43.5326 61.913 43.4283 61.6637C43.3239 61.4144 43.0812 61.2437 42.8232 61.1632C42.5652 61.0826 42.2901 61.0801 42.0198 61.0825C41.1247 61.0905 40.23 61.1453 39.3406 61.2465C39.1829 61.2645 39.0064 61.2946 38.9147 61.4242C38.8325 61.5404 38.8475 61.6968 38.866 61.8379C38.9135 62.2001 38.961 62.5622 39.0085 62.9243ZM13.4371 64.7536C13.5604 64.95 13.8181 65.0204 14.0495 65.0057C14.2809 64.9909 14.5024 64.9089 14.7312 64.871C15.4672 64.7493 16.2612 65.0841 16.9496 64.7964C17.0043 64.7735 17.0599 64.7448 17.0931 64.6957C17.1259 64.6472 17.1321 64.5861 17.1366 64.5277C17.1584 64.2491 17.1659 63.9693 17.1592 63.6899C17.1582 63.6463 17.1544 63.5975 17.1217 63.5688C17.0964 63.5466 17.0603 63.5426 17.0267 63.54C15.8084 63.4461 14.5984 63.8264 13.3765 63.8086C13.2946 63.8074 13.2741 63.9218 13.2826 64.0033C13.2974 64.1443 13.3156 64.2849 13.3371 64.425C13.3547 64.539 13.3758 64.6559 13.4371 64.7536ZM42.7561 63.1624C42.745 63.1043 42.73 63.0427 42.6869 63.0022C42.6257 62.9449 42.5311 62.9489 42.4476 62.9566C41.4742 63.0463 40.5014 63.1421 39.5292 63.2439C39.3964 63.2578 39.2436 63.2842 39.1775 63.4003C39.0967 63.5419 39.1972 63.7152 39.2037 63.878C39.2078 63.98 39.1752 64.0897 39.2231 64.1799C39.2868 64.2997 39.45 64.3135 39.5857 64.3111C39.9795 64.3044 40.3731 64.2914 40.7668 64.2784C41.3808 64.2582 41.9949 64.2379 42.609 64.2176C42.73 64.2136 42.7816 64.0629 42.793 63.9423C42.8176 63.6824 42.8051 63.4189 42.7561 63.1624ZM39.0078 68.5718C38.958 68.5445 38.9212 68.4972 38.871 68.4704C38.7645 68.4135 38.632 68.4639 38.5325 68.5323C38.4329 68.6008 38.3409 68.6892 38.2231 68.7161C38.1053 68.7429 37.9535 68.6678 37.9602 68.5472C37.9693 68.3816 37.7297 68.3164 37.58 68.3879C37.4304 68.4594 37.3218 68.6025 37.1672 68.6627C37.0644 68.7026 36.9436 68.7051 36.8592 68.7761C36.7749 68.847 36.794 69.0295 36.904 69.0218C38.04 68.9418 39.1761 68.8619 40.3121 68.782C40.4078 68.7752 40.519 68.7593 40.5665 68.676C40.6387 68.5494 40.4821 68.3965 40.3365 68.3993C40.1908 68.4022 40.0637 68.4923 39.9284 68.5464C39.694 68.64 39.4322 68.6251 39.1803 68.6087C39.1211 68.6048 39.0598 68.6004 39.0078 68.5718ZM25.2633 69.5573C26.1428 69.5019 27.0222 69.4465 27.9017 69.3911C27.9537 69.3879 28.0109 69.3823 28.047 69.3447C28.117 69.2716 28.0419 69.1406 27.9437 69.1159C27.8456 69.0913 27.7445 69.1313 27.6464 69.156C27.5483 69.1807 27.4289 69.184 27.3625 69.1076C27.2231 68.9469 26.9486 69.2713 26.7673 69.16C26.5173 69.0065 26.2223 68.9173 25.9299 68.9418C25.6376 68.9662 25.3507 69.112 25.1851 69.3541C25.1443 69.4136 25.1184 69.5096 25.1806 69.5461C25.205 69.5604 25.2351 69.5591 25.2633 69.5573ZM34.7753 68.2788C34.6408 68.2028 34.4762 68.3054 34.3677 68.4154C34.2377 68.547 34.1241 68.7594 34.2386 68.9047C34.3172 69.0044 34.4623 69.0135 34.5892 69.0143C34.8912 69.0161 35.1933 69.0179 35.4953 69.0197C35.5495 69.02 35.606 69.0198 35.6543 68.9952C35.7285 68.9573 35.7639 68.8727 35.7935 68.7949C35.8524 68.6402 35.8969 68.4323 35.7617 68.3368C35.7111 68.3012 35.6469 68.2927 35.5854 68.2852C35.4549 68.2693 35.3027 68.2608 35.2133 68.3572C35.0922 68.4877 35.1408 68.7571 34.9713 68.8113C34.885 68.6363 34.9451 68.3748 34.7753 68.2788ZM24.6147 69.4938C24.6577 69.4919 24.702 69.4897 24.7411 69.4715C24.8821 69.4062 24.849 69.1706 24.713 69.0954C24.577 69.0201 24.4054 69.0643 24.268 69.1369C24.1433 69.2029 23.9949 69.13 23.8616 69.0834C23.4945 68.955 23.059 69.0489 22.7773 69.3172C22.7048 69.3863 22.6387 69.4933 22.6876 69.5807C23.33 69.5518 23.9723 69.5228 24.6147 69.4938ZM36.007 69.0521C36.029 69.0664 36.0565 69.0686 36.0827 69.0698C36.2826 69.0791 36.532 69.0078 36.5642 68.8103C36.5829 68.6957 36.5038 68.5736 36.3917 68.5436C36.1998 68.4925 36.0303 68.6917 35.9768 68.8829C35.9602 68.9421 35.9552 69.0188 36.007 69.0521ZM34.045 68.6633C34.0541 68.5796 34.008 68.4538 33.9334 68.4926C33.8567 68.6337 33.8097 68.7909 33.7963 68.951C33.7914 69.0092 33.7923 69.0725 33.8265 69.1199C33.8608 69.1673 33.94 69.1847 33.9771 69.1395C33.9951 69.1176 33.9989 69.0876 34.002 69.0594C34.0163 68.9273 34.0307 68.7953 34.045 68.6633ZM21.4523 72.1632C21.3938 72.2792 21.4355 72.436 21.5439 72.5075C21.6197 72.4145 21.7003 72.3023 21.6722 72.1857C21.6441 72.069 21.4362 72.0334 21.4188 72.152M28.75 69.5349C28.8285 69.5466 28.9281 69.535 28.957 69.4611C28.873 69.3987 28.7597 69.3777 28.6589 69.4058C28.6355 69.4363 28.6269 69.4777 28.6361 69.515C28.6688 69.5369 28.7105 69.5446 28.7489 69.5359L28.75 69.5349Z" fill="#333333"/>
<path fill-rule="evenodd" clip-rule="evenodd" d="M80.5226 35.9924C80.8312 36.0005 81.1807 36.0276 81.375 36.2675C81.5349 36.4648 81.535 36.7427 81.5275 36.9965C81.2295 46.9875 80.8742 56.9767 80.4614 66.9636C80.0916 64.0527 80.2302 61.104 80.3694 58.173C80.6136 53.0305 80.8579 47.8879 81.1021 42.7453C81.0839 43.6202 80.78 44.7884 79.9053 44.7626C75.0654 44.6199 70.2254 44.4772 65.3854 44.3346C65.01 44.3235 64.5509 44.2563 64.4178 43.9051C69.7347 44.0491 75.0517 44.1931 80.3686 44.3372C80.5986 43.5035 80.6597 42.6235 80.547 41.7661C75.2132 41.6613 69.8795 41.5565 64.5458 41.4517C64.4351 41.1624 64.8767 40.9994 65.1863 41.006C70.2312 41.1144 75.2762 41.2227 80.3211 41.331C80.5883 41.3367 80.6894 40.9877 80.707 40.7211C80.7822 39.5838 80.8574 38.4466 80.9326 37.3093C80.9491 37.0596 80.9561 36.7804 80.7897 36.5936C80.6174 36.4003 80.3269 36.381 80.068 36.3756C74.8886 36.2664 69.7093 36.1572 64.53 36.048C64.187 42.8419 64.0801 49.6477 64.2097 56.4491C64.7398 55.0743 65.8518 53.935 67.2133 53.3717C66.3115 52.5291 66.0192 51.0994 66.5179 49.9704C65.9437 50.2663 65.4588 49.3509 65.6336 48.7291C65.6851 48.5459 65.9705 48.3694 66.0458 48.1872C66.226 47.7511 66.1414 47.477 66.057 46.8778C65.9726 46.2785 66.7929 46.1083 67.283 46.4001C67.7731 46.692 68.2581 47.2025 68.805 47.0404C69.4684 46.8438 70.1719 47.3698 70.422 48.0149C70.6721 48.6599 70.5886 49.3799 70.5014 50.0663C70.3754 51.0571 70.0543 52.2712 69.0758 52.471C69.0027 53.1774 70.0417 53.279 70.742 53.3974C71.6969 53.5588 72.4823 54.2867 72.9416 55.1393C73.401 55.9919 73.5816 56.9636 73.7264 57.9212C74.1903 60.9892 74.3386 64.1942 73.3373 67.1311C75.6174 67.0948 77.8976 67.0586 80.1778 67.0224C78.8519 67.4844 77.4182 67.5023 76.0141 67.5056C72.1746 67.5146 68.3349 67.4503 64.4979 67.3128C64.2671 67.3046 64.0159 67.2882 63.8436 67.1344C63.6592 66.9696 63.6225 66.6992 63.6013 66.4528C63.4647 64.866 63.4809 63.2661 63.6495 61.6824C63.7916 63.4423 63.9336 65.2021 64.0756 66.962C65.9389 67.031 67.8021 67.1 69.6654 67.169C70.3732 67.1952 71.2706 67.0978 71.4911 66.4247C71.4897 66.6467 71.4883 66.8687 71.4869 67.0907C71.975 67.197 72.4837 67.2077 72.9758 67.122C73.8312 64.6086 74.0044 61.8666 73.4721 59.2655C72.8968 59.2039 72.4084 59.7494 72.2869 60.3151C72.1655 60.8808 72.3016 61.465 72.3685 62.0397C72.5378 63.4943 72.2481 64.999 71.5507 66.2868C72.1467 64.5821 72.278 62.7176 71.9267 60.9463C71.6711 59.6576 71.1639 58.3959 71.2158 57.0832C71.6339 57.8669 71.834 58.7655 71.788 59.6526C72.3559 59.4165 72.9237 59.1805 73.4915 58.9445C73.3991 57.6661 73.2943 56.3437 72.6848 55.2162C72.0753 54.0887 70.8137 53.207 69.5562 53.4553C69.4446 54.2411 68.9103 55.0668 68.1182 55.1175C67.3261 55.1681 66.7161 53.9526 67.3917 53.536C65.7938 53.988 64.8539 55.594 64.0826 57.0647C63.7743 57.6524 63.4585 58.2746 63.4803 58.938C63.5021 59.6014 63.9956 60.299 64.6593 60.2959C65.4283 59.4724 65.8749 58.3554 65.8855 57.2288C66.0851 60.1422 66.0767 63.0699 65.8604 65.9822C65.8385 66.2775 65.5213 66.6687 65.3566 66.4227C65.761 64.2056 65.8089 61.924 65.4981 59.6919C64.782 60.6792 63.7976 61.47 62.6792 61.9566C62.1657 62.18 62.0337 62.8579 62.1176 63.4116C62.2016 63.9653 62.4286 64.5108 62.3559 65.0661C62.2832 65.6213 61.9827 66.1326 61.2034 65.934C60.424 65.7355 59.2976 66.0561 59.2976 66.0561C59.2976 66.0561 59.4437 68.6143 59.6974 69.3757C60.6756 70.1349 62.1439 68.6969 63.2736 69.2038C63.9763 69.5191 64.7769 69.5017 65.5467 69.4785C66.0273 69.464 66.7033 69.1024 66.4233 68.7115C65.2001 68.8401 63.9632 68.8384 62.7403 68.7064C62.2144 68.6497 61.8294 68.1409 61.7374 67.62C61.6454 67.0992 61.7796 66.5679 61.9128 66.0561C61.9941 66.4748 61.9647 67.2061 62.0098 67.5056C62.055 67.8052 62.1864 68.3011 62.5155 68.3332C65.097 68.5854 65.9631 68.4215 67.77 68C68.0876 67.9259 68.479 67.8324 68.805 67.8345C69.1953 67.8369 69.5602 68.0473 69.939 68.1412C71.254 68.467 72.6323 68.3653 73.983 68.2615C76.59 68.0612 79.197 67.8609 81.804 67.6607C82.8652 65.8742 80.8522 63.163 82.2823 61.6555C82.403 52.5922 82.5237 43.5288 82.6445 34.4654C75.8624 34.2512 69.0736 34.2516 62.2915 34.4667C61.8281 42.3339 61.7403 50.2233 62.0283 58.099C61.5983 56.9746 61.5681 55.7428 61.5492 54.5392C61.4473 48.0334 61.524 41.5249 61.779 35.0234C61.7907 34.7255 61.8215 34.3887 62.055 34.2033C62.2302 34.0641 62.4713 34.0522 62.695 34.0464C69.403 33.8747 76.1155 33.8777 82.8233 34.0553C82.8233 40.5023 83.1652 46.0189 82.7203 51.983C82.4735 55.2921 82.6445 58.3582 82.6445 61.6824C83.2903 61.76 84.1445 61.4539 84.3504 60.8368C84.5563 60.2197 84.477 59.5491 84.4113 58.9019C83.529 50.2096 85.5329 41.4378 84.8805 32.7252C76.5221 32.3424 68.1484 32.2945 59.7862 32.5816C59.6132 32.5876 59.4236 32.6002 59.2976 32.7191C59.1566 32.8522 59.1459 33.0691 59.1446 33.263C59.098 40.4518 59.0513 47.6406 59.0047 54.8294C58.5667 48.4792 58.4445 42.1035 58.7694 35.7466C58.8048 35.0526 58.8436 34.3413 58.6381 33.6774C58.4326 33.0136 57.926 32.3962 57.2431 32.2675C57.1084 31.0767 57.1265 29.8687 57.2965 28.6824C67.1394 28.7336 76.9822 28.7847 86.825 28.8359C86.8605 29.5849 86.8961 30.3338 86.9316 31.0827C86.9653 31.7918 86.6845 32.7958 85.9888 32.6546C85.7062 32.5972 85.5706 32.9872 85.5557 33.2752C85.4336 35.6411 85.3115 38.0071 85.1894 40.373C84.8265 47.4044 84.4635 54.4463 84.707 61.4829C85.3361 61.5143 85.9651 61.5457 86.5942 61.5771C86.7611 61.9722 86.9315 62.3923 86.8693 62.8166C86.8071 63.2409 86.4132 63.6473 85.9939 63.5576C86.3593 64.4096 85.3844 65.4778 84.5027 65.1915C84.5734 66.2103 84.6441 67.229 84.7149 68.2478C84.7282 68.4399 84.7481 68.6481 84.8786 68.7899C85.2854 69.2322 86.1572 68.5494 86.5868 68.9696C86.645 69.9716 86.7032 70.9736 86.7614 71.9756C86.7772 72.2489 86.7789 72.5602 86.5803 72.7485C86.4471 72.8749 86.255 72.9123 86.0739 72.9429C82.5431 73.5399 78.9238 73.6104 75.3724 73.1515C75.5632 74.0645 75.7106 75.1434 75.065 75.8166C74.5888 76.3132 73.6787 76.7001 73.8955 77.3531C74.2859 77.2705 74.6393 77.0258 74.8538 76.6894C74.8122 77.1258 74.4062 77.4965 73.9678 77.4984C73.5916 77.5381 73.6664 76.9095 73.9232 76.6316C74.4869 76.0214 75.2158 75.4755 75.3953 74.6644C75.5747 73.8533 74.6458 72.862 73.9885 73.37C73.5932 73.6755 73.6112 74.2669 73.6667 74.7634C73.3114 74.3626 73.3577 73.6726 73.7634 73.3229C72.7057 73.5641 71.6083 73.6303 70.5293 73.5178C71.8921 73.3113 73.255 73.1047 74.6178 72.8982C74.2299 71.8243 74.331 70.5844 74.8878 69.5876C74.0351 69.4937 73.167 69.5412 72.3296 69.7276C72.0953 69.7797 71.8558 69.8463 71.6684 69.9964C71.4716 70.1541 71.3528 70.3872 71.2453 70.6153C70.3326 72.5504 69.8072 74.6671 69.7093 76.8044C69.4972 75.5745 69.6534 74.2835 70.1529 73.1397C70.0327 72.9489 69.877 72.7806 69.6962 72.646C70.9388 72.1594 71.5348 70.4784 70.8762 69.3177C70.7727 69.1352 70.6445 68.9669 70.4988 68.8159C69.6231 67.9084 68.0775 67.7501 67.036 68.4614C66.591 69.0216 66.8061 69.2101 66.6176 69.5423C66.5026 69.7449 66.2476 69.872 66.138 70.0815C66.0971 70.1599 66.0868 70.277 66.0458 70.3554C66.3502 70.604 66.7321 70.7563 67.1241 70.7855C67.0854 71.2061 67.0468 71.6266 67.0081 72.0471C67.2305 72.0858 67.4529 72.1245 67.6754 72.1632C67.3776 72.4597 67.643 73.0775 68.0631 73.0655C68.46 74.3282 68.857 75.5908 69.254 76.8534C68.8487 75.8401 68.4434 74.8267 68.0382 73.8133C66.6725 73.9689 65.3068 74.1244 63.9411 74.2799C63.9905 74.53 64.1195 74.7638 64.3048 74.9389C63.4949 75.0562 62.6816 74.2845 62.7563 73.4696C62.358 74.1881 62.9726 75.0448 63.6053 75.5689C64.238 76.093 65.005 76.6817 64.9781 77.5028C64.3493 77.7232 63.5765 77.2749 63.4557 76.6196C63.6842 77.0453 64.1781 77.3127 64.6595 77.2715C64.3465 76.9572 64.0334 76.6428 63.7204 76.3284C63.9518 76.4672 64.1831 76.6059 64.4145 76.7447C64.5185 76.4745 64.2782 76.1714 63.9981 76.0984C63.718 76.0254 63.4239 76.1134 63.1479 76.2006C62.6358 76.3626 62.1065 76.5342 61.7087 76.895C61.3109 77.2559 61.0825 77.8627 61.3197 78.3445C61.8266 78.1701 62.2613 77.7947 62.5078 77.3185C62.4807 77.9588 61.8611 78.5122 61.2219 78.467C60.7689 77.5773 61.5173 76.3337 62.5155 76.3174C62.927 76.3107 63.171 75.795 63.0626 75.398C62.9542 75.001 62.6222 74.7117 62.3067 74.4475C62.0944 74.7248 61.8202 74.9544 61.51 75.1147C61.4999 74.6466 61.592 74.1766 61.7778 73.7468C61.3582 74.2235 61.1216 74.8573 61.1262 75.4924C60.912 74.9689 60.9311 74.355 61.1774 73.8459C59.9359 74.0573 58.6753 74.1565 57.416 74.1418C57.2085 72.7034 57.0011 71.265 56.7937 69.8266C57.5724 69.616 58.3792 69.5093 59.1859 69.5101C58.7817 67.0907 59.1859 67.0234 58.6837 65.934C58.6155 65.786 58.3732 66.0689 58.2082 65.7355C58.0432 65.4021 57.9696 64.5339 57.9696 64.5339C57.9696 64.5339 57.2962 64.4355 57.2431 64.2542C57.0348 63.543 56.8006 62.9075 57.3072 62.5248C57.8473 62.1169 58.693 62.4664 59.259 62.0951C59.0462 61.2555 59.005 60.3729 59.1386 59.5171C59.4712 60.0824 59.3527 60.801 59.5357 61.4309C59.7186 62.0607 60.5807 62.59 60.9929 62.0798C60.3889 61.0027 59.5792 59.4537 58.7609 58.5289C58.2379 57.9377 57.4958 58.0789 56.9528 57.4261C56.4097 56.7734 56.2486 56.6439 56.057 56.0982C55.8655 55.5525 56.1267 54.805 56.6996 54.7254C57.2597 54.6474 57.6832 55.2016 57.9696 55.6892C57.8408 55.2589 58.1851 54.7541 58.6328 54.7171C59.1868 56.4641 60.1906 58.0664 61.5208 59.3271C61.9383 59.7227 62.7807 59.9886 62.9466 59.4379C62.6506 58.9751 63.1649 58.4446 63.4512 57.9757C63.7972 57.4089 63.8123 56.7077 63.8174 56.0436C63.8681 49.4454 63.9187 42.8472 63.9693 36.2489C63.9733 35.7297 64.6755 35.5793 65.1946 35.5928C70.3039 35.726 75.4133 35.8592 80.5226 35.9924ZM57.6244 32.0301C57.7012 32.0892 57.8061 32.0918 57.903 32.0919C59.8951 32.0937 61.8872 32.0955 63.8793 32.0973C65.0337 32.0984 66.1882 32.0994 67.3427 32.1005C69.5535 32.1025 71.7644 32.1045 73.9753 32.1065C77.9351 32.1101 81.8949 32.1137 85.8547 32.1173C86.0702 32.1175 86.3255 32.0962 86.4349 31.9106C86.4907 31.8158 86.4925 31.6999 86.4927 31.5899C86.494 30.8493 86.4954 30.1087 86.4967 29.3681C86.4969 29.2911 86.4939 29.2058 86.441 29.1498C86.3847 29.0902 86.2929 29.0857 86.2108 29.0852C76.8194 29.0297 67.4279 28.9742 58.0365 28.9187C57.9201 28.918 57.7899 28.9228 57.7087 29.0062C57.6355 29.0814 57.6266 29.1963 57.6217 29.3012C57.5859 30.0792 57.5501 30.8572 57.5143 31.6353C57.5078 31.7775 57.5115 31.9433 57.6244 32.0301ZM74.613 71.7698C74.5545 71.712 74.4457 71.7733 74.4306 71.8541C74.4155 71.9349 74.4595 72.0138 74.5026 72.0837C74.6538 72.3291 74.824 72.5769 75.074 72.7202C75.3166 72.8592 75.6058 72.8837 75.8846 72.9051C76.8439 72.9789 77.8032 73.0526 78.7625 73.1264C79.3793 73.1738 79.9973 73.2213 80.6158 73.2106C82.5371 73.1774 84.4182 72.585 86.3398 72.5757C86.4976 72.5749 86.5409 72.3597 86.5337 72.202C86.4958 71.3819 86.458 70.5618 86.4201 69.7417C86.4099 69.5196 86.3219 69.2235 86.1003 69.2415C82.4382 69.5391 78.7582 69.6164 75.0869 69.4726C75.1082 70.2159 74.8923 70.9643 74.4785 71.5821C74.8748 71.5996 75.2732 71.5689 75.6622 71.4911C75.368 71.3944 75.0578 71.3465 74.7482 71.35C75.2707 71.0724 75.9835 71.2275 76.3434 71.6972C76.3766 71.7405 76.4083 71.7908 76.4036 71.8451C76.3943 71.9509 76.2649 71.9937 76.1601 72.011C75.6244 72.0993 74.9995 72.1511 74.613 71.7698ZM61.2838 72.2956C61.1966 72.3588 61.0737 72.4222 60.9905 72.3538C60.9502 72.3207 60.9352 72.2666 60.9225 72.2161C60.8565 71.9549 60.7899 71.6874 60.8148 71.4191C60.8396 71.1508 60.9737 70.8768 61.2152 70.7573C61.4604 70.6359 61.7494 70.424 61.6743 70.1609C61.6029 69.9106 61.2709 69.869 61.0107 69.8764C59.7942 69.9113 58.5777 69.9462 57.3612 69.981C57.3116 69.9824 57.2565 69.9862 57.2221 70.0221C57.181 70.0652 57.1885 70.1337 57.1988 70.1924C57.3925 71.2997 57.5861 72.4069 57.7798 73.5142C57.7949 73.6005 57.8174 73.6979 57.8935 73.7415C57.9437 73.7702 58.0052 73.7676 58.0629 73.7641C58.8523 73.7154 59.6399 73.6398 60.4241 73.5375C61.0688 73.4533 61.8292 73.3905 62.2631 73.8748C62.2602 73.4474 62.5815 73.0994 62.8044 72.7347C63.0273 72.37 63.125 71.8208 62.7767 71.5731C62.416 71.3167 62.1024 70.9943 61.856 70.6266C61.705 70.816 61.8875 71.0814 61.9246 71.3208C61.9874 71.7263 61.6161 72.0546 61.2838 72.2956ZM56.2322 55.3973C56.2448 55.5166 56.3203 55.6184 56.3931 55.7137C56.7371 56.1639 57.0811 56.6141 57.425 57.0642C57.0336 56.7488 56.6422 56.4334 56.2508 56.118C56.6592 57.0022 57.4256 57.7147 58.3372 58.0577C58.489 58.1148 58.6464 58.163 58.7816 58.2525C59.018 58.409 59.1583 58.671 59.2958 58.9189C59.7658 59.7661 60.3132 60.5704 60.9289 61.3184C61.2036 61.6522 61.5698 62.0056 61.9974 61.9423C62.9071 61.8078 63.7531 61.2866 64.2824 60.5345C64.0384 60.2781 63.7944 60.0216 63.5505 59.7651C63.4658 59.6761 63.3752 59.5834 63.257 59.5502C63.1387 59.5171 62.9869 59.5706 62.9584 59.6901C62.8735 60.0468 62.4151 60.2013 62.0647 60.0934C61.7143 59.9854 61.4527 59.6995 61.2091 59.4255C60.0408 58.1111 58.8231 56.6965 58.5417 54.9606C58.337 54.8595 58.2022 55.1882 58.2081 55.4164C58.2148 55.6704 58.2214 55.9245 58.228 56.1785C57.5845 55.9155 57.3633 54.8891 56.6681 54.8921C56.9894 55.4449 57.3474 55.9765 57.7389 56.4821C57.1621 56.2027 56.6869 55.7185 56.4184 55.1365C56.2986 55.1406 56.2196 55.278 56.2322 55.3973ZM82.4211 66.858C82.3362 67.2942 82.0998 67.7229 81.708 67.9326C81.4279 68.0825 81.1001 68.1073 80.7831 68.1291C78.6851 68.2734 76.587 68.4176 74.4889 68.5619C74.723 68.8762 75.0187 69.2224 75.4105 69.2138C78.3495 69.1498 81.2886 69.0858 84.2276 69.0217C84.3311 69.0195 84.4506 69.009 84.5095 68.9239C84.5544 68.8588 84.547 68.7724 84.5378 68.6939C84.4086 67.5925 84.2794 66.4911 84.1502 65.3897C84.1419 65.3188 84.1303 65.2413 84.077 65.1938C84.0144 65.1378 83.9195 65.1449 83.8361 65.1554C83.4707 65.2011 83.1054 65.2469 82.74 65.2927C82.5916 65.3113 82.3992 65.3811 82.4147 65.5299C82.4605 65.972 82.5061 66.4218 82.4211 66.858ZM64.4547 73.9133C65.4716 73.8363 66.4841 73.7025 67.4861 73.5127C67.6635 73.4791 67.881 73.4006 67.8931 73.2205C67.685 73.2369 67.4728 73.1154 67.3815 72.9276C67.2903 72.7399 67.3259 72.4979 67.4674 72.3444C67.3071 72.3492 67.139 72.3523 66.9958 72.28C66.8526 72.2078 66.7473 72.0333 66.808 71.8849C66.9069 71.6428 66.917 71.3656 66.8359 71.1171C66.7872 70.9677 66.6717 70.8089 66.5151 70.822C66.2468 70.8443 65.9784 70.64 65.9285 70.3754C65.8786 70.1107 66.0541 69.8227 66.3122 69.7458C66.2978 69.6782 66.207 69.6675 66.1381 69.6722C64.8017 69.7624 63.4654 69.8525 62.129 69.9427C62.0826 69.9459 62.0274 69.9547 62.0081 69.997C61.9961 70.0231 62.0026 70.0536 62.0099 70.0814C62.1361 70.563 62.4544 70.9913 62.8791 71.2511C62.6655 71.0322 62.8577 70.6188 63.1548 70.5461C63.4519 70.4734 63.7588 70.6459 63.9671 70.8699C64.1754 71.0938 64.3199 71.3704 64.5238 71.5984C64.5832 71.6649 64.6502 71.7316 64.6707 71.8185C64.6913 71.9053 64.6389 72.0161 64.5497 72.018C64.5102 72.0188 64.4738 71.9987 64.4395 71.9793C64.0138 71.738 63.5882 71.4967 63.1625 71.2554C63.253 71.0851 63.5183 71.1421 63.665 71.2674C63.8116 71.3926 63.9403 71.5705 64.1322 71.5892C64.0499 71.4482 63.9675 71.3071 63.8851 71.1661C63.762 70.9553 63.5667 70.7121 63.3307 70.7745C63.1397 70.825 63.056 71.0678 63.108 71.2584C63.16 71.449 63.3064 71.597 63.4472 71.7357C63.6674 71.9526 63.974 72.187 64.2539 72.0558C64.3374 72.0166 64.4181 72.1476 64.3716 72.2273C64.325 72.3069 64.2196 72.3283 64.1274 72.3265C63.8635 72.3216 63.605 72.1875 63.4491 71.9745C63.3947 72.2785 63.3403 72.5824 63.286 72.8864C63.6428 73.0078 63.921 73.3354 63.983 73.7072C64.0142 73.894 64.2658 73.9276 64.4547 73.9133ZM68.9101 47.2282C68.7039 47.2378 68.5119 47.338 68.307 47.3636C68.0537 47.3951 67.7879 47.304 67.6074 47.1235C67.3805 46.8968 66.6941 46.3113 66.4507 46.5324C66.2074 46.7534 66.1571 47.6195 66.4373 48.0872C66.4905 48.176 66.4378 48.2949 66.3575 48.3602C66.2772 48.4255 66.1749 48.4564 66.0856 48.5086C65.8343 48.6554 65.7085 48.9869 65.7991 49.2634C65.8898 49.5399 66.1874 49.7327 66.4768 49.7023C66.2668 49.4457 66.293 49.0279 66.5336 48.7996C66.7741 48.5712 67.1927 48.5667 67.4381 48.7898C67.5962 48.9335 67.8473 48.9029 68.0429 48.8168C68.2385 48.7306 68.4167 48.5978 68.6263 48.5559C68.9007 48.5011 69.2024 48.6265 69.3572 48.8596C69.5119 49.0928 69.5102 49.4195 69.3531 49.6511C69.2056 49.8684 69.3304 50.2143 69.5827 50.2873C69.8351 50.3602 70.1253 50.1345 70.1166 49.8719C70.1022 49.4376 70.408 49.0353 70.3717 48.6022C70.3412 48.2378 70.0765 47.9401 69.811 47.6886C69.5591 47.4499 69.2567 47.212 68.9101 47.2282ZM66.8321 48.9621C66.5742 49.0215 66.4855 49.4206 66.6941 49.5836C66.874 49.4255 67.1632 49.4089 67.36 49.5454C67.2595 49.7162 66.9848 49.6224 66.8118 49.719C66.6653 49.8008 66.6315 49.9933 66.6176 50.1605C66.58 50.6131 66.5711 51.0681 66.591 51.5217C66.6043 51.8241 66.632 52.1324 66.7533 52.4096C66.8746 52.6868 67.1054 52.9317 67.4006 52.9981C67.6593 53.0564 67.934 52.9709 68.1543 52.8234C68.3747 52.6759 68.5496 52.4711 68.7178 52.2661C68.9312 52.006 69.1414 51.7365 69.269 51.4251C69.3966 51.1138 69.4336 50.7511 69.2977 50.4433C69.1856 50.1894 69.1355 49.9084 69.1529 49.6314C69.1668 49.4112 69.215 49.1633 69.0771 48.991C68.9092 48.7813 68.5772 48.8249 68.332 48.9348C68.0869 49.0447 67.8388 49.2049 67.5731 49.1654C67.3159 49.1272 67.0855 48.9037 66.8321 48.9621ZM57.3212 63.7213C57.3211 63.83 57.3501 63.9466 57.3953 64.0312C57.5142 64.2541 58.594 64.0361 58.7609 64.0194C59.7178 63.9238 60.6748 63.8281 61.6318 63.7325C61.7785 63.7178 61.9556 63.6802 62.0015 63.54C62.0243 63.4705 62.0059 63.395 61.9874 63.3242C61.9441 63.1587 61.9008 62.9933 61.8575 62.8278C61.8314 62.728 61.8026 62.6233 61.73 62.55C61.6087 62.4277 61.4125 62.4345 61.2409 62.4496C60.0787 62.5523 58.9165 62.655 57.7543 62.7577C57.6003 62.7714 57.4196 62.8024 57.3521 62.9414C57.3225 63.0023 57.3218 63.0727 57.3218 63.1404C57.3216 63.3341 57.3214 63.5277 57.3212 63.7213ZM82.0922 63.0726C82.1356 63.133 82.2217 63.139 82.2961 63.1394C83.6159 63.1457 84.9358 63.1521 86.2556 63.1584C86.3427 63.1589 86.4356 63.1576 86.5078 63.1091C86.6277 63.0286 86.6387 62.8596 86.6373 62.7152C86.6358 62.5415 86.6333 62.3633 86.57 62.2015C86.5067 62.0397 86.3683 61.8955 86.1955 61.8771C84.9537 61.7447 83.7099 62.1907 82.4642 62.1021C82.2816 62.0891 82.1214 62.2445 82.0657 62.4188C82.0099 62.5931 82.034 62.7816 82.0586 62.963C82.0638 63.0012 82.0696 63.0412 82.0922 63.0726ZM82.0381 63.7683C82.003 64.14 82.0289 64.5174 82.1145 64.8808C83.2096 64.8434 84.3038 64.7817 85.3961 64.6957C85.5768 64.6815 85.8139 64.6056 85.8007 64.4249C85.787 64.2349 85.7732 64.045 85.7594 63.8551C85.7549 63.7929 85.7489 63.7267 85.7104 63.6777C85.6576 63.6104 85.5626 63.5973 85.4774 63.5898C84.4141 63.4967 83.3444 63.478 82.2785 63.5339C82.2187 63.5371 82.1542 63.5422 82.1086 63.581C82.0565 63.6254 82.0445 63.7001 82.0381 63.7683ZM61.9458 64.3351C61.9269 64.1908 61.7288 64.1684 61.5841 64.1846C60.5476 64.3011 59.511 64.4176 58.4745 64.5341C58.4304 64.539 58.3841 64.5448 58.3483 64.5711C58.2775 64.623 58.2786 64.7272 58.2882 64.8144C58.3178 65.0835 58.3759 65.3766 58.5868 65.5464C58.8713 65.7755 59.285 65.6767 59.6424 65.6009C60.3077 65.4597 60.9988 65.4408 61.6709 65.5453C61.8178 65.5681 61.9561 65.4467 62.0047 65.3063C62.0534 65.1658 62.0346 65.0121 62.0153 64.8647C61.9921 64.6882 61.969 64.5117 61.9458 64.3351ZM68.8084 54.4539C68.9194 54.3074 69.021 54.1537 69.1123 53.9942C69.182 53.8725 69.2475 53.731 69.2069 53.5968C69.1805 53.5094 69.1133 53.4417 69.058 53.3691C68.8854 53.1431 68.8187 52.8396 68.8806 52.562C68.8858 52.5383 68.8919 52.5131 68.8837 52.4903C68.8516 52.4007 68.7209 52.4862 68.672 52.5678C68.4611 52.9196 68.0974 53.176 67.6953 53.2564C67.6077 53.2739 67.6309 53.4101 67.5847 53.477C67.3918 53.7572 66.9942 54.1283 67.36 54.5621C67.6348 54.8879 67.6931 54.9597 67.7701 54.9833C68.1665 55.105 68.558 54.7845 68.8084 54.4539ZM71.6879 69.5213C71.796 69.5019 71.904 69.4824 72.0121 69.4629C72.2225 69.425 72.4404 69.384 72.6149 69.2605C72.8452 69.0974 72.9889 68.799 73.2632 68.7324C73.3297 68.7163 73.4215 68.6479 73.3653 68.6091C73.3515 68.5996 73.3337 68.5994 73.317 68.5996C72.5808 68.6088 71.8449 68.6415 71.1108 68.6976C71.2022 68.9379 71.3085 69.1725 71.429 69.3997C71.4529 69.4447 71.48 69.4921 71.5254 69.5153C71.5746 69.5403 71.6335 69.5311 71.6879 69.5213ZM73.8464 68.7436C73.5059 68.7933 73.2152 69.0171 72.9815 69.2696C72.9249 69.3308 72.9841 69.451 73.0671 69.4434C73.1573 69.301 73.3514 69.2767 73.5197 69.2668C73.9058 69.244 74.2919 69.2212 74.678 69.1984C74.577 68.8694 74.187 68.694 73.8464 68.7436ZM69.4745 51.4108C69.4035 51.6934 69.2459 51.9535 69.0285 52.1474C69.0423 52.2196 69.1479 52.2126 69.2167 52.1867C69.464 52.0938 69.719 51.9919 69.8991 51.7987C70.0793 51.6055 70.1605 51.2937 70.0149 51.0734C69.9653 51.2934 69.5295 51.192 69.4745 51.4108ZM63.0304 73.5291C62.9463 73.7006 62.943 73.9472 63.1081 74.0432C63.2494 74.1254 63.4524 74.0297 63.4988 73.8729C63.5453 73.7162 63.4475 73.5378 63.2984 73.4708C63.206 73.4294 63.0749 73.4382 63.0304 73.5291ZM62.3027 69.4433C62.2777 69.483 62.2711 69.5495 62.3156 69.5641C62.62 69.5317 62.927 69.5244 63.2326 69.5424C63.2669 69.4683 63.2211 69.377 63.1525 69.3329C63.0838 69.2888 62.999 69.2801 62.9178 69.2726C62.694 69.2518 62.4223 69.2531 62.3027 69.4433ZM75.8845 71.8435C75.9355 71.8274 75.9707 71.7715 75.9631 71.7185C75.6075 71.6444 75.2356 71.6495 74.8822 71.7333C75.1816 71.9067 75.5546 71.9477 75.8845 71.8435ZM61.2 71.8791C61.2853 71.5486 61.3451 71.2116 61.3787 70.8719C61.0473 71.0705 60.9571 71.5786 61.2 71.8791ZM69.625 51.0659C69.7602 51.055 69.8796 50.9396 69.8952 50.8049C69.9108 50.6701 69.821 50.5306 69.6919 50.489C69.5699 50.6106 69.5028 50.7851 69.5118 50.9571C69.5135 50.9904 69.5197 51.0269 69.5455 51.048C69.567 51.0657 69.5973 51.0682 69.625 51.0659ZM63.5928 74.3149C63.483 74.2012 63.2842 74.1896 63.1619 74.2898C63.2135 74.4066 63.305 74.5054 63.4175 74.5657C63.4693 74.5935 63.5324 74.6131 63.5857 74.5886C63.6829 74.544 63.6671 74.3918 63.5928 74.3149ZM63.6852 73.6048C63.696 73.4373 63.6059 73.2672 63.4612 73.182C63.3166 73.0968 63.1241 73.1005 62.9828 73.1912C63.2442 73.2736 63.4864 73.4162 63.6852 73.6048ZM61.6802 71.329C61.659 71.2777 61.6154 71.2238 61.5603 71.2313C61.4464 71.4123 61.4473 71.659 61.5624 71.8393C61.7018 71.7158 61.7513 71.5011 61.6802 71.329ZM61.8138 74.4993C61.7868 74.5456 61.8113 74.6136 61.8616 74.6321C61.9353 74.5946 61.9838 74.5122 61.9807 74.4295C61.9212 74.4044 61.8438 74.4422 61.827 74.5046M80.6661 41.4646C80.6316 41.49 80.5971 41.5154 80.5626 41.5407C80.5842 41.5799 80.6058 41.6191 80.6274 41.6583C80.6904 41.626 80.7159 41.5368 80.6794 41.4761L80.6661 41.4646Z" fill="#333333"/>
<ellipse cx="66.8001" cy="51.6002" rx="0.133335" ry="0.266668" fill="#F2994A"/>
<path fill-rule="evenodd" clip-rule="evenodd" d="M69.5884 66.4083C69.8157 63.7246 70.0065 61.0376 70.2704 58.3572C70.3362 57.6886 72.2224 58.4985 71.4396 64.2964C71.3159 65.2131 70.7263 66.5828 69.6741 66.6531L69.5884 66.4083Z" fill="#E0E0E0"/>
<path fill-rule="evenodd" clip-rule="evenodd" d="M23.3518 57.2166C23.5209 60.8596 22.935 58.5516 24.4529 59.5273C24.7112 59.6933 24.9937 60.0032 24.9446 60.3064C24.8482 60.9016 24.2742 61.3226 24.0702 61.8901C23.0604 64.699 27.6368 64.8246 28.467 65.2664C28.7445 65.4141 28.6198 65.9538 28.4362 66.209C27.7688 67.1366 23.8851 64.6177 23.3959 64.2412C20.1535 61.7462 20.5398 60.1139 23.0853 57.551L23.3518 57.2166Z" fill="#E0E0E0"/>
<ellipse cx="26.5332" cy="53.2" rx="0.133327" ry="0.266666" fill="#F2994A"/>
</svg>
