<svg width="100" height="100" viewBox="0 0 100 100" fill="none" xmlns="http://www.w3.org/2000/svg">
<path fill-rule="evenodd" clip-rule="evenodd" d="M64.3884 21.3271C72.9927 19.401 80.9643 21.6862 85.2489 28.2135C89.5334 34.7408 88.4126 45.0983 87.4845 49.6702C86.5563 54.2421 84.202 58.4295 81.2798 62.065C75.8523 68.8173 68.5178 73.9844 60.3184 76.7737C52.1189 79.563 43.2165 80.135 34.6717 78.7239C29.8784 77.9323 14.8845 74.0545 11.6478 62.3521C8.4112 50.6497 6.36281 40.6478 13.3718 36.585C20.3808 32.5221 25.2356 35.5779 28.7055 37.0806C44.9159 44.1011 55.784 23.2532 64.3884 21.3271Z" fill="#C0F0FF"/>
<path fill-rule="evenodd" clip-rule="evenodd" d="M76.5045 32.2879C77.8847 32.1813 79.3725 32.2503 80.4973 33.0573C81.6221 33.8644 82.133 35.6366 81.2095 36.6678C82.2537 36.2596 83.4809 36.952 84.0039 37.9436C84.527 38.9353 84.4997 40.1234 84.3423 41.2335C83.9526 43.9826 82.8319 46.6247 81.1262 48.8156C81.0478 49.0465 80.9694 49.2775 80.891 49.5084C82.9071 50.0282 90.7799 53.0857 88.6527 60.623C86.5255 68.1604 77.2356 71.0292 76.2847 71.9313C74.6273 73.5036 72.0975 73.6111 69.8141 73.5387C64.1997 73.3605 58.6023 72.647 53.1228 71.4109C52.6569 71.3059 52.0668 71.2418 51.7982 71.6367C49.8545 74.4946 45.7898 74.7501 42.3425 74.5013C37.9144 74.1818 33.5118 73.5102 29.1899 72.495C26.7384 71.9192 24.1351 71.1174 22.6079 69.1151C20.8275 66.7809 21.0331 63.5445 21.322 60.623C20.1518 61.2736 18.2109 61.626 15.4993 61.6801C13.9029 61.3545 12.907 60.7758 12.5118 59.944C10.7046 56.1402 10.0848 51.2386 12.3353 47.4893C12.6057 47.0389 12.9176 46.5951 13.3578 46.3085C13.8245 46.0046 14.3935 45.9047 14.9483 45.8556C17.1363 45.6618 19.3812 46.1725 21.2701 47.2938C21.2532 41.1547 21.2363 35.0156 21.2195 28.8766C21.2185 28.525 21.2234 28.152 21.4108 27.8545C21.6819 27.4243 22.2373 27.291 22.7371 27.1977C27.2841 26.3489 31.8827 25.7764 36.499 25.4845C38.0073 25.3891 40.0715 25.8089 40.0784 27.3202C40.1047 33.1081 40.131 38.896 40.1573 44.6838C40.1636 46.0614 40.2521 45.9462 40.8975 45.547C40.4918 45.5891 40.5823 44.9009 40.8898 44.6329C42.0376 43.6323 43.7102 43.5955 45.2328 43.6111C48.6386 43.6459 52.0444 43.6808 55.4502 43.7156C58.7502 43.7494 62.7076 44.1679 64.2016 47.1105C64.1582 46.236 64.9508 45.4107 65.8264 45.4187C66.7812 45.4275 67.5798 44.5991 67.8585 43.6858C68.1373 42.7725 68.0143 41.7911 67.8889 40.8445C66.3492 39.3537 65.9462 36.8194 66.9474 34.9244C67.9485 33.0295 70.2692 31.9342 72.3684 32.3659C73.7244 32.6448 75.1242 32.3945 76.5045 32.2879ZM36.9849 60.6789C36.9396 61.8975 36.8916 63.1324 36.533 64.2979L36.9849 60.6789ZM35.5739 45.7238C35.8909 45.8166 36.2831 46.0976 36.1167 46.3829C37.4937 46.5205 37.0825 46.4568 37.1444 44.8341C37.2073 43.1874 37.2126 41.3668 36.1346 40.1205C35.1807 39.0177 33.625 38.6728 32.1722 38.5488C30.4765 38.404 28.7626 38.4736 27.0842 38.7553C26.2652 38.8927 25.3782 39.1296 24.9029 39.8105C24.637 40.1916 24.5391 40.6623 24.461 41.1204C24.1536 42.9225 24.0576 44.7605 24.1756 46.5848C27.706 44.9422 31.8367 44.6302 35.5739 45.7238ZM66.2128 57.8218C66.299 57.7346 66.4299 57.7134 66.5514 57.6967C67.0365 57.63 67.5217 57.5632 68.0069 57.4965C66.8934 56.9936 66.2186 55.7991 66.0169 54.5941C65.8153 53.3891 66.0122 52.1571 66.2111 50.9516C65.4989 51.7442 65.5502 52.9401 65.6435 54.0016C65.8477 56.3249 66.1265 57.909 66.2128 57.8218ZM57.0525 69.2655C57.1479 68.9551 57.4727 68.7885 57.7105 68.5675C58.1387 68.1696 58.2977 67.5681 58.4373 67.0005C58.9199 65.0393 59.4055 63.0542 59.3994 61.0345C59.3981 60.6066 59.3764 60.167 59.5181 59.7633C59.6598 59.3595 60.0148 58.9944 60.4427 58.9923C60.8938 58.9901 61.0016 58.3642 60.9613 57.9149C60.8222 56.3654 60.6831 54.8158 60.544 53.2663C60.4996 52.7714 60.4543 52.2719 60.3041 51.7983C59.7488 50.0471 57.609 48.9883 55.88 49.6091C55.6683 49.6851 55.6118 49.9525 55.5877 50.1761C55.3216 52.6546 55.0555 55.1331 54.7894 57.6116C54.7421 58.052 55.3107 58.333 55.74 58.2239C56.1692 58.1149 56.4969 57.7795 56.8681 57.5379C57.2392 57.2962 57.7625 57.1571 58.1032 57.4399C58.4884 57.7596 59.0586 57.4045 59.3932 57.0322C59.7278 56.6599 60.1636 56.2111 60.6395 56.3664C60.0813 56.9004 59.5231 57.4343 58.9649 57.9683C58.7797 58.1454 58.6165 58.499 58.8504 58.6036C59.4918 58.3761 60.0716 57.9775 60.5136 57.46C60.718 57.4535 60.7277 57.7745 60.6136 57.9443C60.1839 58.5838 59.1724 58.7262 58.9119 59.4514C58.3041 61.1441 56.4083 62.2684 54.6315 61.99C54.267 61.9329 54.0853 62.4123 54.0414 62.7786C53.8665 64.2391 53.6916 65.6996 53.5167 67.1602C53.4765 67.4961 53.439 67.8515 53.5773 68.1604C53.8081 68.6757 54.4255 68.8707 54.9728 69.0093C55.6963 69.1926 56.4281 69.3768 57.1676 69.4568C57.479 69.4905 57.4777 69.3765 57.0525 69.2655ZM28.2292 66.5877C29.2629 66.9339 30.3571 67.0512 31.4412 67.1664C31.9009 67.2152 32.3905 67.259 32.8029 67.0501C33.2884 66.8042 33.5471 66.2713 33.7559 65.7687C34.9203 62.9661 35.5851 59.9568 35.7097 56.9245C35.7274 56.4936 35.1757 56.3034 34.7455 56.2745C31.3105 56.044 28.0255 57.5539 24.9146 59.0285C24.7655 59.0992 24.6059 59.1798 24.5322 59.3274C24.4773 59.4375 24.4802 59.5664 24.4843 59.6893C24.54 61.3645 24.6103 63.0997 25.3595 64.5991C25.5618 65.004 25.8192 65.3937 26.1836 65.6623C26.4043 65.825 26.657 65.9379 26.9075 66.0494C27.3422 66.243 27.7779 66.4366 28.2292 66.5877ZM50.4501 60.3879C50.908 57.9255 51.2306 55.4381 51.4162 52.9404C51.4797 52.086 51.5262 51.2173 51.3415 50.3807C51.1568 49.544 50.7112 48.7307 49.9826 48.2798C49.5337 48.002 49.0082 47.8773 48.4885 47.7845C47.54 47.6153 46.5751 47.5386 45.6118 47.5557C44.7618 47.5708 43.8695 47.6744 43.1756 48.1656C42.9462 48.328 42.7377 48.5406 42.6539 48.8089C42.5701 49.0773 42.6407 49.407 42.8734 49.5647C43.4618 49.9631 43.7016 50.7086 43.8119 51.4105C43.9221 52.1125 43.9487 52.8476 44.2685 53.4821C44.4335 53.8093 44.67 54.0948 44.9181 54.3645C46.2631 55.8269 48.0174 56.9087 49.928 57.4539C50.2639 57.5498 50.6912 57.7572 50.6203 58.0992C51.6769 58.7658 50.4325 60.4823 50.4501 60.3879ZM47.5381 67.6503C47.9272 67.4139 48.1909 67.0205 48.4232 66.629C49.4085 64.9677 50.0545 63.1062 50.3103 61.1917C46.7662 61.1757 43.2433 59.8386 40.5813 57.4989C40.4902 57.8646 40.5076 58.2473 40.52 58.6239C40.5977 60.9753 40.4582 63.3338 40.1038 65.6596C40.0193 66.214 40.3506 66.7683 40.8059 67.0958C41.2612 67.4232 41.8221 67.5638 42.3728 67.6699C43.6143 67.909 44.8829 68.0071 46.1464 67.9616C46.6269 67.9442 47.1272 67.8999 47.5381 67.6503ZM69.902 47.3683C69.6954 46.8705 69.5404 46.3091 69.1118 45.9823C68.6832 45.6554 67.8762 45.8154 67.8511 46.3538C68.2752 46.2757 68.5994 46.7993 68.5272 47.2245C68.4549 47.6496 68.1458 47.9877 67.9002 48.3423C67.5609 48.8321 67.3288 49.3867 67.0992 49.9366C66.553 51.245 66.3403 52.6911 66.4869 54.1014C66.5731 54.9317 66.8007 55.7845 67.3621 56.4023C67.9235 57.0201 68.8858 57.329 69.6256 56.9423C70.261 56.6102 70.578 55.8781 70.7237 55.1761C70.8694 54.4741 70.8954 53.7393 71.1707 53.0773C71.6785 51.856 72.931 51.1182 74.1699 50.655C72.3075 50.402 70.6224 49.1043 69.902 47.3683ZM64.7519 48.6894C64.8347 49.0095 64.9494 49.3214 65.0937 49.619C65.1803 49.1997 65.3193 48.7913 65.5065 48.4063C65.3172 48.3846 65.1265 48.3743 64.9358 48.3754C64.8895 48.3757 64.8406 48.3774 64.8015 48.4022C64.7135 48.4581 64.7257 48.5884 64.7519 48.6894ZM42.303 48.3599C42.1857 48.4542 42.1169 48.6574 42.2407 48.743C42.4303 48.5531 42.6199 48.3633 42.8095 48.1735C42.7703 48.1249 42.7133 48.091 42.6519 48.0797C42.5767 48.2101 42.4202 48.2655 42.303 48.3599Z" fill="white"/>
<path d="M75.1332 46.9999C75.5382 46.9999 75.8666 46.6715 75.8666 46.2665C75.8666 45.8615 75.5382 45.5332 75.1332 45.5332C74.7282 45.5332 74.3999 45.8615 74.3999 46.2665C74.3999 46.6715 74.7282 46.9999 75.1332 46.9999Z" fill="#F2994A"/>
<path d="M70.9332 46.2666C71.1541 46.2666 71.3332 46.0875 71.3332 45.8666C71.3332 45.6456 71.1541 45.4666 70.9332 45.4666C70.7123 45.4666 70.5332 45.6456 70.5332 45.8666C70.5332 46.0875 70.7123 46.2666 70.9332 46.2666Z" fill="#F2994A"/>
<path fill-rule="evenodd" clip-rule="evenodd" d="M33.0567 35.7434C34.2567 35.751 35.4566 35.7587 36.6566 35.7663C36.7128 35.7666 36.7732 35.7683 36.8185 35.8016C36.911 35.8695 36.8741 36.0286 36.7788 36.0927C36.6835 36.1567 36.5599 36.154 36.4452 36.15C35.3891 36.1134 34.33 36.1682 33.2834 36.3138C33.1242 36.3359 32.9563 36.3592 32.8074 36.2986C32.6586 36.2381 32.5447 36.0599 32.6132 35.9145C32.6848 35.7627 32.8888 35.7424 33.0567 35.7434ZM29.0439 35.6256C29.1199 35.7014 29.0835 35.8405 28.999 35.9068C28.9145 35.9731 28.8014 35.9863 28.6946 35.9971C27.6307 36.1049 26.5669 36.2126 25.5031 36.3203C25.3773 36.333 25.2472 36.3454 25.1268 36.3066C25.0064 36.2679 24.8975 36.1638 24.8947 36.0374C24.8917 35.907 25.0025 35.7962 25.1261 35.7546C25.2498 35.713 25.3841 35.7246 25.5142 35.7348C26.6042 35.8206 27.7048 35.7711 28.7828 35.588C28.8731 35.5726 28.979 35.5609 29.0439 35.6256ZM28.8949 33.5835C28.9744 33.6477 28.9461 33.7852 28.8663 33.849C28.7865 33.9128 28.678 33.9234 28.5762 33.9314L25.1597 34.2009C25.0318 34.211 24.8993 34.2205 24.7787 34.1769C24.658 34.1332 24.5522 34.0209 24.5591 33.8928C24.5662 33.763 24.686 33.6623 24.8123 33.6317C24.9386 33.601 25.0709 33.6239 25.1995 33.6429C26.359 33.8143 27.5381 33.658 28.7054 33.5519C28.7709 33.5459 28.8437 33.5422 28.8949 33.5835ZM33.6663 32.9066C34.3791 32.9977 35.1018 33.0115 35.8177 32.9478C36.1023 32.9225 36.4463 32.9107 36.608 33.1462C36.416 33.3014 36.1523 33.3234 35.906 33.3389C35.0897 33.3903 34.2734 33.4418 33.4571 33.4932C33.2709 33.505 33.0388 33.4909 32.9621 33.3208C32.8932 33.1682 33.0144 32.9846 33.17 32.9228C33.3256 32.861 33.5002 32.8854 33.6663 32.9066ZM27.5077 32.0338C27.5086 32.1571 27.3541 32.2103 27.2321 32.2282L25.438 32.4912C25.3099 32.51 25.1776 32.5285 25.0526 32.4951C24.9275 32.4618 24.8106 32.3623 24.7989 32.2334C24.7846 32.0756 24.9328 31.9424 25.0874 31.908C25.2421 31.8736 25.4024 31.9096 25.5595 31.9298C26.1014 31.9997 26.6481 31.8806 27.1942 31.8618C27.3278 31.8572 27.5068 31.9002 27.5077 32.0338ZM36.1645 31.6044C36.3033 31.6199 36.4458 31.7027 36.4829 31.8374C36.2364 32.0238 35.9105 32.0578 35.6026 32.0851C35.0756 32.1318 34.5486 32.1785 34.0216 32.2252C33.836 32.2417 33.6503 32.2581 33.4647 32.2746C33.3289 32.2866 33.1877 32.2979 33.0602 32.2498C32.9328 32.2016 32.8238 32.0751 32.8428 31.9401C32.8727 31.7275 33.1519 31.6723 33.3666 31.6769C34.1632 31.694 34.9698 31.8142 35.7504 31.6539C35.8872 31.6257 36.0257 31.5889 36.1645 31.6044ZM36.8643 29.5927C32.9594 30.1193 28.9557 29.8466 25.1045 30.6796C24.8761 30.729 24.5574 30.7314 24.4983 30.5053C24.5036 30.2389 24.8482 30.1428 25.114 30.1238C28.8604 29.8566 32.6069 29.5894 36.3533 29.3223C36.5731 29.3066 36.8816 29.3731 36.8643 29.5927Z" fill="#E0E0E0"/>
<path fill-rule="evenodd" clip-rule="evenodd" d="M23.1281 70.0703C23.169 70.5427 22.5177 70.7027 22.0435 70.7046C19.5791 70.7144 17.1172 71.1715 14.8135 72.047C14.4619 72.1806 14.0856 72.3489 13.9145 72.6839C13.6879 73.1274 13.9352 73.6949 14.3361 73.9905C14.7369 74.2861 15.2486 74.3762 15.7401 74.4562C28.5171 76.5367 41.4841 77.4487 54.4265 77.1771L54.6346 77.1725C56.1272 77.138 57.6506 77.0578 59.0181 76.4668C57.886 75.6733 56.754 74.8799 55.6219 74.0865C57.5816 73.6951 59.6036 73.9739 61.5923 74.1702C66.1439 74.6195 70.7389 74.6287 75.2923 74.1976C74.9718 74.7098 74.267 74.7808 73.6629 74.7938C67.9352 74.9171 62.2005 74.7137 56.496 74.1847C57.2403 74.6745 57.9846 75.1643 58.7288 75.6541C58.9985 75.8316 59.2969 76.0569 59.3125 76.3794C59.3359 76.864 58.7405 77.1059 58.2617 77.185C56.6732 77.4474 55.0572 77.4892 53.4473 77.5128C40.8742 77.6966 28.2854 76.7969 15.8662 74.827C15.2602 74.7309 14.6323 74.6236 14.127 74.2755C13.6217 73.9274 13.2772 73.2656 13.4895 72.6899C13.7007 72.1173 14.3433 71.8484 14.9235 71.6589C17.5783 70.7918 20.3415 70.2568 23.1281 70.0703ZM40.0783 27.3202C40.1046 33.1081 40.1309 38.896 40.1572 44.6838C40.1635 46.0614 40.4349 47.8047 41.7671 48.1554C43.6079 47.3056 45.6829 46.9699 47.6978 47.1959C48.8512 47.3252 50.049 47.6739 50.8298 48.5327C51.901 49.7107 51.9026 51.4847 51.7876 53.0727C51.5545 56.2916 51.0954 59.494 50.4147 62.6487C50.9555 62.6146 51.5071 62.8315 51.8797 63.225C51.3058 63.4875 50.6222 63.4984 50.0402 63.2545C50.4399 65.4212 48.6747 67.5589 46.5607 68.1796C44.4467 68.8003 42.1527 68.215 40.1648 67.2649C39.9783 67.991 40.9496 68.4176 41.6911 68.5272C43.5735 68.8054 45.4558 69.0836 47.3382 69.3618C45.0136 69.4317 42.6812 69.2414 40.3987 68.7957C39.9783 69.3909 40.9302 69.9919 41.6495 70.1083C43.5574 70.4171 45.4654 70.7259 47.3733 71.0346C45.2183 71.0203 43.0642 70.8766 40.9264 70.6046C42.286 71.8311 44.1419 72.4905 45.9705 72.3968C44.939 72.7361 43.793 72.7157 42.7742 72.3399C44.0487 74.0467 46.6562 74.3629 48.5605 73.4083C50.4648 72.4536 51.7081 70.5005 52.3163 68.459C52.9246 66.4175 52.9837 64.2599 53.0914 62.1325C53.2904 58.2055 53.6706 54.2838 54.3585 50.4124C54.8217 47.8054 55.9596 44.6968 58.5817 44.3285C53.9103 44.1132 49.2344 43.9971 44.558 43.9803C43.137 43.9751 41.3719 44.2076 40.8974 45.547C40.4917 45.5891 40.5822 44.9009 40.8897 44.6329C42.0374 43.6323 43.7101 43.5955 45.2327 43.6111L55.4501 43.7156C58.7501 43.7494 62.7075 44.1679 64.2014 47.1105C64.1581 46.236 64.9507 45.4107 65.8263 45.4187C66.7811 45.4275 67.5797 44.5991 67.8584 43.6858C68.1371 42.7725 68.0142 41.7911 67.8888 40.8445C66.3491 39.3537 65.9461 36.8194 66.9472 34.9244C67.2304 34.3885 67.6489 33.1105 69.9855 32.2879C71.5433 31.7395 73.0832 31.7998 74.6051 32.4688C77.4632 31.9161 79.4272 32.1123 80.4972 33.0573C82.1022 34.4748 82.1329 35.6366 81.2094 36.6678C82.2536 36.2596 83.4808 36.952 84.0038 37.9436C84.5269 38.9353 84.4995 40.1234 84.3422 41.2335C83.9525 43.9826 82.8317 46.6247 81.1261 48.8156L80.8909 49.5084C85.0171 50.5722 88.355 54.2193 89.0502 58.4234C87.6784 55.3313 85.8212 52.0566 82.6216 50.9588C81.8996 51.7162 81.1572 52.5064 80.8181 53.4963C80.4791 54.4862 80.6622 55.7369 81.522 56.3332C80.982 56.4584 80.442 56.5835 79.902 56.7087C80.0818 57.0275 80.2615 57.3463 80.4413 57.6652C78.4008 59.2164 78.1661 62.1503 78.1785 64.7135C78.1908 67.2766 78.1441 70.1672 76.2846 71.9313C74.6272 73.5036 72.0974 73.6111 69.814 73.5387C64.1995 73.3605 58.6022 72.647 53.1227 71.4109C52.6568 71.3059 52.0667 71.2418 51.7981 71.6367C49.8544 74.4946 45.7897 74.7501 42.3424 74.5013C37.9143 74.1818 33.5117 73.5102 29.1898 72.495C26.7383 71.9192 24.135 71.1174 22.6078 69.1151C20.8274 66.7809 21.033 63.5445 21.3219 60.623C19.5665 61.599 17.4856 61.9768 15.4992 61.6801C17.5931 60.3112 18.6084 57.6924 18.6275 55.1909C18.6466 52.6894 17.8116 50.2647 16.8826 47.9419C14.8358 49.1291 13.7589 51.6315 13.919 53.9923C14.0792 56.353 15.3317 58.5443 17.0123 60.21C14.9406 58.9025 13.5698 56.5472 13.4563 54.1C13.3429 51.6529 14.4899 49.1808 16.4317 47.6873C16.1214 46.6262 14.5205 46.4965 13.6815 47.2164C12.8425 47.9364 12.5792 49.1049 12.3634 50.1892C11.9646 52.1927 11.5642 54.243 11.8539 56.2651C12.1437 58.2873 13.2607 60.3114 15.1325 61.1296C14.2577 61.7602 13.0926 60.8525 12.5117 59.944C10.1558 56.26 10.0847 51.2386 12.3352 47.4893C12.6056 47.0389 12.9175 46.5951 13.3577 46.3085C13.8244 46.0046 14.3934 45.9047 14.9481 45.8556C17.1362 45.6618 19.3811 46.1725 21.27 47.2938C21.2531 41.1547 21.2362 35.0156 21.2194 28.8766C21.2184 28.525 21.2233 28.152 21.4107 27.8545C21.6818 27.4243 22.2372 27.291 22.737 27.1977C27.284 26.3489 31.8826 25.7764 36.4989 25.4845C38.0072 25.3891 40.0714 25.8089 40.0783 27.3202ZM36.9952 25.8544C32.1008 26.0848 27.2242 26.6898 22.4219 27.6624C22.2175 27.7038 22.0011 27.7522 21.8526 27.8985C21.6502 28.0978 21.6345 28.4137 21.6319 28.6977C21.5745 34.8106 21.5988 40.9242 21.7046 47.0364C22.2923 46.8899 22.88 46.7433 23.4677 46.5968C23.2379 45.3426 23.0072 44.0714 23.1055 42.8001C23.2037 41.5288 23.6702 40.2359 24.6298 39.3962C25.6683 38.4874 27.1176 38.2306 28.4943 38.134C29.8181 38.041 31.1499 38.0626 32.47 38.1983C33.8176 38.3368 35.2372 38.636 36.2094 39.5794C37.6138 40.9422 37.6365 43.1499 37.5638 45.1054C37.3708 50.2966 37.1778 55.4878 36.9848 60.6789C36.9395 61.8975 36.8915 63.1324 36.5329 64.2979C36.1743 65.4634 35.4625 66.5711 34.3855 67.143C33.3287 67.7042 32.0642 67.6883 30.8753 67.5532C29.7402 67.4242 28.616 67.1992 27.5187 66.8813C26.8521 66.6882 26.1852 66.4557 25.6187 66.0548C23.7443 64.7283 23.5227 62.0814 23.4772 59.7856C22.7574 59.6556 22.0538 60.2034 21.7566 60.8717C21.4594 61.54 21.4726 62.2993 21.4911 63.0304C21.5371 64.8543 21.6082 66.7691 22.5392 68.3381C23.9757 70.7588 26.993 71.6531 29.7479 72.2311C34.6376 73.2571 39.6022 73.9262 44.5891 74.2313C42.3635 73.0978 40.3903 71.1577 39.9209 68.7046C39.7934 68.0382 39.7797 67.356 39.7664 66.6777C39.5066 53.4139 39.2467 40.15 38.9869 26.8862C38.9705 26.0474 37.8332 25.8149 36.9952 25.8544ZM55.9682 47.6311C55.8444 47.933 55.7544 48.2679 55.8368 48.5837C55.9193 48.8994 56.2261 49.1751 56.5479 49.1215C57.9896 48.8814 59.5437 49.5915 60.3058 50.8386C60.9347 51.8676 61.022 53.1266 61.0928 54.3305L61.7376 65.2965C61.8065 66.4684 61.8406 67.7579 61.1122 68.6785C60.1672 69.873 58.3929 69.9128 56.877 69.7645C55.6263 69.6422 54.3105 69.4341 53.3395 68.6364C53.3739 69.1007 53.2386 69.5757 52.9646 69.9522C52.6265 70.4169 53.1723 71.0284 53.7034 71.2481C54.352 71.5164 55.0573 71.6099 55.7533 71.7002C58.9416 72.1141 62.1317 72.5131 65.3236 72.8974C67.7804 73.1931 70.2765 73.4795 72.7191 73.0826C71.1738 72.649 69.6952 71.9788 68.3506 71.1027C67.6798 70.6655 67.0311 70.1662 66.5735 69.509C65.8267 68.4364 65.6693 67.0734 65.545 65.7723C65.1755 61.9032 64.9004 58.0251 64.7202 54.1426C64.5873 51.279 63.669 48.4556 62.092 46.0617C61.81 45.6336 61.465 45.1894 60.9665 45.0702C58.9842 44.5964 56.7416 45.7453 55.9682 47.6311ZM46.8788 72.4123C47.047 72.4409 47.2195 72.4785 47.3581 72.5779C47.4967 72.6773 47.5934 72.8539 47.5507 73.019C47.508 73.1842 47.2901 73.2928 47.1524 73.1921C47.0005 73.0811 46.7984 73.0772 46.6173 73.026C46.4362 72.9748 46.2463 72.8244 46.2789 72.639C46.3201 72.4041 46.6436 72.3723 46.8788 72.4123ZM39.8977 72.482C40.1063 72.5254 40.3506 72.6741 40.3078 72.8829C40.2701 73.067 40.0424 73.1283 39.8561 73.1532C39.6474 73.1811 39.4246 73.2069 39.235 73.1151C39.0455 73.0233 38.9225 72.7644 39.0469 72.5944C39.1307 72.4798 39.2877 72.4493 39.4296 72.4435C39.5864 72.4371 39.744 72.4501 39.8977 72.482ZM52.3788 70.1619C52.1808 70.3047 52.0448 70.5152 51.9051 70.7154C51.2682 71.6279 50.4609 72.4212 49.5373 73.042C49.5604 73.1399 49.7072 73.1152 49.7943 73.0647C50.8636 72.4451 51.6268 71.4215 52.3593 70.426C52.4192 70.3446 52.4686 70.2083 52.3788 70.1619ZM61.9411 45.5093C62.5116 46.183 63.0866 46.8631 63.504 47.641C63.9565 48.4844 64.2107 49.419 64.4154 50.354C65.5603 55.5843 65.2547 61.0221 65.9967 66.3246C66.1306 67.2813 66.3077 68.2585 66.8055 69.0865C67.3887 70.0565 68.3566 70.7289 69.3427 71.2845C70.1402 71.7339 70.9726 72.1285 71.8485 72.3946C73.2412 72.8179 74.9144 72.8475 75.982 71.858C76.5816 71.3023 76.8969 70.5096 77.1432 69.7301C78.1991 66.3893 78.3151 62.757 77.4748 59.3556C77.496 61.3899 77.7601 63.4194 77.6997 65.4529C77.6393 67.4865 77.2218 69.5805 76.0264 71.2267C75.7896 71.5528 75.5152 71.8657 75.1573 72.0511C74.6861 72.2952 74.1261 72.2905 73.5992 72.2262C72.679 72.1138 71.7793 71.8357 70.9561 71.4093C70.3308 71.0855 69.7523 70.6785 69.1917 70.2523C68.5402 69.7568 67.9004 69.223 67.4439 68.5436C66.9914 67.8702 66.7392 67.0835 66.5392 66.2973C65.0785 60.5564 66.123 54.3636 64.3897 48.699C63.9812 47.364 63.2718 45.9316 61.9411 45.5093ZM27.0948 70.7655C30.4667 71.2859 33.8387 71.8064 37.2106 72.3269C37.1252 72.5499 36.8169 72.5577 36.5802 72.5261C33.6964 72.1409 30.8127 71.7556 27.9289 71.3704C27.6029 71.3268 27.2769 71.2833 26.9509 71.2397C26.7962 71.2191 26.604 71.1631 26.5845 71.0082C26.5569 70.7899 26.8773 70.7319 27.0948 70.7655ZM66.211 50.9516C65.4987 51.7442 65.5501 52.9401 65.6434 54.0016C65.8476 56.3249 66.0517 58.6483 66.2559 60.9716C66.2655 61.0803 66.2771 61.1948 66.3408 61.2834C66.4451 61.4283 66.6469 61.4534 66.8249 61.466C69.2491 61.6368 71.6734 61.8076 74.0977 61.9784C73.9165 62.2649 73.5078 62.2692 73.1698 62.2431C70.8875 62.067 68.5959 62.0099 66.3077 62.0722C66.2682 63.2456 66.4412 64.4259 66.8156 65.5388C66.9779 66.0211 67.6029 66.1239 68.1113 66.1444C70.0504 66.2229 71.9896 66.3015 73.9287 66.38C74.0179 66.5808 73.7045 66.7063 73.4848 66.7038C71.4916 66.6809 69.4984 66.658 67.5052 66.635C67.2322 66.6319 67.1334 67.0187 67.2363 67.2716C67.5052 67.9325 68.3612 68.0748 69.0734 68.1194L73.5297 68.3985C73.6314 68.4048 73.6526 68.5648 73.5783 68.6345C73.504 68.7043 73.3908 68.7062 73.2889 68.7041L68.0713 68.5934C69.4204 70.199 71.3126 71.3399 73.3622 71.7836C73.8038 71.8792 74.2721 71.9419 74.7011 71.8003C75.2146 71.6308 75.5932 71.1948 75.8896 70.7426C77.4616 68.3443 77.3571 65.2583 77.1965 62.3952L77.0143 59.1499C77.0779 59.0624 77.2086 59.0321 77.3042 59.0827C77.341 58.9236 77.1341 58.8292 76.9735 58.7997C73.4271 58.1483 69.788 57.4958 66.2387 58.1321C66.1253 58.0855 66.1264 57.909 66.2127 57.8218C66.2989 57.7346 66.4298 57.7134 66.5513 57.6967C67.0364 57.63 67.5216 57.5632 68.0067 57.4965C66.8933 56.9936 66.2185 55.7991 66.0168 54.5941C65.8152 53.3891 66.0121 52.1571 66.211 50.9516ZM48.7807 70.6802C49.0966 70.7391 49.4613 70.8356 49.5846 71.1323C49.2329 71.372 48.7711 71.3474 48.3468 71.3135C48.2301 71.3041 48.1026 71.29 48.0206 71.2064C47.8755 71.0585 47.9837 70.786 48.1704 70.6961C48.3571 70.6063 48.5771 70.6423 48.7807 70.6802ZM24.7231 68.5124C28.356 69.6539 32.1207 70.3756 35.9181 70.6585C36.2127 70.6805 36.6086 70.8208 36.5521 71.1108C32.5359 70.6565 28.5442 69.9853 24.6003 69.1008C24.3487 69.0443 24.0258 68.8651 24.1195 68.6248C24.2019 68.4136 24.5069 68.4444 24.7231 68.5124ZM38.0295 70.2743C38.215 70.2738 38.3941 70.3374 38.5674 70.4034C38.6556 70.4369 38.7526 70.4802 38.7868 70.5681C38.8597 70.7555 38.6013 70.8895 38.4034 70.9254C38.2702 70.9496 38.137 70.9738 38.0038 70.9979C37.8915 71.0183 37.7705 71.0377 37.6671 70.9893C37.4992 70.9106 37.4555 70.6682 37.5519 70.5096C37.6482 70.3511 37.844 70.2747 38.0295 70.2743ZM55.1366 69.8738C56.7435 70.1794 58.3895 70.1967 60.0252 70.2131C60.1518 70.2143 60.1859 70.4135 60.0955 70.5021C60.0051 70.5907 59.864 70.5946 59.7374 70.5921C58.2105 70.5621 56.6816 70.4012 55.1591 70.5212C54.9934 70.5342 54.8213 70.5498 54.6656 70.4915C54.51 70.4332 54.3772 70.2759 54.4068 70.1123C54.4323 69.9713 54.5697 69.8725 54.7104 69.8452C54.8511 69.818 54.9958 69.847 55.1366 69.8738ZM58.7669 44.6821C56.9475 44.9538 55.4189 46.5732 55.2525 48.4053C55.0972 50.1164 54.6248 51.7804 54.2886 53.4654C53.209 58.8763 53.5365 64.484 52.5819 69.9184C52.9306 69.2835 53.0246 68.5445 53.1124 67.8256L55.4271 48.8697C55.4886 48.3653 55.5516 47.8551 55.7328 47.3804C56.228 46.083 57.5078 45.268 58.7669 44.6821ZM50.4941 69.233C50.5933 69.2645 50.6948 69.3059 50.7609 69.3862C50.827 69.4665 50.8436 69.5962 50.7713 69.6711C50.7169 69.7275 50.6315 69.7377 50.5534 69.7446C50.2976 69.7672 50.0419 69.7898 49.7862 69.8124C49.6481 69.8245 49.5055 69.8363 49.3739 69.7927C49.2423 69.7491 49.1237 69.6351 49.1199 69.4966C49.1134 69.2619 49.403 69.144 49.6372 69.1287C49.926 69.1098 50.2183 69.1454 50.4941 69.233ZM55.8799 49.6091C55.6682 49.6851 55.6116 49.9525 55.5876 50.1761L54.7892 57.6116C54.742 58.052 55.3106 58.333 55.7398 58.2239C56.1691 58.1149 56.4968 57.7795 56.868 57.5379C57.2391 57.2962 57.7623 57.1571 58.1031 57.4399C58.4883 57.7596 59.0585 57.4045 59.3931 57.0322C59.7277 56.6599 60.1635 56.2111 60.6393 56.3664C60.0811 56.9004 59.5229 57.4343 58.9647 57.9683C58.7796 58.1454 58.6164 58.499 58.8503 58.6036C59.4917 58.3761 60.0715 57.9775 60.5135 57.46C60.7179 57.4535 60.7275 57.7745 60.6135 57.9443C60.1838 58.5838 59.1723 58.7262 58.9118 59.4514C58.304 61.1441 56.4082 62.2684 54.6314 61.99C54.2669 61.9329 54.0852 62.4123 54.0413 62.7786C53.8664 64.2391 53.6915 65.6996 53.5166 67.1602C53.4764 67.4961 53.4388 67.8515 53.5772 68.1604C53.808 68.6757 54.4254 68.8707 54.9727 69.0093C56.0008 69.2698 57.0458 69.5321 58.1057 69.4947C59.1657 69.4572 60.2616 69.0783 60.9328 68.257C60.747 68.0157 60.3329 68.3252 60.0622 68.1855C59.7974 68.0489 59.9381 67.594 60.2224 67.5046C60.5066 67.4152 60.8068 67.5573 61.0708 67.6955C61.2367 67.3719 61.4072 67.0255 61.3731 66.6635C61.339 66.3014 61.0067 65.9434 60.6523 66.0248C60.4194 66.0783 60.3245 65.6746 60.5123 65.5268C60.7001 65.379 60.9698 65.4269 61.2023 65.4822C61.2152 64.6084 61.2281 63.7347 61.241 62.8609C61.2437 62.6826 61.2442 62.4953 61.1597 62.3383C61.0752 62.1813 60.8747 62.0713 60.7141 62.1487C60.4951 62.2543 60.3053 61.8814 60.4518 61.6874C60.5983 61.4935 60.875 61.4684 61.1178 61.46C61.1366 60.684 61.0865 59.9063 60.9681 59.1391C60.0536 59.5974 59.8936 60.8066 59.8014 61.8254C59.6245 63.7793 59.2686 65.7169 58.7396 67.6061C58.6211 68.0293 58.4878 68.4621 58.2109 68.8034C57.9339 69.1446 57.4776 69.3765 57.0524 69.2655C57.1478 68.9551 57.4726 68.7885 57.7104 68.5675C58.1386 68.1696 58.2976 67.5681 58.4372 67.0005C58.9198 65.0393 59.4054 63.0542 59.3993 61.0345L59.3984 60.8991C59.3953 60.5145 59.3912 60.1245 59.518 59.7633C59.6596 59.3595 60.0147 58.9944 60.4426 58.9923C60.8937 58.9901 61.0015 58.3642 60.9612 57.9149C60.8221 56.3654 60.683 54.8158 60.5439 53.2663C60.4995 52.7714 60.4541 52.2719 60.304 51.7983C59.7487 50.0471 57.6089 48.9883 55.8799 49.6091ZM62.6882 68.5071C62.9002 68.564 63.1061 68.7821 63.0179 68.9832C62.9337 69.1753 62.6695 69.1859 62.4607 69.1661C62.3585 69.1564 62.2498 69.1442 62.17 69.0797C62.0301 68.9666 62.0499 68.7268 62.1809 68.6035C62.3119 68.4803 62.5145 68.4605 62.6882 68.5071ZM37.2041 68.2923C37.3436 68.3225 37.4889 68.3632 37.5892 68.4647C37.6895 68.5663 37.7227 68.7473 37.623 68.8495C37.5416 68.933 37.4101 68.9345 37.2936 68.9304C37.126 68.9245 36.9584 68.9187 36.7908 68.9128C36.6938 68.9094 36.59 68.9037 36.5121 68.8458C36.3456 68.7219 36.4186 68.4319 36.5974 68.3266C36.7763 68.2213 37.0013 68.2484 37.2041 68.2923ZM24.2908 66.7719C25.229 67.2081 26.2598 67.3984 27.2791 67.576C29.3426 67.9355 31.4123 68.2593 33.487 68.5472C33.7773 68.5875 34.0988 68.6445 34.2757 68.8782C33.4723 68.9331 32.6693 68.7993 31.8752 68.6659C29.2572 68.2263 26.6393 67.7867 24.0213 67.3471C23.7469 67.301 23.3926 67.1486 23.446 66.8755C23.5094 66.5518 23.9917 66.6328 24.2908 66.7719ZM40.5812 57.4989C40.49 57.8646 40.5075 58.2473 40.5199 58.6239C40.5976 60.9753 40.4581 63.3338 40.1037 65.6596C40.0192 66.214 40.3505 66.7683 40.8058 67.0958C41.2611 67.4232 41.822 67.5638 42.3727 67.6699C43.6142 67.909 44.8828 68.0071 46.1463 67.9616C46.6268 67.9442 47.1271 67.8999 47.538 67.6503C47.927 67.4139 48.1908 67.0205 48.423 66.629C49.4084 64.9677 50.0544 63.1062 50.3102 61.1917C46.7661 61.1757 43.2432 59.8386 40.5812 57.4989ZM49.8504 66.8215C50.0924 66.9014 50.3344 66.9812 50.5763 67.0611C50.657 67.0877 50.7435 67.1186 50.7914 67.1888C50.8723 67.3074 50.7938 67.481 50.6686 67.5514C50.5435 67.6218 50.3915 67.618 50.2481 67.6123C49.9868 67.602 49.6983 67.58 49.5159 67.3926C49.3336 67.2053 49.3961 66.8012 49.657 66.7841C49.723 66.7798 49.7877 66.8008 49.8504 66.8215ZM62.5343 66.8566C62.6782 66.8796 62.8301 66.9061 62.941 67.0007C63.0519 67.0952 63.0974 67.2824 62.9952 67.3863C62.954 67.4282 62.8969 67.4497 62.8414 67.469C62.6272 67.5436 62.3893 67.6031 62.1775 67.5219C61.9657 67.4407 61.8213 67.1607 61.9544 66.9771C62.0768 66.8084 62.3285 66.8237 62.5343 66.8566ZM24.9145 59.0285C24.7654 59.0992 24.6058 59.1798 24.5321 59.3274C24.4772 59.4375 24.4801 59.5664 24.4842 59.6893C24.5399 61.3645 24.6102 63.0997 25.3594 64.5991C25.5617 65.004 25.8191 65.3937 26.1835 65.6623C26.4042 65.825 26.6569 65.9379 26.9074 66.0494C27.3421 66.243 27.7778 66.4366 28.2291 66.5877C29.2628 66.9339 30.357 67.0512 31.4411 67.1664C31.9008 67.2152 32.3904 67.259 32.8028 67.0501C33.2883 66.8042 33.5469 66.2713 33.7558 65.7687C34.9202 62.9661 35.585 59.9568 35.7096 56.9245C35.7273 56.4936 35.1756 56.3034 34.7453 56.2745C31.3104 56.044 28.0254 57.5539 24.9145 59.0285ZM36.243 56.8029C36.1548 56.9189 36.1439 57.074 36.1351 57.2193C35.9296 60.6485 35.0761 64.0378 33.633 67.1554C35.0079 66.4596 36.0323 65.1084 36.331 63.5967C36.4337 63.0769 36.4548 62.545 36.4755 62.0156C36.5408 60.3463 36.6062 58.6771 36.6716 57.0078C36.675 56.9198 36.6757 56.823 36.6196 56.755C36.5271 56.6427 36.3311 56.687 36.243 56.8029ZM36.8124 65.1554C36.9869 65.1648 37.1508 65.2374 37.3204 65.2795C37.4723 65.3173 37.5181 65.5335 37.4334 65.6651C37.3486 65.7967 37.1851 65.8538 37.0301 65.8756C36.8684 65.8983 36.6944 65.8897 36.5553 65.8041C36.4161 65.7185 36.3259 65.5397 36.3814 65.3861C36.4409 65.2218 36.6379 65.1459 36.8124 65.1554ZM62.6343 64.7021C62.7975 64.7358 62.9373 64.8369 63.0717 64.9354C63.1445 64.9889 63.2221 65.0489 63.2459 65.136C63.2764 65.2474 63.2029 65.3672 63.1018 65.4227C63.0006 65.4782 62.8793 65.4822 62.7643 65.473C62.6008 65.4599 62.432 65.4194 62.3086 65.3114C62.1853 65.2033 62.1226 65.0136 62.1994 64.8688C62.2775 64.7216 62.4712 64.6684 62.6343 64.7021ZM23.8273 59.5162C23.7827 59.5958 23.7917 59.6933 23.802 59.7839L24.0444 61.918C24.1759 63.076 24.3481 64.3241 25.1576 65.1627C25.2925 65.0987 25.2164 64.8958 25.1313 64.773C24.4756 63.8268 24.3494 62.6236 24.243 61.4774C24.1807 60.8055 24.1183 60.1336 24.056 59.4617C23.9933 59.3955 23.8719 59.4367 23.8273 59.5162ZM66.9908 63.8877C69.2147 63.9426 71.4385 63.9975 73.6624 64.0524C74.0028 64.0608 74.3442 64.0693 74.6809 64.1198C74.6106 64.363 74.2909 64.4087 74.0378 64.4063C71.8077 64.3853 69.5702 64.2473 67.352 64.4791C67.1624 64.4989 66.9577 64.5185 66.7931 64.4222C66.6285 64.3259 66.5548 64.0617 66.7061 63.9456C66.7845 63.8854 66.892 63.8852 66.9908 63.8877ZM60.8808 63.4507C60.9297 63.4667 60.9798 63.4837 61.0197 63.5163C61.1527 63.6244 61.1032 63.8557 60.9672 63.96C60.8313 64.0644 60.648 64.0765 60.4767 64.0807C60.2983 64.0851 60.0903 64.071 59.9887 63.9243C59.8611 63.7402 60.0127 63.4678 60.2239 63.3932C60.4351 63.3185 60.6679 63.3811 60.8808 63.4507ZM62.5067 63.0013C62.7141 63.0237 62.9159 63.0964 63.0899 63.2114C63.2229 63.2993 63.1964 63.52 63.0754 63.6238C62.9544 63.7276 62.7816 63.7421 62.6223 63.7363C62.4612 63.7305 62.2931 63.706 62.1628 63.6112C62.0325 63.5163 61.9548 63.333 62.0247 63.1877C62.1044 63.0219 62.3238 62.9816 62.5067 63.0013ZM40.1037 57.9262C39.9825 59.6716 39.9283 61.4217 39.941 63.1712C39.9415 63.2452 39.9919 63.3502 40.055 63.3118C40.1889 61.8411 40.2547 60.3643 40.2519 58.8876C40.2513 58.5605 40.2447 58.2214 40.1037 57.9262ZM37.7263 62.4038C37.9171 62.4182 38.0854 62.5291 38.241 62.6406C38.2888 62.6749 38.3381 62.7116 38.3649 62.7641C38.4203 62.8728 38.3539 63.0127 38.2497 63.0763C38.1455 63.1399 38.0166 63.1449 37.8947 63.1392C37.6173 63.1263 37.2687 62.9754 37.2997 62.6995C37.3211 62.5093 37.5355 62.3894 37.7263 62.4038ZM62.9687 61.2281C63.1544 61.3043 63.3455 61.5034 63.2495 61.6797C63.1846 61.799 63.0263 61.8249 62.8905 61.8262C62.7327 61.8278 62.5748 61.8149 62.4193 61.7878C62.2007 61.7497 62.1672 61.4057 62.3369 61.2628C62.5067 61.1198 62.7634 61.1438 62.9687 61.2281ZM84.6088 57.8129C84.6854 57.941 84.6866 58.0987 84.6857 58.2479C84.6792 59.3041 84.6728 60.3603 84.6663 61.4165C84.6655 61.5448 84.6482 61.7002 84.5318 61.754C84.4312 61.8006 84.3072 61.7352 84.2512 61.6395C84.1953 61.5439 84.1902 61.4277 84.1883 61.3169C84.172 60.3739 84.2771 59.4085 84.0101 58.504C83.9307 58.2353 83.8357 57.8996 84.0433 57.7114C84.2055 57.5642 84.4965 57.6249 84.6088 57.8129ZM57.4547 57.6905C56.6541 58.1873 55.812 58.6981 54.8722 58.7658C54.7012 58.7781 54.6242 58.9823 54.5905 59.1504C54.4387 59.9064 54.3549 60.6762 54.3406 61.4472C54.3397 61.4943 54.3401 61.545 54.3674 61.5834C54.4107 61.6446 54.499 61.6472 54.574 61.6433C55.3071 61.6048 56.0502 61.5283 56.7311 61.2538C57.412 60.9793 58.0315 60.4821 58.3089 59.8024C58.5864 59.1227 58.453 58.2559 57.8863 57.7891C57.7645 57.6887 57.5889 57.6073 57.4547 57.6905ZM51.3255 60.6635C51.5827 60.731 51.8399 60.7986 52.0972 60.8661C52.1933 60.8914 52.3002 60.9249 52.3461 61.013C52.4003 61.1168 52.3373 61.2507 52.2393 61.3147C52.1414 61.3788 52.0195 61.391 51.9029 61.4013C51.718 61.4178 51.5276 61.4337 51.3502 61.3791C51.1728 61.3245 51.0094 61.1814 50.9891 60.9968C50.9688 60.8123 51.146 60.6163 51.3255 60.6635ZM15.6435 46.5887C16.6062 46.9786 17.3308 47.822 17.7803 48.7584C18.2297 49.6948 18.4343 50.7273 18.6127 51.7505C18.9079 53.444 19.143 55.1727 18.9277 56.8783C18.7125 58.5838 17.9995 60.2845 16.6778 61.3837C17.6406 61.4351 18.7901 61.397 19.3128 60.5868C19.5474 60.2233 20.0522 60.0623 20.4539 60.2231C20.2014 60.0048 20.392 59.5983 20.5795 59.322C21.3474 58.1901 21.8743 56.8892 22.0626 55.5344C22.4277 52.9074 21.5098 50.245 20.1478 47.9692C19.2641 46.4926 17.2028 45.8609 15.6435 46.5887ZM38.4698 60.197C38.6685 60.2752 38.6222 60.6035 38.4365 60.7089C38.2509 60.8143 38.0194 60.7669 37.8125 60.7143C37.716 60.6897 37.6136 60.661 37.5481 60.5861C37.3952 60.411 37.5707 60.1152 37.7972 60.0629C38.0237 60.0107 38.2535 60.1118 38.4698 60.197ZM45.6117 47.5557C44.7617 47.5708 43.8694 47.6744 43.1755 48.1656C42.946 48.328 42.7376 48.5406 42.6538 48.8089C42.57 49.0773 42.6405 49.407 42.8733 49.5647C43.4617 49.9631 43.7015 50.7086 43.8118 51.4105C43.922 52.1125 43.9486 52.8476 44.2684 53.4821C44.4334 53.8093 44.6699 54.0948 44.918 54.3645C46.263 55.8269 48.0173 56.9087 49.9279 57.4539C50.2638 57.5498 50.6911 57.7572 50.6201 58.0992C47.8714 57.5228 45.3649 55.864 43.7599 53.5593C43.2722 55.0572 42.3101 56.3967 41.0465 57.3373C43.5114 59.4349 46.7011 60.6638 49.9361 60.7623C50.0826 60.7667 50.2485 60.7611 50.3473 60.6529C50.4121 60.582 50.4324 60.4823 50.45 60.3879C50.9079 57.9255 51.2305 55.4381 51.4161 52.9404C51.4796 52.086 51.5261 51.2173 51.3414 50.3807C51.1567 49.544 50.711 48.7307 49.9825 48.2798C49.5336 48.002 49.0081 47.8773 48.4884 47.7845C47.5399 47.6153 46.575 47.5386 45.6117 47.5557ZM62.501 59.539C62.7238 59.5392 63.005 59.6043 63.0441 59.8237C63.0831 60.0424 62.834 60.2053 62.6137 60.2334C62.4525 60.254 62.2773 60.2344 62.1495 60.1342C62.0216 60.0339 61.9622 59.8375 62.051 59.7014C62.142 59.5619 62.3344 59.5389 62.501 59.539ZM78.9683 55.1482C78.5592 56.7328 78.3204 58.3556 78.0824 59.9748C78.0706 60.0554 78.0637 60.1507 78.1245 60.2049C78.7622 59.4127 79.3471 58.578 79.8743 57.7084C79.9263 57.6226 79.9774 57.5103 79.919 57.4287C79.787 57.244 79.6549 57.0593 79.5228 56.8747C79.4248 56.7376 79.3238 56.5571 79.41 56.4123C79.4801 56.2946 79.6369 56.2698 79.7734 56.2572L80.8936 56.154C80.8815 56.0846 80.8393 56.0248 80.7982 55.9676C80.4982 55.5502 80.1711 55.1112 79.6908 54.9282C79.4246 54.8267 79.0395 54.8723 78.9683 55.1482ZM27.0841 38.7553C26.2651 38.8927 25.3781 39.1296 24.9028 39.8105C24.6369 40.1916 24.539 40.6623 24.4609 41.1204C24.1535 42.9225 24.0575 44.7605 24.1755 46.5848C27.7059 44.9422 31.8366 44.6302 35.5738 45.7238C35.8907 45.8166 36.2829 46.0976 36.1165 46.3829C33.3132 45.346 30.1907 45.1914 27.2986 45.9462C26.3628 46.1905 25.4534 46.5264 24.5229 46.7902C23.1401 47.1823 21.7119 47.4141 20.2761 47.4795C22.8911 51.0301 23.2295 56.1141 21.1081 59.9799C22.428 59.7301 23.6682 59.1755 24.8852 58.6068C26.7022 57.7577 28.5114 56.8622 30.4415 56.3171C32.3717 55.772 34.4586 55.5938 36.3731 56.1914C36.5971 56.2613 36.7205 55.9381 36.7294 55.7036L37.1443 44.8341C37.2072 43.1874 37.2125 41.3668 36.1345 40.1205C35.1806 39.0177 33.6249 38.6728 32.1721 38.5488C30.4764 38.404 28.7625 38.4736 27.0841 38.7553ZM52.3774 58.9297C52.431 58.9647 52.4863 59.0088 52.4988 59.0716C52.5242 59.199 52.3693 59.2801 52.2443 59.3155C52.0628 59.367 51.8758 59.4185 51.6881 59.3988C51.5005 59.3791 51.3096 59.2713 51.2479 59.093C51.1863 58.9147 51.3102 58.6807 51.4989 58.6772C51.8081 58.6715 52.1184 58.7607 52.3774 58.9297ZM79.0067 52.09C78.3238 52.473 77.5079 52.6129 76.7364 52.4794C76.8351 52.7545 77.2678 52.8505 77.2699 53.1429C77.2712 53.3209 77.1035 53.4462 77.0082 53.5965C76.9348 53.7122 76.9031 53.8487 76.8738 53.9825C76.599 55.2411 76.4412 56.5253 76.4031 57.813C76.3966 58.0349 76.4517 58.3279 76.6724 58.3521C77.1295 58.4022 77.5599 58.6585 77.8218 59.0364C78.0363 57.6862 78.2509 56.3361 78.4654 54.9859C78.5152 54.6726 78.5571 54.3227 78.3735 54.064C78.1209 53.7081 78.3408 53.2205 78.5623 52.8444L79.0067 52.09ZM38.3444 57.9259C38.5774 57.9724 38.8426 58.1737 38.7543 58.3943C38.6999 58.5303 38.5357 58.5852 38.3894 58.5931C38.2432 58.6009 38.091 58.5792 37.9541 58.6311C37.7929 58.6922 37.6032 58.5495 37.5835 58.3782C37.5638 58.207 37.6828 58.0407 37.8379 57.9655C37.993 57.8903 38.1753 57.8921 38.3444 57.9259ZM62.4981 57.7173C62.6451 57.7376 62.8001 57.77 62.907 57.8728C63.014 57.9756 63.0434 58.1713 62.9295 58.2664C62.8919 58.2978 62.8444 58.3144 62.798 58.3303C62.5962 58.3992 62.3802 58.4667 62.1731 58.4156C61.966 58.3644 61.786 58.1446 61.8576 57.9437C61.9402 57.712 62.2545 57.6837 62.4981 57.7173ZM75.8745 54.9417C75.7189 54.9792 75.6055 55.109 75.5029 55.2319L74.885 55.9719C74.7642 56.1165 74.9767 56.3181 75.1645 56.3338C75.3522 56.3495 75.5715 56.3054 75.7051 56.4382C75.8451 56.5774 75.7874 56.82 75.6728 56.9807C75.5581 57.1415 75.3956 57.2727 75.3263 57.4575C75.2227 57.7338 75.3941 58.0801 75.6767 58.1652C75.8302 58.2114 76.0455 58.1403 76.0468 57.9801C76.0548 57.0433 76.1095 56.1069 76.2108 55.1756C76.2281 55.0165 76.0301 54.9042 75.8745 54.9417ZM44.5192 55.4069C44.6376 55.4856 44.7142 55.6115 44.7931 55.7297C45.471 56.7448 46.6049 57.4424 47.8167 57.59C48.0969 57.6241 48.4277 57.6582 48.5682 57.9031C48.3042 58.1645 47.8739 58.1326 47.512 58.0484C46.2291 57.75 45.0536 57.0088 44.2312 55.9799C44.1 55.8158 43.9803 55.5662 44.1266 55.4154C44.2255 55.3134 44.4008 55.3283 44.5192 55.4069ZM75.2082 50.9213C74.3022 51.1439 73.3975 51.458 72.6632 52.0335C71.9289 52.609 71.3828 53.4834 71.3885 54.4163C71.3958 55.5995 70.8145 56.7719 69.8684 57.4823L71.4614 57.6698C71.6479 57.6917 71.857 57.7076 72.003 57.5895C72.2166 57.4168 72.162 57.0852 72.108 56.8158C72.054 56.5464 72.066 56.1904 72.3222 56.0914C72.6404 55.9684 72.9037 56.4098 72.8555 56.7476C72.8074 57.0853 72.6113 57.4104 72.6727 57.746C73.4271 57.853 74.1839 57.9431 74.9423 58.0164C74.7914 57.8926 74.775 57.6579 74.8513 57.4782C74.9276 57.2985 75.0759 57.161 75.2199 57.0293C75.3734 56.889 75.1522 56.6417 74.9454 56.6195C74.7387 56.5972 74.4954 56.6469 74.3497 56.4986C74.1684 56.3142 74.3044 56.005 74.459 55.7977C74.759 55.3954 75.131 54.9106 74.9379 54.4474C74.4669 53.318 74.5706 51.9657 75.2082 50.9213ZM40.4639 47.8351C40.3377 50.927 40.3549 54.0248 40.5157 57.1151C41.6968 56.4742 42.5598 55.3466 43.095 54.114C43.4215 53.362 43.6401 52.5332 43.5095 51.7238C43.4122 51.1202 43.1264 50.5627 42.7942 50.0495C42.2048 49.1391 41.4354 48.3173 40.4639 47.8351ZM67.851 46.3538C68.2751 46.2757 68.5993 46.7993 68.5271 47.2245C68.4548 47.6496 68.1457 47.9877 67.9001 48.3423C67.5608 48.8321 67.3287 49.3867 67.0991 49.9366C66.5528 51.245 66.3402 52.6911 66.4868 54.1014C66.573 54.9317 66.8006 55.7845 67.362 56.4023C67.9234 57.0201 68.8857 57.329 69.6255 56.9423C70.2609 56.6102 70.5779 55.8781 70.7236 55.1761C70.8693 54.4741 70.8953 53.7393 71.1706 53.0773C71.6784 51.856 72.9309 51.1182 74.1698 50.655C72.3074 50.402 70.6223 49.1043 69.9019 47.3683C69.6953 46.8705 69.5403 46.3091 69.1117 45.9823C68.6831 45.6554 67.8761 45.8154 67.851 46.3538ZM52.1084 56.3139C52.2394 56.339 52.3679 56.3771 52.4914 56.4274C52.6953 56.5103 52.9143 56.7396 52.7832 56.9164C52.7115 57.013 52.5739 57.0246 52.4537 57.0277C52.2345 57.0333 51.9982 57.0339 51.8191 56.9073C51.6401 56.7808 51.5782 56.4745 51.7587 56.3501C51.8579 56.2818 51.9901 56.2912 52.1084 56.3139ZM61.9821 55.792C62.1594 55.807 62.336 55.8316 62.5106 55.8657C62.5971 55.8825 62.6903 55.906 62.7446 55.9753C62.827 56.0803 62.7752 56.245 62.671 56.3285C62.5668 56.4119 62.4283 56.4354 62.2964 56.456C62.095 56.4876 61.8801 56.5175 61.6942 56.4336C61.5084 56.3497 61.3816 56.1041 61.4951 55.9347C61.5942 55.7871 61.8049 55.777 61.9821 55.792ZM11.293 54.8382C11.1428 54.8366 11.0908 55.0371 11.0954 55.1872C11.1085 55.6186 11.1958 56.0477 11.3524 56.4499C11.396 56.4944 11.4466 56.4016 11.4405 56.3396L11.293 54.8382ZM40.1517 55.949C40.058 55.9998 40.0223 56.1345 40.0786 56.2251L40.0808 56.2283L40.0788 56.2306C40.0763 56.2336 40.0736 56.2372 40.0707 56.2414C40.033 56.2985 40.0859 56.3891 40.1541 56.3843C40.2003 56.244 40.1994 56.0887 40.1517 55.949ZM38.1997 55.3384C38.4029 55.3833 38.6235 55.552 38.573 55.7539C38.5395 55.8877 38.3987 55.9661 38.2641 55.9961C38.1295 56.026 37.9872 56.024 37.8586 56.0739C37.6951 56.1375 37.4982 56.0056 37.4645 55.8334C37.4308 55.6613 37.5363 55.4816 37.6885 55.3943C37.8406 55.3071 38.0284 55.3005 38.1997 55.3384ZM39.3758 26.8584C39.3876 36.1661 39.6014 45.4735 40.0171 54.7719L40.0608 55.7333L40.0674 55.424C40.0794 54.7013 40.0688 53.9783 40.0582 53.2555C39.9341 44.7832 39.8101 36.3108 39.686 27.8385C39.6808 27.4838 39.6528 27.08 39.3758 26.8584ZM52.6887 53.9773C52.8027 54.0114 52.917 54.0632 52.991 54.1565C53.065 54.2497 53.0862 54.3929 53.013 54.4868C52.9422 54.5777 52.8138 54.5949 52.6991 54.6051L52.2094 54.6486C52.1293 54.6557 52.0433 54.6616 51.9737 54.6213C51.9175 54.5888 51.8803 54.5296 51.8632 54.4669C51.8118 54.2784 51.9393 54.0737 52.1158 53.9897C52.2922 53.9056 52.5014 53.9213 52.6887 53.9773ZM13.2439 46.6914C12.7348 47.1917 12.47 47.8832 12.2253 48.5537C11.5435 50.4221 10.8956 52.4053 11.232 54.3655C11.336 54.3846 11.3856 54.2431 11.3933 54.1376C11.5316 52.2465 11.9095 50.373 12.5152 48.5761C12.7462 47.8905 13.0242 47.1943 13.5375 46.6844C13.5305 46.5603 13.3326 46.6042 13.2439 46.6914ZM75.8345 50.7787C75.7458 50.8005 75.6883 50.8843 75.6418 50.963C75.2037 51.7065 74.9975 52.5843 75.0587 53.4451C75.084 53.8005 75.1983 54.2099 75.5302 54.3395C75.8 54.0804 76.0699 53.8213 76.3397 53.5622C76.3826 53.521 76.4265 53.4784 76.4501 53.4239C76.5093 53.2876 76.4247 53.1355 76.3469 53.0089C75.9624 52.3831 75.6736 51.59 75.9939 50.9291C76.0338 50.8468 75.9233 50.7569 75.8345 50.7787ZM81.4417 49.9766C81.3987 49.999 81.3654 50.0362 81.3333 50.0726C80.5367 50.9735 79.7673 51.8985 79.0266 52.8459C78.8719 53.0437 78.7105 53.2669 78.7257 53.5176C78.7393 53.7405 78.896 53.9346 79.086 54.0518C79.276 54.1691 79.4974 54.2225 79.7146 54.2742C79.7727 54.288 79.8358 54.3015 79.8904 54.2773C79.9407 54.2551 79.9726 54.2057 80.0016 54.159C80.4551 53.4278 80.9149 52.6822 81.1291 51.8489C81.1748 51.6712 81.3289 51.5471 81.452 51.411C81.6939 51.1438 81.8357 50.788 81.8438 50.4276C81.8465 50.3056 81.8322 50.1769 81.7616 50.0774C81.691 49.9778 81.5499 49.9201 81.4417 49.9766ZM62.041 53.5428C62.1507 53.57 62.2717 53.6117 62.321 53.7135C62.4077 53.8929 62.2041 54.0799 62.0138 54.1388C61.8661 54.1845 61.7017 54.2003 61.5601 54.1384C61.4185 54.0766 61.3111 53.9205 61.3433 53.7693C61.4003 53.5011 61.7748 53.4768 62.041 53.5428ZM38.3814 53.1511C38.4332 53.1975 38.4812 53.2522 38.5009 53.3189C38.5404 53.4532 38.4467 53.6012 38.318 53.6564C38.1894 53.7116 38.0392 53.6903 37.9096 53.6375C37.7731 53.5818 37.6402 53.4754 37.6228 53.329C37.603 53.1616 37.7546 53.0076 37.9214 52.9834C38.0883 52.9592 38.2558 53.0387 38.3814 53.1511ZM53.1449 51.6794C53.278 51.7336 53.2919 51.9351 53.2 52.0457C53.1082 52.1562 52.9551 52.193 52.8119 52.2051C52.6687 52.2172 52.5205 52.2119 52.3867 52.2643C52.181 52.3448 51.9573 52.0964 52.0063 51.881C52.0553 51.6657 52.2865 51.5319 52.5071 51.5216C52.7277 51.5113 52.9404 51.5961 53.1449 51.6794ZM61.8128 51.3555C62.0015 51.3648 62.1881 51.4143 62.3566 51.4999C62.4297 51.5371 62.5052 51.5884 62.526 51.6677C62.5689 51.831 62.364 51.9431 62.1982 51.9749C62.0512 52.0031 61.9021 52.0199 61.7525 52.0251C61.568 52.0315 61.3453 51.9959 61.2717 51.8265C61.2146 51.6949 61.2842 51.5335 61.4011 51.4503C61.5181 51.3671 61.6694 51.3485 61.8128 51.3555ZM73.9806 39.301C72.8794 39.4787 71.7734 39.6259 70.6641 39.7426C69.8606 39.8271 69.1038 40.2829 68.6535 40.9537C68.561 41.0915 68.4973 41.3114 68.6402 41.3959C69.0445 40.9295 69.5933 40.5901 70.1912 40.4367C70.4049 40.3819 70.6388 40.352 70.8404 40.4418C71.0419 40.5316 71.186 40.7788 71.0948 40.9797C70.9548 41.2882 70.5081 41.2019 70.1699 41.1813C69.2295 41.124 68.4162 42.2002 68.7282 43.0892C68.9471 42.2406 70.1587 41.8721 70.8378 42.4262C71.5169 42.9802 71.4339 44.197 70.7076 44.6875C70.4676 44.8496 70.1594 44.9626 70.0498 45.2307C69.9559 45.4606 70.0463 45.7202 70.1364 45.9516C70.2778 46.3147 70.4192 46.6779 70.5606 47.041C70.857 47.8024 71.172 48.5916 71.772 49.1462C72.2334 49.5727 72.8317 49.8264 73.4422 49.9752C75.643 50.5116 78.1206 49.6579 79.5239 47.8797C79.6364 47.7372 79.893 47.8724 79.9131 48.0528C79.9331 48.2332 79.8098 48.3954 79.6877 48.5298C79.0594 49.2214 78.2674 49.7634 77.3952 50.0985C76.9829 50.2569 76.4929 50.4283 76.3661 50.8514C76.2612 51.2018 76.482 51.589 76.7991 51.7713C77.1161 51.9537 77.5027 51.9691 77.8663 51.9293C78.5914 51.85 79.293 51.5662 79.8694 51.1191C80.0441 50.9835 80.2132 50.8251 80.2908 50.618C80.3643 50.4219 80.3476 50.2051 80.3298 49.9965L80.3143 49.8172C80.2462 49.0392 80.1582 48.2522 79.841 47.5408C79.6885 47.1986 79.4844 46.878 79.3721 46.5205C79.2336 46.0797 79.2419 45.6068 79.1488 45.1543C79.0557 44.7017 78.82 44.2316 78.3891 44.0648C78.5029 43.7756 78.7869 43.5937 78.9708 43.3431C79.1546 43.0926 79.1816 42.6549 78.8922 42.5418C78.7538 42.4877 78.5962 42.5343 78.4643 42.6028C77.9084 42.8915 77.6085 43.598 77.7869 44.1985C77.9034 44.5903 77.2843 44.8532 76.951 44.6165C76.6177 44.3798 76.5355 43.9291 76.4698 43.5256C76.215 41.9615 75.7037 40.2754 74.3679 39.4228C74.2511 39.3483 74.1173 39.2789 73.9806 39.301ZM38.2647 50.3957C38.4403 50.4527 38.6154 50.6104 38.5789 50.7914C38.5443 50.9625 38.3474 51.0426 38.1754 51.072C37.9313 51.1138 37.6131 51.0659 37.5445 50.828C37.4792 50.6016 37.7162 50.3847 37.9505 50.36C38.0561 50.3488 38.1637 50.3629 38.2647 50.3957ZM66.4296 47.1379C66.2659 47.2931 66.1861 47.5146 66.1117 47.7276C65.9439 48.208 65.7738 48.7025 65.7932 49.211C65.8056 49.5384 65.6156 49.8333 65.4801 50.1316C65.3446 50.4298 65.271 50.8118 65.4835 51.0611C65.9911 50.6343 66.1129 49.9158 66.2246 49.2621C66.358 48.4805 66.5395 47.6703 67.0449 47.0594C66.868 46.9195 66.5933 46.9827 66.4296 47.1379ZM53.0538 49.3161C53.1845 49.3581 53.3324 49.4421 53.3339 49.5794C53.3359 49.7463 53.1304 49.8231 52.9662 49.8531C52.8839 49.8682 52.8016 49.8832 52.7192 49.8983C52.5095 49.9367 52.2847 49.9735 52.0897 49.8871C51.8947 49.8008 51.7648 49.5376 51.8921 49.3664C51.9744 49.2558 52.1259 49.2256 52.2635 49.2171C52.53 49.2006 52.7996 49.2344 53.0538 49.3161ZM33.978 46.9053C34.2075 47.0151 34.4643 47.2314 34.3793 47.4712C32.0146 46.9556 29.4883 47.2106 27.2743 48.1883C26.2781 48.6282 25.343 49.2099 24.3119 49.5606C23.9592 49.6806 23.5741 49.7727 23.2178 49.6639C22.8614 49.5551 22.5642 49.177 22.6685 48.8193C22.7663 48.4835 23.1402 48.3239 23.4715 48.2118C25.1042 47.6591 26.7653 47.1903 28.4461 46.808C30.2801 46.3908 32.2813 46.0938 33.978 46.9053ZM67.932 46.877C67.7632 46.8763 67.6212 47.0002 67.5101 47.1274C67.2408 47.4359 67.0494 47.8061 66.907 48.1901C66.7301 48.6671 66.6255 49.171 66.5978 49.679C67.0868 48.8379 67.6096 48.0164 68.1645 47.2173C68.2608 47.0786 68.1008 46.8777 67.932 46.877ZM64.9357 48.3754C64.8894 48.3757 64.8405 48.3774 64.8014 48.4022C64.7134 48.4581 64.7256 48.5884 64.7517 48.6894C64.8346 49.0095 64.9492 49.3214 65.0935 49.619C65.1801 49.1997 65.3192 48.7913 65.5064 48.4063C65.317 48.3846 65.1263 48.3743 64.9357 48.3754ZM27.8813 47.2946C26.4816 47.7248 25.082 48.1549 23.6823 48.5851C23.5151 48.6365 23.321 48.7159 23.2854 48.8871C23.3992 49.0532 23.616 49.1236 23.8171 49.1139C24.0181 49.1042 24.209 49.027 24.3953 48.9508C25.8153 48.3707 27.2354 47.7905 28.6554 47.2103C28.4018 47.1394 28.133 47.2172 27.8813 47.2946ZM42.6518 48.0797C42.5766 48.2101 42.4201 48.2655 42.3029 48.3599C42.1856 48.4542 42.1168 48.6574 42.2406 48.743C42.4302 48.5531 42.6198 48.3633 42.8094 48.1735C42.7702 48.1249 42.7132 48.091 42.6518 48.0797ZM57.42 47.9788C58.4374 48.0847 59.4641 48.1388 60.4832 48.051C60.7469 48.0283 61.0622 48.0177 61.2187 48.2311C61.0212 48.4323 60.7106 48.4566 60.429 48.4687C59.3711 48.514 58.3133 48.5593 57.2555 48.6046C57.0491 48.6134 56.7877 48.5871 56.7208 48.3917C56.6681 48.2379 56.7878 48.0682 56.9383 48.0065C57.0887 47.9448 57.2583 47.9619 57.42 47.9788ZM73.1495 46.8671C73.3957 47.1665 73.4855 47.5878 73.383 47.9617C73.3577 48.0539 73.3208 48.1444 73.2618 48.2197C73.107 48.4173 72.8213 48.4757 72.5773 48.4172C72.3332 48.3587 72.1241 48.2034 71.9379 48.0351C71.7459 47.8618 71.5658 47.6642 71.4737 47.4225C71.3815 47.1808 71.3923 46.8868 71.5557 46.6863C71.6905 46.5211 71.9081 46.4418 72.1208 46.4263C72.5074 46.398 72.9033 46.5676 73.1495 46.8671ZM38.8516 47.5633C38.9489 47.6418 38.9325 47.805 38.8495 47.8984C38.7666 47.9918 38.64 48.0317 38.5187 48.0619C38.3755 48.0976 38.2249 48.1256 38.0814 48.0914C37.9378 48.0573 37.8032 47.9459 37.7855 47.7994C37.7599 47.5869 37.9824 47.4206 38.1939 47.3872C38.4247 47.3508 38.6698 47.4164 38.8516 47.5633ZM72.023 46.9376C71.9152 47.0772 71.9861 47.329 72.1608 47.3528C72.3626 47.3804 72.5196 47.5924 72.4871 47.7935C72.4615 47.9514 72.6541 48.0833 72.8068 48.0359C72.9595 47.9885 73.0479 47.8173 73.0445 47.6574C73.0411 47.4976 72.9648 47.3485 72.8783 47.214C72.7829 47.0658 72.6663 46.9217 72.5054 46.8496C72.3445 46.7774 72.1308 46.7981 72.023 46.9376ZM71.4856 32.6049C70.0188 32.8735 68.5658 33.5142 67.6198 34.6668C66.6737 35.8195 66.3466 37.5445 67.0862 38.8393C67.3475 39.2969 67.7465 39.6959 68.2483 39.8569C68.75 40.018 69.3568 39.8995 69.6915 39.4925C70.0713 39.0309 70.8378 39.4736 71.4093 39.2984C72.1998 39.056 73.0214 38.9154 73.8475 38.8811C74.0434 38.8729 74.2453 38.8717 74.4281 38.9426C74.6266 39.0195 74.7834 39.1737 74.9341 39.3239C75.457 39.8449 75.9906 40.3809 76.3002 41.051C76.7911 42.1136 76.6696 43.4093 77.2897 44.402C77.3622 43.7795 77.4347 43.157 77.5072 42.5344C77.5341 42.3034 77.564 42.0636 77.6889 41.8674C77.8137 41.6712 78.0633 41.5335 78.2819 41.6129C78.6675 41.7529 79.0689 41.9034 79.3457 42.2062C79.6224 42.5091 79.7248 43.0138 79.4588 43.3261C79.2017 43.6279 79.4934 44.064 79.6299 44.4362C79.8664 45.081 79.5883 45.8178 79.7742 46.4789C79.9282 47.0267 80.3732 47.4356 80.7983 47.8137C80.9226 47.9243 81.0676 48.0422 81.2333 48.0271C81.372 48.0144 81.4834 47.911 81.5782 47.8089C82.1431 47.2 82.5301 46.4278 82.6797 45.6108C82.7401 45.2811 82.6254 44.8008 82.2933 44.8458C82.3841 44.0549 83.1112 43.5161 83.5381 42.8441C83.9987 42.1194 84.1074 41.2283 84.1285 40.3699C84.1497 39.5071 84.0654 38.5695 83.4905 37.9259C82.7998 37.1527 81.4576 37.0949 80.703 37.8059C80.5149 37.9831 80.267 38.2174 80.0426 38.0891C80.2184 37.7736 80.3943 37.4581 80.5702 37.1426C80.8568 36.6284 81.1495 36.0955 81.2078 35.5097C81.3228 34.354 80.4429 33.2596 79.3548 32.8532C78.2668 32.4467 77.0384 32.6153 75.947 33.0128C75.6735 33.1124 75.3503 33.3264 75.4245 33.6079C75.4674 33.771 75.6326 33.8694 75.7173 34.0152C75.7701 34.106 75.7648 34.1351 75.7051 34.2087C75.669 34.2531 75.604 34.3817 75.5457 34.3566C74.9269 33.64 74.2577 32.8897 73.3505 32.6187C72.7492 32.4391 72.1029 32.4918 71.4856 32.6049ZM64.4581 47.3845C64.3807 47.3387 64.2326 47.3086 64.2471 47.3973C64.2889 47.6144 64.4844 47.7758 64.6952 47.8422C64.9061 47.9085 65.1325 47.8974 65.3532 47.8855C65.4395 47.8809 65.5317 47.8742 65.6004 47.8217C65.658 47.7777 65.6895 47.7086 65.7188 47.6423C65.7691 47.5287 65.8194 47.4152 65.8696 47.3016C65.4594 47.0346 64.8792 47.634 64.4581 47.3845ZM52.6112 46.643C52.7838 46.656 52.955 46.6861 53.1217 46.7328C53.266 46.7732 53.4319 46.8578 53.439 47.0075C53.4485 47.2047 53.192 47.2852 52.9953 47.3022C52.7952 47.3195 52.5951 47.3367 52.395 47.354C52.2492 47.3666 52.0843 47.3731 51.9771 47.2734C51.8331 47.1396 51.8912 46.8801 52.0471 46.7604C52.203 46.6407 52.4152 46.6284 52.6112 46.643ZM57.2912 46.6002C58.2483 46.7283 59.2185 46.7592 60.1818 46.6922C60.2948 46.6844 60.4179 46.6777 60.511 46.7424C60.604 46.807 60.6272 46.9735 60.5256 47.0237C60.4948 47.0389 60.4593 47.0405 60.425 47.0418C59.2604 47.0857 58.0957 47.1297 56.9311 47.1736C56.8249 47.1776 56.708 47.1782 56.6263 47.1102C56.4801 46.9885 56.564 46.7282 56.7317 46.6383C56.8994 46.5484 57.1027 46.5749 57.2912 46.6002ZM66.5842 45.6516C66.2124 45.6716 65.834 45.7061 65.4907 45.8503C65.1474 45.9945 64.8394 46.2658 64.7369 46.6238C64.7161 46.6964 64.7084 46.7858 64.7641 46.8369C64.8075 46.8766 64.8728 46.8772 64.9316 46.8749C65.5493 46.8506 66.1642 46.7586 66.762 46.6011C67.0592 46.5228 67.4174 46.3339 67.3772 46.0292C67.356 45.8688 67.2177 45.7435 67.0648 45.6903C66.912 45.6372 66.7458 45.6429 66.5842 45.6516ZM23.6889 45.6068C23.6296 45.9205 23.6151 46.2427 23.646 46.5606C23.7228 46.6435 23.8239 46.4816 23.8174 46.3687C23.8026 46.1111 23.7594 45.855 23.6889 45.6068ZM43.5772 45.223C45.7182 45.3197 47.8591 45.4165 50.0001 45.5133C50.1999 45.5223 50.4654 45.5988 50.4536 45.7985C50.1981 45.9626 49.8684 45.9287 49.5668 45.8935C47.6583 45.6711 45.7276 45.6404 43.813 45.802C43.6477 45.8159 43.4722 45.8294 43.3247 45.7536C43.1772 45.6777 43.0821 45.4756 43.1778 45.3402C43.2616 45.2217 43.4322 45.2164 43.5772 45.223ZM38.3857 44.9985C38.4799 45.0127 38.578 45.0373 38.6464 45.1036C38.8029 45.2552 38.7063 45.5433 38.5181 45.6531C38.33 45.7629 38.097 45.7475 37.88 45.7288C37.6418 45.7082 37.5645 45.3509 37.7209 45.1702C37.8774 44.9894 38.1493 44.9627 38.3857 44.9985ZM45.9157 44.2065C49.4049 44.3876 52.8942 44.5686 56.3834 44.7496C56.5703 44.7593 56.8177 44.8312 56.8078 45.0181C56.2324 45.1217 55.6366 45.1102 55.0656 44.9843L55.5726 45.4206C55.3309 45.573 55.0734 45.7303 54.7878 45.7367C54.5021 45.743 54.1912 45.5324 54.1992 45.2468C54.3438 45.1801 54.4883 45.1134 54.6329 45.0467C51.8142 44.8052 48.9824 44.7171 46.1541 44.7828C45.9909 44.7866 45.8168 44.7881 45.6789 44.7006C45.5411 44.6131 45.4714 44.4004 45.5855 44.2836C45.667 44.2001 45.7991 44.2005 45.9157 44.2065ZM68.5091 44.6732C68.3834 44.68 68.2767 44.7635 68.1792 44.8433C68.0637 44.9378 67.9482 45.0323 67.8326 45.1268C67.7116 45.2259 67.5805 45.344 67.5734 45.5002C67.5696 45.585 67.6341 45.6856 67.7168 45.6666C67.7399 45.6612 67.7599 45.6473 67.7793 45.6336C68.0545 45.4395 68.3297 45.2454 68.6049 45.0513C68.661 45.0117 68.7209 44.9669 68.7391 44.9007C68.7725 44.7792 68.6348 44.6663 68.5091 44.6732ZM72.7893 43.6565C72.8002 43.9395 72.6597 44.2048 72.6097 44.4836C72.5598 44.7624 72.655 45.1174 72.9306 45.1827C73.0119 45.2019 73.0355 45.3183 72.9896 45.3881C72.9437 45.4579 72.8569 45.488 72.7747 45.5029C72.5193 45.5493 72.217 45.4673 72.0996 45.2358C72.0408 45.1199 72.0363 44.9851 72.033 44.8552C72.024 44.5075 72.0151 44.1597 72.0062 43.8119C72.0001 43.5742 72.0267 43.2814 72.2443 43.1854C72.5035 43.0711 72.7784 43.3735 72.7893 43.6565ZM68.9938 45.2341C68.9435 45.2575 68.9092 45.3119 68.9097 45.3674L68.8972 45.3707C68.9252 45.4327 69.0256 45.4423 69.0649 45.3868C69.1041 45.3313 69.0616 45.2398 68.9938 45.2341ZM68.5124 43.4165C68.397 43.4194 68.2679 43.4404 68.1996 43.5335C68.1266 43.6331 68.1562 43.7793 68.2312 43.8774C68.3061 43.9755 68.4166 44.0386 68.5197 44.1066C68.9538 44.393 69.3004 44.8101 69.5025 45.2894C69.6399 45.1085 69.7772 44.9277 69.9146 44.7469C70.0172 44.6118 70.1254 44.4573 70.1038 44.2891C70.0881 44.1676 70.0065 44.0654 69.9199 43.9787C69.5527 43.6115 69.0316 43.4033 68.5124 43.4165ZM24.259 40.6187C24.0976 40.6319 24.014 40.8131 23.9632 40.9669C23.8859 41.2011 23.8086 41.4354 23.7313 41.6697C23.6469 41.9256 23.5618 42.1844 23.5387 42.453C23.5233 42.6309 23.5355 42.81 23.5476 42.9882C23.5856 43.5447 23.6235 44.1012 23.6615 44.6577C23.6689 44.7653 23.7507 44.9139 23.8397 44.8529C23.8027 43.4314 23.944 42.0054 24.259 40.6187ZM69.9014 42.665C69.7549 42.7208 69.5993 42.8189 69.5781 42.9742C69.5569 43.1295 69.7856 43.2737 69.8743 43.1444C69.9875 42.9795 70.2704 43.0656 70.364 43.2424C70.4575 43.4192 70.4301 43.6319 70.4287 43.8319C70.4273 44.0319 70.4732 44.2615 70.6476 44.3594C70.6769 44.0918 70.7061 43.8242 70.7354 43.5566C70.7715 43.2263 70.7693 42.8166 70.479 42.6549C70.3052 42.5581 70.0873 42.5942 69.9014 42.665ZM74.6051 42.5138C74.8429 42.5244 75.0967 42.6073 75.2267 42.8066C75.3568 43.006 75.2878 43.3325 75.0586 43.3967C74.7317 43.4883 74.4259 43.0274 74.1062 43.1419C73.9063 43.2134 73.7828 43.4946 73.5744 43.4542C73.4451 43.4292 73.3735 43.2744 73.3992 43.1452C73.4249 43.0161 73.5213 42.9127 73.6245 42.8309C73.8996 42.613 74.2545 42.4982 74.6051 42.5138ZM38.1973 42.2785C38.4264 42.3155 38.6508 42.5664 38.53 42.7647C38.4961 42.8203 38.441 42.8599 38.3833 42.8903C38.2404 42.9655 38.064 42.9911 37.9165 42.9254C37.7689 42.8598 37.6651 42.6896 37.705 42.5331C37.7552 42.3364 37.9969 42.2461 38.1973 42.2785ZM74.9778 40.9736C75.1356 41.1236 75.2585 41.406 75.0819 41.5333C74.8951 41.6679 74.6714 41.4407 74.4926 41.2955C74.2929 41.1333 74.0224 41.0618 73.7686 41.104C73.6063 41.131 73.4534 41.2015 73.2906 41.2251C73.1278 41.2488 72.9383 41.2114 72.8495 41.0729C72.7563 40.9277 72.8155 40.722 72.9437 40.6065C73.0719 40.4909 73.2501 40.4487 73.4219 40.433C73.9856 40.3814 74.5676 40.5837 74.9778 40.9736ZM38.1893 40.514C38.3301 40.5965 38.4059 40.7911 38.3276 40.9342C38.2241 41.1233 37.9528 41.1207 37.7436 41.0687C37.6682 41.05 37.589 41.0253 37.5391 40.9658C37.4201 40.8238 37.5535 40.6011 37.7197 40.5191C37.866 40.4469 38.0486 40.4315 38.1893 40.514Z" fill="#333333"/>
<path fill-rule="evenodd" clip-rule="evenodd" d="M19.3001 59.5312C19.3194 59.5846 19.3372 59.6443 19.3152 59.6967C19.2757 59.7905 19.1472 59.7942 19.0454 59.7933C18.3293 59.7876 17.6635 60.4027 17.6126 61.1171C17.6072 61.1926 17.5035 61.2271 17.4364 61.1921C17.3693 61.1572 17.3348 61.0817 17.3115 61.0097C17.1807 60.6038 17.265 60.1487 17.4736 59.7767C17.6822 59.4047 18.0049 59.1079 18.3555 58.865C18.4916 58.7708 18.6609 58.6804 18.8148 58.7412C18.9165 58.7814 18.9829 58.8783 19.0383 58.9726C19.1426 59.1502 19.2304 59.3374 19.3001 59.5312ZM18.8842 59.4499C18.8211 59.257 18.5653 59.1878 18.3742 59.256C18.1831 59.3241 18.0438 59.4865 17.9138 59.6422C17.7905 59.7899 17.6615 59.951 17.647 60.1428C17.9765 59.7937 18.4144 59.5485 18.8842 59.4499Z" fill="#F2994A"/>
</svg>
