<svg width="100" height="100" viewBox="0 0 100 100" fill="none" xmlns="http://www.w3.org/2000/svg">
<path fill-rule="evenodd" clip-rule="evenodd" d="M40.0898 76.0903C54.0571 80.0181 60.8533 64.945 72.8206 66.0917C79.3717 66.7195 92.4293 69.9011 92.4001 46.7245C92.3271 31.7616 78.5356 28.0147 64.3136 35.6883C60.1287 37.3249 56.8246 36.8177 53.2372 35.1915C49.6499 33.5654 45.0362 26.3059 36.3406 24.8124C10.1727 20.3181 -12.2173 61.3807 40.0898 76.0903Z" fill="#C0F0FF"/>
<path fill-rule="evenodd" clip-rule="evenodd" d="M73.2812 38.4461C73.5432 38.3187 74.0134 38.5657 73.7406 38.9634C73.1367 39.8439 75.4723 41.6027 74.7226 40.0528C74.6425 39.8871 74.2313 38.7411 74.813 39.3327C75.3947 39.9244 76.2056 42.5389 75.6811 43.4397C75.2208 44.2303 74.0027 44.6063 72.3398 44.6508L72.2649 44.6525L72.2296 44.6547C71.2493 44.7003 70.506 44.0936 70.0262 42.9122L70.0031 42.8545C69.5174 41.6178 69.6506 40.6265 70.4361 39.9581C70.4504 39.946 70.4656 39.9351 70.4817 39.9255L70.5064 39.9122L73.2812 38.4461Z" fill="white"/>
<path fill-rule="evenodd" clip-rule="evenodd" d="M20.3233 15.3019C20.2089 15.1397 20.0236 15.0462 19.8258 15.0704C19.6231 15.095 19.4537 15.2359 19.392 15.4303L19.3756 15.4823C19.3631 15.5207 19.3482 15.5647 19.3308 15.6141C19.2811 15.7552 19.2208 15.9118 19.1496 16.0803C18.9472 16.5592 18.698 17.0371 18.4006 17.4818C17.7588 18.4412 16.9856 19.109 16.0792 19.3662C15.9375 19.4064 15.8552 19.5539 15.8955 19.6955C15.9159 19.7675 17.2396 20.4291 18.5911 20.2623C19.9019 20.1005 21.2417 19.1123 21.2525 19.045L21.269 18.905L21.2737 18.858C21.3675 17.8399 21.1893 16.6898 20.5037 15.5756C20.4468 15.4831 20.3866 15.3918 20.3233 15.3019Z" fill="#E0E0E0"/>
<path fill-rule="evenodd" clip-rule="evenodd" d="M23.0512 15.5981L23.0443 15.652C22.9493 16.3413 22.6832 17.3012 22.202 18.0253C21.6095 18.9168 20.7733 19.5985 19.9331 20.0379C18.7209 20.6717 17.4015 20.7877 16.1023 19.9643L16.045 19.9275C15.3623 19.4809 14.8442 19.2659 14.1334 19.4433C13.4225 19.6208 13.0773 20.1385 12.7704 20.6188L12.7563 20.6392C12.7071 20.7049 12.6352 20.7504 12.5541 20.7664L11.2063 20.9799L11.6971 21.5896C11.8448 21.7744 11.9498 21.9077 12.0121 21.9893L12.5516 22.7C14.1594 24.8087 15.8897 26.8221 19.2638 26.1251L19.3781 26.1006C20.2721 25.9019 21.0215 26.4356 21.9618 27.2221L22.1627 27.3913C22.4114 27.6018 23.1633 28.2647 23.4711 28.5838L23.5717 28.6893L23.6645 28.7892C23.6838 28.8102 23.7022 28.8305 23.7197 28.8498L23.8156 28.958L23.8745 28.8885C24.511 28.1222 24.9096 26.9552 25.116 25.9925C25.194 25.6288 25.2387 25.2805 25.2573 24.9591L25.2596 24.9173C25.2645 24.8234 25.2666 24.7414 25.267 24.6729V24.622L25.1708 24.6502C24.058 24.9658 22.8059 24.9972 21.5842 24.8562C21.2891 24.8222 24.5266 22.2 23.862 18.8041C23.7106 18.0302 23.6145 16.9954 23.3499 16.293C23.2665 16.0715 23.18 15.8689 23.0944 15.6878L23.0512 15.5981Z" fill="white"/>
<path fill-rule="evenodd" clip-rule="evenodd" d="M73.4219 38.8654L70.652 40.2119C69.988 40.7768 69.8751 41.6171 70.3133 42.7326C70.467 43.124 70.8516 44.0563 70.8516 43.6901C70.8516 43.5757 73.4219 41.8956 73.915 42.06C74.371 42.212 73.552 40.8419 73.3222 40.2119L73.4219 38.8309L73.498 38.6934" fill="#E0E0E0"/>
<path fill-rule="evenodd" clip-rule="evenodd" d="M69.7263 39.876C69.9104 39.876 68.8673 40.3665 68.921 41.2713C68.9748 42.1761 69.6819 43.8436 69.5099 43.9094C69.3379 43.9751 69.0119 43.4889 68.9462 43.317C68.5373 42.247 68.4599 41.8104 68.4745 41.1863C68.4937 40.3693 68.9233 39.876 69.7263 39.876Z" fill="#E0E0E0"/>
<ellipse cx="74.3682" cy="40.7721" rx="0.720032" ry="1.62655" fill="#E0E0E0"/>
<path fill-rule="evenodd" clip-rule="evenodd" d="M24.0757 57.9223C24.0757 55.1 24.3892 53.8729 27.7565 52.3326C34.6579 49.5431 34.6579 49.4356 47.8792 44.3239C51.3757 42.9791 58.7471 46.2006 61.9525 44.8505C64.0895 43.9504 66.0879 43.2821 67.8534 42.3894C68.0243 43.5058 69.1295 45.396 69.5188 45.7209C67.4513 46.1548 65.4514 46.8257 63.5191 47.7338C59.3419 49.6967 61.8172 49.1618 55.2008 55.4013C54.6401 55.9301 52.5796 57.1357 49.6003 58.3915C49.6003 58.3915 43.6003 57.5858 41.1939 56.5848C38.7449 55.5661 35.034 52.3326 35.034 52.3326C35.034 52.3326 30.7059 55.1562 28.2178 56.4254C27.0532 57.0194 24.0757 57.9223 24.0757 57.9223Z" fill="white"/>
<path fill-rule="evenodd" clip-rule="evenodd" d="M24.0758 56.4555C24.0758 55.793 24.0058 55.3306 24.0758 54.8192C24.304 53.152 25.1981 52.2991 27.775 51.1203C34.6764 48.3308 34.658 47.9688 47.8793 42.8571C51.3758 41.5123 58.7472 44.7338 61.9527 43.3837C64.0896 42.4836 66.088 41.8153 67.8535 40.9226C67.8585 40.9546 67.6748 42.4802 67.6748 42.4802C67.6748 42.4802 63.3163 44.7817 60.4333 45.2698C57.37 45.7883 53.1625 43.3837 48.9612 44.5664C42.5633 46.3674 27.8197 52.0282 26.0755 53.4468C24.7051 54.5615 24.0758 56.4555 24.0758 56.4555Z" fill="#E0E0E0"/>
<path fill-rule="evenodd" clip-rule="evenodd" d="M20.3233 15.3019C20.2089 15.1397 20.0236 15.0462 19.8258 15.0704C19.6231 15.095 19.4537 15.2359 19.392 15.4303L19.3756 15.4823C19.3631 15.5207 19.3482 15.5647 19.3308 15.6141C19.2811 15.7552 19.2208 15.9118 19.1496 16.0803C18.9472 16.5592 18.698 17.0371 18.4006 17.4818C17.7588 18.4412 16.9856 19.109 16.0792 19.3662C15.9375 19.4064 15.8552 19.5539 15.8955 19.6955C15.9357 19.8372 18.138 18.8336 18.8439 17.7783C19.1617 17.3032 19.4261 16.796 19.6409 16.2879C19.7057 16.1347 19.7621 15.9903 19.8104 15.857L19.8338 15.7913C19.8528 15.7377 19.869 15.6896 19.8828 15.6471C19.8863 15.6167 19.8895 15.6066 19.8925 15.6166C21.4202 16.6618 20.8197 19.2555 20.9664 19.2681C21.1065 19.2801 21.2305 19.1816 21.2525 19.045L21.269 18.905L21.2737 18.858C21.3675 17.8399 21.1893 16.6898 20.5037 15.5756C20.4468 15.4831 20.3866 15.3918 20.3233 15.3019Z" fill="#E0E0E0"/>
<path fill-rule="evenodd" clip-rule="evenodd" d="M23.5044 15.2939L23.5381 15.354L23.5792 15.4311C23.6039 15.4786 23.6317 15.5337 23.6619 15.5959C23.7667 15.8115 23.8725 16.0554 23.9739 16.3245C24.2591 17.0819 24.4585 17.8992 24.5266 18.7508C24.619 19.9064 24.4522 20.997 24.0297 21.9891L23.9936 22.0724C23.6503 22.8475 23.1503 23.5576 22.5012 24.1947L22.4369 24.257L22.4916 24.2597C23.4263 24.2989 24.3507 24.2153 25.1633 23.9561C25.3375 23.9006 25.5275 23.9293 25.6777 24.0337C25.8275 24.1379 25.9206 24.3056 25.93 24.4879L25.9321 24.5445L25.9334 24.6192V24.648C25.9334 24.7523 25.9303 24.8693 25.9229 24.9975C25.9024 25.3515 25.8534 25.7334 25.7679 26.132C25.5265 27.2583 25.0438 28.3131 24.2548 29.2019C24.1501 29.3199 24.0028 29.3906 23.8462 29.399L23.81 29.3998C23.6428 29.3966 23.4901 29.3275 23.3816 29.2095L23.3021 29.1172L23.2631 29.0729L23.1803 28.9809L23.0896 28.883C23.0581 28.8494 23.0253 28.815 22.9913 28.7797C22.7016 28.4794 22.3819 28.1816 22.0424 27.9076C21.1012 27.1481 20.1934 26.7194 19.4181 26.7658C18.1499 26.842 17.0996 26.7828 16.1253 26.5094C14.8656 26.156 13.8765 25.4625 13.2219 24.3586L13.1852 24.2957C12.8464 23.7047 12.3458 23.0239 11.7555 22.3153C11.573 22.0963 11.393 21.8881 11.2215 21.6955L11.1485 21.6139C11.0317 21.4839 10.9359 21.3804 10.8958 21.3382C10.7476 21.182 10.6961 20.958 10.7609 20.7532L10.7704 20.7255C10.8415 20.5341 11.0069 20.3923 11.2084 20.3525L12.2893 20.1389L12.3019 20.1207C12.6886 19.5709 13.2408 19.1053 13.9743 18.9178C14.7394 18.7221 15.5445 18.8922 16.3552 19.4067L16.4118 19.4431C17.5069 20.1593 18.5923 20.1198 19.6242 19.5802C20.3613 19.1948 21.0639 18.5403 21.5962 17.7393C22.0912 16.9946 22.3854 16.1985 22.4064 15.5701C22.4152 15.3075 22.5963 15.082 22.851 15.0177C23.106 14.9533 23.3726 15.0662 23.5044 15.2939ZM23.0512 15.5979L23.0442 15.6518C22.9492 16.3411 22.6831 17.301 22.2019 18.0251C21.6094 18.9166 20.7733 19.5983 19.933 20.0377C18.7209 20.6715 17.4014 20.7875 16.1023 19.9642L16.0449 19.9273C15.3622 19.4807 14.8442 19.2657 14.1333 19.4431C13.4224 19.6206 13.0772 20.1383 12.7703 20.6187L12.7563 20.639C12.7071 20.7047 12.6351 20.7502 12.554 20.7662L11.2062 20.9797L11.6971 21.5894C11.8448 21.7742 11.9498 21.9075 12.0121 21.9892L12.5515 22.6998C14.1593 24.8085 15.8896 26.8219 19.2637 26.1249L19.3781 26.1004C20.272 25.9017 21.0215 26.4354 21.9617 27.222L22.1626 27.3911C22.4113 27.6016 23.1633 28.2645 23.471 28.5836L23.5716 28.6891L23.6644 28.789C23.6837 28.81 23.7022 28.8303 23.7196 28.8497L23.8156 28.9578L23.8745 28.8883C24.511 28.122 24.9096 26.955 25.1159 25.9923C25.1939 25.6286 25.2387 25.2803 25.2573 24.959L25.2596 24.9171C25.2644 24.8232 25.2666 24.7412 25.2669 24.6727V24.6218L25.1708 24.65C24.0579 24.9656 22.8059 24.997 21.5841 24.856C21.289 24.822 24.5265 22.1998 23.862 18.8039C23.7105 18.03 23.6144 16.9952 23.3499 16.2928C23.2664 16.0713 23.18 15.8687 23.0943 15.6876L23.0512 15.5979Z" fill="#E0E0E0"/>
<path fill-rule="evenodd" clip-rule="evenodd" d="M14.6 21.6001C14.8573 21.6001 15.0667 21.3907 15.0667 21.1334C15.0667 20.8761 14.8573 20.6667 14.6 20.6667C14.3427 20.6667 14.1333 20.8761 14.1333 21.1334C14.1333 21.3907 14.3427 21.6001 14.6 21.6001Z" fill="#333333"/>
<ellipse cx="14.9999" cy="22.8666" rx="0.733333" ry="0.599999" fill="#F2994A"/>
<ellipse cx="14.9999" cy="22.8666" rx="0.733333" ry="0.599999" fill="#F2994A"/>
<path fill-rule="evenodd" clip-rule="evenodd" d="M23.5045 15.2939L23.5381 15.354L23.5792 15.4311C23.6039 15.4786 23.6317 15.5337 23.6619 15.5959C23.7667 15.8115 23.8726 16.0554 23.9739 16.3245C24.2591 17.0819 24.4586 17.8992 24.5266 18.7508C24.619 19.9064 24.4522 20.997 24.0298 21.9891L23.9936 22.0724C23.6504 22.8475 23.1503 23.5576 22.5013 24.1947L22.4369 24.257L22.4916 24.2597C23.4263 24.2989 24.3507 24.2153 25.1633 23.9561C25.3376 23.9006 25.5276 23.9293 25.6777 24.0337C25.8275 24.1379 25.9206 24.3056 25.93 24.4879L25.9321 24.5445L25.9334 24.6192V24.648C25.9334 24.7523 25.9304 24.8693 25.923 24.9975C25.9024 25.3515 25.8534 25.7334 25.7679 26.132C25.5265 27.2583 25.0438 28.3131 24.2549 29.2019C24.1502 29.3199 24.0028 29.3906 23.8463 29.399L23.8101 29.3998C23.6428 29.3966 23.4902 29.3275 23.3816 29.2095L23.3021 29.1172L23.2632 29.0729L23.1803 28.9809L23.0896 28.883C23.0581 28.8494 23.0253 28.815 22.9913 28.7797C22.7016 28.4794 22.382 28.1816 22.0424 27.9076C21.1012 27.1481 20.1934 26.7194 19.4181 26.7658C18.1499 26.842 17.0997 26.7828 16.1253 26.5094C14.8656 26.156 13.8765 25.4625 13.222 24.3586L13.1853 24.2957C12.8464 23.7047 12.3459 23.0239 11.7555 22.3153C11.573 22.0963 11.3931 21.8881 11.2215 21.6955L11.1486 21.6139C11.0317 21.4839 10.936 21.3804 10.8958 21.3382C10.7477 21.182 10.6962 20.958 10.7609 20.7532L10.7704 20.7255C10.8415 20.5341 11.0069 20.3923 11.2085 20.3525L12.2893 20.1389L12.3019 20.1207C12.6886 19.5709 13.2408 19.1053 13.9743 18.9178C14.6963 18.7331 15.4539 18.8742 16.2183 19.323C17.0651 19.0393 17.7921 18.3916 18.4008 17.4816C18.6982 17.037 18.9474 16.559 19.1498 16.0801C19.221 15.9117 19.2813 15.755 19.331 15.6139C19.3484 15.5645 19.3633 15.5205 19.3757 15.4822L19.3922 15.4302C19.4538 15.2358 19.6233 15.0949 19.8259 15.0703C20.0238 15.046 20.2091 15.1395 20.3234 15.3017C20.3868 15.3917 20.4469 15.4829 20.5039 15.5755C21.0361 16.4403 21.2626 17.3269 21.2934 18.1565C21.3993 18.0227 21.5005 17.8834 21.5963 17.7393C22.0912 16.9946 22.3855 16.1985 22.4064 15.5701C22.4152 15.3075 22.5963 15.082 22.8511 15.0177C23.106 14.9533 23.3726 15.0662 23.5045 15.2939ZM19.6242 19.5802C18.6219 20.1043 17.569 20.1566 16.5059 19.5028C17.2217 19.1719 18.3701 18.4867 18.8441 17.7781C19.1618 17.3031 19.4263 16.7958 19.6411 16.2878C19.7058 16.1345 19.7622 15.9901 19.8105 15.8569L19.834 15.7912C19.8529 15.7375 19.8692 15.6894 19.883 15.6469C19.8865 15.6166 19.8897 15.6064 19.8927 15.6165C20.9082 16.3112 20.9833 17.6902 20.9626 18.5405C20.5545 18.976 20.0964 19.3333 19.6242 19.5802ZM19.9331 20.0377C20.3398 19.825 20.7456 19.5555 21.1233 19.2329C21.1524 19.216 21.1781 19.1937 21.199 19.1672C21.5722 18.838 21.9155 18.456 22.2019 18.0251C22.6832 17.301 22.9493 16.3411 23.0442 15.6518L23.0512 15.5979L23.0943 15.6876C23.18 15.8687 23.2665 16.0713 23.3499 16.2928C23.534 16.7816 23.6365 17.4314 23.7329 18.0422L23.7329 18.0423C23.775 18.3092 23.8159 18.5686 23.862 18.8039C24.3713 21.4067 22.5884 23.555 21.8607 24.4318C21.639 24.699 21.5152 24.8481 21.5842 24.856C22.8059 24.997 24.058 24.9656 25.1708 24.65L25.2669 24.6218V24.6727C25.2666 24.7412 25.2644 24.8232 25.2596 24.9171L25.2573 24.959C25.2387 25.2803 25.1939 25.6286 25.116 25.9923C24.9096 26.955 24.511 28.122 23.8745 28.8883L23.8156 28.9578L23.7197 28.8497C23.7022 28.8303 23.6838 28.81 23.6644 28.789L23.5716 28.6891L23.4711 28.5836C23.1633 28.2645 22.4114 27.6016 22.1626 27.3911L21.9618 27.222C21.0215 26.4354 20.272 25.9017 19.3781 26.1004L19.2637 26.1249C15.8896 26.8219 14.1594 24.8085 12.5516 22.6998L12.0121 21.9892C11.9498 21.9075 11.8448 21.7742 11.6971 21.5894L11.2063 20.9797L12.5541 20.7662C12.6352 20.7502 12.7071 20.7047 12.7563 20.639L12.7704 20.6187C13.0772 20.1383 13.4225 19.6206 14.1333 19.4431C14.8442 19.2657 15.3623 19.4807 16.045 19.9273L16.1023 19.9642C17.4014 20.7875 18.7209 20.6715 19.9331 20.0377ZM73.2811 38.446C73.5432 38.3186 74.0133 38.5656 73.7406 38.9633C73.3277 39.5653 73.7864 40.9631 74.0658 41.8145C74.1951 42.2084 74.2859 42.4854 74.2343 42.5124C74.0712 42.5976 73.8698 42.5345 73.7845 42.3713C73.3227 41.4878 73.0576 40.7862 72.9915 40.2529C72.9586 39.9876 72.9513 39.7309 72.9699 39.4832L72.9723 39.4546L70.8376 40.4922L70.8107 40.517C70.3288 40.9691 70.1168 41.4939 70.4694 42.4235L70.4903 42.4774C70.8731 43.4521 71.5211 44.1512 72.1953 44.1221L72.248 44.1194C73.7463 44.0894 74.6417 43.6385 74.9613 43.0895C75.3632 42.3993 75.4723 41.6026 74.7226 40.0527C74.6424 39.887 74.2312 38.741 74.8129 39.3327C75.3946 39.9243 76.2056 42.5388 75.6811 43.4396C75.2432 44.1917 74.1195 44.5686 72.5796 44.6419C72.5886 44.6811 72.5906 44.7226 72.5844 44.7648C72.4385 45.7546 71.9868 46.3773 71.2312 46.5575C70.6535 46.6952 70.0325 46.5127 69.4638 46.073C67.4655 46.5021 65.5313 47.1561 63.6608 48.0351L63.3837 48.1663C62.4294 48.6222 61.8821 48.9278 61.4825 49.2248C61.2481 49.399 61.0545 49.5775 60.8464 49.8071L60.8128 49.8453C60.7118 49.9625 60.4915 50.2315 60.241 50.5375L60.2408 50.5378C59.9073 50.9452 59.5202 51.418 59.2892 51.6853L59.1777 51.8137C58.2389 52.8894 57.0557 54.1098 55.4294 55.6435L55.3839 55.6852C54.7742 56.2301 53.1541 57.1512 51.1337 58.08C56.7097 57.8818 60.7305 55.7535 63.2344 51.6914C63.3446 51.5127 63.5906 51.4791 63.7446 51.6218C68.0504 55.6095 73.0394 57.4549 78.7308 57.1668C84.4374 56.8778 88.6251 55.3946 91.3068 52.7318C91.4374 52.6021 91.6485 52.6028 91.7782 52.7334C91.9079 52.8641 91.9071 53.0751 91.7765 53.2048C88.9633 55.9983 82.9907 58.0944 77.1335 58.391C71.4374 58.6794 68.0386 56.3324 63.6929 52.4748L63.5867 52.3798L63.5486 52.4383C60.7963 56.6094 54.8167 59.6516 48.8493 59.6946L48.6623 59.6953C42.5587 59.6953 39.0385 56.7399 34.9206 52.7005L34.8886 52.6688L34.8739 52.6814L34.5142 52.984C30.6556 56.2311 27.7765 58.654 23.4457 59.273L23.3075 59.2923C18.4244 60.2802 11.0185 57.6486 9.88043 56.3586C8.83765 55.1767 10.054 55.9114 10.3879 56.113C10.4184 56.1315 10.4415 56.1455 10.4549 56.1531C13.6869 58.0035 17.4133 58.7082 21.8841 58.0984C22.5011 58.0142 23.1143 57.9028 23.7234 57.7641L23.7164 57.6986C23.5212 55.8445 23.5201 55.0342 23.8014 54.1041C24.184 52.8389 25.1128 51.8776 26.7838 51.1133L27.2439 50.9099C29.3079 50.0003 30.9471 49.3173 32.6473 48.6538L32.7718 48.6053C32.9625 48.5311 33.1557 48.4565 33.3529 48.3808L33.5461 48.3071C33.616 48.2824 34.5269 47.9213 35.9115 47.3724L35.912 47.3722C39.1058 46.106 44.8195 43.8409 48.547 42.3997C49.3534 42.0896 50.3298 41.9864 51.5274 42.0483L51.6306 42.054C52.5277 42.1068 53.4101 42.2286 54.8568 42.4789L56.1277 42.7015C57.547 42.9472 58.2347 43.044 59.0376 43.1012C59.2898 43.1192 59.5294 43.1414 59.7571 43.1626L59.7572 43.1626L59.7575 43.1626L59.7577 43.1627L59.7579 43.1627C60.6022 43.2412 61.2817 43.3043 61.8231 43.0763C62.3047 42.8734 62.7767 42.6776 63.2393 42.4857C64.7522 41.8582 66.1635 41.2728 67.4731 40.6218C67.5629 40.0394 67.7923 39.6095 68.152 39.3263C68.7067 38.8895 69.4918 38.8821 70.1728 39.1469C70.3444 39.2137 70.4294 39.4068 70.3627 39.5784C70.3411 39.6339 70.2024 39.6084 70.0061 39.5722C69.5958 39.4965 68.9338 39.3744 68.5644 39.85C68.1534 40.3791 68.017 41.1897 68.3809 42.7857C68.6446 43.9423 70.3544 45.909 71.0766 45.909C71.8817 45.909 72.07 45.1273 72.1769 44.684L72.1835 44.6563C71.226 44.681 70.4984 44.075 70.0261 42.9121L70.0031 42.8545C69.5173 41.6178 69.6506 40.6264 70.436 39.958C70.4441 39.9512 70.4524 39.9448 70.461 39.9387C70.4677 39.934 70.4746 39.9296 70.4816 39.9254L70.5063 39.9121L73.2811 38.446ZM68.8487 45.4704C68.8148 45.4293 68.7812 45.3872 68.7481 45.3441C68.7405 45.336 68.7331 45.3279 68.7262 45.32L68.7139 45.3055C68.6836 45.2686 68.6524 45.2312 68.6206 45.193C68.3623 44.8827 68.0629 44.5232 67.8285 44.0047L67.7946 43.9291C67.4185 43.0868 67.3737 42.1407 67.3968 41.3606L67.4003 41.27L67.3804 41.28C65.8269 42.0489 64.1371 42.8202 62.3109 43.5939L62.0819 43.6907C61.3 44.02 60.3234 44.2527 59.086 44.1727L58.9903 44.1662C58.1449 44.106 57.4338 44.0049 55.9427 43.746L54.8295 43.5508C51.6913 43.0075 50.1209 42.9227 48.8268 43.4066C48.8268 43.4066 29.5291 50.6659 27.0576 51.7212C25.5544 52.4088 25.0444 53.0557 24.4228 54.1041C24.1013 54.6463 24.1338 56.1421 24.1564 57.1811C24.1602 57.3553 24.1637 57.5167 24.1652 57.6586C27.8141 56.746 31.3216 54.8488 34.6899 51.9631C34.8227 51.8493 35.0208 51.8575 35.1437 51.9818C35.4162 52.2573 35.6933 52.5235 35.9749 52.7803L49.8714 46.9745C49.9097 46.9585 49.9492 46.9502 49.9883 46.9488C50.0928 46.8995 50.2056 46.8588 50.3266 46.8266C51.5383 46.5044 52.506 47.0286 53.1746 48.3187L54.3858 47.4352C54.5644 47.3049 54.8181 47.3815 54.8949 47.5888C56.0002 50.5762 55.6782 52.6231 53.858 53.6108C52.0225 54.6068 50.4262 53.7855 49.1817 51.2961C49.1185 51.1697 49.1434 51.0237 49.2308 50.9253C48.9341 49.72 48.8791 48.7596 49.081 48.0642L36.9057 53.5818C38.7263 55.0599 40.7255 56.1747 42.9046 56.9266C42.9544 56.8789 43.0083 56.838 43.0613 56.809C44.8967 55.8036 49.4186 54.6292 50.5359 54.3391L50.5359 54.3391L50.6337 54.3136C50.6818 54.3011 50.7194 54.2913 50.7455 54.2843C51.2695 54.1439 50.7326 54.6336 50.5744 54.7066L50.5542 54.7151L43.9543 57.2567C45.9177 57.8159 48.02 58.0953 50.2623 58.0953C50.3899 58.0953 50.5168 58.0944 50.6428 58.0925L50.7902 57.9967C52.2016 57.0793 54.5622 55.5449 54.9721 55.1585L55.1633 54.9777C56.5222 53.659 57.5336 52.394 58.4164 51.2898L58.4164 51.2898C59.385 50.0782 60.1989 49.0603 61.1472 48.3774C61.8846 47.8464 62.1518 47.7251 62.7799 47.44L62.7801 47.4399C62.948 47.3637 63.1418 47.2757 63.3773 47.1651C65.0431 46.3822 66.9349 45.9289 68.7108 45.5034L68.8487 45.4704ZM50.4979 47.4709C51.4579 47.2156 52.177 47.6664 52.7251 48.9254L52.7425 49.0116C52.9452 50.0571 52.8581 50.6423 52.5804 50.7979C52.3189 50.9446 52.0612 50.8023 51.7283 50.2044C51.6506 50.0545 51.4706 49.9847 51.3101 50.048L49.8443 50.6264L49.8077 50.4658C49.4069 48.6492 49.668 47.6915 50.4979 47.4709ZM34.3652 62.6123C34.52 62.5127 35.5886 61.9913 34.6369 62.9713C33.6853 63.9512 26.2742 68.1086 22.2736 68.3388C18.4178 68.5607 14.9943 66.9503 12.0157 64.8427L11.917 64.7723L11.8973 64.7977C11.7655 64.9649 11.63 65.1166 11.4908 65.2528L11.4309 65.3102C11.1786 65.5471 10.7419 65.8151 10.111 66.1267C9.94597 66.2083 9.36275 66.2832 9.66454 65.9755C9.96634 65.6677 10.6269 65.2246 11.0116 64.9705C11.263 64.8045 11.3424 64.6103 11.4211 64.4177C11.4629 64.3155 11.5045 64.2138 11.5714 64.117C11.679 63.9614 11.8942 63.9263 12.0455 64.0398C14.9819 66.2405 18.412 67.4137 22.2736 67.1914C26.1512 66.9683 30.1558 65.3207 34.3652 62.6123ZM57.1716 64.7375C57.3069 64.6126 57.3069 63.722 57.1716 63.8468C55.6739 65.2288 52.5384 66.4443 48.6691 66.667C44.795 66.89 41.7491 66.2809 39.5256 64.851C39.3707 64.7515 38.6043 64.4881 39.0649 64.9511C39.5256 65.4141 44.7034 67.8297 48.7074 67.5992L48.8273 67.5921C52.7726 67.3513 55.554 66.2301 57.1716 64.7375ZM54.4367 48.2976L54.4166 48.2377L53.413 48.9699L53.4315 49.0735C53.6333 50.2538 53.4956 51.0253 52.9359 51.3624L52.9066 51.3794C52.3231 51.7066 51.774 51.4755 51.3148 50.8032L51.2946 50.7733L49.9452 51.3183L49.9763 51.375C51.0079 53.2365 52.1511 53.7541 53.4966 53.048L53.5401 53.0248C54.8913 52.2916 55.2242 50.7952 54.4834 48.4427L54.4367 48.2976ZM15.0668 21.1332C15.0668 21.3906 14.8574 21.5999 14.6001 21.5999C14.3428 21.5999 14.1334 21.3905 14.1334 21.1332C14.1334 20.8759 14.3428 20.6666 14.6001 20.6666C14.8574 20.6666 15.0668 20.8759 15.0668 21.1332Z" fill="#333333"/>
</svg>
