<svg width="100" height="100" viewBox="0 0 100 100" fill="none" xmlns="http://www.w3.org/2000/svg">
<path fill-rule="evenodd" clip-rule="evenodd" d="M50 11.867C37.3915 11.8641 16.0693 17.2058 15.8667 24.9944L16.0693 50.3053C17.8479 69.6469 31.3326 85.8993 50 91.2C68.6674 85.8993 82.1521 69.6469 83.9307 50.3053L84.1334 24.9944C84.1045 18.9022 62.6086 11.8641 50 11.867Z" fill="#C0F0FF"/>
<path fill-rule="evenodd" clip-rule="evenodd" d="M49.4132 70.4216L49.414 70.4168C49.2458 71.5311 48.6046 72.4772 47.4903 73.2551C46.2288 74.117 44.652 76.9868 47.4903 76.9868C48.235 76.9868 49.9816 76.654 50.5493 76.0303C50.7175 75.8621 50.8857 75.4836 51.0539 74.8949C51.2431 74.3483 51.4428 73.9804 51.6531 73.7912C51.9474 74.9265 52.0636 77.4438 51.2016 79.2099C50.3606 80.9128 50.0873 82.2058 50.3816 83.0888C51.2226 83.5724 52.9466 83.3057 55.5536 82.8222C56.0792 77.1666 56.2054 68.7127 55.5536 58.642C57.2776 58.2636 57.9183 57.8863 58.6541 57.9284C59.7894 57.9704 62.1346 58.2876 62.8284 59.2127C65.8979 63.2283 67.5877 65.9491 68.0923 67.0424C68.3026 67.547 68.9753 70.1004 70.1106 74.4734C70.0686 74.8309 70.1737 78.5492 70.1106 78.8856C71.5905 81.8816 73.0435 80.9836 74.715 80.9836C74.6309 80.3318 74.3996 78.3639 73.6427 77.3548C72.8017 76.2825 73.2117 74.4219 73.0435 73.7912C72.9384 73.3286 72.8438 72.6033 72.7597 71.6152C72.6966 70.5639 72.6125 69.7966 72.5074 69.313C71.0147 62.5852 69.543 57.0874 68.0923 52.8195C68.7667 52.9961 70.8293 53.8923 72.2692 53.8087C74.6 53.6734 77.0538 52.9961 76.6922 51.8626C76.5661 51.2529 76.2086 50.9165 75.62 50.8535C75.5148 50.8324 75.2415 50.8219 74.8 50.8219C74.4426 50.8219 74.1483 50.7904 73.917 50.7273C72.9887 50.5028 71.718 50.9589 70.7025 50.7273C68.1991 50.1564 65.9707 48.7862 64.9387 47.3952C63.3198 45.1877 60.9458 43.9367 60.4832 43.6424C59.5792 43.0537 59.5775 42.5281 57.8115 42.0656C55.4147 41.4348 49.332 35.7959 48.6803 35.1862C47.9655 34.5135 47.5765 33.9248 47.5134 33.4202C47.4504 32.7684 47.7342 31.5911 48.3649 29.8881C48.9116 28.3744 48.9957 27.176 48.6172 26.293C48.5962 26.6924 48.5547 23.707 47.7558 22.5717C47.5035 22.1932 47.1356 21.7097 46.652 21.121C46.0633 20.4062 45.6849 19.9436 45.5167 19.7334C44.8649 19.9226 44.2973 20.5323 43.8137 21.5625C43.2881 22.7188 42.8151 23.4232 42.3946 23.6754C42.2761 23.6481 41.2118 23.1859 40.4984 23.0287C39.5655 22.8231 38.5382 22.8891 38.431 22.6032C38.2628 22.0986 38.1261 21.7307 38.021 21.4994C37.6426 20.7005 37.1275 20.3011 36.4757 20.3011C35.7399 20.3011 34.8358 20.6803 34.2682 21.8998C34.1631 22.131 33.6165 22.9557 32.8176 25.2474C31.6823 28.4851 31.535 31.4019 31.6822 32.6633C32.1447 36.6159 32.7544 39.1178 33.5113 40.169C33.5954 40.2531 33.8477 40.3477 34.2682 40.4528C34.6046 40.5369 34.7833 40.6946 34.8043 40.9259C34.6361 41.6407 32.7523 43.3375 32.3528 44.6831C31.9323 46.0707 31.638 47.1114 31.4698 47.8052C30.8601 50.244 30.7024 52.4726 30.9968 54.4909C31.186 55.7734 31.2911 57.7812 31.3121 60.5144C31.3331 63.4157 31.4172 65.5286 31.5644 66.8532C31.6275 67.4839 31.7641 68.3249 31.9744 69.3761C32.2477 70.6586 32.4159 71.51 32.479 71.9305C32.7943 73.9489 32.7313 75.6939 32.2897 77.1656C31.3016 78.427 29.9575 80.2771 29.6001 82.2534C29.6001 83.7529 33.7123 84.2055 35.7075 81.9649C36.1917 81.4211 36.5127 78.2108 36.1763 75.4356C36.0082 73.9008 36.4 71.2472 36.6733 68.4931C36.9676 65.4235 37.4122 63.3416 37.3912 62.4586C37.3281 60.4613 38.1577 57.2226 38.8725 56.8863C41.6056 58.5682 47.4167 60.0518 47.711 60.199C47.9633 60.3462 48.1105 60.5038 48.1525 60.672C48.9561 67.224 49.376 70.4747 49.4122 70.424L49.4132 70.4216Z" fill="white"/>
<path fill-rule="evenodd" clip-rule="evenodd" d="M37.7652 45.0035C37.4893 45.1635 37.1107 44.2276 37.2758 43.8006C37.8573 42.2963 38.4069 42.714 38.3106 43.4492C38.2144 44.1826 38.3106 44.6872 37.7652 45.0035Z" fill="#F2994A"/>
<path fill-rule="evenodd" clip-rule="evenodd" d="M46.3138 18.762C46.2114 18.532 46.1091 18.302 45.9991 18.077C45.7587 17.5854 45.1094 17.4331 44.7563 17.7845C44.5475 17.9921 44.3405 18.2015 44.1334 18.4109L44.1334 18.4109L44.1334 18.4109L44.1333 18.4109L44.1333 18.4109L44.1333 18.411L44.1333 18.411L44.1333 18.411L44.1333 18.411L44.1332 18.4111L44.1331 18.4112C43.6808 18.8685 43.2286 19.3257 42.7593 19.7648L42.6927 19.8277C42.0971 20.3966 41.6031 21.0306 41.2721 21.7875C41.2455 21.8483 41.2509 21.9231 41.2563 21.9979C41.2588 22.0325 41.2612 22.0672 41.2605 22.1004C41.2965 22.0959 41.3361 22.0954 41.3757 22.0949C41.463 22.0938 41.5504 22.0926 41.5993 22.0487C41.6919 21.9655 41.7661 21.8625 41.8405 21.7591C41.8873 21.6941 41.9341 21.6291 41.9856 21.5687C42.528 20.9337 43.0734 20.3012 43.6229 19.6724C43.6485 19.6431 43.6942 19.6314 43.7399 19.6197C43.7611 19.6142 43.7824 19.6087 43.8016 19.6015C43.8004 19.6245 43.8006 19.6478 43.8008 19.6712C43.8012 19.7218 43.8016 19.7724 43.7881 19.819C43.7533 19.9393 43.7134 20.0587 43.6735 20.178L43.6735 20.178C43.5986 20.4018 43.5238 20.6255 43.4832 20.8553C43.3755 21.4646 43.2971 22.0812 43.2531 22.6981C43.2464 22.7915 43.3765 22.9035 43.4946 22.995L43.574 23.0558C43.595 23.072 43.8003 22.9363 43.8237 22.8458C43.8796 22.6297 43.9226 22.4103 43.9656 22.1909L43.9656 22.1909C44.0086 21.9716 44.0517 21.7522 44.1075 21.5362C44.1341 21.4331 44.1603 21.3299 44.1865 21.2268L44.187 21.2248L44.1871 21.2244L44.1872 21.2241C44.4104 20.3444 44.6329 19.4674 45.1266 18.6733C45.3612 18.2959 45.4942 18.4208 45.6296 18.662L45.833 19.0268C46.0861 19.4836 46.3357 19.9434 46.5874 20.4072L46.5876 20.4075C46.8057 20.8095 47.0255 21.2144 47.2506 21.6229C47.3431 21.8214 47.4384 22.0164 47.533 22.21L47.5331 22.2101L47.5332 22.2103C47.7889 22.7337 48.0391 23.2457 48.213 23.7824C48.4288 24.4483 48.6615 25.1871 48.5758 25.8537C48.4614 26.7428 47.7489 28.6908 47.7489 28.6908C46.9246 31.4621 42.9277 36.7338 41.2636 37.7598C39.7367 38.7012 38.0829 39.3071 36.2639 39.378C35.2426 39.4178 34.3747 39.022 33.5356 38.5075L33.4159 38.4332C32.7403 38.0092 32.3022 37.4721 32.2395 36.6414C32.1914 36.0035 32.1305 35.3663 32.0695 34.7291C31.9688 33.6758 31.8681 32.6226 31.8254 31.567C31.7792 30.4262 31.86 29.2695 32.0034 28.135C32.1311 27.1242 32.3496 26.1227 32.5773 25.1262L32.6752 24.6995C33.2016 22.4078 34.456 20.5578 36.2171 19.0324C36.8483 18.4857 37.3828 18.5759 37.7896 19.3072C37.9628 19.6185 38.128 19.9342 38.2932 20.2499L38.2933 20.2499L38.2933 20.2499L38.2933 20.2499L38.2933 20.2499L38.2933 20.2499L38.2933 20.25L38.2933 20.25L38.2933 20.25L38.2933 20.25L38.2933 20.25L38.2934 20.2501L38.2934 20.2501L38.2934 20.2501L38.2934 20.2502L38.2934 20.2502L38.2934 20.2502L38.2935 20.2502L38.2935 20.2503L38.2935 20.2503L38.2935 20.2503C38.4624 20.573 38.6312 20.8956 38.8086 21.2135C38.852 21.2914 38.938 21.3454 39.0241 21.3994C39.0638 21.4244 39.1036 21.4493 39.1391 21.4766C39.1411 21.4337 39.1477 21.3887 39.1544 21.3438C39.1688 21.2465 39.1833 21.1492 39.1498 21.0729L39.0955 20.949C38.8197 20.32 38.5433 19.6895 38.2222 19.0833C37.752 18.1955 36.8678 17.7746 35.9258 18.4838C34.7372 19.3785 33.7806 20.4963 33.0483 21.7681C32.6734 22.4192 32.4331 23.1525 32.1951 23.8792L32.1951 23.8792L32.1951 23.8793L32.1951 23.8793L32.1951 23.8793L32.195 23.8793L32.195 23.8793L32.195 23.8793L32.195 23.8793L32.195 23.8794L32.195 23.8794C32.146 24.0291 32.097 24.1785 32.047 24.3269L31.9993 24.4701C31.5591 25.8082 31.2598 27.1821 31.1617 28.5909C31.1305 29.0382 31.1423 29.4888 31.154 29.939C31.1577 30.0805 31.1614 30.2221 31.1638 30.3634C31.1675 30.5867 31.1699 30.8101 31.1723 31.0335V31.0336C31.1795 31.708 31.1867 32.3826 31.2306 33.0546C31.2654 33.588 31.3201 34.1203 31.3747 34.6525C31.4393 35.2821 31.5039 35.9116 31.5357 36.5428L31.5393 36.6035C31.6739 38.5967 33.4494 39.6975 34.9574 40.0688C36.2641 40.3906 37.6682 40.3157 39.0127 39.7982C40.546 39.3171 41.8038 38.4051 42.9897 37.438C44.5232 36.1874 48.3881 29.7409 49.0529 27.4437C49.4493 26.0743 49.382 24.7867 48.8506 23.4775C48.3787 22.315 47.7601 21.2494 47.0605 20.2106C46.7591 19.7631 46.5365 19.2626 46.3138 18.762ZM31.3512 53.8666C31.3441 53.7049 31.3363 53.5429 31.3284 53.3809C31.2871 52.5273 31.2457 51.67 31.3197 50.8248C31.454 49.2915 31.8147 47.8005 32.5144 46.4041C32.7987 45.8367 33.032 45.2349 33.2116 44.6262C33.4378 43.8598 33.9184 43.2742 34.4023 42.6847L34.4024 42.6846C34.4868 42.5817 34.5714 42.4786 34.6547 42.3745C35.039 41.8942 35.4059 41.3976 35.7466 40.8857C35.9168 40.6299 35.9895 40.5932 36.1624 40.8789C36.8815 42.0672 38.5306 42.333 39.7069 41.5899C41.6314 40.3741 43.2889 38.8439 44.9462 37.3139L45.0545 37.2139C45.8331 36.4951 46.528 35.6793 46.8792 34.6372C46.9177 34.5229 47.0049 34.4157 47.0934 34.3299C47.1568 34.2685 47.2343 34.2216 47.3118 34.1748L47.3118 34.1748L47.3119 34.1748C47.3457 34.1543 47.3796 34.1338 47.4123 34.1121C47.4097 34.149 47.4089 34.1864 47.408 34.2237C47.4062 34.3041 47.4044 34.3846 47.3851 34.4606C47.0848 35.646 46.3911 36.6006 45.5506 37.4465C44.5353 38.4684 43.5166 39.4929 42.4283 40.4342C41.6389 41.1169 40.7522 41.6943 39.8712 42.26C39.5824 42.4454 39.2143 42.5212 38.8615 42.5938C38.8148 42.6034 38.7684 42.613 38.7225 42.6227C38.4494 42.6807 38.3657 42.8014 38.3563 43.0679C38.3532 43.1563 38.3522 43.2455 38.3513 43.3349C38.346 43.8299 38.3406 44.3308 37.9678 44.7326C37.8066 44.9064 37.6021 45.048 37.3957 45.1664C37.3353 45.201 37.1524 45.1356 37.1064 45.0641C36.6557 44.363 36.4443 43.6157 37.1263 42.9456C37.3739 42.7023 37.0966 42.5804 37.0235 42.558C36.6508 42.444 36.4462 42.1681 36.2393 41.8889C36.1957 41.8302 36.1521 41.7713 36.1067 41.7137C36.0609 41.6556 35.8484 41.6322 35.8238 41.6683C35.6037 41.9913 35.3698 42.3057 35.1359 42.6201C34.5379 43.4239 33.9398 44.2278 33.5715 45.1776C33.4773 45.4205 33.3822 45.663 33.287 45.9055L33.2869 45.9057C33.0014 46.6332 32.716 47.3608 32.4568 48.0975C31.8869 49.7179 31.7703 51.3959 31.8847 53.0997C31.9003 53.3321 31.9166 53.5645 31.933 53.7969L31.933 53.7971C32.0027 54.7891 32.0724 55.7816 32.0864 56.7745C32.1043 58.0519 32.0532 59.3316 31.9905 60.6083C31.9615 61.197 31.9048 61.7844 31.8481 62.3718C31.8125 62.7402 31.777 63.1086 31.7482 63.4774C31.6324 64.9647 31.8766 66.4197 32.1375 67.8763C32.2408 68.4526 32.2992 69.0372 32.3575 69.6214C32.3735 69.7813 32.3894 69.9412 32.4063 70.1008C32.5868 71.8077 32.7423 73.5245 32.5237 75.2309C32.4858 75.526 32.4633 75.8257 32.4408 76.1259C32.3695 77.0748 32.2978 78.0296 31.741 78.869C31.5545 79.1501 31.335 79.4304 31.0716 79.635C30.9452 79.7332 30.8346 79.8043 30.7332 79.8694L30.7332 79.8695C30.3758 80.0992 30.1326 80.2554 29.711 81.2705C29.267 82.3394 29.7592 82.716 30.0754 82.9579C30.1446 83.0108 30.2053 83.0573 30.246 83.1032C30.1444 83.2894 29.6066 83.2512 29.4034 83.1032C28.7598 82.6346 28.7598 81.7822 29.0319 81.0221C29.331 80.1866 29.7269 79.4753 30.5383 79.1605C31.341 78.8491 31.5912 78.173 31.7024 77.4628C31.8955 76.2301 32.0754 74.9821 32.0904 73.7386C32.1029 72.7024 31.9834 71.6625 31.8642 70.6264L31.8642 70.626C31.8421 70.4342 31.8201 70.2424 31.7989 70.0509C31.635 68.5698 31.4641 67.0872 31.219 65.6181C31.0455 64.5782 31.1186 63.5479 31.1918 62.5181C31.2155 62.1845 31.2391 61.8509 31.2544 61.5171C31.2983 60.5595 31.3737 59.6033 31.4491 58.6472L31.4491 58.6471L31.4491 58.6471C31.498 58.0274 31.5469 57.4078 31.5872 56.7877C31.6036 56.5352 31.5898 56.2808 31.5754 56.0123C31.5676 55.8687 31.5597 55.721 31.556 55.5675C31.531 55.351 31.5005 55.1412 31.4706 54.9356C31.4176 54.5711 31.3665 54.2196 31.3512 53.8666ZM37.5796 44.5383C37.8343 44.2972 37.8341 43.9927 37.8338 43.6876C37.8336 43.4492 37.8334 43.2105 37.9546 43.0011C37.9734 42.9686 37.8867 42.8221 37.8365 42.8147C37.7601 42.8035 37.6321 42.8441 37.5972 42.9041C37.5012 43.0691 37.4189 43.2418 37.3366 43.4147C37.299 43.4936 37.2614 43.5725 37.2225 43.6507C37.0174 44.063 37.1805 44.3539 37.5796 44.5383ZM51.7454 79.1992C51.9493 78.7448 52.1155 78.245 52.1597 77.7532C52.2724 76.5003 52.359 75.2405 52.3593 73.9834C52.3596 72.9777 52.3105 71.9719 52.2615 70.9662V70.9661V70.9661V70.966V70.9659V70.9659V70.9658V70.9658V70.9657V70.9657V70.9656V70.9655C52.2394 70.5115 52.2172 70.0575 52.1996 69.6034C52.1904 69.3663 52.1838 69.1292 52.1772 68.892C52.1725 68.7222 52.1677 68.5525 52.162 68.3827C52.0793 65.9105 51.323 63.638 50.0696 61.5284C49.9444 61.3177 49.5397 61.1284 49.2941 61.1598C48.5077 61.2603 47.7613 61.1222 47.0061 60.9825L47.0061 60.9825C46.8721 60.9577 46.7377 60.9328 46.6029 60.9092C45.4272 60.7037 44.2951 60.3811 43.2636 59.7987C42.405 59.3138 41.5873 58.7536 40.772 58.1949L40.7719 58.1948L40.5461 58.0402C39.933 57.6208 39.3266 57.1825 38.7704 56.6923C38.4479 56.4081 38.2772 56.565 38.1549 56.8049C37.6206 57.8525 37.119 58.9217 36.9711 60.1035C36.7592 61.797 36.5522 63.4923 36.4049 65.1923C36.2556 66.9165 36.1466 68.6443 36.0376 70.372L36.0376 70.372L36.0376 70.3721L36.0375 70.3737C36.0164 70.7091 35.9952 71.0445 35.9738 71.3798C35.8941 72.625 35.8336 73.8715 35.7774 75.118C35.7331 76.1014 35.8018 77.0614 35.9826 78.0475C36.2009 79.2387 36.2261 80.5288 35.7096 81.6696C35.2493 82.6862 34.3856 83.3542 33.2239 83.4794C32.5563 83.5515 32.0757 82.832 32.4378 82.2574C32.6244 81.9612 32.9243 81.733 33.2194 81.5086L33.2195 81.5086L33.2195 81.5085C33.3009 81.4466 33.3819 81.385 33.4601 81.3223C33.5087 81.2833 33.6035 81.3018 33.6982 81.3203C33.7419 81.3289 33.7856 81.3374 33.8248 81.3403C33.8104 81.3753 33.798 81.4117 33.7856 81.4482C33.7582 81.5289 33.7307 81.6096 33.6818 81.674C33.6295 81.7429 33.5654 81.8057 33.5017 81.868C33.3993 81.9683 33.2981 82.0675 33.2489 82.1891C33.1838 82.35 33.2136 82.6093 33.3093 82.7531C33.3686 82.8422 33.678 82.8727 33.7923 82.7997C34.5201 82.3355 35.1492 81.7855 35.2791 80.8494C35.2996 80.701 35.3465 80.5533 35.3931 80.4065C35.4592 80.198 35.5248 79.9914 35.5138 79.7868C35.4782 79.122 35.4051 78.4592 35.3321 77.7963L35.3321 77.7963C35.2967 77.4753 35.2613 77.1543 35.2302 76.833L35.2253 76.7829C35.1881 76.3993 35.1507 76.0142 35.1472 75.6296C35.1359 74.3633 35.1293 73.0968 35.1436 71.8306L35.146 71.6237V71.6236C35.1666 69.7892 35.1872 67.9544 35.2472 66.1211C35.2735 65.3186 35.361 64.5173 35.4483 63.7175C35.4616 63.5957 35.4749 63.474 35.488 63.3522C35.5857 62.4431 35.6914 61.5336 35.8336 60.6306C36.0746 59.0997 36.5024 57.6262 37.3074 56.2845C37.4369 56.0685 37.391 55.6965 36.8187 55.7481C36.5269 55.7744 36.0087 55.8759 35.5543 55.9649L35.5541 55.965L35.554 55.965L35.5539 55.965C35.1174 56.0505 34.7399 56.1245 34.6786 56.1091C34.7387 56.0073 35.914 55.4794 36.4515 55.4344C37.7552 55.3254 38.7958 55.968 39.8143 56.6918L40.0703 56.8739C41.3828 57.8089 42.6994 58.7467 44.2457 59.2835C45.3337 59.6612 46.4368 59.9713 47.5963 60.0433C47.8175 60.057 48.0372 60.0923 48.2571 60.1277L48.2571 60.1277L48.2572 60.1277L48.2573 60.1277L48.2573 60.1277L48.2574 60.1277L48.2575 60.1278L48.2575 60.1278L48.2576 60.1278L48.2577 60.1278L48.2577 60.1278L48.2578 60.1278C48.4072 60.1518 48.5567 60.1758 48.7067 60.1931C48.7631 60.1996 48.8227 60.1793 48.8822 60.1591L48.8822 60.1591C48.9097 60.1498 48.9371 60.1404 48.9642 60.1337C48.9522 60.1123 48.9411 60.0902 48.9299 60.068C48.9054 60.0192 48.8809 59.9705 48.8471 59.9293C48.7408 59.7997 48.6308 59.6716 48.5123 59.5534C46.0216 57.0698 44.0786 53.6594 44.0952 53.5239C44.1468 53.558 44.4086 53.8984 44.7298 54.3162C45.1114 54.8126 45.577 55.4181 45.8733 55.7481C47.1275 57.1444 48.4285 58.4999 49.7393 59.8438C51.2383 61.3809 52.1551 63.2175 52.6215 65.2899C52.8606 66.3521 53.047 67.4196 52.9726 68.5267C52.9185 69.3318 52.9085 70.1399 52.8984 70.9479C52.8942 71.2851 52.89 71.6222 52.8827 71.9591L52.8702 72.5201V72.5201V72.5202V72.5202V72.5203V72.5204V72.5204V72.5205V72.5205V72.5206V72.5206V72.5207C52.8506 73.3941 52.8311 74.2674 52.8199 75.1409L52.8197 75.1611C52.8176 75.3983 52.8036 76.9984 52.3593 78.578C52.0083 79.826 51.3358 81.0647 51.0714 81.5515C51.0194 81.6474 50.9831 81.7142 50.9683 81.746C50.7798 82.1517 50.7932 82.4151 51.1568 82.4614C51.465 82.5006 51.8566 82.4571 51.9566 81.964L51.9621 81.9369C51.9883 81.8069 52.0159 81.6695 52.0848 81.5631C52.1251 81.5008 52.1997 81.4607 52.2742 81.4205C52.3073 81.4026 52.3404 81.3848 52.3705 81.365C52.3781 81.3843 52.3613 81.4516 52.3377 81.5456C52.252 81.888 52.0778 82.5836 52.6765 82.5912C53.2838 82.5988 53.2505 82.2525 53.2296 82.0353C53.2262 82.0003 53.2232 81.9687 53.2232 81.9425V81.9366C53.2231 81.7473 53.2231 81.4673 53.3815 81.4414C53.7342 81.3838 53.7506 81.7246 53.7624 81.9701L53.7625 81.9723C53.7654 82.0334 53.7637 82.0945 53.7621 82.1548C53.755 82.4094 53.7484 82.648 54.0933 82.7959C54.4727 82.9588 54.7539 82.8488 54.9986 82.6C55.2572 82.3371 55.1835 82.0512 54.9409 81.8074C54.4449 81.3088 54.4648 80.6527 54.4911 80.0477C54.5442 78.8281 54.6433 77.6104 54.7423 76.3928C54.7688 76.0678 54.7952 75.7428 54.8208 75.4178C54.857 74.9571 54.9004 74.4971 54.9438 74.0371C54.9827 73.6247 55.0217 73.2122 55.0554 72.7994C55.106 72.1803 55.1533 71.5609 55.2006 70.9415C55.2558 70.2188 55.311 69.496 55.3714 68.7737C55.3897 68.5553 55.4197 68.3373 55.4497 68.1195C55.4944 67.7944 55.5391 67.4695 55.5448 67.1437C55.5533 66.6541 55.5309 66.1641 55.5086 65.6741V65.674V65.6739V65.6739V65.6738V65.6738V65.6737V65.6737V65.6736V65.6735V65.6735V65.6734C55.4959 65.3943 55.4832 65.1151 55.4761 64.836C55.4703 64.6049 55.4711 64.3735 55.4719 64.1421C55.473 63.8154 55.4742 63.4888 55.4567 63.163C55.4408 62.8689 55.4312 62.5732 55.4216 62.2773V62.2772V62.2772V62.2771V62.2771V62.2771V62.277V62.277V62.277V62.2769V62.2769V62.2769C55.3945 61.4407 55.3673 60.6032 55.1991 59.7959C55.0742 59.1968 54.6449 58.0722 54.3464 57.2904C54.1756 56.8429 54.0476 56.5078 54.0442 56.4477C54.1677 56.5465 55.0837 58.0185 55.3767 58.6743L55.3824 58.687C55.662 59.3129 55.6765 59.3455 56.2863 59.08C57.468 58.5655 58.6953 58.2221 59.9744 58.0692C60.0625 58.0587 60.1528 58.0675 60.2433 58.0764L60.2434 58.0764C60.3213 58.084 60.3994 58.0917 60.4764 58.0869C60.5607 58.0818 60.6437 58.0556 60.7267 58.0295C60.7637 58.0178 60.8007 58.0062 60.8378 57.9964C60.8122 57.9647 60.7884 57.9301 60.7646 57.8956C60.7129 57.8204 60.6612 57.7451 60.5904 57.6995C60.3801 57.5641 60.1651 57.4359 59.9501 57.3077L59.9499 57.3076L59.9499 57.3076L59.9498 57.3075L59.9497 57.3075L59.9496 57.3074L59.9496 57.3074L59.9495 57.3073L59.9494 57.3073L59.9493 57.3072L59.9493 57.3072L59.9492 57.3071C59.7362 57.1801 59.5231 57.0532 59.3147 56.919C58.8892 56.6452 58.6273 56.4615 58.2717 56.2121L58.2716 56.212L58.2715 56.212C58.1867 56.1525 58.0966 56.0893 57.9976 56.0202C57.9296 55.9727 57.6681 55.703 57.6266 55.6176C57.7157 55.5904 60.4203 56.4944 61.2922 57.5861C62.0501 58.5351 62.7628 59.5224 63.4583 60.5187C64.3288 61.7657 65.171 63.0329 66.0075 64.3033L66.2044 64.6023C66.8925 65.6464 67.5811 66.6913 68.2194 67.7655L68.2896 67.8836C68.8511 68.8281 69.4197 69.7845 69.8173 70.8008C70.3753 72.2269 70.8464 73.694 70.8747 75.2665C70.8823 75.6915 70.9451 76.1151 71.0081 76.539C71.0597 76.8873 71.1115 77.2358 71.1326 77.5857C71.1829 78.4162 70.9926 79.2154 70.6959 79.9986C70.6387 80.1498 70.7133 80.355 70.7841 80.5498C70.8053 80.6082 70.8262 80.6656 70.8431 80.7204C70.8538 80.7551 71.0206 80.764 71.1087 80.7484C71.423 80.6925 71.4894 80.4742 71.5234 80.1809C71.5515 79.9385 71.6533 79.702 71.7525 79.4715L71.7525 79.4714L71.7898 79.3843C71.8137 79.3282 71.9738 79.2709 72.023 79.2989C72.0895 79.3368 72.1406 79.4554 72.1433 79.5411C72.1461 79.6283 72.137 79.717 72.1279 79.8054C72.1143 79.9375 72.1009 80.0686 72.1274 80.192C72.1718 80.3988 72.292 80.6031 72.4271 80.7695C72.4756 80.8292 72.7616 80.8045 72.7726 80.768C72.8161 80.6241 72.8262 80.4699 72.8362 80.3162V80.3162C72.8389 80.2754 72.8415 80.2347 72.8448 80.1942C72.8466 80.1716 72.8419 80.1485 72.8372 80.1253C72.8323 80.1008 72.8273 80.0763 72.8302 80.0527C72.8524 79.8701 72.8776 79.6879 72.9028 79.5056L72.9288 79.3163L73.0421 79.4504L73.0424 79.4508C73.1753 79.6079 73.3082 79.765 73.4386 79.9241C73.4471 79.9345 73.4468 79.9525 73.4465 79.9703C73.4462 79.9884 73.4459 80.0062 73.4549 80.015C73.4965 80.0556 73.537 80.0989 73.5775 80.1424L73.5778 80.1427L73.578 80.1429C73.6945 80.2678 73.8117 80.3933 73.9557 80.4548C74.0293 80.4862 74.3147 80.2591 74.3339 80.1255C74.3641 79.915 74.323 79.6136 74.1863 79.4734C73.5535 78.8246 73.137 78.0544 72.9433 77.1938C72.8459 76.761 72.8091 76.3151 72.7723 75.8686C72.7487 75.5822 72.7251 75.2956 72.6855 75.0121L72.6312 74.6233C72.4418 73.2663 72.2523 71.9089 72.0195 70.5591C71.8459 69.5529 71.6455 68.5513 71.4451 67.5497L71.4451 67.5496L71.4451 67.5495L71.4451 67.5494L71.4451 67.5494L71.4451 67.5493L71.445 67.5492L71.445 67.5491L71.445 67.549L71.445 67.549L71.445 67.5489L71.445 67.5488C71.344 67.0441 71.243 66.5394 71.1455 66.0341C71.1317 65.9625 71.1427 65.8845 71.1534 65.8095L71.157 65.7833C71.358 64.3186 71.0805 62.8915 70.7431 61.4865L70.6841 61.2409L70.6841 61.2407C70.2537 59.4472 69.8217 57.6465 69.2246 55.9059C68.8679 54.8662 68.386 53.8693 67.9041 52.8725L67.904 52.8723C67.6932 52.4362 67.4824 52.0002 67.2821 51.5605C67.207 51.3955 67.1336 51.2297 67.0602 51.0638L67.0598 51.0628C66.8749 50.6447 66.6899 50.2265 66.4765 49.8234L66.4127 49.7028C65.9336 48.7976 65.4533 47.89 64.9079 47.0247C64.2288 45.9472 63.4066 44.9611 62.3257 44.2726C61.4522 43.7162 60.5132 43.2475 59.5642 42.8286C58.516 42.3659 57.4478 41.9481 56.3798 41.5303L56.3787 41.5299C56.0576 41.4043 55.7365 41.2786 55.4159 41.1518C55.2005 41.0666 54.9814 40.9906 54.7624 40.9147L54.7623 40.9146L54.7623 40.9146L54.7622 40.9146L54.7621 40.9146L54.7621 40.9145L54.762 40.9145L54.7619 40.9145L54.7619 40.9145L54.7618 40.9144L54.7617 40.9144L54.7617 40.9144C54.5095 40.8269 54.2573 40.7395 54.0109 40.638C53.936 40.6071 53.884 40.5205 53.8321 40.4338C53.8082 40.394 53.7843 40.3541 53.7582 40.3197C53.7963 40.319 53.8352 40.3154 53.874 40.3119C53.9575 40.3042 54.0409 40.2966 54.117 40.3167C56.1748 40.8605 58.1186 41.6999 60.0643 42.5402L60.0643 42.5402L60.0643 42.5402L60.0644 42.5402L60.0644 42.5402L60.0644 42.5402L60.0644 42.5402L60.0644 42.5402L60.0644 42.5402L60.0645 42.5402L60.0645 42.5402L60.0645 42.5402C60.3636 42.6694 60.6628 42.7986 60.9624 42.9267C62.4735 43.573 63.759 44.4896 64.7462 45.7853C65.3629 46.5946 65.958 47.4454 66.3986 48.357C66.884 49.3615 67.7119 49.9075 68.6289 50.3331C69.704 50.832 70.8397 51.2308 72.0597 51.1271C72.7473 51.0686 73.4309 50.9546 74.1131 50.8407L74.3602 50.7996C75.1646 50.6663 76.1897 51.1327 76.016 52.008C75.9065 52.5596 75.5031 52.8329 75.0378 52.9574C74.8667 53.0032 74.6956 53.0512 74.5242 53.0993L74.524 53.0994L74.5237 53.0994L74.5235 53.0995L74.5232 53.0996L74.523 53.0997L74.5228 53.0997L74.5225 53.0998L74.5223 53.0999L74.522 53.0999L74.5218 53.1C73.4661 53.3961 72.402 53.6946 71.2886 53.5021C70.7458 53.4083 70.2132 53.2557 69.6805 53.1031C69.4226 53.0293 69.1648 52.9554 68.9057 52.8882C68.8337 52.8695 68.7585 52.8631 68.6833 52.8567C68.6485 52.8538 68.6137 52.8508 68.5792 52.8466C68.5888 52.8736 68.5976 52.9009 68.6064 52.9282C68.6253 52.9868 68.6442 53.0455 68.6707 53.1004C69.6769 55.1833 70.4292 57.3505 70.8779 59.6234C70.9679 60.0793 71.0731 60.5324 71.1783 60.9854L71.1783 60.9855L71.1783 60.9857L71.1784 60.9859L71.1784 60.986L71.1784 60.9862L71.1785 60.9864L71.1785 60.9866L71.1785 60.9867L71.1786 60.9869L71.1786 60.9871L71.1786 60.9873C71.3101 61.5536 71.4415 62.12 71.5434 62.6917C71.6313 63.1851 71.6761 63.686 71.7209 64.1872L71.721 64.1873L71.721 64.1874L71.721 64.1875L71.721 64.1876L71.721 64.1877L71.721 64.1878L71.721 64.1879L71.721 64.188L71.721 64.1881L71.7211 64.1882L71.7211 64.1883C71.7459 64.466 71.7707 64.7437 71.8029 65.0202C71.8196 65.1635 71.8359 65.3068 71.8522 65.4502C71.9237 66.0797 71.9953 66.7096 72.1003 67.3336C72.2194 68.0417 72.3486 68.7483 72.4777 69.4548C72.6651 70.4802 72.8525 71.5055 73.0093 72.5356C73.1106 73.2008 73.1666 73.8727 73.2226 74.5448L73.2226 74.5449L73.2226 74.545L73.2226 74.545L73.2226 74.5451L73.2226 74.5452L73.2227 74.5453L73.2227 74.5454L73.2227 74.5454L73.2227 74.5455L73.2227 74.5456L73.2227 74.5457C73.261 75.0049 73.2993 75.4642 73.352 75.9215C73.4932 77.1465 73.7581 78.3279 74.6758 79.2538C75.0144 79.5954 75.0557 80.1952 74.8167 80.6004C74.5545 81.0449 74.1413 81.1964 73.5755 81.0674C73.4626 81.0416 73.323 81.0106 73.2273 81.0531C72.7372 81.2709 72.2671 81.4453 71.8027 80.9844C71.7651 80.947 71.544 81.0617 71.4306 81.1388C70.6769 81.6511 70.0314 81.1442 69.9986 80.3578C69.9868 80.0743 70.0455 79.7716 70.1418 79.5026C70.5297 78.4204 70.5217 77.3136 70.4104 76.1936C70.3846 75.935 70.3668 75.6752 70.349 75.4154L70.349 75.4153L70.349 75.4153L70.349 75.4152L70.349 75.4151L70.349 75.415L70.349 75.4149L70.349 75.4149L70.3489 75.4148L70.3489 75.4147L70.3489 75.4146L70.3489 75.4145C70.3174 74.9544 70.2859 74.4945 70.2103 74.0417C69.8874 72.1082 69.1632 70.3176 68.1142 68.6674C66.6692 66.3943 65.2046 64.1334 63.7271 61.8812C63.4133 61.4029 63.0773 60.9393 62.7413 60.4756C62.4716 60.1035 62.2019 59.7313 61.9436 59.3514C61.5632 58.7921 61.0113 58.8486 60.5049 58.9004C60.4222 58.9088 60.3408 58.9172 60.2615 58.9227C59.3396 58.9868 58.4808 59.3029 57.6215 59.6193L57.6215 59.6193C57.2227 59.7661 56.8239 59.9129 56.4187 60.0346C55.8571 60.2032 55.9043 60.5291 55.9534 60.868C55.9634 60.937 55.9734 61.0066 55.9785 61.0755C56.0004 61.3762 56.0332 61.6762 56.066 61.9762L56.066 61.9762C56.1061 62.3434 56.1462 62.7105 56.1664 63.0788L56.1851 63.4197C56.2565 64.7151 56.3279 66.0114 56.3391 67.3078C56.3432 67.7771 56.2852 68.2466 56.2271 68.7165C56.1932 68.9912 56.1593 69.2659 56.1377 69.5409C56.0846 70.2172 56.0364 70.8938 55.9882 71.5704L55.9881 71.5706L55.9881 71.5708C55.9228 72.4878 55.8574 73.4047 55.78 74.3207C55.7512 74.6619 55.7249 75.0038 55.6987 75.3458L55.6987 75.3459L55.6987 75.3461L55.6987 75.3462L55.6987 75.3463L55.6987 75.3464L55.6987 75.3466L55.6987 75.3467L55.6986 75.3468L55.6986 75.3469L55.6986 75.3471L55.6986 75.3472C55.6074 76.5369 55.5161 77.7277 55.3137 78.8986C55.1239 79.9959 55.3304 80.9592 55.7277 81.9425C55.9542 82.5029 55.402 83.2847 54.7543 83.2912C54.6937 83.2918 54.6303 83.2961 54.5657 83.3005L54.5655 83.3005C54.2371 83.3227 53.8784 83.3469 53.709 82.9021C53.695 82.8652 53.4595 82.8472 53.4214 82.8953C53.2164 83.1537 52.9644 83.1261 52.7132 83.0985H52.7132H52.7131H52.713H52.7129H52.7129H52.7128H52.7127H52.7126H52.7126H52.7125H52.7124C52.6225 83.0887 52.5327 83.0788 52.4452 83.0822C52.3569 83.0856 52.2679 83.0834 52.1789 83.0812H52.1786H52.1784H52.1781H52.1779H52.1776H52.1774H52.1771H52.1769H52.1766H52.1764H52.1761C52.0131 83.0771 51.8504 83.0731 51.6938 83.1029C51.2039 83.1958 50.7874 83.0456 50.4889 82.6934C50.1974 82.3493 50.2774 81.9407 50.5396 81.5464C50.6288 81.3785 50.7183 81.2122 50.8072 81.047C51.14 80.4284 51.4652 79.8239 51.7454 79.1992ZM75.5103 51.9718C75.4765 51.9228 75.4455 51.8645 75.4145 51.8062C75.3462 51.6779 75.2779 51.5495 75.18 51.5202C74.8496 51.4212 74.472 51.3361 74.1436 51.3999C72.8196 51.6571 71.5068 51.9076 70.1784 51.4409C70.067 51.4018 69.9552 51.3635 69.8434 51.3252L69.8434 51.3252L69.8434 51.3252L69.8433 51.3252L69.8433 51.3252L69.8433 51.3251L69.8432 51.3251L69.8432 51.3251L69.8432 51.3251C68.9603 51.0228 68.078 50.7207 67.4094 50.0038C67.3833 49.9759 67.3398 49.9643 67.2962 49.9526C67.276 49.9472 67.2557 49.9418 67.2372 49.9347C67.2353 49.9641 67.2297 49.9952 67.2242 50.0264C67.2122 50.0937 67.2003 50.1609 67.2248 50.21C67.4843 50.7283 67.7487 51.2449 68.037 51.7474C68.1114 51.8771 68.2608 52.0002 68.4023 52.0488C68.6035 52.1178 68.8042 52.1894 69.0051 52.2609C69.6609 52.4946 70.3178 52.7286 70.9929 52.8772C72.0688 53.1141 73.1595 52.9153 74.2066 52.6383C74.2916 52.6158 74.3816 52.5983 74.4737 52.5804C74.85 52.5071 75.2606 52.4271 75.5103 51.9718ZM35.8461 32.8757C35.1289 33.2309 34.3964 33.4212 33.6446 33.2646C33.4049 33.2147 33.1156 32.9053 33.0408 32.6568C32.8513 32.0278 32.7316 31.3767 32.6123 30.7277L32.6123 30.7277L32.5711 30.5043C32.4685 29.9512 32.8031 29.6082 33.2647 29.4661C34.2563 29.161 35.2658 29.0098 36.246 29.5419C37.3849 30.1601 37.2633 31.8339 36.5348 32.353C36.3584 32.4788 36.187 32.6117 36.002 32.755C35.9512 32.7944 35.8994 32.8346 35.8461 32.8757ZM36.0153 30.2348L36.0153 30.2348C35.9849 30.1919 35.9545 30.149 35.9225 30.1478C35.7811 30.1422 35.6391 30.1509 35.497 30.1597C35.4449 30.1629 35.3928 30.1662 35.3407 30.1687C35.361 30.2095 35.3821 30.2499 35.4033 30.2904C35.4504 30.3807 35.4976 30.4711 35.5358 30.5651C35.5971 30.7164 35.6512 30.8706 35.7053 31.0248L35.7054 31.0249C35.723 31.0752 35.7406 31.1255 35.7585 31.1756C35.78 31.2358 35.7999 31.2966 35.8198 31.3574L35.8198 31.3574L35.8198 31.3576C35.8288 31.385 35.8378 31.4124 35.8469 31.4398C35.8739 31.4254 35.9023 31.4126 35.9308 31.3997C35.9925 31.3719 36.0543 31.3441 36.1006 31.3001C36.4299 30.9867 36.3007 30.6632 36.0573 30.29C36.0432 30.2743 36.0292 30.2546 36.0153 30.2348ZM50.1029 64.2441L50.0777 63.8997C50.0624 63.8421 50.0415 63.8006 50.0236 63.7652C50.0089 63.736 49.9963 63.7109 49.9906 63.6843C49.9472 63.4827 49.906 63.2806 49.8649 63.0784L49.8649 63.0783L49.8649 63.0782L49.8648 63.0781L49.8648 63.078L49.8648 63.0779L49.8648 63.0778L49.8648 63.0777L49.8647 63.0776C49.775 62.6364 49.6852 62.1952 49.5718 61.7602C49.5655 61.7361 49.5608 61.7069 49.5557 61.6755C49.5294 61.5133 49.4934 61.2917 49.1815 61.3953C48.8618 61.5015 48.8902 61.6563 48.9416 61.9369L48.9492 61.979C49.143 63.0528 49.2786 64.1386 49.3967 65.2242C49.4871 66.0549 49.5325 66.8915 49.571 67.7268C49.5851 68.0311 49.605 68.3363 49.6249 68.6415C49.6814 69.5084 49.7381 70.3764 49.6606 71.2315C49.5643 72.2928 48.9114 73.1351 47.9721 73.6995C47.0798 74.2357 46.2303 74.7996 45.8768 75.8675C45.6586 76.5268 45.8714 76.9951 46.4813 77.0128C46.5938 77.0161 46.708 76.9636 46.8221 76.9111C46.8745 76.887 46.9269 76.8629 46.9791 76.8442C46.9397 76.8006 46.9028 76.7504 46.8658 76.7002C46.7839 76.5889 46.7019 76.4776 46.5939 76.4385C46.3023 76.333 46.2814 76.2619 46.3984 75.9575C46.6395 75.33 47.0088 74.8564 47.5878 74.5219C48.5104 73.9889 49.3241 73.3167 49.8263 72.3648C50.4415 71.1989 50.7295 69.9521 50.5403 68.6179C50.4265 67.8155 50.3425 67.0084 50.2624 66.2017C50.1987 65.5608 50.152 64.9182 50.1029 64.2445L50.1029 64.2444L50.1029 64.2444L50.1029 64.2442L50.1029 64.2441ZM53.8581 45.6437C53.5735 44.0184 53.2966 42.4415 52.9956 40.8692C52.7909 39.7999 52.039 39.1441 51.2048 38.5395C51.1066 38.4683 51.0073 38.3974 50.9078 38.3264C50.3424 37.9227 49.7691 37.5133 49.3226 37.0007C48.5464 36.1095 47.2552 33.9809 47.3182 32.8704C47.3602 32.1304 47.6196 31.2694 47.6196 31.2694C47.6196 31.2694 47.4943 32.8002 47.6196 33.2673C48.0608 34.9123 49.2657 36.2159 50.3768 37.0892C50.6324 37.2902 50.897 37.4816 51.1615 37.673L51.1616 37.6731C51.6828 38.0501 52.2035 38.4268 52.6538 38.875C53.0901 39.3092 53.4414 39.8796 53.5324 40.5736C53.5844 40.9707 53.6486 41.3636 53.7129 41.758L53.7129 41.758L53.7129 41.7581L53.7129 41.7581L53.713 41.7582L53.713 41.7582L53.713 41.7582L53.713 41.7583C53.843 42.5547 53.9739 43.3567 54.0077 44.2092C54.0465 45.1875 54.5739 46.6113 54.8252 47.2897C54.9057 47.5069 54.9578 47.6477 54.9566 47.673C54.8654 47.6389 54.1909 46.4629 53.9453 45.9088C53.9139 45.8378 53.8854 45.7656 53.8581 45.6437ZM45.6295 24.0153C44.5973 23.5167 43.5533 23.0425 42.4626 22.5583C41.9439 22.4302 41.4538 22.3026 40.9704 22.1768C40.8098 22.135 40.6499 22.0933 40.49 22.052C39.3514 21.7573 38.2034 21.7892 37.0837 22.0903C36.5709 22.2282 36.081 22.4541 35.5927 22.6794L35.5927 22.6794C35.4444 22.7478 35.2962 22.8161 35.1475 22.8819C35.0984 22.9037 35.0766 22.9871 35.0547 23.0705C35.0446 23.1092 35.0345 23.1479 35.0216 23.1804C35.0558 23.1875 35.09 23.1966 35.1243 23.2057C35.204 23.2268 35.2836 23.248 35.3615 23.2429C35.414 23.2394 35.4637 23.2081 35.5143 23.1763C35.5464 23.1561 35.5788 23.1357 35.6125 23.1221C36.5812 22.7308 37.5893 22.4934 38.6316 22.4645C40.2644 22.4194 41.8133 22.8239 43.3084 23.4486C43.6557 23.5938 43.999 23.7486 44.3422 23.9034C44.6912 24.0609 45.0402 24.2183 45.3935 24.3656C45.4937 24.4073 45.6131 24.4031 45.7325 24.3988C45.7875 24.3969 45.8425 24.3949 45.8957 24.3975C45.8681 24.3561 45.8435 24.3085 45.8189 24.261L45.8189 24.2609C45.7658 24.1582 45.7127 24.0555 45.6295 24.0153ZM39.9919 27.3701C39.8894 27.0057 40.2902 27.0005 40.6313 27.0418C41.3317 27.1266 42.0389 27.1543 42.7463 27.1821H42.7463L42.7464 27.1821L42.7464 27.1821L42.7465 27.1821L42.7466 27.1821L42.7467 27.1821C43.0372 27.1935 43.3277 27.2049 43.6177 27.2203C43.6845 27.2238 43.7786 27.2198 43.8745 27.2158C44.0863 27.2069 44.3066 27.1977 44.2597 27.2679C43.2412 28.7914 40.3914 28.7914 39.9919 27.3701ZM33.6654 34.0611C33.5086 34.9741 33.7266 35.5592 34.7258 35.7869C35.0816 35.8679 35.5225 35.6465 35.7711 35.5079C36.1569 35.2928 36.529 35.0534 36.9012 34.8139L36.9013 34.8138L36.9013 34.8138L36.9013 34.8138L36.9016 34.8137L36.9018 34.8135L36.9021 34.8134L36.9023 34.8132C37.0268 34.7331 37.1513 34.653 37.2763 34.5737C37.2644 34.6908 37.6058 35.4845 37.8349 35.6272C37.9933 35.5132 38.0568 35.3999 38.1238 35.2805L38.1238 35.2804C38.1451 35.2424 38.1668 35.2037 38.192 35.1642C38.2295 35.1054 38.2455 35.0332 38.2616 34.9607C38.2698 34.9237 38.278 34.8866 38.2891 34.8512C38.3261 34.7334 38.337 34.6029 38.3478 34.4723C38.3759 34.1351 38.404 33.7974 38.8815 33.6776C38.9015 33.6726 38.9261 33.6694 38.9526 33.666H38.9526C39.0708 33.6508 39.2257 33.6309 39.1649 33.4224C39.0905 33.1673 38.8812 33.2352 38.7859 33.2699C38.3785 33.418 37.9801 33.5984 37.5944 33.7979C37.1414 34.0323 36.6918 34.2733 36.2422 34.5144C35.8229 34.7392 35.4035 34.964 34.9814 35.1834C34.5609 35.402 34.2443 35.1233 33.9703 34.7805C33.7712 34.5312 33.818 34.0768 33.8461 33.8041C33.8568 33.6994 33.8649 33.6215 33.8552 33.5923C33.7561 33.6905 33.6846 33.9493 33.6654 34.0611ZM37.2983 34.5599L37.2763 34.5737C37.2769 34.5679 37.2784 34.5638 37.2808 34.5615C37.2846 34.5578 37.2905 34.5574 37.2983 34.5599ZM37.2983 34.5599C37.3953 34.4985 37.4926 34.4377 37.5906 34.378C37.6846 34.3206 37.794 34.2885 37.9034 34.2564C37.9538 34.2416 38.0042 34.2268 38.053 34.2096C38.0264 34.2847 38.0097 34.3916 37.9917 34.5057C37.9611 34.701 37.9271 34.9173 37.8349 35.0306C37.8158 35.0542 37.6984 34.9343 37.5761 34.8095L37.5761 34.8095L37.576 34.8094C37.4631 34.6941 37.346 34.5746 37.2983 34.5599ZM51.6253 72.855C51.63 72.765 51.6329 72.6791 51.6356 72.5965C51.6421 72.4026 51.648 72.2261 51.6758 72.0531C51.6876 71.9803 51.7431 71.9146 51.7987 71.8489C51.8239 71.819 51.8492 71.7891 51.8703 71.7586C51.8916 71.7889 51.919 71.8194 51.9464 71.8499C52.0054 71.9155 52.0644 71.9811 52.0619 72.0443C52.0076 73.4172 51.9401 74.81 51.2857 76.0422C51.0298 76.524 50.4892 76.8964 50.0022 77.1944C49.7912 77.3235 49.3107 77.2408 49.0899 77.0732C48.7335 76.803 48.7016 76.325 48.92 75.9337C49.0725 75.6606 49.3358 75.4366 49.5875 75.2388C49.6446 75.194 49.7573 75.2201 49.8701 75.2461C49.9216 75.258 49.9732 75.27 50.0194 75.2751C49.9984 75.3071 49.9783 75.3399 49.9582 75.3727C49.9137 75.4453 49.8692 75.5179 49.815 75.5822C49.7612 75.6459 49.7007 75.7057 49.6404 75.7654C49.527 75.8776 49.4142 75.9891 49.3483 76.1243C49.2774 76.2698 49.2802 76.565 49.3763 76.6491C49.4943 76.7524 49.7815 76.7829 49.9304 76.7105C50.8555 76.261 51.1677 75.4038 51.3389 74.4681C51.4342 73.9473 51.5281 73.4262 51.6253 72.855ZM33.6616 28.049C34.4437 28.1441 35.8802 27.1465 35.8802 26.9315C35.8802 26.7165 33.9309 26.4949 33.153 26.42C32.7958 26.3856 32.5855 26.4896 32.5567 26.8495C32.5154 27.3662 33.0909 27.9796 33.6616 28.049ZM47.9953 77.1776C47.1101 76.6093 47.2862 76.0352 48.1334 75.1904C48.2317 75.0923 48.3629 74.9953 48.493 74.9696C48.5883 74.9508 48.6918 74.9738 48.7954 74.9968C48.8406 75.0069 48.8858 75.0169 48.9304 75.0235C48.9118 75.0522 48.8941 75.0816 48.8765 75.1111C48.8379 75.1755 48.7992 75.2398 48.7513 75.2962C48.513 75.5769 48.2728 75.8562 48.0237 76.1273C47.7531 76.4219 47.9746 76.5432 48.2031 76.6597C48.2327 76.6748 48.2702 76.6801 48.3066 76.6853C48.3542 76.6921 48.4 76.6986 48.4241 76.7262C48.4957 76.8084 48.5526 76.9034 48.6094 76.9985C48.6324 77.0369 48.6554 77.0754 48.6794 77.113C48.6432 77.1237 48.6072 77.1356 48.5712 77.1475C48.4877 77.175 48.4041 77.2026 48.3183 77.2157C48.2215 77.2306 48.1191 77.2093 47.9953 77.1776ZM32.4965 81.1149C32.294 81.1329 32.0915 81.1509 31.8626 81.1927C31.7422 81.2914 31.6164 81.3825 31.4926 81.4722C31.212 81.6756 30.9413 81.8717 30.7653 82.1319C30.6004 82.3758 30.6315 82.8483 30.7485 83.1514C30.8121 83.3161 31.1226 83.4046 31.376 83.4768C31.4103 83.4865 31.4435 83.496 31.4749 83.5053C31.6104 83.5455 31.799 83.4999 31.9314 83.431C32.0275 83.381 32.1049 83.2949 32.1824 83.2089C32.2162 83.1712 32.25 83.1336 32.2854 83.099C32.2398 83.0814 32.1879 83.0549 32.1361 83.0284C32.0235 82.9707 31.9108 82.9131 31.8623 82.9471C31.6017 83.1295 31.5146 82.9512 31.4449 82.8085C31.4257 82.7691 31.4077 82.7324 31.3878 82.7068C31.3197 82.6191 31.3624 82.3588 31.4499 82.2539C31.5641 82.117 31.701 81.9994 31.8382 81.8817C31.9407 81.7936 32.0434 81.7054 32.137 81.6088C32.2339 81.5088 32.312 81.3905 32.3902 81.2722C32.4252 81.2192 32.4602 81.1662 32.497 81.1148L32.4965 81.1149Z" fill="#333333"/>
<path fill-rule="evenodd" clip-rule="evenodd" d="M11.127 30.9554C9.9135 31.1554 9.13098 32.4496 9.37919 33.846C9.52465 34.6644 9.99188 35.3962 10.598 35.882L10.7661 38.6277C10.7825 38.8915 11.0623 39.1237 11.2353 39.0151L12.3161 38.2839L13.6992 39.4164C13.9207 39.6061 14.1341 39.4299 14.0572 39.1189L13.2683 35.9687C13.7104 35.4421 13.9192 34.5795 13.7737 33.6045C13.5255 31.9414 12.3405 30.7553 11.127 30.9554ZM12.0259 36.4951C12.3157 36.5111 12.5809 36.4539 12.8134 36.3345L13.337 38.3802L12.3438 37.5971C12.2461 37.5226 12.1375 37.5122 12.0612 37.5694L11.285 38.1246L11.1734 36.2572C11.4477 36.3948 11.736 36.4792 12.0259 36.4951ZM11.2393 31.6478C12.1494 31.5228 13.0381 32.4123 13.2243 33.6347C13.4104 34.857 12.8235 35.8276 11.9134 35.8027C11.5932 35.7939 11.2756 35.6733 10.9904 35.4752C10.9753 35.4625 10.9595 35.4513 10.943 35.4416C10.44 35.0833 10.0454 34.4898 9.9284 33.8158C9.74224 32.7435 10.3291 31.7728 11.2393 31.6478Z" fill="#F2994A"/>
<path fill-rule="evenodd" clip-rule="evenodd" d="M86.0129 52.2886C87.2264 52.4886 88.0089 53.7828 87.7607 55.1793C87.6152 55.9977 87.148 56.7294 86.5419 57.2153L86.3737 59.9609C86.3574 60.2247 86.0776 60.457 85.9046 60.3484L84.8238 59.6172L83.4407 60.7496C83.2192 60.9394 83.0057 60.7632 83.0827 60.4521L83.8716 57.302C83.4294 56.7753 83.2207 55.9127 83.3662 54.9378C83.6144 53.2747 84.7994 52.0886 86.0129 52.2886ZM85.114 57.8284C84.8242 57.8443 84.559 57.7872 84.3266 57.6677L83.8029 59.7135L84.7962 58.9303C84.8938 58.8559 85.0025 58.8455 85.0788 58.9026L85.855 59.4578L85.9666 57.5904C85.6923 57.7281 85.404 57.8125 85.114 57.8284ZM85.9006 52.9811C84.9905 52.8561 84.1017 53.7456 83.9156 54.9679C83.7294 56.1903 84.3163 57.1609 85.2265 57.1359C85.5467 57.1271 85.8642 57.0066 86.1495 56.8085C86.1645 56.7958 86.1804 56.7845 86.1968 56.7749C86.6999 56.4165 87.0944 55.8231 87.2114 55.1491C87.3976 54.0767 86.8107 53.1061 85.9006 52.9811Z" fill="#F2994A"/>
</svg>
