<svg width="100" height="100" viewBox="0 0 100 100" fill="none" xmlns="http://www.w3.org/2000/svg">
<path fill-rule="evenodd" clip-rule="evenodd" d="M9.57452 44.4062C12.0226 29.0276 57.5806 9.67125 81.5426 21.8292C105.505 33.9873 74.4296 44.9906 76.7157 70.2931C78.3017 87.8464 51.4501 89.0239 30.1225 79.6749C17.1983 74.0095 7.78697 55.6353 9.57452 44.4062Z" fill="#C0F0FF"/>
<path fill-rule="evenodd" clip-rule="evenodd" d="M72.3338 11.8663C72.8029 11.8621 73.1113 12.0737 73.2218 12.5163C73.2769 12.7368 73.248 12.9794 73.2497 13.212C73.2539 13.8099 73.2608 14.408 73.2531 15.0058C73.2484 15.3782 73.2188 15.7503 73.2012 16.1225C73.1979 16.1933 73.1971 16.2643 73.1971 16.3353C73.1968 17.1157 73.203 17.8962 73.1955 18.6766C73.1825 20.0452 73.1623 21.4139 73.1429 22.7825C73.1268 23.9188 73.1074 25.0551 73.0897 26.1914C73.0717 27.3456 73.054 28.4998 73.036 29.654C73.0183 30.7903 73.0028 31.9267 72.9815 33.0629C72.9688 33.7347 72.9421 34.4062 72.9304 35.078C72.9222 35.5456 72.9338 36.0135 72.9278 36.4811C72.913 37.6353 72.8957 38.7895 72.8742 39.9437C72.8619 40.6065 72.8347 41.2691 72.8232 41.9319C72.8149 42.4084 72.8283 42.8853 72.82 43.3618C72.8086 44.0157 72.7806 44.6694 72.7697 45.3233C72.7612 45.8266 72.7748 46.3303 72.7662 46.8336C72.7559 47.4339 72.7267 48.0339 72.7161 48.6342C72.7075 49.1196 72.7194 49.6054 72.7133 50.0909C72.6986 51.2719 72.6796 52.4529 72.6604 53.6339C72.644 54.6451 72.6268 55.6564 72.6065 56.6675C72.5918 57.4018 72.5662 58.1359 72.5552 58.8703C72.5468 59.4361 72.5605 60.0023 72.5516 60.5682C72.5424 61.1507 72.5111 61.7328 72.5018 62.3152C72.4929 62.8722 72.5069 63.4294 72.4979 63.9863C72.4894 64.5152 72.4567 65.0437 72.4483 65.5726C72.4393 66.1384 72.4519 66.7046 72.4451 67.2705C72.4311 68.4426 72.4114 69.6146 72.3924 70.7867C72.3758 71.8158 72.3762 72.8457 72.3336 73.8737C72.2926 74.8624 72.5204 75.7793 73.012 76.6234C73.5128 77.4832 74.0495 78.3225 74.5817 79.1636C75.1079 79.9951 75.5697 80.8607 75.8142 81.815C75.9889 82.4964 76.0145 83.2037 75.8185 83.8935C75.7514 84.1293 75.343 85.7563 75.6905 86.1789C76.1366 86.7216 76.7005 86.9651 77.3951 86.9809C78.0721 86.9964 78.7149 86.8317 79.3638 86.6814C80.1527 86.4988 80.9447 86.3669 81.7391 86.6552C82.1343 86.7986 82.4907 87.0011 82.7244 87.367C82.76 87.4227 82.8464 87.5163 82.6577 87.5173C82.2004 87.5198 81.7432 87.5481 81.286 87.5659C80.3715 87.6017 79.4571 87.6384 78.5425 87.6728C78.0139 87.6927 77.4851 87.7097 76.9564 87.7266C76.3652 87.7454 75.7739 87.7637 75.1826 87.7801C74.4931 87.7992 73.8035 87.8178 73.1139 87.8336C72.2547 87.8532 71.3953 87.8713 70.536 87.8872C69.4801 87.9068 68.4242 87.9256 67.3683 87.9407C65.9639 87.9608 64.5595 87.9749 63.1552 87.9956C62.1975 88.0097 61.2399 88.031 60.2823 88.048C60.1185 88.051 59.9545 88.0472 59.7906 88.0487C57.8144 88.0662 55.8381 88.0843 53.8619 88.1019C53.6891 88.1034 53.5162 88.1008 53.3434 88.1023C51.3225 88.1198 49.3016 88.1379 47.2806 88.1555C47.0989 88.1571 46.9171 88.1543 46.7353 88.1559C44.7323 88.1734 42.7292 88.1915 40.7262 88.2091C40.5534 88.2106 40.3805 88.208 40.2077 88.2095C38.1868 88.2271 36.1659 88.2451 34.145 88.2627C33.9811 88.2636 18.0838 88.2617 17.9199 88.2636C17.6606 88.2657 16.5538 86.2733 18.0639 81.815C18.3992 80.825 19.5778 79.014 21.5997 76.3819C21.3244 34.1659 21.3244 13.0531 21.5997 13.0434C22.0481 13.0276 22.4963 13.007 22.9446 12.9904C23.9306 12.9539 34.2499 12.9198 35.2358 12.8824C35.6127 12.8681 35.9893 12.843 36.3663 12.8303C37.0021 12.8089 37.6382 12.7954 38.2741 12.7751C38.7403 12.7603 39.2064 12.7387 39.6726 12.7225C40.2281 12.7031 40.7837 12.6879 41.3391 12.668C41.7697 12.6526 42.1999 12.6289 42.6305 12.6158C43.3199 12.5946 44.0096 12.5806 44.6991 12.5608C45.2368 12.5453 45.7744 12.5247 46.3121 12.5079C46.9122 12.4891 47.5124 12.4719 48.1126 12.4541C48.7128 12.4362 49.313 12.4179 49.9132 12.4006C50.5492 12.3822 51.1851 12.365 51.8211 12.3467C52.4333 12.3292 53.0454 12.3102 53.6577 12.2934C54.3472 12.2746 55.0368 12.2576 55.7263 12.2396C56.4069 12.2218 57.0875 12.2035 57.7682 12.1861C58.4845 12.1678 59.2009 12.1504 59.9172 12.1323C60.6157 12.1147 61.3144 12.1029 62.0126 12.0767C62.5456 12.0568 63.0777 12.0163 63.6104 11.9904C63.6893 11.9866 63.7698 12.0245 63.8493 12.0234C64.9499 12.0081 66.0505 11.9911 67.151 11.971C67.9747 11.9559 68.7982 11.9351 69.6218 11.9181C70.5258 11.8994 71.4297 11.876 72.3338 11.8663ZM25.6259 59.5515C25.0461 61.6196 26.025 67.5848 25.3081 70.1953C25.3081 70.4317 29.1231 70.3566 36.753 69.97C37.5485 68.1194 37.829 66.5217 37.5947 65.1769C37.507 64.6741 36.0106 65.0069 35.9374 64.6104C35.7169 63.4162 36.931 61.829 36.4184 60.7631C35.7987 60.7631 34.9991 59.491 33.3007 59.3003C31.6024 59.1096 27.0509 59.5515 25.6259 59.5515ZM57.7385 58.6873C57.165 59.3152 55.1841 60.4965 54.5644 60.4965C54.0518 61.5623 55.2659 63.1495 55.0454 64.3437C54.9722 64.7402 53.4758 64.4074 53.3882 64.9102C53.1538 66.2551 53.4233 67.9279 54.1966 69.9286C61.8487 70.1651 65.6747 70.1651 65.6747 69.9286C65.0936 67.4641 65.8368 60.637 65.257 58.5689L65.1553 58.5688C63.6337 58.5657 59.3983 58.5009 57.7385 58.6873Z" fill="white"/>
<path fill-rule="evenodd" clip-rule="evenodd" d="M27.561 19.844C28.1089 22.468 28.1112 25.1711 28.1113 27.8517C28.1118 41.7083 28.1123 55.5649 28.1128 69.4215C28.1129 69.6443 28.1076 69.8839 27.976 70.0637C27.8444 70.2435 27.5352 70.3047 27.4069 70.1226C27.3448 70.0344 27.3423 69.919 27.3421 69.8112C27.3127 55.3453 27.2833 40.8794 27.254 26.4135C27.2495 24.2192 27.2457 22.0155 27.561 19.844H27.561Z" fill="#333333"/>
<path fill-rule="evenodd" clip-rule="evenodd" d="M27.8477 18.6412C29.3176 18.9804 30.5476 20.4307 32.03 20.1508C33.2584 19.9188 33.9912 18.5793 35.1746 18.1767C37.4166 17.4141 40.0014 20.2936 41.9828 18.9967C42.3423 18.7615 42.6192 18.4093 42.9982 18.207C44.6182 17.3423 46.7141 19.6685 48.2788 18.7072C48.6416 18.4842 48.8934 18.1143 49.2485 17.8793C50.7742 16.8696 52.6558 18.865 54.4807 18.7352C56.1477 18.6166 57.5471 16.7226 59.1372 17.2371C59.7962 17.4503 60.2754 18.048 60.9332 18.265C62.365 18.7373 63.9145 17.2447 65.3368 17.7451C65.8078 17.9108 66.194 18.2815 66.6795 18.3981C67.2824 18.5428 67.9003 18.2683 68.4479 17.9775C68.9954 17.6866 69.5707 17.3622 70.1895 17.4009C70.8083 17.4396 71.4305 18.0353 71.2371 18.6243C70.7886 19.9896 70.7352 21.4485 70.6857 22.8847C70.1575 38.2107 69.6292 53.5366 69.101 68.8626C68.7401 68.8419 68.644 68.3586 68.6523 67.9973C69.0279 51.6199 69.4035 35.2426 69.7791 18.8652C69.0623 18.4609 68.2971 19.3586 67.4838 19.4841C66.6331 19.6153 65.9067 18.8826 65.0735 18.6665C63.4956 18.2572 61.716 19.7283 60.2965 18.927C59.8153 18.6554 59.4756 18.1551 58.9578 17.9621C57.5113 17.4228 56.4319 19.5271 54.9214 19.8459C53.2835 20.1917 51.8277 18.3308 50.1682 18.5507C48.6319 18.7543 47.4797 20.6876 45.9867 20.2721C44.9841 19.993 44.2536 18.6869 43.2551 18.9803C42.6779 19.15 42.3908 19.7928 41.9034 20.1457C41.1385 20.6996 40.06 20.4338 39.2176 20.0067C38.3752 19.5797 37.5542 18.9992 36.6102 18.969C35.219 18.9246 34.1012 20.0685 32.79 20.5354C30.9805 21.1798 28.763 20.33 27.8477 18.6412Z" fill="#333333"/>
<path fill-rule="evenodd" clip-rule="evenodd" d="M47.6812 21.1252C47.6948 21.4629 47.434 21.7414 47.1914 21.9768C46.2426 22.8977 45.2923 23.8212 44.4448 24.836C43.4157 26.0682 42.5308 27.4422 41.2962 28.4685C41.166 28.3152 41.2897 28.0848 41.4133 27.9261C43.2083 25.6214 45.1414 23.4242 47.1989 21.3503C47.3303 21.2178 47.5015 21.0745 47.6812 21.1252V21.1252Z" fill="#F2F2F2"/>
<path fill-rule="evenodd" clip-rule="evenodd" d="M60.8786 51.1363C60.7367 51.2366 60.559 51.3308 60.3967 51.2686C60.4578 51.0834 60.5796 50.9253 60.7021 50.7736C62.2007 48.9178 64.1115 47.4462 66.0032 45.9931C66.1735 45.8623 66.3974 45.7254 66.5874 45.8255C66.5702 45.9856 66.447 46.1112 66.3285 46.2202C65.2167 47.2421 63.8873 48.0171 62.8426 49.1075C62.1899 49.7888 61.6491 50.5919 60.8786 51.1363Z" fill="#F2F2F2"/>
<path fill-rule="evenodd" clip-rule="evenodd" d="M30.0229 36.267C30.1127 36.0801 30.3635 36.0539 30.5709 36.0535C32.7677 36.0494 34.9645 36.0452 37.1612 36.0411C37.1762 31.3477 37.1082 26.654 36.9571 21.9631C36.9518 21.799 36.9496 21.623 37.0402 21.4861C37.1307 21.3493 37.3524 21.2896 37.4586 21.4146C37.5367 26.312 37.6148 31.2094 37.6928 36.1067C37.695 36.2442 37.6943 36.3918 37.6163 36.505C37.4917 36.6859 37.2343 36.6993 37.0146 36.6945C34.982 36.65 32.9493 36.6056 30.9166 36.5611C30.5917 36.554 30.2208 36.5249 30.0229 36.267Z" fill="#333333"/>
<path fill-rule="evenodd" clip-rule="evenodd" d="M23.4457 14.4212C26.0684 32.9207 23.1429 51.8077 24.9791 70.4017C40.7271 70.31 56.4751 70.2182 72.2231 70.1265C72.5975 70.1243 73.0203 70.1012 73.2669 69.8195C73.4716 69.5855 73.4871 69.2461 73.4922 68.9352C73.7997 50.1313 74.1072 31.3273 74.4147 12.5234C62.393 12.8472 50.3713 13.1711 38.3496 13.495C33.8446 13.6163 29.323 13.7371 24.8432 13.2466C41.1157 12.46 57.4019 11.9558 73.6919 11.7344C74.16 11.728 74.6821 11.7425 75.0153 12.0712C75.3559 12.4072 75.37 12.9431 75.3619 13.4214C75.048 31.9956 74.734 50.5697 74.4201 69.1438C74.371 72.048 74.3504 75.0836 75.6548 77.6787C76.6785 79.7152 78.5361 81.7456 77.8791 83.9282C77.7188 84.4608 77.4074 84.972 77.4486 85.5267C77.5555 86.9665 79.6021 87.1523 81.0077 86.8224C82.4133 86.4925 84.3797 86.3759 84.8022 87.7565C61.5613 88.2771 38.313 88.4685 15.0667 88.3307C16.7228 87.7912 18.452 87.4762 20.192 87.3971C19.2253 85.2341 19.478 82.5725 20.8344 80.6301C21.5981 79.5365 22.6873 78.6478 23.1802 77.4085C23.54 76.504 23.5434 75.503 23.5419 74.5295C23.5098 54.4934 23.4778 34.4573 23.4457 14.4212ZM56.0815 82.1999C52.1765 82.3349 48.2955 83.0753 44.3903 82.9475C42.6331 82.89 40.8867 82.6568 39.1329 82.5349C34.8309 82.236 30.5137 82.6079 26.2175 82.9795C24.5083 83.1273 22.799 83.2751 21.0898 83.4229C20.9291 83.4368 20.7543 83.457 20.6399 83.5706C20.4926 83.7168 20.5042 83.9541 20.5261 84.1605C20.621 85.056 20.7159 85.9515 20.8108 86.847C20.8326 87.053 20.8653 87.2802 21.0237 87.4137C21.1705 87.5373 21.3803 87.5417 21.5722 87.5399C39.7848 87.3753 57.9974 87.2106 76.2099 87.0459C76.4118 87.0441 76.634 87.0345 76.7818 86.897C76.9288 86.7601 76.9547 86.5405 76.9716 86.3403C77.07 85.1714 77.1685 84.0024 77.267 82.8335C70.2443 83.6969 63.1528 81.9555 56.0815 82.1999ZM43.1548 81.862C48.1486 82.092 53.13 81.1634 58.129 81.2013C64.2761 81.2479 70.4464 82.7528 76.52 81.8034C76.6628 81.7811 76.821 81.7481 76.9039 81.6296C77.0235 81.4587 76.9171 81.2263 76.8102 81.0472C76.1455 79.9325 75.4807 78.8178 74.816 77.7031C74.6521 77.4283 74.4774 77.1424 74.2025 76.9787C73.9053 76.8017 73.5403 76.7964 73.1944 76.7962C57.1787 76.7866 41.1629 76.9979 25.153 77.43C23.7597 79.0854 22.2803 80.6682 20.7229 82.1702C25.8328 82.7802 30.9651 81.2781 36.1107 81.3539C38.4651 81.3886 40.8027 81.7537 43.1548 81.862ZM24.4375 73.9681C24.5604 74.902 25.0829 75.8413 25.9554 76.1961C26.4553 76.3994 27.012 76.3936 27.5516 76.3848C42.8032 76.1367 58.0548 75.8885 73.3065 75.6403C73.3649 74.6273 73.4234 73.6144 73.4819 72.6014C73.4912 72.439 73.4973 72.2637 73.4072 72.1282C73.2873 71.948 73.0455 71.905 72.8306 71.8788C56.8984 69.9354 40.7095 72.6536 24.7277 71.173C24.5218 72.0921 24.3147 73.0343 24.4375 73.9681Z" fill="#333333"/>
<path fill-rule="evenodd" clip-rule="evenodd" d="M47.4139 24.8362C47.5069 24.7512 47.6039 24.6647 47.7229 24.6233C47.842 24.5819 47.9898 24.5968 48.072 24.6923C48.0231 24.903 47.8388 25.0497 47.6703 25.1853C46.0655 26.4766 44.9142 28.2542 43.3487 29.5928C43.2339 29.691 43.0303 29.7734 42.9596 29.64C42.9108 29.548 42.9847 29.4412 43.0542 29.3638C44.454 27.8036 45.8662 26.2497 47.4139 24.8362Z" fill="#F2F2F2"/>
<path fill-rule="evenodd" clip-rule="evenodd" d="M29.5352 52.495C29.5329 52.2217 29.7764 52.0186 29.9949 51.8543C31.339 50.8442 32.5853 49.704 33.7108 48.4548C33.8108 48.3439 34.0127 48.4759 34.0133 48.6252C34.014 48.7746 33.8996 48.8962 33.7928 49.0006C32.6587 50.1091 31.5205 51.2211 30.2522 52.1731C30.0387 52.3333 29.802 52.4956 29.5352 52.495Z" fill="#F2F2F2"/>
<path fill-rule="evenodd" clip-rule="evenodd" d="M38.2139 21.3673C38.3589 21.2932 38.5267 21.2645 38.688 21.2864C38.8339 26.1584 38.9534 31.0312 39.0464 35.9045C44.4422 35.7379 49.8452 35.8047 55.2353 36.1045C55.7138 31.0927 55.7026 26.0482 55.6571 21.0139C55.6559 20.8827 55.6566 20.744 55.7237 20.6313C55.7908 20.5186 55.9497 20.4497 56.0577 20.5243C56.151 20.5887 56.1625 20.7198 56.1648 20.8332C56.2713 25.9767 56.1331 31.1252 55.7511 36.2556C55.7434 36.3592 55.7332 36.4693 55.6697 36.5515C55.5636 36.6889 55.3608 36.6912 55.1874 36.6811C49.6423 36.358 44.081 36.3127 38.5314 36.5456C38.5209 31.4848 38.415 26.4241 38.2139 21.3673Z" fill="#333333"/>
<path fill-rule="evenodd" clip-rule="evenodd" d="M56.4968 70.0643C55.6629 68.2995 55.3422 66.2958 55.5836 64.3589C55.5918 64.2932 55.6024 64.2234 55.6457 64.1733C55.6661 66.0215 56.0006 67.8658 56.6305 69.6034C56.6631 69.6934 56.6971 69.7877 56.6838 69.8824C56.6706 69.9772 56.5923 70.0704 56.4968 70.0643H56.4968Z" fill="#333333"/>
<path fill-rule="evenodd" clip-rule="evenodd" d="M60.1577 47.017C61.0932 46.1143 62.0287 45.2116 62.9642 44.3089C63.0616 44.2149 63.2369 44.3409 63.2349 44.4763C63.2329 44.6116 63.1291 44.721 63.0321 44.8154C62.2485 45.5778 61.4649 46.3403 60.6813 47.1027C60.5803 47.201 60.4634 47.3059 60.3225 47.3038C60.1816 47.3018 60.0563 47.1148 60.1577 47.017H60.1577Z" fill="#F2F2F2"/>
<path fill-rule="evenodd" clip-rule="evenodd" d="M40.2807 64.3579C42.6628 64.3666 45.0429 64.2292 47.4211 64.092C50.1761 63.933 52.9312 63.774 55.6862 63.615C56.3009 63.5795 56.9403 63.5371 57.4763 63.234C56.8534 62.506 56.437 61.6033 56.2873 60.657C56.2729 60.566 56.262 60.4679 56.3044 60.3862C56.3468 60.3044 56.4643 60.2565 56.5342 60.3164C56.6587 61.3431 57.0638 62.3343 57.694 63.1544C57.8216 63.3205 57.601 63.533 57.4063 63.6104C56.7339 63.8776 55.9967 63.9207 55.2742 63.9607C53.1496 64.0783 51.025 64.1958 48.9005 64.3134C46.2048 64.4625 43.509 64.6117 40.8112 64.7146C40.2838 64.7347 39.6633 64.7092 39.3623 64.2756C39.112 63.9149 39.1994 63.4276 39.3028 63.0009C39.4684 62.3174 39.6488 61.6375 39.8439 60.9618C39.8997 60.7686 40.0116 60.5342 40.2123 60.5452C39.8042 61.4868 39.5882 62.5112 39.5813 63.5374C39.5795 63.8165 39.6204 64.1441 39.8624 64.2831C39.9867 64.3545 40.1373 64.3574 40.2807 64.3579Z" fill="#333333"/>
<path fill-rule="evenodd" clip-rule="evenodd" d="M40.1581 25.9127C40.0077 25.8453 40.0932 25.6177 40.1976 25.4902C41.3921 24.0311 42.5867 22.572 43.7812 21.1129C43.8312 21.0518 43.8844 20.9883 43.9575 20.9586C44.0307 20.9289 44.1296 20.9466 44.1646 21.0174C44.2048 21.0989 44.1436 21.1919 44.0858 21.2619C42.8899 22.7113 41.6939 24.1606 40.4979 25.61C40.4004 25.7281 40.2979 25.8502 40.1581 25.9127H40.1581Z" fill="#F2F2F2"/>
<path fill-rule="evenodd" clip-rule="evenodd" d="M23.5642 14.348C23.5428 14.1833 23.537 14.0165 23.5469 13.8507C23.5485 13.824 23.5542 13.792 23.5791 13.7821C23.6201 13.7657 23.6476 13.8249 23.6523 13.8688C23.67 14.0358 23.6802 14.2265 23.5642 14.348H23.5642Z" fill="#333333"/>
<path fill-rule="evenodd" clip-rule="evenodd" d="M65.9793 36.6117C62.9235 36.6413 59.8676 36.671 56.8118 36.7006C56.7265 36.7015 56.633 36.6994 56.5684 36.6437C56.4937 36.5793 56.4857 36.4684 56.4834 36.3698C56.3618 31.2623 56.5448 26.1531 56.7279 21.0475C56.7336 20.889 56.7434 20.7187 56.8413 20.594C56.9392 20.4693 57.1601 20.4325 57.2479 20.5646C57.0226 25.6353 56.9096 30.711 56.9089 35.7867C56.9089 35.94 56.9604 36.147 57.1137 36.1411C60.5868 36.0084 64.0649 36.0075 67.5381 36.1383C67.6089 36.1409 67.6921 36.1508 67.7271 36.2125C67.7871 36.3182 67.6449 36.4229 67.5281 36.4566C67.0278 36.6005 66.4998 36.6066 65.9793 36.6117Z" fill="#333333"/>
<path fill-rule="evenodd" clip-rule="evenodd" d="M17.4459 65.0011C17.3913 64.9468 17.3367 64.8925 17.2821 64.8382C17.2528 64.8091 17.222 64.7635 17.2476 64.7311C17.2772 64.6936 17.3364 64.7271 17.3701 64.761C17.4204 64.8116 17.4708 64.8622 17.5211 64.9127C17.5548 64.9466 17.5877 65.0063 17.5495 65.035C17.5176 65.0588 17.4741 65.0292 17.4459 65.0011L17.4459 65.0011Z" fill="#333333"/>
<path fill-rule="evenodd" clip-rule="evenodd" d="M32.6065 42.4985C32.6389 42.5601 32.6154 42.6359 32.5837 42.6978C32.5103 42.8407 32.397 42.9585 32.284 43.0726C32.0624 43.2964 31.8353 43.5148 31.6029 43.7274C31.5242 43.7995 31.4383 43.8741 31.3327 43.8897C31.2272 43.9053 31.102 43.8317 31.1055 43.7251C31.1076 43.6636 31.1494 43.6117 31.1896 43.5652C31.5077 43.1978 31.8546 42.8554 32.226 42.5421C32.2824 42.4946 32.342 42.4464 32.4135 42.4287C32.4851 42.411 32.5721 42.4333 32.6065 42.4985Z" fill="#F2F2F2"/>
<path fill-rule="evenodd" clip-rule="evenodd" d="M30.7484 34.2178C30.725 34.2168 30.7243 34.1732 30.7476 34.1714C30.7711 34.1731 30.7704 34.217 30.7469 34.2179L30.7484 34.2178Z" fill="#333333"/>
<path fill-rule="evenodd" clip-rule="evenodd" d="M30.5398 46.4036C30.5135 46.3113 30.5888 46.2231 30.6612 46.1599C30.8218 46.0197 30.9986 45.8995 31.1718 45.7749C31.8218 45.3074 32.4251 44.7747 32.9695 44.1875C33.0324 44.1196 33.0971 44.0491 33.1815 44.0111C33.266 43.9731 33.3766 43.9764 33.4394 44.0445C33.4992 44.1093 33.4977 44.2132 33.4595 44.2927C33.4213 44.3722 33.3535 44.4329 33.2875 44.4914C32.8245 44.9012 32.3615 45.311 31.8985 45.7209C31.5952 45.9893 31.2883 46.2603 30.9308 46.4505C30.864 46.4861 30.7926 46.5194 30.7169 46.5194C30.6411 46.5193 30.5604 46.4765 30.5398 46.4036H30.5398Z" fill="#F2F2F2"/>
<path fill-rule="evenodd" clip-rule="evenodd" d="M59.7255 44.284C59.6602 44.3542 59.5936 44.4279 59.5055 44.4656C59.4174 44.5034 59.3006 44.4935 59.2438 44.4163C59.1523 44.2921 59.2724 44.1252 59.3856 44.0204C60.0607 43.3953 60.7679 42.8047 61.5032 42.2516C61.6417 42.1474 61.8162 42.0393 61.9768 42.1045C61.9943 42.1117 62.0125 42.1224 62.0185 42.1404C62.0233 42.1547 62.0192 42.1703 62.0145 42.1846C61.9434 42.4033 61.7556 42.5603 61.5752 42.7029C60.9382 43.2065 60.2787 43.6895 59.7255 44.284Z" fill="#F2F2F2"/>
<path fill-rule="evenodd" clip-rule="evenodd" d="M40.9358 65.176C41.0521 65.7054 41.2335 66.5892 41.17 67.1274C41.0556 68.0977 40.7906 68.7945 40.5753 69.7475C40.5408 69.8999 40.3388 70.0027 40.1943 70.0621C40.1051 69.9384 40.1429 69.7678 40.1829 69.6207C40.5781 68.1684 40.8307 66.6774 40.9358 65.176Z" fill="#333333"/>
<path fill-rule="evenodd" clip-rule="evenodd" d="M49.4615 69.8957C49.3851 69.9796 49.2486 69.9017 49.1673 69.8225C48.6985 69.3662 48.2747 68.8637 47.9041 68.3247C47.8861 68.2986 47.8477 68.3295 47.8332 68.3576C47.5627 68.883 47.2921 69.4085 47.0216 69.934C47.01 69.9565 46.9942 69.9819 46.969 69.9839C46.9179 69.9878 46.9175 69.9081 46.9379 69.8612C47.2035 69.2517 47.469 68.6422 47.7345 68.0327C47.7466 68.005 47.7594 67.9763 47.7821 67.9563C47.8691 67.8796 47.9958 67.9836 48.0641 68.0774C48.4606 68.6218 48.8996 69.1352 49.3759 69.6114C49.4536 69.6891 49.5355 69.8144 49.4615 69.8957Z" fill="#333333"/>
<path fill-rule="evenodd" clip-rule="evenodd" d="M29.4262 56.0707C29.3229 56.2187 29.3295 56.4144 29.3402 56.5947L29.4545 58.5214C29.4678 58.7448 29.4937 58.9947 29.6656 59.138C29.826 59.2718 30.0572 59.2649 30.2655 59.251L34.3675 58.9781C35.5521 58.8993 36.8443 58.8493 37.8088 59.5417C39.5974 60.8259 42.3734 60.425 43.7255 58.6872C43.8841 58.4834 44.1787 58.4619 44.4369 58.4577L52.2253 58.3298L52.2462 58.3295C52.5974 58.3236 53.0565 58.3159 53.2258 58.5817C54.668 60.8463 58.4329 60.4205 60.3031 58.5957C60.663 58.2446 61.2093 58.1891 61.7107 58.1528L66.6552 57.7955C67.2304 57.7539 67.6642 57.2043 67.77 56.6374C67.8758 56.0705 67.7301 55.4903 67.5855 54.932C67.5408 54.7596 67.4838 54.5701 67.331 54.4785C67.2185 54.4111 67.0791 54.4133 66.948 54.4176L56.611 54.7558C56.4107 49.0838 56.5112 43.4012 56.9118 37.7398C60.7068 37.5566 64.5075 37.4937 68.3064 37.5513C68.4203 37.2413 67.949 37.0715 67.6189 37.0799L57.025 37.3487C56.8419 37.3533 56.6402 37.3654 56.509 37.4931C56.3779 37.6207 56.3601 37.8218 56.3506 38.0045C56.0575 43.604 55.9688 49.2142 56.0848 54.8202C55.8704 54.8556 55.6459 54.8277 55.4467 54.7408L55.5274 37.8342C55.5282 37.6824 55.5197 37.5095 55.4035 37.4118C55.3106 37.3336 55.1781 37.3298 55.0566 37.33C49.5312 37.3359 44.0058 37.4103 38.4822 37.5532L38.7884 55.3995L38.0716 55.4851C37.7964 49.5943 37.701 43.695 37.7856 37.7983C37.7902 37.4735 37.363 37.3559 37.0384 37.3417C34.5908 37.2343 32.1385 37.2319 29.6906 37.3344C30.0616 37.7312 30.667 37.7702 31.2101 37.7827L37.2935 37.923C37.1954 43.7447 37.2819 49.5695 37.5527 55.3857L30.087 55.8239C29.8436 55.8381 29.5658 55.8707 29.4262 56.0707ZM39.0041 37.8391C44.3154 37.8114 49.6265 37.7611 54.9374 37.6884C55.047 37.6869 55.0815 37.8348 55.0805 37.9444L54.9219 54.827L39.2899 55.4291C39.1453 49.5667 39.0501 43.7031 39.0041 37.8391ZM41.1962 56.8818C40.8915 56.8939 40.644 57.1273 40.454 57.366C40.4238 57.4041 40.3938 57.4429 40.3638 57.4818C40.2057 57.687 40.0452 57.8953 39.8164 58.0108C39.6026 58.1188 39.355 58.1316 39.1157 58.1424L29.9567 58.5541L29.7898 56.3789C42.1457 55.6858 54.5119 55.1745 66.8829 54.845C66.9678 54.8428 67.061 54.8432 67.1263 54.8975C67.2043 54.9622 67.2123 55.077 67.2143 55.1783L67.2535 57.2503C64.3592 57.6749 61.4279 57.7684 58.5041 57.8614C58.0942 57.8744 57.6562 57.8802 57.3101 57.6603C57.0741 57.5105 56.913 57.2757 56.7534 57.043C56.7159 56.9884 56.6785 56.9339 56.6402 56.8806C56.4388 56.6003 56.1686 56.3263 55.8246 56.298C55.4807 56.2697 55.1164 56.6359 55.2698 56.9451C54.9542 56.5287 54.1437 56.7794 54.1185 57.3012C54.0195 56.9049 53.5136 56.6717 53.1479 56.8538C52.7822 57.036 52.6636 57.5803 52.9203 57.8981L44.0106 58.054C44.0223 57.7318 43.7691 57.4209 43.4512 57.367C43.1334 57.3132 42.7919 57.5233 42.6968 57.8314C42.7047 57.344 41.9408 57.0848 41.6504 57.4762C41.807 57.2144 41.501 56.8698 41.1962 56.8818ZM55.3231 59.6179C54.8711 59.5188 54.4029 59.3777 54.0812 59.0451C53.9176 58.8759 53.8023 58.6671 53.6888 58.4609L53.2556 57.6735C53.204 57.5797 53.1507 57.4777 53.1643 57.3715C53.1778 57.2654 53.5158 56.9421 53.8171 57.3012C54.1184 57.6603 54.229 57.8029 54.4611 58.2529C54.4803 58.29 54.4994 58.3284 54.5189 58.3674C54.674 58.6785 54.8471 59.0256 55.1801 59.0442C55.2442 58.8013 55.1334 58.5502 55.0252 58.3235L54.7235 57.6906C54.6276 57.4895 54.5353 57.2378 54.668 57.0588C55.3597 57.2922 55.7455 58.0122 56.0431 58.6787C56.0805 58.7625 56.1202 58.8498 56.1921 58.9068C56.2641 58.9637 56.3788 58.978 56.4434 58.9128C56.5284 58.8269 56.4742 58.6832 56.4172 58.5766C56.1338 58.0468 55.8838 57.499 55.6691 56.9378C55.644 56.8721 55.6215 56.7912 55.6664 56.7372C55.7208 56.6717 55.8259 56.6991 55.9023 56.7365C56.3756 56.9682 56.7568 57.3823 56.9485 57.8731C56.9633 57.9109 56.977 57.9492 56.9908 57.9875C57.0357 58.1127 57.0807 58.2381 57.1602 58.3436C57.4048 58.6684 57.8737 58.6957 58.2803 58.6938C58.3907 58.6933 58.5051 58.6919 58.6051 58.6453C58.7052 58.5988 58.7871 58.4936 58.7699 58.3846C58.7538 58.2821 58.8972 58.2408 59.001 58.2417L60.2844 58.2531C59.641 59.0209 58.6075 59.3143 57.6384 59.5681C57.3641 59.64 57.0885 59.7121 56.8066 59.7432C56.3111 59.798 55.8101 59.7247 55.3231 59.6179ZM37.1611 58.866C37.5781 58.7786 38.0009 58.719 38.4258 58.6877C38.3915 58.8337 38.4898 58.9839 38.6175 59.0626C38.9152 59.2464 39.319 59.1174 39.5786 58.8829C39.7536 58.7248 39.8847 58.5279 40.0159 58.3308C40.0794 58.2354 40.143 58.1399 40.2116 58.0488C40.4833 57.6876 41.2119 56.8659 41.3562 57.2503C41.4409 57.4762 41.231 57.8945 40.9973 58.3602C40.8333 58.6872 40.6574 59.0376 40.5636 59.3612C40.857 59.1381 40.98 58.9338 41.1102 58.6787C41.2604 58.3846 41.5719 57.9716 41.8144 57.6735C41.9237 57.5393 42.0864 57.459 42.2406 57.5279C42.3948 57.5969 42.4408 57.7834 42.4001 57.8732C42.3045 58.0834 42.244 58.2382 42.1835 58.393C42.123 58.5478 42.0625 58.7025 41.9669 58.9128C41.9609 58.9261 41.9514 58.9452 41.9401 58.9682C41.8827 59.0843 41.7766 59.2987 41.8144 59.3622C41.8534 59.4275 41.9595 59.3144 42.0678 59.1991C42.0933 59.1719 42.119 59.1446 42.1439 59.1194C42.182 59.081 42.2466 58.9674 42.3311 58.8186C42.5364 58.4573 42.8593 57.889 43.205 57.6906C43.4885 57.5279 43.6136 57.9445 43.5541 58.0702C43.4446 58.3019 43.3281 58.5302 43.205 58.7549C43.0416 59.0529 42.7277 59.3509 42.4642 59.5654C42.1293 59.8379 41.6922 59.9498 41.2641 60.0057C39.7761 60.2 38.3507 59.7807 37.1611 58.866ZM39.0041 58.9781C38.7855 58.9993 38.6175 58.6876 38.6175 58.6876L39.5172 58.6222C39.5172 58.6222 39.2227 58.957 39.0041 58.9781Z" fill="#333333"/>
</svg>
